<?xml version="1.0" encoding="us-ascii" standalone="no"?><svg xmlns="http://www.w3.org/2000/svg" xmlns:xlink="http://www.w3.org/1999/xlink" contentStyleType="text/css" height="125px" preserveAspectRatio="none" style="width:3423px;height:125px;background:#FFFFFF;" version="1.1" viewBox="0 0 3423 125" width="3423px" zoomAndPan="magnify"><defs/><g><!--cluster Placeholder_5--><g id="cluster_Placeholder_5"><polygon fill="none" points="1396,16,1406,6,3406,6,3406,98,3396,108,1396,108,1396,16" style="stroke:#181818;stroke-width:1.0;"/><line style="stroke:#181818;stroke-width:1.0;" x1="3396" x2="3406" y1="16" y2="6"/><line style="stroke:#181818;stroke-width:1.0;" x1="1396" x2="3396" y1="16" y2="16"/><line style="stroke:#181818;stroke-width:1.0;" x1="3396" x2="3396" y1="16" y2="108"/><text fill="#000000" font-family="sans-serif" font-size="14" font-weight="bold" lengthAdjust="spacing" textLength="110" x="2342" y="31.9951">Placeholder_5</text></g><!--entity aName--><g id="elem_aName"><a href="georgwittberger-apache-spring-boot-microservice-example.system#_1gksobw4Ee63GZKh5aDjIA" target="_top" title="georgwittberger-apache-spring-boot-microservice-example.system#_1gksobw4Ee63GZKh5aDjIA" xlink:actuate="onRequest" xlink:href="georgwittberger-apache-spring-boot-microservice-example.system#_1gksobw4Ee63GZKh5aDjIA" xlink:show="new" xlink:title="georgwittberger-apache-spring-boot-microservice-example.system#_1gksobw4Ee63GZKh5aDjIA" xlink:type="simple"><rect fill="#F1F1F1" height="46.2969" rx="2.5" ry="2.5" style="stroke:#181818;stroke-width:0.5;" width="88" x="1412" y="46"/><rect fill="#F1F1F1" height="10" style="stroke:#181818;stroke-width:0.5;" width="15" x="1480" y="51"/><rect fill="#F1F1F1" height="2" style="stroke:#181818;stroke-width:0.5;" width="4" x="1478" y="53"/><rect fill="#F1F1F1" height="2" style="stroke:#181818;stroke-width:0.5;" width="4" x="1478" y="57"/><text fill="#000000" font-family="sans-serif" font-size="14" lengthAdjust="spacing" textLength="48" x="1427" y="78.9951">aName</text></a></g><!--entity Placeholder_10--><g id="elem_Placeholder_10"><polygon fill="#F1F1F1" points="16,56,26,46,162,46,162,82.2969,152,92.2969,16,92.2969,16,56" style="stroke:#181818;stroke-width:0.5;"/><line style="stroke:#181818;stroke-width:0.5;" x1="152" x2="162" y1="56" y2="46"/><line style="stroke:#181818;stroke-width:0.5;" x1="16" x2="152" y1="56" y2="56"/><line style="stroke:#181818;stroke-width:0.5;" x1="152" x2="152" y1="56" y2="92.2969"/><text fill="#000000" font-family="sans-serif" font-size="14" lengthAdjust="spacing" textLength="106" x="31" y="78.9951">Placeholder_10</text></g><!--entity Placeholder_3--><g id="elem_Placeholder_3"><polygon fill="#F1F1F1" points="197.5,56,207.5,46,334.5,46,334.5,82.2969,324.5,92.2969,197.5,92.2969,197.5,56" style="stroke:#181818;stroke-width:0.5;"/><line style="stroke:#181818;stroke-width:0.5;" x1="324.5" x2="334.5" y1="56" y2="46"/><line style="stroke:#181818;stroke-width:0.5;" x1="197.5" x2="324.5" y1="56" y2="56"/><line style="stroke:#181818;stroke-width:0.5;" x1="324.5" x2="324.5" y1="56" y2="92.2969"/><text fill="#000000" font-family="sans-serif" font-size="14" lengthAdjust="spacing" textLength="97" x="212.5" y="78.9951">Placeholder_3</text></g><!--entity Placeholder_1--><g id="elem_Placeholder_1"><polygon fill="#F1F1F1" points="369.5,56,379.5,46,506.5,46,506.5,82.2969,496.5,92.2969,369.5,92.2969,369.5,56" style="stroke:#181818;stroke-width:0.5;"/><line style="stroke:#181818;stroke-width:0.5;" x1="496.5" x2="506.5" y1="56" y2="46"/><line style="stroke:#181818;stroke-width:0.5;" x1="369.5" x2="496.5" y1="56" y2="56"/><line style="stroke:#181818;stroke-width:0.5;" x1="496.5" x2="496.5" y1="56" y2="92.2969"/><text fill="#000000" font-family="sans-serif" font-size="14" lengthAdjust="spacing" textLength="97" x="384.5" y="78.9951">Placeholder_1</text></g><!--entity Placeholder_6--><g id="elem_Placeholder_6"><polygon fill="#F1F1F1" points="541.5,56,551.5,46,678.5,46,678.5,82.2969,668.5,92.2969,541.5,92.2969,541.5,56" style="stroke:#181818;stroke-width:0.5;"/><line style="stroke:#181818;stroke-width:0.5;" x1="668.5" x2="678.5" y1="56" y2="46"/><line style="stroke:#181818;stroke-width:0.5;" x1="541.5" x2="668.5" y1="56" y2="56"/><line style="stroke:#181818;stroke-width:0.5;" x1="668.5" x2="668.5" y1="56" y2="92.2969"/><text fill="#000000" font-family="sans-serif" font-size="14" lengthAdjust="spacing" textLength="97" x="556.5" y="78.9951">Placeholder_6</text></g><!--entity Placeholder_7--><g id="elem_Placeholder_7"><polygon fill="#F1F1F1" points="713.5,56,723.5,46,850.5,46,850.5,82.2969,840.5,92.2969,713.5,92.2969,713.5,56" style="stroke:#181818;stroke-width:0.5;"/><line style="stroke:#181818;stroke-width:0.5;" x1="840.5" x2="850.5" y1="56" y2="46"/><line style="stroke:#181818;stroke-width:0.5;" x1="713.5" x2="840.5" y1="56" y2="56"/><line style="stroke:#181818;stroke-width:0.5;" x1="840.5" x2="840.5" y1="56" y2="92.2969"/><text fill="#000000" font-family="sans-serif" font-size="14" lengthAdjust="spacing" textLength="97" x="728.5" y="78.9951">Placeholder_7</text></g><!--entity Placeholder_13--><g id="elem_Placeholder_13"><polygon fill="#F1F1F1" points="886,56,896,46,1032,46,1032,82.2969,1022,92.2969,886,92.2969,886,56" style="stroke:#181818;stroke-width:0.5;"/><line style="stroke:#181818;stroke-width:0.5;" x1="1022" x2="1032" y1="56" y2="46"/><line style="stroke:#181818;stroke-width:0.5;" x1="886" x2="1022" y1="56" y2="56"/><line style="stroke:#181818;stroke-width:0.5;" x1="1022" x2="1022" y1="56" y2="92.2969"/><text fill="#000000" font-family="sans-serif" font-size="14" lengthAdjust="spacing" textLength="106" x="901" y="78.9951">Placeholder_13</text></g><!--entity Placeholder_4--><g id="elem_Placeholder_4"><polygon fill="#F1F1F1" points="1067.5,56,1077.5,46,1204.5,46,1204.5,82.2969,1194.5,92.2969,1067.5,92.2969,1067.5,56" style="stroke:#181818;stroke-width:0.5;"/><line style="stroke:#181818;stroke-width:0.5;" x1="1194.5" x2="1204.5" y1="56" y2="46"/><line style="stroke:#181818;stroke-width:0.5;" x1="1067.5" x2="1194.5" y1="56" y2="56"/><line style="stroke:#181818;stroke-width:0.5;" x1="1194.5" x2="1194.5" y1="56" y2="92.2969"/><text fill="#000000" font-family="sans-serif" font-size="14" lengthAdjust="spacing" textLength="97" x="1082.5" y="78.9951">Placeholder_4</text></g><!--entity Placeholder_8--><g id="elem_Placeholder_8"><polygon fill="#F1F1F1" points="1239.5,56,1249.5,46,1376.5,46,1376.5,82.2969,1366.5,92.2969,1239.5,92.2969,1239.5,56" style="stroke:#181818;stroke-width:0.5;"/><line style="stroke:#181818;stroke-width:0.5;" x1="1366.5" x2="1376.5" y1="56" y2="46"/><line style="stroke:#181818;stroke-width:0.5;" x1="1239.5" x2="1366.5" y1="56" y2="56"/><line style="stroke:#181818;stroke-width:0.5;" x1="1366.5" x2="1366.5" y1="56" y2="92.2969"/><text fill="#000000" font-family="sans-serif" font-size="14" lengthAdjust="spacing" textLength="97" x="1254.5" y="78.9951">Placeholder_8</text></g><!--link aName to aName--><g id="link_aName_aName"><path d="M1500.27,66.15 C1519.02,65.94 1535,66.89 1535,69 C1535,71.11 1519.02,72.06 1500.27,71.85 " fill="none" id="aName-aName" style="stroke:#181818;stroke-width:1.0;"/><text fill="#000000" font-family="sans-serif" font-size="13" lengthAdjust="spacing" textLength="558" x="1548" y="73.5669">io_github_georgwittberger_microserviceexample_cartservice_cart_CartService_Provider</text><path d="M1493.1202,59.1586 A10,10 0 0 0 1493.2786 73.2998" fill="none" style="stroke:#181818;stroke-width:1.5;"/><ellipse cx="1500.27" cy="66.15" fill="#FFFFFF" rx="6" ry="6" style="stroke:#181818;stroke-width:1.5;"/></g><!--link aName to aName--><g id="link_aName_aName"><path d="M1500.12,66.33 C1650.58,61.47 2119,62.36 2119,69 C2119,75.64 1650.58,76.53 1500.12,71.67 " fill="none" id="aName-aName-1" style="stroke:#181818;stroke-width:1.0;"/><text fill="#000000" font-family="sans-serif" font-size="13" lengthAdjust="spacing" textLength="572" x="2132" y="73.5669">io_github_georgwittberger_microserviceexample_cartservice_cart_RestTemplate_Provider</text><path d="M1492.8243,59.4909 A10,10 0 0 0 1493.2809 73.6257" fill="none" style="stroke:#181818;stroke-width:1.5;"/><ellipse cx="1500.12" cy="66.33" fill="#FFFFFF" rx="6" ry="6" style="stroke:#181818;stroke-width:1.5;"/></g><!--link aName to aName--><g id="link_aName_aName"><path d="M1500.1,66.01 C1726.43,57.61 2717,58.6 2717,69 C2717,79.4 1726.43,80.39 1500.1,71.99 " fill="none" id="aName-aName-2" style="stroke:#181818;stroke-width:1.0;"/><text fill="#000000" font-family="sans-serif" font-size="13" lengthAdjust="spacing" textLength="628" x="2730" y="73.5669">io_github_georgwittberger_microserviceexample_productservice_product_ProductService_Provider</text><path d="M1492.7715,59.2061 A10,10 0 0 0 1493.2961 73.3385" fill="none" style="stroke:#181818;stroke-width:1.5;"/><ellipse cx="1500.1" cy="66.01" fill="#FFFFFF" rx="6" ry="6" style="stroke:#181818;stroke-width:1.5;"/></g><!--SRC=[nT5DIyGm40RWUtz5m8kNo2xxeNYJLKGKNTIJfOH9EgPnqoPCqkwA-D_jIbV4lQgv99a9vE7DX9LfF13KxDbi5eQKnHkGQEyw90lUcqQpI2rcZIkHBIqeh9mjaSIClMKvt4AD1SjpZOxqsiGeaJGI1m-gGXuyzIzmwLpajL7a0b9d57BSGEqj7eNN4B4-46Ez2awkfnSudrm-NLSpE7-vEYkAx7rV7e-IqPDqePF9ysJoSRhVJZVeQJBvvB_a7S8FHvpjYbDcdD0cLgqKFspn7HeSeO3YqFeyYqM_F0oD9RdEz9d-YBh741-nluFusvOdLxRgYnlABRBTz_9z0000]--></g></svg>