<?xml version="1.0" encoding="us-ascii" standalone="no"?><svg xmlns="http://www.w3.org/2000/svg" xmlns:xlink="http://www.w3.org/1999/xlink" contentStyleType="text/css" height="125px" preserveAspectRatio="none" style="width:3414px;height:125px;background:#FFFFFF;" version="1.1" viewBox="0 0 3414 125" width="3414px" zoomAndPan="magnify"><defs/><g><!--cluster Placeholder_1--><g id="cluster_Placeholder_1"><polygon fill="none" points="1396,16,1406,6,3397,6,3397,98,3387,108,1396,108,1396,16" style="stroke:#181818;stroke-width:1.0;"/><line style="stroke:#181818;stroke-width:1.0;" x1="3387" x2="3397" y1="16" y2="6"/><line style="stroke:#181818;stroke-width:1.0;" x1="1396" x2="3387" y1="16" y2="16"/><line style="stroke:#181818;stroke-width:1.0;" x1="3387" x2="3387" y1="16" y2="108"/><text fill="#000000" font-family="sans-serif" font-size="14" font-weight="bold" lengthAdjust="spacing" textLength="110" x="2337.5" y="31.9951">Placeholder_1</text></g><!--entity aName--><g id="elem_aName"><a href="georgwittberger-apache-spring-boot-microservice-example.system#_qRIZybtpEe6CcbLzjuQx_A" target="_top" title="georgwittberger-apache-spring-boot-microservice-example.system#_qRIZybtpEe6CcbLzjuQx_A" xlink:actuate="onRequest" xlink:href="georgwittberger-apache-spring-boot-microservice-example.system#_qRIZybtpEe6CcbLzjuQx_A" xlink:show="new" xlink:title="georgwittberger-apache-spring-boot-microservice-example.system#_qRIZybtpEe6CcbLzjuQx_A" xlink:type="simple"><rect fill="#F1F1F1" height="46.2969" rx="2.5" ry="2.5" style="stroke:#181818;stroke-width:0.5;" width="88" x="1412" y="46"/><rect fill="#F1F1F1" height="10" style="stroke:#181818;stroke-width:0.5;" width="15" x="1480" y="51"/><rect fill="#F1F1F1" height="2" style="stroke:#181818;stroke-width:0.5;" width="4" x="1478" y="53"/><rect fill="#F1F1F1" height="2" style="stroke:#181818;stroke-width:0.5;" width="4" x="1478" y="57"/><text fill="#000000" font-family="sans-serif" font-size="14" lengthAdjust="spacing" textLength="48" x="1427" y="78.9951">aName</text></a></g><!--entity Placeholder_14--><g id="elem_Placeholder_14"><polygon fill="#F1F1F1" points="16,56,26,46,162,46,162,82.2969,152,92.2969,16,92.2969,16,56" style="stroke:#181818;stroke-width:0.5;"/><line style="stroke:#181818;stroke-width:0.5;" x1="152" x2="162" y1="56" y2="46"/><line style="stroke:#181818;stroke-width:0.5;" x1="16" x2="152" y1="56" y2="56"/><line style="stroke:#181818;stroke-width:0.5;" x1="152" x2="152" y1="56" y2="92.2969"/><text fill="#000000" font-family="sans-serif" font-size="14" lengthAdjust="spacing" textLength="106" x="31" y="78.9951">Placeholder_14</text></g><!--entity Placeholder_0--><g id="elem_Placeholder_0"><polygon fill="#F1F1F1" points="197.5,56,207.5,46,334.5,46,334.5,82.2969,324.5,92.2969,197.5,92.2969,197.5,56" style="stroke:#181818;stroke-width:0.5;"/><line style="stroke:#181818;stroke-width:0.5;" x1="324.5" x2="334.5" y1="56" y2="46"/><line style="stroke:#181818;stroke-width:0.5;" x1="197.5" x2="324.5" y1="56" y2="56"/><line style="stroke:#181818;stroke-width:0.5;" x1="324.5" x2="324.5" y1="56" y2="92.2969"/><text fill="#000000" font-family="sans-serif" font-size="14" lengthAdjust="spacing" textLength="97" x="212.5" y="78.9951">Placeholder_0</text></g><!--entity Placeholder_9--><g id="elem_Placeholder_9"><polygon fill="#F1F1F1" points="369.5,56,379.5,46,506.5,46,506.5,82.2969,496.5,92.2969,369.5,92.2969,369.5,56" style="stroke:#181818;stroke-width:0.5;"/><line style="stroke:#181818;stroke-width:0.5;" x1="496.5" x2="506.5" y1="56" y2="46"/><line style="stroke:#181818;stroke-width:0.5;" x1="369.5" x2="496.5" y1="56" y2="56"/><line style="stroke:#181818;stroke-width:0.5;" x1="496.5" x2="496.5" y1="56" y2="92.2969"/><text fill="#000000" font-family="sans-serif" font-size="14" lengthAdjust="spacing" textLength="97" x="384.5" y="78.9951">Placeholder_9</text></g><!--entity Placeholder_13--><g id="elem_Placeholder_13"><polygon fill="#F1F1F1" points="542,56,552,46,688,46,688,82.2969,678,92.2969,542,92.2969,542,56" style="stroke:#181818;stroke-width:0.5;"/><line style="stroke:#181818;stroke-width:0.5;" x1="678" x2="688" y1="56" y2="46"/><line style="stroke:#181818;stroke-width:0.5;" x1="542" x2="678" y1="56" y2="56"/><line style="stroke:#181818;stroke-width:0.5;" x1="678" x2="678" y1="56" y2="92.2969"/><text fill="#000000" font-family="sans-serif" font-size="14" lengthAdjust="spacing" textLength="106" x="557" y="78.9951">Placeholder_13</text></g><!--entity Placeholder_8--><g id="elem_Placeholder_8"><polygon fill="#F1F1F1" points="723.5,56,733.5,46,860.5,46,860.5,82.2969,850.5,92.2969,723.5,92.2969,723.5,56" style="stroke:#181818;stroke-width:0.5;"/><line style="stroke:#181818;stroke-width:0.5;" x1="850.5" x2="860.5" y1="56" y2="46"/><line style="stroke:#181818;stroke-width:0.5;" x1="723.5" x2="850.5" y1="56" y2="56"/><line style="stroke:#181818;stroke-width:0.5;" x1="850.5" x2="850.5" y1="56" y2="92.2969"/><text fill="#000000" font-family="sans-serif" font-size="14" lengthAdjust="spacing" textLength="97" x="738.5" y="78.9951">Placeholder_8</text></g><!--entity Placeholder_6--><g id="elem_Placeholder_6"><polygon fill="#F1F1F1" points="895.5,56,905.5,46,1032.5,46,1032.5,82.2969,1022.5,92.2969,895.5,92.2969,895.5,56" style="stroke:#181818;stroke-width:0.5;"/><line style="stroke:#181818;stroke-width:0.5;" x1="1022.5" x2="1032.5" y1="56" y2="46"/><line style="stroke:#181818;stroke-width:0.5;" x1="895.5" x2="1022.5" y1="56" y2="56"/><line style="stroke:#181818;stroke-width:0.5;" x1="1022.5" x2="1022.5" y1="56" y2="92.2969"/><text fill="#000000" font-family="sans-serif" font-size="14" lengthAdjust="spacing" textLength="97" x="910.5" y="78.9951">Placeholder_6</text></g><!--entity Placeholder_3--><g id="elem_Placeholder_3"><polygon fill="#F1F1F1" points="1067.5,56,1077.5,46,1204.5,46,1204.5,82.2969,1194.5,92.2969,1067.5,92.2969,1067.5,56" style="stroke:#181818;stroke-width:0.5;"/><line style="stroke:#181818;stroke-width:0.5;" x1="1194.5" x2="1204.5" y1="56" y2="46"/><line style="stroke:#181818;stroke-width:0.5;" x1="1067.5" x2="1194.5" y1="56" y2="56"/><line style="stroke:#181818;stroke-width:0.5;" x1="1194.5" x2="1194.5" y1="56" y2="92.2969"/><text fill="#000000" font-family="sans-serif" font-size="14" lengthAdjust="spacing" textLength="97" x="1082.5" y="78.9951">Placeholder_3</text></g><!--entity Placeholder_7--><g id="elem_Placeholder_7"><polygon fill="#F1F1F1" points="1239.5,56,1249.5,46,1376.5,46,1376.5,82.2969,1366.5,92.2969,1239.5,92.2969,1239.5,56" style="stroke:#181818;stroke-width:0.5;"/><line style="stroke:#181818;stroke-width:0.5;" x1="1366.5" x2="1376.5" y1="56" y2="46"/><line style="stroke:#181818;stroke-width:0.5;" x1="1239.5" x2="1366.5" y1="56" y2="56"/><line style="stroke:#181818;stroke-width:0.5;" x1="1366.5" x2="1366.5" y1="56" y2="92.2969"/><text fill="#000000" font-family="sans-serif" font-size="14" lengthAdjust="spacing" textLength="97" x="1254.5" y="78.9951">Placeholder_7</text></g><!--link aName to aName--><g id="link_aName_aName"><path d="M1500.27,66.15 C1519.02,65.94 1535,66.89 1535,69 C1535,71.11 1519.02,72.06 1500.27,71.85 " fill="none" id="aName-aName" style="stroke:#181818;stroke-width:1.0;"/><text fill="#000000" font-family="sans-serif" font-size="13" lengthAdjust="spacing" textLength="555" x="1548" y="73.5669">io_github_georgwittberger_microserviceexample_cartservice_cart_CartService Provider</text><path d="M1493.1202,59.1586 A10,10 0 0 0 1493.2786 73.2998" fill="none" style="stroke:#181818;stroke-width:1.5;"/><ellipse cx="1500.27" cy="66.15" fill="#FFFFFF" rx="6" ry="6" style="stroke:#181818;stroke-width:1.5;"/></g><!--link aName to aName--><g id="link_aName_aName"><path d="M1500.23,66.32 C1650.35,61.47 2116,62.37 2116,69 C2116,75.63 1650.35,76.53 1500.23,71.68 " fill="none" id="aName-aName-1" style="stroke:#181818;stroke-width:1.0;"/><text fill="#000000" font-family="sans-serif" font-size="13" lengthAdjust="spacing" textLength="625" x="2129" y="73.5669">io_github_georgwittberger_microserviceexample_productservice_product_ProductService Provider</text><path d="M1492.9343,59.4809 A10,10 0 0 0 1493.3909 73.6157" fill="none" style="stroke:#181818;stroke-width:1.5;"/><ellipse cx="1500.23" cy="66.32" fill="#FFFFFF" rx="6" ry="6" style="stroke:#181818;stroke-width:1.5;"/></g><!--link aName to aName--><g id="link_aName_aName"><path d="M1500.25,66.06 C1732.2,57.6 2767,58.58 2767,69 C2767,79.42 1732.2,80.4 1500.25,71.94 " fill="none" id="aName-aName-2" style="stroke:#181818;stroke-width:1.0;"/><text fill="#000000" font-family="sans-serif" font-size="13" lengthAdjust="spacing" textLength="569" x="2780" y="73.5669">io_github_georgwittberger_microserviceexample_cartservice_cart_RestTemplate Provider</text><path d="M1492.9259,59.2514 A10,10 0 0 0 1493.4414 73.3841" fill="none" style="stroke:#181818;stroke-width:1.5;"/><ellipse cx="1500.25" cy="66.06" fill="#FFFFFF" rx="6" ry="6" style="stroke:#181818;stroke-width:1.5;"/></g><!--SRC=[nT3DIiGm403WUvyYuCLBP4LPVsvIF0YBrjMJfOH9EhRHj8cJj7OLtztYTcLHZsekcSmCpCUCVzIj0uA6tUiXrQGCBa2YkUgH33Ydsue5wZ1fROaiCw2mjgP44lliDSdX4XeiM9vNQAbwrY58f0g9WmDL8_UEnWbSMXjuenLPZzHhXHm7Q9p1FR_o0PiTyRIyk5l9uCvndYgvU7dehWTnLXJ9sm_oOJHw5aq-YNVkWsZqSJHv7asET-sZ_v8t2D-TSRP9JfcsejAXxgJuOejjQ7A40WfJwUClql6vMHTOHhRNuqw_GpcoPQS-jIaLsJh-ZVbjlINwS8jZ3yAMzGu0]--></g></svg>