<svg xmlns="http://www.w3.org/2000/svg" xmlns:xlink="http://www.w3.org/1999/xlink" contentStyleType="text/css" height="811px" preserveAspectRatio="none" style="width:1710px;height:811px;background:#FFFFFF;" version="1.1" viewBox="0 0 1710 811" width="1710px" zoomAndPan="magnify"><defs/><g><!--cluster Frontend--><g id="cluster_Frontend"><path d="M1448.5,6 L1521.7285,6 A3.75,3.75 0 0 1 1524.2285,8.5 L1531.2285,28.2969 L1700.5,28.2969 A2.5,2.5 0 0 1 1703,30.7969 L1703,219.79 A2.5,2.5 0 0 1 1700.5,222.29 L1448.5,222.29 A2.5,2.5 0 0 1 1446,219.79 L1446,8.5 A2.5,2.5 0 0 1 1448.5,6 " fill="none" style="stroke:#000000;stroke-width:1.5;"/><line style="stroke:#000000;stroke-width:1.5;" x1="1446" x2="1531.2285" y1="28.2969" y2="28.2969"/><text fill="#000000" font-family="sans-serif" font-size="14" font-weight="bold" lengthAdjust="spacing" textLength="72.2285" x="1450" y="20.9951">Frontend</text></g><!--cluster Services--><g id="cluster_Services"><path d="M676.5,271.29 L744.0342,271.29 A3.75,3.75 0 0 1 746.5342,273.79 L753.5342,293.5869 L1462.5,293.5869 A2.5,2.5 0 0 1 1465,296.0869 L1465,668.09 A2.5,2.5 0 0 1 1462.5,670.59 L676.5,670.59 A2.5,2.5 0 0 1 674,668.09 L674,273.79 A2.5,2.5 0 0 1 676.5,271.29 " fill="none" style="stroke:#000000;stroke-width:1.5;"/><line style="stroke:#000000;stroke-width:1.5;" x1="674" x2="753.5342" y1="293.5869" y2="293.5869"/><text fill="#000000" font-family="sans-serif" font-size="14" font-weight="bold" lengthAdjust="spacing" textLength="66.5342" x="678" y="286.2851">Services</text></g><!--cluster Recommendation Strategies--><g id="cluster_Recommendation Strategies"><path d="M8.5,707.44 L233.7119,707.44 A3.75,3.75 0 0 1 236.2119,709.94 L243.2119,729.7369 L1192.5,729.7369 A2.5,2.5 0 0 1 1195,732.2369 L1195,802.24 A2.5,2.5 0 0 1 1192.5,804.74 L8.5,804.74 A2.5,2.5 0 0 1 6,802.24 L6,709.94 A2.5,2.5 0 0 1 8.5,707.44 " fill="none" style="stroke:#000000;stroke-width:1.5;"/><line style="stroke:#000000;stroke-width:1.5;" x1="6" x2="243.2119" y1="729.7369" y2="729.7369"/><text fill="#000000" font-family="sans-serif" font-size="14" font-weight="bold" lengthAdjust="spacing" textLength="224.2119" x="10" y="722.4351">Recommendation Strategies</text></g><!--entity Web UI--><g id="elem_Web UI"><rect fill="#F1F1F1" height="46.2969" rx="2.5" ry="2.5" style="stroke:#181818;stroke-width:0.5;" width="90.1689" x="1492.92" y="160"/><rect fill="#F1F1F1" height="10" style="stroke:#181818;stroke-width:0.5;" width="15" x="1563.0889" y="165"/><rect fill="#F1F1F1" height="2" style="stroke:#181818;stroke-width:0.5;" width="4" x="1561.0889" y="167"/><rect fill="#F1F1F1" height="2" style="stroke:#181818;stroke-width:0.5;" width="4" x="1561.0889" y="171"/><text fill="#000000" font-family="sans-serif" font-size="14" lengthAdjust="spacing" textLength="50.1689" x="1507.92" y="192.9951">Web UI</text></g><!--entity interface.CartActions--><g id="elem_interface.CartActions"><ellipse cx="1630" cy="70" fill="#F1F1F1" rx="8" ry="8" style="stroke:#181818;stroke-width:0.5;"/><text fill="#000000" font-family="sans-serif" font-size="14" lengthAdjust="spacing" textLength="99.7979" x="1580.1011" y="99.9951">Shopping Cart</text></g><!--entity interface.ProductActions--><g id="elem_interface.ProductActions"><ellipse cx="1500" cy="70" fill="#F1F1F1" rx="8" ry="8" style="stroke:#181818;stroke-width:0.5;"/><text fill="#000000" font-family="sans-serif" font-size="14" lengthAdjust="spacing" textLength="61.0039" x="1469.498" y="99.9951">Products</text></g><!--entity Authentication Service--><g id="elem_Authentication Service"><rect fill="#F1F1F1" height="46.2969" rx="2.5" ry="2.5" style="stroke:#181818;stroke-width:0.5;" width="198.9629" x="1250.52" y="608.29"/><rect fill="#F1F1F1" height="10" style="stroke:#181818;stroke-width:0.5;" width="15" x="1429.4829" y="613.29"/><rect fill="#F1F1F1" height="2" style="stroke:#181818;stroke-width:0.5;" width="4" x="1427.4829" y="615.29"/><rect fill="#F1F1F1" height="2" style="stroke:#181818;stroke-width:0.5;" width="4" x="1427.4829" y="619.29"/><text fill="#000000" font-family="sans-serif" font-size="14" lengthAdjust="spacing" textLength="158.9629" x="1265.52" y="641.2851">Authentication Service</text></g><!--entity interface.AuthCart--><g id="elem_interface.AuthCart"><ellipse cx="1390" cy="480.44" fill="#F1F1F1" rx="8" ry="8" style="stroke:#181818;stroke-width:0.5;"/><text fill="#000000" font-family="sans-serif" font-size="14" lengthAdjust="spacing" textLength="99.7979" x="1338.6143" y="510.4351">Shopping Cart</text><text fill="#000000" font-family="sans-serif" font-size="14" lengthAdjust="spacing" textLength="102.7715" x="1338.6143" y="526.732">Authentication</text></g><!--entity Registry Service--><g id="elem_Registry Service"><rect fill="#F1F1F1" height="46.2969" rx="2.5" ry="2.5" style="stroke:#181818;stroke-width:0.5;" width="154.1328" x="1130.93" y="306.29"/><rect fill="#F1F1F1" height="10" style="stroke:#181818;stroke-width:0.5;" width="15" x="1265.0628" y="311.29"/><rect fill="#F1F1F1" height="2" style="stroke:#181818;stroke-width:0.5;" width="4" x="1263.0628" y="313.29"/><rect fill="#F1F1F1" height="2" style="stroke:#181818;stroke-width:0.5;" width="4" x="1263.0628" y="317.29"/><text fill="#000000" font-family="sans-serif" font-size="14" lengthAdjust="spacing" textLength="114.1328" x="1145.93" y="339.2851">Registry Service</text></g><!--entity Image Service--><g id="elem_Image Service"><rect fill="#F1F1F1" height="46.2969" rx="2.5" ry="2.5" style="stroke:#181818;stroke-width:0.5;" width="140.0371" x="944.98" y="457.29"/><rect fill="#F1F1F1" height="10" style="stroke:#181818;stroke-width:0.5;" width="15" x="1065.0171" y="462.29"/><rect fill="#F1F1F1" height="2" style="stroke:#181818;stroke-width:0.5;" width="4" x="1063.0171" y="464.29"/><rect fill="#F1F1F1" height="2" style="stroke:#181818;stroke-width:0.5;" width="4" x="1063.0171" y="468.29"/><text fill="#000000" font-family="sans-serif" font-size="14" lengthAdjust="spacing" textLength="100.0371" x="959.98" y="490.2851">Image Service</text></g><!--entity Persistence Service--><g id="elem_Persistence Service"><rect fill="#F1F1F1" height="46.2969" rx="2.5" ry="2.5" style="stroke:#181818;stroke-width:0.5;" width="176.7666" x="1119.62" y="457.29"/><rect fill="#F1F1F1" height="10" style="stroke:#181818;stroke-width:0.5;" width="15" x="1276.3866" y="462.29"/><rect fill="#F1F1F1" height="2" style="stroke:#181818;stroke-width:0.5;" width="4" x="1274.3866" y="464.29"/><rect fill="#F1F1F1" height="2" style="stroke:#181818;stroke-width:0.5;" width="4" x="1274.3866" y="468.29"/><text fill="#000000" font-family="sans-serif" font-size="14" lengthAdjust="spacing" textLength="136.7666" x="1134.62" y="490.2851">Persistence Service</text></g><!--entity Recommendation Service--><g id="elem_Recommendation Service"><rect fill="#F1F1F1" height="46.2969" rx="2.5" ry="2.5" style="stroke:#181818;stroke-width:0.5;" width="219.8398" x="690.08" y="457.29"/><rect fill="#F1F1F1" height="10" style="stroke:#181818;stroke-width:0.5;" width="15" x="889.9198" y="462.29"/><rect fill="#F1F1F1" height="2" style="stroke:#181818;stroke-width:0.5;" width="4" x="887.9198" y="464.29"/><rect fill="#F1F1F1" height="2" style="stroke:#181818;stroke-width:0.5;" width="4" x="887.9198" y="468.29"/><text fill="#000000" font-family="sans-serif" font-size="14" lengthAdjust="spacing" textLength="179.8398" x="705.08" y="490.2851">Recommendation Service</text></g><!--entity Dummy Strategy--><g id="elem_Dummy Strategy"><rect fill="#F1F1F1" height="46.2969" rx="2.5" ry="2.5" style="stroke:#181818;stroke-width:0.5;" width="159.6494" x="22.18" y="742.44"/><rect fill="#F1F1F1" height="10" style="stroke:#181818;stroke-width:0.5;" width="15" x="161.8294" y="747.44"/><rect fill="#F1F1F1" height="2" style="stroke:#181818;stroke-width:0.5;" width="4" x="159.8294" y="749.44"/><rect fill="#F1F1F1" height="2" style="stroke:#181818;stroke-width:0.5;" width="4" x="159.8294" y="753.44"/><text fill="#000000" font-family="sans-serif" font-size="14" lengthAdjust="spacing" textLength="119.6494" x="37.18" y="775.4351">Dummy Strategy</text></g><!--entity Order-Based Strategy--><g id="elem_Order-Based Strategy"><rect fill="#F1F1F1" height="46.2969" rx="2.5" ry="2.5" style="stroke:#181818;stroke-width:0.5;" width="192.4961" x="216.75" y="742.44"/><rect fill="#F1F1F1" height="10" style="stroke:#181818;stroke-width:0.5;" width="15" x="389.2461" y="747.44"/><rect fill="#F1F1F1" height="2" style="stroke:#181818;stroke-width:0.5;" width="4" x="387.2461" y="749.44"/><rect fill="#F1F1F1" height="2" style="stroke:#181818;stroke-width:0.5;" width="4" x="387.2461" y="753.44"/><text fill="#000000" font-family="sans-serif" font-size="14" lengthAdjust="spacing" textLength="152.4961" x="231.75" y="775.4351">Order-Based Strategy</text></g><!--entity Popularity-Based Strategy--><g id="elem_Popularity-Based Strategy"><rect fill="#F1F1F1" height="46.2969" rx="2.5" ry="2.5" style="stroke:#181818;stroke-width:0.5;" width="223.1211" x="444.44" y="742.44"/><rect fill="#F1F1F1" height="10" style="stroke:#181818;stroke-width:0.5;" width="15" x="647.5611" y="747.44"/><rect fill="#F1F1F1" height="2" style="stroke:#181818;stroke-width:0.5;" width="4" x="645.5611" y="749.44"/><rect fill="#F1F1F1" height="2" style="stroke:#181818;stroke-width:0.5;" width="4" x="645.5611" y="753.44"/><text fill="#000000" font-family="sans-serif" font-size="14" lengthAdjust="spacing" textLength="183.1211" x="459.44" y="775.4351">Popularity-Based Strategy</text></g><!--entity SlopeOne Strategy--><g id="elem_SlopeOne Strategy"><rect fill="#F1F1F1" height="46.2969" rx="2.5" ry="2.5" style="stroke:#181818;stroke-width:0.5;" width="171.7832" x="702.11" y="742.44"/><rect fill="#F1F1F1" height="10" style="stroke:#181818;stroke-width:0.5;" width="15" x="853.8932" y="747.44"/><rect fill="#F1F1F1" height="2" style="stroke:#181818;stroke-width:0.5;" width="4" x="851.8932" y="749.44"/><rect fill="#F1F1F1" height="2" style="stroke:#181818;stroke-width:0.5;" width="4" x="851.8932" y="753.44"/><text fill="#000000" font-family="sans-serif" font-size="14" lengthAdjust="spacing" textLength="131.7832" x="717.11" y="775.4351">SlopeOne Strategy</text></g><!--entity Preprocessed SlopeOne Strategy--><g id="elem_Preprocessed SlopeOne Strategy"><rect fill="#F1F1F1" height="46.2969" rx="2.5" ry="2.5" style="stroke:#181818;stroke-width:0.5;" width="270.6514" x="908.67" y="742.44"/><rect fill="#F1F1F1" height="10" style="stroke:#181818;stroke-width:0.5;" width="15" x="1159.3214" y="747.44"/><rect fill="#F1F1F1" height="2" style="stroke:#181818;stroke-width:0.5;" width="4" x="1157.3214" y="749.44"/><rect fill="#F1F1F1" height="2" style="stroke:#181818;stroke-width:0.5;" width="4" x="1157.3214" y="753.44"/><text fill="#000000" font-family="sans-serif" font-size="14" lengthAdjust="spacing" textLength="230.6514" x="923.67" y="775.4351">Preprocessed SlopeOne Strategy</text></g><!--entity interface.LoadBalancer--><g id="elem_interface.LoadBalancer"><ellipse cx="1538" cy="329.44" fill="#F1F1F1" rx="8" ry="8" style="stroke:#181818;stroke-width:0.5;"/><text fill="#000000" font-family="sans-serif" font-size="14" lengthAdjust="spacing" textLength="99.873" x="1488.0635" y="359.4351">Load Balancer</text></g><!--entity interface.RecommenderStrategy--><g id="elem_interface.RecommenderStrategy"><ellipse cx="556" cy="631.44" fill="#F1F1F1" rx="8" ry="8" style="stroke:#181818;stroke-width:0.5;"/><text fill="#000000" font-family="sans-serif" font-size="14" lengthAdjust="spacing" textLength="188.084" x="461.958" y="661.4351">Recommendation Strategy</text></g><!--link interface.CartActions to Web UI--><g id="link_interface.CartActions_Web UI"><path d="M1623.38,78.99 C1609.54,95.72 1577.09,134.91 1556.42,159.89 " fill="none" id="interface.CartActions-Web UI" style="stroke:#181818;stroke-width:1.0;"/></g><!--link interface.ProductActions to Web UI--><g id="link_interface.ProductActions_Web UI"><path d="M1502.73,78.99 C1508.45,95.72 1521.85,134.91 1530.39,159.89 " fill="none" id="interface.ProductActions-Web UI" style="stroke:#181818;stroke-width:1.0;"/></g><!--link Registry Service to Image Service--><g id="link_Registry Service_Image Service"><path d="M1178.69,353.07 C1142.31,381.16 1085.3794,425.1035 1049.0194,453.1735 " fill="none" id="Registry Service-to-Image Service" style="stroke:#181818;stroke-width:1.0;stroke-dasharray:7.0,7.0;"/><polygon fill="#181818" points="1044.27,456.84,1053.8384,454.5065,1048.2278,453.7846,1048.9497,448.174,1044.27,456.84" style="stroke:#181818;stroke-width:1.0;"/><text fill="#000000" font-family="sans-serif" font-size="13" lengthAdjust="spacing" textLength="53.5615" x="1129" y="401.5069">requires</text></g><!--link Registry Service to Persistence Service--><g id="link_Registry Service_Persistence Service"><path d="M1208,353.07 C1208,381.24 1208,423.05 1208,451.09 " fill="none" id="Registry Service-to-Persistence Service" style="stroke:#181818;stroke-width:1.0;stroke-dasharray:7.0,7.0;"/><polygon fill="#181818" points="1208,457.09,1212,448.09,1208,452.09,1204,448.09,1208,457.09" style="stroke:#181818;stroke-width:1.0;"/><text fill="#000000" font-family="sans-serif" font-size="13" lengthAdjust="spacing" textLength="53.5615" x="1209" y="401.5069">requires</text></g><!--link Registry Service to Recommendation Service--><g id="link_Registry Service_Recommendation Service"><path d="M1145.67,352.97 C1116.07,363.69 1080.2,376.7 1048,388.44 C984.34,411.66 917.1813,436.3191 867.0113,454.7691 " fill="none" id="Registry Service-to-Recommendation Service" style="stroke:#181818;stroke-width:1.0;stroke-dasharray:7.0,7.0;"/><polygon fill="#181818" points="861.38,456.84,871.2075,457.4878,866.0727,455.1142,868.4463,449.9795,861.38,456.84" style="stroke:#181818;stroke-width:1.0;"/><text fill="#000000" font-family="sans-serif" font-size="13" lengthAdjust="spacing" textLength="53.5615" x="1049" y="401.5069">requires</text></g><!--link interface.AuthCart to Authentication Service--><g id="link_interface.AuthCart_Authentication Service"><path d="M1387.96,489.04 C1382.13,510.74 1365.24,573.67 1356.08,607.8 " fill="none" id="interface.AuthCart-Authentication Service" style="stroke:#181818;stroke-width:1.0;"/></g><!--link Registry Service to interface.AuthCart--><g id="link_Registry Service_interface.AuthCart"><path d="M1235.64,353.07 C1277.61,387.43 1350.6178,447.1987 1376.6178,468.4887 " fill="none" id="Registry Service-to-interface.AuthCart" style="stroke:#181818;stroke-width:1.0;stroke-dasharray:7.0,7.0;"/><polygon fill="#181818" points="1381.26,472.29,1376.8308,463.4933,1377.3915,469.1223,1371.7625,469.6829,1381.26,472.29" style="stroke:#181818;stroke-width:1.0;"/><text fill="#000000" font-family="sans-serif" font-size="13" lengthAdjust="spacing" textLength="53.5615" x="1300" y="401.5069">requires</text></g><!--link interface.LoadBalancer to Registry Service--><g id="link_interface.LoadBalancer_Registry Service"><path d="M1529.32,329.44 C1496.95,329.44 1369.54,329.44 1285.49,329.44 " fill="none" id="interface.LoadBalancer-Registry Service" style="stroke:#181818;stroke-width:1.0;"/></g><!--reverse link interface.LoadBalancer to Authentication Service--><g id="link_interface.LoadBalancer_Authentication Service"><path d="M1535.4812,344.0229 C1530.2212,371.4829 1510.78,460.67 1467,525.44 C1444.46,558.8 1409.05,588.57 1383.09,607.82 " fill="none" id="interface.LoadBalancer-backto-Authentication Service" style="stroke:#181818;stroke-width:1.0;stroke-dasharray:7.0,7.0;"/><polygon fill="#181818" points="1536.61,338.13,1530.9882,346.2168,1535.6693,343.0407,1538.8454,347.7218,1536.61,338.13" style="stroke:#181818;stroke-width:1.0;"/><text fill="#000000" font-family="sans-serif" font-size="13" lengthAdjust="spacing" textLength="53.5615" x="1510" y="485.0069">requires</text></g><!--link Web UI to interface.LoadBalancer--><g id="link_Web UI_interface.LoadBalancer"><path d="M1538,206.69 C1538,239.67 1538,293.43 1538,314.69 " fill="none" id="Web UI-to-interface.LoadBalancer" style="stroke:#181818;stroke-width:1.0;stroke-dasharray:7.0,7.0;"/><polygon fill="#181818" points="1538,320.69,1542,311.69,1538,315.69,1534,311.69,1538,320.69" style="stroke:#181818;stroke-width:1.0;"/><text fill="#000000" font-family="sans-serif" font-size="13" lengthAdjust="spacing" textLength="53.5615" x="1539" y="251.3569">requires</text></g><!--link Recommendation Service to interface.RecommenderStrategy--><g id="link_Recommendation Service_interface.RecommenderStrategy"><path d="M762.94,504.07 C705.08,539.41 601.7406,602.5127 570.0406,621.8727 " fill="none" id="Recommendation Service-to-interface.RecommenderStrategy" style="stroke:#181818;stroke-width:1.0;stroke-dasharray:7.0,7.0;"/><polygon fill="#181818" points="564.92,625,574.6857,623.7228,569.1871,622.3939,570.516,616.8954,564.92,625" style="stroke:#181818;stroke-width:1.0;"/><text fill="#000000" font-family="sans-serif" font-size="13" lengthAdjust="spacing" textLength="53.5615" x="679" y="568.5069">requires</text></g><!--link interface.RecommenderStrategy to Dummy Strategy--><g id="link_interface.RecommenderStrategy_Dummy Strategy"><path d="M547.07,632.8 C505.79,634.72 330.02,645.82 199,699.44 C173.47,709.89 147.69,727.63 129.13,741.96 " fill="none" id="interface.RecommenderStrategy-Dummy Strategy" style="stroke:#181818;stroke-width:1.0;"/></g><!--link interface.RecommenderStrategy to Order-Based Strategy--><g id="link_interface.RecommenderStrategy_Order-Based Strategy"><path d="M547.18,636.87 C526.2,647.43 471.76,675.04 427,699.44 C401.68,713.25 373.55,729.31 351.57,742.04 " fill="none" id="interface.RecommenderStrategy-Order-Based Strategy" style="stroke:#181818;stroke-width:1.0;"/></g><!--link interface.RecommenderStrategy to Popularity-Based Strategy--><g id="link_interface.RecommenderStrategy_Popularity-Based Strategy"><path d="M556,640.31 C556,659.98 556,711.86 556,742.01 " fill="none" id="interface.RecommenderStrategy-Popularity-Based Strategy" style="stroke:#181818;stroke-width:1.0;"/></g><!--link interface.RecommenderStrategy to SlopeOne Strategy--><g id="link_interface.RecommenderStrategy_SlopeOne Strategy"><path d="M564.9,636.74 C586.03,647.01 640.8,674.05 685,699.44 C708.48,712.94 734.23,729.22 754.11,742.14 " fill="none" id="interface.RecommenderStrategy-SlopeOne Strategy" style="stroke:#181818;stroke-width:1.0;"/></g><!--link interface.RecommenderStrategy to Preprocessed SlopeOne Strategy--><g id="link_interface.RecommenderStrategy_Preprocessed SlopeOne Strategy"><path d="M564.9,636.92 C584.22,646.4 631.64,668.48 674,678.59 C768.24,701.09 797.1,675.55 891,699.44 C929.61,709.27 971.05,727.43 1001.06,742.09 " fill="none" id="interface.RecommenderStrategy-Preprocessed SlopeOne Strategy" style="stroke:#181818;stroke-width:1.0;"/></g><!--SRC=[dLGzRy8m4DtpAopsPEZO0GceAY5L0X5L7TeEnZd0mh7JiuCQLVptsdm4i1r0P4fyxzrxT-UBNdDPKQGbMV3V4KScu8tEGKmsW89M5PTBOh26HBT0fifAIP0cDuq0KfVYAKagojPq2QJtYaeQa4MF_2N4FYsQV7x0dBoFltV7xk4MY0lAB2jVgRtMYABf4QfFmSmT3PZXIkgMUin5qZgz0JrJcQ8gQcQq9t0ulbF3Gs_FQiy1Dvo1ZjG-gCtAld167OqSaBTxyIKlcPvr5tImnDURmP9hWyr9oKUCI-SvC18oiwplWSapGVYfEO8Eqau1jUM3P7SdZr6kISp0VfJsZdNqCgxImJeNScGtqBDXl2bQa24Lr9f3h_akTWpjJNQDsRj2xTGwtOROe24XZwGYxR9trLqcidu7qMzFknHPSHSdyIwtFmM3rC2oyJhReW2FY6FDqI5UT2n2ld3KhclS2u_kxqjTbarhDxAtCTaq3NX-tWbQV3ga6ee7iiVPmKgggXOKkMaU5hgImbVBXQfW8k41bGWrg0MXGcN_iJiJZqlTohFz1m00]--></g></svg>