<?xml version="1.0" encoding="us-ascii" standalone="no"?><svg xmlns="http://www.w3.org/2000/svg" xmlns:xlink="http://www.w3.org/1999/xlink" contentStyleType="text/css" height="125px" preserveAspectRatio="none" style="width:2496px;height:125px;background:#FFFFFF;" version="1.1" viewBox="0 0 2496 125" width="2496px" zoomAndPan="magnify"><defs/><g><!--cluster Placeholder_6--><g id="cluster_Placeholder_6"><polygon fill="none" points="2293.5,16,2303.5,6,2479.5,6,2479.5,98,2469.5,108,2293.5,108,2293.5,16" style="stroke:#181818;stroke-width:1.0;"/><line style="stroke:#181818;stroke-width:1.0;" x1="2469.5" x2="2479.5" y1="16" y2="6"/><line style="stroke:#181818;stroke-width:1.0;" x1="2293.5" x2="2469.5" y1="16" y2="16"/><line style="stroke:#181818;stroke-width:1.0;" x1="2469.5" x2="2469.5" y1="16" y2="108"/><text fill="#000000" font-family="sans-serif" font-size="14" font-weight="bold" lengthAdjust="spacing" textLength="110" x="2327.5" y="31.9951">Placeholder_6</text></g><!--entity aName--><g id="elem_aName"><a href="callistaenterprise-blog-microservices.system#_v_4EMLw4Ee6nz4rkStDbzw" target="_top" title="callistaenterprise-blog-microservices.system#_v_4EMLw4Ee6nz4rkStDbzw" xlink:actuate="onRequest" xlink:href="callistaenterprise-blog-microservices.system#_v_4EMLw4Ee6nz4rkStDbzw" xlink:show="new" xlink:title="callistaenterprise-blog-microservices.system#_v_4EMLw4Ee6nz4rkStDbzw" xlink:type="simple"><rect fill="#F1F1F1" height="46.2969" rx="2.5" ry="2.5" style="stroke:#181818;stroke-width:0.5;" width="88" x="2310.5" y="46"/><rect fill="#F1F1F1" height="10" style="stroke:#181818;stroke-width:0.5;" width="15" x="2378.5" y="51"/><rect fill="#F1F1F1" height="2" style="stroke:#181818;stroke-width:0.5;" width="4" x="2376.5" y="53"/><rect fill="#F1F1F1" height="2" style="stroke:#181818;stroke-width:0.5;" width="4" x="2376.5" y="57"/><text fill="#000000" font-family="sans-serif" font-size="14" lengthAdjust="spacing" textLength="48" x="2325.5" y="78.9951">aName</text></a></g><!--entity Placeholder_9--><g id="elem_Placeholder_9"><polygon fill="#F1F1F1" points="16,56,26,46,153,46,153,82.2969,143,92.2969,16,92.2969,16,56" style="stroke:#181818;stroke-width:0.5;"/><line style="stroke:#181818;stroke-width:0.5;" x1="143" x2="153" y1="56" y2="46"/><line style="stroke:#181818;stroke-width:0.5;" x1="16" x2="143" y1="56" y2="56"/><line style="stroke:#181818;stroke-width:0.5;" x1="143" x2="143" y1="56" y2="92.2969"/><text fill="#000000" font-family="sans-serif" font-size="14" lengthAdjust="spacing" textLength="97" x="31" y="78.9951">Placeholder_9</text></g><!--entity Placeholder_3--><g id="elem_Placeholder_3"><polygon fill="#F1F1F1" points="188,56,198,46,325,46,325,82.2969,315,92.2969,188,92.2969,188,56" style="stroke:#181818;stroke-width:0.5;"/><line style="stroke:#181818;stroke-width:0.5;" x1="315" x2="325" y1="56" y2="46"/><line style="stroke:#181818;stroke-width:0.5;" x1="188" x2="315" y1="56" y2="56"/><line style="stroke:#181818;stroke-width:0.5;" x1="315" x2="315" y1="56" y2="92.2969"/><text fill="#000000" font-family="sans-serif" font-size="14" lengthAdjust="spacing" textLength="97" x="203" y="78.9951">Placeholder_3</text></g><!--entity Placeholder_19--><g id="elem_Placeholder_19"><polygon fill="#F1F1F1" points="360.5,56,370.5,46,506.5,46,506.5,82.2969,496.5,92.2969,360.5,92.2969,360.5,56" style="stroke:#181818;stroke-width:0.5;"/><line style="stroke:#181818;stroke-width:0.5;" x1="496.5" x2="506.5" y1="56" y2="46"/><line style="stroke:#181818;stroke-width:0.5;" x1="360.5" x2="496.5" y1="56" y2="56"/><line style="stroke:#181818;stroke-width:0.5;" x1="496.5" x2="496.5" y1="56" y2="92.2969"/><text fill="#000000" font-family="sans-serif" font-size="14" lengthAdjust="spacing" textLength="106" x="375.5" y="78.9951">Placeholder_19</text></g><!--entity Placeholder_8--><g id="elem_Placeholder_8"><polygon fill="#F1F1F1" points="542,56,552,46,679,46,679,82.2969,669,92.2969,542,92.2969,542,56" style="stroke:#181818;stroke-width:0.5;"/><line style="stroke:#181818;stroke-width:0.5;" x1="669" x2="679" y1="56" y2="46"/><line style="stroke:#181818;stroke-width:0.5;" x1="542" x2="669" y1="56" y2="56"/><line style="stroke:#181818;stroke-width:0.5;" x1="669" x2="669" y1="56" y2="92.2969"/><text fill="#000000" font-family="sans-serif" font-size="14" lengthAdjust="spacing" textLength="97" x="557" y="78.9951">Placeholder_8</text></g><!--entity Placeholder_20--><g id="elem_Placeholder_20"><polygon fill="#F1F1F1" points="714.5,56,724.5,46,860.5,46,860.5,82.2969,850.5,92.2969,714.5,92.2969,714.5,56" style="stroke:#181818;stroke-width:0.5;"/><line style="stroke:#181818;stroke-width:0.5;" x1="850.5" x2="860.5" y1="56" y2="46"/><line style="stroke:#181818;stroke-width:0.5;" x1="714.5" x2="850.5" y1="56" y2="56"/><line style="stroke:#181818;stroke-width:0.5;" x1="850.5" x2="850.5" y1="56" y2="92.2969"/><text fill="#000000" font-family="sans-serif" font-size="14" lengthAdjust="spacing" textLength="106" x="729.5" y="78.9951">Placeholder_20</text></g><!--entity Placeholder_11--><g id="elem_Placeholder_11"><polygon fill="#F1F1F1" points="895.5,56,905.5,46,1041.5,46,1041.5,82.2969,1031.5,92.2969,895.5,92.2969,895.5,56" style="stroke:#181818;stroke-width:0.5;"/><line style="stroke:#181818;stroke-width:0.5;" x1="1031.5" x2="1041.5" y1="56" y2="46"/><line style="stroke:#181818;stroke-width:0.5;" x1="895.5" x2="1031.5" y1="56" y2="56"/><line style="stroke:#181818;stroke-width:0.5;" x1="1031.5" x2="1031.5" y1="56" y2="92.2969"/><text fill="#000000" font-family="sans-serif" font-size="14" lengthAdjust="spacing" textLength="106" x="910.5" y="78.9951">Placeholder_11</text></g><!--entity Placeholder_0--><g id="elem_Placeholder_0"><polygon fill="#F1F1F1" points="1077,56,1087,46,1214,46,1214,82.2969,1204,92.2969,1077,92.2969,1077,56" style="stroke:#181818;stroke-width:0.5;"/><line style="stroke:#181818;stroke-width:0.5;" x1="1204" x2="1214" y1="56" y2="46"/><line style="stroke:#181818;stroke-width:0.5;" x1="1077" x2="1204" y1="56" y2="56"/><line style="stroke:#181818;stroke-width:0.5;" x1="1204" x2="1204" y1="56" y2="92.2969"/><text fill="#000000" font-family="sans-serif" font-size="14" lengthAdjust="spacing" textLength="97" x="1092" y="78.9951">Placeholder_0</text></g><!--entity Placeholder_2--><g id="elem_Placeholder_2"><polygon fill="#F1F1F1" points="1249,56,1259,46,1386,46,1386,82.2969,1376,92.2969,1249,92.2969,1249,56" style="stroke:#181818;stroke-width:0.5;"/><line style="stroke:#181818;stroke-width:0.5;" x1="1376" x2="1386" y1="56" y2="46"/><line style="stroke:#181818;stroke-width:0.5;" x1="1249" x2="1376" y1="56" y2="56"/><line style="stroke:#181818;stroke-width:0.5;" x1="1376" x2="1376" y1="56" y2="92.2969"/><text fill="#000000" font-family="sans-serif" font-size="14" lengthAdjust="spacing" textLength="97" x="1264" y="78.9951">Placeholder_2</text></g><!--entity Placeholder_17--><g id="elem_Placeholder_17"><polygon fill="#F1F1F1" points="1421.5,56,1431.5,46,1567.5,46,1567.5,82.2969,1557.5,92.2969,1421.5,92.2969,1421.5,56" style="stroke:#181818;stroke-width:0.5;"/><line style="stroke:#181818;stroke-width:0.5;" x1="1557.5" x2="1567.5" y1="56" y2="46"/><line style="stroke:#181818;stroke-width:0.5;" x1="1421.5" x2="1557.5" y1="56" y2="56"/><line style="stroke:#181818;stroke-width:0.5;" x1="1557.5" x2="1557.5" y1="56" y2="92.2969"/><text fill="#000000" font-family="sans-serif" font-size="14" lengthAdjust="spacing" textLength="106" x="1436.5" y="78.9951">Placeholder_17</text></g><!--entity Placeholder_5--><g id="elem_Placeholder_5"><polygon fill="#F1F1F1" points="1603,56,1613,46,1740,46,1740,82.2969,1730,92.2969,1603,92.2969,1603,56" style="stroke:#181818;stroke-width:0.5;"/><line style="stroke:#181818;stroke-width:0.5;" x1="1730" x2="1740" y1="56" y2="46"/><line style="stroke:#181818;stroke-width:0.5;" x1="1603" x2="1730" y1="56" y2="56"/><line style="stroke:#181818;stroke-width:0.5;" x1="1730" x2="1730" y1="56" y2="92.2969"/><text fill="#000000" font-family="sans-serif" font-size="14" lengthAdjust="spacing" textLength="97" x="1618" y="78.9951">Placeholder_5</text></g><!--entity Placeholder_15--><g id="elem_Placeholder_15"><polygon fill="#F1F1F1" points="1775.5,56,1785.5,46,1921.5,46,1921.5,82.2969,1911.5,92.2969,1775.5,92.2969,1775.5,56" style="stroke:#181818;stroke-width:0.5;"/><line style="stroke:#181818;stroke-width:0.5;" x1="1911.5" x2="1921.5" y1="56" y2="46"/><line style="stroke:#181818;stroke-width:0.5;" x1="1775.5" x2="1911.5" y1="56" y2="56"/><line style="stroke:#181818;stroke-width:0.5;" x1="1911.5" x2="1911.5" y1="56" y2="92.2969"/><text fill="#000000" font-family="sans-serif" font-size="14" lengthAdjust="spacing" textLength="106" x="1790.5" y="78.9951">Placeholder_15</text></g><!--entity Placeholder_4--><g id="elem_Placeholder_4"><polygon fill="#F1F1F1" points="1957,56,1967,46,2094,46,2094,82.2969,2084,92.2969,1957,92.2969,1957,56" style="stroke:#181818;stroke-width:0.5;"/><line style="stroke:#181818;stroke-width:0.5;" x1="2084" x2="2094" y1="56" y2="46"/><line style="stroke:#181818;stroke-width:0.5;" x1="1957" x2="2084" y1="56" y2="56"/><line style="stroke:#181818;stroke-width:0.5;" x1="2084" x2="2084" y1="56" y2="92.2969"/><text fill="#000000" font-family="sans-serif" font-size="14" lengthAdjust="spacing" textLength="97" x="1972" y="78.9951">Placeholder_4</text></g><!--entity Placeholder_14--><g id="elem_Placeholder_14"><polygon fill="#F1F1F1" points="2129.5,56,2139.5,46,2275.5,46,2275.5,82.2969,2265.5,92.2969,2129.5,92.2969,2129.5,56" style="stroke:#181818;stroke-width:0.5;"/><line style="stroke:#181818;stroke-width:0.5;" x1="2265.5" x2="2275.5" y1="56" y2="46"/><line style="stroke:#181818;stroke-width:0.5;" x1="2129.5" x2="2265.5" y1="56" y2="56"/><line style="stroke:#181818;stroke-width:0.5;" x1="2265.5" x2="2265.5" y1="56" y2="92.2969"/><text fill="#000000" font-family="sans-serif" font-size="14" lengthAdjust="spacing" textLength="106" x="2144.5" y="78.9951">Placeholder_14</text></g><!--SRC=[lT1D3e8m443XFQTeuXgZYAXhPOS_YKj2o516R2WjcLPGZ7Vt0AwT4tnvpxNAz43GYPjwxXL9ZHbKgCy3aeQ-LwOHdXuO65kZk6YGUBUwHYeJyGvoE467XSXp2Lehvm6DH-f9EGmhRPkmKvAiGngKH3TtB-UncvL36QV7R8nJJCmKKtlrXseQYoBu_3ex9cV5v2ovWhPCJhJWEhTaWhY28gvn6oPepHN41SLSGN-2lW00]--></g></svg>