<?xml version="1.0" encoding="us-ascii" standalone="no"?><svg xmlns="http://www.w3.org/2000/svg" xmlns:xlink="http://www.w3.org/1999/xlink" contentStyleType="text/css" height="125px" preserveAspectRatio="none" style="width:2524px;height:125px;background:#FFFFFF;" version="1.1" viewBox="0 0 2524 125" width="2524px" zoomAndPan="magnify"><defs/><g><!--cluster Placeholder_10--><g id="cluster_Placeholder_10"><polygon fill="none" points="2311.5,16,2321.5,6,2507.5,6,2507.5,98,2497.5,108,2311.5,108,2311.5,16" style="stroke:#181818;stroke-width:1.0;"/><line style="stroke:#181818;stroke-width:1.0;" x1="2497.5" x2="2507.5" y1="16" y2="6"/><line style="stroke:#181818;stroke-width:1.0;" x1="2311.5" x2="2497.5" y1="16" y2="16"/><line style="stroke:#181818;stroke-width:1.0;" x1="2497.5" x2="2497.5" y1="16" y2="108"/><text fill="#000000" font-family="sans-serif" font-size="14" font-weight="bold" lengthAdjust="spacing" textLength="120" x="2345.5" y="31.9951">Placeholder_10</text></g><!--entity aName--><g id="elem_aName"><a href="callistaenterprise-blog-microservices.system#_rYPLwLtpEe6x8-28QOPXjA" target="_top" title="callistaenterprise-blog-microservices.system#_rYPLwLtpEe6x8-28QOPXjA" xlink:actuate="onRequest" xlink:href="callistaenterprise-blog-microservices.system#_rYPLwLtpEe6x8-28QOPXjA" xlink:show="new" xlink:title="callistaenterprise-blog-microservices.system#_rYPLwLtpEe6x8-28QOPXjA" xlink:type="simple"><rect fill="#F1F1F1" height="46.2969" rx="2.5" ry="2.5" style="stroke:#181818;stroke-width:0.5;" width="88" x="2328.5" y="46"/><rect fill="#F1F1F1" height="10" style="stroke:#181818;stroke-width:0.5;" width="15" x="2396.5" y="51"/><rect fill="#F1F1F1" height="2" style="stroke:#181818;stroke-width:0.5;" width="4" x="2394.5" y="53"/><rect fill="#F1F1F1" height="2" style="stroke:#181818;stroke-width:0.5;" width="4" x="2394.5" y="57"/><text fill="#000000" font-family="sans-serif" font-size="14" lengthAdjust="spacing" textLength="48" x="2343.5" y="78.9951">aName</text></a></g><!--entity Placeholder_5--><g id="elem_Placeholder_5"><polygon fill="#F1F1F1" points="16,56,26,46,153,46,153,82.2969,143,92.2969,16,92.2969,16,56" style="stroke:#181818;stroke-width:0.5;"/><line style="stroke:#181818;stroke-width:0.5;" x1="143" x2="153" y1="56" y2="46"/><line style="stroke:#181818;stroke-width:0.5;" x1="16" x2="143" y1="56" y2="56"/><line style="stroke:#181818;stroke-width:0.5;" x1="143" x2="143" y1="56" y2="92.2969"/><text fill="#000000" font-family="sans-serif" font-size="14" lengthAdjust="spacing" textLength="97" x="31" y="78.9951">Placeholder_5</text></g><!--entity Placeholder_14--><g id="elem_Placeholder_14"><polygon fill="#F1F1F1" points="188.5,56,198.5,46,334.5,46,334.5,82.2969,324.5,92.2969,188.5,92.2969,188.5,56" style="stroke:#181818;stroke-width:0.5;"/><line style="stroke:#181818;stroke-width:0.5;" x1="324.5" x2="334.5" y1="56" y2="46"/><line style="stroke:#181818;stroke-width:0.5;" x1="188.5" x2="324.5" y1="56" y2="56"/><line style="stroke:#181818;stroke-width:0.5;" x1="324.5" x2="324.5" y1="56" y2="92.2969"/><text fill="#000000" font-family="sans-serif" font-size="14" lengthAdjust="spacing" textLength="106" x="203.5" y="78.9951">Placeholder_14</text></g><!--entity Placeholder_17--><g id="elem_Placeholder_17"><polygon fill="#F1F1F1" points="369.5,56,379.5,46,515.5,46,515.5,82.2969,505.5,92.2969,369.5,92.2969,369.5,56" style="stroke:#181818;stroke-width:0.5;"/><line style="stroke:#181818;stroke-width:0.5;" x1="505.5" x2="515.5" y1="56" y2="46"/><line style="stroke:#181818;stroke-width:0.5;" x1="369.5" x2="505.5" y1="56" y2="56"/><line style="stroke:#181818;stroke-width:0.5;" x1="505.5" x2="505.5" y1="56" y2="92.2969"/><text fill="#000000" font-family="sans-serif" font-size="14" lengthAdjust="spacing" textLength="106" x="384.5" y="78.9951">Placeholder_17</text></g><!--entity Placeholder_8--><g id="elem_Placeholder_8"><polygon fill="#F1F1F1" points="551,56,561,46,688,46,688,82.2969,678,92.2969,551,92.2969,551,56" style="stroke:#181818;stroke-width:0.5;"/><line style="stroke:#181818;stroke-width:0.5;" x1="678" x2="688" y1="56" y2="46"/><line style="stroke:#181818;stroke-width:0.5;" x1="551" x2="678" y1="56" y2="56"/><line style="stroke:#181818;stroke-width:0.5;" x1="678" x2="678" y1="56" y2="92.2969"/><text fill="#000000" font-family="sans-serif" font-size="14" lengthAdjust="spacing" textLength="97" x="566" y="78.9951">Placeholder_8</text></g><!--entity Placeholder_13--><g id="elem_Placeholder_13"><polygon fill="#F1F1F1" points="723.5,56,733.5,46,869.5,46,869.5,82.2969,859.5,92.2969,723.5,92.2969,723.5,56" style="stroke:#181818;stroke-width:0.5;"/><line style="stroke:#181818;stroke-width:0.5;" x1="859.5" x2="869.5" y1="56" y2="46"/><line style="stroke:#181818;stroke-width:0.5;" x1="723.5" x2="859.5" y1="56" y2="56"/><line style="stroke:#181818;stroke-width:0.5;" x1="859.5" x2="859.5" y1="56" y2="92.2969"/><text fill="#000000" font-family="sans-serif" font-size="14" lengthAdjust="spacing" textLength="106" x="738.5" y="78.9951">Placeholder_13</text></g><!--entity Placeholder_20--><g id="elem_Placeholder_20"><polygon fill="#F1F1F1" points="904.5,56,914.5,46,1050.5,46,1050.5,82.2969,1040.5,92.2969,904.5,92.2969,904.5,56" style="stroke:#181818;stroke-width:0.5;"/><line style="stroke:#181818;stroke-width:0.5;" x1="1040.5" x2="1050.5" y1="56" y2="46"/><line style="stroke:#181818;stroke-width:0.5;" x1="904.5" x2="1040.5" y1="56" y2="56"/><line style="stroke:#181818;stroke-width:0.5;" x1="1040.5" x2="1040.5" y1="56" y2="92.2969"/><text fill="#000000" font-family="sans-serif" font-size="14" lengthAdjust="spacing" textLength="106" x="919.5" y="78.9951">Placeholder_20</text></g><!--entity Placeholder_3--><g id="elem_Placeholder_3"><polygon fill="#F1F1F1" points="1086,56,1096,46,1223,46,1223,82.2969,1213,92.2969,1086,92.2969,1086,56" style="stroke:#181818;stroke-width:0.5;"/><line style="stroke:#181818;stroke-width:0.5;" x1="1213" x2="1223" y1="56" y2="46"/><line style="stroke:#181818;stroke-width:0.5;" x1="1086" x2="1213" y1="56" y2="56"/><line style="stroke:#181818;stroke-width:0.5;" x1="1213" x2="1213" y1="56" y2="92.2969"/><text fill="#000000" font-family="sans-serif" font-size="14" lengthAdjust="spacing" textLength="97" x="1101" y="78.9951">Placeholder_3</text></g><!--entity Placeholder_12--><g id="elem_Placeholder_12"><polygon fill="#F1F1F1" points="1258.5,56,1268.5,46,1404.5,46,1404.5,82.2969,1394.5,92.2969,1258.5,92.2969,1258.5,56" style="stroke:#181818;stroke-width:0.5;"/><line style="stroke:#181818;stroke-width:0.5;" x1="1394.5" x2="1404.5" y1="56" y2="46"/><line style="stroke:#181818;stroke-width:0.5;" x1="1258.5" x2="1394.5" y1="56" y2="56"/><line style="stroke:#181818;stroke-width:0.5;" x1="1394.5" x2="1394.5" y1="56" y2="92.2969"/><text fill="#000000" font-family="sans-serif" font-size="14" lengthAdjust="spacing" textLength="106" x="1273.5" y="78.9951">Placeholder_12</text></g><!--entity Placeholder_0--><g id="elem_Placeholder_0"><polygon fill="#F1F1F1" points="1440,56,1450,46,1577,46,1577,82.2969,1567,92.2969,1440,92.2969,1440,56" style="stroke:#181818;stroke-width:0.5;"/><line style="stroke:#181818;stroke-width:0.5;" x1="1567" x2="1577" y1="56" y2="46"/><line style="stroke:#181818;stroke-width:0.5;" x1="1440" x2="1567" y1="56" y2="56"/><line style="stroke:#181818;stroke-width:0.5;" x1="1567" x2="1567" y1="56" y2="92.2969"/><text fill="#000000" font-family="sans-serif" font-size="14" lengthAdjust="spacing" textLength="97" x="1455" y="78.9951">Placeholder_0</text></g><!--entity Placeholder_15--><g id="elem_Placeholder_15"><polygon fill="#F1F1F1" points="1612.5,56,1622.5,46,1758.5,46,1758.5,82.2969,1748.5,92.2969,1612.5,92.2969,1612.5,56" style="stroke:#181818;stroke-width:0.5;"/><line style="stroke:#181818;stroke-width:0.5;" x1="1748.5" x2="1758.5" y1="56" y2="46"/><line style="stroke:#181818;stroke-width:0.5;" x1="1612.5" x2="1748.5" y1="56" y2="56"/><line style="stroke:#181818;stroke-width:0.5;" x1="1748.5" x2="1748.5" y1="56" y2="92.2969"/><text fill="#000000" font-family="sans-serif" font-size="14" lengthAdjust="spacing" textLength="106" x="1627.5" y="78.9951">Placeholder_15</text></g><!--entity Placeholder_11--><g id="elem_Placeholder_11"><polygon fill="#F1F1F1" points="1793.5,56,1803.5,46,1939.5,46,1939.5,82.2969,1929.5,92.2969,1793.5,92.2969,1793.5,56" style="stroke:#181818;stroke-width:0.5;"/><line style="stroke:#181818;stroke-width:0.5;" x1="1929.5" x2="1939.5" y1="56" y2="46"/><line style="stroke:#181818;stroke-width:0.5;" x1="1793.5" x2="1929.5" y1="56" y2="56"/><line style="stroke:#181818;stroke-width:0.5;" x1="1929.5" x2="1929.5" y1="56" y2="92.2969"/><text fill="#000000" font-family="sans-serif" font-size="14" lengthAdjust="spacing" textLength="106" x="1808.5" y="78.9951">Placeholder_11</text></g><!--entity Placeholder_16--><g id="elem_Placeholder_16"><polygon fill="#F1F1F1" points="1974.5,56,1984.5,46,2120.5,46,2120.5,82.2969,2110.5,92.2969,1974.5,92.2969,1974.5,56" style="stroke:#181818;stroke-width:0.5;"/><line style="stroke:#181818;stroke-width:0.5;" x1="2110.5" x2="2120.5" y1="56" y2="46"/><line style="stroke:#181818;stroke-width:0.5;" x1="1974.5" x2="2110.5" y1="56" y2="56"/><line style="stroke:#181818;stroke-width:0.5;" x1="2110.5" x2="2110.5" y1="56" y2="92.2969"/><text fill="#000000" font-family="sans-serif" font-size="14" lengthAdjust="spacing" textLength="106" x="1989.5" y="78.9951">Placeholder_16</text></g><!--entity Placeholder_9--><g id="elem_Placeholder_9"><polygon fill="#F1F1F1" points="2156,56,2166,46,2293,46,2293,82.2969,2283,92.2969,2156,92.2969,2156,56" style="stroke:#181818;stroke-width:0.5;"/><line style="stroke:#181818;stroke-width:0.5;" x1="2283" x2="2293" y1="56" y2="46"/><line style="stroke:#181818;stroke-width:0.5;" x1="2156" x2="2283" y1="56" y2="56"/><line style="stroke:#181818;stroke-width:0.5;" x1="2283" x2="2283" y1="56" y2="92.2969"/><text fill="#000000" font-family="sans-serif" font-size="14" lengthAdjust="spacing" textLength="97" x="2171" y="78.9951">Placeholder_9</text></g><!--SRC=[lTD13e8m40NGFQTeuXfZKH6NnhWZWZiD8MGi8rOBDDEA6EFTFO1hvmGl_-T_TzUT1O9MNFIurQGCfd16amr81gpLNICyFJ3e-Xf5Ra3XjJSrKYLduXqKi8SMIr4K2epHpWDs7icITXYUJT-4hLRKEwH1AtHJzt8Usqb5fpnzfjxkC1wJC4eEMNwyRSeo-Fn2IoP7BhYW5HEKS0MQCq4Hr-Qu0ic82U8gJhAzLN91CHEq_e_p1G00]--></g></svg>