<?xml version="1.0" encoding="us-ascii" standalone="no"?><svg xmlns="http://www.w3.org/2000/svg" xmlns:xlink="http://www.w3.org/1999/xlink" contentStyleType="text/css" height="192px" preserveAspectRatio="none" style="width:4405px;height:192px;background:#FFFFFF;" version="1.1" viewBox="0 0 4405 192" width="4405px" zoomAndPan="magnify"><defs/><g><!--cluster nodeAuthserverApplication--><g id="cluster_nodeAuthserverApplication"><polygon fill="none" points="16,16,26,6,574,6,574,165,564,175,16,175,16,16" style="stroke:#181818;stroke-width:1.0;"/><line style="stroke:#181818;stroke-width:1.0;" x1="564" x2="574" y1="16" y2="6"/><line style="stroke:#181818;stroke-width:1.0;" x1="16" x2="564" y1="16" y2="16"/><line style="stroke:#181818;stroke-width:1.0;" x1="564" x2="564" y1="16" y2="175"/><text fill="#000000" font-family="sans-serif" font-size="14" font-weight="bold" lengthAdjust="spacing" textLength="216" x="183" y="31.9951">nodeAuthserverApplication</text></g><!--cluster AuthserverApplication--><g id="cluster_AuthserverApplication"><rect fill="none" height="97" rx="2.5" ry="2.5" style="stroke:#181818;stroke-width:1.0;" width="510" x="40" y="54"/><rect fill="none" height="10" style="stroke:#181818;stroke-width:1.0;" width="15" x="530" y="59"/><rect fill="none" height="2" style="stroke:#181818;stroke-width:1.0;" width="4" x="528" y="61"/><rect fill="none" height="2" style="stroke:#181818;stroke-width:1.0;" width="4" x="528" y="65"/><text fill="#000000" font-family="sans-serif" font-size="14" font-weight="bold" lengthAdjust="spacing" textLength="176" x="207" y="79.9951">AuthserverApplication</text></g><!--cluster nodeHystrixDashboardApplication--><g id="cluster_nodeHystrixDashboardApplication"><polygon fill="none" points="598,16,608,6,1288,6,1288,165,1278,175,598,175,598,16" style="stroke:#181818;stroke-width:1.0;"/><line style="stroke:#181818;stroke-width:1.0;" x1="1278" x2="1288" y1="16" y2="6"/><line style="stroke:#181818;stroke-width:1.0;" x1="598" x2="1278" y1="16" y2="16"/><line style="stroke:#181818;stroke-width:1.0;" x1="1278" x2="1278" y1="16" y2="175"/><text fill="#000000" font-family="sans-serif" font-size="14" font-weight="bold" lengthAdjust="spacing" textLength="267" x="805.5" y="31.9951">nodeHystrixDashboardApplication</text></g><!--cluster HystrixDashboardApplication--><g id="cluster_HystrixDashboardApplication"><rect fill="none" height="97" rx="2.5" ry="2.5" style="stroke:#181818;stroke-width:1.0;" width="642" x="622" y="54"/><rect fill="none" height="10" style="stroke:#181818;stroke-width:1.0;" width="15" x="1244" y="59"/><rect fill="none" height="2" style="stroke:#181818;stroke-width:1.0;" width="4" x="1242" y="61"/><rect fill="none" height="2" style="stroke:#181818;stroke-width:1.0;" width="4" x="1242" y="65"/><text fill="#000000" font-family="sans-serif" font-size="14" font-weight="bold" lengthAdjust="spacing" textLength="227" x="829.5" y="79.9951">HystrixDashboardApplication</text></g><!--cluster nodeProductCompositeService--><g id="cluster_nodeProductCompositeService"><polygon fill="none" points="1312,16,1322,6,1988,6,1988,165,1978,175,1312,175,1312,16" style="stroke:#181818;stroke-width:1.0;"/><line style="stroke:#181818;stroke-width:1.0;" x1="1978" x2="1988" y1="16" y2="6"/><line style="stroke:#181818;stroke-width:1.0;" x1="1312" x2="1978" y1="16" y2="16"/><line style="stroke:#181818;stroke-width:1.0;" x1="1978" x2="1978" y1="16" y2="175"/><text fill="#000000" font-family="sans-serif" font-size="14" font-weight="bold" lengthAdjust="spacing" textLength="245" x="1523.5" y="31.9951">nodeProductCompositeService</text></g><!--cluster ProductCompositeService--><g id="cluster_ProductCompositeService"><rect fill="none" height="97" rx="2.5" ry="2.5" style="stroke:#181818;stroke-width:1.0;" width="628" x="1336" y="54"/><rect fill="none" height="10" style="stroke:#181818;stroke-width:1.0;" width="15" x="1944" y="59"/><rect fill="none" height="2" style="stroke:#181818;stroke-width:1.0;" width="4" x="1942" y="61"/><rect fill="none" height="2" style="stroke:#181818;stroke-width:1.0;" width="4" x="1942" y="65"/><text fill="#000000" font-family="sans-serif" font-size="14" font-weight="bold" lengthAdjust="spacing" textLength="205" x="1547.5" y="79.9951">ProductCompositeService</text></g><!--cluster nodeProductService--><g id="cluster_nodeProductService"><polygon fill="none" points="2012,16,2022,6,2570,6,2570,165,2560,175,2012,175,2012,16" style="stroke:#181818;stroke-width:1.0;"/><line style="stroke:#181818;stroke-width:1.0;" x1="2560" x2="2570" y1="16" y2="6"/><line style="stroke:#181818;stroke-width:1.0;" x1="2012" x2="2560" y1="16" y2="16"/><line style="stroke:#181818;stroke-width:1.0;" x1="2560" x2="2560" y1="16" y2="175"/><text fill="#000000" font-family="sans-serif" font-size="14" font-weight="bold" lengthAdjust="spacing" textLength="161" x="2206.5" y="31.9951">nodeProductService</text></g><!--cluster ProductService--><g id="cluster_ProductService"><rect fill="none" height="97" rx="2.5" ry="2.5" style="stroke:#181818;stroke-width:1.0;" width="510" x="2036" y="54"/><rect fill="none" height="10" style="stroke:#181818;stroke-width:1.0;" width="15" x="2526" y="59"/><rect fill="none" height="2" style="stroke:#181818;stroke-width:1.0;" width="4" x="2524" y="61"/><rect fill="none" height="2" style="stroke:#181818;stroke-width:1.0;" width="4" x="2524" y="65"/><text fill="#000000" font-family="sans-serif" font-size="14" font-weight="bold" lengthAdjust="spacing" textLength="121" x="2230.5" y="79.9951">ProductService</text></g><!--cluster nodeRecommendationService--><g id="cluster_nodeRecommendationService"><polygon fill="none" points="2594,16,2604,6,3286,6,3286,165,3276,175,2594,175,2594,16" style="stroke:#181818;stroke-width:1.0;"/><line style="stroke:#181818;stroke-width:1.0;" x1="3276" x2="3286" y1="16" y2="6"/><line style="stroke:#181818;stroke-width:1.0;" x1="2594" x2="3276" y1="16" y2="16"/><line style="stroke:#181818;stroke-width:1.0;" x1="3276" x2="3276" y1="16" y2="175"/><text fill="#000000" font-family="sans-serif" font-size="14" font-weight="bold" lengthAdjust="spacing" textLength="235" x="2818.5" y="31.9951">nodeRecommendationService</text></g><!--cluster RecommendationService--><g id="cluster_RecommendationService"><rect fill="none" height="97" rx="2.5" ry="2.5" style="stroke:#181818;stroke-width:1.0;" width="644" x="2618" y="54"/><rect fill="none" height="10" style="stroke:#181818;stroke-width:1.0;" width="15" x="3242" y="59"/><rect fill="none" height="2" style="stroke:#181818;stroke-width:1.0;" width="4" x="3240" y="61"/><rect fill="none" height="2" style="stroke:#181818;stroke-width:1.0;" width="4" x="3240" y="65"/><text fill="#000000" font-family="sans-serif" font-size="14" font-weight="bold" lengthAdjust="spacing" textLength="195" x="2842.5" y="79.9951">RecommendationService</text></g><!--cluster nodeReviewService--><g id="cluster_nodeReviewService"><polygon fill="none" points="3310,16,3320,6,3854,6,3854,165,3844,175,3310,175,3310,16" style="stroke:#181818;stroke-width:1.0;"/><line style="stroke:#181818;stroke-width:1.0;" x1="3844" x2="3854" y1="16" y2="6"/><line style="stroke:#181818;stroke-width:1.0;" x1="3310" x2="3844" y1="16" y2="16"/><line style="stroke:#181818;stroke-width:1.0;" x1="3844" x2="3844" y1="16" y2="175"/><text fill="#000000" font-family="sans-serif" font-size="14" font-weight="bold" lengthAdjust="spacing" textLength="156" x="3500" y="31.9951">nodeReviewService</text></g><!--cluster ReviewService--><g id="cluster_ReviewService"><rect fill="none" height="97" rx="2.5" ry="2.5" style="stroke:#181818;stroke-width:1.0;" width="496" x="3334" y="54"/><rect fill="none" height="10" style="stroke:#181818;stroke-width:1.0;" width="15" x="3810" y="59"/><rect fill="none" height="2" style="stroke:#181818;stroke-width:1.0;" width="4" x="3808" y="61"/><rect fill="none" height="2" style="stroke:#181818;stroke-width:1.0;" width="4" x="3808" y="65"/><text fill="#000000" font-family="sans-serif" font-size="14" font-weight="bold" lengthAdjust="spacing" textLength="116" x="3524" y="79.9951">ReviewService</text></g><!--cluster nodeZuulApplication--><g id="cluster_nodeZuulApplication"><polygon fill="none" points="3878,16,3888,6,4388,6,4388,165,4378,175,3878,175,3878,16" style="stroke:#181818;stroke-width:1.0;"/><line style="stroke:#181818;stroke-width:1.0;" x1="4378" x2="4388" y1="16" y2="6"/><line style="stroke:#181818;stroke-width:1.0;" x1="3878" x2="4378" y1="16" y2="16"/><line style="stroke:#181818;stroke-width:1.0;" x1="4378" x2="4378" y1="16" y2="175"/><text fill="#000000" font-family="sans-serif" font-size="14" font-weight="bold" lengthAdjust="spacing" textLength="162" x="4048" y="31.9951">nodeZuulApplication</text></g><!--cluster ZuulApplication--><g id="cluster_ZuulApplication"><rect fill="none" height="97" rx="2.5" ry="2.5" style="stroke:#181818;stroke-width:1.0;" width="462" x="3902" y="54"/><rect fill="none" height="10" style="stroke:#181818;stroke-width:1.0;" width="15" x="4344" y="59"/><rect fill="none" height="2" style="stroke:#181818;stroke-width:1.0;" width="4" x="4342" y="61"/><rect fill="none" height="2" style="stroke:#181818;stroke-width:1.0;" width="4" x="4342" y="65"/><text fill="#000000" font-family="sans-serif" font-size="14" font-weight="bold" lengthAdjust="spacing" textLength="122" x="4072" y="79.9951">ZuulApplication</text></g><!--entity se_callista_microservises_support_oauth_AuthserverApplication--><g id="elem_se_callista_microservises_support_oauth_AuthserverApplication"><a href="callistaenterprise-blog-microservices.system#_dmS-UMApEe6oq-7H2xUatg" target="_top" title="callistaenterprise-blog-microservices.system#_dmS-UMApEe6oq-7H2xUatg" xlink:actuate="onRequest" xlink:href="callistaenterprise-blog-microservices.system#_dmS-UMApEe6oq-7H2xUatg" xlink:show="new" xlink:title="callistaenterprise-blog-microservices.system#_dmS-UMApEe6oq-7H2xUatg" xlink:type="simple"><rect fill="#F1F1F1" height="46.2969" rx="2.5" ry="2.5" style="stroke:#181818;stroke-width:0.5;" width="477" x="56.5" y="89"/><rect fill="#F1F1F1" height="10" style="stroke:#181818;stroke-width:0.5;" width="15" x="513.5" y="94"/><rect fill="#F1F1F1" height="2" style="stroke:#181818;stroke-width:0.5;" width="4" x="511.5" y="96"/><rect fill="#F1F1F1" height="2" style="stroke:#181818;stroke-width:0.5;" width="4" x="511.5" y="100"/><text fill="#000000" font-family="sans-serif" font-size="14" lengthAdjust="spacing" textLength="437" x="71.5" y="121.9951">se_callista_microservises_support_oauth_AuthserverApplication</text></a></g><!--entity se_callista_microservises_support_monitordashboard_HystrixDashboardApplication--><g id="elem_se_callista_microservises_support_monitordashboard_HystrixDashboardApplication"><a href="callistaenterprise-blog-microservices.system#_dmS-UMApEe6oq-7H2xUatg" target="_top" title="callistaenterprise-blog-microservices.system#_dmS-UMApEe6oq-7H2xUatg" xlink:actuate="onRequest" xlink:href="callistaenterprise-blog-microservices.system#_dmS-UMApEe6oq-7H2xUatg" xlink:show="new" xlink:title="callistaenterprise-blog-microservices.system#_dmS-UMApEe6oq-7H2xUatg" xlink:type="simple"><rect fill="#F1F1F1" height="46.2969" rx="2.5" ry="2.5" style="stroke:#181818;stroke-width:0.5;" width="610" x="638" y="89"/><rect fill="#F1F1F1" height="10" style="stroke:#181818;stroke-width:0.5;" width="15" x="1228" y="94"/><rect fill="#F1F1F1" height="2" style="stroke:#181818;stroke-width:0.5;" width="4" x="1226" y="96"/><rect fill="#F1F1F1" height="2" style="stroke:#181818;stroke-width:0.5;" width="4" x="1226" y="100"/><text fill="#000000" font-family="sans-serif" font-size="14" lengthAdjust="spacing" textLength="570" x="653" y="121.9951">se_callista_microservises_support_monitordashboard_HystrixDashboardApplication</text></a></g><!--entity se_callista_microservices_composite_product_service_ProductCompositeService--><g id="elem_se_callista_microservices_composite_product_service_ProductCompositeService"><a href="callistaenterprise-blog-microservices.system#_dmS-UMApEe6oq-7H2xUatg" target="_top" title="callistaenterprise-blog-microservices.system#_dmS-UMApEe6oq-7H2xUatg" xlink:actuate="onRequest" xlink:href="callistaenterprise-blog-microservices.system#_dmS-UMApEe6oq-7H2xUatg" xlink:show="new" xlink:title="callistaenterprise-blog-microservices.system#_dmS-UMApEe6oq-7H2xUatg" xlink:type="simple"><rect fill="#F1F1F1" height="46.2969" rx="2.5" ry="2.5" style="stroke:#181818;stroke-width:0.5;" width="595" x="1352.5" y="89"/><rect fill="#F1F1F1" height="10" style="stroke:#181818;stroke-width:0.5;" width="15" x="1927.5" y="94"/><rect fill="#F1F1F1" height="2" style="stroke:#181818;stroke-width:0.5;" width="4" x="1925.5" y="96"/><rect fill="#F1F1F1" height="2" style="stroke:#181818;stroke-width:0.5;" width="4" x="1925.5" y="100"/><text fill="#000000" font-family="sans-serif" font-size="14" lengthAdjust="spacing" textLength="555" x="1367.5" y="121.9951">se_callista_microservices_composite_product_service_ProductCompositeService</text></a></g><!--entity se_callista_microservices_core_product_service_ProductService--><g id="elem_se_callista_microservices_core_product_service_ProductService"><a href="callistaenterprise-blog-microservices.system#_dmS-UMApEe6oq-7H2xUatg" target="_top" title="callistaenterprise-blog-microservices.system#_dmS-UMApEe6oq-7H2xUatg" xlink:actuate="onRequest" xlink:href="callistaenterprise-blog-microservices.system#_dmS-UMApEe6oq-7H2xUatg" xlink:show="new" xlink:title="callistaenterprise-blog-microservices.system#_dmS-UMApEe6oq-7H2xUatg" xlink:type="simple"><rect fill="#F1F1F1" height="46.2969" rx="2.5" ry="2.5" style="stroke:#181818;stroke-width:0.5;" width="478" x="2052" y="89"/><rect fill="#F1F1F1" height="10" style="stroke:#181818;stroke-width:0.5;" width="15" x="2510" y="94"/><rect fill="#F1F1F1" height="2" style="stroke:#181818;stroke-width:0.5;" width="4" x="2508" y="96"/><rect fill="#F1F1F1" height="2" style="stroke:#181818;stroke-width:0.5;" width="4" x="2508" y="100"/><text fill="#000000" font-family="sans-serif" font-size="14" lengthAdjust="spacing" textLength="438" x="2067" y="121.9951">se_callista_microservices_core_product_service_ProductService</text></a></g><!--entity se_callista_microservices_core_recommendation_service_RecommendationService--><g id="elem_se_callista_microservices_core_recommendation_service_RecommendationService"><a href="callistaenterprise-blog-microservices.system#_dmS-UMApEe6oq-7H2xUatg" target="_top" title="callistaenterprise-blog-microservices.system#_dmS-UMApEe6oq-7H2xUatg" xlink:actuate="onRequest" xlink:href="callistaenterprise-blog-microservices.system#_dmS-UMApEe6oq-7H2xUatg" xlink:show="new" xlink:title="callistaenterprise-blog-microservices.system#_dmS-UMApEe6oq-7H2xUatg" xlink:type="simple"><rect fill="#F1F1F1" height="46.2969" rx="2.5" ry="2.5" style="stroke:#181818;stroke-width:0.5;" width="611" x="2634.5" y="89"/><rect fill="#F1F1F1" height="10" style="stroke:#181818;stroke-width:0.5;" width="15" x="3225.5" y="94"/><rect fill="#F1F1F1" height="2" style="stroke:#181818;stroke-width:0.5;" width="4" x="3223.5" y="96"/><rect fill="#F1F1F1" height="2" style="stroke:#181818;stroke-width:0.5;" width="4" x="3223.5" y="100"/><text fill="#000000" font-family="sans-serif" font-size="14" lengthAdjust="spacing" textLength="571" x="2649.5" y="121.9951">se_callista_microservices_core_recommendation_service_RecommendationService</text></a></g><!--entity se_callista_microservices_core_review_service_ReviewService--><g id="elem_se_callista_microservices_core_review_service_ReviewService"><a href="callistaenterprise-blog-microservices.system#_dmS-UMApEe6oq-7H2xUatg" target="_top" title="callistaenterprise-blog-microservices.system#_dmS-UMApEe6oq-7H2xUatg" xlink:actuate="onRequest" xlink:href="callistaenterprise-blog-microservices.system#_dmS-UMApEe6oq-7H2xUatg" xlink:show="new" xlink:title="callistaenterprise-blog-microservices.system#_dmS-UMApEe6oq-7H2xUatg" xlink:type="simple"><rect fill="#F1F1F1" height="46.2969" rx="2.5" ry="2.5" style="stroke:#181818;stroke-width:0.5;" width="463" x="3350.5" y="89"/><rect fill="#F1F1F1" height="10" style="stroke:#181818;stroke-width:0.5;" width="15" x="3793.5" y="94"/><rect fill="#F1F1F1" height="2" style="stroke:#181818;stroke-width:0.5;" width="4" x="3791.5" y="96"/><rect fill="#F1F1F1" height="2" style="stroke:#181818;stroke-width:0.5;" width="4" x="3791.5" y="100"/><text fill="#000000" font-family="sans-serif" font-size="14" lengthAdjust="spacing" textLength="423" x="3365.5" y="121.9951">se_callista_microservices_core_review_service_ReviewService</text></a></g><!--entity se_callista_microservises_support_edge_ZuulApplication--><g id="elem_se_callista_microservises_support_edge_ZuulApplication"><a href="callistaenterprise-blog-microservices.system#_dmS-UMApEe6oq-7H2xUatg" target="_top" title="callistaenterprise-blog-microservices.system#_dmS-UMApEe6oq-7H2xUatg" xlink:actuate="onRequest" xlink:href="callistaenterprise-blog-microservices.system#_dmS-UMApEe6oq-7H2xUatg" xlink:show="new" xlink:title="callistaenterprise-blog-microservices.system#_dmS-UMApEe6oq-7H2xUatg" xlink:type="simple"><rect fill="#F1F1F1" height="46.2969" rx="2.5" ry="2.5" style="stroke:#181818;stroke-width:0.5;" width="429" x="3918.5" y="89"/><rect fill="#F1F1F1" height="10" style="stroke:#181818;stroke-width:0.5;" width="15" x="4327.5" y="94"/><rect fill="#F1F1F1" height="2" style="stroke:#181818;stroke-width:0.5;" width="4" x="4325.5" y="96"/><rect fill="#F1F1F1" height="2" style="stroke:#181818;stroke-width:0.5;" width="4" x="4325.5" y="100"/><text fill="#000000" font-family="sans-serif" font-size="14" lengthAdjust="spacing" textLength="389" x="3933.5" y="121.9951">se_callista_microservises_support_edge_ZuulApplication</text></a></g><!--SRC=[jPJDIWCn54RtynG1r-EY2rsNAdIXL2pTM4f8a-iqc3zlajeYlhiPQyUEJjek70ApkT_vSWyCyI_IE8PCasUv6Kda2kxO4jHa3QYOSz9K9624mZT1RhMp1aoOXgq24hKQ5COA8FLd6CFA0oPww9oId0Lf3Nal6eZa4dCFb3Ebf0-CQidHrYdfmLCVdRCOg6M9fPq52pAVx-bq2w33X9PBPQlofuo3l_HR7q1VKA6dvUn-w6xXohwMr-F1PiP2jLWK7-aqFkEKHhcvONwrj0n5pkfuxWmtROqC5iM-W1vfx4ls0Qs8F8ngAoy3J7SrBT5y9YEPrg1ydwPkXzFl4StKzMnuHEnC7yogz6pm26bb3KPy_GbT8hd4AHziSOrMPrr_Tci9RzrMxSbfcpf_O760zxNzKumgzq3ydPtnA82eWFuY_tdvJm00]--></g></svg>