<svg xmlns="http://www.w3.org/2000/svg" xmlns:xlink="http://www.w3.org/1999/xlink" contentStyleType="text/css" height="649px" preserveAspectRatio="none" style="width:626px;height:649px;background:#FFFFFF;" version="1.1" viewBox="0 0 626 649" width="626px" zoomAndPan="magnify"><defs/><g><!--cluster Frontend--><g id="cluster_Frontend"><path d="M8.5,6 L81.7285,6 A3.75,3.75 0 0 1 84.2285,8.5 L91.2285,28.2969 L248.5,28.2969 A2.5,2.5 0 0 1 251,30.7969 L251,100.79 A2.5,2.5 0 0 1 248.5,103.29 L8.5,103.29 A2.5,2.5 0 0 1 6,100.79 L6,8.5 A2.5,2.5 0 0 1 8.5,6 " fill="none" style="stroke:#000000;stroke-width:1.5;"/><line style="stroke:#000000;stroke-width:1.5;" x1="6" x2="91.2285" y1="28.2969" y2="28.2969"/><text fill="#000000" font-family="sans-serif" font-size="14" font-weight="bold" lengthAdjust="spacing" textLength="72.2285" x="10" y="20.9951">Frontend</text></g><!--cluster Backend--><g id="cluster_Backend"><path d="M208.5,152.29 L276.7109,152.29 A3.75,3.75 0 0 1 279.2109,154.79 L286.2109,174.5869 L375.5,174.5869 A2.5,2.5 0 0 1 378,177.0869 L378,493.68 A2.5,2.5 0 0 1 375.5,496.18 L208.5,496.18 A2.5,2.5 0 0 1 206,493.68 L206,154.79 A2.5,2.5 0 0 1 208.5,152.29 " fill="none" style="stroke:#000000;stroke-width:1.5;"/><line style="stroke:#000000;stroke-width:1.5;" x1="206" x2="286.2109" y1="174.5869" y2="174.5869"/><text fill="#000000" font-family="sans-serif" font-size="14" font-weight="bold" lengthAdjust="spacing" textLength="67.2109" x="210" y="167.2851">Backend</text></g><!--cluster Tests--><g id="cluster_Tests"><path d="M277.5,6 L320.9033,6 A3.75,3.75 0 0 1 323.4033,8.5 L330.4033,28.2969 L616.5,28.2969 A2.5,2.5 0 0 1 619,30.7969 L619,100.79 A2.5,2.5 0 0 1 616.5,103.29 L277.5,103.29 A2.5,2.5 0 0 1 275,100.79 L275,8.5 A2.5,2.5 0 0 1 277.5,6 " fill="none" style="stroke:#000000;stroke-width:1.5;"/><line style="stroke:#000000;stroke-width:1.5;" x1="275" x2="330.4033" y1="28.2969" y2="28.2969"/><text fill="#000000" font-family="sans-serif" font-size="14" font-weight="bold" lengthAdjust="spacing" textLength="42.4033" x="279" y="20.9951">Tests</text></g><!--cluster Google App Engine--><g id="cluster_Google App Engine"><path d="M80.5,545.18 L230.9814,545.18 A3.75,3.75 0 0 1 233.4814,547.68 L240.4814,567.4769 L240.5,567.4769 A2.5,2.5 0 0 1 243,569.9769 L243,639.98 A2.5,2.5 0 0 1 240.5,642.48 L80.5,642.48 A2.5,2.5 0 0 1 78,639.98 L78,547.68 A2.5,2.5 0 0 1 80.5,545.18 " fill="none" style="stroke:#000000;stroke-width:1.5;"/><line style="stroke:#000000;stroke-width:1.5;" x1="78" x2="240.4814" y1="567.4769" y2="567.4769"/><text fill="#000000" font-family="sans-serif" font-size="14" font-weight="bold" lengthAdjust="spacing" textLength="149.4814" x="82" y="560.1751">Google App Engine</text></g><!--entity Browser--><g id="elem_Browser"><rect fill="#F1F1F1" height="46.2969" rx="2.5" ry="2.5" style="stroke:#181818;stroke-width:0.5;" width="97.0391" x="137.48" y="41"/><rect fill="#F1F1F1" height="10" style="stroke:#181818;stroke-width:0.5;" width="15" x="214.5191" y="46"/><rect fill="#F1F1F1" height="2" style="stroke:#181818;stroke-width:0.5;" width="4" x="212.5191" y="48"/><rect fill="#F1F1F1" height="2" style="stroke:#181818;stroke-width:0.5;" width="4" x="212.5191" y="52"/><text fill="#000000" font-family="sans-serif" font-size="14" lengthAdjust="spacing" textLength="57.0391" x="152.48" y="73.9951">Browser</text></g><!--entity Client--><g id="elem_Client"><rect fill="#F1F1F1" height="46.2969" rx="2.5" ry="2.5" style="stroke:#181818;stroke-width:0.5;" width="80.5303" x="21.73" y="41"/><rect fill="#F1F1F1" height="10" style="stroke:#181818;stroke-width:0.5;" width="15" x="82.2603" y="46"/><rect fill="#F1F1F1" height="2" style="stroke:#181818;stroke-width:0.5;" width="4" x="80.2603" y="48"/><rect fill="#F1F1F1" height="2" style="stroke:#181818;stroke-width:0.5;" width="4" x="80.2603" y="52"/><text fill="#000000" font-family="sans-serif" font-size="14" lengthAdjust="spacing" textLength="40.5303" x="36.73" y="73.9951">Client</text></g><!--entity Logic--><g id="elem_Logic"><rect fill="#F1F1F1" height="46.2969" rx="2.5" ry="2.5" style="stroke:#181818;stroke-width:0.5;" width="76.8389" x="250.58" y="310.59"/><rect fill="#F1F1F1" height="10" style="stroke:#181818;stroke-width:0.5;" width="15" x="307.4189" y="315.59"/><rect fill="#F1F1F1" height="2" style="stroke:#181818;stroke-width:0.5;" width="4" x="305.4189" y="317.59"/><rect fill="#F1F1F1" height="2" style="stroke:#181818;stroke-width:0.5;" width="4" x="305.4189" y="321.59"/><text fill="#000000" font-family="sans-serif" font-size="14" lengthAdjust="spacing" textLength="36.8389" x="265.58" y="343.5851">Logic</text></g><!--entity Storage--><g id="elem_Storage"><rect fill="#F1F1F1" height="46.2969" rx="2.5" ry="2.5" style="stroke:#181818;stroke-width:0.5;" width="94.7764" x="227.61" y="433.89"/><rect fill="#F1F1F1" height="10" style="stroke:#181818;stroke-width:0.5;" width="15" x="302.3864" y="438.89"/><rect fill="#F1F1F1" height="2" style="stroke:#181818;stroke-width:0.5;" width="4" x="300.3864" y="440.89"/><rect fill="#F1F1F1" height="2" style="stroke:#181818;stroke-width:0.5;" width="4" x="300.3864" y="444.89"/><text fill="#000000" font-family="sans-serif" font-size="14" lengthAdjust="spacing" textLength="54.7764" x="242.61" y="466.8851">Storage</text></g><!--entity User Interface--><g id="elem_User Interface"><rect fill="#F1F1F1" height="46.2969" rx="2.5" ry="2.5" style="stroke:#181818;stroke-width:0.5;" width="139.0391" x="222.48" y="187.29"/><rect fill="#F1F1F1" height="10" style="stroke:#181818;stroke-width:0.5;" width="15" x="341.5191" y="192.29"/><rect fill="#F1F1F1" height="2" style="stroke:#181818;stroke-width:0.5;" width="4" x="339.5191" y="194.29"/><rect fill="#F1F1F1" height="2" style="stroke:#181818;stroke-width:0.5;" width="4" x="339.5191" y="198.29"/><text fill="#000000" font-family="sans-serif" font-size="14" lengthAdjust="spacing" textLength="99.0391" x="237.48" y="220.2851">User Interface</text></g><!--entity End-to-End Tests--><g id="elem_End-to-End Tests"><rect fill="#F1F1F1" height="46.2969" rx="2.5" ry="2.5" style="stroke:#181818;stroke-width:0.5;" width="159.0615" x="291.47" y="41"/><rect fill="#F1F1F1" height="10" style="stroke:#181818;stroke-width:0.5;" width="15" x="430.5315" y="46"/><rect fill="#F1F1F1" height="2" style="stroke:#181818;stroke-width:0.5;" width="4" x="428.5315" y="48"/><rect fill="#F1F1F1" height="2" style="stroke:#181818;stroke-width:0.5;" width="4" x="428.5315" y="52"/><text fill="#000000" font-family="sans-serif" font-size="14" lengthAdjust="spacing" textLength="119.0615" x="306.47" y="73.9951">End-to-End Tests</text></g><!--entity Test Driver--><g id="elem_Test Driver"><rect fill="#F1F1F1" height="46.2969" rx="2.5" ry="2.5" style="stroke:#181818;stroke-width:0.5;" width="117.4785" x="485.26" y="41"/><rect fill="#F1F1F1" height="10" style="stroke:#181818;stroke-width:0.5;" width="15" x="582.7385" y="46"/><rect fill="#F1F1F1" height="2" style="stroke:#181818;stroke-width:0.5;" width="4" x="580.7385" y="48"/><rect fill="#F1F1F1" height="2" style="stroke:#181818;stroke-width:0.5;" width="4" x="580.7385" y="52"/><text fill="#000000" font-family="sans-serif" font-size="14" lengthAdjust="spacing" textLength="77.4785" x="500.26" y="73.9951">Test Driver</text></g><!--entity Datastore--><g id="elem_Datastore"><rect fill="#F1F1F1" height="46.2969" rx="2.5" ry="2.5" style="stroke:#181818;stroke-width:0.5;" width="109.1455" x="105.43" y="580.18"/><rect fill="#F1F1F1" height="10" style="stroke:#181818;stroke-width:0.5;" width="15" x="194.5755" y="585.18"/><rect fill="#F1F1F1" height="2" style="stroke:#181818;stroke-width:0.5;" width="4" x="192.5755" y="587.18"/><rect fill="#F1F1F1" height="2" style="stroke:#181818;stroke-width:0.5;" width="4" x="192.5755" y="591.18"/><text fill="#000000" font-family="sans-serif" font-size="14" lengthAdjust="spacing" textLength="69.1455" x="120.43" y="613.1751">Datastore</text></g><!--link Browser to User Interface--><g id="link_Browser_User Interface"><path d="M202.56,87.69 C222.48,114.8 252.1374,155.1848 271.9974,182.2148 " fill="none" id="Browser-to-User Interface" style="stroke:#181818;stroke-width:1.0;stroke-dasharray:7.0,7.0;"/><polygon fill="#181818" points="275.55,187.05,273.4446,177.4288,272.5895,183.0207,266.9976,182.1656,275.55,187.05" style="stroke:#181818;stroke-width:1.0;"/><text fill="#000000" font-family="sans-serif" font-size="13" lengthAdjust="spacing" textLength="53.5615" x="236" y="132.3569">requires</text></g><!--link Client to Datastore--><g id="link_Client_Datastore"><path d="M72.82,87.55 C85.26,115.43 104,164.83 104,209.44 C104,209.44 104,209.44 104,458.03 C104,503.72 125.5918,547.2218 142.1918,574.7518 " fill="none" id="Client-to-Datastore" style="stroke:#181818;stroke-width:1.0;stroke-dasharray:7.0,7.0;"/><polygon fill="#181818" points="145.29,579.89,144.0681,570.1172,142.7081,575.6082,137.2172,574.2482,145.29,579.89" style="stroke:#181818;stroke-width:1.0;"/><text fill="#000000" font-family="sans-serif" font-size="13" lengthAdjust="spacing" textLength="53.5615" x="105" y="338.3069">requires</text></g><!--link End-to-End Tests to User Interface--><g id="link_End-to-End Tests_User Interface"><path d="M358.66,87.69 C343.81,114.8 321.9416,154.7572 307.1416,181.7872 " fill="none" id="End-to-End Tests-to-User Interface" style="stroke:#181818;stroke-width:1.0;stroke-dasharray:7.0,7.0;"/><polygon fill="#181818" points="304.26,187.05,312.0909,181.0769,306.6613,182.6644,305.0738,177.2348,304.26,187.05" style="stroke:#181818;stroke-width:1.0;"/><text fill="#000000" font-family="sans-serif" font-size="13" lengthAdjust="spacing" textLength="53.5615" x="341" y="132.3569">requires</text></g><!--link Logic to Storage--><g id="link_Logic_Storage"><path d="M286.4,357.27 C283.88,379.06 280.7882,405.9196 278.2782,427.6596 " fill="none" id="Logic-to-Storage" style="stroke:#181818;stroke-width:1.0;stroke-dasharray:7.0,7.0;"/><polygon fill="#181818" points="277.59,433.62,282.5958,425.1382,278.1635,428.653,274.6486,424.2206,277.59,433.62" style="stroke:#181818;stroke-width:1.0;"/><text fill="#000000" font-family="sans-serif" font-size="13" lengthAdjust="spacing" textLength="53.5615" x="283" y="399.9569">requires</text></g><!--link Storage to Datastore--><g id="link_Storage_Datastore"><path d="M257.03,480.58 C235.43,507.69 203.1303,548.2185 181.5803,575.2485 " fill="none" id="Storage-to-Datastore" style="stroke:#181818;stroke-width:1.0;stroke-dasharray:7.0,7.0;"/><polygon fill="#181818" points="177.84,579.94,186.5781,575.3963,180.9569,576.0304,180.3229,570.4092,177.84,579.94" style="stroke:#181818;stroke-width:1.0;"/><text fill="#000000" font-family="sans-serif" font-size="13" lengthAdjust="spacing" textLength="53.5615" x="232" y="525.2469">requires</text></g><!--link Test Driver to User Interface--><g id="link_Test Driver_User Interface"><path d="M507.44,87.72 C494.99,95.31 480.94,103.76 468,111.29 C422.35,137.87 374.5817,164.3565 338.7617,183.9865 " fill="none" id="Test Driver-to-User Interface" style="stroke:#181818;stroke-width:1.0;stroke-dasharray:7.0,7.0;"/><polygon fill="#181818" points="333.5,186.87,343.3149,186.0525,337.8847,184.4671,339.4702,179.037,333.5,186.87" style="stroke:#181818;stroke-width:1.0;"/><text fill="#000000" font-family="sans-serif" font-size="13" lengthAdjust="spacing" textLength="53.5615" x="454" y="132.3569">requires</text></g><!--link User Interface to Logic--><g id="link_User Interface_Logic"><path d="M291.44,233.97 C290.9,255.76 290.2389,282.5818 289.6989,304.3318 " fill="none" id="User Interface-to-Logic" style="stroke:#181818;stroke-width:1.0;stroke-dasharray:7.0,7.0;"/><polygon fill="#181818" points="289.55,310.33,293.7721,301.4321,289.6741,305.3315,285.7746,301.2335,289.55,310.33" style="stroke:#181818;stroke-width:1.0;"/><text fill="#000000" font-family="sans-serif" font-size="13" lengthAdjust="spacing" textLength="53.5615" x="291" y="276.6569">requires</text></g><!--SRC=[XP2xJWCn44LxVyKeVL9GKY3b1KAAH95GeHJ6cLXMl1upzWOGuj-PuDtDBf686x_ElNDdqi65g5bNi7SVSyV6uqg_edyw8diTemiMCjUeKWSQgY8537cTFpr2NVaR1IfgSz0MuPufP0mx-58WwsN6z9wGj-Kszqw4M_MjEi5CzXw_8kjCGwypiI3DxLbiu57CUQyD3Zmsc79g7PPXDyuqbgsyD_BJ6HRiZgSmFUteWSXA7zCOOHci2pXgdHOwwoGPIh6k5PXCxYxYm2qmljMECQcspGAUNGRCHSphjcKsXMjdCm2wn_yAzmTnlURVlrz14-JC_G00]--></g></svg>