<?xml version="1.0" encoding="us-ascii" standalone="no"?><svg xmlns="http://www.w3.org/2000/svg" xmlns:xlink="http://www.w3.org/1999/xlink" contentStyleType="text/css" height="399px" preserveAspectRatio="none" style="width:7423px;height:399px;background:#FFFFFF;" version="1.1" viewBox="0 0 7423 399" width="7423px" zoomAndPan="magnify"><defs/><g><!--cluster nodecom_piggymetrics_account--><g id="cluster_nodecom_piggymetrics_account"><polygon fill="none" points="16,101.9,26,91.9,1506,91.9,1506,372.9,1496,382.9,16,382.9,16,101.9" style="stroke:#181818;stroke-width:1.0;"/><line style="stroke:#181818;stroke-width:1.0;" x1="1496" x2="1506" y1="101.9" y2="91.9"/><line style="stroke:#181818;stroke-width:1.0;" x1="16" x2="1496" y1="101.9" y2="101.9"/><line style="stroke:#181818;stroke-width:1.0;" x1="1496" x2="1496" y1="101.9" y2="382.9"/><text fill="#000000" font-family="sans-serif" font-size="14" font-weight="bold" lengthAdjust="spacing" textLength="252" x="631" y="117.8951">nodecom_piggymetrics_account</text></g><!--cluster com_piggymetrics_account--><g id="cluster_com_piggymetrics_account"><rect fill="none" height="203" rx="2.5" ry="2.5" style="stroke:#181818;stroke-width:1.0;" width="1418" x="56" y="147.9"/><rect fill="none" height="10" style="stroke:#181818;stroke-width:1.0;" width="15" x="1454" y="152.9"/><rect fill="none" height="2" style="stroke:#181818;stroke-width:1.0;" width="4" x="1452" y="154.9"/><rect fill="none" height="2" style="stroke:#181818;stroke-width:1.0;" width="4" x="1452" y="158.9"/><text fill="#000000" font-family="sans-serif" font-size="14" font-weight="bold" lengthAdjust="spacing" textLength="212" x="659" y="173.8951">com_piggymetrics_account</text></g><!--cluster nodecom_piggymetrics_auth--><g id="cluster_nodecom_piggymetrics_auth"><polygon fill="none" points="3131,101.9,3141,91.9,4150,91.9,4150,372.9,4140,382.9,3131,382.9,3131,101.9" style="stroke:#181818;stroke-width:1.0;"/><line style="stroke:#181818;stroke-width:1.0;" x1="4140" x2="4150" y1="101.9" y2="91.9"/><line style="stroke:#181818;stroke-width:1.0;" x1="3131" x2="4140" y1="101.9" y2="101.9"/><line style="stroke:#181818;stroke-width:1.0;" x1="4140" x2="4140" y1="101.9" y2="382.9"/><text fill="#000000" font-family="sans-serif" font-size="14" font-weight="bold" lengthAdjust="spacing" textLength="224" x="3524.5" y="117.8951">nodecom_piggymetrics_auth</text></g><!--cluster com_piggymetrics_auth--><g id="cluster_com_piggymetrics_auth"><rect fill="none" height="203" rx="2.5" ry="2.5" style="stroke:#181818;stroke-width:1.0;" width="947" x="3171" y="147.9"/><rect fill="none" height="10" style="stroke:#181818;stroke-width:1.0;" width="15" x="4098" y="152.9"/><rect fill="none" height="2" style="stroke:#181818;stroke-width:1.0;" width="4" x="4096" y="154.9"/><rect fill="none" height="2" style="stroke:#181818;stroke-width:1.0;" width="4" x="4096" y="158.9"/><text fill="#000000" font-family="sans-serif" font-size="14" font-weight="bold" lengthAdjust="spacing" textLength="184" x="3552.5" y="173.8951">com_piggymetrics_auth</text></g><!--cluster nodecom_piggymetrics_notification--><g id="cluster_nodecom_piggymetrics_notification"><polygon fill="none" points="1546,101.9,1556,91.9,3091,91.9,3091,372.9,3081,382.9,1546,382.9,1546,101.9" style="stroke:#181818;stroke-width:1.0;"/><line style="stroke:#181818;stroke-width:1.0;" x1="3081" x2="3091" y1="101.9" y2="91.9"/><line style="stroke:#181818;stroke-width:1.0;" x1="1546" x2="3081" y1="101.9" y2="101.9"/><line style="stroke:#181818;stroke-width:1.0;" x1="3081" x2="3081" y1="101.9" y2="382.9"/><text fill="#000000" font-family="sans-serif" font-size="14" font-weight="bold" lengthAdjust="spacing" textLength="277" x="2176" y="117.8951">nodecom_piggymetrics_notification</text></g><!--cluster com_piggymetrics_notification--><g id="cluster_com_piggymetrics_notification"><rect fill="none" height="203" rx="2.5" ry="2.5" style="stroke:#181818;stroke-width:1.0;" width="1473" x="1586" y="147.9"/><rect fill="none" height="10" style="stroke:#181818;stroke-width:1.0;" width="15" x="3039" y="152.9"/><rect fill="none" height="2" style="stroke:#181818;stroke-width:1.0;" width="4" x="3037" y="154.9"/><rect fill="none" height="2" style="stroke:#181818;stroke-width:1.0;" width="4" x="3037" y="158.9"/><text fill="#000000" font-family="sans-serif" font-size="14" font-weight="bold" lengthAdjust="spacing" textLength="237" x="2204" y="173.8951">com_piggymetrics_notification</text></g><!--cluster nodecom_piggymetrics_statistics--><g id="cluster_nodecom_piggymetrics_statistics"><polygon fill="none" points="5485,101.9,5495,91.9,7034,91.9,7034,372.9,7024,382.9,5485,382.9,5485,101.9" style="stroke:#181818;stroke-width:1.0;"/><line style="stroke:#181818;stroke-width:1.0;" x1="7024" x2="7034" y1="101.9" y2="91.9"/><line style="stroke:#181818;stroke-width:1.0;" x1="5485" x2="7024" y1="101.9" y2="101.9"/><line style="stroke:#181818;stroke-width:1.0;" x1="7024" x2="7024" y1="101.9" y2="382.9"/><text fill="#000000" font-family="sans-serif" font-size="14" font-weight="bold" lengthAdjust="spacing" textLength="260" x="6125.5" y="117.8951">nodecom_piggymetrics_statistics</text></g><!--cluster com_piggymetrics_statistics--><g id="cluster_com_piggymetrics_statistics"><rect fill="none" height="203" rx="2.5" ry="2.5" style="stroke:#181818;stroke-width:1.0;" width="1477" x="5525" y="147.9"/><rect fill="none" height="10" style="stroke:#181818;stroke-width:1.0;" width="15" x="6982" y="152.9"/><rect fill="none" height="2" style="stroke:#181818;stroke-width:1.0;" width="4" x="6980" y="154.9"/><rect fill="none" height="2" style="stroke:#181818;stroke-width:1.0;" width="4" x="6980" y="158.9"/><text fill="#000000" font-family="sans-serif" font-size="14" font-weight="bold" lengthAdjust="spacing" textLength="220" x="6153.5" y="173.8951">com_piggymetrics_statistics</text></g><!--cluster nodecom_piggymetrics_notification_service_Environment_Provider--><g id="cluster_nodecom_piggymetrics_notification_service_Environment_Provider"><polygon fill="none" points="4190,144.9,4200,134.9,4788,134.9,4788,242.9,4778,252.9,4190,252.9,4190,144.9" style="stroke:#181818;stroke-width:1.0;"/><line style="stroke:#181818;stroke-width:1.0;" x1="4778" x2="4788" y1="144.9" y2="134.9"/><line style="stroke:#181818;stroke-width:1.0;" x1="4190" x2="4778" y1="144.9" y2="144.9"/><line style="stroke:#181818;stroke-width:1.0;" x1="4778" x2="4778" y1="144.9" y2="252.9"/><text fill="#000000" font-family="sans-serif" font-size="14" font-weight="bold" lengthAdjust="spacing" textLength="522" x="4224" y="160.8951">nodecom_piggymetrics_notification_service_Environment_Provider</text></g><!--cluster nodecom_piggymetrics_notification_service_JavaMailSender_Provider--><g id="cluster_nodecom_piggymetrics_notification_service_JavaMailSender_Provider"><polygon fill="none" points="4828,144.9,4838,134.9,5445,134.9,5445,242.9,5435,252.9,4828,252.9,4828,144.9" style="stroke:#181818;stroke-width:1.0;"/><line style="stroke:#181818;stroke-width:1.0;" x1="5435" x2="5445" y1="144.9" y2="134.9"/><line style="stroke:#181818;stroke-width:1.0;" x1="4828" x2="5435" y1="144.9" y2="144.9"/><line style="stroke:#181818;stroke-width:1.0;" x1="5435" x2="5435" y1="144.9" y2="252.9"/><text fill="#000000" font-family="sans-serif" font-size="14" font-weight="bold" lengthAdjust="spacing" textLength="541" x="4862" y="160.8951">nodecom_piggymetrics_notification_service_JavaMailSender_Provider</text></g><!--cluster noderates_client_latest_Provider--><g id="cluster_noderates_client_latest_Provider"><polygon fill="none" points="7074,144.9,7084,134.9,7406,134.9,7406,242.9,7396,252.9,7074,252.9,7074,144.9" style="stroke:#181818;stroke-width:1.0;"/><line style="stroke:#181818;stroke-width:1.0;" x1="7396" x2="7406" y1="144.9" y2="134.9"/><line style="stroke:#181818;stroke-width:1.0;" x1="7074" x2="7396" y1="144.9" y2="144.9"/><line style="stroke:#181818;stroke-width:1.0;" x1="7396" x2="7396" y1="144.9" y2="252.9"/><text fill="#000000" font-family="sans-serif" font-size="14" font-weight="bold" lengthAdjust="spacing" textLength="256" x="7108" y="160.8951">noderates_client_latest_Provider</text></g><!--entity com_piggymetrics_account_client_AuthServiceClient--><g id="elem_com_piggymetrics_account_client_AuthServiceClient"><a href="sqshq-piggymetrics.system#_ZxGTYDoEEe-AnO8tm2Adnw" target="_top" title="sqshq-piggymetrics.system#_ZxGTYDoEEe-AnO8tm2Adnw" xlink:actuate="onRequest" xlink:href="sqshq-piggymetrics.system#_ZxGTYDoEEe-AnO8tm2Adnw" xlink:show="new" xlink:title="sqshq-piggymetrics.system#_ZxGTYDoEEe-AnO8tm2Adnw" xlink:type="simple"><rect fill="#F1F1F1" height="46.2969" rx="2.5" ry="2.5" style="stroke:#181818;stroke-width:0.5;" width="400" x="72" y="182.9"/><rect fill="#F1F1F1" height="10" style="stroke:#181818;stroke-width:0.5;" width="15" x="452" y="187.9"/><rect fill="#F1F1F1" height="2" style="stroke:#181818;stroke-width:0.5;" width="4" x="450" y="189.9"/><rect fill="#F1F1F1" height="2" style="stroke:#181818;stroke-width:0.5;" width="4" x="450" y="193.9"/><text fill="#000000" font-family="sans-serif" font-size="14" lengthAdjust="spacing" textLength="360" x="87" y="215.8951">com_piggymetrics_account_client_AuthServiceClient</text></a></g><!--entity com_piggymetrics_account_client_StatisticsServiceClient--><g id="elem_com_piggymetrics_account_client_StatisticsServiceClient"><a href="sqshq-piggymetrics.system#_ZxGTYDoEEe-AnO8tm2Adnw" target="_top" title="sqshq-piggymetrics.system#_ZxGTYDoEEe-AnO8tm2Adnw" xlink:actuate="onRequest" xlink:href="sqshq-piggymetrics.system#_ZxGTYDoEEe-AnO8tm2Adnw" xlink:show="new" xlink:title="sqshq-piggymetrics.system#_ZxGTYDoEEe-AnO8tm2Adnw" xlink:type="simple"><rect fill="#F1F1F1" height="46.2969" rx="2.5" ry="2.5" style="stroke:#181818;stroke-width:0.5;" width="430" x="507" y="182.9"/><rect fill="#F1F1F1" height="10" style="stroke:#181818;stroke-width:0.5;" width="15" x="917" y="187.9"/><rect fill="#F1F1F1" height="2" style="stroke:#181818;stroke-width:0.5;" width="4" x="915" y="189.9"/><rect fill="#F1F1F1" height="2" style="stroke:#181818;stroke-width:0.5;" width="4" x="915" y="193.9"/><text fill="#000000" font-family="sans-serif" font-size="14" lengthAdjust="spacing" textLength="390" x="522" y="215.8951">com_piggymetrics_account_client_StatisticsServiceClient</text></a></g><!--entity com_piggymetrics_account_client_StatisticsServiceClientFallback--><g id="elem_com_piggymetrics_account_client_StatisticsServiceClientFallback"><a href="sqshq-piggymetrics.system#_ZxGTYDoEEe-AnO8tm2Adnw" target="_top" title="sqshq-piggymetrics.system#_ZxGTYDoEEe-AnO8tm2Adnw" xlink:actuate="onRequest" xlink:href="sqshq-piggymetrics.system#_ZxGTYDoEEe-AnO8tm2Adnw" xlink:show="new" xlink:title="sqshq-piggymetrics.system#_ZxGTYDoEEe-AnO8tm2Adnw" xlink:type="simple"><rect fill="#F1F1F1" height="46.2969" rx="2.5" ry="2.5" style="stroke:#181818;stroke-width:0.5;" width="485" x="972.5" y="182.9"/><rect fill="#F1F1F1" height="10" style="stroke:#181818;stroke-width:0.5;" width="15" x="1437.5" y="187.9"/><rect fill="#F1F1F1" height="2" style="stroke:#181818;stroke-width:0.5;" width="4" x="1435.5" y="189.9"/><rect fill="#F1F1F1" height="2" style="stroke:#181818;stroke-width:0.5;" width="4" x="1435.5" y="193.9"/><text fill="#000000" font-family="sans-serif" font-size="14" lengthAdjust="spacing" textLength="445" x="987.5" y="215.8951">com_piggymetrics_account_client_StatisticsServiceClientFallback</text></a></g><!--entity com_piggymetrics_account_controller_AccountController--><g id="elem_com_piggymetrics_account_controller_AccountController"><a href="sqshq-piggymetrics.system#_ZxGTYDoEEe-AnO8tm2Adnw" target="_top" title="sqshq-piggymetrics.system#_ZxGTYDoEEe-AnO8tm2Adnw" xlink:actuate="onRequest" xlink:href="sqshq-piggymetrics.system#_ZxGTYDoEEe-AnO8tm2Adnw" xlink:show="new" xlink:title="sqshq-piggymetrics.system#_ZxGTYDoEEe-AnO8tm2Adnw" xlink:type="simple"><rect fill="#F1F1F1" height="46.2969" rx="2.5" ry="2.5" style="stroke:#181818;stroke-width:0.5;" width="431" x="72.5" y="288.9"/><rect fill="#F1F1F1" height="10" style="stroke:#181818;stroke-width:0.5;" width="15" x="483.5" y="293.9"/><rect fill="#F1F1F1" height="2" style="stroke:#181818;stroke-width:0.5;" width="4" x="481.5" y="295.9"/><rect fill="#F1F1F1" height="2" style="stroke:#181818;stroke-width:0.5;" width="4" x="481.5" y="299.9"/><text fill="#000000" font-family="sans-serif" font-size="14" lengthAdjust="spacing" textLength="391" x="87.5" y="321.8951">com_piggymetrics_account_controller_AccountController</text></a></g><!--entity com_piggymetrics_account_repository_AccountRepository--><g id="elem_com_piggymetrics_account_repository_AccountRepository"><a href="sqshq-piggymetrics.system#_ZxGTYDoEEe-AnO8tm2Adnw" target="_top" title="sqshq-piggymetrics.system#_ZxGTYDoEEe-AnO8tm2Adnw" xlink:actuate="onRequest" xlink:href="sqshq-piggymetrics.system#_ZxGTYDoEEe-AnO8tm2Adnw" xlink:show="new" xlink:title="sqshq-piggymetrics.system#_ZxGTYDoEEe-AnO8tm2Adnw" xlink:type="simple"><rect fill="#F1F1F1" height="46.2969" rx="2.5" ry="2.5" style="stroke:#181818;stroke-width:0.5;" width="442" x="539" y="288.9"/><rect fill="#F1F1F1" height="10" style="stroke:#181818;stroke-width:0.5;" width="15" x="961" y="293.9"/><rect fill="#F1F1F1" height="2" style="stroke:#181818;stroke-width:0.5;" width="4" x="959" y="295.9"/><rect fill="#F1F1F1" height="2" style="stroke:#181818;stroke-width:0.5;" width="4" x="959" y="299.9"/><text fill="#000000" font-family="sans-serif" font-size="14" lengthAdjust="spacing" textLength="402" x="554" y="321.8951">com_piggymetrics_account_repository_AccountRepository</text></a></g><!--entity com_piggymetrics_account_service_AccountServiceImpl--><g id="elem_com_piggymetrics_account_service_AccountServiceImpl"><a href="sqshq-piggymetrics.system#_ZxGTYDoEEe-AnO8tm2Adnw" target="_top" title="sqshq-piggymetrics.system#_ZxGTYDoEEe-AnO8tm2Adnw" xlink:actuate="onRequest" xlink:href="sqshq-piggymetrics.system#_ZxGTYDoEEe-AnO8tm2Adnw" xlink:show="new" xlink:title="sqshq-piggymetrics.system#_ZxGTYDoEEe-AnO8tm2Adnw" xlink:type="simple"><rect fill="#F1F1F1" height="46.2969" rx="2.5" ry="2.5" style="stroke:#181818;stroke-width:0.5;" width="426" x="1016" y="288.9"/><rect fill="#F1F1F1" height="10" style="stroke:#181818;stroke-width:0.5;" width="15" x="1422" y="293.9"/><rect fill="#F1F1F1" height="2" style="stroke:#181818;stroke-width:0.5;" width="4" x="1420" y="295.9"/><rect fill="#F1F1F1" height="2" style="stroke:#181818;stroke-width:0.5;" width="4" x="1420" y="299.9"/><text fill="#000000" font-family="sans-serif" font-size="14" lengthAdjust="spacing" textLength="386" x="1031" y="321.8951">com_piggymetrics_account_service_AccountServiceImpl</text></a></g><!--entity com_piggymetrics_auth_controller_UserController--><g id="elem_com_piggymetrics_auth_controller_UserController"><a href="sqshq-piggymetrics.system#_ZxGTYDoEEe-AnO8tm2Adnw" target="_top" title="sqshq-piggymetrics.system#_ZxGTYDoEEe-AnO8tm2Adnw" xlink:actuate="onRequest" xlink:href="sqshq-piggymetrics.system#_ZxGTYDoEEe-AnO8tm2Adnw" xlink:show="new" xlink:title="sqshq-piggymetrics.system#_ZxGTYDoEEe-AnO8tm2Adnw" xlink:type="simple"><rect fill="#F1F1F1" height="46.2969" rx="2.5" ry="2.5" style="stroke:#181818;stroke-width:0.5;" width="381" x="3186.5" y="182.9"/><rect fill="#F1F1F1" height="10" style="stroke:#181818;stroke-width:0.5;" width="15" x="3547.5" y="187.9"/><rect fill="#F1F1F1" height="2" style="stroke:#181818;stroke-width:0.5;" width="4" x="3545.5" y="189.9"/><rect fill="#F1F1F1" height="2" style="stroke:#181818;stroke-width:0.5;" width="4" x="3545.5" y="193.9"/><text fill="#000000" font-family="sans-serif" font-size="14" lengthAdjust="spacing" textLength="341" x="3201.5" y="215.8951">com_piggymetrics_auth_controller_UserController</text></a></g><!--entity com_piggymetrics_auth_repository_UserRepository--><g id="elem_com_piggymetrics_auth_repository_UserRepository"><a href="sqshq-piggymetrics.system#_ZxGTYDoEEe-AnO8tm2Adnw" target="_top" title="sqshq-piggymetrics.system#_ZxGTYDoEEe-AnO8tm2Adnw" xlink:actuate="onRequest" xlink:href="sqshq-piggymetrics.system#_ZxGTYDoEEe-AnO8tm2Adnw" xlink:show="new" xlink:title="sqshq-piggymetrics.system#_ZxGTYDoEEe-AnO8tm2Adnw" xlink:type="simple"><rect fill="#F1F1F1" height="46.2969" rx="2.5" ry="2.5" style="stroke:#181818;stroke-width:0.5;" width="392" x="3602" y="182.9"/><rect fill="#F1F1F1" height="10" style="stroke:#181818;stroke-width:0.5;" width="15" x="3974" y="187.9"/><rect fill="#F1F1F1" height="2" style="stroke:#181818;stroke-width:0.5;" width="4" x="3972" y="189.9"/><rect fill="#F1F1F1" height="2" style="stroke:#181818;stroke-width:0.5;" width="4" x="3972" y="193.9"/><text fill="#000000" font-family="sans-serif" font-size="14" lengthAdjust="spacing" textLength="352" x="3617" y="215.8951">com_piggymetrics_auth_repository_UserRepository</text></a></g><!--entity com_piggymetrics_auth_service_UserServiceImpl--><g id="elem_com_piggymetrics_auth_service_UserServiceImpl"><a href="sqshq-piggymetrics.system#_ZxGTYDoEEe-AnO8tm2Adnw" target="_top" title="sqshq-piggymetrics.system#_ZxGTYDoEEe-AnO8tm2Adnw" xlink:actuate="onRequest" xlink:href="sqshq-piggymetrics.system#_ZxGTYDoEEe-AnO8tm2Adnw" xlink:show="new" xlink:title="sqshq-piggymetrics.system#_ZxGTYDoEEe-AnO8tm2Adnw" xlink:type="simple"><rect fill="#F1F1F1" height="46.2969" rx="2.5" ry="2.5" style="stroke:#181818;stroke-width:0.5;" width="376" x="3187" y="288.9"/><rect fill="#F1F1F1" height="10" style="stroke:#181818;stroke-width:0.5;" width="15" x="3543" y="293.9"/><rect fill="#F1F1F1" height="2" style="stroke:#181818;stroke-width:0.5;" width="4" x="3541" y="295.9"/><rect fill="#F1F1F1" height="2" style="stroke:#181818;stroke-width:0.5;" width="4" x="3541" y="299.9"/><text fill="#000000" font-family="sans-serif" font-size="14" lengthAdjust="spacing" textLength="336" x="3202" y="321.8951">com_piggymetrics_auth_service_UserServiceImpl</text></a></g><!--entity com_piggymetrics_auth_service_security_MongoUserDetailsService--><g id="elem_com_piggymetrics_auth_service_security_MongoUserDetailsService"><a href="sqshq-piggymetrics.system#_ZxGTYDoEEe-AnO8tm2Adnw" target="_top" title="sqshq-piggymetrics.system#_ZxGTYDoEEe-AnO8tm2Adnw" xlink:actuate="onRequest" xlink:href="sqshq-piggymetrics.system#_ZxGTYDoEEe-AnO8tm2Adnw" xlink:show="new" xlink:title="sqshq-piggymetrics.system#_ZxGTYDoEEe-AnO8tm2Adnw" xlink:type="simple"><rect fill="#F1F1F1" height="46.2969" rx="2.5" ry="2.5" style="stroke:#181818;stroke-width:0.5;" width="504" x="3598" y="288.9"/><rect fill="#F1F1F1" height="10" style="stroke:#181818;stroke-width:0.5;" width="15" x="4082" y="293.9"/><rect fill="#F1F1F1" height="2" style="stroke:#181818;stroke-width:0.5;" width="4" x="4080" y="295.9"/><rect fill="#F1F1F1" height="2" style="stroke:#181818;stroke-width:0.5;" width="4" x="4080" y="299.9"/><text fill="#000000" font-family="sans-serif" font-size="14" lengthAdjust="spacing" textLength="464" x="3613" y="321.8951">com_piggymetrics_auth_service_security_MongoUserDetailsService</text></a></g><!--entity com_piggymetrics_notification_client_AccountServiceClient--><g id="elem_com_piggymetrics_notification_client_AccountServiceClient"><a href="sqshq-piggymetrics.system#_ZxGTYDoEEe-AnO8tm2Adnw" target="_top" title="sqshq-piggymetrics.system#_ZxGTYDoEEe-AnO8tm2Adnw" xlink:actuate="onRequest" xlink:href="sqshq-piggymetrics.system#_ZxGTYDoEEe-AnO8tm2Adnw" xlink:show="new" xlink:title="sqshq-piggymetrics.system#_ZxGTYDoEEe-AnO8tm2Adnw" xlink:type="simple"><rect fill="#F1F1F1" height="46.2969" rx="2.5" ry="2.5" style="stroke:#181818;stroke-width:0.5;" width="444" x="1602" y="182.9"/><rect fill="#F1F1F1" height="10" style="stroke:#181818;stroke-width:0.5;" width="15" x="2026" y="187.9"/><rect fill="#F1F1F1" height="2" style="stroke:#181818;stroke-width:0.5;" width="4" x="2024" y="189.9"/><rect fill="#F1F1F1" height="2" style="stroke:#181818;stroke-width:0.5;" width="4" x="2024" y="193.9"/><text fill="#000000" font-family="sans-serif" font-size="14" lengthAdjust="spacing" textLength="404" x="1617" y="215.8951">com_piggymetrics_notification_client_AccountServiceClient</text></a></g><!--entity com_piggymetrics_notification_controller_RecipientController--><g id="elem_com_piggymetrics_notification_controller_RecipientController"><a href="sqshq-piggymetrics.system#_ZxGTYDoEEe-AnO8tm2Adnw" target="_top" title="sqshq-piggymetrics.system#_ZxGTYDoEEe-AnO8tm2Adnw" xlink:actuate="onRequest" xlink:href="sqshq-piggymetrics.system#_ZxGTYDoEEe-AnO8tm2Adnw" xlink:show="new" xlink:title="sqshq-piggymetrics.system#_ZxGTYDoEEe-AnO8tm2Adnw" xlink:type="simple"><rect fill="#F1F1F1" height="46.2969" rx="2.5" ry="2.5" style="stroke:#181818;stroke-width:0.5;" width="458" x="2081" y="182.9"/><rect fill="#F1F1F1" height="10" style="stroke:#181818;stroke-width:0.5;" width="15" x="2519" y="187.9"/><rect fill="#F1F1F1" height="2" style="stroke:#181818;stroke-width:0.5;" width="4" x="2517" y="189.9"/><rect fill="#F1F1F1" height="2" style="stroke:#181818;stroke-width:0.5;" width="4" x="2517" y="193.9"/><text fill="#000000" font-family="sans-serif" font-size="14" lengthAdjust="spacing" textLength="418" x="2096" y="215.8951">com_piggymetrics_notification_controller_RecipientController</text></a></g><!--entity com_piggymetrics_notification_repository_RecipientRepository--><g id="elem_com_piggymetrics_notification_repository_RecipientRepository"><a href="sqshq-piggymetrics.system#_ZxGTYDoEEe-AnO8tm2Adnw" target="_top" title="sqshq-piggymetrics.system#_ZxGTYDoEEe-AnO8tm2Adnw" xlink:actuate="onRequest" xlink:href="sqshq-piggymetrics.system#_ZxGTYDoEEe-AnO8tm2Adnw" xlink:show="new" xlink:title="sqshq-piggymetrics.system#_ZxGTYDoEEe-AnO8tm2Adnw" xlink:type="simple"><rect fill="#F1F1F1" height="46.2969" rx="2.5" ry="2.5" style="stroke:#181818;stroke-width:0.5;" width="469" x="2574.5" y="182.9"/><rect fill="#F1F1F1" height="10" style="stroke:#181818;stroke-width:0.5;" width="15" x="3023.5" y="187.9"/><rect fill="#F1F1F1" height="2" style="stroke:#181818;stroke-width:0.5;" width="4" x="3021.5" y="189.9"/><rect fill="#F1F1F1" height="2" style="stroke:#181818;stroke-width:0.5;" width="4" x="3021.5" y="193.9"/><text fill="#000000" font-family="sans-serif" font-size="14" lengthAdjust="spacing" textLength="429" x="2589.5" y="215.8951">com_piggymetrics_notification_repository_RecipientRepository</text></a></g><!--entity com_piggymetrics_notification_service_EmailServiceImpl--><g id="elem_com_piggymetrics_notification_service_EmailServiceImpl"><a href="sqshq-piggymetrics.system#_ZxGTYDoEEe-AnO8tm2Adnw" target="_top" title="sqshq-piggymetrics.system#_ZxGTYDoEEe-AnO8tm2Adnw" xlink:actuate="onRequest" xlink:href="sqshq-piggymetrics.system#_ZxGTYDoEEe-AnO8tm2Adnw" xlink:show="new" xlink:title="sqshq-piggymetrics.system#_ZxGTYDoEEe-AnO8tm2Adnw" xlink:type="simple"><rect fill="#F1F1F1" height="46.2969" rx="2.5" ry="2.5" style="stroke:#181818;stroke-width:0.5;" width="424" x="1612" y="288.9"/><rect fill="#F1F1F1" height="10" style="stroke:#181818;stroke-width:0.5;" width="15" x="2016" y="293.9"/><rect fill="#F1F1F1" height="2" style="stroke:#181818;stroke-width:0.5;" width="4" x="2014" y="295.9"/><rect fill="#F1F1F1" height="2" style="stroke:#181818;stroke-width:0.5;" width="4" x="2014" y="299.9"/><text fill="#000000" font-family="sans-serif" font-size="14" lengthAdjust="spacing" textLength="384" x="1627" y="321.8951">com_piggymetrics_notification_service_EmailServiceImpl</text></a></g><!--entity com_piggymetrics_notification_service_NotificationServiceImpl--><g id="elem_com_piggymetrics_notification_service_NotificationServiceImpl"><a href="sqshq-piggymetrics.system#_ZxGTYDoEEe-AnO8tm2Adnw" target="_top" title="sqshq-piggymetrics.system#_ZxGTYDoEEe-AnO8tm2Adnw" xlink:actuate="onRequest" xlink:href="sqshq-piggymetrics.system#_ZxGTYDoEEe-AnO8tm2Adnw" xlink:show="new" xlink:title="sqshq-piggymetrics.system#_ZxGTYDoEEe-AnO8tm2Adnw" xlink:type="simple"><rect fill="#F1F1F1" height="46.2969" rx="2.5" ry="2.5" style="stroke:#181818;stroke-width:0.5;" width="464" x="2071" y="288.9"/><rect fill="#F1F1F1" height="10" style="stroke:#181818;stroke-width:0.5;" width="15" x="2515" y="293.9"/><rect fill="#F1F1F1" height="2" style="stroke:#181818;stroke-width:0.5;" width="4" x="2513" y="295.9"/><rect fill="#F1F1F1" height="2" style="stroke:#181818;stroke-width:0.5;" width="4" x="2513" y="299.9"/><text fill="#000000" font-family="sans-serif" font-size="14" lengthAdjust="spacing" textLength="424" x="2086" y="321.8951">com_piggymetrics_notification_service_NotificationServiceImpl</text></a></g><!--entity com_piggymetrics_notification_service_RecipientServiceImpl--><g id="elem_com_piggymetrics_notification_service_RecipientServiceImpl"><a href="sqshq-piggymetrics.system#_ZxGTYDoEEe-AnO8tm2Adnw" target="_top" title="sqshq-piggymetrics.system#_ZxGTYDoEEe-AnO8tm2Adnw" xlink:actuate="onRequest" xlink:href="sqshq-piggymetrics.system#_ZxGTYDoEEe-AnO8tm2Adnw" xlink:show="new" xlink:title="sqshq-piggymetrics.system#_ZxGTYDoEEe-AnO8tm2Adnw" xlink:type="simple"><rect fill="#F1F1F1" height="46.2969" rx="2.5" ry="2.5" style="stroke:#181818;stroke-width:0.5;" width="453" x="2570.5" y="288.9"/><rect fill="#F1F1F1" height="10" style="stroke:#181818;stroke-width:0.5;" width="15" x="3003.5" y="293.9"/><rect fill="#F1F1F1" height="2" style="stroke:#181818;stroke-width:0.5;" width="4" x="3001.5" y="295.9"/><rect fill="#F1F1F1" height="2" style="stroke:#181818;stroke-width:0.5;" width="4" x="3001.5" y="299.9"/><text fill="#000000" font-family="sans-serif" font-size="14" lengthAdjust="spacing" textLength="413" x="2585.5" y="321.8951">com_piggymetrics_notification_service_RecipientServiceImpl</text></a></g><!--entity com_piggymetrics_statistics_client_ExchangeRatesClient--><g id="elem_com_piggymetrics_statistics_client_ExchangeRatesClient"><a href="sqshq-piggymetrics.system#_ZxGTYDoEEe-AnO8tm2Adnw" target="_top" title="sqshq-piggymetrics.system#_ZxGTYDoEEe-AnO8tm2Adnw" xlink:actuate="onRequest" xlink:href="sqshq-piggymetrics.system#_ZxGTYDoEEe-AnO8tm2Adnw" xlink:show="new" xlink:title="sqshq-piggymetrics.system#_ZxGTYDoEEe-AnO8tm2Adnw" xlink:type="simple"><rect fill="#F1F1F1" height="46.2969" rx="2.5" ry="2.5" style="stroke:#181818;stroke-width:0.5;" width="431" x="5553.5" y="182.9"/><rect fill="#F1F1F1" height="10" style="stroke:#181818;stroke-width:0.5;" width="15" x="5964.5" y="187.9"/><rect fill="#F1F1F1" height="2" style="stroke:#181818;stroke-width:0.5;" width="4" x="5962.5" y="189.9"/><rect fill="#F1F1F1" height="2" style="stroke:#181818;stroke-width:0.5;" width="4" x="5962.5" y="193.9"/><text fill="#000000" font-family="sans-serif" font-size="14" lengthAdjust="spacing" textLength="391" x="5568.5" y="215.8951">com_piggymetrics_statistics_client_ExchangeRatesClient</text></a></g><!--entity com_piggymetrics_statistics_client_ExchangeRatesClientFallback--><g id="elem_com_piggymetrics_statistics_client_ExchangeRatesClientFallback"><a href="sqshq-piggymetrics.system#_ZxGTYDoEEe-AnO8tm2Adnw" target="_top" title="sqshq-piggymetrics.system#_ZxGTYDoEEe-AnO8tm2Adnw" xlink:actuate="onRequest" xlink:href="sqshq-piggymetrics.system#_ZxGTYDoEEe-AnO8tm2Adnw" xlink:show="new" xlink:title="sqshq-piggymetrics.system#_ZxGTYDoEEe-AnO8tm2Adnw" xlink:type="simple"><rect fill="#F1F1F1" height="46.2969" rx="2.5" ry="2.5" style="stroke:#181818;stroke-width:0.5;" width="486" x="6020" y="182.9"/><rect fill="#F1F1F1" height="10" style="stroke:#181818;stroke-width:0.5;" width="15" x="6486" y="187.9"/><rect fill="#F1F1F1" height="2" style="stroke:#181818;stroke-width:0.5;" width="4" x="6484" y="189.9"/><rect fill="#F1F1F1" height="2" style="stroke:#181818;stroke-width:0.5;" width="4" x="6484" y="193.9"/><text fill="#000000" font-family="sans-serif" font-size="14" lengthAdjust="spacing" textLength="446" x="6035" y="215.8951">com_piggymetrics_statistics_client_ExchangeRatesClientFallback</text></a></g><!--entity com_piggymetrics_statistics_controller_StatisticsController--><g id="elem_com_piggymetrics_statistics_controller_StatisticsController"><a href="sqshq-piggymetrics.system#_ZxGTYDoEEe-AnO8tm2Adnw" target="_top" title="sqshq-piggymetrics.system#_ZxGTYDoEEe-AnO8tm2Adnw" xlink:actuate="onRequest" xlink:href="sqshq-piggymetrics.system#_ZxGTYDoEEe-AnO8tm2Adnw" xlink:show="new" xlink:title="sqshq-piggymetrics.system#_ZxGTYDoEEe-AnO8tm2Adnw" xlink:type="simple"><rect fill="#F1F1F1" height="46.2969" rx="2.5" ry="2.5" style="stroke:#181818;stroke-width:0.5;" width="441" x="6541.5" y="182.9"/><rect fill="#F1F1F1" height="10" style="stroke:#181818;stroke-width:0.5;" width="15" x="6962.5" y="187.9"/><rect fill="#F1F1F1" height="2" style="stroke:#181818;stroke-width:0.5;" width="4" x="6960.5" y="189.9"/><rect fill="#F1F1F1" height="2" style="stroke:#181818;stroke-width:0.5;" width="4" x="6960.5" y="193.9"/><text fill="#000000" font-family="sans-serif" font-size="14" lengthAdjust="spacing" textLength="401" x="6556.5" y="215.8951">com_piggymetrics_statistics_controller_StatisticsController</text></a></g><!--entity com_piggymetrics_statistics_repository_DataPointRepository--><g id="elem_com_piggymetrics_statistics_repository_DataPointRepository"><a href="sqshq-piggymetrics.system#_ZxGTYDoEEe-AnO8tm2Adnw" target="_top" title="sqshq-piggymetrics.system#_ZxGTYDoEEe-AnO8tm2Adnw" xlink:actuate="onRequest" xlink:href="sqshq-piggymetrics.system#_ZxGTYDoEEe-AnO8tm2Adnw" xlink:show="new" xlink:title="sqshq-piggymetrics.system#_ZxGTYDoEEe-AnO8tm2Adnw" xlink:type="simple"><rect fill="#F1F1F1" height="46.2969" rx="2.5" ry="2.5" style="stroke:#181818;stroke-width:0.5;" width="457" x="5540.5" y="288.9"/><rect fill="#F1F1F1" height="10" style="stroke:#181818;stroke-width:0.5;" width="15" x="5977.5" y="293.9"/><rect fill="#F1F1F1" height="2" style="stroke:#181818;stroke-width:0.5;" width="4" x="5975.5" y="295.9"/><rect fill="#F1F1F1" height="2" style="stroke:#181818;stroke-width:0.5;" width="4" x="5975.5" y="299.9"/><text fill="#000000" font-family="sans-serif" font-size="14" lengthAdjust="spacing" textLength="417" x="5555.5" y="321.8951">com_piggymetrics_statistics_repository_DataPointRepository</text></a></g><!--entity com_piggymetrics_statistics_service_ExchangeRatesServiceImpl--><g id="elem_com_piggymetrics_statistics_service_ExchangeRatesServiceImpl"><a href="sqshq-piggymetrics.system#_ZxGTYDoEEe-AnO8tm2Adnw" target="_top" title="sqshq-piggymetrics.system#_ZxGTYDoEEe-AnO8tm2Adnw" xlink:actuate="onRequest" xlink:href="sqshq-piggymetrics.system#_ZxGTYDoEEe-AnO8tm2Adnw" xlink:show="new" xlink:title="sqshq-piggymetrics.system#_ZxGTYDoEEe-AnO8tm2Adnw" xlink:type="simple"><rect fill="#F1F1F1" height="46.2969" rx="2.5" ry="2.5" style="stroke:#181818;stroke-width:0.5;" width="482" x="6033" y="288.9"/><rect fill="#F1F1F1" height="10" style="stroke:#181818;stroke-width:0.5;" width="15" x="6495" y="293.9"/><rect fill="#F1F1F1" height="2" style="stroke:#181818;stroke-width:0.5;" width="4" x="6493" y="295.9"/><rect fill="#F1F1F1" height="2" style="stroke:#181818;stroke-width:0.5;" width="4" x="6493" y="299.9"/><text fill="#000000" font-family="sans-serif" font-size="14" lengthAdjust="spacing" textLength="442" x="6048" y="321.8951">com_piggymetrics_statistics_service_ExchangeRatesServiceImpl</text></a></g><!--entity com_piggymetrics_statistics_service_StatisticsServiceImpl--><g id="elem_com_piggymetrics_statistics_service_StatisticsServiceImpl"><a href="sqshq-piggymetrics.system#_ZxGTYDoEEe-AnO8tm2Adnw" target="_top" title="sqshq-piggymetrics.system#_ZxGTYDoEEe-AnO8tm2Adnw" xlink:actuate="onRequest" xlink:href="sqshq-piggymetrics.system#_ZxGTYDoEEe-AnO8tm2Adnw" xlink:show="new" xlink:title="sqshq-piggymetrics.system#_ZxGTYDoEEe-AnO8tm2Adnw" xlink:type="simple"><rect fill="#F1F1F1" height="46.2969" rx="2.5" ry="2.5" style="stroke:#181818;stroke-width:0.5;" width="436" x="6550" y="288.9"/><rect fill="#F1F1F1" height="10" style="stroke:#181818;stroke-width:0.5;" width="15" x="6966" y="293.9"/><rect fill="#F1F1F1" height="2" style="stroke:#181818;stroke-width:0.5;" width="4" x="6964" y="295.9"/><rect fill="#F1F1F1" height="2" style="stroke:#181818;stroke-width:0.5;" width="4" x="6964" y="299.9"/><text fill="#000000" font-family="sans-serif" font-size="14" lengthAdjust="spacing" textLength="396" x="6565" y="321.8951">com_piggymetrics_statistics_service_StatisticsServiceImpl</text></a></g><!--entity com_piggymetrics_notification_service_Environment_Provider--><g id="elem_com_piggymetrics_notification_service_Environment_Provider"><a href="sqshq-piggymetrics.system#_ZxGTYDoEEe-AnO8tm2Adnw" target="_top" title="sqshq-piggymetrics.system#_ZxGTYDoEEe-AnO8tm2Adnw" xlink:actuate="onRequest" xlink:href="sqshq-piggymetrics.system#_ZxGTYDoEEe-AnO8tm2Adnw" xlink:show="new" xlink:title="sqshq-piggymetrics.system#_ZxGTYDoEEe-AnO8tm2Adnw" xlink:type="simple"><rect fill="#F1F1F1" height="46.2969" rx="2.5" ry="2.5" style="stroke:#181818;stroke-width:0.5;" width="460" x="4268" y="182.9"/><rect fill="#F1F1F1" height="10" style="stroke:#181818;stroke-width:0.5;" width="15" x="4708" y="187.9"/><rect fill="#F1F1F1" height="2" style="stroke:#181818;stroke-width:0.5;" width="4" x="4706" y="189.9"/><rect fill="#F1F1F1" height="2" style="stroke:#181818;stroke-width:0.5;" width="4" x="4706" y="193.9"/><text fill="#000000" font-family="sans-serif" font-size="14" lengthAdjust="spacing" textLength="420" x="4283" y="215.8951">com_piggymetrics_notification_service_Environment_Provider</text></a></g><!--entity com_piggymetrics_notification_service_JavaMailSender_Provider--><g id="elem_com_piggymetrics_notification_service_JavaMailSender_Provider"><a href="sqshq-piggymetrics.system#_ZxGTYDoEEe-AnO8tm2Adnw" target="_top" title="sqshq-piggymetrics.system#_ZxGTYDoEEe-AnO8tm2Adnw" xlink:actuate="onRequest" xlink:href="sqshq-piggymetrics.system#_ZxGTYDoEEe-AnO8tm2Adnw" xlink:show="new" xlink:title="sqshq-piggymetrics.system#_ZxGTYDoEEe-AnO8tm2Adnw" xlink:type="simple"><rect fill="#F1F1F1" height="46.2969" rx="2.5" ry="2.5" style="stroke:#181818;stroke-width:0.5;" width="475" x="4908.5" y="182.9"/><rect fill="#F1F1F1" height="10" style="stroke:#181818;stroke-width:0.5;" width="15" x="5363.5" y="187.9"/><rect fill="#F1F1F1" height="2" style="stroke:#181818;stroke-width:0.5;" width="4" x="5361.5" y="189.9"/><rect fill="#F1F1F1" height="2" style="stroke:#181818;stroke-width:0.5;" width="4" x="5361.5" y="193.9"/><text fill="#000000" font-family="sans-serif" font-size="14" lengthAdjust="spacing" textLength="435" x="4923.5" y="215.8951">com_piggymetrics_notification_service_JavaMailSender_Provider</text></a></g><!--entity rates_client_latest_Provider--><g id="elem_rates_client_latest_Provider"><a href="sqshq-piggymetrics.system#_ZxGTYDoEEe-AnO8tm2Adnw" target="_top" title="sqshq-piggymetrics.system#_ZxGTYDoEEe-AnO8tm2Adnw" xlink:actuate="onRequest" xlink:href="sqshq-piggymetrics.system#_ZxGTYDoEEe-AnO8tm2Adnw" xlink:show="new" xlink:title="sqshq-piggymetrics.system#_ZxGTYDoEEe-AnO8tm2Adnw" xlink:type="simple"><rect fill="#F1F1F1" height="46.2969" rx="2.5" ry="2.5" style="stroke:#181818;stroke-width:0.5;" width="227" x="7135.5" y="182.9"/><rect fill="#F1F1F1" height="10" style="stroke:#181818;stroke-width:0.5;" width="15" x="7342.5" y="187.9"/><rect fill="#F1F1F1" height="2" style="stroke:#181818;stroke-width:0.5;" width="4" x="7340.5" y="189.9"/><rect fill="#F1F1F1" height="2" style="stroke:#181818;stroke-width:0.5;" width="4" x="7340.5" y="193.9"/><text fill="#000000" font-family="sans-serif" font-size="14" lengthAdjust="spacing" textLength="187" x="7150.5" y="215.8951">rates_client_latest_Provider</text></a></g><!--link nodecom_piggymetrics_account to nodecom_piggymetrics_notification--><g id="link_nodecom_piggymetrics_account_nodecom_piggymetrics_notification"><path d="M36.2953,91.7281 C36.5028,91.2178 36.7134,90.709 36.9269,90.2019 C37.781,88.1736 38.6833,86.1718 39.6361,84.202 C47.2588,68.4437 58.12,54.735 73.5,45.9 C140.13,7.63 1389.51,8.27 1456.5,45.9 C1491.1,65.335 1514.865,102.585 1530.2638,136.255 C1534.1134,144.6725 1537.4402,152.8662 1540.2827,160.502 C1541.704,164.3198 1543.0041,167.9981 1544.188,171.4952 C1544.78,173.2437 1545.3429,174.9469 1545.8773,176.5995 " fill="none" id="nodecom_piggymetrics_account-nodecom_piggymetrics_notification" style="stroke:#181818;stroke-width:1.0;"/></g><!--link nodecom_piggymetrics_auth to nodecom_piggymetrics_account--><g id="link_nodecom_piggymetrics_auth_nodecom_piggymetrics_account"><path d="M3130.8773,176.5995 C3130.3429,174.9469 3129.78,173.2437 3129.188,171.4952 C3128.0041,167.9981 3126.704,164.3198 3125.2827,160.502 C3122.4402,152.8662 3119.1134,144.6725 3115.2638,136.255 C3099.865,102.585 3076.1,65.335 3041.5,45.9 C3005.56,25.71 109.25,25.37 73.5,45.9 C58.12,54.735 47.2588,68.4437 39.6361,84.202 C38.6833,86.1718 37.781,88.1736 36.9269,90.2019 C36.7134,90.709 36.5028,91.2178 36.2953,91.7281 " fill="none" id="nodecom_piggymetrics_auth-nodecom_piggymetrics_account" style="stroke:#181818;stroke-width:1.0;"/></g><!--link nodecom_piggymetrics_notification_service_Environment_Provider to nodecom_piggymetrics_notification--><g id="link_nodecom_piggymetrics_notification_service_Environment_Provider_nodecom_piggymetrics_notification"><path d="M4189.8773,176.5995 C4189.3429,174.9469 4188.78,173.2437 4188.188,171.4952 C4187.0041,167.9981 4185.704,164.3198 4184.2827,160.502 C4181.4402,152.8662 4178.1134,144.6725 4174.2638,136.255 C4158.865,102.585 4135.1,65.335 4100.5,45.9 C4040.03,11.93 1663.65,11.35 1603.5,45.9 C1588.12,54.735 1577.2588,68.4437 1569.6361,84.202 C1568.6833,86.1718 1567.781,88.1736 1566.9269,90.2019 C1566.7134,90.709 1566.5028,91.2178 1566.2953,91.7281 " fill="none" id="nodecom_piggymetrics_notification_service_Environment_Provider-nodecom_piggymetrics_notification" style="stroke:#181818;stroke-width:1.0;"/></g><!--link nodecom_piggymetrics_notification_service_JavaMailSender_Provider to nodecom_piggymetrics_notification--><g id="link_nodecom_piggymetrics_notification_service_JavaMailSender_Provider_nodecom_piggymetrics_notification"><path d="M4827.8793,181.876 C4827.8067,181.6837 4827.7336,181.4906 4827.66,181.2966 C4822.9506,168.8794 4816.195,152.8887 4807.2625,136.0225 C4789.3975,102.29 4762.825,65.055 4726.5,45.9 C4688.13,25.67 1641.11,24.3 1603.5,45.9 C1588.12,54.735 1577.2588,68.4437 1569.6361,84.202 C1568.6833,86.1718 1567.781,88.1736 1566.9269,90.2019 C1566.7134,90.709 1566.5028,91.2178 1566.2953,91.7281 " fill="none" id="nodecom_piggymetrics_notification_service_JavaMailSender_Provider-nodecom_piggymetrics_notification" style="stroke:#181818;stroke-width:1.0;"/></g><!--link nodecom_piggymetrics_statistics to nodecom_piggymetrics_account--><g id="link_nodecom_piggymetrics_statistics_nodecom_piggymetrics_account"><path d="M5484.8205,182.4395 C5484.6728,182.0583 5484.5231,181.6735 5484.3714,181.2853 C5479.5159,168.8619 5472.5706,152.8637 5463.4338,135.9925 C5445.16,102.25 5418.12,65.015 5381.5,45.9 C5316.15,11.79 137.43,9.18 73.5,45.9 C58.12,54.735 47.2588,68.4437 39.6361,84.202 C38.6833,86.1718 37.781,88.1736 36.9269,90.2019 C36.7134,90.709 36.5028,91.2178 36.2953,91.7281 " fill="none" id="nodecom_piggymetrics_statistics-nodecom_piggymetrics_account" style="stroke:#181818;stroke-width:1.0;"/></g><!--link noderates_client_latest_Provider to nodecom_piggymetrics_statistics--><g id="link_noderates_client_latest_Provider_nodecom_piggymetrics_statistics"><path d="M7073.8773,176.5995 C7073.3429,174.9469 7072.78,173.2437 7072.188,171.4952 C7071.0041,167.9981 7069.704,164.3198 7068.2827,160.502 C7065.4402,152.8662 7062.1134,144.6725 7058.2638,136.255 C7042.865,102.585 7019.1,65.335 6984.5,45.9 C6914.65,6.67 5611.97,6 5542.5,45.9 C5527.12,54.735 5516.2588,68.4437 5508.6361,84.202 C5507.6833,86.1718 5506.781,88.1736 5505.9269,90.2019 C5505.7134,90.709 5505.5028,91.2178 5505.2953,91.7281 " fill="none" id="noderates_client_latest_Provider-nodecom_piggymetrics_statistics" style="stroke:#181818;stroke-width:1.0;"/></g><!--SRC=[nPT1RzCm5CVl-HIME9V3JbohjY0GOrCB1uYYo7FVKckEdTbEQ8JuxjWhSHredAsDGPKgrU_PF_Uz_zzEr0Fb5PQuHFTqlw2ICFY8xu3TD20PhYhA2wHb3OboYKIKbU30zKQt351Tigk4YoqW-sM2UKMBeYr1IqfKZWaHDTVeH-BceK1IEXJB2QDcRZwlzMu3ig445ayZ6KfJzQXsZpD_sclLAWtbg_pR_jtdhqknMi5ipc_UwF9glkNVisoSjD5OKwLDvB_otcB6xZ1vYC0LN4l16CXyVXXQk97fQH8geQWMikreQpSoFKqTIjYXVbVqVLcnSra_pISWSoFB4OqVCjAJ0RyNNypUepJ2ShmkM4wK5bXELtyBcQ3u8nG5f9PKj_cru8Mmp2LeJ5ddf3WzvqBJUqgCQmKFz_wFp3IOu4wwddIdFdpwnAFwra1ePL4n9DY3Ub9qq1Xwx44xnQnA8uyemZo9- -GD_ZkgAslquq-vkojiX5vU6WXt9bZjoGxp0jPOWvhQ0y_2JN__-jYZyOxNVmpdUKpFTqkiyQsWSNpd8Pth_F96yS49w5_FLV5iSFgeuGsLWfTMNxTID7GBSlmI2Cq-V_CltFe7tE3hfuEI6-mPknzOO88_8As4Ejio-wDVtL3yV7mQUiV9q0obeyNDXXOn3pJ3AtI89BrCU9VjyMKzleHqzF5pQn9k-D0Q7YVv1G00]--></g></svg>