<?xml version="1.0" encoding="us-ascii" standalone="no"?><svg xmlns="http://www.w3.org/2000/svg" xmlns:xlink="http://www.w3.org/1999/xlink" contentStyleType="text/css" height="399px" preserveAspectRatio="none" style="width:7391px;height:399px;background:#FFFFFF;" version="1.1" viewBox="0 0 7391 399" width="7391px" zoomAndPan="magnify"><defs/><g><!--cluster nodecom_piggymetrics_account--><g id="cluster_nodecom_piggymetrics_account"><polygon fill="none" points="16,101.9,26,91.9,1506,91.9,1506,372.9,1496,382.9,16,382.9,16,101.9" style="stroke:#181818;stroke-width:1.0;"/><line style="stroke:#181818;stroke-width:1.0;" x1="1496" x2="1506" y1="101.9" y2="91.9"/><line style="stroke:#181818;stroke-width:1.0;" x1="16" x2="1496" y1="101.9" y2="101.9"/><line style="stroke:#181818;stroke-width:1.0;" x1="1496" x2="1496" y1="101.9" y2="382.9"/><text fill="#000000" font-family="sans-serif" font-size="14" font-weight="bold" lengthAdjust="spacing" textLength="252" x="631" y="117.8951">nodecom_piggymetrics_account</text></g><!--cluster com_piggymetrics_account--><g id="cluster_com_piggymetrics_account"><rect fill="none" height="203" rx="2.5" ry="2.5" style="stroke:#181818;stroke-width:1.0;" width="1418" x="56" y="147.9"/><rect fill="none" height="10" style="stroke:#181818;stroke-width:1.0;" width="15" x="1454" y="152.9"/><rect fill="none" height="2" style="stroke:#181818;stroke-width:1.0;" width="4" x="1452" y="154.9"/><rect fill="none" height="2" style="stroke:#181818;stroke-width:1.0;" width="4" x="1452" y="158.9"/><text fill="#000000" font-family="sans-serif" font-size="14" font-weight="bold" lengthAdjust="spacing" textLength="212" x="659" y="173.8951">com_piggymetrics_account</text></g><!--cluster nodecom_piggymetrics_auth--><g id="cluster_nodecom_piggymetrics_auth"><polygon fill="none" points="6379,109.9,6389,99.9,7374,99.9,7374,364.9,7364,374.9,6379,374.9,6379,109.9" style="stroke:#181818;stroke-width:1.0;"/><line style="stroke:#181818;stroke-width:1.0;" x1="7364" x2="7374" y1="109.9" y2="99.9"/><line style="stroke:#181818;stroke-width:1.0;" x1="6379" x2="7364" y1="109.9" y2="109.9"/><line style="stroke:#181818;stroke-width:1.0;" x1="7364" x2="7364" y1="109.9" y2="374.9"/><text fill="#000000" font-family="sans-serif" font-size="14" font-weight="bold" lengthAdjust="spacing" textLength="224" x="6760.5" y="125.8951">nodecom_piggymetrics_auth</text></g><!--cluster com_piggymetrics_auth--><g id="cluster_com_piggymetrics_auth"><rect fill="none" height="203" rx="2.5" ry="2.5" style="stroke:#181818;stroke-width:1.0;" width="947" x="6403" y="147.9"/><rect fill="none" height="10" style="stroke:#181818;stroke-width:1.0;" width="15" x="7330" y="152.9"/><rect fill="none" height="2" style="stroke:#181818;stroke-width:1.0;" width="4" x="7328" y="154.9"/><rect fill="none" height="2" style="stroke:#181818;stroke-width:1.0;" width="4" x="7328" y="158.9"/><text fill="#000000" font-family="sans-serif" font-size="14" font-weight="bold" lengthAdjust="spacing" textLength="184" x="6784.5" y="173.8951">com_piggymetrics_auth</text></g><!--cluster nodecom_piggymetrics_notification--><g id="cluster_nodecom_piggymetrics_notification"><polygon fill="none" points="1546,101.9,1556,91.9,3091,91.9,3091,372.9,3081,382.9,1546,382.9,1546,101.9" style="stroke:#181818;stroke-width:1.0;"/><line style="stroke:#181818;stroke-width:1.0;" x1="3081" x2="3091" y1="101.9" y2="91.9"/><line style="stroke:#181818;stroke-width:1.0;" x1="1546" x2="3081" y1="101.9" y2="101.9"/><line style="stroke:#181818;stroke-width:1.0;" x1="3081" x2="3081" y1="101.9" y2="382.9"/><text fill="#000000" font-family="sans-serif" font-size="14" font-weight="bold" lengthAdjust="spacing" textLength="277" x="2176" y="117.8951">nodecom_piggymetrics_notification</text></g><!--cluster com_piggymetrics_notification--><g id="cluster_com_piggymetrics_notification"><rect fill="none" height="203" rx="2.5" ry="2.5" style="stroke:#181818;stroke-width:1.0;" width="1473" x="1586" y="147.9"/><rect fill="none" height="10" style="stroke:#181818;stroke-width:1.0;" width="15" x="3039" y="152.9"/><rect fill="none" height="2" style="stroke:#181818;stroke-width:1.0;" width="4" x="3037" y="154.9"/><rect fill="none" height="2" style="stroke:#181818;stroke-width:1.0;" width="4" x="3037" y="158.9"/><text fill="#000000" font-family="sans-serif" font-size="14" font-weight="bold" lengthAdjust="spacing" textLength="237" x="2204" y="173.8951">com_piggymetrics_notification</text></g><!--cluster nodecom_piggymetrics_statistics--><g id="cluster_nodecom_piggymetrics_statistics"><polygon fill="none" points="4426,101.9,4436,91.9,5975,91.9,5975,372.9,5965,382.9,4426,382.9,4426,101.9" style="stroke:#181818;stroke-width:1.0;"/><line style="stroke:#181818;stroke-width:1.0;" x1="5965" x2="5975" y1="101.9" y2="91.9"/><line style="stroke:#181818;stroke-width:1.0;" x1="4426" x2="5965" y1="101.9" y2="101.9"/><line style="stroke:#181818;stroke-width:1.0;" x1="5965" x2="5965" y1="101.9" y2="382.9"/><text fill="#000000" font-family="sans-serif" font-size="14" font-weight="bold" lengthAdjust="spacing" textLength="260" x="5066.5" y="117.8951">nodecom_piggymetrics_statistics</text></g><!--cluster com_piggymetrics_statistics--><g id="cluster_com_piggymetrics_statistics"><rect fill="none" height="203" rx="2.5" ry="2.5" style="stroke:#181818;stroke-width:1.0;" width="1477" x="4466" y="147.9"/><rect fill="none" height="10" style="stroke:#181818;stroke-width:1.0;" width="15" x="5923" y="152.9"/><rect fill="none" height="2" style="stroke:#181818;stroke-width:1.0;" width="4" x="5921" y="154.9"/><rect fill="none" height="2" style="stroke:#181818;stroke-width:1.0;" width="4" x="5921" y="158.9"/><text fill="#000000" font-family="sans-serif" font-size="14" font-weight="bold" lengthAdjust="spacing" textLength="220" x="5094.5" y="173.8951">com_piggymetrics_statistics</text></g><!--cluster nodecom_piggymetrics_notification_service_Environment_Provider--><g id="cluster_nodecom_piggymetrics_notification_service_Environment_Provider"><polygon fill="none" points="3131,144.9,3141,134.9,3729,134.9,3729,242.9,3719,252.9,3131,252.9,3131,144.9" style="stroke:#181818;stroke-width:1.0;"/><line style="stroke:#181818;stroke-width:1.0;" x1="3719" x2="3729" y1="144.9" y2="134.9"/><line style="stroke:#181818;stroke-width:1.0;" x1="3131" x2="3719" y1="144.9" y2="144.9"/><line style="stroke:#181818;stroke-width:1.0;" x1="3719" x2="3719" y1="144.9" y2="252.9"/><text fill="#000000" font-family="sans-serif" font-size="14" font-weight="bold" lengthAdjust="spacing" textLength="522" x="3165" y="160.8951">nodecom_piggymetrics_notification_service_Environment_Provider</text></g><!--cluster nodecom_piggymetrics_notification_service_JavaMailSender_Provider--><g id="cluster_nodecom_piggymetrics_notification_service_JavaMailSender_Provider"><polygon fill="none" points="3769,144.9,3779,134.9,4386,134.9,4386,242.9,4376,252.9,3769,252.9,3769,144.9" style="stroke:#181818;stroke-width:1.0;"/><line style="stroke:#181818;stroke-width:1.0;" x1="4376" x2="4386" y1="144.9" y2="134.9"/><line style="stroke:#181818;stroke-width:1.0;" x1="3769" x2="4376" y1="144.9" y2="144.9"/><line style="stroke:#181818;stroke-width:1.0;" x1="4376" x2="4376" y1="144.9" y2="252.9"/><text fill="#000000" font-family="sans-serif" font-size="14" font-weight="bold" lengthAdjust="spacing" textLength="541" x="3803" y="160.8951">nodecom_piggymetrics_notification_service_JavaMailSender_Provider</text></g><!--cluster noderates_client_latest_Provider--><g id="cluster_noderates_client_latest_Provider"><polygon fill="none" points="6015,144.9,6025,134.9,6347,134.9,6347,242.9,6337,252.9,6015,252.9,6015,144.9" style="stroke:#181818;stroke-width:1.0;"/><line style="stroke:#181818;stroke-width:1.0;" x1="6337" x2="6347" y1="144.9" y2="134.9"/><line style="stroke:#181818;stroke-width:1.0;" x1="6015" x2="6337" y1="144.9" y2="144.9"/><line style="stroke:#181818;stroke-width:1.0;" x1="6337" x2="6337" y1="144.9" y2="252.9"/><text fill="#000000" font-family="sans-serif" font-size="14" font-weight="bold" lengthAdjust="spacing" textLength="256" x="6049" y="160.8951">noderates_client_latest_Provider</text></g><!--entity com_piggymetrics_account_client_AuthServiceClient--><g id="elem_com_piggymetrics_account_client_AuthServiceClient"><a href="sqshq-piggymetrics.system#_KioBcGiQEe-yi_yEDkTXnw" target="_top" title="sqshq-piggymetrics.system#_KioBcGiQEe-yi_yEDkTXnw" xlink:actuate="onRequest" xlink:href="sqshq-piggymetrics.system#_KioBcGiQEe-yi_yEDkTXnw" xlink:show="new" xlink:title="sqshq-piggymetrics.system#_KioBcGiQEe-yi_yEDkTXnw" xlink:type="simple"><rect fill="#F1F1F1" height="46.2969" rx="2.5" ry="2.5" style="stroke:#181818;stroke-width:0.5;" width="400" x="72" y="182.9"/><rect fill="#F1F1F1" height="10" style="stroke:#181818;stroke-width:0.5;" width="15" x="452" y="187.9"/><rect fill="#F1F1F1" height="2" style="stroke:#181818;stroke-width:0.5;" width="4" x="450" y="189.9"/><rect fill="#F1F1F1" height="2" style="stroke:#181818;stroke-width:0.5;" width="4" x="450" y="193.9"/><text fill="#000000" font-family="sans-serif" font-size="14" lengthAdjust="spacing" textLength="360" x="87" y="215.8951">com_piggymetrics_account_client_AuthServiceClient</text></a></g><!--entity com_piggymetrics_account_client_StatisticsServiceClient--><g id="elem_com_piggymetrics_account_client_StatisticsServiceClient"><a href="sqshq-piggymetrics.system#_KioBcGiQEe-yi_yEDkTXnw" target="_top" title="sqshq-piggymetrics.system#_KioBcGiQEe-yi_yEDkTXnw" xlink:actuate="onRequest" xlink:href="sqshq-piggymetrics.system#_KioBcGiQEe-yi_yEDkTXnw" xlink:show="new" xlink:title="sqshq-piggymetrics.system#_KioBcGiQEe-yi_yEDkTXnw" xlink:type="simple"><rect fill="#F1F1F1" height="46.2969" rx="2.5" ry="2.5" style="stroke:#181818;stroke-width:0.5;" width="430" x="507" y="182.9"/><rect fill="#F1F1F1" height="10" style="stroke:#181818;stroke-width:0.5;" width="15" x="917" y="187.9"/><rect fill="#F1F1F1" height="2" style="stroke:#181818;stroke-width:0.5;" width="4" x="915" y="189.9"/><rect fill="#F1F1F1" height="2" style="stroke:#181818;stroke-width:0.5;" width="4" x="915" y="193.9"/><text fill="#000000" font-family="sans-serif" font-size="14" lengthAdjust="spacing" textLength="390" x="522" y="215.8951">com_piggymetrics_account_client_StatisticsServiceClient</text></a></g><!--entity com_piggymetrics_account_client_StatisticsServiceClientFallback--><g id="elem_com_piggymetrics_account_client_StatisticsServiceClientFallback"><a href="sqshq-piggymetrics.system#_KioBcGiQEe-yi_yEDkTXnw" target="_top" title="sqshq-piggymetrics.system#_KioBcGiQEe-yi_yEDkTXnw" xlink:actuate="onRequest" xlink:href="sqshq-piggymetrics.system#_KioBcGiQEe-yi_yEDkTXnw" xlink:show="new" xlink:title="sqshq-piggymetrics.system#_KioBcGiQEe-yi_yEDkTXnw" xlink:type="simple"><rect fill="#F1F1F1" height="46.2969" rx="2.5" ry="2.5" style="stroke:#181818;stroke-width:0.5;" width="485" x="972.5" y="182.9"/><rect fill="#F1F1F1" height="10" style="stroke:#181818;stroke-width:0.5;" width="15" x="1437.5" y="187.9"/><rect fill="#F1F1F1" height="2" style="stroke:#181818;stroke-width:0.5;" width="4" x="1435.5" y="189.9"/><rect fill="#F1F1F1" height="2" style="stroke:#181818;stroke-width:0.5;" width="4" x="1435.5" y="193.9"/><text fill="#000000" font-family="sans-serif" font-size="14" lengthAdjust="spacing" textLength="445" x="987.5" y="215.8951">com_piggymetrics_account_client_StatisticsServiceClientFallback</text></a></g><!--entity com_piggymetrics_account_controller_AccountController--><g id="elem_com_piggymetrics_account_controller_AccountController"><a href="sqshq-piggymetrics.system#_KioBcGiQEe-yi_yEDkTXnw" target="_top" title="sqshq-piggymetrics.system#_KioBcGiQEe-yi_yEDkTXnw" xlink:actuate="onRequest" xlink:href="sqshq-piggymetrics.system#_KioBcGiQEe-yi_yEDkTXnw" xlink:show="new" xlink:title="sqshq-piggymetrics.system#_KioBcGiQEe-yi_yEDkTXnw" xlink:type="simple"><rect fill="#F1F1F1" height="46.2969" rx="2.5" ry="2.5" style="stroke:#181818;stroke-width:0.5;" width="431" x="72.5" y="288.9"/><rect fill="#F1F1F1" height="10" style="stroke:#181818;stroke-width:0.5;" width="15" x="483.5" y="293.9"/><rect fill="#F1F1F1" height="2" style="stroke:#181818;stroke-width:0.5;" width="4" x="481.5" y="295.9"/><rect fill="#F1F1F1" height="2" style="stroke:#181818;stroke-width:0.5;" width="4" x="481.5" y="299.9"/><text fill="#000000" font-family="sans-serif" font-size="14" lengthAdjust="spacing" textLength="391" x="87.5" y="321.8951">com_piggymetrics_account_controller_AccountController</text></a></g><!--entity com_piggymetrics_account_repository_AccountRepository--><g id="elem_com_piggymetrics_account_repository_AccountRepository"><a href="sqshq-piggymetrics.system#_KioBcGiQEe-yi_yEDkTXnw" target="_top" title="sqshq-piggymetrics.system#_KioBcGiQEe-yi_yEDkTXnw" xlink:actuate="onRequest" xlink:href="sqshq-piggymetrics.system#_KioBcGiQEe-yi_yEDkTXnw" xlink:show="new" xlink:title="sqshq-piggymetrics.system#_KioBcGiQEe-yi_yEDkTXnw" xlink:type="simple"><rect fill="#F1F1F1" height="46.2969" rx="2.5" ry="2.5" style="stroke:#181818;stroke-width:0.5;" width="442" x="539" y="288.9"/><rect fill="#F1F1F1" height="10" style="stroke:#181818;stroke-width:0.5;" width="15" x="961" y="293.9"/><rect fill="#F1F1F1" height="2" style="stroke:#181818;stroke-width:0.5;" width="4" x="959" y="295.9"/><rect fill="#F1F1F1" height="2" style="stroke:#181818;stroke-width:0.5;" width="4" x="959" y="299.9"/><text fill="#000000" font-family="sans-serif" font-size="14" lengthAdjust="spacing" textLength="402" x="554" y="321.8951">com_piggymetrics_account_repository_AccountRepository</text></a></g><!--entity com_piggymetrics_account_service_AccountServiceImpl--><g id="elem_com_piggymetrics_account_service_AccountServiceImpl"><a href="sqshq-piggymetrics.system#_KioBcGiQEe-yi_yEDkTXnw" target="_top" title="sqshq-piggymetrics.system#_KioBcGiQEe-yi_yEDkTXnw" xlink:actuate="onRequest" xlink:href="sqshq-piggymetrics.system#_KioBcGiQEe-yi_yEDkTXnw" xlink:show="new" xlink:title="sqshq-piggymetrics.system#_KioBcGiQEe-yi_yEDkTXnw" xlink:type="simple"><rect fill="#F1F1F1" height="46.2969" rx="2.5" ry="2.5" style="stroke:#181818;stroke-width:0.5;" width="426" x="1016" y="288.9"/><rect fill="#F1F1F1" height="10" style="stroke:#181818;stroke-width:0.5;" width="15" x="1422" y="293.9"/><rect fill="#F1F1F1" height="2" style="stroke:#181818;stroke-width:0.5;" width="4" x="1420" y="295.9"/><rect fill="#F1F1F1" height="2" style="stroke:#181818;stroke-width:0.5;" width="4" x="1420" y="299.9"/><text fill="#000000" font-family="sans-serif" font-size="14" lengthAdjust="spacing" textLength="386" x="1031" y="321.8951">com_piggymetrics_account_service_AccountServiceImpl</text></a></g><!--entity com_piggymetrics_auth_controller_UserController--><g id="elem_com_piggymetrics_auth_controller_UserController"><a href="sqshq-piggymetrics.system#_KioBcGiQEe-yi_yEDkTXnw" target="_top" title="sqshq-piggymetrics.system#_KioBcGiQEe-yi_yEDkTXnw" xlink:actuate="onRequest" xlink:href="sqshq-piggymetrics.system#_KioBcGiQEe-yi_yEDkTXnw" xlink:show="new" xlink:title="sqshq-piggymetrics.system#_KioBcGiQEe-yi_yEDkTXnw" xlink:type="simple"><rect fill="#F1F1F1" height="46.2969" rx="2.5" ry="2.5" style="stroke:#181818;stroke-width:0.5;" width="381" x="6418.5" y="182.9"/><rect fill="#F1F1F1" height="10" style="stroke:#181818;stroke-width:0.5;" width="15" x="6779.5" y="187.9"/><rect fill="#F1F1F1" height="2" style="stroke:#181818;stroke-width:0.5;" width="4" x="6777.5" y="189.9"/><rect fill="#F1F1F1" height="2" style="stroke:#181818;stroke-width:0.5;" width="4" x="6777.5" y="193.9"/><text fill="#000000" font-family="sans-serif" font-size="14" lengthAdjust="spacing" textLength="341" x="6433.5" y="215.8951">com_piggymetrics_auth_controller_UserController</text></a></g><!--entity com_piggymetrics_auth_repository_UserRepository--><g id="elem_com_piggymetrics_auth_repository_UserRepository"><a href="sqshq-piggymetrics.system#_KioBcGiQEe-yi_yEDkTXnw" target="_top" title="sqshq-piggymetrics.system#_KioBcGiQEe-yi_yEDkTXnw" xlink:actuate="onRequest" xlink:href="sqshq-piggymetrics.system#_KioBcGiQEe-yi_yEDkTXnw" xlink:show="new" xlink:title="sqshq-piggymetrics.system#_KioBcGiQEe-yi_yEDkTXnw" xlink:type="simple"><rect fill="#F1F1F1" height="46.2969" rx="2.5" ry="2.5" style="stroke:#181818;stroke-width:0.5;" width="392" x="6834" y="182.9"/><rect fill="#F1F1F1" height="10" style="stroke:#181818;stroke-width:0.5;" width="15" x="7206" y="187.9"/><rect fill="#F1F1F1" height="2" style="stroke:#181818;stroke-width:0.5;" width="4" x="7204" y="189.9"/><rect fill="#F1F1F1" height="2" style="stroke:#181818;stroke-width:0.5;" width="4" x="7204" y="193.9"/><text fill="#000000" font-family="sans-serif" font-size="14" lengthAdjust="spacing" textLength="352" x="6849" y="215.8951">com_piggymetrics_auth_repository_UserRepository</text></a></g><!--entity com_piggymetrics_auth_service_UserServiceImpl--><g id="elem_com_piggymetrics_auth_service_UserServiceImpl"><a href="sqshq-piggymetrics.system#_KioBcGiQEe-yi_yEDkTXnw" target="_top" title="sqshq-piggymetrics.system#_KioBcGiQEe-yi_yEDkTXnw" xlink:actuate="onRequest" xlink:href="sqshq-piggymetrics.system#_KioBcGiQEe-yi_yEDkTXnw" xlink:show="new" xlink:title="sqshq-piggymetrics.system#_KioBcGiQEe-yi_yEDkTXnw" xlink:type="simple"><rect fill="#F1F1F1" height="46.2969" rx="2.5" ry="2.5" style="stroke:#181818;stroke-width:0.5;" width="376" x="6419" y="288.9"/><rect fill="#F1F1F1" height="10" style="stroke:#181818;stroke-width:0.5;" width="15" x="6775" y="293.9"/><rect fill="#F1F1F1" height="2" style="stroke:#181818;stroke-width:0.5;" width="4" x="6773" y="295.9"/><rect fill="#F1F1F1" height="2" style="stroke:#181818;stroke-width:0.5;" width="4" x="6773" y="299.9"/><text fill="#000000" font-family="sans-serif" font-size="14" lengthAdjust="spacing" textLength="336" x="6434" y="321.8951">com_piggymetrics_auth_service_UserServiceImpl</text></a></g><!--entity com_piggymetrics_auth_service_security_MongoUserDetailsService--><g id="elem_com_piggymetrics_auth_service_security_MongoUserDetailsService"><a href="sqshq-piggymetrics.system#_KioBcGiQEe-yi_yEDkTXnw" target="_top" title="sqshq-piggymetrics.system#_KioBcGiQEe-yi_yEDkTXnw" xlink:actuate="onRequest" xlink:href="sqshq-piggymetrics.system#_KioBcGiQEe-yi_yEDkTXnw" xlink:show="new" xlink:title="sqshq-piggymetrics.system#_KioBcGiQEe-yi_yEDkTXnw" xlink:type="simple"><rect fill="#F1F1F1" height="46.2969" rx="2.5" ry="2.5" style="stroke:#181818;stroke-width:0.5;" width="504" x="6830" y="288.9"/><rect fill="#F1F1F1" height="10" style="stroke:#181818;stroke-width:0.5;" width="15" x="7314" y="293.9"/><rect fill="#F1F1F1" height="2" style="stroke:#181818;stroke-width:0.5;" width="4" x="7312" y="295.9"/><rect fill="#F1F1F1" height="2" style="stroke:#181818;stroke-width:0.5;" width="4" x="7312" y="299.9"/><text fill="#000000" font-family="sans-serif" font-size="14" lengthAdjust="spacing" textLength="464" x="6845" y="321.8951">com_piggymetrics_auth_service_security_MongoUserDetailsService</text></a></g><!--entity com_piggymetrics_notification_client_AccountServiceClient--><g id="elem_com_piggymetrics_notification_client_AccountServiceClient"><a href="sqshq-piggymetrics.system#_KioBcGiQEe-yi_yEDkTXnw" target="_top" title="sqshq-piggymetrics.system#_KioBcGiQEe-yi_yEDkTXnw" xlink:actuate="onRequest" xlink:href="sqshq-piggymetrics.system#_KioBcGiQEe-yi_yEDkTXnw" xlink:show="new" xlink:title="sqshq-piggymetrics.system#_KioBcGiQEe-yi_yEDkTXnw" xlink:type="simple"><rect fill="#F1F1F1" height="46.2969" rx="2.5" ry="2.5" style="stroke:#181818;stroke-width:0.5;" width="444" x="1602" y="182.9"/><rect fill="#F1F1F1" height="10" style="stroke:#181818;stroke-width:0.5;" width="15" x="2026" y="187.9"/><rect fill="#F1F1F1" height="2" style="stroke:#181818;stroke-width:0.5;" width="4" x="2024" y="189.9"/><rect fill="#F1F1F1" height="2" style="stroke:#181818;stroke-width:0.5;" width="4" x="2024" y="193.9"/><text fill="#000000" font-family="sans-serif" font-size="14" lengthAdjust="spacing" textLength="404" x="1617" y="215.8951">com_piggymetrics_notification_client_AccountServiceClient</text></a></g><!--entity com_piggymetrics_notification_controller_RecipientController--><g id="elem_com_piggymetrics_notification_controller_RecipientController"><a href="sqshq-piggymetrics.system#_KioBcGiQEe-yi_yEDkTXnw" target="_top" title="sqshq-piggymetrics.system#_KioBcGiQEe-yi_yEDkTXnw" xlink:actuate="onRequest" xlink:href="sqshq-piggymetrics.system#_KioBcGiQEe-yi_yEDkTXnw" xlink:show="new" xlink:title="sqshq-piggymetrics.system#_KioBcGiQEe-yi_yEDkTXnw" xlink:type="simple"><rect fill="#F1F1F1" height="46.2969" rx="2.5" ry="2.5" style="stroke:#181818;stroke-width:0.5;" width="458" x="2081" y="182.9"/><rect fill="#F1F1F1" height="10" style="stroke:#181818;stroke-width:0.5;" width="15" x="2519" y="187.9"/><rect fill="#F1F1F1" height="2" style="stroke:#181818;stroke-width:0.5;" width="4" x="2517" y="189.9"/><rect fill="#F1F1F1" height="2" style="stroke:#181818;stroke-width:0.5;" width="4" x="2517" y="193.9"/><text fill="#000000" font-family="sans-serif" font-size="14" lengthAdjust="spacing" textLength="418" x="2096" y="215.8951">com_piggymetrics_notification_controller_RecipientController</text></a></g><!--entity com_piggymetrics_notification_repository_RecipientRepository--><g id="elem_com_piggymetrics_notification_repository_RecipientRepository"><a href="sqshq-piggymetrics.system#_KioBcGiQEe-yi_yEDkTXnw" target="_top" title="sqshq-piggymetrics.system#_KioBcGiQEe-yi_yEDkTXnw" xlink:actuate="onRequest" xlink:href="sqshq-piggymetrics.system#_KioBcGiQEe-yi_yEDkTXnw" xlink:show="new" xlink:title="sqshq-piggymetrics.system#_KioBcGiQEe-yi_yEDkTXnw" xlink:type="simple"><rect fill="#F1F1F1" height="46.2969" rx="2.5" ry="2.5" style="stroke:#181818;stroke-width:0.5;" width="469" x="2574.5" y="182.9"/><rect fill="#F1F1F1" height="10" style="stroke:#181818;stroke-width:0.5;" width="15" x="3023.5" y="187.9"/><rect fill="#F1F1F1" height="2" style="stroke:#181818;stroke-width:0.5;" width="4" x="3021.5" y="189.9"/><rect fill="#F1F1F1" height="2" style="stroke:#181818;stroke-width:0.5;" width="4" x="3021.5" y="193.9"/><text fill="#000000" font-family="sans-serif" font-size="14" lengthAdjust="spacing" textLength="429" x="2589.5" y="215.8951">com_piggymetrics_notification_repository_RecipientRepository</text></a></g><!--entity com_piggymetrics_notification_service_EmailServiceImpl--><g id="elem_com_piggymetrics_notification_service_EmailServiceImpl"><a href="sqshq-piggymetrics.system#_KioBcGiQEe-yi_yEDkTXnw" target="_top" title="sqshq-piggymetrics.system#_KioBcGiQEe-yi_yEDkTXnw" xlink:actuate="onRequest" xlink:href="sqshq-piggymetrics.system#_KioBcGiQEe-yi_yEDkTXnw" xlink:show="new" xlink:title="sqshq-piggymetrics.system#_KioBcGiQEe-yi_yEDkTXnw" xlink:type="simple"><rect fill="#F1F1F1" height="46.2969" rx="2.5" ry="2.5" style="stroke:#181818;stroke-width:0.5;" width="424" x="1612" y="288.9"/><rect fill="#F1F1F1" height="10" style="stroke:#181818;stroke-width:0.5;" width="15" x="2016" y="293.9"/><rect fill="#F1F1F1" height="2" style="stroke:#181818;stroke-width:0.5;" width="4" x="2014" y="295.9"/><rect fill="#F1F1F1" height="2" style="stroke:#181818;stroke-width:0.5;" width="4" x="2014" y="299.9"/><text fill="#000000" font-family="sans-serif" font-size="14" lengthAdjust="spacing" textLength="384" x="1627" y="321.8951">com_piggymetrics_notification_service_EmailServiceImpl</text></a></g><!--entity com_piggymetrics_notification_service_NotificationServiceImpl--><g id="elem_com_piggymetrics_notification_service_NotificationServiceImpl"><a href="sqshq-piggymetrics.system#_KioBcGiQEe-yi_yEDkTXnw" target="_top" title="sqshq-piggymetrics.system#_KioBcGiQEe-yi_yEDkTXnw" xlink:actuate="onRequest" xlink:href="sqshq-piggymetrics.system#_KioBcGiQEe-yi_yEDkTXnw" xlink:show="new" xlink:title="sqshq-piggymetrics.system#_KioBcGiQEe-yi_yEDkTXnw" xlink:type="simple"><rect fill="#F1F1F1" height="46.2969" rx="2.5" ry="2.5" style="stroke:#181818;stroke-width:0.5;" width="464" x="2071" y="288.9"/><rect fill="#F1F1F1" height="10" style="stroke:#181818;stroke-width:0.5;" width="15" x="2515" y="293.9"/><rect fill="#F1F1F1" height="2" style="stroke:#181818;stroke-width:0.5;" width="4" x="2513" y="295.9"/><rect fill="#F1F1F1" height="2" style="stroke:#181818;stroke-width:0.5;" width="4" x="2513" y="299.9"/><text fill="#000000" font-family="sans-serif" font-size="14" lengthAdjust="spacing" textLength="424" x="2086" y="321.8951">com_piggymetrics_notification_service_NotificationServiceImpl</text></a></g><!--entity com_piggymetrics_notification_service_RecipientServiceImpl--><g id="elem_com_piggymetrics_notification_service_RecipientServiceImpl"><a href="sqshq-piggymetrics.system#_KioBcGiQEe-yi_yEDkTXnw" target="_top" title="sqshq-piggymetrics.system#_KioBcGiQEe-yi_yEDkTXnw" xlink:actuate="onRequest" xlink:href="sqshq-piggymetrics.system#_KioBcGiQEe-yi_yEDkTXnw" xlink:show="new" xlink:title="sqshq-piggymetrics.system#_KioBcGiQEe-yi_yEDkTXnw" xlink:type="simple"><rect fill="#F1F1F1" height="46.2969" rx="2.5" ry="2.5" style="stroke:#181818;stroke-width:0.5;" width="453" x="2570.5" y="288.9"/><rect fill="#F1F1F1" height="10" style="stroke:#181818;stroke-width:0.5;" width="15" x="3003.5" y="293.9"/><rect fill="#F1F1F1" height="2" style="stroke:#181818;stroke-width:0.5;" width="4" x="3001.5" y="295.9"/><rect fill="#F1F1F1" height="2" style="stroke:#181818;stroke-width:0.5;" width="4" x="3001.5" y="299.9"/><text fill="#000000" font-family="sans-serif" font-size="14" lengthAdjust="spacing" textLength="413" x="2585.5" y="321.8951">com_piggymetrics_notification_service_RecipientServiceImpl</text></a></g><!--entity com_piggymetrics_statistics_client_ExchangeRatesClient--><g id="elem_com_piggymetrics_statistics_client_ExchangeRatesClient"><a href="sqshq-piggymetrics.system#_KioBcGiQEe-yi_yEDkTXnw" target="_top" title="sqshq-piggymetrics.system#_KioBcGiQEe-yi_yEDkTXnw" xlink:actuate="onRequest" xlink:href="sqshq-piggymetrics.system#_KioBcGiQEe-yi_yEDkTXnw" xlink:show="new" xlink:title="sqshq-piggymetrics.system#_KioBcGiQEe-yi_yEDkTXnw" xlink:type="simple"><rect fill="#F1F1F1" height="46.2969" rx="2.5" ry="2.5" style="stroke:#181818;stroke-width:0.5;" width="431" x="4494.5" y="182.9"/><rect fill="#F1F1F1" height="10" style="stroke:#181818;stroke-width:0.5;" width="15" x="4905.5" y="187.9"/><rect fill="#F1F1F1" height="2" style="stroke:#181818;stroke-width:0.5;" width="4" x="4903.5" y="189.9"/><rect fill="#F1F1F1" height="2" style="stroke:#181818;stroke-width:0.5;" width="4" x="4903.5" y="193.9"/><text fill="#000000" font-family="sans-serif" font-size="14" lengthAdjust="spacing" textLength="391" x="4509.5" y="215.8951">com_piggymetrics_statistics_client_ExchangeRatesClient</text></a></g><!--entity com_piggymetrics_statistics_client_ExchangeRatesClientFallback--><g id="elem_com_piggymetrics_statistics_client_ExchangeRatesClientFallback"><a href="sqshq-piggymetrics.system#_KioBcGiQEe-yi_yEDkTXnw" target="_top" title="sqshq-piggymetrics.system#_KioBcGiQEe-yi_yEDkTXnw" xlink:actuate="onRequest" xlink:href="sqshq-piggymetrics.system#_KioBcGiQEe-yi_yEDkTXnw" xlink:show="new" xlink:title="sqshq-piggymetrics.system#_KioBcGiQEe-yi_yEDkTXnw" xlink:type="simple"><rect fill="#F1F1F1" height="46.2969" rx="2.5" ry="2.5" style="stroke:#181818;stroke-width:0.5;" width="486" x="4961" y="182.9"/><rect fill="#F1F1F1" height="10" style="stroke:#181818;stroke-width:0.5;" width="15" x="5427" y="187.9"/><rect fill="#F1F1F1" height="2" style="stroke:#181818;stroke-width:0.5;" width="4" x="5425" y="189.9"/><rect fill="#F1F1F1" height="2" style="stroke:#181818;stroke-width:0.5;" width="4" x="5425" y="193.9"/><text fill="#000000" font-family="sans-serif" font-size="14" lengthAdjust="spacing" textLength="446" x="4976" y="215.8951">com_piggymetrics_statistics_client_ExchangeRatesClientFallback</text></a></g><!--entity com_piggymetrics_statistics_controller_StatisticsController--><g id="elem_com_piggymetrics_statistics_controller_StatisticsController"><a href="sqshq-piggymetrics.system#_KioBcGiQEe-yi_yEDkTXnw" target="_top" title="sqshq-piggymetrics.system#_KioBcGiQEe-yi_yEDkTXnw" xlink:actuate="onRequest" xlink:href="sqshq-piggymetrics.system#_KioBcGiQEe-yi_yEDkTXnw" xlink:show="new" xlink:title="sqshq-piggymetrics.system#_KioBcGiQEe-yi_yEDkTXnw" xlink:type="simple"><rect fill="#F1F1F1" height="46.2969" rx="2.5" ry="2.5" style="stroke:#181818;stroke-width:0.5;" width="441" x="5482.5" y="182.9"/><rect fill="#F1F1F1" height="10" style="stroke:#181818;stroke-width:0.5;" width="15" x="5903.5" y="187.9"/><rect fill="#F1F1F1" height="2" style="stroke:#181818;stroke-width:0.5;" width="4" x="5901.5" y="189.9"/><rect fill="#F1F1F1" height="2" style="stroke:#181818;stroke-width:0.5;" width="4" x="5901.5" y="193.9"/><text fill="#000000" font-family="sans-serif" font-size="14" lengthAdjust="spacing" textLength="401" x="5497.5" y="215.8951">com_piggymetrics_statistics_controller_StatisticsController</text></a></g><!--entity com_piggymetrics_statistics_repository_DataPointRepository--><g id="elem_com_piggymetrics_statistics_repository_DataPointRepository"><a href="sqshq-piggymetrics.system#_KioBcGiQEe-yi_yEDkTXnw" target="_top" title="sqshq-piggymetrics.system#_KioBcGiQEe-yi_yEDkTXnw" xlink:actuate="onRequest" xlink:href="sqshq-piggymetrics.system#_KioBcGiQEe-yi_yEDkTXnw" xlink:show="new" xlink:title="sqshq-piggymetrics.system#_KioBcGiQEe-yi_yEDkTXnw" xlink:type="simple"><rect fill="#F1F1F1" height="46.2969" rx="2.5" ry="2.5" style="stroke:#181818;stroke-width:0.5;" width="457" x="4481.5" y="288.9"/><rect fill="#F1F1F1" height="10" style="stroke:#181818;stroke-width:0.5;" width="15" x="4918.5" y="293.9"/><rect fill="#F1F1F1" height="2" style="stroke:#181818;stroke-width:0.5;" width="4" x="4916.5" y="295.9"/><rect fill="#F1F1F1" height="2" style="stroke:#181818;stroke-width:0.5;" width="4" x="4916.5" y="299.9"/><text fill="#000000" font-family="sans-serif" font-size="14" lengthAdjust="spacing" textLength="417" x="4496.5" y="321.8951">com_piggymetrics_statistics_repository_DataPointRepository</text></a></g><!--entity com_piggymetrics_statistics_service_ExchangeRatesServiceImpl--><g id="elem_com_piggymetrics_statistics_service_ExchangeRatesServiceImpl"><a href="sqshq-piggymetrics.system#_KioBcGiQEe-yi_yEDkTXnw" target="_top" title="sqshq-piggymetrics.system#_KioBcGiQEe-yi_yEDkTXnw" xlink:actuate="onRequest" xlink:href="sqshq-piggymetrics.system#_KioBcGiQEe-yi_yEDkTXnw" xlink:show="new" xlink:title="sqshq-piggymetrics.system#_KioBcGiQEe-yi_yEDkTXnw" xlink:type="simple"><rect fill="#F1F1F1" height="46.2969" rx="2.5" ry="2.5" style="stroke:#181818;stroke-width:0.5;" width="482" x="4974" y="288.9"/><rect fill="#F1F1F1" height="10" style="stroke:#181818;stroke-width:0.5;" width="15" x="5436" y="293.9"/><rect fill="#F1F1F1" height="2" style="stroke:#181818;stroke-width:0.5;" width="4" x="5434" y="295.9"/><rect fill="#F1F1F1" height="2" style="stroke:#181818;stroke-width:0.5;" width="4" x="5434" y="299.9"/><text fill="#000000" font-family="sans-serif" font-size="14" lengthAdjust="spacing" textLength="442" x="4989" y="321.8951">com_piggymetrics_statistics_service_ExchangeRatesServiceImpl</text></a></g><!--entity com_piggymetrics_statistics_service_StatisticsServiceImpl--><g id="elem_com_piggymetrics_statistics_service_StatisticsServiceImpl"><a href="sqshq-piggymetrics.system#_KioBcGiQEe-yi_yEDkTXnw" target="_top" title="sqshq-piggymetrics.system#_KioBcGiQEe-yi_yEDkTXnw" xlink:actuate="onRequest" xlink:href="sqshq-piggymetrics.system#_KioBcGiQEe-yi_yEDkTXnw" xlink:show="new" xlink:title="sqshq-piggymetrics.system#_KioBcGiQEe-yi_yEDkTXnw" xlink:type="simple"><rect fill="#F1F1F1" height="46.2969" rx="2.5" ry="2.5" style="stroke:#181818;stroke-width:0.5;" width="436" x="5491" y="288.9"/><rect fill="#F1F1F1" height="10" style="stroke:#181818;stroke-width:0.5;" width="15" x="5907" y="293.9"/><rect fill="#F1F1F1" height="2" style="stroke:#181818;stroke-width:0.5;" width="4" x="5905" y="295.9"/><rect fill="#F1F1F1" height="2" style="stroke:#181818;stroke-width:0.5;" width="4" x="5905" y="299.9"/><text fill="#000000" font-family="sans-serif" font-size="14" lengthAdjust="spacing" textLength="396" x="5506" y="321.8951">com_piggymetrics_statistics_service_StatisticsServiceImpl</text></a></g><!--entity com_piggymetrics_notification_service_Environment_Provider--><g id="elem_com_piggymetrics_notification_service_Environment_Provider"><a href="sqshq-piggymetrics.system#_KioBcGiQEe-yi_yEDkTXnw" target="_top" title="sqshq-piggymetrics.system#_KioBcGiQEe-yi_yEDkTXnw" xlink:actuate="onRequest" xlink:href="sqshq-piggymetrics.system#_KioBcGiQEe-yi_yEDkTXnw" xlink:show="new" xlink:title="sqshq-piggymetrics.system#_KioBcGiQEe-yi_yEDkTXnw" xlink:type="simple"><rect fill="#F1F1F1" height="46.2969" rx="2.5" ry="2.5" style="stroke:#181818;stroke-width:0.5;" width="460" x="3209" y="182.9"/><rect fill="#F1F1F1" height="10" style="stroke:#181818;stroke-width:0.5;" width="15" x="3649" y="187.9"/><rect fill="#F1F1F1" height="2" style="stroke:#181818;stroke-width:0.5;" width="4" x="3647" y="189.9"/><rect fill="#F1F1F1" height="2" style="stroke:#181818;stroke-width:0.5;" width="4" x="3647" y="193.9"/><text fill="#000000" font-family="sans-serif" font-size="14" lengthAdjust="spacing" textLength="420" x="3224" y="215.8951">com_piggymetrics_notification_service_Environment_Provider</text></a></g><!--entity com_piggymetrics_notification_service_JavaMailSender_Provider--><g id="elem_com_piggymetrics_notification_service_JavaMailSender_Provider"><a href="sqshq-piggymetrics.system#_KioBcGiQEe-yi_yEDkTXnw" target="_top" title="sqshq-piggymetrics.system#_KioBcGiQEe-yi_yEDkTXnw" xlink:actuate="onRequest" xlink:href="sqshq-piggymetrics.system#_KioBcGiQEe-yi_yEDkTXnw" xlink:show="new" xlink:title="sqshq-piggymetrics.system#_KioBcGiQEe-yi_yEDkTXnw" xlink:type="simple"><rect fill="#F1F1F1" height="46.2969" rx="2.5" ry="2.5" style="stroke:#181818;stroke-width:0.5;" width="475" x="3849.5" y="182.9"/><rect fill="#F1F1F1" height="10" style="stroke:#181818;stroke-width:0.5;" width="15" x="4304.5" y="187.9"/><rect fill="#F1F1F1" height="2" style="stroke:#181818;stroke-width:0.5;" width="4" x="4302.5" y="189.9"/><rect fill="#F1F1F1" height="2" style="stroke:#181818;stroke-width:0.5;" width="4" x="4302.5" y="193.9"/><text fill="#000000" font-family="sans-serif" font-size="14" lengthAdjust="spacing" textLength="435" x="3864.5" y="215.8951">com_piggymetrics_notification_service_JavaMailSender_Provider</text></a></g><!--entity rates_client_latest_Provider--><g id="elem_rates_client_latest_Provider"><a href="sqshq-piggymetrics.system#_KioBcGiQEe-yi_yEDkTXnw" target="_top" title="sqshq-piggymetrics.system#_KioBcGiQEe-yi_yEDkTXnw" xlink:actuate="onRequest" xlink:href="sqshq-piggymetrics.system#_KioBcGiQEe-yi_yEDkTXnw" xlink:show="new" xlink:title="sqshq-piggymetrics.system#_KioBcGiQEe-yi_yEDkTXnw" xlink:type="simple"><rect fill="#F1F1F1" height="46.2969" rx="2.5" ry="2.5" style="stroke:#181818;stroke-width:0.5;" width="227" x="6076.5" y="182.9"/><rect fill="#F1F1F1" height="10" style="stroke:#181818;stroke-width:0.5;" width="15" x="6283.5" y="187.9"/><rect fill="#F1F1F1" height="2" style="stroke:#181818;stroke-width:0.5;" width="4" x="6281.5" y="189.9"/><rect fill="#F1F1F1" height="2" style="stroke:#181818;stroke-width:0.5;" width="4" x="6281.5" y="193.9"/><text fill="#000000" font-family="sans-serif" font-size="14" lengthAdjust="spacing" textLength="187" x="6091.5" y="215.8951">rates_client_latest_Provider</text></a></g><!--link nodecom_piggymetrics_account to nodecom_piggymetrics_notification--><g id="link_nodecom_piggymetrics_account_nodecom_piggymetrics_notification"><path d="M36.2953,91.7281 C36.5028,91.2178 36.7134,90.709 36.9269,90.2019 C37.781,88.1736 38.6833,86.1718 39.6361,84.202 C47.2588,68.4437 58.12,54.735 73.5,45.9 C140.13,7.63 1389.51,8.27 1456.5,45.9 C1491.1,65.335 1514.865,102.585 1530.2638,136.255 C1534.1134,144.6725 1537.4402,152.8662 1540.2827,160.502 C1541.704,164.3198 1543.0041,167.9981 1544.188,171.4952 C1544.78,173.2437 1545.3429,174.9469 1545.8773,176.5995 " fill="none" id="nodecom_piggymetrics_account-nodecom_piggymetrics_notification" style="stroke:#181818;stroke-width:1.0;"/></g><!--link nodecom_piggymetrics_notification_service_Environment_Provider to nodecom_piggymetrics_notification--><g id="link_nodecom_piggymetrics_notification_service_Environment_Provider_nodecom_piggymetrics_notification"><path d="M3130.8773,176.5995 C3130.3429,174.9469 3129.78,173.2437 3129.188,171.4952 C3128.0041,167.9981 3126.704,164.3198 3125.2827,160.502 C3122.4402,152.8662 3119.1134,144.6725 3115.2638,136.255 C3099.865,102.585 3076.1,65.335 3041.5,45.9 C2971.85,6.78 1672.78,6.11 1603.5,45.9 C1588.12,54.735 1577.2588,68.4437 1569.6361,84.202 C1568.6833,86.1718 1567.781,88.1736 1566.9269,90.2019 C1566.7134,90.709 1566.5028,91.2178 1566.2953,91.7281 " fill="none" id="nodecom_piggymetrics_notification_service_Environment_Provider-nodecom_piggymetrics_notification" style="stroke:#181818;stroke-width:1.0;"/></g><!--link nodecom_piggymetrics_notification_service_JavaMailSender_Provider to nodecom_piggymetrics_notification--><g id="link_nodecom_piggymetrics_notification_service_JavaMailSender_Provider_nodecom_piggymetrics_notification"><path d="M3768.8793,181.876 C3768.8067,181.6837 3768.7336,181.4906 3768.66,181.2966 C3763.9506,168.8794 3757.195,152.8887 3748.2625,136.0225 C3730.3975,102.29 3703.825,65.055 3667.5,45.9 C3616.79,19.15 1653.22,17.34 1603.5,45.9 C1588.12,54.735 1577.2588,68.4437 1569.6361,84.202 C1568.6833,86.1718 1567.781,88.1736 1566.9269,90.2019 C1566.7134,90.709 1566.5028,91.2178 1566.2953,91.7281 " fill="none" id="nodecom_piggymetrics_notification_service_JavaMailSender_Provider-nodecom_piggymetrics_notification" style="stroke:#181818;stroke-width:1.0;"/></g><!--link nodecom_piggymetrics_statistics to nodecom_piggymetrics_account--><g id="link_nodecom_piggymetrics_statistics_nodecom_piggymetrics_account"><path d="M4425.8205,182.4395 C4425.6728,182.0583 4425.5231,181.6735 4425.3714,181.2853 C4420.5159,168.8619 4413.5706,152.8637 4404.4338,135.9925 C4386.16,102.25 4359.12,65.015 4322.5,45.9 C4270.18,18.59 124.67,16.51 73.5,45.9 C58.12,54.735 47.2588,68.4437 39.6361,84.202 C38.6833,86.1718 37.781,88.1736 36.9269,90.2019 C36.7134,90.709 36.5028,91.2178 36.2953,91.7281 " fill="none" id="nodecom_piggymetrics_statistics-nodecom_piggymetrics_account" style="stroke:#181818;stroke-width:1.0;"/></g><!--link noderates_client_latest_Provider to nodecom_piggymetrics_statistics--><g id="link_noderates_client_latest_Provider_nodecom_piggymetrics_statistics"><path d="M6014.8773,176.5995 C6014.3429,174.9469 6013.78,173.2437 6013.188,171.4952 C6012.0041,167.9981 6010.704,164.3198 6009.2827,160.502 C6006.4402,152.8662 6003.1134,144.6725 5999.2638,136.255 C5983.865,102.585 5960.1,65.335 5925.5,45.9 C5855.65,6.67 4552.97,6 4483.5,45.9 C4468.12,54.735 4457.2588,68.4437 4449.6361,84.202 C4448.6833,86.1718 4447.781,88.1736 4446.9269,90.2019 C4446.7134,90.709 4446.5028,91.2178 4446.2953,91.7281 " fill="none" id="noderates_client_latest_Provider-nodecom_piggymetrics_statistics" style="stroke:#181818;stroke-width:1.0;"/></g><!--SRC=[nPVHRjCm58RlynIHk2uNlC5e2u8n62r8I54KUTvPUbJ7pcmdB4AyE_PAN0SQ1xeOL2bIVOxzEUVylzsgFVAQI5AbT_YmH4aPl2Ctm3wq81cfQ-HbgcK3YNA9L5IruC3rLdSCqgPYBn8kRY6r3nCiQYpBhW8jaQg2K2eQhjDlYPkN1fAoiLX16PgvnKMZTrkGBL9OFexaQPQfUxMxN_ZJdgjEQQYU5PSeNjBN-74DYmwBRhtQV_h2l-RvD6chYKQbJUI_ybuHncu8tKVW2gwbO0naSN4OMhgH-MaIQg5G2zdrj8qRcP-c3YNiKJyh-gQgsRcix-OJaBcHvOJ63ndPoO3VYyzcxr4QOJbU5omdIWiifw-_XSnG_0cA0jf8r5rn9NWfB7C5cY3hdHIdvrnel4DgN2jukFU_P6R117VI3QGxz-4p91xLjm6AjKN5aE00wadHGMFeSG3j5REkZ3oY2FCaxhqt-E-ehgpHZp_bxgwm4GPvMI3Scs3zG7U4bx0X6jJS7lWZtFpthuyz6kzu_STmdiVqVBSYcbmBZECx3-bSvvStYWzEG7_xNHNF1gUF6jwY5Boo-hgMeiLRaDENG6Zs-Pl_ows_9IsvUZmekS6UiVkH1MPu0MabrDkMsI_3weRYv-Epq7-SF5sasMHnyoHxcdOYO4RRz1JIqOhZw_ILEomHxjdO6Xud-G40]--></g></svg>