<?xml version="1.0" encoding="us-ascii" standalone="no"?><svg xmlns="http://www.w3.org/2000/svg" xmlns:xlink="http://www.w3.org/1999/xlink" contentStyleType="text/css" height="125px" preserveAspectRatio="none" style="width:2716px;height:125px;background:#FFFFFF;" version="1.1" viewBox="0 0 2716 125" width="2716px" zoomAndPan="magnify"><defs/><g><!--cluster Placeholder_8--><g id="cluster_Placeholder_8"><polygon fill="none" points="1604,16,1614,6,2699,6,2699,98,2689,108,1604,108,1604,16" style="stroke:#181818;stroke-width:1.0;"/><line style="stroke:#181818;stroke-width:1.0;" x1="2689" x2="2699" y1="16" y2="6"/><line style="stroke:#181818;stroke-width:1.0;" x1="1604" x2="2689" y1="16" y2="16"/><line style="stroke:#181818;stroke-width:1.0;" x1="2689" x2="2689" y1="16" y2="108"/><text fill="#000000" font-family="sans-serif" font-size="14" font-weight="bold" lengthAdjust="spacing" textLength="110" x="2092.5" y="31.9951">Placeholder_8</text></g><!--entity aName--><g id="elem_aName"><a href="fernandoabcampos-spring-netflix-oss-microservices.system#_qOk1CbtpEe66e86fHCV45A" target="_top" title="fernandoabcampos-spring-netflix-oss-microservices.system#_qOk1CbtpEe66e86fHCV45A" xlink:actuate="onRequest" xlink:href="fernandoabcampos-spring-netflix-oss-microservices.system#_qOk1CbtpEe66e86fHCV45A" xlink:show="new" xlink:title="fernandoabcampos-spring-netflix-oss-microservices.system#_qOk1CbtpEe66e86fHCV45A" xlink:type="simple"><rect fill="#F1F1F1" height="46.2969" rx="2.5" ry="2.5" style="stroke:#181818;stroke-width:0.5;" width="88" x="1620" y="46"/><rect fill="#F1F1F1" height="10" style="stroke:#181818;stroke-width:0.5;" width="15" x="1688" y="51"/><rect fill="#F1F1F1" height="2" style="stroke:#181818;stroke-width:0.5;" width="4" x="1686" y="53"/><rect fill="#F1F1F1" height="2" style="stroke:#181818;stroke-width:0.5;" width="4" x="1686" y="57"/><text fill="#000000" font-family="sans-serif" font-size="14" lengthAdjust="spacing" textLength="48" x="1635" y="78.9951">aName</text></a></g><!--entity Placeholder_12--><g id="elem_Placeholder_12"><polygon fill="#F1F1F1" points="16,56,26,46,162,46,162,82.2969,152,92.2969,16,92.2969,16,56" style="stroke:#181818;stroke-width:0.5;"/><line style="stroke:#181818;stroke-width:0.5;" x1="152" x2="162" y1="56" y2="46"/><line style="stroke:#181818;stroke-width:0.5;" x1="16" x2="152" y1="56" y2="56"/><line style="stroke:#181818;stroke-width:0.5;" x1="152" x2="152" y1="56" y2="92.2969"/><text fill="#000000" font-family="sans-serif" font-size="14" lengthAdjust="spacing" textLength="106" x="31" y="78.9951">Placeholder_12</text></g><!--entity Placeholder_14--><g id="elem_Placeholder_14"><polygon fill="#F1F1F1" points="197,56,207,46,343,46,343,82.2969,333,92.2969,197,92.2969,197,56" style="stroke:#181818;stroke-width:0.5;"/><line style="stroke:#181818;stroke-width:0.5;" x1="333" x2="343" y1="56" y2="46"/><line style="stroke:#181818;stroke-width:0.5;" x1="197" x2="333" y1="56" y2="56"/><line style="stroke:#181818;stroke-width:0.5;" x1="333" x2="333" y1="56" y2="92.2969"/><text fill="#000000" font-family="sans-serif" font-size="14" lengthAdjust="spacing" textLength="106" x="212" y="78.9951">Placeholder_14</text></g><!--entity Placeholder_15--><g id="elem_Placeholder_15"><polygon fill="#F1F1F1" points="378,56,388,46,524,46,524,82.2969,514,92.2969,378,92.2969,378,56" style="stroke:#181818;stroke-width:0.5;"/><line style="stroke:#181818;stroke-width:0.5;" x1="514" x2="524" y1="56" y2="46"/><line style="stroke:#181818;stroke-width:0.5;" x1="378" x2="514" y1="56" y2="56"/><line style="stroke:#181818;stroke-width:0.5;" x1="514" x2="514" y1="56" y2="92.2969"/><text fill="#000000" font-family="sans-serif" font-size="14" lengthAdjust="spacing" textLength="106" x="393" y="78.9951">Placeholder_15</text></g><!--entity Placeholder_10--><g id="elem_Placeholder_10"><polygon fill="#F1F1F1" points="559,56,569,46,705,46,705,82.2969,695,92.2969,559,92.2969,559,56" style="stroke:#181818;stroke-width:0.5;"/><line style="stroke:#181818;stroke-width:0.5;" x1="695" x2="705" y1="56" y2="46"/><line style="stroke:#181818;stroke-width:0.5;" x1="559" x2="695" y1="56" y2="56"/><line style="stroke:#181818;stroke-width:0.5;" x1="695" x2="695" y1="56" y2="92.2969"/><text fill="#000000" font-family="sans-serif" font-size="14" lengthAdjust="spacing" textLength="106" x="574" y="78.9951">Placeholder_10</text></g><!--entity Placeholder_9--><g id="elem_Placeholder_9"><polygon fill="#F1F1F1" points="740.5,56,750.5,46,877.5,46,877.5,82.2969,867.5,92.2969,740.5,92.2969,740.5,56" style="stroke:#181818;stroke-width:0.5;"/><line style="stroke:#181818;stroke-width:0.5;" x1="867.5" x2="877.5" y1="56" y2="46"/><line style="stroke:#181818;stroke-width:0.5;" x1="740.5" x2="867.5" y1="56" y2="56"/><line style="stroke:#181818;stroke-width:0.5;" x1="867.5" x2="867.5" y1="56" y2="92.2969"/><text fill="#000000" font-family="sans-serif" font-size="14" lengthAdjust="spacing" textLength="97" x="755.5" y="78.9951">Placeholder_9</text></g><!--entity Placeholder_6--><g id="elem_Placeholder_6"><polygon fill="#F1F1F1" points="912.5,56,922.5,46,1049.5,46,1049.5,82.2969,1039.5,92.2969,912.5,92.2969,912.5,56" style="stroke:#181818;stroke-width:0.5;"/><line style="stroke:#181818;stroke-width:0.5;" x1="1039.5" x2="1049.5" y1="56" y2="46"/><line style="stroke:#181818;stroke-width:0.5;" x1="912.5" x2="1039.5" y1="56" y2="56"/><line style="stroke:#181818;stroke-width:0.5;" x1="1039.5" x2="1039.5" y1="56" y2="92.2969"/><text fill="#000000" font-family="sans-serif" font-size="14" lengthAdjust="spacing" textLength="97" x="927.5" y="78.9951">Placeholder_6</text></g><!--entity Placeholder_13--><g id="elem_Placeholder_13"><polygon fill="#F1F1F1" points="1085,56,1095,46,1231,46,1231,82.2969,1221,92.2969,1085,92.2969,1085,56" style="stroke:#181818;stroke-width:0.5;"/><line style="stroke:#181818;stroke-width:0.5;" x1="1221" x2="1231" y1="56" y2="46"/><line style="stroke:#181818;stroke-width:0.5;" x1="1085" x2="1221" y1="56" y2="56"/><line style="stroke:#181818;stroke-width:0.5;" x1="1221" x2="1221" y1="56" y2="92.2969"/><text fill="#000000" font-family="sans-serif" font-size="14" lengthAdjust="spacing" textLength="106" x="1100" y="78.9951">Placeholder_13</text></g><!--entity Placeholder_11--><g id="elem_Placeholder_11"><polygon fill="#F1F1F1" points="1266,56,1276,46,1412,46,1412,82.2969,1402,92.2969,1266,92.2969,1266,56" style="stroke:#181818;stroke-width:0.5;"/><line style="stroke:#181818;stroke-width:0.5;" x1="1402" x2="1412" y1="56" y2="46"/><line style="stroke:#181818;stroke-width:0.5;" x1="1266" x2="1402" y1="56" y2="56"/><line style="stroke:#181818;stroke-width:0.5;" x1="1402" x2="1402" y1="56" y2="92.2969"/><text fill="#000000" font-family="sans-serif" font-size="14" lengthAdjust="spacing" textLength="106" x="1281" y="78.9951">Placeholder_11</text></g><!--entity Placeholder_5--><g id="elem_Placeholder_5"><polygon fill="#F1F1F1" points="1447.5,56,1457.5,46,1584.5,46,1584.5,82.2969,1574.5,92.2969,1447.5,92.2969,1447.5,56" style="stroke:#181818;stroke-width:0.5;"/><line style="stroke:#181818;stroke-width:0.5;" x1="1574.5" x2="1584.5" y1="56" y2="46"/><line style="stroke:#181818;stroke-width:0.5;" x1="1447.5" x2="1574.5" y1="56" y2="56"/><line style="stroke:#181818;stroke-width:0.5;" x1="1574.5" x2="1574.5" y1="56" y2="92.2969"/><text fill="#000000" font-family="sans-serif" font-size="14" lengthAdjust="spacing" textLength="97" x="1462.5" y="78.9951">Placeholder_5</text></g><!--link aName to aName--><g id="link_aName_aName"><path d="M1708.27,64.73 C1727.02,64.41 1743,65.83 1743,69 C1743,72.17 1727.02,73.59 1708.27,73.27 " fill="none" id="aName-aName" style="stroke:#181818;stroke-width:1.0;"/><text fill="#000000" font-family="sans-serif" font-size="13" lengthAdjust="spacing" textLength="424" x="1756" y="73.5669">com_spring_netflix_oss_microservices_service_CardClient Provider</text><path d="M1701.0793,57.7806 A10,10 0 0 0 1701.3206 71.9207" fill="none" style="stroke:#181818;stroke-width:1.5;"/><ellipse cx="1708.27" cy="64.73" fill="#FFFFFF" rx="6" ry="6" style="stroke:#181818;stroke-width:1.5;"/></g><!--link aName to aName--><g id="link_aName_aName"><path d="M1708.22,64.62 C1837.76,57.76 2193,59.22 2193,69 C2193,78.78 1837.76,80.24 1708.22,73.38 " fill="none" id="aName-aName-1" style="stroke:#181818;stroke-width:1.0;"/><text fill="#000000" font-family="sans-serif" font-size="13" lengthAdjust="spacing" textLength="463" x="2206" y="73.5669">com_spring_netflix_oss_microservices_service_StatementClient Provider</text><path d="M1700.7849,57.9328 A10,10 0 0 0 1701.5328 72.0551" fill="none" style="stroke:#181818;stroke-width:1.5;"/><ellipse cx="1708.22" cy="64.62" fill="#FFFFFF" rx="6" ry="6" style="stroke:#181818;stroke-width:1.5;"/></g><!--SRC=[nT9DImCn483X-_wAW1SlaQwsI_KcGV0WRK7miYnXDZkheVboaYuLyRyRi3rehyNSaaFUPmWJjze58B1ir7kXIHbyWXxDUa8o489shopH3Yld1sGR0mhVl1cGv99zLYsim6B7sdP4Sk063xq26tpaCL1-onscqUWzzp5ognNvY3HfXV4gViI4zaA-hxUrw5DumAR1PJC-YfVvuhxhggzJixukWSvBe8iIwAm0Ubl0R4fyxaq9j2w0_iFg7lFySiRPyNB7bBVo9oyFUPdpybTU7WvI00t2Q7I9RSXFEez-bkvpWZn-plwDVmC0]--></g></svg>