<?xml version="1.0" encoding="us-ascii" standalone="no"?><svg xmlns="http://www.w3.org/2000/svg" xmlns:xlink="http://www.w3.org/1999/xlink" contentStyleType="text/css" height="395px" preserveAspectRatio="none" style="width:2322px;height:395px;background:#FFFFFF;" version="1.1" viewBox="0 0 2322 395" width="2322px" zoomAndPan="magnify"><defs/><g><!--cluster nodenet_devh--><g id="cluster_nodenet_devh"><polygon fill="none" points="1301,97.97,1311,87.97,2000,87.97,2000,368.97,1990,378.97,1301,378.97,1301,97.97" style="stroke:#181818;stroke-width:1.0;"/><line style="stroke:#181818;stroke-width:1.0;" x1="1990" x2="2000" y1="97.97" y2="87.97"/><line style="stroke:#181818;stroke-width:1.0;" x1="1301" x2="1990" y1="97.97" y2="97.97"/><line style="stroke:#181818;stroke-width:1.0;" x1="1990" x2="1990" y1="97.97" y2="378.97"/><text fill="#000000" font-family="sans-serif" font-size="14" font-weight="bold" lengthAdjust="spacing" textLength="112" x="1590.5" y="113.9651">nodenet_devh</text></g><!--cluster net_devh--><g id="cluster_net_devh"><rect fill="none" height="203" rx="2.5" ry="2.5" style="stroke:#181818;stroke-width:1.0;" width="627" x="1341" y="143.97"/><rect fill="none" height="10" style="stroke:#181818;stroke-width:1.0;" width="15" x="1948" y="148.97"/><rect fill="none" height="2" style="stroke:#181818;stroke-width:1.0;" width="4" x="1946" y="150.97"/><rect fill="none" height="2" style="stroke:#181818;stroke-width:1.0;" width="4" x="1946" y="154.97"/><text fill="#000000" font-family="sans-serif" font-size="14" font-weight="bold" lengthAdjust="spacing" textLength="72" x="1618.5" y="169.9651">net_devh</text></g><!--cluster nodenet_devh_Registration_Provider--><g id="cluster_nodenet_devh_Registration_Provider"><polygon fill="none" points="16,140.97,26,130.97,380,130.97,380,238.97,370,248.97,16,248.97,16,140.97" style="stroke:#181818;stroke-width:1.0;"/><line style="stroke:#181818;stroke-width:1.0;" x1="370" x2="380" y1="140.97" y2="130.97"/><line style="stroke:#181818;stroke-width:1.0;" x1="16" x2="370" y1="140.97" y2="140.97"/><line style="stroke:#181818;stroke-width:1.0;" x1="370" x2="370" y1="140.97" y2="248.97"/><text fill="#000000" font-family="sans-serif" font-size="14" font-weight="bold" lengthAdjust="spacing" textLength="288" x="50" y="156.9651">nodenet_devh_Registration_Provider</text></g><!--cluster nodenet_devh_ServiceB1Controller--><g id="cluster_nodenet_devh_ServiceB1Controller"><polygon fill="none" points="420,140.97,430,130.97,773,130.97,773,238.97,763,248.97,420,248.97,420,140.97" style="stroke:#181818;stroke-width:1.0;"/><line style="stroke:#181818;stroke-width:1.0;" x1="763" x2="773" y1="140.97" y2="130.97"/><line style="stroke:#181818;stroke-width:1.0;" x1="420" x2="763" y1="140.97" y2="140.97"/><line style="stroke:#181818;stroke-width:1.0;" x1="763" x2="763" y1="140.97" y2="248.97"/><text fill="#000000" font-family="sans-serif" font-size="14" font-weight="bold" lengthAdjust="spacing" textLength="277" x="454" y="156.9651">nodenet_devh_ServiceB1Controller</text></g><!--cluster nodenet_devh_controller_Registration_Provider--><g id="cluster_nodenet_devh_controller_Registration_Provider"><polygon fill="none" points="813,140.97,823,130.97,1261,130.97,1261,238.97,1251,248.97,813,248.97,813,140.97" style="stroke:#181818;stroke-width:1.0;"/><line style="stroke:#181818;stroke-width:1.0;" x1="1251" x2="1261" y1="140.97" y2="130.97"/><line style="stroke:#181818;stroke-width:1.0;" x1="813" x2="1251" y1="140.97" y2="140.97"/><line style="stroke:#181818;stroke-width:1.0;" x1="1251" x2="1251" y1="140.97" y2="248.97"/><text fill="#000000" font-family="sans-serif" font-size="14" font-weight="bold" lengthAdjust="spacing" textLength="372" x="847" y="156.9651">nodenet_devh_controller_Registration_Provider</text></g><!--cluster nodeservice_b_Provider--><g id="cluster_nodeservice_b_Provider"><polygon fill="none" points="2040,140.97,2050,130.97,2305,130.97,2305,238.97,2295,248.97,2040,248.97,2040,140.97" style="stroke:#181818;stroke-width:1.0;"/><line style="stroke:#181818;stroke-width:1.0;" x1="2295" x2="2305" y1="140.97" y2="130.97"/><line style="stroke:#181818;stroke-width:1.0;" x1="2040" x2="2295" y1="140.97" y2="140.97"/><line style="stroke:#181818;stroke-width:1.0;" x1="2295" x2="2295" y1="140.97" y2="248.97"/><text fill="#000000" font-family="sans-serif" font-size="14" font-weight="bold" lengthAdjust="spacing" textLength="189" x="2074" y="156.9651">nodeservice_b_Provider</text></g><!--entity net_devh_controller_AServiceController--><g id="elem_net_devh_controller_AServiceController"><a href="yidongnan-spring-cloud-netflix-example.system#_3a1-8HhLEe-ZRqBXho9v1g" target="_top" title="yidongnan-spring-cloud-netflix-example.system#_3a1-8HhLEe-ZRqBXho9v1g" xlink:actuate="onRequest" xlink:href="yidongnan-spring-cloud-netflix-example.system#_3a1-8HhLEe-ZRqBXho9v1g" xlink:show="new" xlink:title="yidongnan-spring-cloud-netflix-example.system#_3a1-8HhLEe-ZRqBXho9v1g" xlink:type="simple"><rect fill="#F1F1F1" height="46.2969" rx="2.5" ry="2.5" style="stroke:#181818;stroke-width:0.5;" width="309" x="1356.5" y="178.97"/><rect fill="#F1F1F1" height="10" style="stroke:#181818;stroke-width:0.5;" width="15" x="1645.5" y="183.97"/><rect fill="#F1F1F1" height="2" style="stroke:#181818;stroke-width:0.5;" width="4" x="1643.5" y="185.97"/><rect fill="#F1F1F1" height="2" style="stroke:#181818;stroke-width:0.5;" width="4" x="1643.5" y="189.97"/><text fill="#000000" font-family="sans-serif" font-size="14" lengthAdjust="spacing" textLength="269" x="1371.5" y="211.9651">net_devh_controller_AServiceController</text></a></g><!--entity net_devh_feign_ServiceBClient--><g id="elem_net_devh_feign_ServiceBClient"><a href="yidongnan-spring-cloud-netflix-example.system#_3a1-8HhLEe-ZRqBXho9v1g" target="_top" title="yidongnan-spring-cloud-netflix-example.system#_3a1-8HhLEe-ZRqBXho9v1g" xlink:actuate="onRequest" xlink:href="yidongnan-spring-cloud-netflix-example.system#_3a1-8HhLEe-ZRqBXho9v1g" xlink:show="new" xlink:title="yidongnan-spring-cloud-netflix-example.system#_3a1-8HhLEe-ZRqBXho9v1g" xlink:type="simple"><rect fill="#F1F1F1" height="46.2969" rx="2.5" ry="2.5" style="stroke:#181818;stroke-width:0.5;" width="251" x="1700.5" y="178.97"/><rect fill="#F1F1F1" height="10" style="stroke:#181818;stroke-width:0.5;" width="15" x="1931.5" y="183.97"/><rect fill="#F1F1F1" height="2" style="stroke:#181818;stroke-width:0.5;" width="4" x="1929.5" y="185.97"/><rect fill="#F1F1F1" height="2" style="stroke:#181818;stroke-width:0.5;" width="4" x="1929.5" y="189.97"/><text fill="#000000" font-family="sans-serif" font-size="14" lengthAdjust="spacing" textLength="211" x="1715.5" y="211.9651">net_devh_feign_ServiceBClient</text></a></g><!--entity net_devh_hystrix_HystrixWrappedServiceBClient--><g id="elem_net_devh_hystrix_HystrixWrappedServiceBClient"><a href="yidongnan-spring-cloud-netflix-example.system#_3a1-8HhLEe-ZRqBXho9v1g" target="_top" title="yidongnan-spring-cloud-netflix-example.system#_3a1-8HhLEe-ZRqBXho9v1g" xlink:actuate="onRequest" xlink:href="yidongnan-spring-cloud-netflix-example.system#_3a1-8HhLEe-ZRqBXho9v1g" xlink:show="new" xlink:title="yidongnan-spring-cloud-netflix-example.system#_3a1-8HhLEe-ZRqBXho9v1g" xlink:type="simple"><rect fill="#F1F1F1" height="46.2969" rx="2.5" ry="2.5" style="stroke:#181818;stroke-width:0.5;" width="368" x="1357" y="284.97"/><rect fill="#F1F1F1" height="10" style="stroke:#181818;stroke-width:0.5;" width="15" x="1705" y="289.97"/><rect fill="#F1F1F1" height="2" style="stroke:#181818;stroke-width:0.5;" width="4" x="1703" y="291.97"/><rect fill="#F1F1F1" height="2" style="stroke:#181818;stroke-width:0.5;" width="4" x="1703" y="295.97"/><text fill="#000000" font-family="sans-serif" font-size="14" lengthAdjust="spacing" textLength="328" x="1372" y="317.9651">net_devh_hystrix_HystrixWrappedServiceBClient</text></a></g><!--entity net_devh_Registration_Provider--><g id="elem_net_devh_Registration_Provider"><a href="yidongnan-spring-cloud-netflix-example.system#_3a1-8HhLEe-ZRqBXho9v1g" target="_top" title="yidongnan-spring-cloud-netflix-example.system#_3a1-8HhLEe-ZRqBXho9v1g" xlink:actuate="onRequest" xlink:href="yidongnan-spring-cloud-netflix-example.system#_3a1-8HhLEe-ZRqBXho9v1g" xlink:show="new" xlink:title="yidongnan-spring-cloud-netflix-example.system#_3a1-8HhLEe-ZRqBXho9v1g" xlink:type="simple"><rect fill="#F1F1F1" height="46.2969" rx="2.5" ry="2.5" style="stroke:#181818;stroke-width:0.5;" width="257" x="98.5" y="178.97"/><rect fill="#F1F1F1" height="10" style="stroke:#181818;stroke-width:0.5;" width="15" x="335.5" y="183.97"/><rect fill="#F1F1F1" height="2" style="stroke:#181818;stroke-width:0.5;" width="4" x="333.5" y="185.97"/><rect fill="#F1F1F1" height="2" style="stroke:#181818;stroke-width:0.5;" width="4" x="333.5" y="189.97"/><text fill="#000000" font-family="sans-serif" font-size="14" lengthAdjust="spacing" textLength="217" x="113.5" y="211.9651">net_devh_Registration_Provider</text></a></g><!--entity net_devh_ServiceB1Controller--><g id="elem_net_devh_ServiceB1Controller"><a href="yidongnan-spring-cloud-netflix-example.system#_3a1-8HhLEe-ZRqBXho9v1g" target="_top" title="yidongnan-spring-cloud-netflix-example.system#_3a1-8HhLEe-ZRqBXho9v1g" xlink:actuate="onRequest" xlink:href="yidongnan-spring-cloud-netflix-example.system#_3a1-8HhLEe-ZRqBXho9v1g" xlink:show="new" xlink:title="yidongnan-spring-cloud-netflix-example.system#_3a1-8HhLEe-ZRqBXho9v1g" xlink:type="simple"><rect fill="#F1F1F1" height="46.2969" rx="2.5" ry="2.5" style="stroke:#181818;stroke-width:0.5;" width="247" x="482.5" y="178.97"/><rect fill="#F1F1F1" height="10" style="stroke:#181818;stroke-width:0.5;" width="15" x="709.5" y="183.97"/><rect fill="#F1F1F1" height="2" style="stroke:#181818;stroke-width:0.5;" width="4" x="707.5" y="185.97"/><rect fill="#F1F1F1" height="2" style="stroke:#181818;stroke-width:0.5;" width="4" x="707.5" y="189.97"/><text fill="#000000" font-family="sans-serif" font-size="14" lengthAdjust="spacing" textLength="207" x="497.5" y="211.9651">net_devh_ServiceB1Controller</text></a></g><!--entity net_devh_controller_Registration_Provider--><g id="elem_net_devh_controller_Registration_Provider"><a href="yidongnan-spring-cloud-netflix-example.system#_3a1-8HhLEe-ZRqBXho9v1g" target="_top" title="yidongnan-spring-cloud-netflix-example.system#_3a1-8HhLEe-ZRqBXho9v1g" xlink:actuate="onRequest" xlink:href="yidongnan-spring-cloud-netflix-example.system#_3a1-8HhLEe-ZRqBXho9v1g" xlink:show="new" xlink:title="yidongnan-spring-cloud-netflix-example.system#_3a1-8HhLEe-ZRqBXho9v1g" xlink:type="simple"><rect fill="#F1F1F1" height="46.2969" rx="2.5" ry="2.5" style="stroke:#181818;stroke-width:0.5;" width="329" x="908.5" y="178.97"/><rect fill="#F1F1F1" height="10" style="stroke:#181818;stroke-width:0.5;" width="15" x="1217.5" y="183.97"/><rect fill="#F1F1F1" height="2" style="stroke:#181818;stroke-width:0.5;" width="4" x="1215.5" y="185.97"/><rect fill="#F1F1F1" height="2" style="stroke:#181818;stroke-width:0.5;" width="4" x="1215.5" y="189.97"/><text fill="#000000" font-family="sans-serif" font-size="14" lengthAdjust="spacing" textLength="289" x="923.5" y="211.9651">net_devh_controller_Registration_Provider</text></a></g><!--entity service_b_Provider--><g id="elem_service_b_Provider"><a href="yidongnan-spring-cloud-netflix-example.system#_3a1-8HhLEe-ZRqBXho9v1g" target="_top" title="yidongnan-spring-cloud-netflix-example.system#_3a1-8HhLEe-ZRqBXho9v1g" xlink:actuate="onRequest" xlink:href="yidongnan-spring-cloud-netflix-example.system#_3a1-8HhLEe-ZRqBXho9v1g" xlink:show="new" xlink:title="yidongnan-spring-cloud-netflix-example.system#_3a1-8HhLEe-ZRqBXho9v1g" xlink:type="simple"><rect fill="#F1F1F1" height="46.2969" rx="2.5" ry="2.5" style="stroke:#181818;stroke-width:0.5;" width="168" x="2098" y="178.97"/><rect fill="#F1F1F1" height="10" style="stroke:#181818;stroke-width:0.5;" width="15" x="2246" y="183.97"/><rect fill="#F1F1F1" height="2" style="stroke:#181818;stroke-width:0.5;" width="4" x="2244" y="185.97"/><rect fill="#F1F1F1" height="2" style="stroke:#181818;stroke-width:0.5;" width="4" x="2244" y="189.97"/><text fill="#000000" font-family="sans-serif" font-size="14" lengthAdjust="spacing" textLength="128" x="2113" y="211.9651">service_b_Provider</text></a></g><!--link nodenet_devh_Registration_Provider to nodenet_devh_ServiceB1Controller--><g id="link_nodenet_devh_Registration_Provider_nodenet_devh_ServiceB1Controller"><path d="M57.7567,130.6319 C57.7867,130.0896 57.8187,129.5466 57.8527,129.0029 C57.9207,127.9155 57.9968,126.8255 58.0813,125.7335 C58.2504,123.5495 58.4533,121.3578 58.6935,119.1641 C59.1737,114.7768 59.8024,110.3817 60.6056,106.0259 C62.212,97.3143 64.5161,88.7593 67.7253,80.7358 C74.1438,64.6888 84.1825,50.7675 99.5,41.97 C148.64,13.75 305.36,13.75 354.5,41.97 C386.84,60.545 405.0475,97.7525 415.2488,131.615 C416.5239,135.8478 417.674,140.0284 418.7109,144.1137 C418.9701,145.1351 419.2223,146.1504 419.4676,147.1592 C419.5902,147.6636 419.7111,148.1663 419.8303,148.6673 " fill="none" id="nodenet_devh_Registration_Provider-nodenet_devh_ServiceB1Controller" style="stroke:#181818;stroke-width:1.0;"/></g><!--link nodenet_devh_controller_Registration_Provider to nodenet_devh--><g id="link_nodenet_devh_controller_Registration_Provider_nodenet_devh"><path d="M868.2526,130.6509 C868.2862,130.1087 868.3219,129.5658 868.3595,129.0222 C868.4348,127.935 868.5181,126.8452 868.6099,125.7533 C868.7935,123.5697 869.011,121.3782 869.2655,119.1849 C869.7745,114.7981 870.4318,110.4035 871.2628,106.0479 C872.9248,97.3367 875.2819,88.7816 878.5381,80.7569 C885.0506,64.7075 895.16,50.78 910.5,41.97 C973.13,6 1172.87,6 1235.5,41.97 C1267.84,60.545 1286.0475,97.7525 1296.2488,131.615 C1297.5239,135.8478 1298.674,140.0284 1299.7109,144.1137 C1299.9701,145.1351 1300.2223,146.1504 1300.4676,147.1592 C1300.5902,147.6636 1300.7111,148.1663 1300.8303,148.6673 " fill="none" id="nodenet_devh_controller_Registration_Provider-nodenet_devh" style="stroke:#181818;stroke-width:1.0;"/></g><!--link nodeservice_b_Provider to nodenet_devh--><g id="link_nodeservice_b_Provider_nodenet_devh"><path d="M2039.8773,172.6695 C2039.3429,171.0169 2038.78,169.3137 2038.188,167.5652 C2037.0041,164.0681 2035.704,160.3898 2034.2827,156.572 C2031.4402,148.9363 2028.1134,140.7425 2024.2638,132.325 C2008.865,98.655 1985.1,61.405 1950.5,41.97 C1893.15,9.76 1415.54,9.21 1358.5,41.97 C1343.12,50.805 1332.2588,64.5138 1324.6361,80.272 C1323.6833,82.2418 1322.781,84.2436 1321.9269,86.2719 C1321.7134,86.779 1321.5028,87.2878 1321.2953,87.7981 " fill="none" id="nodeservice_b_Provider-nodenet_devh" style="stroke:#181818;stroke-width:1.0;"/></g><!--SRC=[jLB1QeGm5Bpx5O6UKx2zjCUk5FQmqB9xQAb8o9gdFXgJD4PHIl-zARjhTLtmiX98miimCvdtgazKXbjUaWpR26qgOSFt85yQi98RWoedpjOGL3qmrQNH2fJRkKu2gKjv5oWjWFnj2XmJq1JaE-XnP52CJtUMQkMibX8iUzg1RJ25g2yb98ux55hbYYjQ6Ujzq5JgMb1Fa4biARIyD19kgwvoKDwmUnxIXtMnUGRwiVrQlHVwiGdp91b8Pe2vOaUnLIJHcrj6gV1GYorR7yutwwC4iPpoZr-J7h0jvEZrkKEjsAlL3GgmeoPSH5pNsDJMAORmlzyZKnVUbxOq6CRvqER02vcj3h6m_SZLj7fT-NX-eX92IJpNuUICQJx4Cz8ZmQN_Jf2_]--></g></svg>