<?xml version="1.0" encoding="us-ascii" standalone="no"?><svg xmlns="http://www.w3.org/2000/svg" xmlns:xlink="http://www.w3.org/1999/xlink" contentStyleType="text/css" height="125px" preserveAspectRatio="none" style="width:3415px;height:125px;background:#FFFFFF;" version="1.1" viewBox="0 0 3415 125" width="3415px" zoomAndPan="magnify"><defs/><g><!--cluster Placeholder_7--><g id="cluster_Placeholder_7"><polygon fill="none" points="1404.5,16,1414.5,6,3398.5,6,3398.5,98,3388.5,108,1404.5,108,1404.5,16" style="stroke:#181818;stroke-width:1.0;"/><line style="stroke:#181818;stroke-width:1.0;" x1="3388.5" x2="3398.5" y1="16" y2="6"/><line style="stroke:#181818;stroke-width:1.0;" x1="1404.5" x2="3388.5" y1="16" y2="16"/><line style="stroke:#181818;stroke-width:1.0;" x1="3388.5" x2="3388.5" y1="16" y2="108"/><text fill="#000000" font-family="sans-serif" font-size="14" font-weight="bold" lengthAdjust="spacing" textLength="110" x="2342.5" y="31.9951">Placeholder_7</text></g><!--entity aName--><g id="elem_aName"><a href="yidongnan-spring-cloud-netflix-example.system#_wMSwoLtpEe66NtaHxzT1Cw" target="_top" title="yidongnan-spring-cloud-netflix-example.system#_wMSwoLtpEe66NtaHxzT1Cw" xlink:actuate="onRequest" xlink:href="yidongnan-spring-cloud-netflix-example.system#_wMSwoLtpEe66NtaHxzT1Cw" xlink:show="new" xlink:title="yidongnan-spring-cloud-netflix-example.system#_wMSwoLtpEe66NtaHxzT1Cw" xlink:type="simple"><rect fill="#F1F1F1" height="46.2969" rx="2.5" ry="2.5" style="stroke:#181818;stroke-width:0.5;" width="88" x="1420.5" y="46"/><rect fill="#F1F1F1" height="10" style="stroke:#181818;stroke-width:0.5;" width="15" x="1488.5" y="51"/><rect fill="#F1F1F1" height="2" style="stroke:#181818;stroke-width:0.5;" width="4" x="1486.5" y="53"/><rect fill="#F1F1F1" height="2" style="stroke:#181818;stroke-width:0.5;" width="4" x="1486.5" y="57"/><text fill="#000000" font-family="sans-serif" font-size="14" lengthAdjust="spacing" textLength="48" x="1435.5" y="78.9951">aName</text></a></g><!--entity Placeholder_6--><g id="elem_Placeholder_6"><polygon fill="#F1F1F1" points="16,56,26,46,153,46,153,82.2969,143,92.2969,16,92.2969,16,56" style="stroke:#181818;stroke-width:0.5;"/><line style="stroke:#181818;stroke-width:0.5;" x1="143" x2="153" y1="56" y2="46"/><line style="stroke:#181818;stroke-width:0.5;" x1="16" x2="143" y1="56" y2="56"/><line style="stroke:#181818;stroke-width:0.5;" x1="143" x2="143" y1="56" y2="92.2969"/><text fill="#000000" font-family="sans-serif" font-size="14" lengthAdjust="spacing" textLength="97" x="31" y="78.9951">Placeholder_6</text></g><!--entity Placeholder_0--><g id="elem_Placeholder_0"><polygon fill="#F1F1F1" points="188,56,198,46,325,46,325,82.2969,315,92.2969,188,92.2969,188,56" style="stroke:#181818;stroke-width:0.5;"/><line style="stroke:#181818;stroke-width:0.5;" x1="315" x2="325" y1="56" y2="46"/><line style="stroke:#181818;stroke-width:0.5;" x1="188" x2="315" y1="56" y2="56"/><line style="stroke:#181818;stroke-width:0.5;" x1="315" x2="315" y1="56" y2="92.2969"/><text fill="#000000" font-family="sans-serif" font-size="14" lengthAdjust="spacing" textLength="97" x="203" y="78.9951">Placeholder_0</text></g><!--entity Placeholder_13--><g id="elem_Placeholder_13"><polygon fill="#F1F1F1" points="360.5,56,370.5,46,506.5,46,506.5,82.2969,496.5,92.2969,360.5,92.2969,360.5,56" style="stroke:#181818;stroke-width:0.5;"/><line style="stroke:#181818;stroke-width:0.5;" x1="496.5" x2="506.5" y1="56" y2="46"/><line style="stroke:#181818;stroke-width:0.5;" x1="360.5" x2="496.5" y1="56" y2="56"/><line style="stroke:#181818;stroke-width:0.5;" x1="496.5" x2="496.5" y1="56" y2="92.2969"/><text fill="#000000" font-family="sans-serif" font-size="14" lengthAdjust="spacing" textLength="106" x="375.5" y="78.9951">Placeholder_13</text></g><!--entity Placeholder_17--><g id="elem_Placeholder_17"><polygon fill="#F1F1F1" points="541.5,56,551.5,46,687.5,46,687.5,82.2969,677.5,92.2969,541.5,92.2969,541.5,56" style="stroke:#181818;stroke-width:0.5;"/><line style="stroke:#181818;stroke-width:0.5;" x1="677.5" x2="687.5" y1="56" y2="46"/><line style="stroke:#181818;stroke-width:0.5;" x1="541.5" x2="677.5" y1="56" y2="56"/><line style="stroke:#181818;stroke-width:0.5;" x1="677.5" x2="677.5" y1="56" y2="92.2969"/><text fill="#000000" font-family="sans-serif" font-size="14" lengthAdjust="spacing" textLength="106" x="556.5" y="78.9951">Placeholder_17</text></g><!--entity Placeholder_8--><g id="elem_Placeholder_8"><polygon fill="#F1F1F1" points="723,56,733,46,860,46,860,82.2969,850,92.2969,723,92.2969,723,56" style="stroke:#181818;stroke-width:0.5;"/><line style="stroke:#181818;stroke-width:0.5;" x1="850" x2="860" y1="56" y2="46"/><line style="stroke:#181818;stroke-width:0.5;" x1="723" x2="850" y1="56" y2="56"/><line style="stroke:#181818;stroke-width:0.5;" x1="850" x2="850" y1="56" y2="92.2969"/><text fill="#000000" font-family="sans-serif" font-size="14" lengthAdjust="spacing" textLength="97" x="738" y="78.9951">Placeholder_8</text></g><!--entity Placeholder_5--><g id="elem_Placeholder_5"><polygon fill="#F1F1F1" points="895,56,905,46,1032,46,1032,82.2969,1022,92.2969,895,92.2969,895,56" style="stroke:#181818;stroke-width:0.5;"/><line style="stroke:#181818;stroke-width:0.5;" x1="1022" x2="1032" y1="56" y2="46"/><line style="stroke:#181818;stroke-width:0.5;" x1="895" x2="1022" y1="56" y2="56"/><line style="stroke:#181818;stroke-width:0.5;" x1="1022" x2="1022" y1="56" y2="92.2969"/><text fill="#000000" font-family="sans-serif" font-size="14" lengthAdjust="spacing" textLength="97" x="910" y="78.9951">Placeholder_5</text></g><!--entity Placeholder_3--><g id="elem_Placeholder_3"><polygon fill="#F1F1F1" points="1067,56,1077,46,1204,46,1204,82.2969,1194,92.2969,1067,92.2969,1067,56" style="stroke:#181818;stroke-width:0.5;"/><line style="stroke:#181818;stroke-width:0.5;" x1="1194" x2="1204" y1="56" y2="46"/><line style="stroke:#181818;stroke-width:0.5;" x1="1067" x2="1194" y1="56" y2="56"/><line style="stroke:#181818;stroke-width:0.5;" x1="1194" x2="1194" y1="56" y2="92.2969"/><text fill="#000000" font-family="sans-serif" font-size="14" lengthAdjust="spacing" textLength="97" x="1082" y="78.9951">Placeholder_3</text></g><!--entity Placeholder_15--><g id="elem_Placeholder_15"><polygon fill="#F1F1F1" points="1239.5,56,1249.5,46,1385.5,46,1385.5,82.2969,1375.5,92.2969,1239.5,92.2969,1239.5,56" style="stroke:#181818;stroke-width:0.5;"/><line style="stroke:#181818;stroke-width:0.5;" x1="1375.5" x2="1385.5" y1="56" y2="46"/><line style="stroke:#181818;stroke-width:0.5;" x1="1239.5" x2="1375.5" y1="56" y2="56"/><line style="stroke:#181818;stroke-width:0.5;" x1="1375.5" x2="1375.5" y1="56" y2="92.2969"/><text fill="#000000" font-family="sans-serif" font-size="14" lengthAdjust="spacing" textLength="106" x="1254.5" y="78.9951">Placeholder_15</text></g><!--link aName to aName--><g id="link_aName_aName"><path d="M1508.77,67.52 C1527.52,67.4 1543.5,67.9 1543.5,69 C1543.5,70.1 1527.52,70.6 1508.77,70.48 " fill="none" id="aName-aName" style="stroke:#181818;stroke-width:1.0;"/><text fill="#000000" font-family="sans-serif" font-size="13" lengthAdjust="spacing" textLength="118" x="1556.5" y="73.5669">service-b/ Provider</text><path d="M1501.6538,60.4943 A10,10 0 0 0 1501.7443 74.6362" fill="none" style="stroke:#181818;stroke-width:1.5;"/><ellipse cx="1508.77" cy="67.52" fill="#FFFFFF" rx="6" ry="6" style="stroke:#181818;stroke-width:1.5;"/></g><!--link aName to aName--><g id="link_aName_aName"><path d="M1508.59,66.91 C1576.27,65.2 1687.5,65.9 1687.5,69 C1687.5,72.1 1576.27,72.8 1508.59,71.09 " fill="none" id="aName-aName-1" style="stroke:#181818;stroke-width:1.0;"/><text fill="#000000" font-family="sans-serif" font-size="13" lengthAdjust="spacing" textLength="198" x="1700.5" y="73.5669">net_devh_Registration Provider</text><path d="M1501.3426,60.0198 A10,10 0 0 0 1501.6998 74.1574" fill="none" style="stroke:#181818;stroke-width:1.5;"/><ellipse cx="1508.59" cy="66.91" fill="#FFFFFF" rx="6" ry="6" style="stroke:#181818;stroke-width:1.5;"/></g><!--link aName to aName--><g id="link_aName_aName"><path d="M1508.77,66.68 C1626.01,63.14 1911.5,63.91 1911.5,69 C1911.5,74.09 1626.01,74.86 1508.77,71.32 " fill="none" id="aName-aName-2" style="stroke:#181818;stroke-width:1.0;"/><text fill="#000000" font-family="sans-serif" font-size="13" lengthAdjust="spacing" textLength="118" x="1924.5" y="73.5669">service-b/ Provider</text><path d="M1501.4887,59.8256 A10,10 0 0 0 1501.9156 73.9613" fill="none" style="stroke:#181818;stroke-width:1.5;"/><ellipse cx="1508.77" cy="66.68" fill="#FFFFFF" rx="6" ry="6" style="stroke:#181818;stroke-width:1.5;"/></g><!--link aName to aName--><g id="link_aName_aName"><path d="M1508.94,66.32 C1652.68,61.13 2055.5,62.02 2055.5,69 C2055.5,75.98 1652.68,76.87 1508.94,71.68 " fill="none" id="aName-aName-3" style="stroke:#181818;stroke-width:1.0;"/><text fill="#000000" font-family="sans-serif" font-size="13" lengthAdjust="spacing" textLength="265" x="2068.5" y="73.5669">net_devh_controller_Registration Provider</text><path d="M1501.6184,59.5087 A10,10 0 0 0 1502.1287 73.6416" fill="none" style="stroke:#181818;stroke-width:1.5;"/><ellipse cx="1508.94" cy="66.32" fill="#FFFFFF" rx="6" ry="6" style="stroke:#181818;stroke-width:1.5;"/></g><!--link aName to aName--><g id="link_aName_aName"><path d="M1508.51,66.24 C1694.9,59.11 2346.5,60.03 2346.5,69 C2346.5,77.97 1694.9,78.89 1508.51,71.76 " fill="none" id="aName-aName-4" style="stroke:#181818;stroke-width:1.0;"/><text fill="#000000" font-family="sans-serif" font-size="13" lengthAdjust="spacing" textLength="363" x="2359.5" y="73.5669">net_devh_hystrix_HystrixWrappedServiceBClient Provider</text><path d="M1501.1738,59.4444 A10,10 0 0 0 1501.7144 73.5762" fill="none" style="stroke:#181818;stroke-width:1.5;"/><ellipse cx="1508.51" cy="66.24" fill="#FFFFFF" rx="6" ry="6" style="stroke:#181818;stroke-width:1.5;"/></g><!--link aName to aName--><g id="link_aName_aName"><path d="M1508.53,66.2 C1742.19,57.09 2735.5,58.02 2735.5,69 C2735.5,79.98 1742.19,80.91 1508.53,71.8 " fill="none" id="aName-aName-5" style="stroke:#181818;stroke-width:1.0;"/><text fill="#000000" font-family="sans-serif" font-size="13" lengthAdjust="spacing" textLength="252" x="2748.5" y="73.5669">net_devh_feign_ServiceBClient Provider</text><path d="M1501.1888,59.4098 A10,10 0 0 0 1501.7398 73.5412" fill="none" style="stroke:#181818;stroke-width:1.5;"/><ellipse cx="1508.53" cy="66.2" fill="#FFFFFF" rx="6" ry="6" style="stroke:#181818;stroke-width:1.5;"/></g><!--link aName to aName--><g id="link_aName_aName"><path d="M1508.88,66.04 C1773.71,55.08 3013.5,56.07 3013.5,69 C3013.5,81.93 1773.71,82.92 1508.88,71.96 " fill="none" id="aName-aName-6" style="stroke:#181818;stroke-width:1.0;"/><text fill="#000000" font-family="sans-serif" font-size="13" lengthAdjust="spacing" textLength="252" x="3026.5" y="73.5669">net_devh_feign_ServiceBClient Provider</text><path d="M1501.5226,59.2674 A10,10 0 0 0 1502.1074 73.3974" fill="none" style="stroke:#181818;stroke-width:1.5;"/><ellipse cx="1508.88" cy="66.04" fill="#FFFFFF" rx="6" ry="6" style="stroke:#181818;stroke-width:1.5;"/></g><!--SRC=[lPHDImCn48Rl_HK1BrwYBU8g7bs47cejLl2mB27TpEuEPfCmINUtYl_TGAaN4J-WEGq3yxxFVC3u5pHEaknOZMEEL6bOo0teXnv8I-VGD2pG5YR6Ac0hBIjehLP0uegzJGgvb1sKh2XsgAnfZ3JSEueYNccxLTn0g3ME74RPEGrdVkS3T2TYk5yFTX7S7MJPCiZv-FeqouUodBn_1MMfGDDKeDb5CbAoArsd0bsc0gKxqh56EdZoqobdX-I6UQ0UA-2RSxOYssFiuRlI21KA-bOyGeC-a0nepO-g_m0gQm9PhUC-_iJwD6ZZFWX7CT_7PuhV2zHwtyfjhX5C-BrR3TWOSHpr1m00]--></g></svg>