<?xml version="1.0" encoding="us-ascii" standalone="no"?><svg xmlns="http://www.w3.org/2000/svg" xmlns:xlink="http://www.w3.org/1999/xlink" contentStyleType="text/css" height="125px" preserveAspectRatio="none" style="width:9767px;height:125px;background:#FFFFFF;" version="1.1" viewBox="0 0 9767 125" width="9767px" zoomAndPan="magnify"><defs/><g><!--cluster Placeholder_27--><g id="cluster_Placeholder_27"><polygon fill="none" points="3398.5,16,3408.5,6,9750.5,6,9750.5,98,9740.5,108,3398.5,108,3398.5,16" style="stroke:#181818;stroke-width:1.0;"/><line style="stroke:#181818;stroke-width:1.0;" x1="9740.5" x2="9750.5" y1="16" y2="6"/><line style="stroke:#181818;stroke-width:1.0;" x1="3398.5" x2="9740.5" y1="16" y2="16"/><line style="stroke:#181818;stroke-width:1.0;" x1="9740.5" x2="9740.5" y1="16" y2="108"/><text fill="#000000" font-family="sans-serif" font-size="14" font-weight="bold" lengthAdjust="spacing" textLength="120" x="6510.5" y="31.9951">Placeholder_27</text></g><!--entity aName--><g id="elem_aName"><a href="acmeair-acmeair.system#_Wa4iYLy5Ee6haIsd1vnn-A" target="_top" title="acmeair-acmeair.system#_Wa4iYLy5Ee6haIsd1vnn-A" xlink:actuate="onRequest" xlink:href="acmeair-acmeair.system#_Wa4iYLy5Ee6haIsd1vnn-A" xlink:show="new" xlink:title="acmeair-acmeair.system#_Wa4iYLy5Ee6haIsd1vnn-A" xlink:type="simple"><rect fill="#F1F1F1" height="46.2969" rx="2.5" ry="2.5" style="stroke:#181818;stroke-width:0.5;" width="88" x="3414.5" y="46"/><rect fill="#F1F1F1" height="10" style="stroke:#181818;stroke-width:0.5;" width="15" x="3482.5" y="51"/><rect fill="#F1F1F1" height="2" style="stroke:#181818;stroke-width:0.5;" width="4" x="3480.5" y="53"/><rect fill="#F1F1F1" height="2" style="stroke:#181818;stroke-width:0.5;" width="4" x="3480.5" y="57"/><text fill="#000000" font-family="sans-serif" font-size="14" lengthAdjust="spacing" textLength="48" x="3429.5" y="78.9951">aName</text></a></g><!--entity Placeholder_5--><g id="elem_Placeholder_5"><polygon fill="#F1F1F1" points="16,56,26,46,153,46,153,82.2969,143,92.2969,16,92.2969,16,56" style="stroke:#181818;stroke-width:0.5;"/><line style="stroke:#181818;stroke-width:0.5;" x1="143" x2="153" y1="56" y2="46"/><line style="stroke:#181818;stroke-width:0.5;" x1="16" x2="143" y1="56" y2="56"/><line style="stroke:#181818;stroke-width:0.5;" x1="143" x2="143" y1="56" y2="92.2969"/><text fill="#000000" font-family="sans-serif" font-size="14" lengthAdjust="spacing" textLength="97" x="31" y="78.9951">Placeholder_5</text></g><!--entity Placeholder_25--><g id="elem_Placeholder_25"><polygon fill="#F1F1F1" points="188.5,56,198.5,46,334.5,46,334.5,82.2969,324.5,92.2969,188.5,92.2969,188.5,56" style="stroke:#181818;stroke-width:0.5;"/><line style="stroke:#181818;stroke-width:0.5;" x1="324.5" x2="334.5" y1="56" y2="46"/><line style="stroke:#181818;stroke-width:0.5;" x1="188.5" x2="324.5" y1="56" y2="56"/><line style="stroke:#181818;stroke-width:0.5;" x1="324.5" x2="324.5" y1="56" y2="92.2969"/><text fill="#000000" font-family="sans-serif" font-size="14" lengthAdjust="spacing" textLength="106" x="203.5" y="78.9951">Placeholder_25</text></g><!--entity Placeholder_26--><g id="elem_Placeholder_26"><polygon fill="#F1F1F1" points="369.5,56,379.5,46,515.5,46,515.5,82.2969,505.5,92.2969,369.5,92.2969,369.5,56" style="stroke:#181818;stroke-width:0.5;"/><line style="stroke:#181818;stroke-width:0.5;" x1="505.5" x2="515.5" y1="56" y2="46"/><line style="stroke:#181818;stroke-width:0.5;" x1="369.5" x2="505.5" y1="56" y2="56"/><line style="stroke:#181818;stroke-width:0.5;" x1="505.5" x2="505.5" y1="56" y2="92.2969"/><text fill="#000000" font-family="sans-serif" font-size="14" lengthAdjust="spacing" textLength="106" x="384.5" y="78.9951">Placeholder_26</text></g><!--entity Placeholder_2--><g id="elem_Placeholder_2"><polygon fill="#F1F1F1" points="551,56,561,46,688,46,688,82.2969,678,92.2969,551,92.2969,551,56" style="stroke:#181818;stroke-width:0.5;"/><line style="stroke:#181818;stroke-width:0.5;" x1="678" x2="688" y1="56" y2="46"/><line style="stroke:#181818;stroke-width:0.5;" x1="551" x2="678" y1="56" y2="56"/><line style="stroke:#181818;stroke-width:0.5;" x1="678" x2="678" y1="56" y2="92.2969"/><text fill="#000000" font-family="sans-serif" font-size="14" lengthAdjust="spacing" textLength="97" x="566" y="78.9951">Placeholder_2</text></g><!--entity Placeholder_18--><g id="elem_Placeholder_18"><polygon fill="#F1F1F1" points="723.5,56,733.5,46,869.5,46,869.5,82.2969,859.5,92.2969,723.5,92.2969,723.5,56" style="stroke:#181818;stroke-width:0.5;"/><line style="stroke:#181818;stroke-width:0.5;" x1="859.5" x2="869.5" y1="56" y2="46"/><line style="stroke:#181818;stroke-width:0.5;" x1="723.5" x2="859.5" y1="56" y2="56"/><line style="stroke:#181818;stroke-width:0.5;" x1="859.5" x2="859.5" y1="56" y2="92.2969"/><text fill="#000000" font-family="sans-serif" font-size="14" lengthAdjust="spacing" textLength="106" x="738.5" y="78.9951">Placeholder_18</text></g><!--entity Placeholder_22--><g id="elem_Placeholder_22"><polygon fill="#F1F1F1" points="904.5,56,914.5,46,1050.5,46,1050.5,82.2969,1040.5,92.2969,904.5,92.2969,904.5,56" style="stroke:#181818;stroke-width:0.5;"/><line style="stroke:#181818;stroke-width:0.5;" x1="1040.5" x2="1050.5" y1="56" y2="46"/><line style="stroke:#181818;stroke-width:0.5;" x1="904.5" x2="1040.5" y1="56" y2="56"/><line style="stroke:#181818;stroke-width:0.5;" x1="1040.5" x2="1040.5" y1="56" y2="92.2969"/><text fill="#000000" font-family="sans-serif" font-size="14" lengthAdjust="spacing" textLength="106" x="919.5" y="78.9951">Placeholder_22</text></g><!--entity Placeholder_20--><g id="elem_Placeholder_20"><polygon fill="#F1F1F1" points="1085.5,56,1095.5,46,1231.5,46,1231.5,82.2969,1221.5,92.2969,1085.5,92.2969,1085.5,56" style="stroke:#181818;stroke-width:0.5;"/><line style="stroke:#181818;stroke-width:0.5;" x1="1221.5" x2="1231.5" y1="56" y2="46"/><line style="stroke:#181818;stroke-width:0.5;" x1="1085.5" x2="1221.5" y1="56" y2="56"/><line style="stroke:#181818;stroke-width:0.5;" x1="1221.5" x2="1221.5" y1="56" y2="92.2969"/><text fill="#000000" font-family="sans-serif" font-size="14" lengthAdjust="spacing" textLength="106" x="1100.5" y="78.9951">Placeholder_20</text></g><!--entity Placeholder_21--><g id="elem_Placeholder_21"><polygon fill="#F1F1F1" points="1266.5,56,1276.5,46,1412.5,46,1412.5,82.2969,1402.5,92.2969,1266.5,92.2969,1266.5,56" style="stroke:#181818;stroke-width:0.5;"/><line style="stroke:#181818;stroke-width:0.5;" x1="1402.5" x2="1412.5" y1="56" y2="46"/><line style="stroke:#181818;stroke-width:0.5;" x1="1266.5" x2="1402.5" y1="56" y2="56"/><line style="stroke:#181818;stroke-width:0.5;" x1="1402.5" x2="1402.5" y1="56" y2="92.2969"/><text fill="#000000" font-family="sans-serif" font-size="14" lengthAdjust="spacing" textLength="106" x="1281.5" y="78.9951">Placeholder_21</text></g><!--entity Placeholder_23--><g id="elem_Placeholder_23"><polygon fill="#F1F1F1" points="1447.5,56,1457.5,46,1593.5,46,1593.5,82.2969,1583.5,92.2969,1447.5,92.2969,1447.5,56" style="stroke:#181818;stroke-width:0.5;"/><line style="stroke:#181818;stroke-width:0.5;" x1="1583.5" x2="1593.5" y1="56" y2="46"/><line style="stroke:#181818;stroke-width:0.5;" x1="1447.5" x2="1583.5" y1="56" y2="56"/><line style="stroke:#181818;stroke-width:0.5;" x1="1583.5" x2="1583.5" y1="56" y2="92.2969"/><text fill="#000000" font-family="sans-serif" font-size="14" lengthAdjust="spacing" textLength="106" x="1462.5" y="78.9951">Placeholder_23</text></g><!--entity Placeholder_7--><g id="elem_Placeholder_7"><polygon fill="#F1F1F1" points="1629,56,1639,46,1766,46,1766,82.2969,1756,92.2969,1629,92.2969,1629,56" style="stroke:#181818;stroke-width:0.5;"/><line style="stroke:#181818;stroke-width:0.5;" x1="1756" x2="1766" y1="56" y2="46"/><line style="stroke:#181818;stroke-width:0.5;" x1="1629" x2="1756" y1="56" y2="56"/><line style="stroke:#181818;stroke-width:0.5;" x1="1756" x2="1756" y1="56" y2="92.2969"/><text fill="#000000" font-family="sans-serif" font-size="14" lengthAdjust="spacing" textLength="97" x="1644" y="78.9951">Placeholder_7</text></g><!--entity Placeholder_12--><g id="elem_Placeholder_12"><polygon fill="#F1F1F1" points="1801.5,56,1811.5,46,1947.5,46,1947.5,82.2969,1937.5,92.2969,1801.5,92.2969,1801.5,56" style="stroke:#181818;stroke-width:0.5;"/><line style="stroke:#181818;stroke-width:0.5;" x1="1937.5" x2="1947.5" y1="56" y2="46"/><line style="stroke:#181818;stroke-width:0.5;" x1="1801.5" x2="1937.5" y1="56" y2="56"/><line style="stroke:#181818;stroke-width:0.5;" x1="1937.5" x2="1937.5" y1="56" y2="92.2969"/><text fill="#000000" font-family="sans-serif" font-size="14" lengthAdjust="spacing" textLength="106" x="1816.5" y="78.9951">Placeholder_12</text></g><!--entity Placeholder_11--><g id="elem_Placeholder_11"><polygon fill="#F1F1F1" points="1982.5,56,1992.5,46,2128.5,46,2128.5,82.2969,2118.5,92.2969,1982.5,92.2969,1982.5,56" style="stroke:#181818;stroke-width:0.5;"/><line style="stroke:#181818;stroke-width:0.5;" x1="2118.5" x2="2128.5" y1="56" y2="46"/><line style="stroke:#181818;stroke-width:0.5;" x1="1982.5" x2="2118.5" y1="56" y2="56"/><line style="stroke:#181818;stroke-width:0.5;" x1="2118.5" x2="2118.5" y1="56" y2="92.2969"/><text fill="#000000" font-family="sans-serif" font-size="14" lengthAdjust="spacing" textLength="106" x="1997.5" y="78.9951">Placeholder_11</text></g><!--entity Placeholder_24--><g id="elem_Placeholder_24"><polygon fill="#F1F1F1" points="2163.5,56,2173.5,46,2309.5,46,2309.5,82.2969,2299.5,92.2969,2163.5,92.2969,2163.5,56" style="stroke:#181818;stroke-width:0.5;"/><line style="stroke:#181818;stroke-width:0.5;" x1="2299.5" x2="2309.5" y1="56" y2="46"/><line style="stroke:#181818;stroke-width:0.5;" x1="2163.5" x2="2299.5" y1="56" y2="56"/><line style="stroke:#181818;stroke-width:0.5;" x1="2299.5" x2="2299.5" y1="56" y2="92.2969"/><text fill="#000000" font-family="sans-serif" font-size="14" lengthAdjust="spacing" textLength="106" x="2178.5" y="78.9951">Placeholder_24</text></g><!--entity Placeholder_19--><g id="elem_Placeholder_19"><polygon fill="#F1F1F1" points="2344.5,56,2354.5,46,2490.5,46,2490.5,82.2969,2480.5,92.2969,2344.5,92.2969,2344.5,56" style="stroke:#181818;stroke-width:0.5;"/><line style="stroke:#181818;stroke-width:0.5;" x1="2480.5" x2="2490.5" y1="56" y2="46"/><line style="stroke:#181818;stroke-width:0.5;" x1="2344.5" x2="2480.5" y1="56" y2="56"/><line style="stroke:#181818;stroke-width:0.5;" x1="2480.5" x2="2480.5" y1="56" y2="92.2969"/><text fill="#000000" font-family="sans-serif" font-size="14" lengthAdjust="spacing" textLength="106" x="2359.5" y="78.9951">Placeholder_19</text></g><!--entity Placeholder_9--><g id="elem_Placeholder_9"><polygon fill="#F1F1F1" points="2526,56,2536,46,2663,46,2663,82.2969,2653,92.2969,2526,92.2969,2526,56" style="stroke:#181818;stroke-width:0.5;"/><line style="stroke:#181818;stroke-width:0.5;" x1="2653" x2="2663" y1="56" y2="46"/><line style="stroke:#181818;stroke-width:0.5;" x1="2526" x2="2653" y1="56" y2="56"/><line style="stroke:#181818;stroke-width:0.5;" x1="2653" x2="2653" y1="56" y2="92.2969"/><text fill="#000000" font-family="sans-serif" font-size="14" lengthAdjust="spacing" textLength="97" x="2541" y="78.9951">Placeholder_9</text></g><!--entity Placeholder_13--><g id="elem_Placeholder_13"><polygon fill="#F1F1F1" points="2698.5,56,2708.5,46,2844.5,46,2844.5,82.2969,2834.5,92.2969,2698.5,92.2969,2698.5,56" style="stroke:#181818;stroke-width:0.5;"/><line style="stroke:#181818;stroke-width:0.5;" x1="2834.5" x2="2844.5" y1="56" y2="46"/><line style="stroke:#181818;stroke-width:0.5;" x1="2698.5" x2="2834.5" y1="56" y2="56"/><line style="stroke:#181818;stroke-width:0.5;" x1="2834.5" x2="2834.5" y1="56" y2="92.2969"/><text fill="#000000" font-family="sans-serif" font-size="14" lengthAdjust="spacing" textLength="106" x="2713.5" y="78.9951">Placeholder_13</text></g><!--entity Placeholder_16--><g id="elem_Placeholder_16"><polygon fill="#F1F1F1" points="2879.5,56,2889.5,46,3025.5,46,3025.5,82.2969,3015.5,92.2969,2879.5,92.2969,2879.5,56" style="stroke:#181818;stroke-width:0.5;"/><line style="stroke:#181818;stroke-width:0.5;" x1="3015.5" x2="3025.5" y1="56" y2="46"/><line style="stroke:#181818;stroke-width:0.5;" x1="2879.5" x2="3015.5" y1="56" y2="56"/><line style="stroke:#181818;stroke-width:0.5;" x1="3015.5" x2="3015.5" y1="56" y2="92.2969"/><text fill="#000000" font-family="sans-serif" font-size="14" lengthAdjust="spacing" textLength="106" x="2894.5" y="78.9951">Placeholder_16</text></g><!--entity Placeholder_3--><g id="elem_Placeholder_3"><polygon fill="#F1F1F1" points="3061,56,3071,46,3198,46,3198,82.2969,3188,92.2969,3061,92.2969,3061,56" style="stroke:#181818;stroke-width:0.5;"/><line style="stroke:#181818;stroke-width:0.5;" x1="3188" x2="3198" y1="56" y2="46"/><line style="stroke:#181818;stroke-width:0.5;" x1="3061" x2="3188" y1="56" y2="56"/><line style="stroke:#181818;stroke-width:0.5;" x1="3188" x2="3188" y1="56" y2="92.2969"/><text fill="#000000" font-family="sans-serif" font-size="14" lengthAdjust="spacing" textLength="97" x="3076" y="78.9951">Placeholder_3</text></g><!--entity Placeholder_15--><g id="elem_Placeholder_15"><polygon fill="#F1F1F1" points="3233.5,56,3243.5,46,3379.5,46,3379.5,82.2969,3369.5,92.2969,3233.5,92.2969,3233.5,56" style="stroke:#181818;stroke-width:0.5;"/><line style="stroke:#181818;stroke-width:0.5;" x1="3369.5" x2="3379.5" y1="56" y2="46"/><line style="stroke:#181818;stroke-width:0.5;" x1="3233.5" x2="3369.5" y1="56" y2="56"/><line style="stroke:#181818;stroke-width:0.5;" x1="3369.5" x2="3369.5" y1="56" y2="92.2969"/><text fill="#000000" font-family="sans-serif" font-size="14" lengthAdjust="spacing" textLength="106" x="3248.5" y="78.9951">Placeholder_15</text></g><!--link aName to aName--><g id="link_aName_aName"><path d="M3502.77,67.52 C3521.52,67.4 3537.5,67.9 3537.5,69 C3537.5,70.1 3521.52,70.6 3502.77,70.48 " fill="none" id="aName-aName" style="stroke:#181818;stroke-width:1.0;"/><text fill="#000000" font-family="sans-serif" font-size="13" lengthAdjust="spacing" textLength="244" x="3550.5" y="73.5669">com_acmeair_loader_Loader_Provider</text><path d="M3495.6538,60.4943 A10,10 0 0 0 3495.7443 74.6362" fill="none" style="stroke:#181818;stroke-width:1.5;"/><ellipse cx="3502.77" cy="67.52" fill="#FFFFFF" rx="6" ry="6" style="stroke:#181818;stroke-width:1.5;"/></g><!--link aName to aName--><g id="link_aName_aName"><path d="M3502.73,67.22 C3599.22,65.13 3807.5,65.73 3807.5,69 C3807.5,72.27 3599.22,72.87 3502.73,70.78 " fill="none" id="aName-aName-1" style="stroke:#181818;stroke-width:1.0;"/><text fill="#000000" font-family="sans-serif" font-size="13" lengthAdjust="spacing" textLength="303" x="3820.5" y="73.5669">com_acmeair_service_BookingService_Provider</text><path d="M3495.5075,60.3037 A10,10 0 0 0 3495.8137 74.4425" fill="none" style="stroke:#181818;stroke-width:1.5;"/><ellipse cx="3502.73" cy="67.22" fill="#FFFFFF" rx="6" ry="6" style="stroke:#181818;stroke-width:1.5;"/></g><!--link aName to aName--><g id="link_aName_aName"><path d="M3502.67,67.01 C3657.04,63.1 4136.5,63.76 4136.5,69 C4136.5,74.24 3657.04,74.9 3502.67,70.99 " fill="none" id="aName-aName-2" style="stroke:#181818;stroke-width:1.0;"/><text fill="#000000" font-family="sans-serif" font-size="13" lengthAdjust="spacing" textLength="303" x="4149.5" y="73.5669">com_acmeair_service_BookingService_Provider</text><path d="M3495.4222,60.1202 A10,10 0 0 0 3495.7802 74.2578" fill="none" style="stroke:#181818;stroke-width:1.5;"/><ellipse cx="3502.67" cy="67.01" fill="#FFFFFF" rx="6" ry="6" style="stroke:#181818;stroke-width:1.5;"/></g><!--link aName to aName--><g id="link_aName_aName"><path d="M3502.64,66.81 C3702.17,61.08 4465.5,61.81 4465.5,69 C4465.5,76.19 3702.17,76.92 3502.64,71.19 " fill="none" id="aName-aName-3" style="stroke:#181818;stroke-width:1.0;"/><text fill="#000000" font-family="sans-serif" font-size="13" lengthAdjust="spacing" textLength="303" x="4478.5" y="73.5669">com_acmeair_service_BookingService_Provider</text><path d="M3495.3689,59.9448 A10,10 0 0 0 3495.7748 74.0811" fill="none" style="stroke:#181818;stroke-width:1.5;"/><ellipse cx="3502.64" cy="66.81" fill="#FFFFFF" rx="6" ry="6" style="stroke:#181818;stroke-width:1.5;"/></g><!--link aName to aName--><g id="link_aName_aName"><path d="M3502.51,66.63 C3740.38,59.07 4794.5,59.86 4794.5,69 C4794.5,78.14 3740.38,78.93 3502.51,71.37 " fill="none" id="aName-aName-4" style="stroke:#181818;stroke-width:1.0;"/><text fill="#000000" font-family="sans-serif" font-size="13" lengthAdjust="spacing" textLength="303" x="4807.5" y="73.5669">com_acmeair_service_BookingService_Provider</text><path d="M3495.2179,59.7871 A10,10 0 0 0 3495.6671 73.9221" fill="none" style="stroke:#181818;stroke-width:1.5;"/><ellipse cx="3502.51" cy="66.63" fill="#FFFFFF" rx="6" ry="6" style="stroke:#181818;stroke-width:1.5;"/></g><!--link aName to aName--><g id="link_aName_aName"><path d="M3502.52,66.47 C3774.75,57.07 5123.5,57.91 5123.5,69 C5123.5,80.09 3774.75,80.93 3502.52,71.53 " fill="none" id="aName-aName-5" style="stroke:#181818;stroke-width:1.0;"/><text fill="#000000" font-family="sans-serif" font-size="13" lengthAdjust="spacing" textLength="303" x="5136.5" y="73.5669">com_acmeair_service_BookingService_Provider</text><path d="M3495.2091,59.6472 A10,10 0 0 0 3495.6972 73.7809" fill="none" style="stroke:#181818;stroke-width:1.5;"/><ellipse cx="3502.52" cy="66.47" fill="#FFFFFF" rx="6" ry="6" style="stroke:#181818;stroke-width:1.5;"/></g><!--link aName to aName--><g id="link_aName_aName"><path d="M3502.8,66.31 C3807.14,55.07 5452.5,55.96 5452.5,69 C5452.5,82.04 3807.14,82.93 3502.8,71.69 " fill="none" id="aName-aName-6" style="stroke:#181818;stroke-width:1.0;"/><text fill="#000000" font-family="sans-serif" font-size="13" lengthAdjust="spacing" textLength="303" x="5465.5" y="73.5669">com_acmeair_service_BookingService_Provider</text><path d="M3495.4728,59.5047 A10,10 0 0 0 3495.9947 73.6372" fill="none" style="stroke:#181818;stroke-width:1.5;"/><ellipse cx="3502.8" cy="66.31" fill="#FFFFFF" rx="6" ry="6" style="stroke:#181818;stroke-width:1.5;"/></g><!--link aName to aName--><g id="link_aName_aName"><path d="M3502.65,66.18 C3835.74,53.06 5781.5,54 5781.5,69 C5781.5,84 3835.74,84.94 3502.65,71.82 " fill="none" id="aName-aName-7" style="stroke:#181818;stroke-width:1.0;"/><text fill="#000000" font-family="sans-serif" font-size="13" lengthAdjust="spacing" textLength="315" x="5794.5" y="73.5669">com_acmeair_service_CustomerService_Provider</text><path d="M3495.3061,59.3927 A10,10 0 0 0 3495.8627 73.5239" fill="none" style="stroke:#181818;stroke-width:1.5;"/><ellipse cx="3502.65" cy="66.18" fill="#FFFFFF" rx="6" ry="6" style="stroke:#181818;stroke-width:1.5;"/></g><!--link aName to aName--><g id="link_aName_aName"><path d="M3502.66,66.06 C3864.09,51.06 6122.5,52.04 6122.5,69 C6122.5,85.96 3864.09,86.94 3502.66,71.94 " fill="none" id="aName-aName-8" style="stroke:#181818;stroke-width:1.0;"/><text fill="#000000" font-family="sans-serif" font-size="13" lengthAdjust="spacing" textLength="315" x="6135.5" y="73.5669">com_acmeair_service_CustomerService_Provider</text><path d="M3495.3018,59.2882 A10,10 0 0 0 3495.8882 73.4182" fill="none" style="stroke:#181818;stroke-width:1.5;"/><ellipse cx="3502.66" cy="66.06" fill="#FFFFFF" rx="6" ry="6" style="stroke:#181818;stroke-width:1.5;"/></g><!--link aName to aName--><g id="link_aName_aName"><path d="M3502.53,65.95 C3890.24,49.06 6463.5,50.07 6463.5,69 C6463.5,87.93 3890.24,88.94 3502.53,72.05 " fill="none" id="aName-aName-9" style="stroke:#181818;stroke-width:1.0;"/><text fill="#000000" font-family="sans-serif" font-size="13" lengthAdjust="spacing" textLength="315" x="6476.5" y="73.5669">com_acmeair_service_CustomerService_Provider</text><path d="M3495.1579,59.1934 A10,10 0 0 0 3495.7734 73.3221" fill="none" style="stroke:#181818;stroke-width:1.5;"/><ellipse cx="3502.53" cy="65.95" fill="#FFFFFF" rx="6" ry="6" style="stroke:#181818;stroke-width:1.5;"/></g><!--link aName to aName--><g id="link_aName_aName"><path d="M3502.82,65.83 C3917.06,47.06 6804.5,48.11 6804.5,69 C6804.5,89.89 3917.06,90.94 3502.82,72.17 " fill="none" id="aName-aName-10" style="stroke:#181818;stroke-width:1.0;"/><text fill="#000000" font-family="sans-serif" font-size="13" lengthAdjust="spacing" textLength="315" x="6817.5" y="73.5669">com_acmeair_service_CustomerService_Provider</text><path d="M3495.4361,59.0863 A10,10 0 0 0 3496.0763 73.2139" fill="none" style="stroke:#181818;stroke-width:1.5;"/><ellipse cx="3502.82" cy="65.83" fill="#FFFFFF" rx="6" ry="6" style="stroke:#181818;stroke-width:1.5;"/></g><!--link aName to aName--><g id="link_aName_aName"><path d="M3502.81,65.74 C3941.49,45.05 7145.5,46.14 7145.5,69 C7145.5,91.86 3941.49,92.95 3502.81,72.26 " fill="none" id="aName-aName-11" style="stroke:#181818;stroke-width:1.0;"/><text fill="#000000" font-family="sans-serif" font-size="13" lengthAdjust="spacing" textLength="315" x="7158.5" y="73.5669">com_acmeair_service_CustomerService_Provider</text><path d="M3495.4137,59.0099 A10,10 0 0 0 3496.0799 73.1363" fill="none" style="stroke:#181818;stroke-width:1.5;"/><ellipse cx="3502.81" cy="65.74" fill="#FFFFFF" rx="6" ry="6" style="stroke:#181818;stroke-width:1.5;"/></g><!--link aName to aName--><g id="link_aName_aName"><path d="M3502.6,65.65 C3963.99,43.05 7486.5,44.17 7486.5,69 C7486.5,93.83 3963.99,94.95 3502.6,72.35 " fill="none" id="aName-aName-12" style="stroke:#181818;stroke-width:1.0;"/><text fill="#000000" font-family="sans-serif" font-size="13" lengthAdjust="spacing" textLength="286" x="7499.5" y="73.5669">com_acmeair_service_FlightService_Provider</text><path d="M3495.1915,58.9333 A10,10 0 0 0 3495.8833 73.0585" fill="none" style="stroke:#181818;stroke-width:1.5;"/><ellipse cx="3502.6" cy="65.65" fill="#FFFFFF" rx="6" ry="6" style="stroke:#181818;stroke-width:1.5;"/></g><!--link aName to aName--><g id="link_aName_aName"><path d="M3502.87,65.55 C3986.49,41.05 7798.5,42.2 7798.5,69 C7798.5,95.8 3986.49,96.95 3502.87,72.45 " fill="none" id="aName-aName-13" style="stroke:#181818;stroke-width:1.0;"/><text fill="#000000" font-family="sans-serif" font-size="13" lengthAdjust="spacing" textLength="286" x="7811.5" y="73.5669">com_acmeair_service_FlightService_Provider</text><path d="M3495.4502,58.8457 A10,10 0 0 0 3496.1657 72.9698" fill="none" style="stroke:#181818;stroke-width:1.5;"/><ellipse cx="3502.87" cy="65.55" fill="#FFFFFF" rx="6" ry="6" style="stroke:#181818;stroke-width:1.5;"/></g><!--link aName to aName--><g id="link_aName_aName"><path d="M3502.8,65.46 C4006.71,39.05 8110.5,40.23 8110.5,69 C8110.5,97.77 4006.71,98.95 3502.8,72.54 " fill="none" id="aName-aName-14" style="stroke:#181818;stroke-width:1.0;"/><text fill="#000000" font-family="sans-serif" font-size="13" lengthAdjust="spacing" textLength="286" x="8123.5" y="73.5669">com_acmeair_service_FlightService_Provider</text><path d="M3495.3685,58.7687 A10,10 0 0 0 3496.1087 72.8915" fill="none" style="stroke:#181818;stroke-width:1.5;"/><ellipse cx="3502.8" cy="65.46" fill="#FFFFFF" rx="6" ry="6" style="stroke:#181818;stroke-width:1.5;"/></g><!--link aName to aName--><g id="link_aName_aName"><path d="M3502.82,65.37 C4026.88,37.05 8422.5,38.26 8422.5,69 C8422.5,99.74 4026.88,100.95 3502.82,72.63 " fill="none" id="aName-aName-15" style="stroke:#181818;stroke-width:1.0;"/><text fill="#000000" font-family="sans-serif" font-size="13" lengthAdjust="spacing" textLength="293" x="8435.5" y="73.5669">com_acmeair_service_KeyGenerator_Provider</text><path d="M3495.3777,58.6908 A10,10 0 0 0 3496.1408 72.8123" fill="none" style="stroke:#181818;stroke-width:1.5;"/><ellipse cx="3502.82" cy="65.37" fill="#FFFFFF" rx="6" ry="6" style="stroke:#181818;stroke-width:1.5;"/></g><!--link aName to aName--><g id="link_aName_aName"><path d="M3502.59,65.31 C4045.57,35.05 8741.5,36.28 8741.5,69 C8741.5,101.72 4045.57,102.95 3502.59,72.69 " fill="none" id="aName-aName-16" style="stroke:#181818;stroke-width:1.0;"/><text fill="#000000" font-family="sans-serif" font-size="13" lengthAdjust="spacing" textLength="326" x="8754.5" y="73.5669">com_acmeair_service_TransactionService_Provider</text><path d="M3495.1364,58.6433 A10,10 0 0 0 3495.9233 72.7636" fill="none" style="stroke:#181818;stroke-width:1.5;"/><ellipse cx="3502.59" cy="65.31" fill="#FFFFFF" rx="6" ry="6" style="stroke:#181818;stroke-width:1.5;"/></g><!--link aName to aName--><g id="link_aName_aName"><path d="M3502.66,65.24 C4067.08,33.05 9093.5,34.3 9093.5,69 C9093.5,103.7 4067.08,104.95 3502.66,72.76 " fill="none" id="aName-aName-17" style="stroke:#181818;stroke-width:1.0;"/><text fill="#000000" font-family="sans-serif" font-size="13" lengthAdjust="spacing" textLength="326" x="9106.5" y="73.5669">com_acmeair_service_TransactionService_Provider</text><path d="M3495.1978,58.583 A10,10 0 0 0 3496.003 72.7022" fill="none" style="stroke:#181818;stroke-width:1.5;"/><ellipse cx="3502.66" cy="65.24" fill="#FFFFFF" rx="6" ry="6" style="stroke:#181818;stroke-width:1.5;"/></g><!--SRC=[xTNFIyCm50VmU_-AW1SlbQLkyyTj3XMnw411f9JoJ9zjC3zAaXMB-ByxiJi98kuL6UoKv91FleIy5_yYJGCED7kMhtFfXC8Kdb3TjkWKD8qq5GjkYP6n9RA50e6rLIMw8ZbYRr46Dw0nPra6GYD85_VZWUzyGBrNFC1OFgRTv1odDLpvahV6nBCyZzw_anDoCHc0dDAJv28_fWz9dp8PqPESdZma9-bBXm_mXWQuoZ5zoXDoabxaz4-8qxUX0K9kt7xNc-FzKSpMYrCch2vwfL0MFizAluQ5iwrSJNwpqwDhfS3YpDhLDrZTzSiTyU_4VEc3rUXs1frneMHLXsqNhh6xH8CEWlrRiTyxC1v4aDPiakCdvWC0]--></g></svg>