<?xml version="1.0" encoding="us-ascii" standalone="no"?><svg xmlns="http://www.w3.org/2000/svg" xmlns:xlink="http://www.w3.org/1999/xlink" contentStyleType="text/css" height="562px" preserveAspectRatio="none" style="width:3665px;height:562px;background:#FFFFFF;" version="1.1" viewBox="0 0 3665 562" width="3665px" zoomAndPan="magnify"><defs/><g><!--cluster nullAcmeAirConfiguration\n\n\n\n\n\nnull--><g id="cluster_nullAcmeAirConfiguration\n\n\n\n\n\nnull"><rect fill="none" height="446" rx="2.5" ry="2.5" style="stroke:#181818;stroke-width:1.0;" width="2956" x="7" y="110"/><rect fill="none" height="10" style="stroke:#181818;stroke-width:1.0;" width="15" x="2943" y="115"/><rect fill="none" height="2" style="stroke:#181818;stroke-width:1.0;" width="4" x="2941" y="117"/><rect fill="none" height="2" style="stroke:#181818;stroke-width:1.0;" width="4" x="2941" y="121"/><text fill="#000000" font-family="sans-serif" font-size="14" font-weight="bold" lengthAdjust="spacing" textLength="201" x="1384.5" y="135.9951">nullAcmeAirConfiguration</text><text fill="#000000" font-family="sans-serif" font-size="14" font-weight="bold" lengthAdjust="spacing" textLength="5" x="1482.5" y="152.292">&#160;</text><text fill="#000000" font-family="sans-serif" font-size="14" font-weight="bold" lengthAdjust="spacing" textLength="5" x="1482.5" y="168.5889">&#160;</text><text fill="#000000" font-family="sans-serif" font-size="14" font-weight="bold" lengthAdjust="spacing" textLength="5" x="1482.5" y="184.8857">&#160;</text><text fill="#000000" font-family="sans-serif" font-size="14" font-weight="bold" lengthAdjust="spacing" textLength="5" x="1482.5" y="201.1826">&#160;</text><text fill="#000000" font-family="sans-serif" font-size="14" font-weight="bold" lengthAdjust="spacing" textLength="5" x="1482.5" y="217.4795">&#160;</text><text fill="#000000" font-family="sans-serif" font-size="14" font-weight="bold" lengthAdjust="spacing" textLength="28" x="1471" y="233.7764">null</text></g><!--cluster nullLoaderREST\n\n\n\n\n\nnull--><g id="cluster_nullLoaderREST\n\n\n\n\n\nnull"><rect fill="none" height="323" rx="2.5" ry="2.5" style="stroke:#181818;stroke-width:1.0;" width="349" x="3310" y="110"/><rect fill="none" height="10" style="stroke:#181818;stroke-width:1.0;" width="15" x="3639" y="115"/><rect fill="none" height="2" style="stroke:#181818;stroke-width:1.0;" width="4" x="3637" y="117"/><rect fill="none" height="2" style="stroke:#181818;stroke-width:1.0;" width="4" x="3637" y="121"/><text fill="#000000" font-family="sans-serif" font-size="14" font-weight="bold" lengthAdjust="spacing" textLength="122" x="3423.5" y="135.9951">nullLoaderREST</text><text fill="#000000" font-family="sans-serif" font-size="14" font-weight="bold" lengthAdjust="spacing" textLength="5" x="3482" y="152.292">&#160;</text><text fill="#000000" font-family="sans-serif" font-size="14" font-weight="bold" lengthAdjust="spacing" textLength="5" x="3482" y="168.5889">&#160;</text><text fill="#000000" font-family="sans-serif" font-size="14" font-weight="bold" lengthAdjust="spacing" textLength="5" x="3482" y="184.8857">&#160;</text><text fill="#000000" font-family="sans-serif" font-size="14" font-weight="bold" lengthAdjust="spacing" textLength="5" x="3482" y="201.1826">&#160;</text><text fill="#000000" font-family="sans-serif" font-size="14" font-weight="bold" lengthAdjust="spacing" textLength="5" x="3482" y="217.4795">&#160;</text><text fill="#000000" font-family="sans-serif" font-size="14" font-weight="bold" lengthAdjust="spacing" textLength="28" x="3470.5" y="233.7764">null</text></g><!--entity com_acmeair_service_FlightService--><g id="elem_com_acmeair_service_FlightService"><rect fill="#F1F1F1" height="46.2969" rx="2.5" ry="2.5" style="stroke:#181818;stroke-width:0.5;" width="281" x="643.5" y="371"/><rect fill="#F1F1F1" height="10" style="stroke:#181818;stroke-width:0.5;" width="15" x="904.5" y="376"/><rect fill="#F1F1F1" height="2" style="stroke:#181818;stroke-width:0.5;" width="4" x="902.5" y="378"/><rect fill="#F1F1F1" height="2" style="stroke:#181818;stroke-width:0.5;" width="4" x="902.5" y="382"/><text fill="#000000" font-family="sans-serif" font-size="14" lengthAdjust="spacing" textLength="241" x="658.5" y="403.9951">com_acmeair_service_FlightService</text></g><!--entity com_acmeair_loader_FlightLoader--><g id="elem_com_acmeair_loader_FlightLoader"><rect fill="#F1F1F1" height="46.2969" rx="2.5" ry="2.5" style="stroke:#181818;stroke-width:0.5;" width="272" x="1251" y="212.5"/><rect fill="#F1F1F1" height="10" style="stroke:#181818;stroke-width:0.5;" width="15" x="1503" y="217.5"/><rect fill="#F1F1F1" height="2" style="stroke:#181818;stroke-width:0.5;" width="4" x="1501" y="219.5"/><rect fill="#F1F1F1" height="2" style="stroke:#181818;stroke-width:0.5;" width="4" x="1501" y="223.5"/><text fill="#000000" font-family="sans-serif" font-size="14" lengthAdjust="spacing" textLength="232" x="1266" y="245.4951">com_acmeair_loader_FlightLoader</text></g><!--entity com_acmeair_web_FlightsREST--><g id="elem_com_acmeair_web_FlightsREST"><rect fill="#F1F1F1" height="46.2969" rx="2.5" ry="2.5" style="stroke:#181818;stroke-width:0.5;" width="256" x="960" y="212.5"/><rect fill="#F1F1F1" height="10" style="stroke:#181818;stroke-width:0.5;" width="15" x="1196" y="217.5"/><rect fill="#F1F1F1" height="2" style="stroke:#181818;stroke-width:0.5;" width="4" x="1194" y="219.5"/><rect fill="#F1F1F1" height="2" style="stroke:#181818;stroke-width:0.5;" width="4" x="1194" y="223.5"/><text fill="#000000" font-family="sans-serif" font-size="14" lengthAdjust="spacing" textLength="216" x="975" y="245.4951">com_acmeair_web_FlightsREST</text></g><!--entity com_acmeair_service_BookingService--><g id="elem_com_acmeair_service_BookingService"><rect fill="#F1F1F1" height="46.2969" rx="2.5" ry="2.5" style="stroke:#181818;stroke-width:0.5;" width="301" x="1706.5" y="371"/><rect fill="#F1F1F1" height="10" style="stroke:#181818;stroke-width:0.5;" width="15" x="1987.5" y="376"/><rect fill="#F1F1F1" height="2" style="stroke:#181818;stroke-width:0.5;" width="4" x="1985.5" y="378"/><rect fill="#F1F1F1" height="2" style="stroke:#181818;stroke-width:0.5;" width="4" x="1985.5" y="382"/><text fill="#000000" font-family="sans-serif" font-size="14" lengthAdjust="spacing" textLength="261" x="1721.5" y="403.9951">com_acmeair_service_BookingService</text></g><!--entity com_acmeair_service_KeyGenerator--><g id="elem_com_acmeair_service_KeyGenerator"><rect fill="#F1F1F1" height="46.2969" rx="2.5" ry="2.5" style="stroke:#181818;stroke-width:0.5;" width="289" x="307.5" y="494"/><rect fill="#F1F1F1" height="10" style="stroke:#181818;stroke-width:0.5;" width="15" x="576.5" y="499"/><rect fill="#F1F1F1" height="2" style="stroke:#181818;stroke-width:0.5;" width="4" x="574.5" y="501"/><rect fill="#F1F1F1" height="2" style="stroke:#181818;stroke-width:0.5;" width="4" x="574.5" y="505"/><text fill="#000000" font-family="sans-serif" font-size="14" lengthAdjust="spacing" textLength="249" x="322.5" y="526.9951">com_acmeair_service_KeyGenerator</text></g><!--entity com_acmeair_service_TransactionService--><g id="elem_com_acmeair_service_TransactionService"><rect fill="#F1F1F1" height="46.2969" rx="2.5" ry="2.5" style="stroke:#181818;stroke-width:0.5;" width="325" x="959.5" y="371"/><rect fill="#F1F1F1" height="10" style="stroke:#181818;stroke-width:0.5;" width="15" x="1264.5" y="376"/><rect fill="#F1F1F1" height="2" style="stroke:#181818;stroke-width:0.5;" width="4" x="1262.5" y="378"/><rect fill="#F1F1F1" height="2" style="stroke:#181818;stroke-width:0.5;" width="4" x="1262.5" y="382"/><text fill="#000000" font-family="sans-serif" font-size="14" lengthAdjust="spacing" textLength="285" x="974.5" y="403.9951">com_acmeair_service_TransactionService</text></g><!--entity com_acmeair_web_BookingsREST--><g id="elem_com_acmeair_web_BookingsREST"><rect fill="#F1F1F1" height="46.2969" rx="2.5" ry="2.5" style="stroke:#181818;stroke-width:0.5;" width="276" x="2311" y="212.5"/><rect fill="#F1F1F1" height="10" style="stroke:#181818;stroke-width:0.5;" width="15" x="2567" y="217.5"/><rect fill="#F1F1F1" height="2" style="stroke:#181818;stroke-width:0.5;" width="4" x="2565" y="219.5"/><rect fill="#F1F1F1" height="2" style="stroke:#181818;stroke-width:0.5;" width="4" x="2565" y="223.5"/><text fill="#000000" font-family="sans-serif" font-size="14" lengthAdjust="spacing" textLength="236" x="2326" y="245.4951">com_acmeair_web_BookingsREST</text></g><!--entity com_acmeair_web_CustomerREST--><g id="elem_com_acmeair_web_CustomerREST"><rect fill="#F1F1F1" height="46.2969" rx="2.5" ry="2.5" style="stroke:#181818;stroke-width:0.5;" width="279" x="23.5" y="212.5"/><rect fill="#F1F1F1" height="10" style="stroke:#181818;stroke-width:0.5;" width="15" x="282.5" y="217.5"/><rect fill="#F1F1F1" height="2" style="stroke:#181818;stroke-width:0.5;" width="4" x="280.5" y="219.5"/><rect fill="#F1F1F1" height="2" style="stroke:#181818;stroke-width:0.5;" width="4" x="280.5" y="223.5"/><text fill="#000000" font-family="sans-serif" font-size="14" lengthAdjust="spacing" textLength="239" x="38.5" y="245.4951">com_acmeair_web_CustomerREST</text></g><!--entity com_acmeair_service_CustomerService--><g id="elem_com_acmeair_service_CustomerService"><rect fill="#F1F1F1" height="46.2969" rx="2.5" ry="2.5" style="stroke:#181818;stroke-width:0.5;" width="312" x="296" y="371"/><rect fill="#F1F1F1" height="10" style="stroke:#181818;stroke-width:0.5;" width="15" x="588" y="376"/><rect fill="#F1F1F1" height="2" style="stroke:#181818;stroke-width:0.5;" width="4" x="586" y="378"/><rect fill="#F1F1F1" height="2" style="stroke:#181818;stroke-width:0.5;" width="4" x="586" y="382"/><text fill="#000000" font-family="sans-serif" font-size="14" lengthAdjust="spacing" textLength="272" x="311" y="403.9951">com_acmeair_service_CustomerService</text></g><!--entity com_acmeair_wxs_utils_WXSSessionManager--><g id="elem_com_acmeair_wxs_utils_WXSSessionManager"><rect fill="#F1F1F1" height="46.2969" rx="2.5" ry="2.5" style="stroke:#181818;stroke-width:0.5;" width="352" x="1319" y="371"/><rect fill="#F1F1F1" height="10" style="stroke:#181818;stroke-width:0.5;" width="15" x="1651" y="376"/><rect fill="#F1F1F1" height="2" style="stroke:#181818;stroke-width:0.5;" width="4" x="1649" y="378"/><rect fill="#F1F1F1" height="2" style="stroke:#181818;stroke-width:0.5;" width="4" x="1649" y="382"/><text fill="#000000" font-family="sans-serif" font-size="14" lengthAdjust="spacing" textLength="312" x="1334" y="403.9951">com_acmeair_wxs_utils_WXSSessionManager</text></g><!--entity com_acmeair_wxs_service_BookingServiceImpl--><g id="elem_com_acmeair_wxs_service_BookingServiceImpl"><rect fill="#F1F1F1" height="46.2969" rx="2.5" ry="2.5" style="stroke:#181818;stroke-width:0.5;" width="362" x="2043" y="371"/><rect fill="#F1F1F1" height="10" style="stroke:#181818;stroke-width:0.5;" width="15" x="2385" y="376"/><rect fill="#F1F1F1" height="2" style="stroke:#181818;stroke-width:0.5;" width="4" x="2383" y="378"/><rect fill="#F1F1F1" height="2" style="stroke:#181818;stroke-width:0.5;" width="4" x="2383" y="382"/><text fill="#000000" font-family="sans-serif" font-size="14" lengthAdjust="spacing" textLength="322" x="2058" y="403.9951">com_acmeair_wxs_service_BookingServiceImpl</text></g><!--entity com_acmeair_loader_CustomerLoader--><g id="elem_com_acmeair_loader_CustomerLoader"><rect fill="#F1F1F1" height="46.2969" rx="2.5" ry="2.5" style="stroke:#181818;stroke-width:0.5;" width="303" x="621.5" y="212.5"/><rect fill="#F1F1F1" height="10" style="stroke:#181818;stroke-width:0.5;" width="15" x="904.5" y="217.5"/><rect fill="#F1F1F1" height="2" style="stroke:#181818;stroke-width:0.5;" width="4" x="902.5" y="219.5"/><rect fill="#F1F1F1" height="2" style="stroke:#181818;stroke-width:0.5;" width="4" x="902.5" y="223.5"/><text fill="#000000" font-family="sans-serif" font-size="14" lengthAdjust="spacing" textLength="263" x="636.5" y="245.4951">com_acmeair_loader_CustomerLoader</text></g><!--entity com_acmeair_morphia_services_BookingServiceImpl--><g id="elem_com_acmeair_morphia_services_BookingServiceImpl"><rect fill="#F1F1F1" height="46.2969" rx="2.5" ry="2.5" style="stroke:#181818;stroke-width:0.5;" width="400" x="2440" y="371"/><rect fill="#F1F1F1" height="10" style="stroke:#181818;stroke-width:0.5;" width="15" x="2820" y="376"/><rect fill="#F1F1F1" height="2" style="stroke:#181818;stroke-width:0.5;" width="4" x="2818" y="378"/><rect fill="#F1F1F1" height="2" style="stroke:#181818;stroke-width:0.5;" width="4" x="2818" y="382"/><text fill="#000000" font-family="sans-serif" font-size="14" lengthAdjust="spacing" textLength="360" x="2455" y="403.9951">com_acmeair_morphia_services_BookingServiceImpl</text></g><!--entity com_acmeair_web_LoginREST--><g id="elem_com_acmeair_web_LoginREST"><rect fill="#F1F1F1" height="46.2969" rx="2.5" ry="2.5" style="stroke:#181818;stroke-width:0.5;" width="248" x="338" y="212.5"/><rect fill="#F1F1F1" height="10" style="stroke:#181818;stroke-width:0.5;" width="15" x="566" y="217.5"/><rect fill="#F1F1F1" height="2" style="stroke:#181818;stroke-width:0.5;" width="4" x="564" y="219.5"/><rect fill="#F1F1F1" height="2" style="stroke:#181818;stroke-width:0.5;" width="4" x="564" y="223.5"/><text fill="#000000" font-family="sans-serif" font-size="14" lengthAdjust="spacing" textLength="208" x="353" y="245.4951">com_acmeair_web_LoginREST</text></g><!--entity com_acmeair_web_RESTCookieSessionFilter--><g id="elem_com_acmeair_web_RESTCookieSessionFilter"><rect fill="#F1F1F1" height="46.2969" rx="2.5" ry="2.5" style="stroke:#181818;stroke-width:0.5;" width="347" x="1558.5" y="212.5"/><rect fill="#F1F1F1" height="10" style="stroke:#181818;stroke-width:0.5;" width="15" x="1885.5" y="217.5"/><rect fill="#F1F1F1" height="2" style="stroke:#181818;stroke-width:0.5;" width="4" x="1883.5" y="219.5"/><rect fill="#F1F1F1" height="2" style="stroke:#181818;stroke-width:0.5;" width="4" x="1883.5" y="223.5"/><text fill="#000000" font-family="sans-serif" font-size="14" lengthAdjust="spacing" textLength="307" x="1573.5" y="245.4951">com_acmeair_web_RESTCookieSessionFilter</text></g><!--entity com_acmeair_config_AcmeAirConfiguration--><g id="elem_com_acmeair_config_AcmeAirConfiguration"><rect fill="#F1F1F1" height="46.2969" rx="2.5" ry="2.5" style="stroke:#181818;stroke-width:0.5;" width="335" x="1940.5" y="212.5"/><rect fill="#F1F1F1" height="10" style="stroke:#181818;stroke-width:0.5;" width="15" x="2255.5" y="217.5"/><rect fill="#F1F1F1" height="2" style="stroke:#181818;stroke-width:0.5;" width="4" x="2253.5" y="219.5"/><rect fill="#F1F1F1" height="2" style="stroke:#181818;stroke-width:0.5;" width="4" x="2253.5" y="223.5"/><text fill="#000000" font-family="sans-serif" font-size="14" lengthAdjust="spacing" textLength="295" x="1955.5" y="245.4951">com_acmeair_config_AcmeAirConfiguration</text></g><text fill="#000000" font-family="sans-serif" font-size="14" lengthAdjust="spacing" textLength="4" x="414" y="88.6982">&#160;</text><rect fill="#F1F1F1" height="12" style="stroke:#181818;stroke-width:1.5;" width="12" x="410" y="104"/><text fill="#000000" font-family="sans-serif" font-size="14" lengthAdjust="spacing" textLength="4" x="2149" y="88.6982">&#160;</text><rect fill="#F1F1F1" height="12" style="stroke:#181818;stroke-width:1.5;" width="12" x="2145" y="104"/><text fill="#000000" font-family="sans-serif" font-size="14" lengthAdjust="spacing" textLength="4" x="1308" y="88.6982">&#160;</text><rect fill="#F1F1F1" height="12" style="stroke:#181818;stroke-width:1.5;" width="12" x="1304" y="104"/><text fill="#000000" font-family="sans-serif" font-size="14" lengthAdjust="spacing" textLength="4" x="1197" y="88.6982">&#160;</text><rect fill="#F1F1F1" height="12" style="stroke:#181818;stroke-width:1.5;" width="12" x="1193" y="104"/><text fill="#000000" font-family="sans-serif" font-size="14" lengthAdjust="spacing" textLength="4" x="1730" y="88.6982">&#160;</text><rect fill="#F1F1F1" height="12" style="stroke:#181818;stroke-width:1.5;" width="12" x="1726" y="104"/><text fill="#000000" font-family="sans-serif" font-size="14" lengthAdjust="spacing" textLength="4" x="2048" y="88.6982">&#160;</text><rect fill="#F1F1F1" height="12" style="stroke:#181818;stroke-width:1.5;" width="12" x="2044" y="104"/><text fill="#000000" font-family="sans-serif" font-size="14" lengthAdjust="spacing" textLength="4" x="2943" y="88.6982">&#160;</text><rect fill="#F1F1F1" height="12" style="stroke:#181818;stroke-width:1.5;" width="12" x="2939" y="104"/><text fill="#000000" font-family="sans-serif" font-size="14" lengthAdjust="spacing" textLength="4" x="2861" y="88.6982">&#160;</text><rect fill="#F1F1F1" height="12" style="stroke:#181818;stroke-width:1.5;" width="12" x="2857" y="104"/><!--entity com_acmeair_loader_Loader--><g id="elem_com_acmeair_loader_Loader"><rect fill="#F1F1F1" height="46.2969" rx="2.5" ry="2.5" style="stroke:#181818;stroke-width:0.5;" width="235" x="3389.5" y="371"/><rect fill="#F1F1F1" height="10" style="stroke:#181818;stroke-width:0.5;" width="15" x="3604.5" y="376"/><rect fill="#F1F1F1" height="2" style="stroke:#181818;stroke-width:0.5;" width="4" x="3602.5" y="378"/><rect fill="#F1F1F1" height="2" style="stroke:#181818;stroke-width:0.5;" width="4" x="3602.5" y="382"/><text fill="#000000" font-family="sans-serif" font-size="14" lengthAdjust="spacing" textLength="195" x="3404.5" y="403.9951">com_acmeair_loader_Loader</text></g><!--entity com_acmeair_config_LoaderREST--><g id="elem_com_acmeair_config_LoaderREST"><rect fill="#F1F1F1" height="46.2969" rx="2.5" ry="2.5" style="stroke:#181818;stroke-width:0.5;" width="271" x="3371.5" y="212.5"/><rect fill="#F1F1F1" height="10" style="stroke:#181818;stroke-width:0.5;" width="15" x="3622.5" y="217.5"/><rect fill="#F1F1F1" height="2" style="stroke:#181818;stroke-width:0.5;" width="4" x="3620.5" y="219.5"/><rect fill="#F1F1F1" height="2" style="stroke:#181818;stroke-width:0.5;" width="4" x="3620.5" y="223.5"/><text fill="#000000" font-family="sans-serif" font-size="14" lengthAdjust="spacing" textLength="231" x="3386.5" y="245.4951">com_acmeair_config_LoaderREST</text></g><text fill="#000000" font-family="sans-serif" font-size="14" lengthAdjust="spacing" textLength="4" x="3326" y="88.6982">&#160;</text><rect fill="#F1F1F1" height="12" style="stroke:#181818;stroke-width:1.5;" width="12" x="3322" y="104"/><!--entity interface.Filter--><g id="elem_interface.Filter"><ellipse cx="1732" cy="14" fill="#F1F1F1" rx="8" ry="8" style="stroke:#181818;stroke-width:0.5;"/><text fill="#000000" font-family="sans-serif" font-size="14" lengthAdjust="spacing" textLength="33" x="1715.5" y="43.9951">Filter</text></g><!--entity interface.SERVICE_HOST_bookings--><g id="elem_interface.SERVICE_HOST_bookings"><ellipse cx="2204" cy="14" fill="#F1F1F1" rx="8" ry="8" style="stroke:#181818;stroke-width:0.5;"/><text fill="#000000" font-family="sans-serif" font-size="14" lengthAdjust="spacing" textLength="172" x="2118" y="43.9951">SERVICE-HOST/bookings</text></g><!--entity interface.SERVICE_HOST_config--><g id="elem_interface.SERVICE_HOST_config"><ellipse cx="1992" cy="14" fill="#F1F1F1" rx="8" ry="8" style="stroke:#181818;stroke-width:0.5;"/><text fill="#000000" font-family="sans-serif" font-size="14" lengthAdjust="spacing" textLength="150" x="1917" y="43.9951">SERVICE-HOST/config</text></g><!--entity interface.SERVICE_HOST_customer_byid--><g id="elem_interface.SERVICE_HOST_customer_byid"><ellipse cx="416" cy="14" fill="#F1F1F1" rx="8" ry="8" style="stroke:#181818;stroke-width:0.5;"/><text fill="#000000" font-family="sans-serif" font-size="14" lengthAdjust="spacing" textLength="207" x="312.5" y="43.9951">SERVICE-HOST/customer/byid</text></g><!--entity interface.SERVICE_HOST_flights--><g id="elem_interface.SERVICE_HOST_flights"><ellipse cx="1338" cy="14" fill="#F1F1F1" rx="8" ry="8" style="stroke:#181818;stroke-width:0.5;"/><text fill="#000000" font-family="sans-serif" font-size="14" lengthAdjust="spacing" textLength="149" x="1263.5" y="43.9951">SERVICE-HOST/flights</text></g><!--entity interface.SERVICE_HOST_login--><g id="elem_interface.SERVICE_HOST_login"><ellipse cx="1143" cy="14" fill="#F1F1F1" rx="8" ry="8" style="stroke:#181818;stroke-width:0.5;"/><text fill="#000000" font-family="sans-serif" font-size="14" lengthAdjust="spacing" textLength="141" x="1072.5" y="43.9951">SERVICE-HOST/login</text></g><!--entity interface.com_acmeair_morphia_MorphiaConstants--><g id="elem_interface.com_acmeair_morphia_MorphiaConstants"><ellipse cx="3059" cy="14" fill="#F1F1F1" rx="8" ry="8" style="stroke:#181818;stroke-width:0.5;"/><text fill="#000000" font-family="sans-serif" font-size="14" lengthAdjust="spacing" textLength="287" x="2915.5" y="43.9951">com_acmeair_morphia_MorphiaConstants</text></g><!--entity interface.com_acmeair_wxs_WXSConstants--><g id="elem_interface.com_acmeair_wxs_WXSConstants"><ellipse cx="2749" cy="14" fill="#F1F1F1" rx="8" ry="8" style="stroke:#181818;stroke-width:0.5;"/><text fill="#000000" font-family="sans-serif" font-size="14" lengthAdjust="spacing" textLength="233" x="2632.5" y="43.9951">com_acmeair_wxs_WXSConstants</text></g><!--entity interface.SERVICE_HOST_loader--><g id="elem_interface.SERVICE_HOST_loader"><ellipse cx="3328" cy="14" fill="#F1F1F1" rx="8" ry="8" style="stroke:#181818;stroke-width:0.5;"/><text fill="#000000" font-family="sans-serif" font-size="14" lengthAdjust="spacing" textLength="151" x="3252.5" y="43.9951">SERVICE-HOST/loader</text></g><!--link com_acmeair_web_RESTCookieSessionFilter to com_acmeair_service_CustomerService--><g id="link_com_acmeair_web_RESTCookieSessionFilter_com_acmeair_service_CustomerService"><path d="M1670.9,258.56 C1633.81,271.03 1585.25,285.72 1541,294 C1371.42,325.72 1325.36,304.03 1154,324 C1105.3,329.68 1093.72,335.47 1045,341 C859.49,362.07 811.79,352.62 626,371 C620.24,371.57 620.3463,371.5451 614.4263,372.1751 " fill="none" id="com_acmeair_web_RESTCookieSessionFilter-to-com_acmeair_service_CustomerService" style="stroke:#181818;stroke-width:1.0;stroke-dasharray:7.0,7.0;"/><polygon fill="#181818" points="608.46,372.81,617.8328,375.8351,613.4319,372.2809,616.9862,367.8801,608.46,372.81" style="stroke:#181818;stroke-width:1.0;"/><text fill="#000000" font-family="sans-serif" font-size="13" lengthAdjust="spacing" textLength="52" x="1155" y="337.0669">requires</text></g><!--link com_acmeair_web_FlightsREST to com_acmeair_service_FlightService--><g id="link_com_acmeair_web_FlightsREST_com_acmeair_service_FlightService"><path d="M1032.21,258.53 C1005.01,269.25 971.8,282.32 942,294 C907.8,307.4 896.53,305.16 865,324 C843.12,337.07 825.631,351.9581 810.151,366.7281 " fill="none" id="com_acmeair_web_FlightsREST-to-com_acmeair_service_FlightService" style="stroke:#181818;stroke-width:1.0;stroke-dasharray:7.0,7.0;"/><polygon fill="#181818" points="805.81,370.87,815.0828,367.5511,809.4275,367.4184,809.5603,361.7631,805.81,370.87" style="stroke:#181818;stroke-width:1.0;"/><text fill="#000000" font-family="sans-serif" font-size="13" lengthAdjust="spacing" textLength="52" x="866" y="337.0669">requires</text></g><!--link com_acmeair_service_CustomerService to com_acmeair_service_KeyGenerator--><g id="link_com_acmeair_service_CustomerService_com_acmeair_service_KeyGenerator"><path d="M452,417.19 C452,439.03 452,466.16 452,487.95 " fill="none" id="com_acmeair_service_CustomerService-to-com_acmeair_service_KeyGenerator" style="stroke:#181818;stroke-width:1.0;stroke-dasharray:7.0,7.0;"/><polygon fill="#181818" points="452,493.95,456,484.95,452,488.95,448,484.95,452,493.95" style="stroke:#181818;stroke-width:1.0;"/><text fill="#000000" font-family="sans-serif" font-size="13" lengthAdjust="spacing" textLength="52" x="453" y="460.0669">requires</text></g><!--link com_acmeair_web_BookingsREST to com_acmeair_morphia_services_BookingServiceImpl--><g id="link_com_acmeair_web_BookingsREST_com_acmeair_morphia_services_BookingServiceImpl"><path d="M2461.51,258.76 C2471.06,276.2 2484.19,301.26 2494,324 C2497.17,331.36 2494.38,335.29 2500,341 C2512.64,353.85 2523.2326,361.1461 2539.9726,368.4661 " fill="none" id="com_acmeair_web_BookingsREST-to-com_acmeair_morphia_services_BookingServiceImpl" style="stroke:#181818;stroke-width:1.0;stroke-dasharray:7.0,7.0;"/><polygon fill="#181818" points="2545.47,370.87,2538.8265,363.5993,2540.8888,368.8668,2535.6213,370.9291,2545.47,370.87" style="stroke:#181818;stroke-width:1.0;"/><text fill="#000000" font-family="sans-serif" font-size="13" lengthAdjust="spacing" textLength="52" x="2501" y="337.0669">requires</text></g><!--link com_acmeair_config_AcmeAirConfiguration to com_acmeair_service_CustomerService--><g id="link_com_acmeair_config_AcmeAirConfiguration_com_acmeair_service_CustomerService"><path d="M2050.18,258.54 C2014.16,271.25 1966.54,286.21 1923,294 C1675.03,338.39 1602.16,266.08 1357,324 C1338.6,328.35 1336.42,336.74 1318,341 C1168.03,375.67 779.37,358 626,371 C620.24,371.49 620.3425,371.4559 614.4125,372.0259 " fill="none" id="com_acmeair_config_AcmeAirConfiguration-to-com_acmeair_service_CustomerService" style="stroke:#181818;stroke-width:1.0;stroke-dasharray:7.0,7.0;"/><polygon fill="#181818" points="608.44,372.6,617.7814,375.7205,613.4171,372.1216,617.016,367.7572,608.44,372.6" style="stroke:#181818;stroke-width:1.0;"/><text fill="#000000" font-family="sans-serif" font-size="13" lengthAdjust="spacing" textLength="52" x="1358" y="337.0669">requires</text></g><!--link com_acmeair_web_LoginREST to com_acmeair_service_CustomerService--><g id="link_com_acmeair_web_LoginREST_com_acmeair_service_CustomerService"><path d="M460.59,258.59 C458.69,288.33 455.7135,334.9623 453.8035,364.7823 " fill="none" id="com_acmeair_web_LoginREST-to-com_acmeair_service_CustomerService" style="stroke:#181818;stroke-width:1.0;stroke-dasharray:7.0,7.0;"/><polygon fill="#181818" points="453.42,370.77,457.9871,362.0441,453.7396,365.7802,450.0035,361.5327,453.42,370.77" style="stroke:#181818;stroke-width:1.0;"/><text fill="#000000" font-family="sans-serif" font-size="13" lengthAdjust="spacing" textLength="52" x="458" y="337.0669">requires</text></g><!--link com_acmeair_loader_FlightLoader to com_acmeair_service_FlightService--><g id="link_com_acmeair_loader_FlightLoader_com_acmeair_service_FlightService"><path d="M1337.3,258.63 C1307.83,270.87 1269.42,285.33 1234,294 C1126.59,320.31 1094.82,299.41 987,324 C935.65,335.71 884.6453,353.4198 844.2853,368.8298 " fill="none" id="com_acmeair_loader_FlightLoader-to-com_acmeair_service_FlightService" style="stroke:#181818;stroke-width:1.0;stroke-dasharray:7.0,7.0;"/><polygon fill="#181818" points="838.68,370.97,848.5148,371.4966,843.3511,369.1865,845.6612,364.0228,838.68,370.97" style="stroke:#181818;stroke-width:1.0;"/><text fill="#000000" font-family="sans-serif" font-size="13" lengthAdjust="spacing" textLength="52" x="988" y="337.0669">requires</text></g><!--link com_acmeair_config_AcmeAirConfiguration to com_acmeair_service_FlightService--><g id="link_com_acmeair_config_AcmeAirConfiguration_com_acmeair_service_FlightService"><path d="M2049.3,258.51 C2013.35,271.04 1966.12,285.82 1923,294 C1744.8,327.8 1696,301.65 1516,324 C1472.57,329.39 1462.46,335.84 1419,341 C1208.06,366.04 1153.35,349.67 942,371 C936.35,371.57 936.5517,371.5128 930.7417,372.1728 " fill="none" id="com_acmeair_config_AcmeAirConfiguration-to-com_acmeair_service_FlightService" style="stroke:#181818;stroke-width:1.0;stroke-dasharray:7.0,7.0;"/><polygon fill="#181818" points="924.78,372.85,934.174,375.8086,929.748,372.2856,933.271,367.8597,924.78,372.85" style="stroke:#181818;stroke-width:1.0;"/><text fill="#000000" font-family="sans-serif" font-size="13" lengthAdjust="spacing" textLength="52" x="1517" y="337.0669">requires</text></g><!--link com_acmeair_web_RESTCookieSessionFilter to com_acmeair_service_TransactionService--><g id="link_com_acmeair_web_RESTCookieSessionFilter_com_acmeair_service_TransactionService"><path d="M1669.52,258.52 C1632.57,270.73 1584.62,285.19 1541,294 C1417.89,318.88 1380.53,288.69 1260,324 C1223.11,334.81 1189.3998,352.1518 1162.3398,367.9718 " fill="none" id="com_acmeair_web_RESTCookieSessionFilter-to-com_acmeair_service_TransactionService" style="stroke:#181818;stroke-width:1.0;stroke-dasharray:7.0,7.0;"/><polygon fill="#181818" points="1157.16,371,1166.9484,369.9108,1161.4765,368.4765,1162.9108,363.0045,1157.16,371" style="stroke:#181818;stroke-width:1.0;"/><text fill="#000000" font-family="sans-serif" font-size="13" lengthAdjust="spacing" textLength="52" x="1261" y="337.0669">requires</text></g><!--link com_acmeair_loader_CustomerLoader to com_acmeair_service_CustomerService--><g id="link_com_acmeair_loader_CustomerLoader_com_acmeair_service_CustomerService"><path d="M727.69,258.59 C666.6,288.38 563.8429,338.4702 502.7329,368.2702 " fill="none" id="com_acmeair_loader_CustomerLoader-to-com_acmeair_service_CustomerService" style="stroke:#181818;stroke-width:1.0;stroke-dasharray:7.0,7.0;"/><polygon fill="#181818" points="497.34,370.9,507.1827,370.5505,501.8341,368.7085,503.6762,363.3599,497.34,370.9" style="stroke:#181818;stroke-width:1.0;"/><text fill="#000000" font-family="sans-serif" font-size="13" lengthAdjust="spacing" textLength="52" x="594" y="337.0669">requires</text></g><!--link com_acmeair_config_AcmeAirConfiguration to com_acmeair_wxs_service_BookingServiceImpl--><g id="link_com_acmeair_config_AcmeAirConfiguration_com_acmeair_wxs_service_BookingServiceImpl"><path d="M2109.11,258.62 C2111.27,281.36 2117.6,316.77 2136,341 C2145.23,353.15 2153.0185,359.9677 2166.1585,367.6977 " fill="none" id="com_acmeair_config_AcmeAirConfiguration-to-com_acmeair_wxs_service_BookingServiceImpl" style="stroke:#181818;stroke-width:1.0;stroke-dasharray:7.0,7.0;"/><polygon fill="#181818" points="2171.33,370.74,2165.6009,362.7289,2167.0204,368.2048,2161.5445,369.6242,2171.33,370.74" style="stroke:#181818;stroke-width:1.0;"/><text fill="#000000" font-family="sans-serif" font-size="13" lengthAdjust="spacing" textLength="52" x="2137" y="337.0669">requires</text></g><!--link com_acmeair_web_BookingsREST to com_acmeair_wxs_service_BookingServiceImpl--><g id="link_com_acmeair_web_BookingsREST_com_acmeair_wxs_service_BookingServiceImpl"><path d="M2417.24,258.59 C2374.48,288.33 2303.7556,337.5238 2260.8856,367.3438 " fill="none" id="com_acmeair_web_BookingsREST-to-com_acmeair_wxs_service_BookingServiceImpl" style="stroke:#181818;stroke-width:1.0;stroke-dasharray:7.0,7.0;"/><polygon fill="#181818" points="2255.96,370.77,2265.6325,368.9144,2260.0646,367.9148,2261.0642,362.347,2255.96,370.77" style="stroke:#181818;stroke-width:1.0;"/><text fill="#000000" font-family="sans-serif" font-size="13" lengthAdjust="spacing" textLength="52" x="2324" y="337.0669">requires</text></g><!--link com_acmeair_web_BookingsREST to com_acmeair_service_BookingService--><g id="link_com_acmeair_web_BookingsREST_com_acmeair_service_BookingService"><path d="M2397.9,258.62 C2367.87,270.78 2328.87,285.16 2293,294 C2193.34,318.57 2164.04,301 2064,324 C2011.95,335.97 1960.0646,353.6011 1918.8946,368.8911 " fill="none" id="com_acmeair_web_BookingsREST-to-com_acmeair_service_BookingService" style="stroke:#181818;stroke-width:1.0;stroke-dasharray:7.0,7.0;"/><polygon fill="#181818" points="1913.27,370.98,1923.0996,371.5964,1917.9572,369.2392,1920.3143,364.0969,1913.27,370.98" style="stroke:#181818;stroke-width:1.0;"/><text fill="#000000" font-family="sans-serif" font-size="13" lengthAdjust="spacing" textLength="52" x="2065" y="337.0669">requires</text></g><!--link com_acmeair_web_CustomerREST to com_acmeair_service_CustomerService--><g id="link_com_acmeair_web_CustomerREST_com_acmeair_service_CustomerService"><path d="M203.79,258.59 C258.72,288.33 350.6141,338.0926 405.6741,367.9126 " fill="none" id="com_acmeair_web_CustomerREST-to-com_acmeair_service_CustomerService" style="stroke:#181818;stroke-width:1.0;stroke-dasharray:7.0,7.0;"/><polygon fill="#181818" points="410.95,370.77,404.941,362.9666,406.5534,368.3888,401.1312,370.0012,410.95,370.77" style="stroke:#181818;stroke-width:1.0;"/><text fill="#000000" font-family="sans-serif" font-size="13" lengthAdjust="spacing" textLength="52" x="352" y="337.0669">requires</text></g><!--link com_acmeair_config_AcmeAirConfiguration to com_acmeair_morphia_services_BookingServiceImpl--><g id="link_com_acmeair_config_AcmeAirConfiguration_com_acmeair_morphia_services_BookingServiceImpl"><path d="M2180.59,258.54 C2236.62,275.76 2315.98,300.63 2385,324 C2406.04,331.12 2410.75,334.52 2432,341 C2467.96,351.97 2502.091,360.9479 2537.301,369.5379 " fill="none" id="com_acmeair_config_AcmeAirConfiguration-to-com_acmeair_morphia_services_BookingServiceImpl" style="stroke:#181818;stroke-width:1.0;stroke-dasharray:7.0,7.0;"/><polygon fill="#181818" points="2543.13,370.96,2535.3345,364.9409,2538.2725,369.7749,2533.4384,372.7129,2543.13,370.96" style="stroke:#181818;stroke-width:1.0;"/><text fill="#000000" font-family="sans-serif" font-size="13" lengthAdjust="spacing" textLength="52" x="2433" y="337.0669">requires</text></g><!--link com_acmeair_config_AcmeAirConfiguration to com_acmeair_service_BookingService--><g id="link_com_acmeair_config_AcmeAirConfiguration_com_acmeair_service_BookingService"><path d="M2025.85,258.5 C1985.08,272.41 1936.99,293.59 1901,324 C1885.92,336.75 1876.9391,350.6314 1869.4191,365.5614 " fill="none" id="com_acmeair_config_AcmeAirConfiguration-to-com_acmeair_service_BookingService" style="stroke:#181818;stroke-width:1.0;stroke-dasharray:7.0,7.0;"/><polygon fill="#181818" points="1866.72,370.92,1874.341,364.6814,1868.9692,366.4545,1867.1962,361.0827,1866.72,370.92" style="stroke:#181818;stroke-width:1.0;"/><text fill="#000000" font-family="sans-serif" font-size="13" lengthAdjust="spacing" textLength="52" x="1902" y="337.0669">requires</text></g><!--link com_acmeair_web_RESTCookieSessionFilter to com_acmeair_wxs_utils_WXSSessionManager--><g id="link_com_acmeair_web_RESTCookieSessionFilter_com_acmeair_wxs_utils_WXSSessionManager"><path d="M1698.55,258.59 C1653.5,288.33 1578.8266,337.6433 1533.6766,367.4633 " fill="none" id="com_acmeair_web_RESTCookieSessionFilter-to-com_acmeair_wxs_utils_WXSSessionManager" style="stroke:#181818;stroke-width:1.0;stroke-dasharray:7.0,7.0;"/><polygon fill="#181818" points="1528.67,370.77,1538.3843,369.1477,1532.8422,368.0144,1533.9754,362.4723,1528.67,370.77" style="stroke:#181818;stroke-width:1.0;"/><text fill="#000000" font-family="sans-serif" font-size="13" lengthAdjust="spacing" textLength="52" x="1600" y="337.0669">requires</text></g><!--link AcmeAirConfiguration_requires_Filter to com_acmeair_web_RESTCookieSessionFilter--><g id="link_AcmeAirConfiguration_requires_Filter_com_acmeair_web_RESTCookieSessionFilter"><path d="M1732,116.31 C1732,132.65 1732,182.9 1732,212.35 " fill="none" id="AcmeAirConfiguration_requires_Filter-com_acmeair_web_RESTCookieSessionFilter" style="stroke:#181818;stroke-width:1.0;"/></g><!--link AcmeAirConfiguration_requires_SERVICE_HOST_customer_byid to com_acmeair_web_CustomerREST--><g id="link_AcmeAirConfiguration_requires_SERVICE_HOST_customer_byid_com_acmeair_web_CustomerREST"><path d="M409.75,114.05 C382.35,127.42 271.49,181.54 208.09,212.49 " fill="none" id="AcmeAirConfiguration_requires_SERVICE_HOST_customer_byid-com_acmeair_web_CustomerREST" style="stroke:#181818;stroke-width:1.0;"/></g><!--link AcmeAirConfiguration_requires_com_acmeair_wxs_WXSConstants to com_acmeair_wxs_utils_WXSSessionManager--><g id="link_AcmeAirConfiguration_requires_com_acmeair_wxs_WXSConstants_com_acmeair_wxs_utils_WXSSessionManager"><path d="M2864.84,116.04 C2873.09,139.65 2904.31,240.36 2857,294 C2777.83,383.77 2432.09,316.18 1689,371 C1683.08,371.44 1677.07,371.92 1671,372.43 " fill="none" id="AcmeAirConfiguration_requires_com_acmeair_wxs_WXSConstants-com_acmeair_wxs_utils_WXSSessionManager" style="stroke:#181818;stroke-width:1.0;"/></g><!--link AcmeAirConfiguration_requires_com_acmeair_morphia_MorphiaConstants to com_acmeair_morphia_services_BookingServiceImpl--><g id="link_AcmeAirConfiguration_requires_com_acmeair_morphia_MorphiaConstants_com_acmeair_morphia_services_BookingServiceImpl"><path d="M2946.46,116.24 C2953.8,143.84 2983.97,273.68 2922,341 C2908.85,355.28 2877.53,365.69 2840.34,373.26 " fill="none" id="AcmeAirConfiguration_requires_com_acmeair_morphia_MorphiaConstants-com_acmeair_morphia_services_BookingServiceImpl" style="stroke:#181818;stroke-width:1.0;"/></g><!--link AcmeAirConfiguration_requires_com_acmeair_wxs_WXSConstants to com_acmeair_wxs_service_BookingServiceImpl--><g id="link_AcmeAirConfiguration_requires_com_acmeair_wxs_WXSConstants_com_acmeair_wxs_service_BookingServiceImpl"><path d="M2867.45,116 C2872.83,122.42 2881.58,134.14 2885,146 C2909,229.28 2944.26,277.76 2885,341 C2849.82,378.53 2474.24,366.51 2423,371 C2417.11,371.52 2411.13,372.06 2405.09,372.63 " fill="none" id="AcmeAirConfiguration_requires_com_acmeair_wxs_WXSConstants-com_acmeair_wxs_service_BookingServiceImpl" style="stroke:#181818;stroke-width:1.0;"/></g><!--link AcmeAirConfiguration_requires_SERVICE_HOST_login to com_acmeair_web_LoginREST--><g id="link_AcmeAirConfiguration_requires_SERVICE_HOST_login_com_acmeair_web_LoginREST"><path d="M1192.7,110.83 C1145.3,109.68 839.91,105.06 604,169 C567.31,178.94 528.29,197.6 500.45,212.47 " fill="none" id="AcmeAirConfiguration_requires_SERVICE_HOST_login-com_acmeair_web_LoginREST" style="stroke:#181818;stroke-width:1.0;"/></g><!--link AcmeAirConfiguration_requires_SERVICE_HOST_flights to com_acmeair_web_FlightsREST--><g id="link_AcmeAirConfiguration_requires_SERVICE_HOST_flights_com_acmeair_web_FlightsREST"><path d="M1303.6,114.56 C1278.14,128.72 1182.88,181.72 1127.87,212.32 " fill="none" id="AcmeAirConfiguration_requires_SERVICE_HOST_flights-com_acmeair_web_FlightsREST" style="stroke:#181818;stroke-width:1.0;"/></g><!--link AcmeAirConfiguration_requires_SERVICE_HOST_bookings to com_acmeair_web_BookingsREST--><g id="link_AcmeAirConfiguration_requires_SERVICE_HOST_bookings_com_acmeair_web_BookingsREST"><path d="M2157.24,113.52 C2177.09,121.56 2240.59,147.3 2293,169 C2327.6,183.33 2366.43,199.63 2396.7,212.39 " fill="none" id="AcmeAirConfiguration_requires_SERVICE_HOST_bookings-com_acmeair_web_BookingsREST" style="stroke:#181818;stroke-width:1.0;"/></g><!--link AcmeAirConfiguration_requires_SERVICE_HOST_config to com_acmeair_config_AcmeAirConfiguration--><g id="link_AcmeAirConfiguration_requires_SERVICE_HOST_config_com_acmeair_config_AcmeAirConfiguration"><path d="M2052.49,116.31 C2060.17,132.65 2083.76,182.9 2097.6,212.35 " fill="none" id="AcmeAirConfiguration_requires_SERVICE_HOST_config-com_acmeair_config_AcmeAirConfiguration" style="stroke:#181818;stroke-width:1.0;"/></g><!--link interface.Filter to AcmeAirConfiguration_requires_Filter--><g id="link_interface.Filter_AcmeAirConfiguration_requires_Filter"><path d="M1732,23.01 C1732,41.84 1732,88.45 1732,103.92 " fill="none" id="interface.Filter-AcmeAirConfiguration_requires_Filter" style="stroke:#181818;stroke-width:1.0;"/></g><!--link interface.SERVICE_HOST_bookings to AcmeAirConfiguration_requires_SERVICE_HOST_bookings--><g id="link_interface.SERVICE_HOST_bookings_AcmeAirConfiguration_requires_SERVICE_HOST_bookings"><path d="M2199.48,23.01 C2188.87,41.84 2162.58,88.45 2153.86,103.92 " fill="none" id="interface.SERVICE_HOST_bookings-AcmeAirConfiguration_requires_SERVICE_HOST_bookings" style="stroke:#181818;stroke-width:1.0;"/></g><!--link interface.SERVICE_HOST_config to AcmeAirConfiguration_requires_SERVICE_HOST_config--><g id="link_interface.SERVICE_HOST_config_AcmeAirConfiguration_requires_SERVICE_HOST_config"><path d="M1996.95,23.01 C2008.56,41.84 2037.32,88.45 2046.87,103.92 " fill="none" id="interface.SERVICE_HOST_config-AcmeAirConfiguration_requires_SERVICE_HOST_config" style="stroke:#181818;stroke-width:1.0;"/></g><!--link interface.SERVICE_HOST_customer_byid to AcmeAirConfiguration_requires_SERVICE_HOST_customer_byid--><g id="link_interface.SERVICE_HOST_customer_byid_AcmeAirConfiguration_requires_SERVICE_HOST_customer_byid"><path d="M416,23.01 C416,41.84 416,88.45 416,103.92 " fill="none" id="interface.SERVICE_HOST_customer_byid-AcmeAirConfiguration_requires_SERVICE_HOST_customer_byid" style="stroke:#181818;stroke-width:1.0;"/></g><!--link interface.SERVICE_HOST_flights to AcmeAirConfiguration_requires_SERVICE_HOST_flights--><g id="link_interface.SERVICE_HOST_flights_AcmeAirConfiguration_requires_SERVICE_HOST_flights"><path d="M1335.61,23.01 C1330.01,41.84 1316.12,88.45 1311.51,103.92 " fill="none" id="interface.SERVICE_HOST_flights-AcmeAirConfiguration_requires_SERVICE_HOST_flights" style="stroke:#181818;stroke-width:1.0;"/></g><!--link interface.SERVICE_HOST_login to AcmeAirConfiguration_requires_SERVICE_HOST_login--><g id="link_interface.SERVICE_HOST_login_AcmeAirConfiguration_requires_SERVICE_HOST_login"><path d="M1147.77,23.01 C1158.99,41.84 1186.76,88.45 1195.97,103.92 " fill="none" id="interface.SERVICE_HOST_login-AcmeAirConfiguration_requires_SERVICE_HOST_login" style="stroke:#181818;stroke-width:1.0;"/></g><!--link interface.com_acmeair_morphia_MorphiaConstants to AcmeAirConfiguration_requires_com_acmeair_morphia_MorphiaConstants--><g id="link_interface.com_acmeair_morphia_MorphiaConstants_AcmeAirConfiguration_requires_com_acmeair_morphia_MorphiaConstants"><path d="M3049.67,22.69 C3027.12,41.28 2970.14,88.27 2951.22,103.88 " fill="none" id="interface.com_acmeair_morphia_MorphiaConstants-AcmeAirConfiguration_requires_com_acmeair_morphia_MorphiaConstants" style="stroke:#181818;stroke-width:1.0;"/></g><!--link interface.com_acmeair_wxs_WXSConstants to AcmeAirConfiguration_requires_com_acmeair_wxs_WXSConstants--><g id="link_interface.com_acmeair_wxs_WXSConstants_AcmeAirConfiguration_requires_com_acmeair_wxs_WXSConstants"><path d="M2758.33,22.69 C2780.88,41.28 2837.86,88.27 2856.78,103.88 " fill="none" id="interface.com_acmeair_wxs_WXSConstants-AcmeAirConfiguration_requires_com_acmeair_wxs_WXSConstants" style="stroke:#181818;stroke-width:1.0;"/></g><!--link com_acmeair_config_LoaderREST to com_acmeair_loader_Loader--><g id="link_com_acmeair_config_LoaderREST_com_acmeair_loader_Loader"><path d="M3507,258.59 C3507,288.33 3507,334.95 3507,364.77 " fill="none" id="com_acmeair_config_LoaderREST-to-com_acmeair_loader_Loader" style="stroke:#181818;stroke-width:1.0;stroke-dasharray:7.0,7.0;"/><polygon fill="#181818" points="3507,370.77,3511,361.77,3507,365.77,3503,361.77,3507,370.77" style="stroke:#181818;stroke-width:1.0;"/><text fill="#000000" font-family="sans-serif" font-size="13" lengthAdjust="spacing" textLength="52" x="3508" y="337.0669">requires</text></g><!--link LoaderREST_requires_SERVICE_HOST_loader to com_acmeair_config_LoaderREST--><g id="link_LoaderREST_requires_SERVICE_HOST_loader_com_acmeair_config_LoaderREST"><path d="M3334.37,115.4 C3356.54,130.69 3431.34,182.3 3474.86,212.33 " fill="none" id="LoaderREST_requires_SERVICE_HOST_loader-com_acmeair_config_LoaderREST" style="stroke:#181818;stroke-width:1.0;"/></g><!--link interface.SERVICE_HOST_loader to LoaderREST_requires_SERVICE_HOST_loader--><g id="link_interface.SERVICE_HOST_loader_LoaderREST_requires_SERVICE_HOST_loader"><path d="M3328,23.01 C3328,41.84 3328,88.45 3328,103.92 " fill="none" id="interface.SERVICE_HOST_loader-LoaderREST_requires_SERVICE_HOST_loader" style="stroke:#181818;stroke-width:1.0;"/></g><!--SRC=[lLXHRvim47xFhq1-J_g-XqbTb6vLKrKgqJPfgv137MeDR6P3rshgVvyDfi5W6vjq5GzHyF7TTyVT-JFy5oObPB283lXfZLcQeotSe_pc4R4SbYKcMLIn6YrIMfIK8595fCxpyxH0vvYjAJdWh6QmmfJyx5tI9lgx-26UIg2mXPWb7B57dABa8iVPGnMt_-vqcvp2UyIKoRRvCx3uW_PgcTzkujsTsSSdIaLWcTb9PtI5dZyZWWHxoYmcEmO9XwaCpumbwIXd9ZvoULtpYXQ8EUXs9XOVJpofAvppvDltE4QS2pRNaC1id1nXQKx1PL7cvbntletPBYWh7p3iGFaqgenuIpDCBDcGjzSI1Ab8Bd1UZVocJM4bfZAxMvIKLPX4G5oGHoQRXA7VDMQ2Rxov_NgvtYHVRk9TagfGa_qplfyFirVlUpx2eItW-G2vp73GussQJyXTOnFqlAcGhjjVyGIl80bCmR3KHJiSWRmhRRNwwDM4qOUey-mUGJP0VT1PuMp-RR3Qs7AIr0RJ4CwdjQtehlvya_mUHyZ9SAOzvSHNDYTyJ-WvbMlOfQQoCPZw9oSv92CJkzJyalvlm1PPuGJKjlrtpU-xTtP8MdnhsoLw-Ww0pxO7baj_8GBcAWgJ5rtyWVdxsmZS9Gh1wHlpq9-N4dpZ-5nI5eIg9TFRwGbL42xVJ8ZQqGJC49KcKFs00O9Lsn3JgQvV5fY8FZZ054L0jO-KPgztLqfA3cyibtwzsCTNP9UIxDbh2dHtPkqziJv9nfnyApULI0Sp9P2Tgs6ib4yx9pLRpfhXuwAcdNjyZ0A9QbFGohTh6mVJxc3aNWvZrxcrych7WuDLUzfoBOOnQXts-NXDP9sXr-agp7mo2Y-QjhX64zyUp-XmvsSMn7z4P_29grN6SkHEVTXIajhu0KMDsYFOyFF5SSLQBD9W2dKedtHEcc3oz6ZPDFgHl3XQge5mzbGJbdDLl4zViej_]--></g></svg>