<?xml version="1.0" encoding="us-ascii" standalone="no"?><svg xmlns="http://www.w3.org/2000/svg" xmlns:xlink="http://www.w3.org/1999/xlink" contentStyleType="text/css" height="562px" preserveAspectRatio="none" style="width:3463px;height:562px;background:#FFFFFF;" version="1.1" viewBox="0 0 3463 562" width="3463px" zoomAndPan="magnify"><defs/><g><!--cluster AcmeAirConfiguration\n\n\n\n\n\n--><g id="cluster_AcmeAirConfiguration\n\n\n\n\n\n"><rect fill="none" height="446" rx="2.5" ry="2.5" style="stroke:#181818;stroke-width:1.0;" width="2880" x="104.5" y="110"/><rect fill="none" height="10" style="stroke:#181818;stroke-width:1.0;" width="15" x="2964.5" y="115"/><rect fill="none" height="2" style="stroke:#181818;stroke-width:1.0;" width="4" x="2962.5" y="117"/><rect fill="none" height="2" style="stroke:#181818;stroke-width:1.0;" width="4" x="2962.5" y="121"/><text fill="#000000" font-family="sans-serif" font-size="14" font-weight="bold" lengthAdjust="spacing" textLength="173" x="1458" y="135.9951">AcmeAirConfiguration</text><text fill="#000000" font-family="sans-serif" font-size="14" font-weight="bold" lengthAdjust="spacing" textLength="5" x="1542" y="152.292">&#160;</text><text fill="#000000" font-family="sans-serif" font-size="14" font-weight="bold" lengthAdjust="spacing" textLength="5" x="1542" y="168.5889">&#160;</text><text fill="#000000" font-family="sans-serif" font-size="14" font-weight="bold" lengthAdjust="spacing" textLength="5" x="1542" y="184.8857">&#160;</text><text fill="#000000" font-family="sans-serif" font-size="14" font-weight="bold" lengthAdjust="spacing" textLength="5" x="1542" y="201.1826">&#160;</text><text fill="#000000" font-family="sans-serif" font-size="14" font-weight="bold" lengthAdjust="spacing" textLength="5" x="1542" y="217.4795">&#160;</text><text fill="#000000" font-family="sans-serif" font-size="14" font-weight="bold" lengthAdjust="spacing" textLength="5" x="1542" y="233.7764">&#160;</text></g><!--cluster LoaderREST\n\n\n\n\n\n--><g id="cluster_LoaderREST\n\n\n\n\n\n"><rect fill="none" height="323" rx="2.5" ry="2.5" style="stroke:#181818;stroke-width:1.0;" width="381" x="3076.5" y="110"/><rect fill="none" height="10" style="stroke:#181818;stroke-width:1.0;" width="15" x="3437.5" y="115"/><rect fill="none" height="2" style="stroke:#181818;stroke-width:1.0;" width="4" x="3435.5" y="117"/><rect fill="none" height="2" style="stroke:#181818;stroke-width:1.0;" width="4" x="3435.5" y="121"/><text fill="#000000" font-family="sans-serif" font-size="14" font-weight="bold" lengthAdjust="spacing" textLength="94" x="3220" y="135.9951">LoaderREST</text><text fill="#000000" font-family="sans-serif" font-size="14" font-weight="bold" lengthAdjust="spacing" textLength="5" x="3264.5" y="152.292">&#160;</text><text fill="#000000" font-family="sans-serif" font-size="14" font-weight="bold" lengthAdjust="spacing" textLength="5" x="3264.5" y="168.5889">&#160;</text><text fill="#000000" font-family="sans-serif" font-size="14" font-weight="bold" lengthAdjust="spacing" textLength="5" x="3264.5" y="184.8857">&#160;</text><text fill="#000000" font-family="sans-serif" font-size="14" font-weight="bold" lengthAdjust="spacing" textLength="5" x="3264.5" y="201.1826">&#160;</text><text fill="#000000" font-family="sans-serif" font-size="14" font-weight="bold" lengthAdjust="spacing" textLength="5" x="3264.5" y="217.4795">&#160;</text><text fill="#000000" font-family="sans-serif" font-size="14" font-weight="bold" lengthAdjust="spacing" textLength="5" x="3264.5" y="233.7764">&#160;</text></g><!--entity com_acmeair_service_TransactionService--><g id="elem_com_acmeair_service_TransactionService"><rect fill="#F1F1F1" height="46.2969" rx="2.5" ry="2.5" style="stroke:#181818;stroke-width:0.5;" width="325" x="2025" y="371"/><rect fill="#F1F1F1" height="10" style="stroke:#181818;stroke-width:0.5;" width="15" x="2330" y="376"/><rect fill="#F1F1F1" height="2" style="stroke:#181818;stroke-width:0.5;" width="4" x="2328" y="378"/><rect fill="#F1F1F1" height="2" style="stroke:#181818;stroke-width:0.5;" width="4" x="2328" y="382"/><text fill="#000000" font-family="sans-serif" font-size="14" lengthAdjust="spacing" textLength="285" x="2040" y="403.9951">com_acmeair_service_TransactionService</text></g><!--entity com_acmeair_service_KeyGenerator--><g id="elem_com_acmeair_service_KeyGenerator"><rect fill="#F1F1F1" height="46.2969" rx="2.5" ry="2.5" style="stroke:#181818;stroke-width:0.5;" width="289" x="2397" y="494"/><rect fill="#F1F1F1" height="10" style="stroke:#181818;stroke-width:0.5;" width="15" x="2666" y="499"/><rect fill="#F1F1F1" height="2" style="stroke:#181818;stroke-width:0.5;" width="4" x="2664" y="501"/><rect fill="#F1F1F1" height="2" style="stroke:#181818;stroke-width:0.5;" width="4" x="2664" y="505"/><text fill="#000000" font-family="sans-serif" font-size="14" lengthAdjust="spacing" textLength="249" x="2412" y="526.9951">com_acmeair_service_KeyGenerator</text></g><!--entity com_acmeair_service_FlightService--><g id="elem_com_acmeair_service_FlightService"><rect fill="#F1F1F1" height="46.2969" rx="2.5" ry="2.5" style="stroke:#181818;stroke-width:0.5;" width="281" x="1709" y="371"/><rect fill="#F1F1F1" height="10" style="stroke:#181818;stroke-width:0.5;" width="15" x="1970" y="376"/><rect fill="#F1F1F1" height="2" style="stroke:#181818;stroke-width:0.5;" width="4" x="1968" y="378"/><rect fill="#F1F1F1" height="2" style="stroke:#181818;stroke-width:0.5;" width="4" x="1968" y="382"/><text fill="#000000" font-family="sans-serif" font-size="14" lengthAdjust="spacing" textLength="241" x="1724" y="403.9951">com_acmeair_service_FlightService</text></g><!--entity com_acmeair_web_LoginREST--><g id="elem_com_acmeair_web_LoginREST"><rect fill="#F1F1F1" height="46.2969" rx="2.5" ry="2.5" style="stroke:#181818;stroke-width:0.5;" width="248" x="2691.5" y="212.5"/><rect fill="#F1F1F1" height="10" style="stroke:#181818;stroke-width:0.5;" width="15" x="2919.5" y="217.5"/><rect fill="#F1F1F1" height="2" style="stroke:#181818;stroke-width:0.5;" width="4" x="2917.5" y="219.5"/><rect fill="#F1F1F1" height="2" style="stroke:#181818;stroke-width:0.5;" width="4" x="2917.5" y="223.5"/><text fill="#000000" font-family="sans-serif" font-size="14" lengthAdjust="spacing" textLength="208" x="2706.5" y="245.4951">com_acmeair_web_LoginREST</text></g><!--entity com_acmeair_web_BookingsREST--><g id="elem_com_acmeair_web_BookingsREST"><rect fill="#F1F1F1" height="46.2969" rx="2.5" ry="2.5" style="stroke:#181818;stroke-width:0.5;" width="276" x="152.5" y="212.5"/><rect fill="#F1F1F1" height="10" style="stroke:#181818;stroke-width:0.5;" width="15" x="408.5" y="217.5"/><rect fill="#F1F1F1" height="2" style="stroke:#181818;stroke-width:0.5;" width="4" x="406.5" y="219.5"/><rect fill="#F1F1F1" height="2" style="stroke:#181818;stroke-width:0.5;" width="4" x="406.5" y="223.5"/><text fill="#000000" font-family="sans-serif" font-size="14" lengthAdjust="spacing" textLength="236" x="167.5" y="245.4951">com_acmeair_web_BookingsREST</text></g><!--entity com_acmeair_config_AcmeAirConfiguration--><g id="elem_com_acmeair_config_AcmeAirConfiguration"><rect fill="#F1F1F1" height="46.2969" rx="2.5" ry="2.5" style="stroke:#181818;stroke-width:0.5;" width="335" x="464" y="212.5"/><rect fill="#F1F1F1" height="10" style="stroke:#181818;stroke-width:0.5;" width="15" x="779" y="217.5"/><rect fill="#F1F1F1" height="2" style="stroke:#181818;stroke-width:0.5;" width="4" x="777" y="219.5"/><rect fill="#F1F1F1" height="2" style="stroke:#181818;stroke-width:0.5;" width="4" x="777" y="223.5"/><text fill="#000000" font-family="sans-serif" font-size="14" lengthAdjust="spacing" textLength="295" x="479" y="245.4951">com_acmeair_config_AcmeAirConfiguration</text></g><!--entity com_acmeair_service_CustomerService--><g id="elem_com_acmeair_service_CustomerService"><rect fill="#F1F1F1" height="46.2969" rx="2.5" ry="2.5" style="stroke:#181818;stroke-width:0.5;" width="312" x="2385.5" y="371"/><rect fill="#F1F1F1" height="10" style="stroke:#181818;stroke-width:0.5;" width="15" x="2677.5" y="376"/><rect fill="#F1F1F1" height="2" style="stroke:#181818;stroke-width:0.5;" width="4" x="2675.5" y="378"/><rect fill="#F1F1F1" height="2" style="stroke:#181818;stroke-width:0.5;" width="4" x="2675.5" y="382"/><text fill="#000000" font-family="sans-serif" font-size="14" lengthAdjust="spacing" textLength="272" x="2400.5" y="403.9951">com_acmeair_service_CustomerService</text></g><!--entity com_acmeair_web_RESTCookieSessionFilter--><g id="elem_com_acmeair_web_RESTCookieSessionFilter"><rect fill="#F1F1F1" height="46.2969" rx="2.5" ry="2.5" style="stroke:#181818;stroke-width:0.5;" width="347" x="1433" y="212.5"/><rect fill="#F1F1F1" height="10" style="stroke:#181818;stroke-width:0.5;" width="15" x="1760" y="217.5"/><rect fill="#F1F1F1" height="2" style="stroke:#181818;stroke-width:0.5;" width="4" x="1758" y="219.5"/><rect fill="#F1F1F1" height="2" style="stroke:#181818;stroke-width:0.5;" width="4" x="1758" y="223.5"/><text fill="#000000" font-family="sans-serif" font-size="14" lengthAdjust="spacing" textLength="307" x="1448" y="245.4951">com_acmeair_web_RESTCookieSessionFilter</text></g><!--entity com_acmeair_loader_CustomerLoader--><g id="elem_com_acmeair_loader_CustomerLoader"><rect fill="#F1F1F1" height="46.2969" rx="2.5" ry="2.5" style="stroke:#181818;stroke-width:0.5;" width="303" x="1815" y="212.5"/><rect fill="#F1F1F1" height="10" style="stroke:#181818;stroke-width:0.5;" width="15" x="2098" y="217.5"/><rect fill="#F1F1F1" height="2" style="stroke:#181818;stroke-width:0.5;" width="4" x="2096" y="219.5"/><rect fill="#F1F1F1" height="2" style="stroke:#181818;stroke-width:0.5;" width="4" x="2096" y="223.5"/><text fill="#000000" font-family="sans-serif" font-size="14" lengthAdjust="spacing" textLength="263" x="1830" y="245.4951">com_acmeair_loader_CustomerLoader</text></g><!--entity com_acmeair_web_FlightsREST--><g id="elem_com_acmeair_web_FlightsREST"><rect fill="#F1F1F1" height="46.2969" rx="2.5" ry="2.5" style="stroke:#181818;stroke-width:0.5;" width="256" x="1141.5" y="212.5"/><rect fill="#F1F1F1" height="10" style="stroke:#181818;stroke-width:0.5;" width="15" x="1377.5" y="217.5"/><rect fill="#F1F1F1" height="2" style="stroke:#181818;stroke-width:0.5;" width="4" x="1375.5" y="219.5"/><rect fill="#F1F1F1" height="2" style="stroke:#181818;stroke-width:0.5;" width="4" x="1375.5" y="223.5"/><text fill="#000000" font-family="sans-serif" font-size="14" lengthAdjust="spacing" textLength="216" x="1156.5" y="245.4951">com_acmeair_web_FlightsREST</text></g><!--entity com_acmeair_wxs_service_BookingServiceImpl--><g id="elem_com_acmeair_wxs_service_BookingServiceImpl"><rect fill="#F1F1F1" height="46.2969" rx="2.5" ry="2.5" style="stroke:#181818;stroke-width:0.5;" width="362" x="152.5" y="371"/><rect fill="#F1F1F1" height="10" style="stroke:#181818;stroke-width:0.5;" width="15" x="494.5" y="376"/><rect fill="#F1F1F1" height="2" style="stroke:#181818;stroke-width:0.5;" width="4" x="492.5" y="378"/><rect fill="#F1F1F1" height="2" style="stroke:#181818;stroke-width:0.5;" width="4" x="492.5" y="382"/><text fill="#000000" font-family="sans-serif" font-size="14" lengthAdjust="spacing" textLength="322" x="167.5" y="403.9951">com_acmeair_wxs_service_BookingServiceImpl</text></g><!--entity com_acmeair_service_BookingService--><g id="elem_com_acmeair_service_BookingService"><rect fill="#F1F1F1" height="46.2969" rx="2.5" ry="2.5" style="stroke:#181818;stroke-width:0.5;" width="301" x="550" y="371"/><rect fill="#F1F1F1" height="10" style="stroke:#181818;stroke-width:0.5;" width="15" x="831" y="376"/><rect fill="#F1F1F1" height="2" style="stroke:#181818;stroke-width:0.5;" width="4" x="829" y="378"/><rect fill="#F1F1F1" height="2" style="stroke:#181818;stroke-width:0.5;" width="4" x="829" y="382"/><text fill="#000000" font-family="sans-serif" font-size="14" lengthAdjust="spacing" textLength="261" x="565" y="403.9951">com_acmeair_service_BookingService</text></g><!--entity com_acmeair_morphia_services_BookingServiceImpl--><g id="elem_com_acmeair_morphia_services_BookingServiceImpl"><rect fill="#F1F1F1" height="46.2969" rx="2.5" ry="2.5" style="stroke:#181818;stroke-width:0.5;" width="400" x="1273.5" y="371"/><rect fill="#F1F1F1" height="10" style="stroke:#181818;stroke-width:0.5;" width="15" x="1653.5" y="376"/><rect fill="#F1F1F1" height="2" style="stroke:#181818;stroke-width:0.5;" width="4" x="1651.5" y="378"/><rect fill="#F1F1F1" height="2" style="stroke:#181818;stroke-width:0.5;" width="4" x="1651.5" y="382"/><text fill="#000000" font-family="sans-serif" font-size="14" lengthAdjust="spacing" textLength="360" x="1288.5" y="403.9951">com_acmeair_morphia_services_BookingServiceImpl</text></g><!--entity com_acmeair_web_CustomerREST--><g id="elem_com_acmeair_web_CustomerREST"><rect fill="#F1F1F1" height="46.2969" rx="2.5" ry="2.5" style="stroke:#181818;stroke-width:0.5;" width="279" x="2153" y="212.5"/><rect fill="#F1F1F1" height="10" style="stroke:#181818;stroke-width:0.5;" width="15" x="2412" y="217.5"/><rect fill="#F1F1F1" height="2" style="stroke:#181818;stroke-width:0.5;" width="4" x="2410" y="219.5"/><rect fill="#F1F1F1" height="2" style="stroke:#181818;stroke-width:0.5;" width="4" x="2410" y="223.5"/><text fill="#000000" font-family="sans-serif" font-size="14" lengthAdjust="spacing" textLength="239" x="2168" y="245.4951">com_acmeair_web_CustomerREST</text></g><!--entity com_acmeair_loader_FlightLoader--><g id="elem_com_acmeair_loader_FlightLoader"><rect fill="#F1F1F1" height="46.2969" rx="2.5" ry="2.5" style="stroke:#181818;stroke-width:0.5;" width="272" x="834.5" y="212.5"/><rect fill="#F1F1F1" height="10" style="stroke:#181818;stroke-width:0.5;" width="15" x="1086.5" y="217.5"/><rect fill="#F1F1F1" height="2" style="stroke:#181818;stroke-width:0.5;" width="4" x="1084.5" y="219.5"/><rect fill="#F1F1F1" height="2" style="stroke:#181818;stroke-width:0.5;" width="4" x="1084.5" y="223.5"/><text fill="#000000" font-family="sans-serif" font-size="14" lengthAdjust="spacing" textLength="232" x="849.5" y="245.4951">com_acmeair_loader_FlightLoader</text></g><!--entity com_acmeair_wxs_utils_WXSSessionManager--><g id="elem_com_acmeair_wxs_utils_WXSSessionManager"><rect fill="#F1F1F1" height="46.2969" rx="2.5" ry="2.5" style="stroke:#181818;stroke-width:0.5;" width="352" x="886.5" y="371"/><rect fill="#F1F1F1" height="10" style="stroke:#181818;stroke-width:0.5;" width="15" x="1218.5" y="376"/><rect fill="#F1F1F1" height="2" style="stroke:#181818;stroke-width:0.5;" width="4" x="1216.5" y="378"/><rect fill="#F1F1F1" height="2" style="stroke:#181818;stroke-width:0.5;" width="4" x="1216.5" y="382"/><text fill="#000000" font-family="sans-serif" font-size="14" lengthAdjust="spacing" textLength="312" x="901.5" y="403.9951">com_acmeair_wxs_utils_WXSSessionManager</text></g><text fill="#000000" font-family="sans-serif" font-size="14" lengthAdjust="spacing" textLength="4" x="592.5" y="88.6982">&#160;</text><rect fill="#F1F1F1" height="12" style="stroke:#181818;stroke-width:1.5;" width="12" x="588.5" y="104"/><text fill="#000000" font-family="sans-serif" font-size="14" lengthAdjust="spacing" textLength="4" x="445.5" y="88.6982">&#160;</text><rect fill="#F1F1F1" height="12" style="stroke:#181818;stroke-width:1.5;" width="12" x="441.5" y="104"/><text fill="#000000" font-family="sans-serif" font-size="14" lengthAdjust="spacing" textLength="4" x="716.5" y="88.6982">&#160;</text><rect fill="#F1F1F1" height="12" style="stroke:#181818;stroke-width:1.5;" width="12" x="712.5" y="104"/><text fill="#000000" font-family="sans-serif" font-size="14" lengthAdjust="spacing" textLength="4" x="120.5" y="88.6982">&#160;</text><rect fill="#F1F1F1" height="12" style="stroke:#181818;stroke-width:1.5;" width="12" x="116.5" y="104"/><text fill="#000000" font-family="sans-serif" font-size="14" lengthAdjust="spacing" textLength="4" x="1604.5" y="88.6982">&#160;</text><rect fill="#F1F1F1" height="12" style="stroke:#181818;stroke-width:1.5;" width="12" x="1600.5" y="104"/><text fill="#000000" font-family="sans-serif" font-size="14" lengthAdjust="spacing" textLength="4" x="2715.5" y="88.6982">&#160;</text><rect fill="#F1F1F1" height="12" style="stroke:#181818;stroke-width:1.5;" width="12" x="2711.5" y="104"/><text fill="#000000" font-family="sans-serif" font-size="14" lengthAdjust="spacing" textLength="4" x="2406.5" y="88.6982">&#160;</text><rect fill="#F1F1F1" height="12" style="stroke:#181818;stroke-width:1.5;" width="12" x="2402.5" y="104"/><text fill="#000000" font-family="sans-serif" font-size="14" lengthAdjust="spacing" textLength="4" x="2559.5" y="88.6982">&#160;</text><rect fill="#F1F1F1" height="12" style="stroke:#181818;stroke-width:1.5;" width="12" x="2555.5" y="104"/><!--entity com_acmeair_config_LoaderREST--><g id="elem_com_acmeair_config_LoaderREST"><rect fill="#F1F1F1" height="46.2969" rx="2.5" ry="2.5" style="stroke:#181818;stroke-width:0.5;" width="271" x="3170" y="212.5"/><rect fill="#F1F1F1" height="10" style="stroke:#181818;stroke-width:0.5;" width="15" x="3421" y="217.5"/><rect fill="#F1F1F1" height="2" style="stroke:#181818;stroke-width:0.5;" width="4" x="3419" y="219.5"/><rect fill="#F1F1F1" height="2" style="stroke:#181818;stroke-width:0.5;" width="4" x="3419" y="223.5"/><text fill="#000000" font-family="sans-serif" font-size="14" lengthAdjust="spacing" textLength="231" x="3185" y="245.4951">com_acmeair_config_LoaderREST</text></g><!--entity com_acmeair_loader_Loader--><g id="elem_com_acmeair_loader_Loader"><rect fill="#F1F1F1" height="46.2969" rx="2.5" ry="2.5" style="stroke:#181818;stroke-width:0.5;" width="235" x="3188" y="371"/><rect fill="#F1F1F1" height="10" style="stroke:#181818;stroke-width:0.5;" width="15" x="3403" y="376"/><rect fill="#F1F1F1" height="2" style="stroke:#181818;stroke-width:0.5;" width="4" x="3401" y="378"/><rect fill="#F1F1F1" height="2" style="stroke:#181818;stroke-width:0.5;" width="4" x="3401" y="382"/><text fill="#000000" font-family="sans-serif" font-size="14" lengthAdjust="spacing" textLength="195" x="3203" y="403.9951">com_acmeair_loader_Loader</text></g><text fill="#000000" font-family="sans-serif" font-size="14" lengthAdjust="spacing" textLength="4" x="3092.5" y="88.6982">&#160;</text><rect fill="#F1F1F1" height="12" style="stroke:#181818;stroke-width:1.5;" width="12" x="3088.5" y="104"/><!--entity interface.Filter--><g id="elem_interface.Filter"><ellipse cx="1606.5" cy="14" fill="#F1F1F1" rx="8" ry="8" style="stroke:#181818;stroke-width:0.5;"/><text fill="#000000" font-family="sans-serif" font-size="14" lengthAdjust="spacing" textLength="33" x="1590" y="43.9951">Filter</text></g><!--entity interface.SERVICE_HOST_bookings--><g id="elem_interface.SERVICE_HOST_bookings"><ellipse cx="382.5" cy="14" fill="#F1F1F1" rx="8" ry="8" style="stroke:#181818;stroke-width:0.5;"/><text fill="#000000" font-family="sans-serif" font-size="14" lengthAdjust="spacing" textLength="172" x="296.5" y="43.9951">SERVICE-HOST/bookings</text></g><!--entity interface.SERVICE_HOST_config--><g id="elem_interface.SERVICE_HOST_config"><ellipse cx="594.5" cy="14" fill="#F1F1F1" rx="8" ry="8" style="stroke:#181818;stroke-width:0.5;"/><text fill="#000000" font-family="sans-serif" font-size="14" lengthAdjust="spacing" textLength="150" x="519.5" y="43.9951">SERVICE-HOST/config</text></g><!--entity interface.SERVICE_HOST_customer_byid--><g id="elem_interface.SERVICE_HOST_customer_byid"><ellipse cx="2337.5" cy="14" fill="#F1F1F1" rx="8" ry="8" style="stroke:#181818;stroke-width:0.5;"/><text fill="#000000" font-family="sans-serif" font-size="14" lengthAdjust="spacing" textLength="207" x="2234" y="43.9951">SERVICE-HOST/customer/byid</text></g><!--entity interface.SERVICE_HOST_flights--><g id="elem_interface.SERVICE_HOST_flights"><ellipse cx="794.5" cy="14" fill="#F1F1F1" rx="8" ry="8" style="stroke:#181818;stroke-width:0.5;"/><text fill="#000000" font-family="sans-serif" font-size="14" lengthAdjust="spacing" textLength="149" x="720" y="43.9951">SERVICE-HOST/flights</text></g><!--entity interface.SERVICE_HOST_login--><g id="elem_interface.SERVICE_HOST_login"><ellipse cx="2561.5" cy="14" fill="#F1F1F1" rx="8" ry="8" style="stroke:#181818;stroke-width:0.5;"/><text fill="#000000" font-family="sans-serif" font-size="14" lengthAdjust="spacing" textLength="141" x="2491" y="43.9951">SERVICE-HOST/login</text></g><!--entity interface.com_acmeair_morphia_MorphiaConstants--><g id="elem_interface.com_acmeair_morphia_MorphiaConstants"><ellipse cx="2825.5" cy="14" fill="#F1F1F1" rx="8" ry="8" style="stroke:#181818;stroke-width:0.5;"/><text fill="#000000" font-family="sans-serif" font-size="14" lengthAdjust="spacing" textLength="287" x="2682" y="43.9951">com_acmeair_morphia_MorphiaConstants</text></g><!--entity interface.com_acmeair_wxs_WXSConstants--><g id="elem_interface.com_acmeair_wxs_WXSConstants"><ellipse cx="122.5" cy="14" fill="#F1F1F1" rx="8" ry="8" style="stroke:#181818;stroke-width:0.5;"/><text fill="#000000" font-family="sans-serif" font-size="14" lengthAdjust="spacing" textLength="233" x="6" y="43.9951">com_acmeair_wxs_WXSConstants</text></g><!--entity interface.SERVICE_HOST_loader--><g id="elem_interface.SERVICE_HOST_loader"><ellipse cx="3094.5" cy="14" fill="#F1F1F1" rx="8" ry="8" style="stroke:#181818;stroke-width:0.5;"/><text fill="#000000" font-family="sans-serif" font-size="14" lengthAdjust="spacing" textLength="151" x="3019" y="43.9951">SERVICE-HOST/loader</text></g><!--link com_acmeair_loader_CustomerLoader to com_acmeair_service_CustomerService--><g id="link_com_acmeair_loader_CustomerLoader_com_acmeair_service_CustomerService"><path d="M2027.1,258.57 C2059.12,269.87 2099.2,283.42 2135.5,294 C2238.41,323.99 2351.9169,351.0203 2434.4569,369.6303 " fill="none" id="com_acmeair_loader_CustomerLoader-to-com_acmeair_service_CustomerService" style="stroke:#181818;stroke-width:1.0;stroke-dasharray:7.0,7.0;"/><polygon fill="#181818" points="2440.31,370.95,2432.4102,365.0684,2435.4324,369.8503,2430.6506,372.8725,2440.31,370.95" style="stroke:#181818;stroke-width:1.0;"/><text fill="#000000" font-family="sans-serif" font-size="13" lengthAdjust="spacing" textLength="52" x="2313.5" y="337.0669">requires</text></g><!--link com_acmeair_web_CustomerREST to com_acmeair_service_CustomerService--><g id="link_com_acmeair_web_CustomerREST_com_acmeair_service_CustomerService"><path d="M2327.65,258.59 C2374.97,288.33 2453.6102,337.7569 2501.0502,367.5769 " fill="none" id="com_acmeair_web_CustomerREST-to-com_acmeair_service_CustomerService" style="stroke:#181818;stroke-width:1.0;stroke-dasharray:7.0,7.0;"/><polygon fill="#181818" points="2506.13,370.77,2500.639,362.5939,2501.8968,368.1091,2496.3816,369.3669,2506.13,370.77" style="stroke:#181818;stroke-width:1.0;"/><text fill="#000000" font-family="sans-serif" font-size="13" lengthAdjust="spacing" textLength="52" x="2454.5" y="337.0669">requires</text></g><!--link com_acmeair_web_RESTCookieSessionFilter to com_acmeair_service_CustomerService--><g id="link_com_acmeair_web_RESTCookieSessionFilter_com_acmeair_service_CustomerService"><path d="M1670.37,258.53 C1707.17,270.51 1754.51,284.73 1797.5,294 C1825.88,300.12 2169.4896,344.9402 2379.2096,372.0702 " fill="none" id="com_acmeair_web_RESTCookieSessionFilter-to-com_acmeair_service_CustomerService" style="stroke:#181818;stroke-width:1.0;stroke-dasharray:7.0,7.0;"/><polygon fill="#181818" points="2385.16,372.84,2376.7476,367.7184,2380.2013,372.1985,2375.7212,375.6523,2385.16,372.84" style="stroke:#181818;stroke-width:1.0;"/><text fill="#000000" font-family="sans-serif" font-size="13" lengthAdjust="spacing" textLength="52" x="2120.5" y="337.0669">requires</text></g><!--link com_acmeair_loader_FlightLoader to com_acmeair_service_FlightService--><g id="link_com_acmeair_loader_FlightLoader_com_acmeair_service_FlightService"><path d="M1018.66,258.56 C1048.5,271.18 1087.97,286.05 1124.5,294 C1308.23,333.96 1364.6,276.37 1546.5,324 C1563.62,328.48 1565.69,335.49 1582.5,341 C1622.78,354.2 1661.7359,363.4175 1703.0059,371.2775 " fill="none" id="com_acmeair_loader_FlightLoader-to-com_acmeair_service_FlightService" style="stroke:#181818;stroke-width:1.0;stroke-dasharray:7.0,7.0;"/><polygon fill="#181818" points="1708.9,372.4,1700.8073,366.7868,1703.9883,371.4645,1699.3106,374.6456,1708.9,372.4" style="stroke:#181818;stroke-width:1.0;"/><text fill="#000000" font-family="sans-serif" font-size="13" lengthAdjust="spacing" textLength="52" x="1583.5" y="337.0669">requires</text></g><!--link com_acmeair_web_BookingsREST to com_acmeair_wxs_service_BookingServiceImpl--><g id="link_com_acmeair_web_BookingsREST_com_acmeair_wxs_service_BookingServiceImpl"><path d="M296.57,258.59 C304.74,288.33 317.611,335.1642 325.801,364.9842 " fill="none" id="com_acmeair_web_BookingsREST-to-com_acmeair_wxs_service_BookingServiceImpl" style="stroke:#181818;stroke-width:1.0;stroke-dasharray:7.0,7.0;"/><polygon fill="#181818" points="327.39,370.77,328.8636,361.032,326.0658,365.9485,321.1493,363.1507,327.39,370.77" style="stroke:#181818;stroke-width:1.0;"/><text fill="#000000" font-family="sans-serif" font-size="13" lengthAdjust="spacing" textLength="52" x="319.5" y="337.0669">requires</text></g><!--link com_acmeair_web_FlightsREST to com_acmeair_service_FlightService--><g id="link_com_acmeair_web_FlightsREST_com_acmeair_service_FlightService"><path d="M1316.85,258.57 C1344.95,270.79 1381.61,285.25 1415.5,294 C1514.89,319.67 1545.72,296.08 1644.5,324 C1662.3,329.03 1665.19,334.46 1682.5,341 C1711.33,351.89 1737.8088,360.5768 1766.1988,369.1968 " fill="none" id="com_acmeair_web_FlightsREST-to-com_acmeair_service_FlightService" style="stroke:#181818;stroke-width:1.0;stroke-dasharray:7.0,7.0;"/><polygon fill="#181818" points="1771.94,370.94,1764.4903,364.4978,1767.1557,369.4873,1762.1661,372.1527,1771.94,370.94" style="stroke:#181818;stroke-width:1.0;"/><text fill="#000000" font-family="sans-serif" font-size="13" lengthAdjust="spacing" textLength="52" x="1683.5" y="337.0669">requires</text></g><!--link com_acmeair_web_BookingsREST to com_acmeair_morphia_services_BookingServiceImpl--><g id="link_com_acmeair_web_BookingsREST_com_acmeair_morphia_services_BookingServiceImpl"><path d="M338.2,258.53 C368.52,271.41 408.99,286.55 446.5,294 C781.55,360.55 881.52,247.77 1214.5,324 C1232.93,328.22 1235.56,335.02 1253.5,341 C1288.59,352.69 1321.8229,361.474 1357.1829,369.614 " fill="none" id="com_acmeair_web_BookingsREST-to-com_acmeair_morphia_services_BookingServiceImpl" style="stroke:#181818;stroke-width:1.0;stroke-dasharray:7.0,7.0;"/><polygon fill="#181818" points="1363.03,370.96,1355.1567,365.0429,1358.1574,369.8383,1353.362,372.839,1363.03,370.96" style="stroke:#181818;stroke-width:1.0;"/><text fill="#000000" font-family="sans-serif" font-size="13" lengthAdjust="spacing" textLength="52" x="1254.5" y="337.0669">requires</text></g><!--link com_acmeair_config_AcmeAirConfiguration to com_acmeair_service_FlightService--><g id="link_com_acmeair_config_AcmeAirConfiguration_com_acmeair_service_FlightService"><path d="M689.63,258.6 C725.85,271.32 773.73,286.28 817.5,294 C1084.38,341.05 1159.28,278.91 1426.5,324 C1452.99,328.47 1458.25,335.31 1484.5,341 C1490.22,342.24 1602.589,358.1908 1702.979,372.3708 " fill="none" id="com_acmeair_config_AcmeAirConfiguration-to-com_acmeair_service_FlightService" style="stroke:#181818;stroke-width:1.0;stroke-dasharray:7.0,7.0;"/><polygon fill="#181818" points="1708.92,373.21,1700.5679,367.9906,1703.9691,372.5107,1699.449,375.9119,1708.92,373.21" style="stroke:#181818;stroke-width:1.0;"/><text fill="#000000" font-family="sans-serif" font-size="13" lengthAdjust="spacing" textLength="52" x="1485.5" y="337.0669">requires</text></g><!--link com_acmeair_web_RESTCookieSessionFilter to com_acmeair_wxs_utils_WXSSessionManager--><g id="link_com_acmeair_web_RESTCookieSessionFilter_com_acmeair_wxs_utils_WXSSessionManager"><path d="M1543.56,258.52 C1506.66,270.65 1458.91,285.03 1415.5,294 C1302.02,317.46 1264.36,281.64 1156.5,324 C1129.55,334.58 1107.8665,350.8862 1090.0165,366.7362 " fill="none" id="com_acmeair_web_RESTCookieSessionFilter-to-com_acmeair_wxs_utils_WXSSessionManager" style="stroke:#181818;stroke-width:1.0;stroke-dasharray:7.0,7.0;"/><polygon fill="#181818" points="1085.53,370.72,1094.9157,367.7353,1089.2688,367.4001,1089.6039,361.7532,1085.53,370.72" style="stroke:#181818;stroke-width:1.0;"/><text fill="#000000" font-family="sans-serif" font-size="13" lengthAdjust="spacing" textLength="52" x="1157.5" y="337.0669">requires</text></g><!--link com_acmeair_config_AcmeAirConfiguration to com_acmeair_service_CustomerService--><g id="link_com_acmeair_config_AcmeAirConfiguration_com_acmeair_service_CustomerService"><path d="M688.75,258.61 C725.05,271.51 773.32,286.66 817.5,294 C1040.76,331.09 1610.03,304.36 1835.5,324 C1887.85,328.56 1900.26,335.32 1952.5,341 C2136.34,360.97 2183.48,352.73 2367.5,371 C2373.26,371.57 2373.1548,371.5351 2379.0748,372.1751 " fill="none" id="com_acmeair_config_AcmeAirConfiguration-to-com_acmeair_service_CustomerService" style="stroke:#181818;stroke-width:1.0;stroke-dasharray:7.0,7.0;"/><polygon fill="#181818" points="2385.04,372.82,2376.5221,367.8758,2380.069,372.2826,2375.6622,375.8295,2385.04,372.82" style="stroke:#181818;stroke-width:1.0;"/><text fill="#000000" font-family="sans-serif" font-size="13" lengthAdjust="spacing" textLength="52" x="1953.5" y="337.0669">requires</text></g><!--link com_acmeair_config_AcmeAirConfiguration to com_acmeair_service_BookingService--><g id="link_com_acmeair_config_AcmeAirConfiguration_com_acmeair_service_BookingService"><path d="M641.24,258.59 C654.35,288.33 675.1291,335.4601 688.2791,365.2801 " fill="none" id="com_acmeair_config_AcmeAirConfiguration-to-com_acmeair_service_BookingService" style="stroke:#181818;stroke-width:1.0;stroke-dasharray:7.0,7.0;"/><polygon fill="#181818" points="690.7,370.77,690.7285,360.9212,688.6826,366.1951,683.4087,364.1491,690.7,370.77" style="stroke:#181818;stroke-width:1.0;"/><text fill="#000000" font-family="sans-serif" font-size="13" lengthAdjust="spacing" textLength="52" x="676.5" y="337.0669">requires</text></g><!--link com_acmeair_config_AcmeAirConfiguration to com_acmeair_morphia_services_BookingServiceImpl--><g id="link_com_acmeair_config_AcmeAirConfiguration_com_acmeair_morphia_services_BookingServiceImpl"><path d="M690.07,258.57 C726.25,271.2 773.94,286.07 817.5,294 C1035.65,333.7 1099.91,272.16 1315.5,324 C1357.55,334.11 1397.1399,352.0351 1428.2899,368.1351 " fill="none" id="com_acmeair_config_AcmeAirConfiguration-to-com_acmeair_morphia_services_BookingServiceImpl" style="stroke:#181818;stroke-width:1.0;stroke-dasharray:7.0,7.0;"/><polygon fill="#181818" points="1433.62,370.89,1427.4614,363.2042,1429.1782,368.5942,1423.7882,370.3111,1433.62,370.89" style="stroke:#181818;stroke-width:1.0;"/><text fill="#000000" font-family="sans-serif" font-size="13" lengthAdjust="spacing" textLength="52" x="1365.5" y="337.0669">requires</text></g><!--link com_acmeair_web_BookingsREST to com_acmeair_service_BookingService--><g id="link_com_acmeair_web_BookingsREST_com_acmeair_service_BookingService"><path d="M348.37,258.59 C426.4,288.38 558.9347,338.9598 636.9847,368.7598 " fill="none" id="com_acmeair_web_BookingsREST-to-com_acmeair_service_BookingService" style="stroke:#181818;stroke-width:1.0;stroke-dasharray:7.0,7.0;"/><polygon fill="#181818" points="642.59,370.9,635.6088,363.9529,637.9189,369.1165,632.7552,371.4267,642.59,370.9" style="stroke:#181818;stroke-width:1.0;"/><text fill="#000000" font-family="sans-serif" font-size="13" lengthAdjust="spacing" textLength="52" x="556.5" y="337.0669">requires</text></g><!--link com_acmeair_config_AcmeAirConfiguration to com_acmeair_wxs_service_BookingServiceImpl--><g id="link_com_acmeair_config_AcmeAirConfiguration_com_acmeair_wxs_service_BookingServiceImpl"><path d="M587.12,258.61 C552.27,276.09 502.61,301.24 459.5,324 C430.39,339.37 403.0489,354.3334 378.3089,368.0334 " fill="none" id="com_acmeair_config_AcmeAirConfiguration-to-com_acmeair_wxs_service_BookingServiceImpl" style="stroke:#181818;stroke-width:1.0;stroke-dasharray:7.0,7.0;"/><polygon fill="#181818" points="373.06,370.94,382.8712,370.0793,377.4341,368.5178,378.9956,363.0807,373.06,370.94" style="stroke:#181818;stroke-width:1.0;"/><text fill="#000000" font-family="sans-serif" font-size="13" lengthAdjust="spacing" textLength="52" x="460.5" y="337.0669">requires</text></g><!--link com_acmeair_web_RESTCookieSessionFilter to com_acmeair_service_TransactionService--><g id="link_com_acmeair_web_RESTCookieSessionFilter_com_acmeair_service_TransactionService"><path d="M1639.1,258.71 C1680.2,286.31 1748.94,330.98 1777.5,341 C1780.57,342.08 1905.7463,357.8759 2018.8763,372.0159 " fill="none" id="com_acmeair_web_RESTCookieSessionFilter-to-com_acmeair_service_TransactionService" style="stroke:#181818;stroke-width:1.0;stroke-dasharray:7.0,7.0;"/><polygon fill="#181818" points="2024.83,372.76,2016.3956,367.6747,2019.8686,372.1399,2015.4034,375.6129,2024.83,372.76" style="stroke:#181818;stroke-width:1.0;"/><text fill="#000000" font-family="sans-serif" font-size="13" lengthAdjust="spacing" textLength="52" x="1778.5" y="337.0669">requires</text></g><!--link com_acmeair_web_LoginREST to com_acmeair_service_CustomerService--><g id="link_com_acmeair_web_LoginREST_com_acmeair_service_CustomerService"><path d="M2776.82,258.59 C2724.75,288.33 2637.8298,337.9738 2585.6298,367.7938 " fill="none" id="com_acmeair_web_LoginREST-to-com_acmeair_service_CustomerService" style="stroke:#181818;stroke-width:1.0;stroke-dasharray:7.0,7.0;"/><polygon fill="#181818" points="2580.42,370.77,2590.2189,369.7789,2584.7615,368.2898,2586.2506,362.8325,2580.42,370.77" style="stroke:#181818;stroke-width:1.0;"/><text fill="#000000" font-family="sans-serif" font-size="13" lengthAdjust="spacing" textLength="52" x="2662.5" y="337.0669">requires</text></g><!--link com_acmeair_service_CustomerService to com_acmeair_service_KeyGenerator--><g id="link_com_acmeair_service_CustomerService_com_acmeair_service_KeyGenerator"><path d="M2541.5,417.19 C2541.5,439.03 2541.5,466.16 2541.5,487.95 " fill="none" id="com_acmeair_service_CustomerService-to-com_acmeair_service_KeyGenerator" style="stroke:#181818;stroke-width:1.0;stroke-dasharray:7.0,7.0;"/><polygon fill="#181818" points="2541.5,493.95,2545.5,484.95,2541.5,488.95,2537.5,484.95,2541.5,493.95" style="stroke:#181818;stroke-width:1.0;"/><text fill="#000000" font-family="sans-serif" font-size="13" lengthAdjust="spacing" textLength="52" x="2542.5" y="460.0669">requires</text></g><!--link AcmeAirConfiguration_requires_SERVICE_HOST_bookings to com_acmeair_web_BookingsREST--><g id="link_AcmeAirConfiguration_requires_SERVICE_HOST_bookings_com_acmeair_web_BookingsREST"><path d="M441.15,115.99 C420.79,132.01 356.24,182.79 318.56,212.42 " fill="none" id="AcmeAirConfiguration_requires_SERVICE_HOST_bookings-com_acmeair_web_BookingsREST" style="stroke:#181818;stroke-width:1.0;"/></g><!--link AcmeAirConfiguration_requires_com_acmeair_wxs_WXSConstants to com_acmeair_wxs_utils_WXSSessionManager--><g id="link_AcmeAirConfiguration_requires_com_acmeair_wxs_WXSConstants_com_acmeair_wxs_utils_WXSSessionManager"><path d="M120.9,116.28 C114.03,140.09 89.35,238.79 134.5,294 C219.37,397.78 484.06,338.95 868.5,371 C874.41,371.49 880.42,372.02 886.49,372.58 " fill="none" id="AcmeAirConfiguration_requires_com_acmeair_wxs_WXSConstants-com_acmeair_wxs_utils_WXSSessionManager" style="stroke:#181818;stroke-width:1.0;"/></g><!--link AcmeAirConfiguration_requires_SERVICE_HOST_config to com_acmeair_config_AcmeAirConfiguration--><g id="link_AcmeAirConfiguration_requires_SERVICE_HOST_config_com_acmeair_config_AcmeAirConfiguration"><path d="M596.09,116.31 C600.99,132.65 616.04,182.9 624.86,212.35 " fill="none" id="AcmeAirConfiguration_requires_SERVICE_HOST_config-com_acmeair_config_AcmeAirConfiguration" style="stroke:#181818;stroke-width:1.0;"/></g><!--link AcmeAirConfiguration_requires_SERVICE_HOST_customer_byid to com_acmeair_web_CustomerREST--><g id="link_AcmeAirConfiguration_requires_SERVICE_HOST_customer_byid_com_acmeair_web_CustomerREST"><path d="M2403.52,116.31 C2388.16,132.65 2340.97,182.9 2313.31,212.35 " fill="none" id="AcmeAirConfiguration_requires_SERVICE_HOST_customer_byid-com_acmeair_web_CustomerREST" style="stroke:#181818;stroke-width:1.0;"/></g><!--link AcmeAirConfiguration_requires_SERVICE_HOST_flights to com_acmeair_web_FlightsREST--><g id="link_AcmeAirConfiguration_requires_SERVICE_HOST_flights_com_acmeair_web_FlightsREST"><path d="M724.6,111.23 C762.2,112.76 966.23,122.96 1124.5,169 C1161.1,179.65 1200.38,197.85 1228.81,212.37 " fill="none" id="AcmeAirConfiguration_requires_SERVICE_HOST_flights-com_acmeair_web_FlightsREST" style="stroke:#181818;stroke-width:1.0;"/></g><!--link AcmeAirConfiguration_requires_com_acmeair_wxs_WXSConstants to com_acmeair_wxs_service_BookingServiceImpl--><g id="link_AcmeAirConfiguration_requires_com_acmeair_wxs_WXSConstants_com_acmeair_wxs_service_BookingServiceImpl"><path d="M119.96,116.09 C106.97,142.95 50.68,269.62 107.5,341 C117.56,353.64 143.52,363.46 174.43,371 " fill="none" id="AcmeAirConfiguration_requires_com_acmeair_wxs_WXSConstants-com_acmeair_wxs_service_BookingServiceImpl" style="stroke:#181818;stroke-width:1.0;"/></g><!--link AcmeAirConfiguration_requires_SERVICE_HOST_login to com_acmeair_web_LoginREST--><g id="link_AcmeAirConfiguration_requires_SERVICE_HOST_login_com_acmeair_web_LoginREST"><path d="M2567.78,114.05 C2595.28,127.42 2706.58,181.54 2770.24,212.49 " fill="none" id="AcmeAirConfiguration_requires_SERVICE_HOST_login-com_acmeair_web_LoginREST" style="stroke:#181818;stroke-width:1.0;"/></g><!--link AcmeAirConfiguration_requires_Filter to com_acmeair_web_RESTCookieSessionFilter--><g id="link_AcmeAirConfiguration_requires_Filter_com_acmeair_web_RESTCookieSessionFilter"><path d="M1606.5,116.31 C1606.5,132.65 1606.5,182.9 1606.5,212.35 " fill="none" id="AcmeAirConfiguration_requires_Filter-com_acmeair_web_RESTCookieSessionFilter" style="stroke:#181818;stroke-width:1.0;"/></g><!--link AcmeAirConfiguration_requires_com_acmeair_morphia_MorphiaConstants to com_acmeair_morphia_services_BookingServiceImpl--><g id="link_AcmeAirConfiguration_requires_com_acmeair_morphia_MorphiaConstants_com_acmeair_morphia_services_BookingServiceImpl"><path d="M2723.93,111.51 C2759.05,114.45 2927.14,130.43 2957.5,169 C2991.86,212.65 2992.7,251.02 2957.5,294 C2890.28,376.06 2828.89,328.97 2723.5,341 C2267.6,393.03 2149.4,341.28 1691.5,371 C1685.62,371.38 1679.65,371.8 1673.62,372.24 " fill="none" id="AcmeAirConfiguration_requires_com_acmeair_morphia_MorphiaConstants-com_acmeair_morphia_services_BookingServiceImpl" style="stroke:#181818;stroke-width:1.0;"/></g><!--link interface.Filter to AcmeAirConfiguration_requires_Filter--><g id="link_interface.Filter_AcmeAirConfiguration_requires_Filter"><path d="M1606.5,23.01 C1606.5,41.84 1606.5,88.45 1606.5,103.92 " fill="none" id="interface.Filter-AcmeAirConfiguration_requires_Filter" style="stroke:#181818;stroke-width:1.0;"/></g><!--link interface.SERVICE_HOST_bookings to AcmeAirConfiguration_requires_SERVICE_HOST_bookings--><g id="link_interface.SERVICE_HOST_bookings_AcmeAirConfiguration_requires_SERVICE_HOST_bookings"><path d="M388.04,23.01 C401.06,41.84 433.29,88.45 443.99,103.92 " fill="none" id="interface.SERVICE_HOST_bookings-AcmeAirConfiguration_requires_SERVICE_HOST_bookings" style="stroke:#181818;stroke-width:1.0;"/></g><!--link interface.SERVICE_HOST_config to AcmeAirConfiguration_requires_SERVICE_HOST_config--><g id="link_interface.SERVICE_HOST_config_AcmeAirConfiguration_requires_SERVICE_HOST_config"><path d="M594.5,23.01 C594.5,41.84 594.5,88.45 594.5,103.92 " fill="none" id="interface.SERVICE_HOST_config-AcmeAirConfiguration_requires_SERVICE_HOST_config" style="stroke:#181818;stroke-width:1.0;"/></g><!--link interface.SERVICE_HOST_customer_byid to AcmeAirConfiguration_requires_SERVICE_HOST_customer_byid--><g id="link_interface.SERVICE_HOST_customer_byid_AcmeAirConfiguration_requires_SERVICE_HOST_customer_byid"><path d="M2343.55,23.01 C2357.77,41.84 2392.98,88.45 2404.66,103.92 " fill="none" id="interface.SERVICE_HOST_customer_byid-AcmeAirConfiguration_requires_SERVICE_HOST_customer_byid" style="stroke:#181818;stroke-width:1.0;"/></g><!--link interface.SERVICE_HOST_flights to AcmeAirConfiguration_requires_SERVICE_HOST_flights--><g id="link_interface.SERVICE_HOST_flights_AcmeAirConfiguration_requires_SERVICE_HOST_flights"><path d="M788.02,23.01 C772.8,41.84 735.11,88.45 722.61,103.92 " fill="none" id="interface.SERVICE_HOST_flights-AcmeAirConfiguration_requires_SERVICE_HOST_flights" style="stroke:#181818;stroke-width:1.0;"/></g><!--link interface.SERVICE_HOST_login to AcmeAirConfiguration_requires_SERVICE_HOST_login--><g id="link_interface.SERVICE_HOST_login_AcmeAirConfiguration_requires_SERVICE_HOST_login"><path d="M2561.5,23.01 C2561.5,41.84 2561.5,88.45 2561.5,103.92 " fill="none" id="interface.SERVICE_HOST_login-AcmeAirConfiguration_requires_SERVICE_HOST_login" style="stroke:#181818;stroke-width:1.0;"/></g><!--link interface.com_acmeair_morphia_MorphiaConstants to AcmeAirConfiguration_requires_com_acmeair_morphia_MorphiaConstants--><g id="link_interface.com_acmeair_morphia_MorphiaConstants_AcmeAirConfiguration_requires_com_acmeair_morphia_MorphiaConstants"><path d="M2816.29,23.01 C2794.66,41.84 2741.11,88.45 2723.34,103.92 " fill="none" id="interface.com_acmeair_morphia_MorphiaConstants-AcmeAirConfiguration_requires_com_acmeair_morphia_MorphiaConstants" style="stroke:#181818;stroke-width:1.0;"/></g><!--link interface.com_acmeair_wxs_WXSConstants to AcmeAirConfiguration_requires_com_acmeair_wxs_WXSConstants--><g id="link_interface.com_acmeair_wxs_WXSConstants_AcmeAirConfiguration_requires_com_acmeair_wxs_WXSConstants"><path d="M122.5,23.01 C122.5,41.84 122.5,88.45 122.5,103.92 " fill="none" id="interface.com_acmeair_wxs_WXSConstants-AcmeAirConfiguration_requires_com_acmeair_wxs_WXSConstants" style="stroke:#181818;stroke-width:1.0;"/></g><!--link com_acmeair_config_LoaderREST to com_acmeair_loader_Loader--><g id="link_com_acmeair_config_LoaderREST_com_acmeair_loader_Loader"><path d="M3305.5,258.59 C3305.5,288.33 3305.5,334.95 3305.5,364.77 " fill="none" id="com_acmeair_config_LoaderREST-to-com_acmeair_loader_Loader" style="stroke:#181818;stroke-width:1.0;stroke-dasharray:7.0,7.0;"/><polygon fill="#181818" points="3305.5,370.77,3309.5,361.77,3305.5,365.77,3301.5,361.77,3305.5,370.77" style="stroke:#181818;stroke-width:1.0;"/><text fill="#000000" font-family="sans-serif" font-size="13" lengthAdjust="spacing" textLength="52" x="3306.5" y="337.0669">requires</text></g><!--link LoaderREST_requires_SERVICE_HOST_loader to com_acmeair_config_LoaderREST--><g id="link_LoaderREST_requires_SERVICE_HOST_loader_com_acmeair_config_LoaderREST"><path d="M3100.59,114.56 C3124.78,128.72 3215.32,181.72 3267.6,212.32 " fill="none" id="LoaderREST_requires_SERVICE_HOST_loader-com_acmeair_config_LoaderREST" style="stroke:#181818;stroke-width:1.0;"/></g><!--link interface.SERVICE_HOST_loader to LoaderREST_requires_SERVICE_HOST_loader--><g id="link_interface.SERVICE_HOST_loader_LoaderREST_requires_SERVICE_HOST_loader"><path d="M3094.5,23.01 C3094.5,41.84 3094.5,88.45 3094.5,103.92 " fill="none" id="interface.SERVICE_HOST_loader-LoaderREST_requires_SERVICE_HOST_loader" style="stroke:#181818;stroke-width:1.0;"/></g><!--SRC=[jLZVRziW47xFNs7ndbJQunucTL6wLajLgOwsITja4PUuQ1WyiFj3K__tuHWxnW4CJgeyL3Ndxxw3k-CxYp-O5f33FDhXboNcAK5hk4NaxWbn0ei2qomgUOLceZDCMLumYcWPbwy4HLLEFiowPn6uJ7DqYVcIqHtEAWvBpEYltWz4_sO_fNq2fI74F168F-4K9HiEgO1fRHytZtwR3R-Yro-88WdDkCNaYk3iiJJ3FADjicOPflUhU6DO-yoOZ3KJXkLq7rHY2j52P5c9akM8swdKRfQrInGZ8IJI5IOb6WP667n0l8DRx_yre3M1cxW_luYEbGfHaRh92sAXhniEZ7B6YqSCMsCn3bipR4CmK5H1DZ6OGvH1L2Kc8ld-8rRxTGifp6hBWl4IqmZ87nIHwP0IZlvMc4kgyUh-syrobLpVnHjrhDFVtwgCcOwmQuuj262uBt97fAKe8Gq4QX9kikys3MwRlzCuwEUXKYJPlkA7wJ2aBdAVCbeiFdaLR_GnQZsDvFLP46sTuMHmKvtPGFLEwkIhDSuXtaZxSGBtczfxy_HfQbPqr_rm1kA-2U7gacVbxfrnKy07TyzPi4ywtT7SUK_cfzHFQ2CnA34d_a5DdPmejXTim9eMxAE22VStcCz7r22OVYKVWRka30XMBqDufrG5KozZqmxfWWw4gnuJgAPZpxphBXKCGlM5YNnlkW0-qik4OHqBmEdAREZFIyY_pJ2L17OmHH5Gl6j1rZrTA1qvV32V-sr27r_jyxpUvukkF7LtPWa-iZvAnjmOhDnKyJcOgU72kHh6IlcqSr85UR6lM1SrJMVx60KIrLg7bM_R1XnCs_d8lHp6hdLhvTNKjuDLCs2u5iCODGxxVBogMMVeDPg5cOz6uKNJ5jTHoxR7SpJc-fa5yJ-Yq_-urGnBTMzsVj9Ib-_1sloXe_t4eK-uXxUiQL8RZ7aSAYRTfoQLF3rQ94O_oZT7CUqXdDMq3ykvAa_Ib-piFm00]--></g></svg>