<?xml version="1.0" encoding="us-ascii" standalone="no"?><svg xmlns="http://www.w3.org/2000/svg" xmlns:xlink="http://www.w3.org/1999/xlink" contentStyleType="text/css" height="562px" preserveAspectRatio="none" style="width:3456px;height:562px;background:#FFFFFF;" version="1.1" viewBox="0 0 3456 562" width="3456px" zoomAndPan="magnify"><defs/><g><!--cluster AcmeAirConfiguration\n\n\n\n\n\n--><g id="cluster_AcmeAirConfiguration\n\n\n\n\n\n"><rect fill="none" height="446" rx="2.5" ry="2.5" style="stroke:#181818;stroke-width:1.0;" width="2886" x="104.5" y="110"/><rect fill="none" height="10" style="stroke:#181818;stroke-width:1.0;" width="15" x="2970.5" y="115"/><rect fill="none" height="2" style="stroke:#181818;stroke-width:1.0;" width="4" x="2968.5" y="117"/><rect fill="none" height="2" style="stroke:#181818;stroke-width:1.0;" width="4" x="2968.5" y="121"/><text fill="#000000" font-family="sans-serif" font-size="14" font-weight="bold" lengthAdjust="spacing" textLength="173" x="1461" y="135.9951">AcmeAirConfiguration</text><text fill="#000000" font-family="sans-serif" font-size="14" font-weight="bold" lengthAdjust="spacing" textLength="5" x="1545" y="152.292">&#160;</text><text fill="#000000" font-family="sans-serif" font-size="14" font-weight="bold" lengthAdjust="spacing" textLength="5" x="1545" y="168.5889">&#160;</text><text fill="#000000" font-family="sans-serif" font-size="14" font-weight="bold" lengthAdjust="spacing" textLength="5" x="1545" y="184.8857">&#160;</text><text fill="#000000" font-family="sans-serif" font-size="14" font-weight="bold" lengthAdjust="spacing" textLength="5" x="1545" y="201.1826">&#160;</text><text fill="#000000" font-family="sans-serif" font-size="14" font-weight="bold" lengthAdjust="spacing" textLength="5" x="1545" y="217.4795">&#160;</text><text fill="#000000" font-family="sans-serif" font-size="14" font-weight="bold" lengthAdjust="spacing" textLength="5" x="1545" y="233.7764">&#160;</text></g><!--cluster LoaderREST\n\n\n\n\n\n--><g id="cluster_LoaderREST\n\n\n\n\n\n"><rect fill="none" height="323" rx="2.5" ry="2.5" style="stroke:#181818;stroke-width:1.0;" width="338" x="3112.5" y="110"/><rect fill="none" height="10" style="stroke:#181818;stroke-width:1.0;" width="15" x="3430.5" y="115"/><rect fill="none" height="2" style="stroke:#181818;stroke-width:1.0;" width="4" x="3428.5" y="117"/><rect fill="none" height="2" style="stroke:#181818;stroke-width:1.0;" width="4" x="3428.5" y="121"/><text fill="#000000" font-family="sans-serif" font-size="14" font-weight="bold" lengthAdjust="spacing" textLength="94" x="3234.5" y="135.9951">LoaderREST</text><text fill="#000000" font-family="sans-serif" font-size="14" font-weight="bold" lengthAdjust="spacing" textLength="5" x="3279" y="152.292">&#160;</text><text fill="#000000" font-family="sans-serif" font-size="14" font-weight="bold" lengthAdjust="spacing" textLength="5" x="3279" y="168.5889">&#160;</text><text fill="#000000" font-family="sans-serif" font-size="14" font-weight="bold" lengthAdjust="spacing" textLength="5" x="3279" y="184.8857">&#160;</text><text fill="#000000" font-family="sans-serif" font-size="14" font-weight="bold" lengthAdjust="spacing" textLength="5" x="3279" y="201.1826">&#160;</text><text fill="#000000" font-family="sans-serif" font-size="14" font-weight="bold" lengthAdjust="spacing" textLength="5" x="3279" y="217.4795">&#160;</text><text fill="#000000" font-family="sans-serif" font-size="14" font-weight="bold" lengthAdjust="spacing" textLength="5" x="3279" y="233.7764">&#160;</text></g><!--entity com_acmeair_wxs_service_BookingServiceImpl--><g id="elem_com_acmeair_wxs_service_BookingServiceImpl"><rect fill="#F1F1F1" height="46.2969" rx="2.5" ry="2.5" style="stroke:#181818;stroke-width:0.5;" width="362" x="905.5" y="371"/><rect fill="#F1F1F1" height="10" style="stroke:#181818;stroke-width:0.5;" width="15" x="1247.5" y="376"/><rect fill="#F1F1F1" height="2" style="stroke:#181818;stroke-width:0.5;" width="4" x="1245.5" y="378"/><rect fill="#F1F1F1" height="2" style="stroke:#181818;stroke-width:0.5;" width="4" x="1245.5" y="382"/><text fill="#000000" font-family="sans-serif" font-size="14" lengthAdjust="spacing" textLength="322" x="920.5" y="403.9951">com_acmeair_wxs_service_BookingServiceImpl</text></g><!--entity com_acmeair_web_CustomerREST--><g id="elem_com_acmeair_web_CustomerREST"><rect fill="#F1F1F1" height="46.2969" rx="2.5" ry="2.5" style="stroke:#181818;stroke-width:0.5;" width="279" x="1222" y="212.5"/><rect fill="#F1F1F1" height="10" style="stroke:#181818;stroke-width:0.5;" width="15" x="1481" y="217.5"/><rect fill="#F1F1F1" height="2" style="stroke:#181818;stroke-width:0.5;" width="4" x="1479" y="219.5"/><rect fill="#F1F1F1" height="2" style="stroke:#181818;stroke-width:0.5;" width="4" x="1479" y="223.5"/><text fill="#000000" font-family="sans-serif" font-size="14" lengthAdjust="spacing" textLength="239" x="1237" y="245.4951">com_acmeair_web_CustomerREST</text></g><!--entity com_acmeair_config_AcmeAirConfiguration--><g id="elem_com_acmeair_config_AcmeAirConfiguration"><rect fill="#F1F1F1" height="46.2969" rx="2.5" ry="2.5" style="stroke:#181818;stroke-width:0.5;" width="335" x="852" y="212.5"/><rect fill="#F1F1F1" height="10" style="stroke:#181818;stroke-width:0.5;" width="15" x="1167" y="217.5"/><rect fill="#F1F1F1" height="2" style="stroke:#181818;stroke-width:0.5;" width="4" x="1165" y="219.5"/><rect fill="#F1F1F1" height="2" style="stroke:#181818;stroke-width:0.5;" width="4" x="1165" y="223.5"/><text fill="#000000" font-family="sans-serif" font-size="14" lengthAdjust="spacing" textLength="295" x="867" y="245.4951">com_acmeair_config_AcmeAirConfiguration</text></g><!--entity com_acmeair_wxs_utils_WXSSessionManager--><g id="elem_com_acmeair_wxs_utils_WXSSessionManager"><rect fill="#F1F1F1" height="46.2969" rx="2.5" ry="2.5" style="stroke:#181818;stroke-width:0.5;" width="352" x="158.5" y="371"/><rect fill="#F1F1F1" height="10" style="stroke:#181818;stroke-width:0.5;" width="15" x="490.5" y="376"/><rect fill="#F1F1F1" height="2" style="stroke:#181818;stroke-width:0.5;" width="4" x="488.5" y="378"/><rect fill="#F1F1F1" height="2" style="stroke:#181818;stroke-width:0.5;" width="4" x="488.5" y="382"/><text fill="#000000" font-family="sans-serif" font-size="14" lengthAdjust="spacing" textLength="312" x="173.5" y="403.9951">com_acmeair_wxs_utils_WXSSessionManager</text></g><!--entity com_acmeair_web_BookingsREST--><g id="elem_com_acmeair_web_BookingsREST"><rect fill="#F1F1F1" height="46.2969" rx="2.5" ry="2.5" style="stroke:#181818;stroke-width:0.5;" width="276" x="540.5" y="212.5"/><rect fill="#F1F1F1" height="10" style="stroke:#181818;stroke-width:0.5;" width="15" x="796.5" y="217.5"/><rect fill="#F1F1F1" height="2" style="stroke:#181818;stroke-width:0.5;" width="4" x="794.5" y="219.5"/><rect fill="#F1F1F1" height="2" style="stroke:#181818;stroke-width:0.5;" width="4" x="794.5" y="223.5"/><text fill="#000000" font-family="sans-serif" font-size="14" lengthAdjust="spacing" textLength="236" x="555.5" y="245.4951">com_acmeair_web_BookingsREST</text></g><!--entity com_acmeair_web_FlightsREST--><g id="elem_com_acmeair_web_FlightsREST"><rect fill="#F1F1F1" height="46.2969" rx="2.5" ry="2.5" style="stroke:#181818;stroke-width:0.5;" width="256" x="2689.5" y="212.5"/><rect fill="#F1F1F1" height="10" style="stroke:#181818;stroke-width:0.5;" width="15" x="2925.5" y="217.5"/><rect fill="#F1F1F1" height="2" style="stroke:#181818;stroke-width:0.5;" width="4" x="2923.5" y="219.5"/><rect fill="#F1F1F1" height="2" style="stroke:#181818;stroke-width:0.5;" width="4" x="2923.5" y="223.5"/><text fill="#000000" font-family="sans-serif" font-size="14" lengthAdjust="spacing" textLength="216" x="2704.5" y="245.4951">com_acmeair_web_FlightsREST</text></g><!--entity com_acmeair_loader_FlightLoader--><g id="elem_com_acmeair_loader_FlightLoader"><rect fill="#F1F1F1" height="46.2969" rx="2.5" ry="2.5" style="stroke:#181818;stroke-width:0.5;" width="272" x="2382.5" y="212.5"/><rect fill="#F1F1F1" height="10" style="stroke:#181818;stroke-width:0.5;" width="15" x="2634.5" y="217.5"/><rect fill="#F1F1F1" height="2" style="stroke:#181818;stroke-width:0.5;" width="4" x="2632.5" y="219.5"/><rect fill="#F1F1F1" height="2" style="stroke:#181818;stroke-width:0.5;" width="4" x="2632.5" y="223.5"/><text fill="#000000" font-family="sans-serif" font-size="14" lengthAdjust="spacing" textLength="232" x="2397.5" y="245.4951">com_acmeair_loader_FlightLoader</text></g><!--entity com_acmeair_service_KeyGenerator--><g id="elem_com_acmeair_service_KeyGenerator"><rect fill="#F1F1F1" height="46.2969" rx="2.5" ry="2.5" style="stroke:#181818;stroke-width:0.5;" width="289" x="2086" y="494"/><rect fill="#F1F1F1" height="10" style="stroke:#181818;stroke-width:0.5;" width="15" x="2355" y="499"/><rect fill="#F1F1F1" height="2" style="stroke:#181818;stroke-width:0.5;" width="4" x="2353" y="501"/><rect fill="#F1F1F1" height="2" style="stroke:#181818;stroke-width:0.5;" width="4" x="2353" y="505"/><text fill="#000000" font-family="sans-serif" font-size="14" lengthAdjust="spacing" textLength="249" x="2101" y="526.9951">com_acmeair_service_KeyGenerator</text></g><!--entity com_acmeair_service_TransactionService--><g id="elem_com_acmeair_service_TransactionService"><rect fill="#F1F1F1" height="46.2969" rx="2.5" ry="2.5" style="stroke:#181818;stroke-width:0.5;" width="325" x="545" y="371"/><rect fill="#F1F1F1" height="10" style="stroke:#181818;stroke-width:0.5;" width="15" x="850" y="376"/><rect fill="#F1F1F1" height="2" style="stroke:#181818;stroke-width:0.5;" width="4" x="848" y="378"/><rect fill="#F1F1F1" height="2" style="stroke:#181818;stroke-width:0.5;" width="4" x="848" y="382"/><text fill="#000000" font-family="sans-serif" font-size="14" lengthAdjust="spacing" textLength="285" x="560" y="403.9951">com_acmeair_service_TransactionService</text></g><!--entity com_acmeair_service_BookingService--><g id="elem_com_acmeair_service_BookingService"><rect fill="#F1F1F1" height="46.2969" rx="2.5" ry="2.5" style="stroke:#181818;stroke-width:0.5;" width="301" x="1303" y="371"/><rect fill="#F1F1F1" height="10" style="stroke:#181818;stroke-width:0.5;" width="15" x="1584" y="376"/><rect fill="#F1F1F1" height="2" style="stroke:#181818;stroke-width:0.5;" width="4" x="1582" y="378"/><rect fill="#F1F1F1" height="2" style="stroke:#181818;stroke-width:0.5;" width="4" x="1582" y="382"/><text fill="#000000" font-family="sans-serif" font-size="14" lengthAdjust="spacing" textLength="261" x="1318" y="403.9951">com_acmeair_service_BookingService</text></g><!--entity com_acmeair_service_CustomerService--><g id="elem_com_acmeair_service_CustomerService"><rect fill="#F1F1F1" height="46.2969" rx="2.5" ry="2.5" style="stroke:#181818;stroke-width:0.5;" width="312" x="2074.5" y="371"/><rect fill="#F1F1F1" height="10" style="stroke:#181818;stroke-width:0.5;" width="15" x="2366.5" y="376"/><rect fill="#F1F1F1" height="2" style="stroke:#181818;stroke-width:0.5;" width="4" x="2364.5" y="378"/><rect fill="#F1F1F1" height="2" style="stroke:#181818;stroke-width:0.5;" width="4" x="2364.5" y="382"/><text fill="#000000" font-family="sans-serif" font-size="14" lengthAdjust="spacing" textLength="272" x="2089.5" y="403.9951">com_acmeair_service_CustomerService</text></g><!--entity com_acmeair_loader_CustomerLoader--><g id="elem_com_acmeair_loader_CustomerLoader"><rect fill="#F1F1F1" height="46.2969" rx="2.5" ry="2.5" style="stroke:#181818;stroke-width:0.5;" width="303" x="1820" y="212.5"/><rect fill="#F1F1F1" height="10" style="stroke:#181818;stroke-width:0.5;" width="15" x="2103" y="217.5"/><rect fill="#F1F1F1" height="2" style="stroke:#181818;stroke-width:0.5;" width="4" x="2101" y="219.5"/><rect fill="#F1F1F1" height="2" style="stroke:#181818;stroke-width:0.5;" width="4" x="2101" y="223.5"/><text fill="#000000" font-family="sans-serif" font-size="14" lengthAdjust="spacing" textLength="263" x="1835" y="245.4951">com_acmeair_loader_CustomerLoader</text></g><!--entity com_acmeair_web_LoginREST--><g id="elem_com_acmeair_web_LoginREST"><rect fill="#F1F1F1" height="46.2969" rx="2.5" ry="2.5" style="stroke:#181818;stroke-width:0.5;" width="248" x="1536.5" y="212.5"/><rect fill="#F1F1F1" height="10" style="stroke:#181818;stroke-width:0.5;" width="15" x="1764.5" y="217.5"/><rect fill="#F1F1F1" height="2" style="stroke:#181818;stroke-width:0.5;" width="4" x="1762.5" y="219.5"/><rect fill="#F1F1F1" height="2" style="stroke:#181818;stroke-width:0.5;" width="4" x="1762.5" y="223.5"/><text fill="#000000" font-family="sans-serif" font-size="14" lengthAdjust="spacing" textLength="208" x="1551.5" y="245.4951">com_acmeair_web_LoginREST</text></g><!--entity com_acmeair_web_RESTCookieSessionFilter--><g id="elem_com_acmeair_web_RESTCookieSessionFilter"><rect fill="#F1F1F1" height="46.2969" rx="2.5" ry="2.5" style="stroke:#181818;stroke-width:0.5;" width="347" x="158" y="212.5"/><rect fill="#F1F1F1" height="10" style="stroke:#181818;stroke-width:0.5;" width="15" x="485" y="217.5"/><rect fill="#F1F1F1" height="2" style="stroke:#181818;stroke-width:0.5;" width="4" x="483" y="219.5"/><rect fill="#F1F1F1" height="2" style="stroke:#181818;stroke-width:0.5;" width="4" x="483" y="223.5"/><text fill="#000000" font-family="sans-serif" font-size="14" lengthAdjust="spacing" textLength="307" x="173" y="245.4951">com_acmeair_web_RESTCookieSessionFilter</text></g><!--entity com_acmeair_service_FlightService--><g id="elem_com_acmeair_service_FlightService"><rect fill="#F1F1F1" height="46.2969" rx="2.5" ry="2.5" style="stroke:#181818;stroke-width:0.5;" width="281" x="2422" y="371"/><rect fill="#F1F1F1" height="10" style="stroke:#181818;stroke-width:0.5;" width="15" x="2683" y="376"/><rect fill="#F1F1F1" height="2" style="stroke:#181818;stroke-width:0.5;" width="4" x="2681" y="378"/><rect fill="#F1F1F1" height="2" style="stroke:#181818;stroke-width:0.5;" width="4" x="2681" y="382"/><text fill="#000000" font-family="sans-serif" font-size="14" lengthAdjust="spacing" textLength="241" x="2437" y="403.9951">com_acmeair_service_FlightService</text></g><!--entity com_acmeair_morphia_services_BookingServiceImpl--><g id="elem_com_acmeair_morphia_services_BookingServiceImpl"><rect fill="#F1F1F1" height="46.2969" rx="2.5" ry="2.5" style="stroke:#181818;stroke-width:0.5;" width="400" x="1639.5" y="371"/><rect fill="#F1F1F1" height="10" style="stroke:#181818;stroke-width:0.5;" width="15" x="2019.5" y="376"/><rect fill="#F1F1F1" height="2" style="stroke:#181818;stroke-width:0.5;" width="4" x="2017.5" y="378"/><rect fill="#F1F1F1" height="2" style="stroke:#181818;stroke-width:0.5;" width="4" x="2017.5" y="382"/><text fill="#000000" font-family="sans-serif" font-size="14" lengthAdjust="spacing" textLength="360" x="1654.5" y="403.9951">com_acmeair_morphia_services_BookingServiceImpl</text></g><text fill="#000000" font-family="sans-serif" font-size="14" lengthAdjust="spacing" textLength="4" x="120.5" y="88.6982">&#160;</text><rect fill="#F1F1F1" height="12" style="stroke:#181818;stroke-width:1.5;" width="12" x="116.5" y="104"/><text fill="#000000" font-family="sans-serif" font-size="14" lengthAdjust="spacing" textLength="4" x="329.5" y="88.6982">&#160;</text><rect fill="#F1F1F1" height="12" style="stroke:#181818;stroke-width:1.5;" width="12" x="325.5" y="104"/><text fill="#000000" font-family="sans-serif" font-size="14" lengthAdjust="spacing" textLength="4" x="676.5" y="88.6982">&#160;</text><rect fill="#F1F1F1" height="12" style="stroke:#181818;stroke-width:1.5;" width="12" x="672.5" y="104"/><text fill="#000000" font-family="sans-serif" font-size="14" lengthAdjust="spacing" textLength="4" x="1017.5" y="88.6982">&#160;</text><rect fill="#F1F1F1" height="12" style="stroke:#181818;stroke-width:1.5;" width="12" x="1013.5" y="104"/><text fill="#000000" font-family="sans-serif" font-size="14" lengthAdjust="spacing" textLength="4" x="1703.5" y="88.6982">&#160;</text><rect fill="#F1F1F1" height="12" style="stroke:#181818;stroke-width:1.5;" width="12" x="1699.5" y="104"/><text fill="#000000" font-family="sans-serif" font-size="14" lengthAdjust="spacing" textLength="4" x="2192.5" y="88.6982">&#160;</text><rect fill="#F1F1F1" height="12" style="stroke:#181818;stroke-width:1.5;" width="12" x="2188.5" y="104"/><text fill="#000000" font-family="sans-serif" font-size="14" lengthAdjust="spacing" textLength="4" x="1576.5" y="88.6982">&#160;</text><rect fill="#F1F1F1" height="12" style="stroke:#181818;stroke-width:1.5;" width="12" x="1572.5" y="104"/><text fill="#000000" font-family="sans-serif" font-size="14" lengthAdjust="spacing" textLength="4" x="2089.5" y="88.6982">&#160;</text><rect fill="#F1F1F1" height="12" style="stroke:#181818;stroke-width:1.5;" width="12" x="2085.5" y="104"/><!--entity com_acmeair_loader_Loader--><g id="elem_com_acmeair_loader_Loader"><rect fill="#F1F1F1" height="46.2969" rx="2.5" ry="2.5" style="stroke:#181818;stroke-width:0.5;" width="235" x="3181" y="371"/><rect fill="#F1F1F1" height="10" style="stroke:#181818;stroke-width:0.5;" width="15" x="3396" y="376"/><rect fill="#F1F1F1" height="2" style="stroke:#181818;stroke-width:0.5;" width="4" x="3394" y="378"/><rect fill="#F1F1F1" height="2" style="stroke:#181818;stroke-width:0.5;" width="4" x="3394" y="382"/><text fill="#000000" font-family="sans-serif" font-size="14" lengthAdjust="spacing" textLength="195" x="3196" y="403.9951">com_acmeair_loader_Loader</text></g><!--entity com_acmeair_config_LoaderREST--><g id="elem_com_acmeair_config_LoaderREST"><rect fill="#F1F1F1" height="46.2969" rx="2.5" ry="2.5" style="stroke:#181818;stroke-width:0.5;" width="271" x="3163" y="212.5"/><rect fill="#F1F1F1" height="10" style="stroke:#181818;stroke-width:0.5;" width="15" x="3414" y="217.5"/><rect fill="#F1F1F1" height="2" style="stroke:#181818;stroke-width:0.5;" width="4" x="3412" y="219.5"/><rect fill="#F1F1F1" height="2" style="stroke:#181818;stroke-width:0.5;" width="4" x="3412" y="223.5"/><text fill="#000000" font-family="sans-serif" font-size="14" lengthAdjust="spacing" textLength="231" x="3178" y="245.4951">com_acmeair_config_LoaderREST</text></g><text fill="#000000" font-family="sans-serif" font-size="14" lengthAdjust="spacing" textLength="4" x="3128.5" y="88.6982">&#160;</text><rect fill="#F1F1F1" height="12" style="stroke:#181818;stroke-width:1.5;" width="12" x="3124.5" y="104"/><!--entity interface.Filter--><g id="elem_interface.Filter"><ellipse cx="331.5" cy="14" fill="#F1F1F1" rx="8" ry="8" style="stroke:#181818;stroke-width:0.5;"/><text fill="#000000" font-family="sans-serif" font-size="14" lengthAdjust="spacing" textLength="33" x="315" y="43.9951">Filter</text></g><!--entity interface.SERVICE_HOST_bookings--><g id="elem_interface.SERVICE_HOST_bookings"><ellipse cx="678.5" cy="14" fill="#F1F1F1" rx="8" ry="8" style="stroke:#181818;stroke-width:0.5;"/><text fill="#000000" font-family="sans-serif" font-size="14" lengthAdjust="spacing" textLength="172" x="592.5" y="43.9951">SERVICE-HOST/bookings</text></g><!--entity interface.SERVICE_HOST_config--><g id="elem_interface.SERVICE_HOST_config"><ellipse cx="1019.5" cy="14" fill="#F1F1F1" rx="8" ry="8" style="stroke:#181818;stroke-width:0.5;"/><text fill="#000000" font-family="sans-serif" font-size="14" lengthAdjust="spacing" textLength="150" x="944.5" y="43.9951">SERVICE-HOST/config</text></g><!--entity interface.SERVICE_HOST_customer_byid--><g id="elem_interface.SERVICE_HOST_customer_byid"><ellipse cx="1490.5" cy="14" fill="#F1F1F1" rx="8" ry="8" style="stroke:#181818;stroke-width:0.5;"/><text fill="#000000" font-family="sans-serif" font-size="14" lengthAdjust="spacing" textLength="207" x="1387" y="43.9951">SERVICE-HOST/customer/byid</text></g><!--entity interface.SERVICE_HOST_flights--><g id="elem_interface.SERVICE_HOST_flights"><ellipse cx="1981.5" cy="14" fill="#F1F1F1" rx="8" ry="8" style="stroke:#181818;stroke-width:0.5;"/><text fill="#000000" font-family="sans-serif" font-size="14" lengthAdjust="spacing" textLength="149" x="1907" y="43.9951">SERVICE-HOST/flights</text></g><!--entity interface.SERVICE_HOST_login--><g id="elem_interface.SERVICE_HOST_login"><ellipse cx="1714.5" cy="14" fill="#F1F1F1" rx="8" ry="8" style="stroke:#181818;stroke-width:0.5;"/><text fill="#000000" font-family="sans-serif" font-size="14" lengthAdjust="spacing" textLength="141" x="1644" y="43.9951">SERVICE-HOST/login</text></g><!--entity interface.com_acmeair_morphia_MorphiaConstants--><g id="elem_interface.com_acmeair_morphia_MorphiaConstants"><ellipse cx="2249.5" cy="14" fill="#F1F1F1" rx="8" ry="8" style="stroke:#181818;stroke-width:0.5;"/><text fill="#000000" font-family="sans-serif" font-size="14" lengthAdjust="spacing" textLength="287" x="2106" y="43.9951">com_acmeair_morphia_MorphiaConstants</text></g><!--entity interface.com_acmeair_wxs_WXSConstants--><g id="elem_interface.com_acmeair_wxs_WXSConstants"><ellipse cx="122.5" cy="14" fill="#F1F1F1" rx="8" ry="8" style="stroke:#181818;stroke-width:0.5;"/><text fill="#000000" font-family="sans-serif" font-size="14" lengthAdjust="spacing" textLength="233" x="6" y="43.9951">com_acmeair_wxs_WXSConstants</text></g><!--entity interface.SERVICE_HOST_loader--><g id="elem_interface.SERVICE_HOST_loader"><ellipse cx="3130.5" cy="14" fill="#F1F1F1" rx="8" ry="8" style="stroke:#181818;stroke-width:0.5;"/><text fill="#000000" font-family="sans-serif" font-size="14" lengthAdjust="spacing" textLength="151" x="3055" y="43.9951">SERVICE-HOST/loader</text></g><!--link com_acmeair_config_AcmeAirConfiguration to com_acmeair_service_BookingService--><g id="link_com_acmeair_config_AcmeAirConfiguration_com_acmeair_service_BookingService"><path d="M1084.96,258.51 C1136.16,275.88 1209.05,300.94 1272.5,324 C1314.38,339.22 1355.7941,355.0052 1391.4141,368.7852 " fill="none" id="com_acmeair_config_AcmeAirConfiguration-to-com_acmeair_service_BookingService" style="stroke:#181818;stroke-width:1.0;stroke-dasharray:7.0,7.0;"/><polygon fill="#181818" points="1397.01,370.95,1390.0594,363.9722,1392.3468,369.146,1387.173,371.4333,1397.01,370.95" style="stroke:#181818;stroke-width:1.0;"/><text fill="#000000" font-family="sans-serif" font-size="13" lengthAdjust="spacing" textLength="52" x="1317.5" y="337.0669">requires</text></g><!--link com_acmeair_web_FlightsREST to com_acmeair_service_FlightService--><g id="link_com_acmeair_web_FlightsREST_com_acmeair_service_FlightService"><path d="M2781.51,258.59 C2733.04,288.33 2652.4135,337.8112 2603.8335,367.6312 " fill="none" id="com_acmeair_web_FlightsREST-to-com_acmeair_service_FlightService" style="stroke:#181818;stroke-width:1.0;stroke-dasharray:7.0,7.0;"/><polygon fill="#181818" points="2598.72,370.77,2608.4828,369.4708,2602.9812,368.1543,2604.2977,362.6528,2598.72,370.77" style="stroke:#181818;stroke-width:1.0;"/><text fill="#000000" font-family="sans-serif" font-size="13" lengthAdjust="spacing" textLength="52" x="2675.5" y="337.0669">requires</text></g><!--link com_acmeair_web_RESTCookieSessionFilter to com_acmeair_service_TransactionService--><g id="link_com_acmeair_web_RESTCookieSessionFilter_com_acmeair_service_TransactionService"><path d="M384.57,258.59 C456.13,288.38 577.281,338.7937 648.851,368.5937 " fill="none" id="com_acmeair_web_RESTCookieSessionFilter-to-com_acmeair_service_TransactionService" style="stroke:#181818;stroke-width:1.0;stroke-dasharray:7.0,7.0;"/><polygon fill="#181818" points="654.39,370.9,647.619,363.7478,649.7741,368.9781,644.5439,371.1332,654.39,370.9" style="stroke:#181818;stroke-width:1.0;"/><text fill="#000000" font-family="sans-serif" font-size="13" lengthAdjust="spacing" textLength="52" x="575.5" y="337.0669">requires</text></g><!--link com_acmeair_web_RESTCookieSessionFilter to com_acmeair_service_CustomerService--><g id="link_com_acmeair_web_RESTCookieSessionFilter_com_acmeair_service_CustomerService"><path d="M390.65,258.64 C428.14,271.56 477.98,286.71 523.5,294 C770,333.49 1403.98,264.8 1646.5,324 C1663.3,328.1 1664.81,336.46 1681.5,341 C1843.25,385.05 1890.75,353.75 2057.5,371 C2063.07,371.58 2062.7771,371.514 2068.5071,372.154 " fill="none" id="com_acmeair_web_RESTCookieSessionFilter-to-com_acmeair_service_CustomerService" style="stroke:#181818;stroke-width:1.0;stroke-dasharray:7.0,7.0;"/><polygon fill="#181818" points="2074.47,372.82,2065.9696,367.8457,2069.5009,372.265,2065.0816,375.7963,2074.47,372.82" style="stroke:#181818;stroke-width:1.0;"/><text fill="#000000" font-family="sans-serif" font-size="13" lengthAdjust="spacing" textLength="52" x="1682.5" y="337.0669">requires</text></g><!--link com_acmeair_loader_FlightLoader to com_acmeair_service_FlightService--><g id="link_com_acmeair_loader_FlightLoader_com_acmeair_service_FlightService"><path d="M2524.71,258.59 C2533.07,288.33 2546.2468,335.1737 2554.6268,364.9937 " fill="none" id="com_acmeair_loader_FlightLoader-to-com_acmeair_service_FlightService" style="stroke:#181818;stroke-width:1.0;stroke-dasharray:7.0,7.0;"/><polygon fill="#181818" points="2556.25,370.77,2557.666,361.0235,2554.8973,365.9565,2549.9643,363.1878,2556.25,370.77" style="stroke:#181818;stroke-width:1.0;"/><text fill="#000000" font-family="sans-serif" font-size="13" lengthAdjust="spacing" textLength="52" x="2547.5" y="337.0669">requires</text></g><!--link com_acmeair_service_CustomerService to com_acmeair_service_KeyGenerator--><g id="link_com_acmeair_service_CustomerService_com_acmeair_service_KeyGenerator"><path d="M2230.5,417.19 C2230.5,439.03 2230.5,466.16 2230.5,487.95 " fill="none" id="com_acmeair_service_CustomerService-to-com_acmeair_service_KeyGenerator" style="stroke:#181818;stroke-width:1.0;stroke-dasharray:7.0,7.0;"/><polygon fill="#181818" points="2230.5,493.95,2234.5,484.95,2230.5,488.95,2226.5,484.95,2230.5,493.95" style="stroke:#181818;stroke-width:1.0;"/><text fill="#000000" font-family="sans-serif" font-size="13" lengthAdjust="spacing" textLength="52" x="2231.5" y="460.0669">requires</text></g><!--link com_acmeair_config_AcmeAirConfiguration to com_acmeair_service_FlightService--><g id="link_com_acmeair_config_AcmeAirConfiguration_com_acmeair_service_FlightService"><path d="M1076.44,258.6 C1112.53,271.5 1160.55,286.65 1204.5,294 C1641.3,367.06 1760.27,275.72 2200.5,324 C2292.56,334.1 2390.3922,353.5317 2463.1222,369.6517 " fill="none" id="com_acmeair_config_AcmeAirConfiguration-to-com_acmeair_service_FlightService" style="stroke:#181818;stroke-width:1.0;stroke-dasharray:7.0,7.0;"/><polygon fill="#181818" points="2468.98,370.95,2461.0588,365.0973,2464.0985,369.868,2459.3277,372.9077,2468.98,370.95" style="stroke:#181818;stroke-width:1.0;"/><text fill="#000000" font-family="sans-serif" font-size="13" lengthAdjust="spacing" textLength="52" x="2311.5" y="337.0669">requires</text></g><!--link com_acmeair_config_AcmeAirConfiguration to com_acmeair_wxs_service_BookingServiceImpl--><g id="link_com_acmeair_config_AcmeAirConfiguration_com_acmeair_wxs_service_BookingServiceImpl"><path d="M1028.96,258.59 C1041.69,288.33 1061.8596,335.4338 1074.6196,365.2538 " fill="none" id="com_acmeair_config_AcmeAirConfiguration-to-com_acmeair_wxs_service_BookingServiceImpl" style="stroke:#181818;stroke-width:1.0;stroke-dasharray:7.0,7.0;"/><polygon fill="#181818" points="1076.98,370.77,1077.1169,360.9221,1075.013,366.1732,1069.7619,364.0693,1076.98,370.77" style="stroke:#181818;stroke-width:1.0;"/><text fill="#000000" font-family="sans-serif" font-size="13" lengthAdjust="spacing" textLength="52" x="1063.5" y="337.0669">requires</text></g><!--link com_acmeair_web_BookingsREST to com_acmeair_wxs_service_BookingServiceImpl--><g id="link_com_acmeair_web_BookingsREST_com_acmeair_wxs_service_BookingServiceImpl"><path d="M736.09,258.59 C813.74,288.38 945.5982,338.9507 1023.2682,368.7507 " fill="none" id="com_acmeair_web_BookingsREST-to-com_acmeair_wxs_service_BookingServiceImpl" style="stroke:#181818;stroke-width:1.0;stroke-dasharray:7.0,7.0;"/><polygon fill="#181818" points="1028.87,370.9,1021.9001,363.9415,1024.2018,369.1089,1019.0344,371.4106,1028.87,370.9" style="stroke:#181818;stroke-width:1.0;"/><text fill="#000000" font-family="sans-serif" font-size="13" lengthAdjust="spacing" textLength="52" x="943.5" y="337.0669">requires</text></g><!--link com_acmeair_loader_CustomerLoader to com_acmeair_service_CustomerService--><g id="link_com_acmeair_loader_CustomerLoader_com_acmeair_service_CustomerService"><path d="M2008.06,258.59 C2057.28,288.33 2139.235,337.8465 2188.575,367.6665 " fill="none" id="com_acmeair_loader_CustomerLoader-to-com_acmeair_service_CustomerService" style="stroke:#181818;stroke-width:1.0;stroke-dasharray:7.0,7.0;"/><polygon fill="#181818" points="2193.71,370.77,2188.0765,362.6914,2189.4308,368.1838,2183.9385,369.5381,2193.71,370.77" style="stroke:#181818;stroke-width:1.0;"/><text fill="#000000" font-family="sans-serif" font-size="13" lengthAdjust="spacing" textLength="52" x="2139.5" y="337.0669">requires</text></g><!--link com_acmeair_web_LoginREST to com_acmeair_service_CustomerService--><g id="link_com_acmeair_web_LoginREST_com_acmeair_service_CustomerService"><path d="M1709.4,258.58 C1736.46,270.21 1770.91,284.08 1802.5,294 C1859.9,312.02 1875.87,310.5 1934.5,324 C2002.12,339.57 2072.5277,355.9833 2130.7077,369.5933 " fill="none" id="com_acmeair_web_LoginREST-to-com_acmeair_service_CustomerService" style="stroke:#181818;stroke-width:1.0;stroke-dasharray:7.0,7.0;"/><polygon fill="#181818" points="2136.55,370.96,2128.6977,365.0151,2131.6814,369.8211,2126.8755,372.8048,2136.55,370.96" style="stroke:#181818;stroke-width:1.0;"/><text fill="#000000" font-family="sans-serif" font-size="13" lengthAdjust="spacing" textLength="52" x="2008.5" y="337.0669">requires</text></g><!--link com_acmeair_web_BookingsREST to com_acmeair_morphia_services_BookingServiceImpl--><g id="link_com_acmeair_web_BookingsREST_com_acmeair_morphia_services_BookingServiceImpl"><path d="M726.93,258.61 C757.19,271.34 797.33,286.31 834.5,294 C1071.62,343.08 1137.89,296.8 1378.5,324 C1422.86,329.02 1433.4,334.05 1477.5,341 C1543.51,351.41 1610.4893,361.2087 1673.4793,370.1287 " fill="none" id="com_acmeair_web_BookingsREST-to-com_acmeair_morphia_services_BookingServiceImpl" style="stroke:#181818;stroke-width:1.0;stroke-dasharray:7.0,7.0;"/><polygon fill="#181818" points="1679.42,370.97,1671.0697,365.7476,1674.4694,370.2689,1669.9481,373.6686,1679.42,370.97" style="stroke:#181818;stroke-width:1.0;"/><text fill="#000000" font-family="sans-serif" font-size="13" lengthAdjust="spacing" textLength="52" x="1478.5" y="337.0669">requires</text></g><!--link com_acmeair_config_AcmeAirConfiguration to com_acmeair_service_CustomerService--><g id="link_com_acmeair_config_AcmeAirConfiguration_com_acmeair_service_CustomerService"><path d="M1077.73,258.64 C1113.71,271.3 1161.14,286.18 1204.5,294 C1440.62,336.59 1511.61,262.41 1743.5,324 C1759.83,328.34 1761.29,336.25 1777.5,341 C1897.6,376.21 1933.19,356.44 2057.5,371 C2063.06,371.65 2062.7733,371.6002 2068.4833,372.2902 " fill="none" id="com_acmeair_config_AcmeAirConfiguration-to-com_acmeair_service_CustomerService" style="stroke:#181818;stroke-width:1.0;stroke-dasharray:7.0,7.0;"/><polygon fill="#181818" points="2074.44,373.01,2065.9849,367.9592,2069.4761,372.4102,2065.0251,375.9014,2074.44,373.01" style="stroke:#181818;stroke-width:1.0;"/><text fill="#000000" font-family="sans-serif" font-size="13" lengthAdjust="spacing" textLength="52" x="1778.5" y="337.0669">requires</text></g><!--link com_acmeair_web_CustomerREST to com_acmeair_service_CustomerService--><g id="link_com_acmeair_web_CustomerREST_com_acmeair_service_CustomerService"><path d="M1411.74,258.52 C1442.31,270.97 1482.48,285.67 1519.5,294 C1658.86,325.35 1702.4,283.89 1839.5,324 C1855.33,328.63 1856.79,335.97 1872.5,341 C1892.28,347.33 1981.2137,360.1993 2068.3237,371.9293 " fill="none" id="com_acmeair_web_CustomerREST-to-com_acmeair_service_CustomerService" style="stroke:#181818;stroke-width:1.0;stroke-dasharray:7.0,7.0;"/><polygon fill="#181818" points="2074.27,372.73,2065.8843,367.5647,2069.3147,372.0627,2064.8167,375.4931,2074.27,372.73" style="stroke:#181818;stroke-width:1.0;"/><text fill="#000000" font-family="sans-serif" font-size="13" lengthAdjust="spacing" textLength="52" x="1873.5" y="337.0669">requires</text></g><!--link com_acmeair_web_RESTCookieSessionFilter to com_acmeair_wxs_utils_WXSSessionManager--><g id="link_com_acmeair_web_RESTCookieSessionFilter_com_acmeair_wxs_utils_WXSSessionManager"><path d="M331.92,258.59 C332.49,288.33 333.3853,334.9511 333.9553,364.7711 " fill="none" id="com_acmeair_web_RESTCookieSessionFilter-to-com_acmeair_wxs_utils_WXSSessionManager" style="stroke:#181818;stroke-width:1.0;stroke-dasharray:7.0,7.0;"/><polygon fill="#181818" points="334.07,370.77,337.8973,361.6952,333.9744,365.7709,329.8987,361.8481,334.07,370.77" style="stroke:#181818;stroke-width:1.0;"/><text fill="#000000" font-family="sans-serif" font-size="13" lengthAdjust="spacing" textLength="52" x="334.5" y="337.0669">requires</text></g><!--link com_acmeair_config_AcmeAirConfiguration to com_acmeair_morphia_services_BookingServiceImpl--><g id="link_com_acmeair_config_AcmeAirConfiguration_com_acmeair_morphia_services_BookingServiceImpl"><path d="M1079.08,258.55 C1114.93,270.93 1161.77,285.55 1204.5,294 C1351.14,323.01 1393.35,292.6 1539.5,324 C1562.04,328.84 1566.28,334.87 1588.5,341 C1630.01,352.45 1670.1082,361.4851 1711.2582,369.7751 " fill="none" id="com_acmeair_config_AcmeAirConfiguration-to-com_acmeair_morphia_services_BookingServiceImpl" style="stroke:#181818;stroke-width:1.0;stroke-dasharray:7.0,7.0;"/><polygon fill="#181818" points="1717.14,370.96,1709.1072,365.2614,1712.2385,369.9725,1707.5273,373.1038,1717.14,370.96" style="stroke:#181818;stroke-width:1.0;"/><text fill="#000000" font-family="sans-serif" font-size="13" lengthAdjust="spacing" textLength="52" x="1589.5" y="337.0669">requires</text></g><!--link com_acmeair_web_BookingsREST to com_acmeair_service_BookingService--><g id="link_com_acmeair_web_BookingsREST_com_acmeair_service_BookingService"><path d="M728.46,258.55 C758.6,270.93 798.09,285.55 834.5,294 C960.72,323.3 996.47,304.01 1124.5,324 C1146.88,327.49 1257.2429,350.8743 1345.2729,369.7143 " fill="none" id="com_acmeair_web_BookingsREST-to-com_acmeair_service_BookingService" style="stroke:#181818;stroke-width:1.0;stroke-dasharray:7.0,7.0;"/><polygon fill="#181818" points="1351.14,370.97,1343.1764,365.1751,1346.2507,369.9236,1341.5022,372.9979,1351.14,370.97" style="stroke:#181818;stroke-width:1.0;"/><text fill="#000000" font-family="sans-serif" font-size="13" lengthAdjust="spacing" textLength="52" x="1204.5" y="337.0669">requires</text></g><!--link AcmeAirConfiguration_requires_SERVICE_HOST_customer_byid to com_acmeair_web_CustomerREST--><g id="link_AcmeAirConfiguration_requires_SERVICE_HOST_customer_byid_com_acmeair_web_CustomerREST"><path d="M1572.24,114.56 C1547.36,128.72 1454.24,181.72 1400.48,212.32 " fill="none" id="AcmeAirConfiguration_requires_SERVICE_HOST_customer_byid-com_acmeair_web_CustomerREST" style="stroke:#181818;stroke-width:1.0;"/></g><!--link AcmeAirConfiguration_requires_SERVICE_HOST_bookings to com_acmeair_web_BookingsREST--><g id="link_AcmeAirConfiguration_requires_SERVICE_HOST_bookings_com_acmeair_web_BookingsREST"><path d="M678.5,116.31 C678.5,132.65 678.5,182.9 678.5,212.35 " fill="none" id="AcmeAirConfiguration_requires_SERVICE_HOST_bookings-com_acmeair_web_BookingsREST" style="stroke:#181818;stroke-width:1.0;"/></g><!--link AcmeAirConfiguration_requires_SERVICE_HOST_login to com_acmeair_web_LoginREST--><g id="link_AcmeAirConfiguration_requires_SERVICE_HOST_login_com_acmeair_web_LoginREST"><path d="M1703.57,116.31 C1697.61,132.65 1679.3,182.9 1668.57,212.35 " fill="none" id="AcmeAirConfiguration_requires_SERVICE_HOST_login-com_acmeair_web_LoginREST" style="stroke:#181818;stroke-width:1.0;"/></g><!--link AcmeAirConfiguration_requires_SERVICE_HOST_flights to com_acmeair_web_FlightsREST--><g id="link_AcmeAirConfiguration_requires_SERVICE_HOST_flights_com_acmeair_web_FlightsREST"><path d="M2097.7,111.5 C2156.42,116.21 2613.87,153.29 2672.5,169 C2709.72,178.98 2749.43,197.53 2777.87,212.35 " fill="none" id="AcmeAirConfiguration_requires_SERVICE_HOST_flights-com_acmeair_web_FlightsREST" style="stroke:#181818;stroke-width:1.0;"/></g><!--link AcmeAirConfiguration_requires_com_acmeair_wxs_WXSConstants to com_acmeair_wxs_service_BookingServiceImpl--><g id="link_AcmeAirConfiguration_requires_com_acmeair_wxs_WXSConstants_com_acmeair_wxs_service_BookingServiceImpl"><path d="M122.25,116.1 C121.03,142.8 116.78,266.4 140.5,294 C225.82,393.26 531,341.8 887.5,371 C893.39,371.48 899.37,372 905.42,372.54 " fill="none" id="AcmeAirConfiguration_requires_com_acmeair_wxs_WXSConstants-com_acmeair_wxs_service_BookingServiceImpl" style="stroke:#181818;stroke-width:1.0;"/></g><!--link AcmeAirConfiguration_requires_Filter to com_acmeair_web_RESTCookieSessionFilter--><g id="link_AcmeAirConfiguration_requires_Filter_com_acmeair_web_RESTCookieSessionFilter"><path d="M331.5,116.31 C331.5,132.65 331.5,182.9 331.5,212.35 " fill="none" id="AcmeAirConfiguration_requires_Filter-com_acmeair_web_RESTCookieSessionFilter" style="stroke:#181818;stroke-width:1.0;"/></g><!--link AcmeAirConfiguration_requires_com_acmeair_morphia_MorphiaConstants to com_acmeair_morphia_services_BookingServiceImpl--><g id="link_AcmeAirConfiguration_requires_com_acmeair_morphia_MorphiaConstants_com_acmeair_morphia_services_BookingServiceImpl"><path d="M2200.65,110.97 C2270.29,110.67 2908.42,109.61 2963.5,169 C3001.28,209.73 2998.58,250.92 2963.5,294 C2885.4,389.92 2574.92,333.49 2057.5,371 C2051.62,371.43 2045.65,371.88 2039.63,372.36 " fill="none" id="AcmeAirConfiguration_requires_com_acmeair_morphia_MorphiaConstants-com_acmeair_morphia_services_BookingServiceImpl" style="stroke:#181818;stroke-width:1.0;"/></g><!--link AcmeAirConfiguration_requires_com_acmeair_wxs_WXSConstants to com_acmeair_wxs_utils_WXSSessionManager--><g id="link_AcmeAirConfiguration_requires_com_acmeair_wxs_WXSConstants_com_acmeair_wxs_utils_WXSSessionManager"><path d="M120.17,116.09 C108.26,142.94 56.93,269.58 113.5,341 C123.44,353.55 149.33,363.38 180.05,370.94 " fill="none" id="AcmeAirConfiguration_requires_com_acmeair_wxs_WXSConstants-com_acmeair_wxs_utils_WXSSessionManager" style="stroke:#181818;stroke-width:1.0;"/></g><!--link AcmeAirConfiguration_requires_SERVICE_HOST_config to com_acmeair_config_AcmeAirConfiguration--><g id="link_AcmeAirConfiguration_requires_SERVICE_HOST_config_com_acmeair_config_AcmeAirConfiguration"><path d="M1019.5,116.31 C1019.5,132.65 1019.5,182.9 1019.5,212.35 " fill="none" id="AcmeAirConfiguration_requires_SERVICE_HOST_config-com_acmeair_config_AcmeAirConfiguration" style="stroke:#181818;stroke-width:1.0;"/></g><!--link interface.Filter to AcmeAirConfiguration_requires_Filter--><g id="link_interface.Filter_AcmeAirConfiguration_requires_Filter"><path d="M331.5,23.01 C331.5,41.84 331.5,88.45 331.5,103.92 " fill="none" id="interface.Filter-AcmeAirConfiguration_requires_Filter" style="stroke:#181818;stroke-width:1.0;"/></g><!--link interface.SERVICE_HOST_bookings to AcmeAirConfiguration_requires_SERVICE_HOST_bookings--><g id="link_interface.SERVICE_HOST_bookings_AcmeAirConfiguration_requires_SERVICE_HOST_bookings"><path d="M678.5,23.01 C678.5,41.84 678.5,88.45 678.5,103.92 " fill="none" id="interface.SERVICE_HOST_bookings-AcmeAirConfiguration_requires_SERVICE_HOST_bookings" style="stroke:#181818;stroke-width:1.0;"/></g><!--link interface.SERVICE_HOST_config to AcmeAirConfiguration_requires_SERVICE_HOST_config--><g id="link_interface.SERVICE_HOST_config_AcmeAirConfiguration_requires_SERVICE_HOST_config"><path d="M1019.5,23.01 C1019.5,41.84 1019.5,88.45 1019.5,103.92 " fill="none" id="interface.SERVICE_HOST_config-AcmeAirConfiguration_requires_SERVICE_HOST_config" style="stroke:#181818;stroke-width:1.0;"/></g><!--link interface.SERVICE_HOST_customer_byid to AcmeAirConfiguration_requires_SERVICE_HOST_customer_byid--><g id="link_interface.SERVICE_HOST_customer_byid_AcmeAirConfiguration_requires_SERVICE_HOST_customer_byid"><path d="M1498,23.01 C1515.63,41.84 1559.27,88.45 1573.75,103.92 " fill="none" id="interface.SERVICE_HOST_customer_byid-AcmeAirConfiguration_requires_SERVICE_HOST_customer_byid" style="stroke:#181818;stroke-width:1.0;"/></g><!--link interface.SERVICE_HOST_flights to AcmeAirConfiguration_requires_SERVICE_HOST_flights--><g id="link_interface.SERVICE_HOST_flights_AcmeAirConfiguration_requires_SERVICE_HOST_flights"><path d="M1990.5,22.69 C2012.26,41.28 2067.24,88.27 2085.5,103.88 " fill="none" id="interface.SERVICE_HOST_flights-AcmeAirConfiguration_requires_SERVICE_HOST_flights" style="stroke:#181818;stroke-width:1.0;"/></g><!--link interface.SERVICE_HOST_login to AcmeAirConfiguration_requires_SERVICE_HOST_login--><g id="link_interface.SERVICE_HOST_login_AcmeAirConfiguration_requires_SERVICE_HOST_login"><path d="M1713.73,23.01 C1711.93,41.84 1707.47,88.45 1705.99,103.92 " fill="none" id="interface.SERVICE_HOST_login-AcmeAirConfiguration_requires_SERVICE_HOST_login" style="stroke:#181818;stroke-width:1.0;"/></g><!--link interface.com_acmeair_morphia_MorphiaConstants to AcmeAirConfiguration_requires_com_acmeair_morphia_MorphiaConstants--><g id="link_interface.com_acmeair_morphia_MorphiaConstants_AcmeAirConfiguration_requires_com_acmeair_morphia_MorphiaConstants"><path d="M2244.81,23.01 C2233.8,41.84 2206.52,88.45 2197.47,103.92 " fill="none" id="interface.com_acmeair_morphia_MorphiaConstants-AcmeAirConfiguration_requires_com_acmeair_morphia_MorphiaConstants" style="stroke:#181818;stroke-width:1.0;"/></g><!--link interface.com_acmeair_wxs_WXSConstants to AcmeAirConfiguration_requires_com_acmeair_wxs_WXSConstants--><g id="link_interface.com_acmeair_wxs_WXSConstants_AcmeAirConfiguration_requires_com_acmeair_wxs_WXSConstants"><path d="M122.5,23.01 C122.5,41.84 122.5,88.45 122.5,103.92 " fill="none" id="interface.com_acmeair_wxs_WXSConstants-AcmeAirConfiguration_requires_com_acmeair_wxs_WXSConstants" style="stroke:#181818;stroke-width:1.0;"/></g><!--link com_acmeair_config_LoaderREST to com_acmeair_loader_Loader--><g id="link_com_acmeair_config_LoaderREST_com_acmeair_loader_Loader"><path d="M3298.5,258.59 C3298.5,288.33 3298.5,334.95 3298.5,364.77 " fill="none" id="com_acmeair_config_LoaderREST-to-com_acmeair_loader_Loader" style="stroke:#181818;stroke-width:1.0;stroke-dasharray:7.0,7.0;"/><polygon fill="#181818" points="3298.5,370.77,3302.5,361.77,3298.5,365.77,3294.5,361.77,3298.5,370.77" style="stroke:#181818;stroke-width:1.0;"/><text fill="#000000" font-family="sans-serif" font-size="13" lengthAdjust="spacing" textLength="52" x="3299.5" y="337.0669">requires</text></g><!--link LoaderREST_requires_SERVICE_HOST_loader to com_acmeair_config_LoaderREST--><g id="link_LoaderREST_requires_SERVICE_HOST_loader_com_acmeair_config_LoaderREST"><path d="M3136.88,115.69 C3158.16,131.33 3227.63,182.4 3268.23,212.25 " fill="none" id="LoaderREST_requires_SERVICE_HOST_loader-com_acmeair_config_LoaderREST" style="stroke:#181818;stroke-width:1.0;"/></g><!--link interface.SERVICE_HOST_loader to LoaderREST_requires_SERVICE_HOST_loader--><g id="link_interface.SERVICE_HOST_loader_LoaderREST_requires_SERVICE_HOST_loader"><path d="M3130.5,23.01 C3130.5,41.84 3130.5,88.45 3130.5,103.92 " fill="none" id="interface.SERVICE_HOST_loader-LoaderREST_requires_SERVICE_HOST_loader" style="stroke:#181818;stroke-width:1.0;"/></g><!--SRC=[hLXHRvim47xFhq1-JohjSG-LkYXTgwMgLA9jqbOXXphKgh6PRRf6K__x89WK4zlO1F4G1H_VVNS-ttqWNZ0j88TvjCDlIynJWjPmYyZzA-845WMcMIHvYMRYQ9Yol60KKHdBFK5HcPDFi-Ez25obERh2VCde3cSbXn8p-hjpWUZVx5Tbdy3A46AU_7qJYK3y5QSe-S9OvIUBcx-tUK4UUyPeconB8LcE-CCgtlIMquFNnCJXyTHhAJ4HoO-VSOo4g4pk88KPuWQNYfSmkAoNhmdEdgLfbJ3uXBWoM1_-z2pQqB-X_LT4KKMMsKms7581qpeQbI6BePv6Yr6RHhEL8juQ6QdNeQzPXgabBVNjPKq5gGHVOoAj2MXoP6QJCruyOzZQ2cEX58nBJ2DGNL14fXf8EFfJObuzto-5gWWgIo4XbI88g0afw95uzV3zThbARkxZJR9LbJKUeQdvyS-JUWT79w_TcRlcTrmIzNXKoINRFNuQ3xDhpgH_VrWiBdqEK_GvQXsw6u4DJwzp9vpj0DcW3GrYKln-ox22czhUcVcmSR31QltKYZgc83m9Xq0Fp43d9cgpQIfWS_i_koxqYJ49d3DydxanQMq4KTU4p2I8lWVQfNucoSTPYH_SLe_M3CPE732V3oXEC6Aycr1rKGb2HxO9igF6GFYiD25gqXQC5rKds0Eg7_Z8BXDXg-W4vukQlZylMJfnqgmlBI1OC_RXdMzFxpDCgppkO8eYeD9VIxBZtOMImlqRyxdVNdRn5TbvJVRYU8PqTsOPFR0-ICPyUgtSL28Tp9GyTww6iL8-xPnKjxeuj3CNDKrf-nW54jNwgfLlstqSJ5inxruEOzUwjV9gkgo3LVFcv5eCOzGuxFBnQaewGw-Nip3pmIYyQDhYEcbwzdXEtjJzp8Budz3fVjngT70zOfoVj9HwDduqKKts0wd_uU9ZnLecjS4GQbypwPmqgUJfqJ8kkf6yEmxJ0S9vcWvXELUhdVGbE_iF]--></g></svg>