<?xml version="1.0" encoding="us-ascii" standalone="no"?><svg xmlns="http://www.w3.org/2000/svg" xmlns:xlink="http://www.w3.org/1999/xlink" contentStyleType="text/css" height="439px" preserveAspectRatio="none" style="width:3356px;height:439px;background:#FFFFFF;" version="1.1" viewBox="0 0 3356 439" width="3356px" zoomAndPan="magnify"><defs/><g><!--cluster com_acmeair\n\n\n\n\n\n--><g id="cluster_com_acmeair\n\n\n\n\n\n"><rect fill="none" height="323" rx="2.5" ry="2.5" style="stroke:#181818;stroke-width:1.0;" width="2863" x="7" y="110"/><rect fill="none" height="10" style="stroke:#181818;stroke-width:1.0;" width="15" x="2850" y="115"/><rect fill="none" height="2" style="stroke:#181818;stroke-width:1.0;" width="4" x="2848" y="117"/><rect fill="none" height="2" style="stroke:#181818;stroke-width:1.0;" width="4" x="2848" y="121"/><text fill="#000000" font-family="sans-serif" font-size="14" font-weight="bold" lengthAdjust="spacing" textLength="102" x="1387.5" y="135.9951">com_acmeair</text><text fill="#000000" font-family="sans-serif" font-size="14" font-weight="bold" lengthAdjust="spacing" textLength="5" x="1436" y="152.292">&#160;</text><text fill="#000000" font-family="sans-serif" font-size="14" font-weight="bold" lengthAdjust="spacing" textLength="5" x="1436" y="168.5889">&#160;</text><text fill="#000000" font-family="sans-serif" font-size="14" font-weight="bold" lengthAdjust="spacing" textLength="5" x="1436" y="184.8857">&#160;</text><text fill="#000000" font-family="sans-serif" font-size="14" font-weight="bold" lengthAdjust="spacing" textLength="5" x="1436" y="201.1826">&#160;</text><text fill="#000000" font-family="sans-serif" font-size="14" font-weight="bold" lengthAdjust="spacing" textLength="5" x="1436" y="217.4795">&#160;</text><text fill="#000000" font-family="sans-serif" font-size="14" font-weight="bold" lengthAdjust="spacing" textLength="5" x="1436" y="233.7764">&#160;</text></g><!--cluster com_acmeair 2\n\n\n\n\n\n--><g id="cluster_com_acmeair 2\n\n\n\n\n\n"><rect fill="none" height="323" rx="2.5" ry="2.5" style="stroke:#181818;stroke-width:1.0;" width="347" x="3003" y="110"/><rect fill="none" height="10" style="stroke:#181818;stroke-width:1.0;" width="15" x="3330" y="115"/><rect fill="none" height="2" style="stroke:#181818;stroke-width:1.0;" width="4" x="3328" y="117"/><rect fill="none" height="2" style="stroke:#181818;stroke-width:1.0;" width="4" x="3328" y="121"/><text fill="#000000" font-family="sans-serif" font-size="14" font-weight="bold" lengthAdjust="spacing" textLength="117" x="3118" y="135.9951">com_acmeair 2</text><text fill="#000000" font-family="sans-serif" font-size="14" font-weight="bold" lengthAdjust="spacing" textLength="5" x="3174" y="152.292">&#160;</text><text fill="#000000" font-family="sans-serif" font-size="14" font-weight="bold" lengthAdjust="spacing" textLength="5" x="3174" y="168.5889">&#160;</text><text fill="#000000" font-family="sans-serif" font-size="14" font-weight="bold" lengthAdjust="spacing" textLength="5" x="3174" y="184.8857">&#160;</text><text fill="#000000" font-family="sans-serif" font-size="14" font-weight="bold" lengthAdjust="spacing" textLength="5" x="3174" y="201.1826">&#160;</text><text fill="#000000" font-family="sans-serif" font-size="14" font-weight="bold" lengthAdjust="spacing" textLength="5" x="3174" y="217.4795">&#160;</text><text fill="#000000" font-family="sans-serif" font-size="14" font-weight="bold" lengthAdjust="spacing" textLength="5" x="3174" y="233.7764">&#160;</text></g><!--entity com_acmeair_wxs_utils_WXSSessionManager--><g id="elem_com_acmeair_wxs_utils_WXSSessionManager"><rect fill="#F1F1F1" height="46.2969" rx="2.5" ry="2.5" style="stroke:#181818;stroke-width:0.5;" width="352" x="23" y="371"/><rect fill="#F1F1F1" height="10" style="stroke:#181818;stroke-width:0.5;" width="15" x="355" y="376"/><rect fill="#F1F1F1" height="2" style="stroke:#181818;stroke-width:0.5;" width="4" x="353" y="378"/><rect fill="#F1F1F1" height="2" style="stroke:#181818;stroke-width:0.5;" width="4" x="353" y="382"/><text fill="#000000" font-family="sans-serif" font-size="14" lengthAdjust="spacing" textLength="312" x="38" y="403.9951">com_acmeair_wxs_utils_WXSSessionManager</text></g><!--entity com_acmeair_web_FlightsREST--><g id="elem_com_acmeair_web_FlightsREST"><rect fill="#F1F1F1" height="46.2969" rx="2.5" ry="2.5" style="stroke:#181818;stroke-width:0.5;" width="256" x="1647" y="212.5"/><rect fill="#F1F1F1" height="10" style="stroke:#181818;stroke-width:0.5;" width="15" x="1883" y="217.5"/><rect fill="#F1F1F1" height="2" style="stroke:#181818;stroke-width:0.5;" width="4" x="1881" y="219.5"/><rect fill="#F1F1F1" height="2" style="stroke:#181818;stroke-width:0.5;" width="4" x="1881" y="223.5"/><text fill="#000000" font-family="sans-serif" font-size="14" lengthAdjust="spacing" textLength="216" x="1662" y="245.4951">com_acmeair_web_FlightsREST</text></g><!--entity com_acmeair_wxs_service_FlightServiceImpl--><g id="elem_com_acmeair_wxs_service_FlightServiceImpl"><rect fill="#F1F1F1" height="46.2969" rx="2.5" ry="2.5" style="stroke:#181818;stroke-width:0.5;" width="342" x="1680" y="371"/><rect fill="#F1F1F1" height="10" style="stroke:#181818;stroke-width:0.5;" width="15" x="2002" y="376"/><rect fill="#F1F1F1" height="2" style="stroke:#181818;stroke-width:0.5;" width="4" x="2000" y="378"/><rect fill="#F1F1F1" height="2" style="stroke:#181818;stroke-width:0.5;" width="4" x="2000" y="382"/><text fill="#000000" font-family="sans-serif" font-size="14" lengthAdjust="spacing" textLength="302" x="1695" y="403.9951">com_acmeair_wxs_service_FlightServiceImpl</text></g><!--entity com_acmeair_morphia_services_FlightServiceImpl--><g id="elem_com_acmeair_morphia_services_FlightServiceImpl"><rect fill="#F1F1F1" height="46.2969" rx="2.5" ry="2.5" style="stroke:#181818;stroke-width:0.5;" width="380" x="1265" y="371"/><rect fill="#F1F1F1" height="10" style="stroke:#181818;stroke-width:0.5;" width="15" x="1625" y="376"/><rect fill="#F1F1F1" height="2" style="stroke:#181818;stroke-width:0.5;" width="4" x="1623" y="378"/><rect fill="#F1F1F1" height="2" style="stroke:#181818;stroke-width:0.5;" width="4" x="1623" y="382"/><text fill="#000000" font-family="sans-serif" font-size="14" lengthAdjust="spacing" textLength="340" x="1280" y="403.9951">com_acmeair_morphia_services_FlightServiceImpl</text></g><!--entity com_acmeair_morphia_services_CustomerServiceImpl--><g id="elem_com_acmeair_morphia_services_CustomerServiceImpl"><rect fill="#F1F1F1" height="46.2969" rx="2.5" ry="2.5" style="stroke:#181818;stroke-width:0.5;" width="411" x="410.5" y="371"/><rect fill="#F1F1F1" height="10" style="stroke:#181818;stroke-width:0.5;" width="15" x="801.5" y="376"/><rect fill="#F1F1F1" height="2" style="stroke:#181818;stroke-width:0.5;" width="4" x="799.5" y="378"/><rect fill="#F1F1F1" height="2" style="stroke:#181818;stroke-width:0.5;" width="4" x="799.5" y="382"/><text fill="#000000" font-family="sans-serif" font-size="14" lengthAdjust="spacing" textLength="371" x="425.5" y="403.9951">com_acmeair_morphia_services_CustomerServiceImpl</text></g><!--entity com_acmeair_web_CustomerREST--><g id="elem_com_acmeair_web_CustomerREST"><rect fill="#F1F1F1" height="46.2969" rx="2.5" ry="2.5" style="stroke:#181818;stroke-width:0.5;" width="279" x="1025.5" y="212.5"/><rect fill="#F1F1F1" height="10" style="stroke:#181818;stroke-width:0.5;" width="15" x="1284.5" y="217.5"/><rect fill="#F1F1F1" height="2" style="stroke:#181818;stroke-width:0.5;" width="4" x="1282.5" y="219.5"/><rect fill="#F1F1F1" height="2" style="stroke:#181818;stroke-width:0.5;" width="4" x="1282.5" y="223.5"/><text fill="#000000" font-family="sans-serif" font-size="14" lengthAdjust="spacing" textLength="239" x="1040.5" y="245.4951">com_acmeair_web_CustomerREST</text></g><!--entity com_acmeair_morphia_services_BookingServiceImpl--><g id="elem_com_acmeair_morphia_services_BookingServiceImpl"><rect fill="#F1F1F1" height="46.2969" rx="2.5" ry="2.5" style="stroke:#181818;stroke-width:0.5;" width="400" x="2057" y="371"/><rect fill="#F1F1F1" height="10" style="stroke:#181818;stroke-width:0.5;" width="15" x="2437" y="376"/><rect fill="#F1F1F1" height="2" style="stroke:#181818;stroke-width:0.5;" width="4" x="2435" y="378"/><rect fill="#F1F1F1" height="2" style="stroke:#181818;stroke-width:0.5;" width="4" x="2435" y="382"/><text fill="#000000" font-family="sans-serif" font-size="14" lengthAdjust="spacing" textLength="360" x="2072" y="403.9951">com_acmeair_morphia_services_BookingServiceImpl</text></g><!--entity com_acmeair_web_LoginREST--><g id="elem_com_acmeair_web_LoginREST"><rect fill="#F1F1F1" height="46.2969" rx="2.5" ry="2.5" style="stroke:#181818;stroke-width:0.5;" width="248" x="404" y="212.5"/><rect fill="#F1F1F1" height="10" style="stroke:#181818;stroke-width:0.5;" width="15" x="632" y="217.5"/><rect fill="#F1F1F1" height="2" style="stroke:#181818;stroke-width:0.5;" width="4" x="630" y="219.5"/><rect fill="#F1F1F1" height="2" style="stroke:#181818;stroke-width:0.5;" width="4" x="630" y="223.5"/><text fill="#000000" font-family="sans-serif" font-size="14" lengthAdjust="spacing" textLength="208" x="419" y="245.4951">com_acmeair_web_LoginREST</text></g><!--entity com_acmeair_loader_CustomerLoader--><g id="elem_com_acmeair_loader_CustomerLoader"><rect fill="#F1F1F1" height="46.2969" rx="2.5" ry="2.5" style="stroke:#181818;stroke-width:0.5;" width="303" x="687.5" y="212.5"/><rect fill="#F1F1F1" height="10" style="stroke:#181818;stroke-width:0.5;" width="15" x="970.5" y="217.5"/><rect fill="#F1F1F1" height="2" style="stroke:#181818;stroke-width:0.5;" width="4" x="968.5" y="219.5"/><rect fill="#F1F1F1" height="2" style="stroke:#181818;stroke-width:0.5;" width="4" x="968.5" y="223.5"/><text fill="#000000" font-family="sans-serif" font-size="14" lengthAdjust="spacing" textLength="263" x="702.5" y="245.4951">com_acmeair_loader_CustomerLoader</text></g><!--entity com_acmeair_web_BookingsREST--><g id="elem_com_acmeair_web_BookingsREST"><rect fill="#F1F1F1" height="46.2969" rx="2.5" ry="2.5" style="stroke:#181818;stroke-width:0.5;" width="276" x="2462" y="212.5"/><rect fill="#F1F1F1" height="10" style="stroke:#181818;stroke-width:0.5;" width="15" x="2718" y="217.5"/><rect fill="#F1F1F1" height="2" style="stroke:#181818;stroke-width:0.5;" width="4" x="2716" y="219.5"/><rect fill="#F1F1F1" height="2" style="stroke:#181818;stroke-width:0.5;" width="4" x="2716" y="223.5"/><text fill="#000000" font-family="sans-serif" font-size="14" lengthAdjust="spacing" textLength="236" x="2477" y="245.4951">com_acmeair_web_BookingsREST</text></g><!--entity com_acmeair_loader_FlightLoader--><g id="elem_com_acmeair_loader_FlightLoader"><rect fill="#F1F1F1" height="46.2969" rx="2.5" ry="2.5" style="stroke:#181818;stroke-width:0.5;" width="272" x="1340" y="212.5"/><rect fill="#F1F1F1" height="10" style="stroke:#181818;stroke-width:0.5;" width="15" x="1592" y="217.5"/><rect fill="#F1F1F1" height="2" style="stroke:#181818;stroke-width:0.5;" width="4" x="1590" y="219.5"/><rect fill="#F1F1F1" height="2" style="stroke:#181818;stroke-width:0.5;" width="4" x="1590" y="223.5"/><text fill="#000000" font-family="sans-serif" font-size="14" lengthAdjust="spacing" textLength="232" x="1355" y="245.4951">com_acmeair_loader_FlightLoader</text></g><!--entity com_acmeair_config_AcmeAirConfiguration--><g id="elem_com_acmeair_config_AcmeAirConfiguration"><rect fill="#F1F1F1" height="46.2969" rx="2.5" ry="2.5" style="stroke:#181818;stroke-width:0.5;" width="335" x="2091.5" y="212.5"/><rect fill="#F1F1F1" height="10" style="stroke:#181818;stroke-width:0.5;" width="15" x="2406.5" y="217.5"/><rect fill="#F1F1F1" height="2" style="stroke:#181818;stroke-width:0.5;" width="4" x="2404.5" y="219.5"/><rect fill="#F1F1F1" height="2" style="stroke:#181818;stroke-width:0.5;" width="4" x="2404.5" y="223.5"/><text fill="#000000" font-family="sans-serif" font-size="14" lengthAdjust="spacing" textLength="295" x="2106.5" y="245.4951">com_acmeair_config_AcmeAirConfiguration</text></g><!--entity com_acmeair_wxs_service_CustomerServiceImpl--><g id="elem_com_acmeair_wxs_service_CustomerServiceImpl"><rect fill="#F1F1F1" height="46.2969" rx="2.5" ry="2.5" style="stroke:#181818;stroke-width:0.5;" width="373" x="856.5" y="371"/><rect fill="#F1F1F1" height="10" style="stroke:#181818;stroke-width:0.5;" width="15" x="1209.5" y="376"/><rect fill="#F1F1F1" height="2" style="stroke:#181818;stroke-width:0.5;" width="4" x="1207.5" y="378"/><rect fill="#F1F1F1" height="2" style="stroke:#181818;stroke-width:0.5;" width="4" x="1207.5" y="382"/><text fill="#000000" font-family="sans-serif" font-size="14" lengthAdjust="spacing" textLength="333" x="871.5" y="403.9951">com_acmeair_wxs_service_CustomerServiceImpl</text></g><!--entity com_acmeair_wxs_service_BookingServiceImpl--><g id="elem_com_acmeair_wxs_service_BookingServiceImpl"><rect fill="#F1F1F1" height="46.2969" rx="2.5" ry="2.5" style="stroke:#181818;stroke-width:0.5;" width="362" x="2492" y="371"/><rect fill="#F1F1F1" height="10" style="stroke:#181818;stroke-width:0.5;" width="15" x="2834" y="376"/><rect fill="#F1F1F1" height="2" style="stroke:#181818;stroke-width:0.5;" width="4" x="2832" y="378"/><rect fill="#F1F1F1" height="2" style="stroke:#181818;stroke-width:0.5;" width="4" x="2832" y="382"/><text fill="#000000" font-family="sans-serif" font-size="14" lengthAdjust="spacing" textLength="322" x="2507" y="403.9951">com_acmeair_wxs_service_BookingServiceImpl</text></g><!--entity com_acmeair_web_RESTCookieSessionFilter--><g id="elem_com_acmeair_web_RESTCookieSessionFilter"><rect fill="#F1F1F1" height="46.2969" rx="2.5" ry="2.5" style="stroke:#181818;stroke-width:0.5;" width="347" x="22.5" y="212.5"/><rect fill="#F1F1F1" height="10" style="stroke:#181818;stroke-width:0.5;" width="15" x="349.5" y="217.5"/><rect fill="#F1F1F1" height="2" style="stroke:#181818;stroke-width:0.5;" width="4" x="347.5" y="219.5"/><rect fill="#F1F1F1" height="2" style="stroke:#181818;stroke-width:0.5;" width="4" x="347.5" y="223.5"/><text fill="#000000" font-family="sans-serif" font-size="14" lengthAdjust="spacing" textLength="307" x="37.5" y="245.4951">com_acmeair_web_RESTCookieSessionFilter</text></g><text fill="#000000" font-family="sans-serif" font-size="14" lengthAdjust="spacing" textLength="4" x="1357" y="88.6982">&#160;</text><rect fill="#F1F1F1" height="12" style="stroke:#181818;stroke-width:1.5;" width="12" x="1353" y="104"/><text fill="#000000" font-family="sans-serif" font-size="14" lengthAdjust="spacing" textLength="4" x="1517" y="88.6982">&#160;</text><rect fill="#F1F1F1" height="12" style="stroke:#181818;stroke-width:1.5;" width="12" x="1513" y="104"/><text fill="#000000" font-family="sans-serif" font-size="14" lengthAdjust="spacing" textLength="4" x="1221" y="88.6982">&#160;</text><rect fill="#F1F1F1" height="12" style="stroke:#181818;stroke-width:1.5;" width="12" x="1217" y="104"/><text fill="#000000" font-family="sans-serif" font-size="14" lengthAdjust="spacing" textLength="4" x="2181" y="88.6982">&#160;</text><rect fill="#F1F1F1" height="12" style="stroke:#181818;stroke-width:1.5;" width="12" x="2177" y="104"/><text fill="#000000" font-family="sans-serif" font-size="14" lengthAdjust="spacing" textLength="4" x="2066" y="88.6982">&#160;</text><rect fill="#F1F1F1" height="12" style="stroke:#181818;stroke-width:1.5;" width="12" x="2062" y="104"/><!--entity com_acmeair_config_LoaderREST--><g id="elem_com_acmeair_config_LoaderREST"><rect fill="#F1F1F1" height="46.2969" rx="2.5" ry="2.5" style="stroke:#181818;stroke-width:0.5;" width="271" x="3062.5" y="212.5"/><rect fill="#F1F1F1" height="10" style="stroke:#181818;stroke-width:0.5;" width="15" x="3313.5" y="217.5"/><rect fill="#F1F1F1" height="2" style="stroke:#181818;stroke-width:0.5;" width="4" x="3311.5" y="219.5"/><rect fill="#F1F1F1" height="2" style="stroke:#181818;stroke-width:0.5;" width="4" x="3311.5" y="223.5"/><text fill="#000000" font-family="sans-serif" font-size="14" lengthAdjust="spacing" textLength="231" x="3077.5" y="245.4951">com_acmeair_config_LoaderREST</text></g><!--entity com_acmeair_loader_Loader--><g id="elem_com_acmeair_loader_Loader"><rect fill="#F1F1F1" height="46.2969" rx="2.5" ry="2.5" style="stroke:#181818;stroke-width:0.5;" width="235" x="3080.5" y="371"/><rect fill="#F1F1F1" height="10" style="stroke:#181818;stroke-width:0.5;" width="15" x="3295.5" y="376"/><rect fill="#F1F1F1" height="2" style="stroke:#181818;stroke-width:0.5;" width="4" x="3293.5" y="378"/><rect fill="#F1F1F1" height="2" style="stroke:#181818;stroke-width:0.5;" width="4" x="3293.5" y="382"/><text fill="#000000" font-family="sans-serif" font-size="14" lengthAdjust="spacing" textLength="195" x="3095.5" y="403.9951">com_acmeair_loader_Loader</text></g><text fill="#000000" font-family="sans-serif" font-size="14" lengthAdjust="spacing" textLength="4" x="3019" y="88.6982">&#160;</text><rect fill="#F1F1F1" height="12" style="stroke:#181818;stroke-width:1.5;" width="12" x="3015" y="104"/><!--entity interface.SERVICE_HOST_bookings--><g id="elem_interface.SERVICE_HOST_bookings"><ellipse cx="2003" cy="14" fill="#F1F1F1" rx="8" ry="8" style="stroke:#181818;stroke-width:0.5;"/><text fill="#000000" font-family="sans-serif" font-size="14" lengthAdjust="spacing" textLength="172" x="1917" y="43.9951">SERVICE-HOST/bookings</text></g><!--entity interface.SERVICE_HOST_config--><g id="elem_interface.SERVICE_HOST_config"><ellipse cx="2215" cy="14" fill="#F1F1F1" rx="8" ry="8" style="stroke:#181818;stroke-width:0.5;"/><text fill="#000000" font-family="sans-serif" font-size="14" lengthAdjust="spacing" textLength="150" x="2140" y="43.9951">SERVICE-HOST/config</text></g><!--entity interface.SERVICE_HOST_customer_byid--><g id="elem_interface.SERVICE_HOST_customer_byid"><ellipse cx="1359" cy="14" fill="#F1F1F1" rx="8" ry="8" style="stroke:#181818;stroke-width:0.5;"/><text fill="#000000" font-family="sans-serif" font-size="14" lengthAdjust="spacing" textLength="207" x="1255.5" y="43.9951">SERVICE-HOST/customer/byid</text></g><!--entity interface.SERVICE_HOST_flights--><g id="elem_interface.SERVICE_HOST_flights"><ellipse cx="1587" cy="14" fill="#F1F1F1" rx="8" ry="8" style="stroke:#181818;stroke-width:0.5;"/><text fill="#000000" font-family="sans-serif" font-size="14" lengthAdjust="spacing" textLength="149" x="1512.5" y="43.9951">SERVICE-HOST/flights</text></g><!--entity interface.SERVICE_HOST_login--><g id="elem_interface.SERVICE_HOST_login"><ellipse cx="1135" cy="14" fill="#F1F1F1" rx="8" ry="8" style="stroke:#181818;stroke-width:0.5;"/><text fill="#000000" font-family="sans-serif" font-size="14" lengthAdjust="spacing" textLength="141" x="1064.5" y="43.9951">SERVICE-HOST/login</text></g><!--entity interface.SERVICE_HOST_loader--><g id="elem_interface.SERVICE_HOST_loader"><ellipse cx="3021" cy="14" fill="#F1F1F1" rx="8" ry="8" style="stroke:#181818;stroke-width:0.5;"/><text fill="#000000" font-family="sans-serif" font-size="14" lengthAdjust="spacing" textLength="151" x="2945.5" y="43.9951">SERVICE-HOST/loader</text></g><!--link com_acmeair_web_BookingsREST to com_acmeair_morphia_services_BookingServiceImpl--><g id="link_com_acmeair_web_BookingsREST_com_acmeair_morphia_services_BookingServiceImpl"><path d="M2551.58,258.59 C2486.31,288.38 2376.1983,338.6087 2310.9083,368.4087 " fill="none" id="com_acmeair_web_BookingsREST-to-com_acmeair_morphia_services_BookingServiceImpl" style="stroke:#181818;stroke-width:1.0;stroke-dasharray:7.0,7.0;"/><polygon fill="#181818" points="2305.45,370.9,2315.2984,370.8019,2309.9986,368.8239,2311.9766,363.5241,2305.45,370.9" style="stroke:#181818;stroke-width:1.0;"/><text fill="#000000" font-family="sans-serif" font-size="13" lengthAdjust="spacing" textLength="52" x="2408" y="337.0669">requires</text></g><!--link com_acmeair_config_AcmeAirConfiguration to com_acmeair_morphia_services_BookingServiceImpl--><g id="link_com_acmeair_config_AcmeAirConfiguration_com_acmeair_morphia_services_BookingServiceImpl"><path d="M2258.72,258.59 C2258.34,288.33 2257.7485,334.9505 2257.3585,364.7705 " fill="none" id="com_acmeair_config_AcmeAirConfiguration-to-com_acmeair_morphia_services_BookingServiceImpl" style="stroke:#181818;stroke-width:1.0;stroke-dasharray:7.0,7.0;"/><polygon fill="#181818" points="2257.28,370.77,2261.3974,361.8231,2257.3454,365.7704,2253.398,361.7185,2257.28,370.77" style="stroke:#181818;stroke-width:1.0;"/><text fill="#000000" font-family="sans-serif" font-size="13" lengthAdjust="spacing" textLength="52" x="2258" y="337.0669">requires</text></g><!--link com_acmeair_web_FlightsREST to com_acmeair_wxs_service_FlightServiceImpl--><g id="link_com_acmeair_web_FlightsREST_com_acmeair_wxs_service_FlightServiceImpl"><path d="M1785.73,258.59 C1800.17,288.33 1823.1106,335.552 1837.5806,365.372 " fill="none" id="com_acmeair_web_FlightsREST-to-com_acmeair_wxs_service_FlightServiceImpl" style="stroke:#181818;stroke-width:1.0;stroke-dasharray:7.0,7.0;"/><polygon fill="#181818" points="1840.2,370.77,1839.8696,360.9267,1838.0172,366.2716,1832.6722,364.4192,1840.2,370.77" style="stroke:#181818;stroke-width:1.0;"/><text fill="#000000" font-family="sans-serif" font-size="13" lengthAdjust="spacing" textLength="52" x="1825" y="337.0669">requires</text></g><!--link com_acmeair_web_FlightsREST to com_acmeair_morphia_services_FlightServiceImpl--><g id="link_com_acmeair_web_FlightsREST_com_acmeair_morphia_services_FlightServiceImpl"><path d="M1719.6,258.56 C1692.59,269.29 1659.61,282.36 1630,294 C1595.82,307.44 1585.36,306.63 1553,324 C1527.88,337.48 1506.3419,352.6397 1487.3219,367.2197 " fill="none" id="com_acmeair_web_FlightsREST-to-com_acmeair_morphia_services_FlightServiceImpl" style="stroke:#181818;stroke-width:1.0;stroke-dasharray:7.0,7.0;"/><polygon fill="#181818" points="1482.56,370.87,1492.1363,368.5692,1486.5282,367.8281,1487.2693,362.22,1482.56,370.87" style="stroke:#181818;stroke-width:1.0;"/><text fill="#000000" font-family="sans-serif" font-size="13" lengthAdjust="spacing" textLength="52" x="1554" y="337.0669">requires</text></g><!--link com_acmeair_web_LoginREST to com_acmeair_morphia_services_CustomerServiceImpl--><g id="link_com_acmeair_web_LoginREST_com_acmeair_morphia_services_CustomerServiceImpl"><path d="M516.27,258.6 C506.14,281.01 495.39,315.86 511,341 C518.94,353.79 525.8218,360.604 539.0518,367.994 " fill="none" id="com_acmeair_web_LoginREST-to-com_acmeair_morphia_services_CustomerServiceImpl" style="stroke:#181818;stroke-width:1.0;stroke-dasharray:7.0,7.0;"/><polygon fill="#181818" points="544.29,370.92,538.3833,363.0389,539.9248,368.4817,534.4821,370.0232,544.29,370.92" style="stroke:#181818;stroke-width:1.0;"/><text fill="#000000" font-family="sans-serif" font-size="13" lengthAdjust="spacing" textLength="52" x="512" y="337.0669">requires</text></g><!--link com_acmeair_loader_CustomerLoader to com_acmeair_wxs_service_CustomerServiceImpl--><g id="link_com_acmeair_loader_CustomerLoader_com_acmeair_wxs_service_CustomerServiceImpl"><path d="M909.29,258.51 C960.36,276.03 1023.19,301.29 1039,324 C1048.39,337.49 1049.5264,350.3349 1047.9464,364.9149 " fill="none" id="com_acmeair_loader_CustomerLoader-to-com_acmeair_wxs_service_CustomerServiceImpl" style="stroke:#181818;stroke-width:1.0;stroke-dasharray:7.0,7.0;"/><polygon fill="#181818" points="1047.3,370.88,1052.2463,362.3633,1047.8387,365.9091,1044.2929,361.5014,1047.3,370.88" style="stroke:#181818;stroke-width:1.0;"/><text fill="#000000" font-family="sans-serif" font-size="13" lengthAdjust="spacing" textLength="52" x="1047" y="337.0669">requires</text></g><!--link com_acmeair_config_AcmeAirConfiguration to com_acmeair_morphia_services_FlightServiceImpl--><g id="link_com_acmeair_config_AcmeAirConfiguration_com_acmeair_morphia_services_FlightServiceImpl"><path d="M2200.31,258.57 C2164.37,271.12 2117.14,285.9 2074,294 C1886.15,329.27 1829.37,273.62 1645,324 C1628.7,328.45 1626.61,334.53 1611,341 C1584.49,351.98 1560.4671,360.4982 1534.1171,369.0482 " fill="none" id="com_acmeair_config_AcmeAirConfiguration-to-com_acmeair_morphia_services_FlightServiceImpl" style="stroke:#181818;stroke-width:1.0;stroke-dasharray:7.0,7.0;"/><polygon fill="#181818" points="1528.41,370.9,1538.2052,371.927,1533.1659,369.3568,1535.7361,364.3175,1528.41,370.9" style="stroke:#181818;stroke-width:1.0;"/><text fill="#000000" font-family="sans-serif" font-size="13" lengthAdjust="spacing" textLength="52" x="1646" y="337.0669">requires</text></g><!--link com_acmeair_loader_CustomerLoader to com_acmeair_morphia_services_CustomerServiceImpl--><g id="link_com_acmeair_loader_CustomerLoader_com_acmeair_morphia_services_CustomerServiceImpl"><path d="M774.47,258.6 C707,282.01 610.13,316.61 605,324 C595.53,337.65 597.181,350.8619 602.781,365.3819 " fill="none" id="com_acmeair_loader_CustomerLoader-to-com_acmeair_morphia_services_CustomerServiceImpl" style="stroke:#181818;stroke-width:1.0;stroke-dasharray:7.0,7.0;"/><polygon fill="#181818" points="604.94,370.98,605.4335,361.1435,603.1408,366.3149,597.9694,364.0222,604.94,370.98" style="stroke:#181818;stroke-width:1.0;"/><text fill="#000000" font-family="sans-serif" font-size="13" lengthAdjust="spacing" textLength="52" x="606" y="337.0669">requires</text></g><!--link com_acmeair_config_AcmeAirConfiguration to com_acmeair_wxs_service_BookingServiceImpl--><g id="link_com_acmeair_config_AcmeAirConfiguration_com_acmeair_wxs_service_BookingServiceImpl"><path d="M2317.44,258.59 C2396.23,288.38 2530.0977,338.9781 2608.9177,368.7781 " fill="none" id="com_acmeair_config_AcmeAirConfiguration-to-com_acmeair_wxs_service_BookingServiceImpl" style="stroke:#181818;stroke-width:1.0;stroke-dasharray:7.0,7.0;"/><polygon fill="#181818" points="2614.53,370.9,2607.5262,363.9757,2609.8531,369.1318,2604.697,371.4587,2614.53,370.9" style="stroke:#181818;stroke-width:1.0;"/><text fill="#000000" font-family="sans-serif" font-size="13" lengthAdjust="spacing" textLength="52" x="2528" y="337.0669">requires</text></g><!--link com_acmeair_web_CustomerREST to com_acmeair_wxs_service_CustomerServiceImpl--><g id="link_com_acmeair_web_CustomerREST_com_acmeair_wxs_service_CustomerServiceImpl"><path d="M1162.97,258.69 C1159.87,281.49 1152.14,316.95 1133,341 C1123.23,353.29 1114.9097,360.2536 1101.3097,368.0236 " fill="none" id="com_acmeair_web_CustomerREST-to-com_acmeair_wxs_service_CustomerServiceImpl" style="stroke:#181818;stroke-width:1.0;stroke-dasharray:7.0,7.0;"/><polygon fill="#181818" points="1096.1,371,1105.8988,370.0085,1100.4414,368.5196,1101.9303,363.0622,1096.1,371" style="stroke:#181818;stroke-width:1.0;"/><text fill="#000000" font-family="sans-serif" font-size="13" lengthAdjust="spacing" textLength="52" x="1143" y="337.0669">requires</text></g><!--link com_acmeair_web_CustomerREST to com_acmeair_morphia_services_CustomerServiceImpl--><g id="link_com_acmeair_web_CustomerREST_com_acmeair_morphia_services_CustomerServiceImpl"><path d="M1114.73,258.63 C1084.4,271.04 1044.65,285.65 1008,294 C873.47,324.64 826.35,270.88 699,324 C674.1,334.39 655.1261,350.6118 639.6361,366.5918 " fill="none" id="com_acmeair_web_CustomerREST-to-com_acmeair_morphia_services_CustomerServiceImpl" style="stroke:#181818;stroke-width:1.0;stroke-dasharray:7.0,7.0;"/><polygon fill="#181818" points="635.46,370.9,644.5962,367.2218,638.9401,367.3099,638.852,361.6537,635.46,370.9" style="stroke:#181818;stroke-width:1.0;"/><text fill="#000000" font-family="sans-serif" font-size="13" lengthAdjust="spacing" textLength="52" x="700" y="337.0669">requires</text></g><!--link com_acmeair_loader_FlightLoader to com_acmeair_wxs_service_FlightServiceImpl--><g id="link_com_acmeair_loader_FlightLoader_com_acmeair_wxs_service_FlightServiceImpl"><path d="M1534.94,258.53 C1597.81,282.07 1690.59,316.98 1707,324 C1741.15,338.62 1773.624,354.1757 1801.954,368.2157 " fill="none" id="com_acmeair_loader_FlightLoader-to-com_acmeair_wxs_service_FlightServiceImpl" style="stroke:#181818;stroke-width:1.0;stroke-dasharray:7.0,7.0;"/><polygon fill="#181818" points="1807.33,370.88,1801.0422,363.2996,1802.85,368.6598,1797.4898,370.4676,1807.33,370.88" style="stroke:#181818;stroke-width:1.0;"/><text fill="#000000" font-family="sans-serif" font-size="13" lengthAdjust="spacing" textLength="52" x="1744" y="337.0669">requires</text></g><!--link com_acmeair_web_RESTCookieSessionFilter to com_acmeair_wxs_utils_WXSSessionManager--><g id="link_com_acmeair_web_RESTCookieSessionFilter_com_acmeair_wxs_utils_WXSSessionManager"><path d="M196.42,258.59 C196.99,288.33 197.8853,334.9511 198.4553,364.7711 " fill="none" id="com_acmeair_web_RESTCookieSessionFilter-to-com_acmeair_wxs_utils_WXSSessionManager" style="stroke:#181818;stroke-width:1.0;stroke-dasharray:7.0,7.0;"/><polygon fill="#181818" points="198.57,370.77,202.3973,361.6952,198.4744,365.7709,194.3987,361.8481,198.57,370.77" style="stroke:#181818;stroke-width:1.0;"/><text fill="#000000" font-family="sans-serif" font-size="13" lengthAdjust="spacing" textLength="52" x="199" y="337.0669">requires</text></g><!--link com_acmeair_config_AcmeAirConfiguration to com_acmeair_wxs_service_CustomerServiceImpl--><g id="link_com_acmeair_config_AcmeAirConfiguration_com_acmeair_wxs_service_CustomerServiceImpl"><path d="M2201.62,258.54 C2165.56,271.33 2117.74,286.37 2074,294 C1774.67,346.19 1692.67,287.68 1391,324 C1303.1,334.58 1210.0303,353.7081 1140.1903,369.6081 " fill="none" id="com_acmeair_config_AcmeAirConfiguration-to-com_acmeair_wxs_service_CustomerServiceImpl" style="stroke:#181818;stroke-width:1.0;stroke-dasharray:7.0,7.0;"/><polygon fill="#181818" points="1134.34,370.94,1144.0034,372.8424,1139.2153,369.8301,1142.2275,365.0419,1134.34,370.94" style="stroke:#181818;stroke-width:1.0;"/><text fill="#000000" font-family="sans-serif" font-size="13" lengthAdjust="spacing" textLength="52" x="1392" y="337.0669">requires</text></g><!--link com_acmeair_loader_FlightLoader to com_acmeair_morphia_services_FlightServiceImpl--><g id="link_com_acmeair_loader_FlightLoader_com_acmeair_morphia_services_FlightServiceImpl"><path d="M1468.86,258.51 C1463.57,276.04 1456.81,301.3 1454,324 C1453.07,331.5 1453.93,333.44 1454,341 C1454.09,350.84 1454.1669,355.7313 1454.3569,364.9913 " fill="none" id="com_acmeair_loader_FlightLoader-to-com_acmeair_morphia_services_FlightServiceImpl" style="stroke:#181818;stroke-width:1.0;stroke-dasharray:7.0,7.0;"/><polygon fill="#181818" points="1454.48,370.99,1458.2945,361.9098,1454.3774,365.9911,1450.2962,362.074,1454.48,370.99" style="stroke:#181818;stroke-width:1.0;"/><text fill="#000000" font-family="sans-serif" font-size="13" lengthAdjust="spacing" textLength="52" x="1455" y="337.0669">requires</text></g><!--link com_acmeair_web_RESTCookieSessionFilter to com_acmeair_wxs_service_CustomerServiceImpl--><g id="link_com_acmeair_web_RESTCookieSessionFilter_com_acmeair_wxs_service_CustomerServiceImpl"><path d="M256.64,258.62 C293.76,271.19 342.53,285.98 387,294 C590.37,330.69 652.19,267.6 851,324 C866.49,328.4 868.17,334.71 883,341 C909.48,352.24 933.5579,360.7251 960.1879,369.1251 " fill="none" id="com_acmeair_web_RESTCookieSessionFilter-to-com_acmeair_wxs_service_CustomerServiceImpl" style="stroke:#181818;stroke-width:1.0;stroke-dasharray:7.0,7.0;"/><polygon fill="#181818" points="965.91,370.93,958.5302,364.4079,961.1416,369.4259,956.1236,372.0373,965.91,370.93" style="stroke:#181818;stroke-width:1.0;"/><text fill="#000000" font-family="sans-serif" font-size="13" lengthAdjust="spacing" textLength="52" x="884" y="337.0669">requires</text></g><!--link com_acmeair_web_BookingsREST to com_acmeair_wxs_service_BookingServiceImpl--><g id="link_com_acmeair_web_BookingsREST_com_acmeair_wxs_service_BookingServiceImpl"><path d="M2610.3,258.59 C2624.18,288.33 2646.1836,335.5125 2660.0936,365.3325 " fill="none" id="com_acmeair_web_BookingsREST-to-com_acmeair_wxs_service_BookingServiceImpl" style="stroke:#181818;stroke-width:1.0;stroke-dasharray:7.0,7.0;"/><polygon fill="#181818" points="2662.63,370.77,2662.4504,360.9228,2660.5163,366.2387,2655.2004,364.3047,2662.63,370.77" style="stroke:#181818;stroke-width:1.0;"/><text fill="#000000" font-family="sans-serif" font-size="13" lengthAdjust="spacing" textLength="52" x="2648" y="337.0669">requires</text></g><!--link com_acmeair_config_AcmeAirConfiguration to com_acmeair_morphia_services_CustomerServiceImpl--><g id="link_com_acmeair_config_AcmeAirConfiguration_com_acmeair_morphia_services_CustomerServiceImpl"><path d="M2202.49,258.56 C2166.35,271.53 2118.14,286.77 2074,294 C1792.12,340.17 1065.34,251.72 789,324 C773.42,328.08 771.7,334.42 757,341 C732.71,351.87 711.0367,360.3116 686.9567,368.9616 " fill="none" id="com_acmeair_config_AcmeAirConfiguration-to-com_acmeair_morphia_services_CustomerServiceImpl" style="stroke:#181818;stroke-width:1.0;stroke-dasharray:7.0,7.0;"/><polygon fill="#181818" points="681.31,370.99,691.1324,371.7119,686.0156,369.2997,688.4278,364.1829,681.31,370.99" style="stroke:#181818;stroke-width:1.0;"/><text fill="#000000" font-family="sans-serif" font-size="13" lengthAdjust="spacing" textLength="52" x="790" y="337.0669">requires</text></g><!--link com_acmeair_web_LoginREST to com_acmeair_wxs_service_CustomerServiceImpl--><g id="link_com_acmeair_web_LoginREST_com_acmeair_wxs_service_CustomerServiceImpl"><path d="M573.29,258.58 C600.65,270.97 636.6,285.59 670,294 C789.22,324.02 829.98,280.57 945,324 C959.79,329.59 986.8165,349.1988 1010.1865,367.1988 " fill="none" id="com_acmeair_web_LoginREST-to-com_acmeair_wxs_service_CustomerServiceImpl" style="stroke:#181818;stroke-width:1.0;stroke-dasharray:7.0,7.0;"/><polygon fill="#181818" points="1014.94,370.86,1010.2506,362.1992,1010.9788,367.809,1005.369,368.5372,1014.94,370.86" style="stroke:#181818;stroke-width:1.0;"/><text fill="#000000" font-family="sans-serif" font-size="13" lengthAdjust="spacing" textLength="52" x="973" y="337.0669">requires</text></g><!--link com_acmeair_web_RESTCookieSessionFilter to com_acmeair_morphia_services_CustomerServiceImpl--><g id="link_com_acmeair_web_RESTCookieSessionFilter_com_acmeair_morphia_services_CustomerServiceImpl"><path d="M243.45,258.52 C292.54,280.86 371.72,315.66 442,341 C472.1,351.85 499.9298,360.6008 529.4998,369.2208 " fill="none" id="com_acmeair_web_RESTCookieSessionFilter-to-com_acmeair_morphia_services_CustomerServiceImpl" style="stroke:#181818;stroke-width:1.0;stroke-dasharray:7.0,7.0;"/><polygon fill="#181818" points="535.26,370.9,527.7391,364.5411,530.4598,369.5007,525.5002,372.2214,535.26,370.9" style="stroke:#181818;stroke-width:1.0;"/><text fill="#000000" font-family="sans-serif" font-size="13" lengthAdjust="spacing" textLength="52" x="443" y="337.0669">requires</text></g><!--link com_acmeair_config_AcmeAirConfiguration to com_acmeair_wxs_service_FlightServiceImpl--><g id="link_com_acmeair_config_AcmeAirConfiguration_com_acmeair_wxs_service_FlightServiceImpl"><path d="M2201.41,258.59 C2123.76,288.38 1991.9018,338.9507 1914.2318,368.7507 " fill="none" id="com_acmeair_config_AcmeAirConfiguration-to-com_acmeair_wxs_service_FlightServiceImpl" style="stroke:#181818;stroke-width:1.0;stroke-dasharray:7.0,7.0;"/><polygon fill="#181818" points="1908.63,370.9,1918.4656,371.4106,1913.2982,369.1089,1915.5999,363.9415,1908.63,370.9" style="stroke:#181818;stroke-width:1.0;"/><text fill="#000000" font-family="sans-serif" font-size="13" lengthAdjust="spacing" textLength="52" x="2031" y="337.0669">requires</text></g><!--link com_acmeair_requires_SERVICE_HOST_config to com_acmeair_config_AcmeAirConfiguration--><g id="link_com_acmeair_requires_SERVICE_HOST_config_com_acmeair_config_AcmeAirConfiguration"><path d="M2186.27,116.31 C2196.32,132.65 2227.24,182.9 2245.37,212.35 " fill="none" id="com_acmeair_requires_SERVICE_HOST_config-com_acmeair_config_AcmeAirConfiguration" style="stroke:#181818;stroke-width:1.0;"/></g><!--link com_acmeair_requires_SERVICE_HOST_customer_byid to com_acmeair_web_CustomerREST--><g id="link_com_acmeair_requires_SERVICE_HOST_customer_byid_com_acmeair_web_CustomerREST"><path d="M1352.98,114.83 C1330.09,129.41 1247.3,182.11 1199.57,212.49 " fill="none" id="com_acmeair_requires_SERVICE_HOST_customer_byid-com_acmeair_web_CustomerREST" style="stroke:#181818;stroke-width:1.0;"/></g><!--link com_acmeair_requires_SERVICE_HOST_bookings to com_acmeair_web_BookingsREST--><g id="link_com_acmeair_requires_SERVICE_HOST_bookings_com_acmeair_web_BookingsREST"><path d="M2074.32,111.4 C2110.8,113.8 2297.81,127.71 2444,169 C2482.87,179.98 2524.99,198.06 2555.65,212.45 " fill="none" id="com_acmeair_requires_SERVICE_HOST_bookings-com_acmeair_web_BookingsREST" style="stroke:#181818;stroke-width:1.0;"/></g><!--link com_acmeair_requires_SERVICE_HOST_login to com_acmeair_web_LoginREST--><g id="link_com_acmeair_requires_SERVICE_HOST_login_com_acmeair_web_LoginREST"><path d="M1216.86,110.89 C1171.88,110.26 888.74,108.85 670,169 C633.48,179.04 594.6,197.59 566.77,212.39 " fill="none" id="com_acmeair_requires_SERVICE_HOST_login-com_acmeair_web_LoginREST" style="stroke:#181818;stroke-width:1.0;"/></g><!--link com_acmeair_requires_SERVICE_HOST_flights to com_acmeair_web_FlightsREST--><g id="link_com_acmeair_requires_SERVICE_HOST_flights_com_acmeair_web_FlightsREST"><path d="M1525.33,114.05 C1553.05,127.42 1665.22,181.54 1729.38,212.49 " fill="none" id="com_acmeair_requires_SERVICE_HOST_flights-com_acmeair_web_FlightsREST" style="stroke:#181818;stroke-width:1.0;"/></g><!--link interface.SERVICE_HOST_bookings to com_acmeair_requires_SERVICE_HOST_bookings--><g id="link_interface.SERVICE_HOST_bookings_com_acmeair_requires_SERVICE_HOST_bookings"><path d="M2008.54,23.01 C2021.56,41.84 2053.79,88.45 2064.49,103.92 " fill="none" id="interface.SERVICE_HOST_bookings-com_acmeair_requires_SERVICE_HOST_bookings" style="stroke:#181818;stroke-width:1.0;"/></g><!--link interface.SERVICE_HOST_config to com_acmeair_requires_SERVICE_HOST_config--><g id="link_interface.SERVICE_HOST_config_com_acmeair_requires_SERVICE_HOST_config"><path d="M2212.27,23.01 C2205.86,41.84 2189.99,88.45 2184.73,103.92 " fill="none" id="interface.SERVICE_HOST_config-com_acmeair_requires_SERVICE_HOST_config" style="stroke:#181818;stroke-width:1.0;"/></g><!--link interface.SERVICE_HOST_customer_byid to com_acmeair_requires_SERVICE_HOST_customer_byid--><g id="link_interface.SERVICE_HOST_customer_byid_com_acmeair_requires_SERVICE_HOST_customer_byid"><path d="M1359,23.01 C1359,41.84 1359,88.45 1359,103.92 " fill="none" id="interface.SERVICE_HOST_customer_byid-com_acmeair_requires_SERVICE_HOST_customer_byid" style="stroke:#181818;stroke-width:1.0;"/></g><!--link interface.SERVICE_HOST_flights to com_acmeair_requires_SERVICE_HOST_flights--><g id="link_interface.SERVICE_HOST_flights_com_acmeair_requires_SERVICE_HOST_flights"><path d="M1581.2,23.01 C1567.58,41.84 1533.86,88.45 1522.67,103.92 " fill="none" id="interface.SERVICE_HOST_flights-com_acmeair_requires_SERVICE_HOST_flights" style="stroke:#181818;stroke-width:1.0;"/></g><!--link interface.SERVICE_HOST_login to com_acmeair_requires_SERVICE_HOST_login--><g id="link_interface.SERVICE_HOST_login_com_acmeair_requires_SERVICE_HOST_login"><path d="M1142.5,23.01 C1160.13,41.84 1203.77,88.45 1218.25,103.92 " fill="none" id="interface.SERVICE_HOST_login-com_acmeair_requires_SERVICE_HOST_login" style="stroke:#181818;stroke-width:1.0;"/></g><!--link com_acmeair_config_LoaderREST to com_acmeair_loader_Loader--><g id="link_com_acmeair_config_LoaderREST_com_acmeair_loader_Loader"><path d="M3198,258.59 C3198,288.33 3198,334.95 3198,364.77 " fill="none" id="com_acmeair_config_LoaderREST-to-com_acmeair_loader_Loader" style="stroke:#181818;stroke-width:1.0;stroke-dasharray:7.0,7.0;"/><polygon fill="#181818" points="3198,370.77,3202,361.77,3198,365.77,3194,361.77,3198,370.77" style="stroke:#181818;stroke-width:1.0;"/><text fill="#000000" font-family="sans-serif" font-size="13" lengthAdjust="spacing" textLength="52" x="3199" y="337.0669">requires</text></g><!--link com_acmeair_2_requires_SERVICE_HOST_loader to com_acmeair_config_LoaderREST--><g id="link_com_acmeair_2_requires_SERVICE_HOST_loader_com_acmeair_config_LoaderREST"><path d="M3027.3,115.4 C3049.22,130.69 3123.19,182.3 3166.22,212.33 " fill="none" id="com_acmeair_2_requires_SERVICE_HOST_loader-com_acmeair_config_LoaderREST" style="stroke:#181818;stroke-width:1.0;"/></g><!--link interface.SERVICE_HOST_loader to com_acmeair_2_requires_SERVICE_HOST_loader--><g id="link_interface.SERVICE_HOST_loader_com_acmeair_2_requires_SERVICE_HOST_loader"><path d="M3021,23.01 C3021,41.84 3021,88.45 3021,103.92 " fill="none" id="interface.SERVICE_HOST_loader-com_acmeair_2_requires_SERVICE_HOST_loader" style="stroke:#181818;stroke-width:1.0;"/></g><!--SRC=[nLTDRvmm4BtpAopkRAGzzb0fHHirqbQHGjHMQYFa9LvYnTZKXZHHbVzUFWm1rZRsWXHnMTRZDyypZ_6CUC8qXnncu8XVGimJWlRmWCZDC-84vZccAIXuYJpH6oOionb5j8YALu90cP6jr_y7_Efd39CCGSn_q_V71_-yNuEr-E-BYCi24n7_-1b5I0ZCw3T8OOhu_SGI7U8hWjF7GjpkehlxKno1-3DEaBIAshVhB2SJsupn_173pbwuRmXBKR0CSVsMccrdfQ1xWlY5iIgqgHbmpr9C5MY4mGV4Ut_xvbMnNpeHUeWs4ag0XD4ZJkFBwlKIyx1vApaigeGPSc4HgO6rLHHgzc5jYAHUhZ0fQhevumMcmAyUAC1m6qT_IiohC4Uxs-_NuIx-UXFTnOda5XzUyOFpxcEhHUTzf4wYEzSctixR3ZBZCrhOR3uxonDy0frFUw6iwcXQ4QRWvffmDgn5-J1Ylt_5iyYghqUBhQu2fg0umIzAgqE8x8wnB5GkPvcfJyPKZsw0rJ8nYxoAZaPNmOgVbgvygrpeEeFL4xjwW9OM2PSedIqYunrmhkuNrGdd8-YBwQB8s8R_OygGMKk-RJVX1u5zX-SxzbDJyDE6sBTlNrHWusRMjsoyL4Y3jjgtxljKGAFnvCt3j9BC4IO8-18Xg14k-bFLFLnlj54tRZFhGU0IHYqbAGW38Tc06bUjo4XNUYfI91UDYaoCHksxZP4Tlv6AjJGx6HW8TXE2UTcALETDIwSLju5CEtQO5gs8j7uqapxO6cTzML_Q6rC_WtRJftxMsMh9rJldd4uhwzYjjfAQdMfgwV2iRuRaDH36x3KdCwvEyZV3r_iF]--></g></svg>