<?xml version="1.0" encoding="us-ascii" standalone="no"?><svg xmlns="http://www.w3.org/2000/svg" xmlns:xlink="http://www.w3.org/1999/xlink" contentStyleType="text/css" height="439px" preserveAspectRatio="none" style="width:3254px;height:439px;background:#FFFFFF;" version="1.1" viewBox="0 0 3254 439" width="3254px" zoomAndPan="magnify"><defs/><g><!--cluster com_acmeair\n\n\n\n\n\n--><g id="cluster_com_acmeair\n\n\n\n\n\n"><rect fill="none" height="323" rx="2.5" ry="2.5" style="stroke:#181818;stroke-width:1.0;" width="314" x="63.5" y="110"/><rect fill="none" height="10" style="stroke:#181818;stroke-width:1.0;" width="15" x="357.5" y="115"/><rect fill="none" height="2" style="stroke:#181818;stroke-width:1.0;" width="4" x="355.5" y="117"/><rect fill="none" height="2" style="stroke:#181818;stroke-width:1.0;" width="4" x="355.5" y="121"/><text fill="#000000" font-family="sans-serif" font-size="14" font-weight="bold" lengthAdjust="spacing" textLength="102" x="169.5" y="135.9951">com_acmeair</text><text fill="#000000" font-family="sans-serif" font-size="14" font-weight="bold" lengthAdjust="spacing" textLength="5" x="218" y="152.292">&#160;</text><text fill="#000000" font-family="sans-serif" font-size="14" font-weight="bold" lengthAdjust="spacing" textLength="5" x="218" y="168.5889">&#160;</text><text fill="#000000" font-family="sans-serif" font-size="14" font-weight="bold" lengthAdjust="spacing" textLength="5" x="218" y="184.8857">&#160;</text><text fill="#000000" font-family="sans-serif" font-size="14" font-weight="bold" lengthAdjust="spacing" textLength="5" x="218" y="201.1826">&#160;</text><text fill="#000000" font-family="sans-serif" font-size="14" font-weight="bold" lengthAdjust="spacing" textLength="5" x="218" y="217.4795">&#160;</text><text fill="#000000" font-family="sans-serif" font-size="14" font-weight="bold" lengthAdjust="spacing" textLength="5" x="218" y="233.7764">&#160;</text></g><!--cluster com_acmeair 2\n\n\n\n\n\n--><g id="cluster_com_acmeair 2\n\n\n\n\n\n"><rect fill="none" height="323" rx="2.5" ry="2.5" style="stroke:#181818;stroke-width:1.0;" width="2863" x="385.5" y="110"/><rect fill="none" height="10" style="stroke:#181818;stroke-width:1.0;" width="15" x="3228.5" y="115"/><rect fill="none" height="2" style="stroke:#181818;stroke-width:1.0;" width="4" x="3226.5" y="117"/><rect fill="none" height="2" style="stroke:#181818;stroke-width:1.0;" width="4" x="3226.5" y="121"/><text fill="#000000" font-family="sans-serif" font-size="14" font-weight="bold" lengthAdjust="spacing" textLength="117" x="1758.5" y="135.9951">com_acmeair 2</text><text fill="#000000" font-family="sans-serif" font-size="14" font-weight="bold" lengthAdjust="spacing" textLength="5" x="1814.5" y="152.292">&#160;</text><text fill="#000000" font-family="sans-serif" font-size="14" font-weight="bold" lengthAdjust="spacing" textLength="5" x="1814.5" y="168.5889">&#160;</text><text fill="#000000" font-family="sans-serif" font-size="14" font-weight="bold" lengthAdjust="spacing" textLength="5" x="1814.5" y="184.8857">&#160;</text><text fill="#000000" font-family="sans-serif" font-size="14" font-weight="bold" lengthAdjust="spacing" textLength="5" x="1814.5" y="201.1826">&#160;</text><text fill="#000000" font-family="sans-serif" font-size="14" font-weight="bold" lengthAdjust="spacing" textLength="5" x="1814.5" y="217.4795">&#160;</text><text fill="#000000" font-family="sans-serif" font-size="14" font-weight="bold" lengthAdjust="spacing" textLength="5" x="1814.5" y="233.7764">&#160;</text></g><!--entity com_acmeair_loader_Loader--><g id="elem_com_acmeair_loader_Loader"><rect fill="#F1F1F1" height="46.2969" rx="2.5" ry="2.5" style="stroke:#181818;stroke-width:0.5;" width="235" x="108" y="371"/><rect fill="#F1F1F1" height="10" style="stroke:#181818;stroke-width:0.5;" width="15" x="323" y="376"/><rect fill="#F1F1F1" height="2" style="stroke:#181818;stroke-width:0.5;" width="4" x="321" y="378"/><rect fill="#F1F1F1" height="2" style="stroke:#181818;stroke-width:0.5;" width="4" x="321" y="382"/><text fill="#000000" font-family="sans-serif" font-size="14" lengthAdjust="spacing" textLength="195" x="123" y="403.9951">com_acmeair_loader_Loader</text></g><!--entity com_acmeair_config_LoaderREST--><g id="elem_com_acmeair_config_LoaderREST"><rect fill="#F1F1F1" height="46.2969" rx="2.5" ry="2.5" style="stroke:#181818;stroke-width:0.5;" width="271" x="90" y="212.5"/><rect fill="#F1F1F1" height="10" style="stroke:#181818;stroke-width:0.5;" width="15" x="341" y="217.5"/><rect fill="#F1F1F1" height="2" style="stroke:#181818;stroke-width:0.5;" width="4" x="339" y="219.5"/><rect fill="#F1F1F1" height="2" style="stroke:#181818;stroke-width:0.5;" width="4" x="339" y="223.5"/><text fill="#000000" font-family="sans-serif" font-size="14" lengthAdjust="spacing" textLength="231" x="105" y="245.4951">com_acmeair_config_LoaderREST</text></g><text fill="#000000" font-family="sans-serif" font-size="14" lengthAdjust="spacing" textLength="4" x="79.5" y="88.6982">&#160;</text><rect fill="#F1F1F1" height="12" style="stroke:#181818;stroke-width:1.5;" width="12" x="75.5" y="104"/><!--entity com_acmeair_wxs_service_CustomerServiceImpl--><g id="elem_com_acmeair_wxs_service_CustomerServiceImpl"><rect fill="#F1F1F1" height="46.2969" rx="2.5" ry="2.5" style="stroke:#181818;stroke-width:0.5;" width="373" x="2026" y="371"/><rect fill="#F1F1F1" height="10" style="stroke:#181818;stroke-width:0.5;" width="15" x="2379" y="376"/><rect fill="#F1F1F1" height="2" style="stroke:#181818;stroke-width:0.5;" width="4" x="2377" y="378"/><rect fill="#F1F1F1" height="2" style="stroke:#181818;stroke-width:0.5;" width="4" x="2377" y="382"/><text fill="#000000" font-family="sans-serif" font-size="14" lengthAdjust="spacing" textLength="333" x="2041" y="403.9951">com_acmeair_wxs_service_CustomerServiceImpl</text></g><!--entity com_acmeair_web_CustomerREST--><g id="elem_com_acmeair_web_CustomerREST"><rect fill="#F1F1F1" height="46.2969" rx="2.5" ry="2.5" style="stroke:#181818;stroke-width:0.5;" width="279" x="2288" y="212.5"/><rect fill="#F1F1F1" height="10" style="stroke:#181818;stroke-width:0.5;" width="15" x="2547" y="217.5"/><rect fill="#F1F1F1" height="2" style="stroke:#181818;stroke-width:0.5;" width="4" x="2545" y="219.5"/><rect fill="#F1F1F1" height="2" style="stroke:#181818;stroke-width:0.5;" width="4" x="2545" y="223.5"/><text fill="#000000" font-family="sans-serif" font-size="14" lengthAdjust="spacing" textLength="239" x="2303" y="245.4951">com_acmeair_web_CustomerREST</text></g><!--entity com_acmeair_loader_CustomerLoader--><g id="elem_com_acmeair_loader_CustomerLoader"><rect fill="#F1F1F1" height="46.2969" rx="2.5" ry="2.5" style="stroke:#181818;stroke-width:0.5;" width="303" x="1782" y="212.5"/><rect fill="#F1F1F1" height="10" style="stroke:#181818;stroke-width:0.5;" width="15" x="2065" y="217.5"/><rect fill="#F1F1F1" height="2" style="stroke:#181818;stroke-width:0.5;" width="4" x="2063" y="219.5"/><rect fill="#F1F1F1" height="2" style="stroke:#181818;stroke-width:0.5;" width="4" x="2063" y="223.5"/><text fill="#000000" font-family="sans-serif" font-size="14" lengthAdjust="spacing" textLength="263" x="1797" y="245.4951">com_acmeair_loader_CustomerLoader</text></g><!--entity com_acmeair_web_RESTCookieSessionFilter--><g id="elem_com_acmeair_web_RESTCookieSessionFilter"><rect fill="#F1F1F1" height="46.2969" rx="2.5" ry="2.5" style="stroke:#181818;stroke-width:0.5;" width="347" x="2886" y="212.5"/><rect fill="#F1F1F1" height="10" style="stroke:#181818;stroke-width:0.5;" width="15" x="3213" y="217.5"/><rect fill="#F1F1F1" height="2" style="stroke:#181818;stroke-width:0.5;" width="4" x="3211" y="219.5"/><rect fill="#F1F1F1" height="2" style="stroke:#181818;stroke-width:0.5;" width="4" x="3211" y="223.5"/><text fill="#000000" font-family="sans-serif" font-size="14" lengthAdjust="spacing" textLength="307" x="2901" y="245.4951">com_acmeair_web_RESTCookieSessionFilter</text></g><!--entity com_acmeair_wxs_service_BookingServiceImpl--><g id="elem_com_acmeair_wxs_service_BookingServiceImpl"><rect fill="#F1F1F1" height="46.2969" rx="2.5" ry="2.5" style="stroke:#181818;stroke-width:0.5;" width="362" x="836.5" y="371"/><rect fill="#F1F1F1" height="10" style="stroke:#181818;stroke-width:0.5;" width="15" x="1178.5" y="376"/><rect fill="#F1F1F1" height="2" style="stroke:#181818;stroke-width:0.5;" width="4" x="1176.5" y="378"/><rect fill="#F1F1F1" height="2" style="stroke:#181818;stroke-width:0.5;" width="4" x="1176.5" y="382"/><text fill="#000000" font-family="sans-serif" font-size="14" lengthAdjust="spacing" textLength="322" x="851.5" y="403.9951">com_acmeair_wxs_service_BookingServiceImpl</text></g><!--entity com_acmeair_morphia_services_FlightServiceImpl--><g id="elem_com_acmeair_morphia_services_FlightServiceImpl"><rect fill="#F1F1F1" height="46.2969" rx="2.5" ry="2.5" style="stroke:#181818;stroke-width:0.5;" width="380" x="1610.5" y="371"/><rect fill="#F1F1F1" height="10" style="stroke:#181818;stroke-width:0.5;" width="15" x="1970.5" y="376"/><rect fill="#F1F1F1" height="2" style="stroke:#181818;stroke-width:0.5;" width="4" x="1968.5" y="378"/><rect fill="#F1F1F1" height="2" style="stroke:#181818;stroke-width:0.5;" width="4" x="1968.5" y="382"/><text fill="#000000" font-family="sans-serif" font-size="14" lengthAdjust="spacing" textLength="340" x="1625.5" y="403.9951">com_acmeair_morphia_services_FlightServiceImpl</text></g><!--entity com_acmeair_morphia_services_BookingServiceImpl--><g id="elem_com_acmeair_morphia_services_BookingServiceImpl"><rect fill="#F1F1F1" height="46.2969" rx="2.5" ry="2.5" style="stroke:#181818;stroke-width:0.5;" width="400" x="401.5" y="371"/><rect fill="#F1F1F1" height="10" style="stroke:#181818;stroke-width:0.5;" width="15" x="781.5" y="376"/><rect fill="#F1F1F1" height="2" style="stroke:#181818;stroke-width:0.5;" width="4" x="779.5" y="378"/><rect fill="#F1F1F1" height="2" style="stroke:#181818;stroke-width:0.5;" width="4" x="779.5" y="382"/><text fill="#000000" font-family="sans-serif" font-size="14" lengthAdjust="spacing" textLength="360" x="416.5" y="403.9951">com_acmeair_morphia_services_BookingServiceImpl</text></g><!--entity com_acmeair_web_FlightsREST--><g id="elem_com_acmeair_web_FlightsREST"><rect fill="#F1F1F1" height="46.2969" rx="2.5" ry="2.5" style="stroke:#181818;stroke-width:0.5;" width="256" x="1490.5" y="212.5"/><rect fill="#F1F1F1" height="10" style="stroke:#181818;stroke-width:0.5;" width="15" x="1726.5" y="217.5"/><rect fill="#F1F1F1" height="2" style="stroke:#181818;stroke-width:0.5;" width="4" x="1724.5" y="219.5"/><rect fill="#F1F1F1" height="2" style="stroke:#181818;stroke-width:0.5;" width="4" x="1724.5" y="223.5"/><text fill="#000000" font-family="sans-serif" font-size="14" lengthAdjust="spacing" textLength="216" x="1505.5" y="245.4951">com_acmeair_web_FlightsREST</text></g><!--entity com_acmeair_wxs_utils_WXSSessionManager--><g id="elem_com_acmeair_wxs_utils_WXSSessionManager"><rect fill="#F1F1F1" height="46.2969" rx="2.5" ry="2.5" style="stroke:#181818;stroke-width:0.5;" width="352" x="2880.5" y="371"/><rect fill="#F1F1F1" height="10" style="stroke:#181818;stroke-width:0.5;" width="15" x="3212.5" y="376"/><rect fill="#F1F1F1" height="2" style="stroke:#181818;stroke-width:0.5;" width="4" x="3210.5" y="378"/><rect fill="#F1F1F1" height="2" style="stroke:#181818;stroke-width:0.5;" width="4" x="3210.5" y="382"/><text fill="#000000" font-family="sans-serif" font-size="14" lengthAdjust="spacing" textLength="312" x="2895.5" y="403.9951">com_acmeair_wxs_utils_WXSSessionManager</text></g><!--entity com_acmeair_web_LoginREST--><g id="elem_com_acmeair_web_LoginREST"><rect fill="#F1F1F1" height="46.2969" rx="2.5" ry="2.5" style="stroke:#181818;stroke-width:0.5;" width="248" x="2602.5" y="212.5"/><rect fill="#F1F1F1" height="10" style="stroke:#181818;stroke-width:0.5;" width="15" x="2830.5" y="217.5"/><rect fill="#F1F1F1" height="2" style="stroke:#181818;stroke-width:0.5;" width="4" x="2828.5" y="219.5"/><rect fill="#F1F1F1" height="2" style="stroke:#181818;stroke-width:0.5;" width="4" x="2828.5" y="223.5"/><text fill="#000000" font-family="sans-serif" font-size="14" lengthAdjust="spacing" textLength="208" x="2617.5" y="245.4951">com_acmeair_web_LoginREST</text></g><!--entity com_acmeair_web_BookingsREST--><g id="elem_com_acmeair_web_BookingsREST"><rect fill="#F1F1F1" height="46.2969" rx="2.5" ry="2.5" style="stroke:#181818;stroke-width:0.5;" width="276" x="501.5" y="212.5"/><rect fill="#F1F1F1" height="10" style="stroke:#181818;stroke-width:0.5;" width="15" x="757.5" y="217.5"/><rect fill="#F1F1F1" height="2" style="stroke:#181818;stroke-width:0.5;" width="4" x="755.5" y="219.5"/><rect fill="#F1F1F1" height="2" style="stroke:#181818;stroke-width:0.5;" width="4" x="755.5" y="223.5"/><text fill="#000000" font-family="sans-serif" font-size="14" lengthAdjust="spacing" textLength="236" x="516.5" y="245.4951">com_acmeair_web_BookingsREST</text></g><!--entity com_acmeair_morphia_services_CustomerServiceImpl--><g id="elem_com_acmeair_morphia_services_CustomerServiceImpl"><rect fill="#F1F1F1" height="46.2969" rx="2.5" ry="2.5" style="stroke:#181818;stroke-width:0.5;" width="411" x="2434" y="371"/><rect fill="#F1F1F1" height="10" style="stroke:#181818;stroke-width:0.5;" width="15" x="2825" y="376"/><rect fill="#F1F1F1" height="2" style="stroke:#181818;stroke-width:0.5;" width="4" x="2823" y="378"/><rect fill="#F1F1F1" height="2" style="stroke:#181818;stroke-width:0.5;" width="4" x="2823" y="382"/><text fill="#000000" font-family="sans-serif" font-size="14" lengthAdjust="spacing" textLength="371" x="2449" y="403.9951">com_acmeair_morphia_services_CustomerServiceImpl</text></g><!--entity com_acmeair_config_AcmeAirConfiguration--><g id="elem_com_acmeair_config_AcmeAirConfiguration"><rect fill="#F1F1F1" height="46.2969" rx="2.5" ry="2.5" style="stroke:#181818;stroke-width:0.5;" width="335" x="813" y="212.5"/><rect fill="#F1F1F1" height="10" style="stroke:#181818;stroke-width:0.5;" width="15" x="1128" y="217.5"/><rect fill="#F1F1F1" height="2" style="stroke:#181818;stroke-width:0.5;" width="4" x="1126" y="219.5"/><rect fill="#F1F1F1" height="2" style="stroke:#181818;stroke-width:0.5;" width="4" x="1126" y="223.5"/><text fill="#000000" font-family="sans-serif" font-size="14" lengthAdjust="spacing" textLength="295" x="828" y="245.4951">com_acmeair_config_AcmeAirConfiguration</text></g><!--entity com_acmeair_wxs_service_FlightServiceImpl--><g id="elem_com_acmeair_wxs_service_FlightServiceImpl"><rect fill="#F1F1F1" height="46.2969" rx="2.5" ry="2.5" style="stroke:#181818;stroke-width:0.5;" width="342" x="1233.5" y="371"/><rect fill="#F1F1F1" height="10" style="stroke:#181818;stroke-width:0.5;" width="15" x="1555.5" y="376"/><rect fill="#F1F1F1" height="2" style="stroke:#181818;stroke-width:0.5;" width="4" x="1553.5" y="378"/><rect fill="#F1F1F1" height="2" style="stroke:#181818;stroke-width:0.5;" width="4" x="1553.5" y="382"/><text fill="#000000" font-family="sans-serif" font-size="14" lengthAdjust="spacing" textLength="302" x="1248.5" y="403.9951">com_acmeair_wxs_service_FlightServiceImpl</text></g><!--entity com_acmeair_loader_FlightLoader--><g id="elem_com_acmeair_loader_FlightLoader"><rect fill="#F1F1F1" height="46.2969" rx="2.5" ry="2.5" style="stroke:#181818;stroke-width:0.5;" width="272" x="1183.5" y="212.5"/><rect fill="#F1F1F1" height="10" style="stroke:#181818;stroke-width:0.5;" width="15" x="1435.5" y="217.5"/><rect fill="#F1F1F1" height="2" style="stroke:#181818;stroke-width:0.5;" width="4" x="1433.5" y="219.5"/><rect fill="#F1F1F1" height="2" style="stroke:#181818;stroke-width:0.5;" width="4" x="1433.5" y="223.5"/><text fill="#000000" font-family="sans-serif" font-size="14" lengthAdjust="spacing" textLength="232" x="1198.5" y="245.4951">com_acmeair_loader_FlightLoader</text></g><text fill="#000000" font-family="sans-serif" font-size="14" lengthAdjust="spacing" textLength="4" x="1744.5" y="88.6982">&#160;</text><rect fill="#F1F1F1" height="12" style="stroke:#181818;stroke-width:1.5;" width="12" x="1740.5" y="104"/><text fill="#000000" font-family="sans-serif" font-size="14" lengthAdjust="spacing" textLength="4" x="1567.5" y="88.6982">&#160;</text><rect fill="#F1F1F1" height="12" style="stroke:#181818;stroke-width:1.5;" width="12" x="1563.5" y="104"/><text fill="#000000" font-family="sans-serif" font-size="14" lengthAdjust="spacing" textLength="4" x="2364.5" y="88.6982">&#160;</text><rect fill="#F1F1F1" height="12" style="stroke:#181818;stroke-width:1.5;" width="12" x="2360.5" y="104"/><text fill="#000000" font-family="sans-serif" font-size="14" lengthAdjust="spacing" textLength="4" x="2482.5" y="88.6982">&#160;</text><rect fill="#F1F1F1" height="12" style="stroke:#181818;stroke-width:1.5;" width="12" x="2478.5" y="104"/><text fill="#000000" font-family="sans-serif" font-size="14" lengthAdjust="spacing" textLength="4" x="1697.5" y="88.6982">&#160;</text><rect fill="#F1F1F1" height="12" style="stroke:#181818;stroke-width:1.5;" width="12" x="1693.5" y="104"/><!--entity interface.SERVICE_HOST_loader--><g id="elem_interface.SERVICE_HOST_loader"><ellipse cx="81.5" cy="14" fill="#F1F1F1" rx="8" ry="8" style="stroke:#181818;stroke-width:0.5;"/><text fill="#000000" font-family="sans-serif" font-size="14" lengthAdjust="spacing" textLength="151" x="6" y="43.9951">SERVICE-HOST/loader</text></g><!--entity interface.SERVICE_HOST_bookings--><g id="elem_interface.SERVICE_HOST_bookings"><ellipse cx="1699.5" cy="14" fill="#F1F1F1" rx="8" ry="8" style="stroke:#181818;stroke-width:0.5;"/><text fill="#000000" font-family="sans-serif" font-size="14" lengthAdjust="spacing" textLength="172" x="1613.5" y="43.9951">SERVICE-HOST/bookings</text></g><!--entity interface.SERVICE_HOST_config--><g id="elem_interface.SERVICE_HOST_config"><ellipse cx="1487.5" cy="14" fill="#F1F1F1" rx="8" ry="8" style="stroke:#181818;stroke-width:0.5;"/><text fill="#000000" font-family="sans-serif" font-size="14" lengthAdjust="spacing" textLength="150" x="1412.5" y="43.9951">SERVICE-HOST/config</text></g><!--entity interface.SERVICE_HOST_customer_byid--><g id="elem_interface.SERVICE_HOST_customer_byid"><ellipse cx="2295.5" cy="14" fill="#F1F1F1" rx="8" ry="8" style="stroke:#181818;stroke-width:0.5;"/><text fill="#000000" font-family="sans-serif" font-size="14" lengthAdjust="spacing" textLength="207" x="2192" y="43.9951">SERVICE-HOST/customer/byid</text></g><!--entity interface.SERVICE_HOST_flights--><g id="elem_interface.SERVICE_HOST_flights"><ellipse cx="1910.5" cy="14" fill="#F1F1F1" rx="8" ry="8" style="stroke:#181818;stroke-width:0.5;"/><text fill="#000000" font-family="sans-serif" font-size="14" lengthAdjust="spacing" textLength="149" x="1836" y="43.9951">SERVICE-HOST/flights</text></g><!--entity interface.SERVICE_HOST_login--><g id="elem_interface.SERVICE_HOST_login"><ellipse cx="2519.5" cy="14" fill="#F1F1F1" rx="8" ry="8" style="stroke:#181818;stroke-width:0.5;"/><text fill="#000000" font-family="sans-serif" font-size="14" lengthAdjust="spacing" textLength="141" x="2449" y="43.9951">SERVICE-HOST/login</text></g><!--link com_acmeair_config_LoaderREST to com_acmeair_loader_Loader--><g id="link_com_acmeair_config_LoaderREST_com_acmeair_loader_Loader"><path d="M225.5,258.59 C225.5,288.33 225.5,334.95 225.5,364.77 " fill="none" id="com_acmeair_config_LoaderREST-to-com_acmeair_loader_Loader" style="stroke:#181818;stroke-width:1.0;stroke-dasharray:7.0,7.0;"/><polygon fill="#181818" points="225.5,370.77,229.5,361.77,225.5,365.77,221.5,361.77,225.5,370.77" style="stroke:#181818;stroke-width:1.0;"/><text fill="#000000" font-family="sans-serif" font-size="13" lengthAdjust="spacing" textLength="52" x="226.5" y="337.0669">requires</text></g><!--link com_acmeair_requires_SERVICE_HOST_loader to com_acmeair_config_LoaderREST--><g id="link_com_acmeair_requires_SERVICE_HOST_loader_com_acmeair_config_LoaderREST"><path d="M87.69,116.31 C106.74,132.65 165.33,182.9 199.67,212.35 " fill="none" id="com_acmeair_requires_SERVICE_HOST_loader-com_acmeair_config_LoaderREST" style="stroke:#181818;stroke-width:1.0;"/></g><!--link interface.SERVICE_HOST_loader to com_acmeair_requires_SERVICE_HOST_loader--><g id="link_interface.SERVICE_HOST_loader_com_acmeair_requires_SERVICE_HOST_loader"><path d="M81.5,23.01 C81.5,41.84 81.5,88.45 81.5,103.92 " fill="none" id="interface.SERVICE_HOST_loader-com_acmeair_requires_SERVICE_HOST_loader" style="stroke:#181818;stroke-width:1.0;"/></g><!--link com_acmeair_web_LoginREST to com_acmeair_wxs_service_CustomerServiceImpl--><g id="link_com_acmeair_web_LoginREST_com_acmeair_wxs_service_CustomerServiceImpl"><path d="M2681.9,258.51 C2654.47,271.04 2618.23,285.82 2584.5,294 C2513.37,311.25 2319.01,285.92 2256.5,324 C2239.15,334.57 2229.8553,349.3632 2222.9153,365.2232 " fill="none" id="com_acmeair_web_LoginREST-to-com_acmeair_wxs_service_CustomerServiceImpl" style="stroke:#181818;stroke-width:1.0;stroke-dasharray:7.0,7.0;"/><polygon fill="#181818" points="2220.51,370.72,2227.7824,364.0783,2222.5144,366.1393,2220.4534,360.8713,2220.51,370.72" style="stroke:#181818;stroke-width:1.0;"/><text fill="#000000" font-family="sans-serif" font-size="13" lengthAdjust="spacing" textLength="52" x="2257.5" y="337.0669">requires</text></g><!--link com_acmeair_config_AcmeAirConfiguration to com_acmeair_wxs_service_CustomerServiceImpl--><g id="link_com_acmeair_config_AcmeAirConfiguration_com_acmeair_wxs_service_CustomerServiceImpl"><path d="M1038.62,258.64 C1074.84,271.38 1122.72,286.34 1166.5,294 C1448.31,343.31 1525.08,293.13 1809.5,324 C1910.41,334.95 2018.4404,354.0543 2099.3504,369.7943 " fill="none" id="com_acmeair_config_AcmeAirConfiguration-to-com_acmeair_wxs_service_CustomerServiceImpl" style="stroke:#181818;stroke-width:1.0;stroke-dasharray:7.0,7.0;"/><polygon fill="#181818" points="2105.24,370.94,2097.1694,365.295,2100.332,369.9852,2095.6418,373.1478,2105.24,370.94" style="stroke:#181818;stroke-width:1.0;"/><text fill="#000000" font-family="sans-serif" font-size="13" lengthAdjust="spacing" textLength="52" x="1932.5" y="337.0669">requires</text></g><!--link com_acmeair_web_BookingsREST to com_acmeair_morphia_services_BookingServiceImpl--><g id="link_com_acmeair_web_BookingsREST_com_acmeair_morphia_services_BookingServiceImpl"><path d="M634.14,258.59 C626.91,288.33 615.5556,335.1194 608.3156,364.9394 " fill="none" id="com_acmeair_web_BookingsREST-to-com_acmeair_morphia_services_BookingServiceImpl" style="stroke:#181818;stroke-width:1.0;stroke-dasharray:7.0,7.0;"/><polygon fill="#181818" points="606.9,370.77,612.9105,362.9678,608.0797,365.9112,605.1363,361.0803,606.9,370.77" style="stroke:#181818;stroke-width:1.0;"/><text fill="#000000" font-family="sans-serif" font-size="13" lengthAdjust="spacing" textLength="52" x="618.5" y="337.0669">requires</text></g><!--link com_acmeair_config_AcmeAirConfiguration to com_acmeair_morphia_services_CustomerServiceImpl--><g id="link_com_acmeair_config_AcmeAirConfiguration_com_acmeair_morphia_services_CustomerServiceImpl"><path d="M1037.33,258.55 C1073.66,271.51 1122.14,286.75 1166.5,294 C1438.97,338.53 2141.43,254.03 2408.5,324 C2424.08,328.08 2425.5,335.15 2440.5,341 C2471.02,352.91 2499.4165,361.4756 2530.7465,369.4756 " fill="none" id="com_acmeair_config_AcmeAirConfiguration-to-com_acmeair_morphia_services_CustomerServiceImpl" style="stroke:#181818;stroke-width:1.0;stroke-dasharray:7.0,7.0;"/><polygon fill="#181818" points="2536.56,370.96,2528.8294,364.8577,2531.7154,369.723,2526.8502,372.609,2536.56,370.96" style="stroke:#181818;stroke-width:1.0;"/><text fill="#000000" font-family="sans-serif" font-size="13" lengthAdjust="spacing" textLength="52" x="2441.5" y="337.0669">requires</text></g><!--link com_acmeair_loader_FlightLoader to com_acmeair_wxs_service_FlightServiceImpl--><g id="link_com_acmeair_loader_FlightLoader_com_acmeair_wxs_service_FlightServiceImpl"><path d="M1315.62,258.53 C1312.84,280.86 1311.83,315.67 1326.5,341 C1333.59,353.25 1339.8708,359.8773 1351.6708,367.6573 " fill="none" id="com_acmeair_loader_FlightLoader-to-com_acmeair_wxs_service_FlightServiceImpl" style="stroke:#181818;stroke-width:1.0;stroke-dasharray:7.0,7.0;"/><polygon fill="#181818" points="1356.68,370.96,1351.368,362.6665,1352.5057,368.2078,1346.9644,369.3454,1356.68,370.96" style="stroke:#181818;stroke-width:1.0;"/><text fill="#000000" font-family="sans-serif" font-size="13" lengthAdjust="spacing" textLength="52" x="1327.5" y="337.0669">requires</text></g><!--link com_acmeair_config_AcmeAirConfiguration to com_acmeair_morphia_services_BookingServiceImpl--><g id="link_com_acmeair_config_AcmeAirConfiguration_com_acmeair_morphia_services_BookingServiceImpl"><path d="M927,258.59 C854.87,288.38 732.7256,338.8095 660.5756,368.6095 " fill="none" id="com_acmeair_config_AcmeAirConfiguration-to-com_acmeair_morphia_services_BookingServiceImpl" style="stroke:#181818;stroke-width:1.0;stroke-dasharray:7.0,7.0;"/><polygon fill="#181818" points="655.03,370.9,664.8754,371.1613,659.6513,368.9913,661.8214,363.7672,655.03,370.9" style="stroke:#181818;stroke-width:1.0;"/><text fill="#000000" font-family="sans-serif" font-size="13" lengthAdjust="spacing" textLength="52" x="768.5" y="337.0669">requires</text></g><!--link com_acmeair_web_RESTCookieSessionFilter to com_acmeair_wxs_service_CustomerServiceImpl--><g id="link_com_acmeair_web_RESTCookieSessionFilter_com_acmeair_wxs_service_CustomerServiceImpl"><path d="M2999.31,258.59 C2962.14,271.22 2913.17,286.1 2868.5,294 C2641.42,334.18 2573.31,264.55 2350.5,324 C2345.4,325.36 2299.6845,348.433 2261.1545,368.093 " fill="none" id="com_acmeair_web_RESTCookieSessionFilter-to-com_acmeair_wxs_service_CustomerServiceImpl" style="stroke:#181818;stroke-width:1.0;stroke-dasharray:7.0,7.0;"/><polygon fill="#181818" points="2255.81,370.82,2265.6447,370.2924,2260.2637,368.5475,2262.0087,363.1665,2255.81,370.82" style="stroke:#181818;stroke-width:1.0;"/><text fill="#000000" font-family="sans-serif" font-size="13" lengthAdjust="spacing" textLength="52" x="2351.5" y="337.0669">requires</text></g><!--link com_acmeair_web_LoginREST to com_acmeair_morphia_services_CustomerServiceImpl--><g id="link_com_acmeair_web_LoginREST_com_acmeair_morphia_services_CustomerServiceImpl"><path d="M2721.92,258.55 C2716.67,280.59 2706.64,314.89 2690.5,341 C2683.78,351.86 2678.7401,358.0759 2669.8701,366.6659 " fill="none" id="com_acmeair_web_LoginREST-to-com_acmeair_morphia_services_CustomerServiceImpl" style="stroke:#181818;stroke-width:1.0;stroke-dasharray:7.0,7.0;"/><polygon fill="#181818" points="2665.56,370.84,2674.8079,367.4523,2669.1518,367.3616,2669.2425,361.7055,2665.56,370.84" style="stroke:#181818;stroke-width:1.0;"/><text fill="#000000" font-family="sans-serif" font-size="13" lengthAdjust="spacing" textLength="52" x="2699.5" y="337.0669">requires</text></g><!--link com_acmeair_web_FlightsREST to com_acmeair_morphia_services_FlightServiceImpl--><g id="link_com_acmeair_web_FlightsREST_com_acmeair_morphia_services_FlightServiceImpl"><path d="M1648.38,258.72 C1671.12,275.94 1702.92,300.72 1729.5,324 C1746.7,339.06 1760.955,352.8497 1774.755,366.6997 " fill="none" id="com_acmeair_web_FlightsREST-to-com_acmeair_morphia_services_FlightServiceImpl" style="stroke:#181818;stroke-width:1.0;stroke-dasharray:7.0,7.0;"/><polygon fill="#181818" points="1778.99,370.95,1775.4711,361.7512,1775.4609,367.4081,1769.804,367.3978,1778.99,370.95" style="stroke:#181818;stroke-width:1.0;"/><text fill="#000000" font-family="sans-serif" font-size="13" lengthAdjust="spacing" textLength="52" x="1748.5" y="337.0669">requires</text></g><!--link com_acmeair_web_RESTCookieSessionFilter to com_acmeair_wxs_utils_WXSSessionManager--><g id="link_com_acmeair_web_RESTCookieSessionFilter_com_acmeair_wxs_utils_WXSSessionManager"><path d="M3059.08,258.59 C3058.51,288.33 3057.6147,334.9511 3057.0447,364.7711 " fill="none" id="com_acmeair_web_RESTCookieSessionFilter-to-com_acmeair_wxs_utils_WXSSessionManager" style="stroke:#181818;stroke-width:1.0;stroke-dasharray:7.0,7.0;"/><polygon fill="#181818" points="3056.93,370.77,3061.1013,361.8481,3057.0256,365.7709,3053.1027,361.6952,3056.93,370.77" style="stroke:#181818;stroke-width:1.0;"/><text fill="#000000" font-family="sans-serif" font-size="13" lengthAdjust="spacing" textLength="52" x="3058.5" y="337.0669">requires</text></g><!--link com_acmeair_web_FlightsREST to com_acmeair_wxs_service_FlightServiceImpl--><g id="link_com_acmeair_web_FlightsREST_com_acmeair_wxs_service_FlightServiceImpl"><path d="M1563.21,258.66 C1509.39,280.66 1434.31,312.7 1424.5,324 C1413.22,337 1409.1537,350.1025 1407.0037,364.8825 " fill="none" id="com_acmeair_web_FlightsREST-to-com_acmeair_wxs_service_FlightServiceImpl" style="stroke:#181818;stroke-width:1.0;stroke-dasharray:7.0,7.0;"/><polygon fill="#181818" points="1406.14,370.82,1411.3939,362.4895,1406.8598,365.8721,1403.4772,361.3379,1406.14,370.82" style="stroke:#181818;stroke-width:1.0;"/><text fill="#000000" font-family="sans-serif" font-size="13" lengthAdjust="spacing" textLength="52" x="1425.5" y="337.0669">requires</text></g><!--link com_acmeair_config_AcmeAirConfiguration to com_acmeair_wxs_service_BookingServiceImpl--><g id="link_com_acmeair_config_AcmeAirConfiguration_com_acmeair_wxs_service_BookingServiceImpl"><path d="M985.72,258.59 C992.75,288.33 1003.8214,335.1105 1010.8614,364.9305 " fill="none" id="com_acmeair_config_AcmeAirConfiguration-to-com_acmeair_wxs_service_BookingServiceImpl" style="stroke:#181818;stroke-width:1.0;stroke-dasharray:7.0,7.0;"/><polygon fill="#181818" points="1012.24,370.77,1014.0651,361.0917,1011.0912,365.9038,1006.2791,362.9299,1012.24,370.77" style="stroke:#181818;stroke-width:1.0;"/><text fill="#000000" font-family="sans-serif" font-size="13" lengthAdjust="spacing" textLength="52" x="1004.5" y="337.0669">requires</text></g><!--link com_acmeair_web_CustomerREST to com_acmeair_wxs_service_CustomerServiceImpl--><g id="link_com_acmeair_web_CustomerREST_com_acmeair_wxs_service_CustomerServiceImpl"><path d="M2370.83,258.5 C2341.15,269.71 2304.08,283.21 2270.5,294 C2223.07,309.25 2192.65,284.34 2162.5,324 C2150.77,339.43 2159.5879,353.2312 2175.4379,366.8412 " fill="none" id="com_acmeair_web_CustomerREST-to-com_acmeair_wxs_service_CustomerServiceImpl" style="stroke:#181818;stroke-width:1.0;stroke-dasharray:7.0,7.0;"/><polygon fill="#181818" points="2179.99,370.75,2175.7677,361.8521,2176.1966,367.4927,2170.556,367.9216,2179.99,370.75" style="stroke:#181818;stroke-width:1.0;"/><text fill="#000000" font-family="sans-serif" font-size="13" lengthAdjust="spacing" textLength="52" x="2163.5" y="337.0669">requires</text></g><!--link com_acmeair_loader_CustomerLoader to com_acmeair_wxs_service_CustomerServiceImpl--><g id="link_com_acmeair_loader_CustomerLoader_com_acmeair_wxs_service_CustomerServiceImpl"><path d="M1964.58,258.61 C1996.57,280.87 2048.24,315.46 2095.5,341 C2115.45,351.78 2132.564,359.8459 2152.564,368.5059 " fill="none" id="com_acmeair_loader_CustomerLoader-to-com_acmeair_wxs_service_CustomerServiceImpl" style="stroke:#181818;stroke-width:1.0;stroke-dasharray:7.0,7.0;"/><polygon fill="#181818" points="2158.07,370.89,2151.4004,363.6432,2153.4817,368.9033,2148.2216,370.9845,2158.07,370.89" style="stroke:#181818;stroke-width:1.0;"/><text fill="#000000" font-family="sans-serif" font-size="13" lengthAdjust="spacing" textLength="52" x="2096.5" y="337.0669">requires</text></g><!--link com_acmeair_web_BookingsREST to com_acmeair_wxs_service_BookingServiceImpl--><g id="link_com_acmeair_web_BookingsREST_com_acmeair_wxs_service_BookingServiceImpl"><path d="M692.86,258.59 C764.8,288.38 886.6065,338.8043 958.5665,368.6043 " fill="none" id="com_acmeair_web_BookingsREST-to-com_acmeair_wxs_service_BookingServiceImpl" style="stroke:#181818;stroke-width:1.0;stroke-dasharray:7.0,7.0;"/><polygon fill="#181818" points="964.11,370.9,957.3252,363.7609,959.4904,368.987,954.2644,371.1522,964.11,370.9" style="stroke:#181818;stroke-width:1.0;"/><text fill="#000000" font-family="sans-serif" font-size="13" lengthAdjust="spacing" textLength="52" x="884.5" y="337.0669">requires</text></g><!--link com_acmeair_web_RESTCookieSessionFilter to com_acmeair_morphia_services_CustomerServiceImpl--><g id="link_com_acmeair_web_RESTCookieSessionFilter_com_acmeair_morphia_services_CustomerServiceImpl"><path d="M3000.22,258.59 C2920.28,288.38 2784.3922,339.0044 2704.4422,368.8044 " fill="none" id="com_acmeair_web_RESTCookieSessionFilter-to-com_acmeair_morphia_services_CustomerServiceImpl" style="stroke:#181818;stroke-width:1.0;stroke-dasharray:7.0,7.0;"/><polygon fill="#181818" points="2698.82,370.9,2708.6503,371.5048,2703.5051,369.1537,2705.8562,364.0086,2698.82,370.9" style="stroke:#181818;stroke-width:1.0;"/><text fill="#000000" font-family="sans-serif" font-size="13" lengthAdjust="spacing" textLength="52" x="2824.5" y="337.0669">requires</text></g><!--link com_acmeair_web_CustomerREST to com_acmeair_morphia_services_CustomerServiceImpl--><g id="link_com_acmeair_web_CustomerREST_com_acmeair_morphia_services_CustomerServiceImpl"><path d="M2488.29,258.56 C2522.85,273.26 2565.31,295.2 2596.5,324 C2610.81,337.21 2619.482,350.8759 2626.932,365.6059 " fill="none" id="com_acmeair_web_CustomerREST-to-com_acmeair_morphia_services_CustomerServiceImpl" style="stroke:#181818;stroke-width:1.0;stroke-dasharray:7.0,7.0;"/><polygon fill="#181818" points="2629.64,370.96,2629.1475,361.1235,2627.3834,366.4982,2622.0086,364.7341,2629.64,370.96" style="stroke:#181818;stroke-width:1.0;"/><text fill="#000000" font-family="sans-serif" font-size="13" lengthAdjust="spacing" textLength="52" x="2611.5" y="337.0669">requires</text></g><!--link com_acmeair_loader_FlightLoader to com_acmeair_morphia_services_FlightServiceImpl--><g id="link_com_acmeair_loader_FlightLoader_com_acmeair_morphia_services_FlightServiceImpl"><path d="M1375.03,258.63 C1404.13,269.87 1440.5,283.36 1473.5,294 C1521.73,309.55 1534.9,309.65 1583.5,324 C1634.12,338.94 1685.2445,355.2035 1728.0545,369.1335 " fill="none" id="com_acmeair_loader_FlightLoader-to-com_acmeair_morphia_services_FlightServiceImpl" style="stroke:#181818;stroke-width:1.0;stroke-dasharray:7.0,7.0;"/><polygon fill="#181818" points="1733.76,370.99,1726.4394,364.4015,1729.0054,369.4429,1723.964,372.0089,1733.76,370.99" style="stroke:#181818;stroke-width:1.0;"/><text fill="#000000" font-family="sans-serif" font-size="13" lengthAdjust="spacing" textLength="52" x="1637.5" y="337.0669">requires</text></g><!--link com_acmeair_loader_CustomerLoader to com_acmeair_morphia_services_CustomerServiceImpl--><g id="link_com_acmeair_loader_CustomerLoader_com_acmeair_morphia_services_CustomerServiceImpl"><path d="M1986.95,258.57 C2019.73,271.13 2062.87,285.91 2102.5,294 C2277.17,329.66 2331.24,274.46 2502.5,324 C2517.97,328.48 2520.17,333.65 2534.5,341 C2553.96,350.98 2570.2079,359.0981 2588.7579,368.2381 " fill="none" id="com_acmeair_loader_CustomerLoader-to-com_acmeair_morphia_services_CustomerServiceImpl" style="stroke:#181818;stroke-width:1.0;stroke-dasharray:7.0,7.0;"/><polygon fill="#181818" points="2594.14,370.89,2587.8347,363.3241,2589.6549,368.6801,2584.2989,370.5002,2594.14,370.89" style="stroke:#181818;stroke-width:1.0;"/><text fill="#000000" font-family="sans-serif" font-size="13" lengthAdjust="spacing" textLength="52" x="2535.5" y="337.0669">requires</text></g><!--link com_acmeair_config_AcmeAirConfiguration to com_acmeair_wxs_service_FlightServiceImpl--><g id="link_com_acmeair_config_AcmeAirConfiguration_com_acmeair_wxs_service_FlightServiceImpl"><path d="M1037.93,258.56 C1093.86,279.96 1181.34,313.17 1257.5,341 C1284.83,350.99 1309.4698,359.7694 1335.4298,368.8994 " fill="none" id="com_acmeair_config_AcmeAirConfiguration-to-com_acmeair_wxs_service_FlightServiceImpl" style="stroke:#181818;stroke-width:1.0;stroke-dasharray:7.0,7.0;"/><polygon fill="#181818" points="1341.09,370.89,1333.9269,364.1306,1336.3732,369.2311,1331.2727,371.6775,1341.09,370.89" style="stroke:#181818;stroke-width:1.0;"/><text fill="#000000" font-family="sans-serif" font-size="13" lengthAdjust="spacing" textLength="52" x="1258.5" y="337.0669">requires</text></g><!--link com_acmeair_config_AcmeAirConfiguration to com_acmeair_morphia_services_FlightServiceImpl--><g id="link_com_acmeair_config_AcmeAirConfiguration_com_acmeair_morphia_services_FlightServiceImpl"><path d="M1040.84,258.6 C1076.85,270.92 1123.74,285.46 1166.5,294 C1304.84,321.65 1345.91,288.71 1482.5,324 C1500.81,328.73 1503.42,335.45 1521.5,341 C1561.77,353.36 1600.3714,362.1615 1641.7714,369.8715 " fill="none" id="com_acmeair_config_AcmeAirConfiguration-to-com_acmeair_morphia_services_FlightServiceImpl" style="stroke:#181818;stroke-width:1.0;stroke-dasharray:7.0,7.0;"/><polygon fill="#181818" points="1647.67,370.97,1639.5545,365.3899,1642.7545,370.0546,1638.0898,373.2546,1647.67,370.97" style="stroke:#181818;stroke-width:1.0;"/><text fill="#000000" font-family="sans-serif" font-size="13" lengthAdjust="spacing" textLength="52" x="1522.5" y="337.0669">requires</text></g><!--link com_acmeair_2_requires_SERVICE_HOST_customer_byid to com_acmeair_web_CustomerREST--><g id="link_com_acmeair_2_requires_SERVICE_HOST_customer_byid_com_acmeair_web_CustomerREST"><path d="M2369.12,116.31 C2377.19,132.65 2402.01,182.9 2416.56,212.35 " fill="none" id="com_acmeair_2_requires_SERVICE_HOST_customer_byid-com_acmeair_web_CustomerREST" style="stroke:#181818;stroke-width:1.0;"/></g><!--link com_acmeair_2_requires_SERVICE_HOST_login to com_acmeair_web_LoginREST--><g id="link_com_acmeair_2_requires_SERVICE_HOST_login_com_acmeair_web_LoginREST"><path d="M2490.73,114.18 C2517.32,127.75 2622.81,181.58 2683.29,212.45 " fill="none" id="com_acmeair_2_requires_SERVICE_HOST_login-com_acmeair_web_LoginREST" style="stroke:#181818;stroke-width:1.0;"/></g><!--link com_acmeair_2_requires_SERVICE_HOST_flights to com_acmeair_web_FlightsREST--><g id="link_com_acmeair_2_requires_SERVICE_HOST_flights_com_acmeair_web_FlightsREST"><path d="M1741,116.31 C1724.06,132.65 1671.98,182.9 1641.46,212.35 " fill="none" id="com_acmeair_2_requires_SERVICE_HOST_flights-com_acmeair_web_FlightsREST" style="stroke:#181818;stroke-width:1.0;"/></g><!--link com_acmeair_2_requires_SERVICE_HOST_bookings to com_acmeair_web_BookingsREST--><g id="link_com_acmeair_2_requires_SERVICE_HOST_bookings_com_acmeair_web_BookingsREST"><path d="M1693.1,111.35 C1614.74,115.63 842,158.07 795.5,169 C755.18,178.47 711.95,197.38 681.25,212.46 " fill="none" id="com_acmeair_2_requires_SERVICE_HOST_bookings-com_acmeair_web_BookingsREST" style="stroke:#181818;stroke-width:1.0;"/></g><!--link com_acmeair_2_requires_SERVICE_HOST_config to com_acmeair_config_AcmeAirConfiguration--><g id="link_com_acmeair_2_requires_SERVICE_HOST_config_com_acmeair_config_AcmeAirConfiguration"><path d="M1563.26,111.44 C1525.6,114.17 1325.08,130.07 1166.5,169 C1120.95,180.18 1070.88,198.16 1034.18,212.45 " fill="none" id="com_acmeair_2_requires_SERVICE_HOST_config-com_acmeair_config_AcmeAirConfiguration" style="stroke:#181818;stroke-width:1.0;"/></g><!--link interface.SERVICE_HOST_bookings to com_acmeair_2_requires_SERVICE_HOST_bookings--><g id="link_interface.SERVICE_HOST_bookings_com_acmeair_2_requires_SERVICE_HOST_bookings"><path d="M1699.5,23.01 C1699.5,41.84 1699.5,88.45 1699.5,103.92 " fill="none" id="interface.SERVICE_HOST_bookings-com_acmeair_2_requires_SERVICE_HOST_bookings" style="stroke:#181818;stroke-width:1.0;"/></g><!--link interface.SERVICE_HOST_config to com_acmeair_2_requires_SERVICE_HOST_config--><g id="link_interface.SERVICE_HOST_config_com_acmeair_2_requires_SERVICE_HOST_config"><path d="M1494.49,23.01 C1510.91,41.84 1551.58,88.45 1565.07,103.92 " fill="none" id="interface.SERVICE_HOST_config-com_acmeair_2_requires_SERVICE_HOST_config" style="stroke:#181818;stroke-width:1.0;"/></g><!--link interface.SERVICE_HOST_customer_byid to com_acmeair_2_requires_SERVICE_HOST_customer_byid--><g id="link_interface.SERVICE_HOST_customer_byid_com_acmeair_2_requires_SERVICE_HOST_customer_byid"><path d="M2301.55,23.01 C2315.77,41.84 2350.98,88.45 2362.66,103.92 " fill="none" id="interface.SERVICE_HOST_customer_byid-com_acmeair_2_requires_SERVICE_HOST_customer_byid" style="stroke:#181818;stroke-width:1.0;"/></g><!--link interface.SERVICE_HOST_flights to com_acmeair_2_requires_SERVICE_HOST_flights--><g id="link_interface.SERVICE_HOST_flights_com_acmeair_2_requires_SERVICE_HOST_flights"><path d="M1901.21,20.32 C1871.26,37.49 1777.72,91.1 1752.71,105.44 " fill="none" id="interface.SERVICE_HOST_flights-com_acmeair_2_requires_SERVICE_HOST_flights" style="stroke:#181818;stroke-width:1.0;"/></g><!--link interface.SERVICE_HOST_login to com_acmeair_2_requires_SERVICE_HOST_login--><g id="link_interface.SERVICE_HOST_login_com_acmeair_2_requires_SERVICE_HOST_login"><path d="M2516.52,23.01 C2509.51,41.84 2492.15,88.45 2486.39,103.92 " fill="none" id="interface.SERVICE_HOST_login-com_acmeair_2_requires_SERVICE_HOST_login" style="stroke:#181818;stroke-width:1.0;"/></g><!--SRC=[lLXRRvim57xdLrX-9vNok8T97KgrIfagbMgRj5N8eGwrQcncGo-Qzjy7mL0kjZ4aZNX8uDo-S-KO-KHOXWHAmPwy1aJ456_H3jERPomeoZB24f2B0dkoPOnvcd66MHxcRnI38gLhhtq6OFatGd6A4H6_sVi5mL_lLuSMKOuUi8YsXv_xFYtcR4yIHRlTX7VtNiP5JXY0vOKaw38B_ASW0iietDn-lmusqTURy4wfdrAxMdssW0AVGAFSWwuceUzF-VBF8op7OezY3A1IuLSgBfIAoiMMPQNpoqhrVNUqXjI1jJLvBwyoabWyanX7GI5pdc8HrlVNQKO7wNp1kvQhZe0kw0s7jY8g5PLemFaJmI6Mad1sHMW-vkn0-r9niyICBEKYUoIe4P3H5IN9Opv3OD94XRpMAZM-LsYBd50P_VWPAhU-8OOIRGIsF25CfwMaAI0w8oFGqobJLNjPtbuI4Hpk2e7o4fubtbFHKvcksPeycpjxRIZTVHtE1PArMqi4LSIYtHjvM21FgymjaDkfhDfgOJZ4ffgpEzQSatuo8wDQ7MfsQR6JkE3K5aPBkbgs1MdS6n_Zn9nesQRgIHDkBjRZaZ0ShfFQPsHXRd1COtmn-3DKpyJBqWgzzqO_MRNebu7pJPzZ8k9QBSVNl3Ns7p_NZcahjmGVvyFI5ZZNZBRRWRCNak6POxnmG-SbHQUhitV26GkQJbLl5OPpLY2TjlxI2zrNGCCfJR_lcizhBJRBYQrTuIReWrFRP3YCe9I75aXg3RPI7U4eOsOmgWml3dLgmzJRi5sON17sEiK8jAbP2yJct64dEy9gx5c-1LJTQFqKK9qfR4H7ABKbxpy0]--></g></svg>