<?xml version="1.0" encoding="us-ascii" standalone="no"?><svg xmlns="http://www.w3.org/2000/svg" xmlns:xlink="http://www.w3.org/1999/xlink" contentStyleType="text/css" height="504px" preserveAspectRatio="none" style="width:9386px;height:504px;background:#FFFFFF;" version="1.1" viewBox="0 0 9386 504" width="9386px" zoomAndPan="magnify"><defs/><g><!--cluster System--><g id="cluster_System"><rect fill="none" height="426" rx="2.5" ry="2.5" style="stroke:#181818;stroke-width:1.0;" width="5997" x="200" y="72.86"/><text fill="#000000" font-family="sans-serif" font-size="14" font-weight="bold" lengthAdjust="spacing" textLength="58" x="3169.5" y="87.8551">System</text></g><!--entity com_acmeair_config_AcmeAirConfiguration--><g id="elem_com_acmeair_config_AcmeAirConfiguration"><a href="acmeair-acmeair.repository#_BI1FhsCoEe6pJcAFuRndaw" target="_top" title="acmeair-acmeair.repository#_BI1FhsCoEe6pJcAFuRndaw" xlink:actuate="onRequest" xlink:href="acmeair-acmeair.repository#_BI1FhsCoEe6pJcAFuRndaw" xlink:show="new" xlink:title="acmeair-acmeair.repository#_BI1FhsCoEe6pJcAFuRndaw" xlink:type="simple"><rect fill="#F1F1F1" height="46.2969" rx="2.5" ry="2.5" style="stroke:#181818;stroke-width:0.5;" width="335" x="3908.5" y="162.86"/><rect fill="#F1F1F1" height="10" style="stroke:#181818;stroke-width:0.5;" width="15" x="4223.5" y="167.86"/><rect fill="#F1F1F1" height="2" style="stroke:#181818;stroke-width:0.5;" width="4" x="4221.5" y="169.86"/><rect fill="#F1F1F1" height="2" style="stroke:#181818;stroke-width:0.5;" width="4" x="4221.5" y="173.86"/><text fill="#000000" font-family="sans-serif" font-size="14" lengthAdjust="spacing" textLength="295" x="3923.5" y="195.8551">com_acmeair_config_AcmeAirConfiguration</text></a></g><!--entity com_acmeair_config_LoaderREST--><g id="elem_com_acmeair_config_LoaderREST"><a href="acmeair-acmeair.repository#_BI1FhsCoEe6pJcAFuRndaw" target="_top" title="acmeair-acmeair.repository#_BI1FhsCoEe6pJcAFuRndaw" xlink:actuate="onRequest" xlink:href="acmeair-acmeair.repository#_BI1FhsCoEe6pJcAFuRndaw" xlink:show="new" xlink:title="acmeair-acmeair.repository#_BI1FhsCoEe6pJcAFuRndaw" xlink:type="simple"><rect fill="#F1F1F1" height="46.2969" rx="2.5" ry="2.5" style="stroke:#181818;stroke-width:0.5;" width="271" x="5462.5" y="162.86"/><rect fill="#F1F1F1" height="10" style="stroke:#181818;stroke-width:0.5;" width="15" x="5713.5" y="167.86"/><rect fill="#F1F1F1" height="2" style="stroke:#181818;stroke-width:0.5;" width="4" x="5711.5" y="169.86"/><rect fill="#F1F1F1" height="2" style="stroke:#181818;stroke-width:0.5;" width="4" x="5711.5" y="173.86"/><text fill="#000000" font-family="sans-serif" font-size="14" lengthAdjust="spacing" textLength="231" x="5477.5" y="195.8551">com_acmeair_config_LoaderREST</text></a></g><!--entity com_acmeair_loader_CustomerLoader--><g id="elem_com_acmeair_loader_CustomerLoader"><a href="acmeair-acmeair.repository#_BI1FhsCoEe6pJcAFuRndaw" target="_top" title="acmeair-acmeair.repository#_BI1FhsCoEe6pJcAFuRndaw" xlink:actuate="onRequest" xlink:href="acmeair-acmeair.repository#_BI1FhsCoEe6pJcAFuRndaw" xlink:show="new" xlink:title="acmeair-acmeair.repository#_BI1FhsCoEe6pJcAFuRndaw" xlink:type="simple"><rect fill="#F1F1F1" height="46.2969" rx="2.5" ry="2.5" style="stroke:#181818;stroke-width:0.5;" width="303" x="1234.5" y="162.86"/><rect fill="#F1F1F1" height="10" style="stroke:#181818;stroke-width:0.5;" width="15" x="1517.5" y="167.86"/><rect fill="#F1F1F1" height="2" style="stroke:#181818;stroke-width:0.5;" width="4" x="1515.5" y="169.86"/><rect fill="#F1F1F1" height="2" style="stroke:#181818;stroke-width:0.5;" width="4" x="1515.5" y="173.86"/><text fill="#000000" font-family="sans-serif" font-size="14" lengthAdjust="spacing" textLength="263" x="1249.5" y="195.8551">com_acmeair_loader_CustomerLoader</text></a></g><!--entity com_acmeair_loader_FlightLoader--><g id="elem_com_acmeair_loader_FlightLoader"><a href="acmeair-acmeair.repository#_BI1FhsCoEe6pJcAFuRndaw" target="_top" title="acmeair-acmeair.repository#_BI1FhsCoEe6pJcAFuRndaw" xlink:actuate="onRequest" xlink:href="acmeair-acmeair.repository#_BI1FhsCoEe6pJcAFuRndaw" xlink:show="new" xlink:title="acmeair-acmeair.repository#_BI1FhsCoEe6pJcAFuRndaw" xlink:type="simple"><rect fill="#F1F1F1" height="46.2969" rx="2.5" ry="2.5" style="stroke:#181818;stroke-width:0.5;" width="272" x="2363" y="162.86"/><rect fill="#F1F1F1" height="10" style="stroke:#181818;stroke-width:0.5;" width="15" x="2615" y="167.86"/><rect fill="#F1F1F1" height="2" style="stroke:#181818;stroke-width:0.5;" width="4" x="2613" y="169.86"/><rect fill="#F1F1F1" height="2" style="stroke:#181818;stroke-width:0.5;" width="4" x="2613" y="173.86"/><text fill="#000000" font-family="sans-serif" font-size="14" lengthAdjust="spacing" textLength="232" x="2378" y="195.8551">com_acmeair_loader_FlightLoader</text></a></g><!--entity com_acmeair_loader_Loader--><g id="elem_com_acmeair_loader_Loader"><a href="acmeair-acmeair.repository#_BI1FhsCoEe6pJcAFuRndaw" target="_top" title="acmeair-acmeair.repository#_BI1FhsCoEe6pJcAFuRndaw" xlink:actuate="onRequest" xlink:href="acmeair-acmeair.repository#_BI1FhsCoEe6pJcAFuRndaw" xlink:show="new" xlink:title="acmeair-acmeair.repository#_BI1FhsCoEe6pJcAFuRndaw" xlink:type="simple"><rect fill="#F1F1F1" height="46.2969" rx="2.5" ry="2.5" style="stroke:#181818;stroke-width:0.5;" width="235" x="5932.5" y="299.86"/><rect fill="#F1F1F1" height="10" style="stroke:#181818;stroke-width:0.5;" width="15" x="6147.5" y="304.86"/><rect fill="#F1F1F1" height="2" style="stroke:#181818;stroke-width:0.5;" width="4" x="6145.5" y="306.86"/><rect fill="#F1F1F1" height="2" style="stroke:#181818;stroke-width:0.5;" width="4" x="6145.5" y="310.86"/><text fill="#000000" font-family="sans-serif" font-size="14" lengthAdjust="spacing" textLength="195" x="5947.5" y="332.8551">com_acmeair_loader_Loader</text></a></g><!--entity com_acmeair_morphia_services_BookingServiceImpl--><g id="elem_com_acmeair_morphia_services_BookingServiceImpl"><a href="acmeair-acmeair.repository#_BI1FhsCoEe6pJcAFuRndaw" target="_top" title="acmeair-acmeair.repository#_BI1FhsCoEe6pJcAFuRndaw" xlink:actuate="onRequest" xlink:href="acmeair-acmeair.repository#_BI1FhsCoEe6pJcAFuRndaw" xlink:show="new" xlink:title="acmeair-acmeair.repository#_BI1FhsCoEe6pJcAFuRndaw" xlink:type="simple"><rect fill="#F1F1F1" height="46.2969" rx="2.5" ry="2.5" style="stroke:#181818;stroke-width:0.5;" width="400" x="5087" y="299.86"/><rect fill="#F1F1F1" height="10" style="stroke:#181818;stroke-width:0.5;" width="15" x="5467" y="304.86"/><rect fill="#F1F1F1" height="2" style="stroke:#181818;stroke-width:0.5;" width="4" x="5465" y="306.86"/><rect fill="#F1F1F1" height="2" style="stroke:#181818;stroke-width:0.5;" width="4" x="5465" y="310.86"/><text fill="#000000" font-family="sans-serif" font-size="14" lengthAdjust="spacing" textLength="360" x="5102" y="332.8551">com_acmeair_morphia_services_BookingServiceImpl</text></a></g><!--entity com_acmeair_service_BookingService--><g id="elem_com_acmeair_service_BookingService"><a href="acmeair-acmeair.repository#_BI1FhsCoEe6pJcAFuRndaw" target="_top" title="acmeair-acmeair.repository#_BI1FhsCoEe6pJcAFuRndaw" xlink:actuate="onRequest" xlink:href="acmeair-acmeair.repository#_BI1FhsCoEe6pJcAFuRndaw" xlink:show="new" xlink:title="acmeair-acmeair.repository#_BI1FhsCoEe6pJcAFuRndaw" xlink:type="simple"><rect fill="#F1F1F1" height="46.2969" rx="2.5" ry="2.5" style="stroke:#181818;stroke-width:0.5;" width="301" x="4104.5" y="299.86"/><rect fill="#F1F1F1" height="10" style="stroke:#181818;stroke-width:0.5;" width="15" x="4385.5" y="304.86"/><rect fill="#F1F1F1" height="2" style="stroke:#181818;stroke-width:0.5;" width="4" x="4383.5" y="306.86"/><rect fill="#F1F1F1" height="2" style="stroke:#181818;stroke-width:0.5;" width="4" x="4383.5" y="310.86"/><text fill="#000000" font-family="sans-serif" font-size="14" lengthAdjust="spacing" textLength="261" x="4119.5" y="332.8551">com_acmeair_service_BookingService</text></a></g><!--entity com_acmeair_service_CustomerService--><g id="elem_com_acmeair_service_CustomerService"><a href="acmeair-acmeair.repository#_BI1FhsCoEe6pJcAFuRndaw" target="_top" title="acmeair-acmeair.repository#_BI1FhsCoEe6pJcAFuRndaw" xlink:actuate="onRequest" xlink:href="acmeair-acmeair.repository#_BI1FhsCoEe6pJcAFuRndaw" xlink:show="new" xlink:title="acmeair-acmeair.repository#_BI1FhsCoEe6pJcAFuRndaw" xlink:type="simple"><rect fill="#F1F1F1" height="46.2969" rx="2.5" ry="2.5" style="stroke:#181818;stroke-width:0.5;" width="312" x="1601" y="299.86"/><rect fill="#F1F1F1" height="10" style="stroke:#181818;stroke-width:0.5;" width="15" x="1893" y="304.86"/><rect fill="#F1F1F1" height="2" style="stroke:#181818;stroke-width:0.5;" width="4" x="1891" y="306.86"/><rect fill="#F1F1F1" height="2" style="stroke:#181818;stroke-width:0.5;" width="4" x="1891" y="310.86"/><text fill="#000000" font-family="sans-serif" font-size="14" lengthAdjust="spacing" textLength="272" x="1616" y="332.8551">com_acmeair_service_CustomerService</text></a></g><!--entity com_acmeair_service_FlightService--><g id="elem_com_acmeair_service_FlightService"><a href="acmeair-acmeair.repository#_BI1FhsCoEe6pJcAFuRndaw" target="_top" title="acmeair-acmeair.repository#_BI1FhsCoEe6pJcAFuRndaw" xlink:actuate="onRequest" xlink:href="acmeair-acmeair.repository#_BI1FhsCoEe6pJcAFuRndaw" xlink:show="new" xlink:title="acmeair-acmeair.repository#_BI1FhsCoEe6pJcAFuRndaw" xlink:type="simple"><rect fill="#F1F1F1" height="46.2969" rx="2.5" ry="2.5" style="stroke:#181818;stroke-width:0.5;" width="281" x="2700.5" y="299.86"/><rect fill="#F1F1F1" height="10" style="stroke:#181818;stroke-width:0.5;" width="15" x="2961.5" y="304.86"/><rect fill="#F1F1F1" height="2" style="stroke:#181818;stroke-width:0.5;" width="4" x="2959.5" y="306.86"/><rect fill="#F1F1F1" height="2" style="stroke:#181818;stroke-width:0.5;" width="4" x="2959.5" y="310.86"/><text fill="#000000" font-family="sans-serif" font-size="14" lengthAdjust="spacing" textLength="241" x="2715.5" y="332.8551">com_acmeair_service_FlightService</text></a></g><!--entity com_acmeair_service_KeyGenerator--><g id="elem_com_acmeair_service_KeyGenerator"><a href="acmeair-acmeair.repository#_BI1FhsCoEe6pJcAFuRndaw" target="_top" title="acmeair-acmeair.repository#_BI1FhsCoEe6pJcAFuRndaw" xlink:actuate="onRequest" xlink:href="acmeair-acmeair.repository#_BI1FhsCoEe6pJcAFuRndaw" xlink:show="new" xlink:title="acmeair-acmeair.repository#_BI1FhsCoEe6pJcAFuRndaw" xlink:type="simple"><rect fill="#F1F1F1" height="46.2969" rx="2.5" ry="2.5" style="stroke:#181818;stroke-width:0.5;" width="289" x="1612.5" y="436.86"/><rect fill="#F1F1F1" height="10" style="stroke:#181818;stroke-width:0.5;" width="15" x="1881.5" y="441.86"/><rect fill="#F1F1F1" height="2" style="stroke:#181818;stroke-width:0.5;" width="4" x="1879.5" y="443.86"/><rect fill="#F1F1F1" height="2" style="stroke:#181818;stroke-width:0.5;" width="4" x="1879.5" y="447.86"/><text fill="#000000" font-family="sans-serif" font-size="14" lengthAdjust="spacing" textLength="249" x="1627.5" y="469.8551">com_acmeair_service_KeyGenerator</text></a></g><!--entity com_acmeair_service_TransactionService--><g id="elem_com_acmeair_service_TransactionService"><a href="acmeair-acmeair.repository#_BI1FhsCoEe6pJcAFuRndaw" target="_top" title="acmeair-acmeair.repository#_BI1FhsCoEe6pJcAFuRndaw" xlink:actuate="onRequest" xlink:href="acmeair-acmeair.repository#_BI1FhsCoEe6pJcAFuRndaw" xlink:show="new" xlink:title="acmeair-acmeair.repository#_BI1FhsCoEe6pJcAFuRndaw" xlink:type="simple"><rect fill="#F1F1F1" height="46.2969" rx="2.5" ry="2.5" style="stroke:#181818;stroke-width:0.5;" width="325" x="215.5" y="299.86"/><rect fill="#F1F1F1" height="10" style="stroke:#181818;stroke-width:0.5;" width="15" x="520.5" y="304.86"/><rect fill="#F1F1F1" height="2" style="stroke:#181818;stroke-width:0.5;" width="4" x="518.5" y="306.86"/><rect fill="#F1F1F1" height="2" style="stroke:#181818;stroke-width:0.5;" width="4" x="518.5" y="310.86"/><text fill="#000000" font-family="sans-serif" font-size="14" lengthAdjust="spacing" textLength="285" x="230.5" y="332.8551">com_acmeair_service_TransactionService</text></a></g><!--entity com_acmeair_web_BookingsREST--><g id="elem_com_acmeair_web_BookingsREST"><a href="acmeair-acmeair.repository#_BI1FhsCoEe6pJcAFuRndaw" target="_top" title="acmeair-acmeair.repository#_BI1FhsCoEe6pJcAFuRndaw" xlink:actuate="onRequest" xlink:href="acmeair-acmeair.repository#_BI1FhsCoEe6pJcAFuRndaw" xlink:show="new" xlink:title="acmeair-acmeair.repository#_BI1FhsCoEe6pJcAFuRndaw" xlink:type="simple"><rect fill="#F1F1F1" height="46.2969" rx="2.5" ry="2.5" style="stroke:#181818;stroke-width:0.5;" width="276" x="5151" y="162.86"/><rect fill="#F1F1F1" height="10" style="stroke:#181818;stroke-width:0.5;" width="15" x="5407" y="167.86"/><rect fill="#F1F1F1" height="2" style="stroke:#181818;stroke-width:0.5;" width="4" x="5405" y="169.86"/><rect fill="#F1F1F1" height="2" style="stroke:#181818;stroke-width:0.5;" width="4" x="5405" y="173.86"/><text fill="#000000" font-family="sans-serif" font-size="14" lengthAdjust="spacing" textLength="236" x="5166" y="195.8551">com_acmeair_web_BookingsREST</text></a></g><!--entity com_acmeair_web_CustomerREST--><g id="elem_com_acmeair_web_CustomerREST"><a href="acmeair-acmeair.repository#_BI1FhsCoEe6pJcAFuRndaw" target="_top" title="acmeair-acmeair.repository#_BI1FhsCoEe6pJcAFuRndaw" xlink:actuate="onRequest" xlink:href="acmeair-acmeair.repository#_BI1FhsCoEe6pJcAFuRndaw" xlink:show="new" xlink:title="acmeair-acmeair.repository#_BI1FhsCoEe6pJcAFuRndaw" xlink:type="simple"><rect fill="#F1F1F1" height="46.2969" rx="2.5" ry="2.5" style="stroke:#181818;stroke-width:0.5;" width="279" x="2018.5" y="162.86"/><rect fill="#F1F1F1" height="10" style="stroke:#181818;stroke-width:0.5;" width="15" x="2277.5" y="167.86"/><rect fill="#F1F1F1" height="2" style="stroke:#181818;stroke-width:0.5;" width="4" x="2275.5" y="169.86"/><rect fill="#F1F1F1" height="2" style="stroke:#181818;stroke-width:0.5;" width="4" x="2275.5" y="173.86"/><text fill="#000000" font-family="sans-serif" font-size="14" lengthAdjust="spacing" textLength="239" x="2033.5" y="195.8551">com_acmeair_web_CustomerREST</text></a></g><!--entity com_acmeair_web_FlightsREST--><g id="elem_com_acmeair_web_FlightsREST"><a href="acmeair-acmeair.repository#_BI1FhsCoEe6pJcAFuRndaw" target="_top" title="acmeair-acmeair.repository#_BI1FhsCoEe6pJcAFuRndaw" xlink:actuate="onRequest" xlink:href="acmeair-acmeair.repository#_BI1FhsCoEe6pJcAFuRndaw" xlink:show="new" xlink:title="acmeair-acmeair.repository#_BI1FhsCoEe6pJcAFuRndaw" xlink:type="simple"><rect fill="#F1F1F1" height="46.2969" rx="2.5" ry="2.5" style="stroke:#181818;stroke-width:0.5;" width="256" x="3076" y="162.86"/><rect fill="#F1F1F1" height="10" style="stroke:#181818;stroke-width:0.5;" width="15" x="3312" y="167.86"/><rect fill="#F1F1F1" height="2" style="stroke:#181818;stroke-width:0.5;" width="4" x="3310" y="169.86"/><rect fill="#F1F1F1" height="2" style="stroke:#181818;stroke-width:0.5;" width="4" x="3310" y="173.86"/><text fill="#000000" font-family="sans-serif" font-size="14" lengthAdjust="spacing" textLength="216" x="3091" y="195.8551">com_acmeair_web_FlightsREST</text></a></g><!--entity com_acmeair_web_LoginREST--><g id="elem_com_acmeair_web_LoginREST"><a href="acmeair-acmeair.repository#_BI1FhsCoEe6pJcAFuRndaw" target="_top" title="acmeair-acmeair.repository#_BI1FhsCoEe6pJcAFuRndaw" xlink:actuate="onRequest" xlink:href="acmeair-acmeair.repository#_BI1FhsCoEe6pJcAFuRndaw" xlink:show="new" xlink:title="acmeair-acmeair.repository#_BI1FhsCoEe6pJcAFuRndaw" xlink:type="simple"><rect fill="#F1F1F1" height="46.2969" rx="2.5" ry="2.5" style="stroke:#181818;stroke-width:0.5;" width="248" x="1669" y="162.86"/><rect fill="#F1F1F1" height="10" style="stroke:#181818;stroke-width:0.5;" width="15" x="1897" y="167.86"/><rect fill="#F1F1F1" height="2" style="stroke:#181818;stroke-width:0.5;" width="4" x="1895" y="169.86"/><rect fill="#F1F1F1" height="2" style="stroke:#181818;stroke-width:0.5;" width="4" x="1895" y="173.86"/><text fill="#000000" font-family="sans-serif" font-size="14" lengthAdjust="spacing" textLength="208" x="1684" y="195.8551">com_acmeair_web_LoginREST</text></a></g><!--entity com_acmeair_web_RESTCookieSessionFilter--><g id="elem_com_acmeair_web_RESTCookieSessionFilter"><a href="acmeair-acmeair.repository#_BI1FhsCoEe6pJcAFuRndaw" target="_top" title="acmeair-acmeair.repository#_BI1FhsCoEe6pJcAFuRndaw" xlink:actuate="onRequest" xlink:href="acmeair-acmeair.repository#_BI1FhsCoEe6pJcAFuRndaw" xlink:show="new" xlink:title="acmeair-acmeair.repository#_BI1FhsCoEe6pJcAFuRndaw" xlink:type="simple"><rect fill="#F1F1F1" height="46.2969" rx="2.5" ry="2.5" style="stroke:#181818;stroke-width:0.5;" width="347" x="459.5" y="162.86"/><rect fill="#F1F1F1" height="10" style="stroke:#181818;stroke-width:0.5;" width="15" x="786.5" y="167.86"/><rect fill="#F1F1F1" height="2" style="stroke:#181818;stroke-width:0.5;" width="4" x="784.5" y="169.86"/><rect fill="#F1F1F1" height="2" style="stroke:#181818;stroke-width:0.5;" width="4" x="784.5" y="173.86"/><text fill="#000000" font-family="sans-serif" font-size="14" lengthAdjust="spacing" textLength="307" x="474.5" y="195.8551">com_acmeair_web_RESTCookieSessionFilter</text></a></g><!--entity com_acmeair_wxs_service_BookingServiceImpl--><g id="elem_com_acmeair_wxs_service_BookingServiceImpl"><a href="acmeair-acmeair.repository#_BI1FhsCoEe6pJcAFuRndaw" target="_top" title="acmeair-acmeair.repository#_BI1FhsCoEe6pJcAFuRndaw" xlink:actuate="onRequest" xlink:href="acmeair-acmeair.repository#_BI1FhsCoEe6pJcAFuRndaw" xlink:show="new" xlink:title="acmeair-acmeair.repository#_BI1FhsCoEe6pJcAFuRndaw" xlink:type="simple"><rect fill="#F1F1F1" height="46.2969" rx="2.5" ry="2.5" style="stroke:#181818;stroke-width:0.5;" width="362" x="5522" y="299.86"/><rect fill="#F1F1F1" height="10" style="stroke:#181818;stroke-width:0.5;" width="15" x="5864" y="304.86"/><rect fill="#F1F1F1" height="2" style="stroke:#181818;stroke-width:0.5;" width="4" x="5862" y="306.86"/><rect fill="#F1F1F1" height="2" style="stroke:#181818;stroke-width:0.5;" width="4" x="5862" y="310.86"/><text fill="#000000" font-family="sans-serif" font-size="14" lengthAdjust="spacing" textLength="322" x="5537" y="332.8551">com_acmeair_wxs_service_BookingServiceImpl</text></a></g><!--entity com_acmeair_wxs_utils_WXSSessionManager--><g id="elem_com_acmeair_wxs_utils_WXSSessionManager"><a href="acmeair-acmeair.repository#_BI1FhsCoEe6pJcAFuRndaw" target="_top" title="acmeair-acmeair.repository#_BI1FhsCoEe6pJcAFuRndaw" xlink:actuate="onRequest" xlink:href="acmeair-acmeair.repository#_BI1FhsCoEe6pJcAFuRndaw" xlink:show="new" xlink:title="acmeair-acmeair.repository#_BI1FhsCoEe6pJcAFuRndaw" xlink:type="simple"><rect fill="#F1F1F1" height="46.2969" rx="2.5" ry="2.5" style="stroke:#181818;stroke-width:0.5;" width="352" x="575" y="299.86"/><rect fill="#F1F1F1" height="10" style="stroke:#181818;stroke-width:0.5;" width="15" x="907" y="304.86"/><rect fill="#F1F1F1" height="2" style="stroke:#181818;stroke-width:0.5;" width="4" x="905" y="306.86"/><rect fill="#F1F1F1" height="2" style="stroke:#181818;stroke-width:0.5;" width="4" x="905" y="310.86"/><text fill="#000000" font-family="sans-serif" font-size="14" lengthAdjust="spacing" textLength="312" x="590" y="332.8551">com_acmeair_wxs_utils_WXSSessionManager</text></a></g><text fill="#000000" font-family="sans-serif" font-size="14" lengthAdjust="spacing" textLength="96" x="584.5" y="51.5582">Filter_Provider</text><rect fill="#F1F1F1" height="12" style="stroke:#181818;stroke-width:1.5;" width="12" x="626.5" y="66.86"/><text fill="#000000" font-family="sans-serif" font-size="14" lengthAdjust="spacing" textLength="239" x="5169" y="51.5582">SERVICE_HOST_bookings_Provider</text><rect fill="#F1F1F1" height="12" style="stroke:#181818;stroke-width:1.5;" width="12" x="5282.5" y="66.86"/><text fill="#000000" font-family="sans-serif" font-size="14" lengthAdjust="spacing" textLength="217" x="4903" y="51.5582">SERVICE_HOST_config_Provider</text><rect fill="#F1F1F1" height="12" style="stroke:#181818;stroke-width:1.5;" width="12" x="5005.5" y="66.86"/><text fill="#000000" font-family="sans-serif" font-size="14" lengthAdjust="spacing" textLength="276" x="4361" y="51.5582">SERVICE_HOST_customer_byid_Provider</text><rect fill="#F1F1F1" height="12" style="stroke:#181818;stroke-width:1.5;" width="12" x="4493" y="66.86"/><text fill="#000000" font-family="sans-serif" font-size="14" lengthAdjust="spacing" textLength="216" x="4675.5" y="51.5582">SERVICE_HOST_flights_Provider</text><rect fill="#F1F1F1" height="12" style="stroke:#181818;stroke-width:1.5;" width="12" x="4777.5" y="66.86"/><text fill="#000000" font-family="sans-serif" font-size="14" lengthAdjust="spacing" textLength="218" x="5416.5" y="51.5582">SERVICE_HOST_loader_Provider</text><rect fill="#F1F1F1" height="12" style="stroke:#181818;stroke-width:1.5;" width="12" x="5519.5" y="66.86"/><text fill="#000000" font-family="sans-serif" font-size="14" lengthAdjust="spacing" textLength="208" x="4133.5" y="51.5582">SERVICE_HOST_login_Provider</text><rect fill="#F1F1F1" height="12" style="stroke:#181818;stroke-width:1.5;" width="12" x="4231.5" y="66.86"/><text fill="#000000" font-family="sans-serif" font-size="14" lengthAdjust="spacing" textLength="350" x="6004" y="51.5582">com_acmeair_morphia_MorphiaConstants_Provider</text><rect fill="#F1F1F1" height="12" style="stroke:#181818;stroke-width:1.5;" width="12" x="6173" y="66.86"/><text fill="#000000" font-family="sans-serif" font-size="14" lengthAdjust="spacing" textLength="296" x="5655.5" y="51.5582">com_acmeair_wxs_WXSConstants_Provider</text><rect fill="#F1F1F1" height="12" style="stroke:#181818;stroke-width:1.5;" width="12" x="5797.5" y="66.86"/><!--entity Filter_Delegation_Provider--><g id="elem_Filter_Delegation_Provider"><ellipse cx="95" cy="72.86" fill="#F1F1F1" rx="8" ry="8" style="stroke:#181818;stroke-width:0.5;"/><text fill="#000000" font-family="sans-serif" font-size="14" lengthAdjust="spacing" textLength="178" x="6" y="102.8551">Filter_Delegation_Provider</text></g><!--entity SERVICE_HOST_bookings_Delegation_Provider--><g id="elem_SERVICE_HOST_bookings_Delegation_Provider"><ellipse cx="7956" cy="72.86" fill="#F1F1F1" rx="8" ry="8" style="stroke:#181818;stroke-width:0.5;"/><text fill="#000000" font-family="sans-serif" font-size="14" lengthAdjust="spacing" textLength="321" x="7795.5" y="102.8551">SERVICE_HOST_bookings_Delegation_Provider</text></g><!--entity SERVICE_HOST_config_Delegation_Provider--><g id="elem_SERVICE_HOST_config_Delegation_Provider"><ellipse cx="7596" cy="72.86" fill="#F1F1F1" rx="8" ry="8" style="stroke:#181818;stroke-width:0.5;"/><text fill="#000000" font-family="sans-serif" font-size="14" lengthAdjust="spacing" textLength="299" x="7446.5" y="102.8551">SERVICE_HOST_config_Delegation_Provider</text></g><!--entity SERVICE_HOST_customer_byid_Delegation_Provider--><g id="elem_SERVICE_HOST_customer_byid_Delegation_Provider"><ellipse cx="6868" cy="72.86" fill="#F1F1F1" rx="8" ry="8" style="stroke:#181818;stroke-width:0.5;"/><text fill="#000000" font-family="sans-serif" font-size="14" lengthAdjust="spacing" textLength="358" x="6689" y="102.8551">SERVICE_HOST_customer_byid_Delegation_Provider</text></g><!--entity SERVICE_HOST_flights_Delegation_Provider--><g id="elem_SERVICE_HOST_flights_Delegation_Provider"><ellipse cx="7247" cy="72.86" fill="#F1F1F1" rx="8" ry="8" style="stroke:#181818;stroke-width:0.5;"/><text fill="#000000" font-family="sans-serif" font-size="14" lengthAdjust="spacing" textLength="298" x="7098" y="102.8551">SERVICE_HOST_flights_Delegation_Provider</text></g><!--entity SERVICE_HOST_loader_Delegation_Provider--><g id="elem_SERVICE_HOST_loader_Delegation_Provider"><ellipse cx="8317" cy="72.86" fill="#F1F1F1" rx="8" ry="8" style="stroke:#181818;stroke-width:0.5;"/><text fill="#000000" font-family="sans-serif" font-size="14" lengthAdjust="spacing" textLength="300" x="8167" y="102.8551">SERVICE_HOST_loader_Delegation_Provider</text></g><!--entity SERVICE_HOST_login_Delegation_Provider--><g id="elem_SERVICE_HOST_login_Delegation_Provider"><ellipse cx="6493" cy="72.86" fill="#F1F1F1" rx="8" ry="8" style="stroke:#181818;stroke-width:0.5;"/><text fill="#000000" font-family="sans-serif" font-size="14" lengthAdjust="spacing" textLength="290" x="6348" y="102.8551">SERVICE_HOST_login_Delegation_Provider</text></g><!--entity com_acmeair_morphia_MorphiaConstants_Delegation_Provider--><g id="elem_com_acmeair_morphia_MorphiaConstants_Delegation_Provider"><ellipse cx="9163" cy="72.86" fill="#F1F1F1" rx="8" ry="8" style="stroke:#181818;stroke-width:0.5;"/><text fill="#000000" font-family="sans-serif" font-size="14" lengthAdjust="spacing" textLength="432" x="8947" y="102.8551">com_acmeair_morphia_MorphiaConstants_Delegation_Provider</text></g><!--entity com_acmeair_wxs_WXSConstants_Delegation_Provider--><g id="elem_com_acmeair_wxs_WXSConstants_Delegation_Provider"><ellipse cx="8707" cy="72.86" fill="#F1F1F1" rx="8" ry="8" style="stroke:#181818;stroke-width:0.5;"/><text fill="#000000" font-family="sans-serif" font-size="14" lengthAdjust="spacing" textLength="378" x="8518" y="102.8551">com_acmeair_wxs_WXSConstants_Delegation_Provider</text></g><!--link Filter_Delegation_Provider to Filter_Provider--><g id="link_Filter_Delegation_Provider_Filter_Provider"><path d="M104.42,72.86 C168.08,72.86 572.71,72.86 626.17,72.86 " fill="none" id="Filter_Delegation_Provider-Filter_Provider" style="stroke:#181818;stroke-width:1.0;"/></g><!--link Filter_Provider to com_acmeair_web_RESTCookieSessionFilter--><g id="link_Filter_Provider_com_acmeair_web_RESTCookieSessionFilter"><path d="M633,78.92 C633,93.51 633,136.32 633,162.84 " fill="none" id="Filter_Provider-com_acmeair_web_RESTCookieSessionFilter" style="stroke:#181818;stroke-width:1.0;"/></g><!--link SERVICE_HOST_bookings_Delegation_Provider to SERVICE_HOST_bookings_Provider--><g id="link_SERVICE_HOST_bookings_Delegation_Provider_SERVICE_HOST_bookings_Provider"><path d="M7946.83,70.13 C7918.44,61.83 7829.33,37 7753.5,28.86 C7623.97,14.95 5536.76,6 5408.5,28.86 C5362.79,37.01 5311.66,61.4 5294.76,69.9 " fill="none" id="SERVICE_HOST_bookings_Delegation_Provider-SERVICE_HOST_bookings_Provider" style="stroke:#181818;stroke-width:1.0;"/></g><!--link SERVICE_HOST_bookings_Provider to com_acmeair_web_BookingsREST--><g id="link_SERVICE_HOST_bookings_Provider_com_acmeair_web_BookingsREST"><path d="M5289,78.92 C5289,93.51 5289,136.32 5289,162.84 " fill="none" id="SERVICE_HOST_bookings_Provider-com_acmeair_web_BookingsREST" style="stroke:#181818;stroke-width:1.0;"/></g><!--link SERVICE_HOST_config_Delegation_Provider to SERVICE_HOST_config_Provider--><g id="link_SERVICE_HOST_config_Delegation_Provider_SERVICE_HOST_config_Provider"><path d="M7586.96,70.01 C7559.74,61.6 7476.02,36.97 7404.5,28.86 C7280.46,14.79 5280.99,10.6 5157.5,28.86 C5101.37,37.16 5036.89,62.55 5017.68,70.47 " fill="none" id="SERVICE_HOST_config_Delegation_Provider-SERVICE_HOST_config_Provider" style="stroke:#181818;stroke-width:1.0;"/></g><!--link SERVICE_HOST_config_Provider to com_acmeair_config_AcmeAirConfiguration--><g id="link_SERVICE_HOST_config_Provider_com_acmeair_config_AcmeAirConfiguration"><path d="M5005.3,75.5 C4985.69,80.25 4926.67,94.16 4877,101.86 C4659.41,135.61 4406.37,159.25 4243.86,172.44 " fill="none" id="SERVICE_HOST_config_Provider-com_acmeair_config_AcmeAirConfiguration" style="stroke:#181818;stroke-width:1.0;"/></g><!--link SERVICE_HOST_customer_byid_Delegation_Provider to SERVICE_HOST_customer_byid_Provider--><g id="link_SERVICE_HOST_customer_byid_Delegation_Provider_SERVICE_HOST_customer_byid_Provider"><path d="M6858.81,70.36 C6828.68,62.3 6730,37.07 6646.5,28.86 C6537.08,18.1 4776.55,14.86 4667.5,28.86 C4602.43,37.22 4526.6,63.02 4505.01,70.69 " fill="none" id="SERVICE_HOST_customer_byid_Delegation_Provider-SERVICE_HOST_customer_byid_Provider" style="stroke:#181818;stroke-width:1.0;"/></g><!--link SERVICE_HOST_customer_byid_Provider to com_acmeair_web_CustomerREST--><g id="link_SERVICE_HOST_customer_byid_Provider_com_acmeair_web_CustomerREST"><path d="M4492.83,75.18 C4470.67,79.86 4392.99,95.7 4328,101.86 C3450.73,185.03 3223.44,73.48 2346,154.86 C2324.94,156.81 2302.66,159.67 2281.08,162.84 " fill="none" id="SERVICE_HOST_customer_byid_Provider-com_acmeair_web_CustomerREST" style="stroke:#181818;stroke-width:1.0;"/></g><!--link SERVICE_HOST_flights_Delegation_Provider to SERVICE_HOST_flights_Provider--><g id="link_SERVICE_HOST_flights_Delegation_Provider_SERVICE_HOST_flights_Provider"><path d="M7237.96,70.01 C7210.74,61.6 7127.02,36.97 7055.5,28.86 C6936.21,15.33 5012.41,6.25 4894.5,28.86 C4852.32,36.95 4805.73,60.94 4789.75,69.65 " fill="none" id="SERVICE_HOST_flights_Delegation_Provider-SERVICE_HOST_flights_Provider" style="stroke:#181818;stroke-width:1.0;"/></g><!--link SERVICE_HOST_flights_Provider to com_acmeair_web_FlightsREST--><g id="link_SERVICE_HOST_flights_Provider_com_acmeair_web_FlightsREST"><path d="M4777.27,75.24 C4754.56,79.83 4678.54,94.75 4615,101.86 C4368.47,129.46 3631.21,165.24 3332.15,179.06 " fill="none" id="SERVICE_HOST_flights_Provider-com_acmeair_web_FlightsREST" style="stroke:#181818;stroke-width:1.0;"/></g><!--link SERVICE_HOST_loader_Delegation_Provider to SERVICE_HOST_loader_Provider--><g id="link_SERVICE_HOST_loader_Delegation_Provider_SERVICE_HOST_loader_Provider"><path d="M8307.91,70.01 C8280.54,61.6 8196.38,36.97 8124.5,28.86 C8055.85,21.11 5705.37,15.95 5637.5,28.86 C5594.98,36.95 5547.95,60.94 5531.8,69.65 " fill="none" id="SERVICE_HOST_loader_Delegation_Provider-SERVICE_HOST_loader_Provider" style="stroke:#181818;stroke-width:1.0;"/></g><!--link SERVICE_HOST_loader_Provider to com_acmeair_config_LoaderREST--><g id="link_SERVICE_HOST_loader_Provider_com_acmeair_config_LoaderREST"><path d="M5529.28,78.92 C5538.74,93.51 5566.51,136.32 5583.72,162.84 " fill="none" id="SERVICE_HOST_loader_Provider-com_acmeair_config_LoaderREST" style="stroke:#181818;stroke-width:1.0;"/></g><!--link SERVICE_HOST_login_Delegation_Provider to SERVICE_HOST_login_Provider--><g id="link_SERVICE_HOST_login_Delegation_Provider_SERVICE_HOST_login_Provider"><path d="M6483.7,69.64 C6457.88,60.91 6382.99,36.87 6318.5,28.86 C6209.72,15.36 4453.05,7.7 4345.5,28.86 C4304.34,36.96 4259.1,60.94 4243.58,69.65 " fill="none" id="SERVICE_HOST_login_Delegation_Provider-SERVICE_HOST_login_Provider" style="stroke:#181818;stroke-width:1.0;"/></g><!--link SERVICE_HOST_login_Provider to com_acmeair_web_LoginREST--><g id="link_SERVICE_HOST_login_Provider_com_acmeair_web_LoginREST"><path d="M4231.22,73.82 C4131.38,73.34 2949.3,69.55 2001,154.86 C1973.75,157.31 1944.61,160.9 1917.03,164.75 " fill="none" id="SERVICE_HOST_login_Provider-com_acmeair_web_LoginREST" style="stroke:#181818;stroke-width:1.0;"/></g><!--link com_acmeair_config_LoaderREST to com_acmeair_loader_Loader--><g id="link_com_acmeair_config_LoaderREST_com_acmeair_loader_Loader"><path d="M5733.61,206.35 C5739.83,207.2 5745.98,208.05 5752,208.86 C5856.34,222.97 5895.85,186.15 5987,238.86 C6011.27,252.9 6029.25,280.36 6039.65,299.85 " fill="none" id="com_acmeair_config_LoaderREST-com_acmeair_loader_Loader" style="stroke:#181818;stroke-width:1.0;"/><text fill="#000000" font-family="sans-serif" font-size="13" lengthAdjust="spacing" textLength="244" x="6028" y="258.9269">com_acmeair_loader_Loader_Provider</text><path d="M5867.2017,202.4917 A10,10 0 0 0 5867.553 216.6295" fill="none" style="stroke:#181818;stroke-width:1.5;"/><ellipse cx="5874.4463" cy="209.385" fill="#FFFFFF" rx="6" ry="6" style="stroke:#181818;stroke-width:1.5;"/></g><!--link com_acmeair_morphia_MorphiaConstants_Delegation_Provider to com_acmeair_morphia_MorphiaConstants_Provider--><g id="link_com_acmeair_morphia_MorphiaConstants_Delegation_Provider_com_acmeair_morphia_MorphiaConstants_Provider"><path d="M9153.68,70.69 C9120.23,63.01 9002.94,37.18 8904.5,28.86 C8762.56,16.87 6481.69,9.97 6340.5,28.86 C6278.28,37.18 6206.08,62.79 6185.04,70.58 " fill="none" id="com_acmeair_morphia_MorphiaConstants_Delegation_Provider-com_acmeair_morphia_MorphiaConstants_Provider" style="stroke:#181818;stroke-width:1.0;"/></g><!--link com_acmeair_morphia_MorphiaConstants_Provider to com_acmeair_morphia_services_BookingServiceImpl--><g id="link_com_acmeair_morphia_MorphiaConstants_Provider_com_acmeair_morphia_services_BookingServiceImpl"><path d="M6185.24,78.38 C6216.18,101.32 6349.29,206.18 6288,269.86 C6257.81,301.23 5548.43,296.84 5505,299.86 C5499.12,300.27 5493.15,300.71 5487.13,301.18 " fill="none" id="com_acmeair_morphia_MorphiaConstants_Provider-com_acmeair_morphia_services_BookingServiceImpl" style="stroke:#181818;stroke-width:1.0;"/></g><!--link com_acmeair_config_AcmeAirConfiguration to com_acmeair_service_BookingService--><g id="link_com_acmeair_config_AcmeAirConfiguration_com_acmeair_service_BookingService"><path d="M3940.22,208.93 C3897.85,221.63 3867.98,240.99 3893,269.86 C3920.7,301.83 4017.64,314.6 4104.24,319.51 " fill="none" id="com_acmeair_config_AcmeAirConfiguration-com_acmeair_service_BookingService" style="stroke:#181818;stroke-width:1.0;"/><text fill="#000000" font-family="sans-serif" font-size="13" lengthAdjust="spacing" textLength="303" x="3901" y="258.9269">com_acmeair_service_BookingService_Provider</text><path d="M3971.0059,296.4985 A10,10 0 0 0 3968.1985 310.3591" fill="none" style="stroke:#181818;stroke-width:1.5;"/><ellipse cx="3976.5325" cy="304.8325" fill="#FFFFFF" rx="6" ry="6" style="stroke:#181818;stroke-width:1.5;"/></g><!--link com_acmeair_config_AcmeAirConfiguration to com_acmeair_wxs_service_BookingServiceImpl--><g id="link_com_acmeair_config_AcmeAirConfiguration_com_acmeair_wxs_service_BookingServiceImpl"><path d="M4243.65,190.78 C4475.55,197.16 4872.72,211.86 4934,238.86 C4952.12,246.84 4947.86,261.92 4966,269.86 C5075.9,317.96 5385.45,289.9 5505,299.86 C5510.51,300.32 5516.11,300.81 5521.76,301.32 " fill="none" id="com_acmeair_config_AcmeAirConfiguration-com_acmeair_wxs_service_BookingServiceImpl" style="stroke:#181818;stroke-width:1.0;"/><text fill="#000000" font-family="sans-serif" font-size="13" lengthAdjust="spacing" textLength="303" x="4974" y="258.9269">com_acmeair_service_BookingService_Provider</text><path d="M4930.3802,229.5381 A10,10 0 0 0 4924.6781 242.4798" fill="none" style="stroke:#181818;stroke-width:1.5;"/><ellipse cx="4934" cy="238.86" fill="#FFFFFF" rx="6" ry="6" style="stroke:#181818;stroke-width:1.5;"/></g><!--link com_acmeair_web_BookingsREST to com_acmeair_wxs_service_BookingServiceImpl--><g id="link_com_acmeair_web_BookingsREST_com_acmeair_wxs_service_BookingServiceImpl"><path d="M5427.11,206.58 C5513.83,219.29 5610.98,234.27 5620,238.86 C5647.97,253.09 5672.33,280.24 5687.29,299.61 " fill="none" id="com_acmeair_web_BookingsREST-com_acmeair_wxs_service_BookingServiceImpl" style="stroke:#181818;stroke-width:1.0;"/><text fill="#000000" font-family="sans-serif" font-size="13" lengthAdjust="spacing" textLength="303" x="5668" y="258.9269">com_acmeair_service_BookingService_Provider</text><path d="M5546.8507,217.6488 A10,10 0 0 0 5544.5763 231.6068" fill="none" style="stroke:#181818;stroke-width:1.5;"/><ellipse cx="5552.6925" cy="225.765" fill="#FFFFFF" rx="6" ry="6" style="stroke:#181818;stroke-width:1.5;"/></g><!--link com_acmeair_web_BookingsREST to com_acmeair_morphia_services_BookingServiceImpl--><g id="link_com_acmeair_web_BookingsREST_com_acmeair_morphia_services_BookingServiceImpl"><path d="M5291.34,209.06 C5292.8,225.78 5294.18,249.26 5293,269.86 C5292.44,279.66 5291.28,290.44 5290.13,299.64 " fill="none" id="com_acmeair_web_BookingsREST-com_acmeair_morphia_services_BookingServiceImpl" style="stroke:#181818;stroke-width:1.0;"/><text fill="#000000" font-family="sans-serif" font-size="13" lengthAdjust="spacing" textLength="303" x="5301" y="258.9269">com_acmeair_service_BookingService_Provider</text><path d="M5300.4639,263.2049 A10,10 0 0 0 5286.3449 262.3961" fill="none" style="stroke:#181818;stroke-width:1.5;"/><ellipse cx="5293" cy="269.86" fill="#FFFFFF" rx="6" ry="6" style="stroke:#181818;stroke-width:1.5;"/></g><!--link com_acmeair_config_AcmeAirConfiguration to com_acmeair_morphia_services_BookingServiceImpl--><g id="link_com_acmeair_config_AcmeAirConfiguration_com_acmeair_morphia_services_BookingServiceImpl"><path d="M4152.81,208.93 C4174.13,216.74 4196.7,226.69 4216,238.86 C4232.75,249.42 4229.84,261.97 4248,269.86 C4322.6,302.26 4806.6,314.81 5086.95,319.4 " fill="none" id="com_acmeair_config_AcmeAirConfiguration-com_acmeair_morphia_services_BookingServiceImpl" style="stroke:#181818;stroke-width:1.0;"/><text fill="#000000" font-family="sans-serif" font-size="13" lengthAdjust="spacing" textLength="303" x="4256" y="258.9269">com_acmeair_service_BookingService_Provider</text><path d="M4583.587,297.664 A10,10 0 0 0 4582.924 311.7905" fill="none" style="stroke:#181818;stroke-width:1.5;"/><ellipse cx="4590.3188" cy="305.0588" fill="#FFFFFF" rx="6" ry="6" style="stroke:#181818;stroke-width:1.5;"/></g><!--link com_acmeair_web_BookingsREST to com_acmeair_service_BookingService--><g id="link_com_acmeair_web_BookingsREST_com_acmeair_service_BookingService"><path d="M5150.78,187.36 C4981.38,189.72 4705.24,199.71 4611,238.86 C4591.5,246.96 4594.14,260.94 4575,269.86 C4522.71,294.22 4460.99,307.41 4405.78,314.47 " fill="none" id="com_acmeair_web_BookingsREST-com_acmeair_service_BookingService" style="stroke:#181818;stroke-width:1.0;"/><text fill="#000000" font-family="sans-serif" font-size="13" lengthAdjust="spacing" textLength="303" x="4619" y="258.9269">com_acmeair_service_BookingService_Provider</text><path d="M4860.2875,205.8334 A10,10 0 0 0 4859.2247 191.7313" fill="none" style="stroke:#181818;stroke-width:1.5;"/><ellipse cx="4852.705" cy="199.3138" fill="#FFFFFF" rx="6" ry="6" style="stroke:#181818;stroke-width:1.5;"/></g><!--link com_acmeair_web_RESTCookieSessionFilter to com_acmeair_service_CustomerService--><g id="link_com_acmeair_web_RESTCookieSessionFilter_com_acmeair_service_CustomerService"><path d="M806.93,205.25 C861.6,213.15 921.82,224.06 976,238.86 C1011.59,248.58 1017.07,261.51 1053,269.86 C1153.43,293.19 1425.94,308.31 1600.96,315.94 " fill="none" id="com_acmeair_web_RESTCookieSessionFilter-com_acmeair_service_CustomerService" style="stroke:#181818;stroke-width:1.0;"/><text fill="#000000" font-family="sans-serif" font-size="13" lengthAdjust="spacing" textLength="315" x="1061" y="258.9269">com_acmeair_service_CustomerService_Provider</text><path d="M1292.4833,291.21 A10,10 0 0 0 1291.4313 305.313" fill="none" style="stroke:#181818;stroke-width:1.5;"/><ellipse cx="1299.0088" cy="298.7875" fill="#FFFFFF" rx="6" ry="6" style="stroke:#181818;stroke-width:1.5;"/></g><!--link com_acmeair_loader_CustomerLoader to com_acmeair_service_CustomerService--><g id="link_com_acmeair_loader_CustomerLoader_com_acmeair_service_CustomerService"><path d="M1386.14,209.02 C1387.53,228.05 1392.73,254.74 1410,269.86 C1438.76,295.04 1522.72,308.03 1600.84,314.73 " fill="none" id="com_acmeair_loader_CustomerLoader-com_acmeair_service_CustomerService" style="stroke:#181818;stroke-width:1.0;"/><text fill="#000000" font-family="sans-serif" font-size="13" lengthAdjust="spacing" textLength="315" x="1418" y="258.9269">com_acmeair_service_CustomerService_Provider</text><path d="M1481.4475,290.8488 A10,10 0 0 0 1478.5338 304.6875" fill="none" style="stroke:#181818;stroke-width:1.5;"/><ellipse cx="1486.91" cy="299.225" fill="#FFFFFF" rx="6" ry="6" style="stroke:#181818;stroke-width:1.5;"/></g><!--link com_acmeair_web_LoginREST to com_acmeair_service_CustomerService--><g id="link_com_acmeair_web_LoginREST_com_acmeair_service_CustomerService"><path d="M1771.39,209.07 C1764.44,217.67 1757.6,228.05 1754,238.86 C1747.39,258.69 1749.23,282.69 1752.07,299.77 " fill="none" id="com_acmeair_web_LoginREST-com_acmeair_service_CustomerService" style="stroke:#181818;stroke-width:1.0;"/><text fill="#000000" font-family="sans-serif" font-size="13" lengthAdjust="spacing" textLength="315" x="1762" y="258.9269">com_acmeair_service_CustomerService_Provider</text><path d="M1762.943,234.3854 A10,10 0 0 0 1749.5254 229.917" fill="none" style="stroke:#181818;stroke-width:1.5;"/><ellipse cx="1754" cy="238.86" fill="#FFFFFF" rx="6" ry="6" style="stroke:#181818;stroke-width:1.5;"/></g><!--link com_acmeair_config_AcmeAirConfiguration to com_acmeair_service_CustomerService--><g id="link_com_acmeair_config_AcmeAirConfiguration_com_acmeair_service_CustomerService"><path d="M3908.22,190.26 C3666.24,196.11 3241.03,210.32 3176,238.86 C3157.87,246.82 3162.21,262.09 3144,269.86 C3088.28,293.65 2264.01,312.15 1913.19,319 " fill="none" id="com_acmeair_config_AcmeAirConfiguration-com_acmeair_service_CustomerService" style="stroke:#181818;stroke-width:1.0;"/><text fill="#000000" font-family="sans-serif" font-size="13" lengthAdjust="spacing" textLength="315" x="3184" y="258.9269">com_acmeair_service_CustomerService_Provider</text><path d="M3153.2788,273.5887 A10,10 0 0 0 3147.7287 260.5812" fill="none" style="stroke:#181818;stroke-width:1.5;"/><ellipse cx="3144" cy="269.86" fill="#FFFFFF" rx="6" ry="6" style="stroke:#181818;stroke-width:1.5;"/></g><!--link com_acmeair_web_CustomerREST to com_acmeair_service_CustomerService--><g id="link_com_acmeair_web_CustomerREST_com_acmeair_service_CustomerService"><path d="M2145.82,209.1 C2133.97,228.47 2114.1,255.61 2089,269.86 C2058.62,287.1 1984.02,299.59 1913.21,308 " fill="none" id="com_acmeair_web_CustomerREST-com_acmeair_service_CustomerService" style="stroke:#181818;stroke-width:1.0;"/><text fill="#000000" font-family="sans-serif" font-size="13" lengthAdjust="spacing" textLength="315" x="2132" y="258.9269">com_acmeair_service_CustomerService_Provider</text><path d="M2024.5985,297.7706 A10,10 0 0 0 2021.7956 283.909" fill="none" style="stroke:#181818;stroke-width:1.5;"/><ellipse cx="2016.2663" cy="292.2413" fill="#FFFFFF" rx="6" ry="6" style="stroke:#181818;stroke-width:1.5;"/></g><!--link com_acmeair_web_FlightsREST to com_acmeair_service_FlightService--><g id="link_com_acmeair_web_FlightsREST_com_acmeair_service_FlightService"><path d="M3075.88,187.83 C2983.04,191.58 2868.66,203.54 2838,238.86 C2823.73,255.3 2827.34,281.23 2832.7,299.72 " fill="none" id="com_acmeair_web_FlightsREST-com_acmeair_service_FlightService" style="stroke:#181818;stroke-width:1.0;"/><text fill="#000000" font-family="sans-serif" font-size="13" lengthAdjust="spacing" textLength="286" x="2846" y="258.9269">com_acmeair_service_FlightService_Provider</text><path d="M2941.8278,207.2222 A10,10 0 0 0 2939.3385 193.3009" fill="none" style="stroke:#181818;stroke-width:1.5;"/><ellipse cx="2933.6225" cy="201.5063" fill="#FFFFFF" rx="6" ry="6" style="stroke:#181818;stroke-width:1.5;"/></g><!--link com_acmeair_loader_FlightLoader to com_acmeair_service_FlightService--><g id="link_com_acmeair_loader_FlightLoader_com_acmeair_service_FlightService"><path d="M2490.73,208.97 C2485.39,227.45 2481.8,253.36 2496,269.86 C2522.62,300.79 2616.8,313.57 2700.05,318.73 " fill="none" id="com_acmeair_loader_FlightLoader-com_acmeair_service_FlightService" style="stroke:#181818;stroke-width:1.0;"/><text fill="#000000" font-family="sans-serif" font-size="13" lengthAdjust="spacing" textLength="286" x="2504" y="258.9269">com_acmeair_service_FlightService_Provider</text><path d="M2571.2956,295.6026 A10,10 0 0 0 2568.4326 309.4519" fill="none" style="stroke:#181818;stroke-width:1.5;"/><ellipse cx="2576.7888" cy="303.9588" fill="#FFFFFF" rx="6" ry="6" style="stroke:#181818;stroke-width:1.5;"/></g><!--link com_acmeair_config_AcmeAirConfiguration to com_acmeair_service_FlightService--><g id="link_com_acmeair_config_AcmeAirConfiguration_com_acmeair_service_FlightService"><path d="M3908.32,197.23 C3786.89,206.05 3633.81,220.25 3573,238.86 C3545.05,247.41 3543.06,261.67 3515,269.86 C3418.46,298.03 3149.13,311.79 2981.61,317.8 " fill="none" id="com_acmeair_config_AcmeAirConfiguration-com_acmeair_service_FlightService" style="stroke:#181818;stroke-width:1.0;"/><text fill="#000000" font-family="sans-serif" font-size="13" lengthAdjust="spacing" textLength="286" x="3581" y="258.9269">com_acmeair_service_FlightService_Provider</text><path d="M3523.769,274.6666 A10,10 0 0 0 3519.8066 261.091" fill="none" style="stroke:#181818;stroke-width:1.5;"/><ellipse cx="3515" cy="269.86" fill="#FFFFFF" rx="6" ry="6" style="stroke:#181818;stroke-width:1.5;"/></g><!--link com_acmeair_service_CustomerService to com_acmeair_service_KeyGenerator--><g id="link_com_acmeair_service_CustomerService_com_acmeair_service_KeyGenerator"><path d="M1757,346.15 C1757,371.17 1757,411.51 1757,436.53 " fill="none" id="com_acmeair_service_CustomerService-com_acmeair_service_KeyGenerator" style="stroke:#181818;stroke-width:1.0;"/><text fill="#000000" font-family="sans-serif" font-size="13" lengthAdjust="spacing" textLength="293" x="1765" y="395.9269">com_acmeair_service_KeyGenerator_Provider</text><path d="M1764.0711,384.2689 A10,10 0 0 0 1749.9289 384.2689" fill="none" style="stroke:#181818;stroke-width:1.5;"/><ellipse cx="1757" cy="391.34" fill="#FFFFFF" rx="6" ry="6" style="stroke:#181818;stroke-width:1.5;"/></g><!--link com_acmeair_web_RESTCookieSessionFilter to com_acmeair_service_TransactionService--><g id="link_com_acmeair_web_RESTCookieSessionFilter_com_acmeair_service_TransactionService"><path d="M459.14,190.7 C379.09,196.52 296.26,209.71 271,238.86 C250.21,262.85 281.11,284.61 314.95,299.84 " fill="none" id="com_acmeair_web_RESTCookieSessionFilter-com_acmeair_service_TransactionService" style="stroke:#181818;stroke-width:1.0;"/><text fill="#000000" font-family="sans-serif" font-size="13" lengthAdjust="spacing" textLength="326" x="279" y="258.9269">com_acmeair_service_TransactionService_Provider</text><path d="M352.9817,211.3663 A10,10 0 0 0 349.8588 197.5733" fill="none" style="stroke:#181818;stroke-width:1.5;"/><ellipse cx="344.5237" cy="206.0313" fill="#FFFFFF" rx="6" ry="6" style="stroke:#181818;stroke-width:1.5;"/></g><!--link com_acmeair_web_RESTCookieSessionFilter to com_acmeair_wxs_utils_WXSSessionManager--><g id="link_com_acmeair_web_RESTCookieSessionFilter_com_acmeair_wxs_utils_WXSSessionManager"><path d="M625.58,209.2 C621.1,227.08 618.26,252.04 630,269.86 C638.49,282.75 650.91,292.46 664.61,299.76 " fill="none" id="com_acmeair_web_RESTCookieSessionFilter-com_acmeair_wxs_utils_WXSSessionManager" style="stroke:#181818;stroke-width:1.0;"/><text fill="#000000" font-family="sans-serif" font-size="13" lengthAdjust="spacing" textLength="326" x="638" y="258.9269">com_acmeair_service_TransactionService_Provider</text><path d="M632.0147,260.065 A10,10 0 0 0 620.205 267.8453" fill="none" style="stroke:#181818;stroke-width:1.5;"/><ellipse cx="630" cy="269.86" fill="#FFFFFF" rx="6" ry="6" style="stroke:#181818;stroke-width:1.5;"/></g><!--link com_acmeair_wxs_WXSConstants_Delegation_Provider to com_acmeair_wxs_WXSConstants_Provider--><g id="link_com_acmeair_wxs_WXSConstants_Delegation_Provider_com_acmeair_wxs_WXSConstants_Provider"><path d="M8697.83,70.47 C8666.84,62.54 8563.07,37.11 8475.5,28.86 C8337.44,15.86 6117.12,11.87 5979.5,28.86 C5911.23,37.29 5831.33,63.5 5809.66,70.9 " fill="none" id="com_acmeair_wxs_WXSConstants_Delegation_Provider-com_acmeair_wxs_WXSConstants_Provider" style="stroke:#181818;stroke-width:1.0;"/></g><!--link com_acmeair_wxs_WXSConstants_Provider to com_acmeair_wxs_service_BookingServiceImpl--><g id="link_com_acmeair_wxs_WXSConstants_Provider_com_acmeair_wxs_service_BookingServiceImpl"><path d="M5809.55,74.97 C5867.74,86.75 6362.08,189.58 6288,269.86 C6259.8,300.42 5956.4,296.05 5915,299.86 C5904.96,300.78 5894.65,301.76 5884.25,302.77 " fill="none" id="com_acmeair_wxs_WXSConstants_Provider-com_acmeair_wxs_service_BookingServiceImpl" style="stroke:#181818;stroke-width:1.0;"/></g><!--SRC=[pLZBZjem5Dtp5P6wcIwesYwww8v9eQLbD1L1RIM48XDCiEhOaUt0eAh_tZmX3pinuA2keYWtvnpVwyUvvhyH2G43WRL5BpPY7eOpi8RuUGyP1c68Y6y95i41FmLwD0WfWKGuueYX5GNu_U3XjJL1M43cVe8O-a0WIjplZExH1hBagpEU_vZQO_VBixDmrvJ6Q3xN2lOesI9VBpJYWWQnYFKHRRJ-s6BaxuIU44p1HdE0cFg8g2BZ_Bd02o10p0qe2tS8k4_PqwQ42q3KWih_7bwu-_ENq_uFWrxyqO_hv1ovW87rPx0iW-JP7SMl8yJiz2rYASZAMYxpi67-VCDWI3aIb1rVkO_JTvCTj-aOVWY_UgD9D2SRS5Yjf0IpD7dpiRCm0viNmyuhdi4RXPwaKwC7O9EGnVpXaEsH1xdxc2qj9tkV1Y4sGvGJrF3DOXV5x0KyAsSlqD_WyJCaC5urb9b5NZ10EF2IrMXK-G6kYqfoSsioGIrgQ1OrAvvXgRDaapOBcQ3PILwX0pcFgvOTYeO8ulrUlWpDBVE48n88foTBFeOdG81_mo12oaJX3axdajejM4DLS2b2E_CPkznzdF2rpKdCV1LKc_BAEfJ8pGzGEOFQ7DMbwi2ePBQP19dYYWrJC7PPjOR-Yq7RabxPfYH3A7oXdAV5DTPbwm6rIItlVHAbkQcGuwijQrsd3ap7z2XPFAdEn1Ahy1LskQco2wGja-SDlzEY3X_UrW1gvksZfVnurfTcGSlkdtwvjZc8nzi3aIgREhRpWZwZcMsLtQocNHvr7kCj2hfEsnkKDDtNVqUlrLVShnXzoz59IGzJijKogXKq-YIvX5gOGeEYaRuJUys7tudroit8-CYhpT8TYIlzb9gtrZFBMIj1xPEiUgLo1zuh2ssCNrb0DNVrCa5ENOunkxN8BXpa6fgHPfIqTg2NIsbOiCQjgTGHwTojrYpNbS1Amzfk00P_1_y0]--></g></svg>