<?xml version="1.0" encoding="us-ascii" standalone="no"?><svg xmlns="http://www.w3.org/2000/svg" xmlns:xlink="http://www.w3.org/1999/xlink" contentStyleType="text/css" height="504px" preserveAspectRatio="none" style="width:9386px;height:504px;background:#FFFFFF;" version="1.1" viewBox="0 0 9386 504" width="9386px" zoomAndPan="magnify"><defs/><g><!--cluster System--><g id="cluster_System"><rect fill="none" height="426" rx="2.5" ry="2.5" style="stroke:#181818;stroke-width:1.0;" width="6017.5" x="200" y="72.43"/><text fill="#000000" font-family="sans-serif" font-size="14" font-weight="bold" lengthAdjust="spacing" textLength="58" x="3179.75" y="87.4251">System</text></g><!--entity com_acmeair_config_AcmeAirConfiguration--><g id="elem_com_acmeair_config_AcmeAirConfiguration"><a href="acmeair-acmeair.repository#_aBk6YsApEe68sZlkLVQCMQ" target="_top" title="acmeair-acmeair.repository#_aBk6YsApEe68sZlkLVQCMQ" xlink:actuate="onRequest" xlink:href="acmeair-acmeair.repository#_aBk6YsApEe68sZlkLVQCMQ" xlink:show="new" xlink:title="acmeair-acmeair.repository#_aBk6YsApEe68sZlkLVQCMQ" xlink:type="simple"><rect fill="#F1F1F1" height="46.2969" rx="2.5" ry="2.5" style="stroke:#181818;stroke-width:0.5;" width="335" x="2733.5" y="162.43"/><rect fill="#F1F1F1" height="10" style="stroke:#181818;stroke-width:0.5;" width="15" x="3048.5" y="167.43"/><rect fill="#F1F1F1" height="2" style="stroke:#181818;stroke-width:0.5;" width="4" x="3046.5" y="169.43"/><rect fill="#F1F1F1" height="2" style="stroke:#181818;stroke-width:0.5;" width="4" x="3046.5" y="173.43"/><text fill="#000000" font-family="sans-serif" font-size="14" lengthAdjust="spacing" textLength="295" x="2748.5" y="195.4251">com_acmeair_config_AcmeAirConfiguration</text></a></g><!--entity com_acmeair_config_LoaderREST--><g id="elem_com_acmeair_config_LoaderREST"><a href="acmeair-acmeair.repository#_aBk6YsApEe68sZlkLVQCMQ" target="_top" title="acmeair-acmeair.repository#_aBk6YsApEe68sZlkLVQCMQ" xlink:actuate="onRequest" xlink:href="acmeair-acmeair.repository#_aBk6YsApEe68sZlkLVQCMQ" xlink:show="new" xlink:title="acmeair-acmeair.repository#_aBk6YsApEe68sZlkLVQCMQ" xlink:type="simple"><rect fill="#F1F1F1" height="46.2969" rx="2.5" ry="2.5" style="stroke:#181818;stroke-width:0.5;" width="271" x="5682.5" y="162.43"/><rect fill="#F1F1F1" height="10" style="stroke:#181818;stroke-width:0.5;" width="15" x="5933.5" y="167.43"/><rect fill="#F1F1F1" height="2" style="stroke:#181818;stroke-width:0.5;" width="4" x="5931.5" y="169.43"/><rect fill="#F1F1F1" height="2" style="stroke:#181818;stroke-width:0.5;" width="4" x="5931.5" y="173.43"/><text fill="#000000" font-family="sans-serif" font-size="14" lengthAdjust="spacing" textLength="231" x="5697.5" y="195.4251">com_acmeair_config_LoaderREST</text></a></g><!--entity com_acmeair_loader_CustomerLoader--><g id="elem_com_acmeair_loader_CustomerLoader"><a href="acmeair-acmeair.repository#_aBk6YsApEe68sZlkLVQCMQ" target="_top" title="acmeair-acmeair.repository#_aBk6YsApEe68sZlkLVQCMQ" xlink:actuate="onRequest" xlink:href="acmeair-acmeair.repository#_aBk6YsApEe68sZlkLVQCMQ" xlink:show="new" xlink:title="acmeair-acmeair.repository#_aBk6YsApEe68sZlkLVQCMQ" xlink:type="simple"><rect fill="#F1F1F1" height="46.2969" rx="2.5" ry="2.5" style="stroke:#181818;stroke-width:0.5;" width="303" x="4021.5" y="162.43"/><rect fill="#F1F1F1" height="10" style="stroke:#181818;stroke-width:0.5;" width="15" x="4304.5" y="167.43"/><rect fill="#F1F1F1" height="2" style="stroke:#181818;stroke-width:0.5;" width="4" x="4302.5" y="169.43"/><rect fill="#F1F1F1" height="2" style="stroke:#181818;stroke-width:0.5;" width="4" x="4302.5" y="173.43"/><text fill="#000000" font-family="sans-serif" font-size="14" lengthAdjust="spacing" textLength="263" x="4036.5" y="195.4251">com_acmeair_loader_CustomerLoader</text></a></g><!--entity com_acmeair_loader_FlightLoader--><g id="elem_com_acmeair_loader_FlightLoader"><a href="acmeair-acmeair.repository#_aBk6YsApEe68sZlkLVQCMQ" target="_top" title="acmeair-acmeair.repository#_aBk6YsApEe68sZlkLVQCMQ" xlink:actuate="onRequest" xlink:href="acmeair-acmeair.repository#_aBk6YsApEe68sZlkLVQCMQ" xlink:show="new" xlink:title="acmeair-acmeair.repository#_aBk6YsApEe68sZlkLVQCMQ" xlink:type="simple"><rect fill="#F1F1F1" height="46.2969" rx="2.5" ry="2.5" style="stroke:#181818;stroke-width:0.5;" width="272" x="1192" y="162.43"/><rect fill="#F1F1F1" height="10" style="stroke:#181818;stroke-width:0.5;" width="15" x="1444" y="167.43"/><rect fill="#F1F1F1" height="2" style="stroke:#181818;stroke-width:0.5;" width="4" x="1442" y="169.43"/><rect fill="#F1F1F1" height="2" style="stroke:#181818;stroke-width:0.5;" width="4" x="1442" y="173.43"/><text fill="#000000" font-family="sans-serif" font-size="14" lengthAdjust="spacing" textLength="232" x="1207" y="195.4251">com_acmeair_loader_FlightLoader</text></a></g><!--entity com_acmeair_loader_Loader--><g id="elem_com_acmeair_loader_Loader"><a href="acmeair-acmeair.repository#_aBk6YsApEe68sZlkLVQCMQ" target="_top" title="acmeair-acmeair.repository#_aBk6YsApEe68sZlkLVQCMQ" xlink:actuate="onRequest" xlink:href="acmeair-acmeair.repository#_aBk6YsApEe68sZlkLVQCMQ" xlink:show="new" xlink:title="acmeair-acmeair.repository#_aBk6YsApEe68sZlkLVQCMQ" xlink:type="simple"><rect fill="#F1F1F1" height="46.2969" rx="2.5" ry="2.5" style="stroke:#181818;stroke-width:0.5;" width="235" x="5932.5" y="299.43"/><rect fill="#F1F1F1" height="10" style="stroke:#181818;stroke-width:0.5;" width="15" x="6147.5" y="304.43"/><rect fill="#F1F1F1" height="2" style="stroke:#181818;stroke-width:0.5;" width="4" x="6145.5" y="306.43"/><rect fill="#F1F1F1" height="2" style="stroke:#181818;stroke-width:0.5;" width="4" x="6145.5" y="310.43"/><text fill="#000000" font-family="sans-serif" font-size="14" lengthAdjust="spacing" textLength="195" x="5947.5" y="332.4251">com_acmeair_loader_Loader</text></a></g><!--entity com_acmeair_morphia_services_BookingServiceImpl--><g id="elem_com_acmeair_morphia_services_BookingServiceImpl"><a href="acmeair-acmeair.repository#_aBk6YsApEe68sZlkLVQCMQ" target="_top" title="acmeair-acmeair.repository#_aBk6YsApEe68sZlkLVQCMQ" xlink:actuate="onRequest" xlink:href="acmeair-acmeair.repository#_aBk6YsApEe68sZlkLVQCMQ" xlink:show="new" xlink:title="acmeair-acmeair.repository#_aBk6YsApEe68sZlkLVQCMQ" xlink:type="simple"><rect fill="#F1F1F1" height="46.2969" rx="2.5" ry="2.5" style="stroke:#181818;stroke-width:0.5;" width="400" x="2872" y="299.43"/><rect fill="#F1F1F1" height="10" style="stroke:#181818;stroke-width:0.5;" width="15" x="3252" y="304.43"/><rect fill="#F1F1F1" height="2" style="stroke:#181818;stroke-width:0.5;" width="4" x="3250" y="306.43"/><rect fill="#F1F1F1" height="2" style="stroke:#181818;stroke-width:0.5;" width="4" x="3250" y="310.43"/><text fill="#000000" font-family="sans-serif" font-size="14" lengthAdjust="spacing" textLength="360" x="2887" y="332.4251">com_acmeair_morphia_services_BookingServiceImpl</text></a></g><!--entity com_acmeair_service_BookingService--><g id="elem_com_acmeair_service_BookingService"><a href="acmeair-acmeair.repository#_aBk6YsApEe68sZlkLVQCMQ" target="_top" title="acmeair-acmeair.repository#_aBk6YsApEe68sZlkLVQCMQ" xlink:actuate="onRequest" xlink:href="acmeair-acmeair.repository#_aBk6YsApEe68sZlkLVQCMQ" xlink:show="new" xlink:title="acmeair-acmeair.repository#_aBk6YsApEe68sZlkLVQCMQ" xlink:type="simple"><rect fill="#F1F1F1" height="46.2969" rx="2.5" ry="2.5" style="stroke:#181818;stroke-width:0.5;" width="301" x="361.5" y="299.43"/><rect fill="#F1F1F1" height="10" style="stroke:#181818;stroke-width:0.5;" width="15" x="642.5" y="304.43"/><rect fill="#F1F1F1" height="2" style="stroke:#181818;stroke-width:0.5;" width="4" x="640.5" y="306.43"/><rect fill="#F1F1F1" height="2" style="stroke:#181818;stroke-width:0.5;" width="4" x="640.5" y="310.43"/><text fill="#000000" font-family="sans-serif" font-size="14" lengthAdjust="spacing" textLength="261" x="376.5" y="332.4251">com_acmeair_service_BookingService</text></a></g><!--entity com_acmeair_service_CustomerService--><g id="elem_com_acmeair_service_CustomerService"><a href="acmeair-acmeair.repository#_aBk6YsApEe68sZlkLVQCMQ" target="_top" title="acmeair-acmeair.repository#_aBk6YsApEe68sZlkLVQCMQ" xlink:actuate="onRequest" xlink:href="acmeair-acmeair.repository#_aBk6YsApEe68sZlkLVQCMQ" xlink:show="new" xlink:title="acmeair-acmeair.repository#_aBk6YsApEe68sZlkLVQCMQ" xlink:type="simple"><rect fill="#F1F1F1" height="46.2969" rx="2.5" ry="2.5" style="stroke:#181818;stroke-width:0.5;" width="312" x="4017" y="299.43"/><rect fill="#F1F1F1" height="10" style="stroke:#181818;stroke-width:0.5;" width="15" x="4309" y="304.43"/><rect fill="#F1F1F1" height="2" style="stroke:#181818;stroke-width:0.5;" width="4" x="4307" y="306.43"/><rect fill="#F1F1F1" height="2" style="stroke:#181818;stroke-width:0.5;" width="4" x="4307" y="310.43"/><text fill="#000000" font-family="sans-serif" font-size="14" lengthAdjust="spacing" textLength="272" x="4032" y="332.4251">com_acmeair_service_CustomerService</text></a></g><!--entity com_acmeair_service_FlightService--><g id="elem_com_acmeair_service_FlightService"><a href="acmeair-acmeair.repository#_aBk6YsApEe68sZlkLVQCMQ" target="_top" title="acmeair-acmeair.repository#_aBk6YsApEe68sZlkLVQCMQ" xlink:actuate="onRequest" xlink:href="acmeair-acmeair.repository#_aBk6YsApEe68sZlkLVQCMQ" xlink:show="new" xlink:title="acmeair-acmeair.repository#_aBk6YsApEe68sZlkLVQCMQ" xlink:type="simple"><rect fill="#F1F1F1" height="46.2969" rx="2.5" ry="2.5" style="stroke:#181818;stroke-width:0.5;" width="281" x="1529.5" y="299.43"/><rect fill="#F1F1F1" height="10" style="stroke:#181818;stroke-width:0.5;" width="15" x="1790.5" y="304.43"/><rect fill="#F1F1F1" height="2" style="stroke:#181818;stroke-width:0.5;" width="4" x="1788.5" y="306.43"/><rect fill="#F1F1F1" height="2" style="stroke:#181818;stroke-width:0.5;" width="4" x="1788.5" y="310.43"/><text fill="#000000" font-family="sans-serif" font-size="14" lengthAdjust="spacing" textLength="241" x="1544.5" y="332.4251">com_acmeair_service_FlightService</text></a></g><!--entity com_acmeair_service_KeyGenerator--><g id="elem_com_acmeair_service_KeyGenerator"><a href="acmeair-acmeair.repository#_aBk6YsApEe68sZlkLVQCMQ" target="_top" title="acmeair-acmeair.repository#_aBk6YsApEe68sZlkLVQCMQ" xlink:actuate="onRequest" xlink:href="acmeair-acmeair.repository#_aBk6YsApEe68sZlkLVQCMQ" xlink:show="new" xlink:title="acmeair-acmeair.repository#_aBk6YsApEe68sZlkLVQCMQ" xlink:type="simple"><rect fill="#F1F1F1" height="46.2969" rx="2.5" ry="2.5" style="stroke:#181818;stroke-width:0.5;" width="289" x="4028.5" y="436.43"/><rect fill="#F1F1F1" height="10" style="stroke:#181818;stroke-width:0.5;" width="15" x="4297.5" y="441.43"/><rect fill="#F1F1F1" height="2" style="stroke:#181818;stroke-width:0.5;" width="4" x="4295.5" y="443.43"/><rect fill="#F1F1F1" height="2" style="stroke:#181818;stroke-width:0.5;" width="4" x="4295.5" y="447.43"/><text fill="#000000" font-family="sans-serif" font-size="14" lengthAdjust="spacing" textLength="249" x="4043.5" y="469.4251">com_acmeair_service_KeyGenerator</text></a></g><!--entity com_acmeair_service_TransactionService--><g id="elem_com_acmeair_service_TransactionService"><a href="acmeair-acmeair.repository#_aBk6YsApEe68sZlkLVQCMQ" target="_top" title="acmeair-acmeair.repository#_aBk6YsApEe68sZlkLVQCMQ" xlink:actuate="onRequest" xlink:href="acmeair-acmeair.repository#_aBk6YsApEe68sZlkLVQCMQ" xlink:show="new" xlink:title="acmeair-acmeair.repository#_aBk6YsApEe68sZlkLVQCMQ" xlink:type="simple"><rect fill="#F1F1F1" height="46.2969" rx="2.5" ry="2.5" style="stroke:#181818;stroke-width:0.5;" width="325" x="5123.5" y="299.43"/><rect fill="#F1F1F1" height="10" style="stroke:#181818;stroke-width:0.5;" width="15" x="5428.5" y="304.43"/><rect fill="#F1F1F1" height="2" style="stroke:#181818;stroke-width:0.5;" width="4" x="5426.5" y="306.43"/><rect fill="#F1F1F1" height="2" style="stroke:#181818;stroke-width:0.5;" width="4" x="5426.5" y="310.43"/><text fill="#000000" font-family="sans-serif" font-size="14" lengthAdjust="spacing" textLength="285" x="5138.5" y="332.4251">com_acmeair_service_TransactionService</text></a></g><!--entity com_acmeair_web_BookingsREST--><g id="elem_com_acmeair_web_BookingsREST"><a href="acmeair-acmeair.repository#_aBk6YsApEe68sZlkLVQCMQ" target="_top" title="acmeair-acmeair.repository#_aBk6YsApEe68sZlkLVQCMQ" xlink:actuate="onRequest" xlink:href="acmeair-acmeair.repository#_aBk6YsApEe68sZlkLVQCMQ" xlink:show="new" xlink:title="acmeair-acmeair.repository#_aBk6YsApEe68sZlkLVQCMQ" xlink:type="simple"><rect fill="#F1F1F1" height="46.2969" rx="2.5" ry="2.5" style="stroke:#181818;stroke-width:0.5;" width="276" x="677" y="162.43"/><rect fill="#F1F1F1" height="10" style="stroke:#181818;stroke-width:0.5;" width="15" x="933" y="167.43"/><rect fill="#F1F1F1" height="2" style="stroke:#181818;stroke-width:0.5;" width="4" x="931" y="169.43"/><rect fill="#F1F1F1" height="2" style="stroke:#181818;stroke-width:0.5;" width="4" x="931" y="173.43"/><text fill="#000000" font-family="sans-serif" font-size="14" lengthAdjust="spacing" textLength="236" x="692" y="195.4251">com_acmeair_web_BookingsREST</text></a></g><!--entity com_acmeair_web_CustomerREST--><g id="elem_com_acmeair_web_CustomerREST"><a href="acmeair-acmeair.repository#_aBk6YsApEe68sZlkLVQCMQ" target="_top" title="acmeair-acmeair.repository#_aBk6YsApEe68sZlkLVQCMQ" xlink:actuate="onRequest" xlink:href="acmeair-acmeair.repository#_aBk6YsApEe68sZlkLVQCMQ" xlink:show="new" xlink:title="acmeair-acmeair.repository#_aBk6YsApEe68sZlkLVQCMQ" xlink:type="simple"><rect fill="#F1F1F1" height="46.2969" rx="2.5" ry="2.5" style="stroke:#181818;stroke-width:0.5;" width="279" x="3685.5" y="162.43"/><rect fill="#F1F1F1" height="10" style="stroke:#181818;stroke-width:0.5;" width="15" x="3944.5" y="167.43"/><rect fill="#F1F1F1" height="2" style="stroke:#181818;stroke-width:0.5;" width="4" x="3942.5" y="169.43"/><rect fill="#F1F1F1" height="2" style="stroke:#181818;stroke-width:0.5;" width="4" x="3942.5" y="173.43"/><text fill="#000000" font-family="sans-serif" font-size="14" lengthAdjust="spacing" textLength="239" x="3700.5" y="195.4251">com_acmeair_web_CustomerREST</text></a></g><!--entity com_acmeair_web_FlightsREST--><g id="elem_com_acmeair_web_FlightsREST"><a href="acmeair-acmeair.repository#_aBk6YsApEe68sZlkLVQCMQ" target="_top" title="acmeair-acmeair.repository#_aBk6YsApEe68sZlkLVQCMQ" xlink:actuate="onRequest" xlink:href="acmeair-acmeair.repository#_aBk6YsApEe68sZlkLVQCMQ" xlink:show="new" xlink:title="acmeair-acmeair.repository#_aBk6YsApEe68sZlkLVQCMQ" xlink:type="simple"><rect fill="#F1F1F1" height="46.2969" rx="2.5" ry="2.5" style="stroke:#181818;stroke-width:0.5;" width="256" x="1907" y="162.43"/><rect fill="#F1F1F1" height="10" style="stroke:#181818;stroke-width:0.5;" width="15" x="2143" y="167.43"/><rect fill="#F1F1F1" height="2" style="stroke:#181818;stroke-width:0.5;" width="4" x="2141" y="169.43"/><rect fill="#F1F1F1" height="2" style="stroke:#181818;stroke-width:0.5;" width="4" x="2141" y="173.43"/><text fill="#000000" font-family="sans-serif" font-size="14" lengthAdjust="spacing" textLength="216" x="1922" y="195.4251">com_acmeair_web_FlightsREST</text></a></g><!--entity com_acmeair_web_LoginREST--><g id="elem_com_acmeair_web_LoginREST"><a href="acmeair-acmeair.repository#_aBk6YsApEe68sZlkLVQCMQ" target="_top" title="acmeair-acmeair.repository#_aBk6YsApEe68sZlkLVQCMQ" xlink:actuate="onRequest" xlink:href="acmeair-acmeair.repository#_aBk6YsApEe68sZlkLVQCMQ" xlink:show="new" xlink:title="acmeair-acmeair.repository#_aBk6YsApEe68sZlkLVQCMQ" xlink:type="simple"><rect fill="#F1F1F1" height="46.2969" rx="2.5" ry="2.5" style="stroke:#181818;stroke-width:0.5;" width="248" x="4653" y="162.43"/><rect fill="#F1F1F1" height="10" style="stroke:#181818;stroke-width:0.5;" width="15" x="4881" y="167.43"/><rect fill="#F1F1F1" height="2" style="stroke:#181818;stroke-width:0.5;" width="4" x="4879" y="169.43"/><rect fill="#F1F1F1" height="2" style="stroke:#181818;stroke-width:0.5;" width="4" x="4879" y="173.43"/><text fill="#000000" font-family="sans-serif" font-size="14" lengthAdjust="spacing" textLength="208" x="4668" y="195.4251">com_acmeair_web_LoginREST</text></a></g><!--entity com_acmeair_web_RESTCookieSessionFilter--><g id="elem_com_acmeair_web_RESTCookieSessionFilter"><a href="acmeair-acmeair.repository#_aBk6YsApEe68sZlkLVQCMQ" target="_top" title="acmeair-acmeair.repository#_aBk6YsApEe68sZlkLVQCMQ" xlink:actuate="onRequest" xlink:href="acmeair-acmeair.repository#_aBk6YsApEe68sZlkLVQCMQ" xlink:show="new" xlink:title="acmeair-acmeair.repository#_aBk6YsApEe68sZlkLVQCMQ" xlink:type="simple"><rect fill="#F1F1F1" height="46.2969" rx="2.5" ry="2.5" style="stroke:#181818;stroke-width:0.5;" width="347" x="5140.5" y="162.43"/><rect fill="#F1F1F1" height="10" style="stroke:#181818;stroke-width:0.5;" width="15" x="5467.5" y="167.43"/><rect fill="#F1F1F1" height="2" style="stroke:#181818;stroke-width:0.5;" width="4" x="5465.5" y="169.43"/><rect fill="#F1F1F1" height="2" style="stroke:#181818;stroke-width:0.5;" width="4" x="5465.5" y="173.43"/><text fill="#000000" font-family="sans-serif" font-size="14" lengthAdjust="spacing" textLength="307" x="5155.5" y="195.4251">com_acmeair_web_RESTCookieSessionFilter</text></a></g><!--entity com_acmeair_wxs_service_BookingServiceImpl--><g id="elem_com_acmeair_wxs_service_BookingServiceImpl"><a href="acmeair-acmeair.repository#_aBk6YsApEe68sZlkLVQCMQ" target="_top" title="acmeair-acmeair.repository#_aBk6YsApEe68sZlkLVQCMQ" xlink:actuate="onRequest" xlink:href="acmeair-acmeair.repository#_aBk6YsApEe68sZlkLVQCMQ" xlink:show="new" xlink:title="acmeair-acmeair.repository#_aBk6YsApEe68sZlkLVQCMQ" xlink:type="simple"><rect fill="#F1F1F1" height="46.2969" rx="2.5" ry="2.5" style="stroke:#181818;stroke-width:0.5;" width="362" x="987" y="299.43"/><rect fill="#F1F1F1" height="10" style="stroke:#181818;stroke-width:0.5;" width="15" x="1329" y="304.43"/><rect fill="#F1F1F1" height="2" style="stroke:#181818;stroke-width:0.5;" width="4" x="1327" y="306.43"/><rect fill="#F1F1F1" height="2" style="stroke:#181818;stroke-width:0.5;" width="4" x="1327" y="310.43"/><text fill="#000000" font-family="sans-serif" font-size="14" lengthAdjust="spacing" textLength="322" x="1002" y="332.4251">com_acmeair_wxs_service_BookingServiceImpl</text></a></g><!--entity com_acmeair_wxs_utils_WXSSessionManager--><g id="elem_com_acmeair_wxs_utils_WXSSessionManager"><a href="acmeair-acmeair.repository#_aBk6YsApEe68sZlkLVQCMQ" target="_top" title="acmeair-acmeair.repository#_aBk6YsApEe68sZlkLVQCMQ" xlink:actuate="onRequest" xlink:href="acmeair-acmeair.repository#_aBk6YsApEe68sZlkLVQCMQ" xlink:show="new" xlink:title="acmeair-acmeair.repository#_aBk6YsApEe68sZlkLVQCMQ" xlink:type="simple"><rect fill="#F1F1F1" height="46.2969" rx="2.5" ry="2.5" style="stroke:#181818;stroke-width:0.5;" width="352" x="5518" y="299.43"/><rect fill="#F1F1F1" height="10" style="stroke:#181818;stroke-width:0.5;" width="15" x="5850" y="304.43"/><rect fill="#F1F1F1" height="2" style="stroke:#181818;stroke-width:0.5;" width="4" x="5848" y="306.43"/><rect fill="#F1F1F1" height="2" style="stroke:#181818;stroke-width:0.5;" width="4" x="5848" y="310.43"/><text fill="#000000" font-family="sans-serif" font-size="14" lengthAdjust="spacing" textLength="312" x="5533" y="332.4251">com_acmeair_wxs_utils_WXSSessionManager</text></a></g><text fill="#000000" font-family="sans-serif" font-size="14" lengthAdjust="spacing" textLength="96" x="5294.5" y="51.1282">Filter_Provider</text><rect fill="#F1F1F1" height="12" style="stroke:#181818;stroke-width:1.5;" width="12" x="5336.5" y="66.43"/><text fill="#000000" font-family="sans-serif" font-size="14" lengthAdjust="spacing" textLength="239" x="4066" y="51.1282">SERVICE_HOST_bookings_Provider</text><rect fill="#F1F1F1" height="12" style="stroke:#181818;stroke-width:1.5;" width="12" x="4179.5" y="66.43"/><text fill="#000000" font-family="sans-serif" font-size="14" lengthAdjust="spacing" textLength="217" x="4541" y="51.1282">SERVICE_HOST_config_Provider</text><rect fill="#F1F1F1" height="12" style="stroke:#181818;stroke-width:1.5;" width="12" x="4643.5" y="66.43"/><text fill="#000000" font-family="sans-serif" font-size="14" lengthAdjust="spacing" textLength="276" x="4811" y="51.1282">SERVICE_HOST_customer_byid_Provider</text><rect fill="#F1F1F1" height="12" style="stroke:#181818;stroke-width:1.5;" width="12" x="4943" y="66.43"/><text fill="#000000" font-family="sans-serif" font-size="14" lengthAdjust="spacing" textLength="216" x="4313.5" y="51.1282">SERVICE_HOST_flights_Provider</text><rect fill="#F1F1F1" height="12" style="stroke:#181818;stroke-width:1.5;" width="12" x="4415.5" y="66.43"/><text fill="#000000" font-family="sans-serif" font-size="14" lengthAdjust="spacing" textLength="218" x="5416.5" y="51.1282">SERVICE_HOST_loader_Provider</text><rect fill="#F1F1F1" height="12" style="stroke:#181818;stroke-width:1.5;" width="12" x="5519.5" y="66.43"/><text fill="#000000" font-family="sans-serif" font-size="14" lengthAdjust="spacing" textLength="208" x="5089.5" y="51.1282">SERVICE_HOST_login_Provider</text><rect fill="#F1F1F1" height="12" style="stroke:#181818;stroke-width:1.5;" width="12" x="5187.5" y="66.43"/><text fill="#000000" font-family="sans-serif" font-size="14" lengthAdjust="spacing" textLength="350" x="5662" y="51.1282">com_acmeair_morphia_MorphiaConstants_Provider</text><rect fill="#F1F1F1" height="12" style="stroke:#181818;stroke-width:1.5;" width="12" x="5831" y="66.43"/><text fill="#000000" font-family="sans-serif" font-size="14" lengthAdjust="spacing" textLength="296" x="6051.5" y="51.1282">com_acmeair_wxs_WXSConstants_Provider</text><rect fill="#F1F1F1" height="12" style="stroke:#181818;stroke-width:1.5;" width="12" x="6193.5" y="66.43"/><!--entity Filter_Delegation_Provider--><g id="elem_Filter_Delegation_Provider"><ellipse cx="95" cy="72.43" fill="#F1F1F1" rx="8" ry="8" style="stroke:#181818;stroke-width:0.5;"/><text fill="#000000" font-family="sans-serif" font-size="14" lengthAdjust="spacing" textLength="178" x="6" y="102.4251">Filter_Delegation_Provider</text></g><!--entity SERVICE_HOST_bookings_Delegation_Provider--><g id="elem_SERVICE_HOST_bookings_Delegation_Provider"><ellipse cx="6508" cy="72.43" fill="#F1F1F1" rx="8" ry="8" style="stroke:#181818;stroke-width:0.5;"/><text fill="#000000" font-family="sans-serif" font-size="14" lengthAdjust="spacing" textLength="321" x="6347.5" y="102.4251">SERVICE_HOST_bookings_Delegation_Provider</text></g><!--entity SERVICE_HOST_config_Delegation_Provider--><g id="elem_SERVICE_HOST_config_Delegation_Provider"><ellipse cx="7217" cy="72.43" fill="#F1F1F1" rx="8" ry="8" style="stroke:#181818;stroke-width:0.5;"/><text fill="#000000" font-family="sans-serif" font-size="14" lengthAdjust="spacing" textLength="299" x="7067.5" y="102.4251">SERVICE_HOST_config_Delegation_Provider</text></g><!--entity SERVICE_HOST_customer_byid_Delegation_Provider--><g id="elem_SERVICE_HOST_customer_byid_Delegation_Provider"><ellipse cx="7596" cy="72.43" fill="#F1F1F1" rx="8" ry="8" style="stroke:#181818;stroke-width:0.5;"/><text fill="#000000" font-family="sans-serif" font-size="14" lengthAdjust="spacing" textLength="358" x="7417" y="102.4251">SERVICE_HOST_customer_byid_Delegation_Provider</text></g><!--entity SERVICE_HOST_flights_Delegation_Provider--><g id="elem_SERVICE_HOST_flights_Delegation_Provider"><ellipse cx="6868" cy="72.43" fill="#F1F1F1" rx="8" ry="8" style="stroke:#181818;stroke-width:0.5;"/><text fill="#000000" font-family="sans-serif" font-size="14" lengthAdjust="spacing" textLength="298" x="6719" y="102.4251">SERVICE_HOST_flights_Delegation_Provider</text></g><!--entity SERVICE_HOST_loader_Delegation_Provider--><g id="elem_SERVICE_HOST_loader_Delegation_Provider"><ellipse cx="8317" cy="72.43" fill="#F1F1F1" rx="8" ry="8" style="stroke:#181818;stroke-width:0.5;"/><text fill="#000000" font-family="sans-serif" font-size="14" lengthAdjust="spacing" textLength="300" x="8167" y="102.4251">SERVICE_HOST_loader_Delegation_Provider</text></g><!--entity SERVICE_HOST_login_Delegation_Provider--><g id="elem_SERVICE_HOST_login_Delegation_Provider"><ellipse cx="7971" cy="72.43" fill="#F1F1F1" rx="8" ry="8" style="stroke:#181818;stroke-width:0.5;"/><text fill="#000000" font-family="sans-serif" font-size="14" lengthAdjust="spacing" textLength="290" x="7826" y="102.4251">SERVICE_HOST_login_Delegation_Provider</text></g><!--entity com_acmeair_morphia_MorphiaConstants_Delegation_Provider--><g id="elem_com_acmeair_morphia_MorphiaConstants_Delegation_Provider"><ellipse cx="9163" cy="72.43" fill="#F1F1F1" rx="8" ry="8" style="stroke:#181818;stroke-width:0.5;"/><text fill="#000000" font-family="sans-serif" font-size="14" lengthAdjust="spacing" textLength="432" x="8947" y="102.4251">com_acmeair_morphia_MorphiaConstants_Delegation_Provider</text></g><!--entity com_acmeair_wxs_WXSConstants_Delegation_Provider--><g id="elem_com_acmeair_wxs_WXSConstants_Delegation_Provider"><ellipse cx="8707" cy="72.43" fill="#F1F1F1" rx="8" ry="8" style="stroke:#181818;stroke-width:0.5;"/><text fill="#000000" font-family="sans-serif" font-size="14" lengthAdjust="spacing" textLength="378" x="8518" y="102.4251">com_acmeair_wxs_WXSConstants_Delegation_Provider</text></g><!--link Filter_Delegation_Provider to Filter_Provider--><g id="link_Filter_Delegation_Provider_Filter_Provider"><path d="M104.2,67.71 C123.71,58.01 170.95,36.07 213.5,28.43 C282.57,16.02 5198.7,10.32 5266.5,28.43 C5294.92,36.02 5323.74,56.98 5336.38,66.98 " fill="none" id="Filter_Delegation_Provider-Filter_Provider" style="stroke:#181818;stroke-width:1.0;"/></g><!--link Filter_Provider to com_acmeair_web_RESTCookieSessionFilter--><g id="link_Filter_Provider_com_acmeair_web_RESTCookieSessionFilter"><path d="M5341.68,78.49 C5337.87,93.08 5326.68,135.89 5319.75,162.41 " fill="none" id="Filter_Provider-com_acmeair_web_RESTCookieSessionFilter" style="stroke:#181818;stroke-width:1.0;"/></g><!--link SERVICE_HOST_bookings_Delegation_Provider to SERVICE_HOST_bookings_Provider--><g id="link_SERVICE_HOST_bookings_Delegation_Provider_SERVICE_HOST_bookings_Provider"><path d="M6498.67,69.46 C6471.34,60.94 6388.97,36.5 6318.5,28.43 C6207.39,15.7 4415.6,8.8 4305.5,28.43 C4259.79,36.58 4208.66,60.97 4191.76,69.47 " fill="none" id="SERVICE_HOST_bookings_Delegation_Provider-SERVICE_HOST_bookings_Provider" style="stroke:#181818;stroke-width:1.0;"/></g><!--link SERVICE_HOST_bookings_Provider to com_acmeair_web_BookingsREST--><g id="link_SERVICE_HOST_bookings_Provider_com_acmeair_web_BookingsREST"><path d="M4179.19,73.46 C4062.2,74.07 2462.08,83.55 1175,154.43 C1101.73,158.47 1020.24,165.08 953.34,171.07 " fill="none" id="SERVICE_HOST_bookings_Provider-com_acmeair_web_BookingsREST" style="stroke:#181818;stroke-width:1.0;"/></g><!--link SERVICE_HOST_config_Delegation_Provider to SERVICE_HOST_config_Provider--><g id="link_SERVICE_HOST_config_Delegation_Provider_SERVICE_HOST_config_Provider"><path d="M7207.96,69.58 C7180.74,61.17 7097.02,36.54 7025.5,28.43 C6902.4,14.47 4918.06,10.3 4795.5,28.43 C4739.37,36.73 4674.89,62.12 4655.68,70.04 " fill="none" id="SERVICE_HOST_config_Delegation_Provider-SERVICE_HOST_config_Provider" style="stroke:#181818;stroke-width:1.0;"/></g><!--link SERVICE_HOST_config_Provider to com_acmeair_config_AcmeAirConfiguration--><g id="link_SERVICE_HOST_config_Provider_com_acmeair_config_AcmeAirConfiguration"><path d="M4643.32,75.2 C4623.76,80.28 4564.86,95.02 4515,101.43 C4374.64,119.49 3453.09,160.63 3068.81,177.26 " fill="none" id="SERVICE_HOST_config_Provider-com_acmeair_config_AcmeAirConfiguration" style="stroke:#181818;stroke-width:1.0;"/></g><!--link SERVICE_HOST_customer_byid_Delegation_Provider to SERVICE_HOST_customer_byid_Provider--><g id="link_SERVICE_HOST_customer_byid_Delegation_Provider_SERVICE_HOST_customer_byid_Provider"><path d="M7586.81,69.93 C7556.68,61.87 7458,36.64 7374.5,28.43 C7247.78,15.97 5208.22,8.25 5082.5,28.43 C5031.66,36.59 4973.94,61.19 4955.21,69.59 " fill="none" id="SERVICE_HOST_customer_byid_Delegation_Provider-SERVICE_HOST_customer_byid_Provider" style="stroke:#181818;stroke-width:1.0;"/></g><!--link SERVICE_HOST_customer_byid_Provider to com_acmeair_web_CustomerREST--><g id="link_SERVICE_HOST_customer_byid_Provider_com_acmeair_web_CustomerREST"><path d="M4942.95,74.4 C4918.22,78.31 4822.34,93.2 4743,101.43 C4415.47,135.4 4330.97,115.39 4004,154.43 C3985.54,156.63 3966.08,159.42 3947.06,162.39 " fill="none" id="SERVICE_HOST_customer_byid_Provider-com_acmeair_web_CustomerREST" style="stroke:#181818;stroke-width:1.0;"/></g><!--link SERVICE_HOST_flights_Delegation_Provider to SERVICE_HOST_flights_Provider--><g id="link_SERVICE_HOST_flights_Delegation_Provider_SERVICE_HOST_flights_Provider"><path d="M6858.96,69.58 C6831.74,61.17 6748.02,36.54 6676.5,28.43 C6558.15,15.01 4649.48,6 4532.5,28.43 C4490.32,36.52 4443.73,60.51 4427.75,69.22 " fill="none" id="SERVICE_HOST_flights_Delegation_Provider-SERVICE_HOST_flights_Provider" style="stroke:#181818;stroke-width:1.0;"/></g><!--link SERVICE_HOST_flights_Provider to com_acmeair_web_FlightsREST--><g id="link_SERVICE_HOST_flights_Provider_com_acmeair_web_FlightsREST"><path d="M4415.32,75.24 C4395.78,80.44 4336.91,95.46 4287,101.43 C3593.33,184.45 3414.09,127.28 2716,154.43 C2523.25,161.93 2299.87,172.04 2163.01,178.4 " fill="none" id="SERVICE_HOST_flights_Provider-com_acmeair_web_FlightsREST" style="stroke:#181818;stroke-width:1.0;"/></g><!--link SERVICE_HOST_loader_Delegation_Provider to SERVICE_HOST_loader_Provider--><g id="link_SERVICE_HOST_loader_Delegation_Provider_SERVICE_HOST_loader_Provider"><path d="M8307.91,69.58 C8280.54,61.17 8196.38,36.54 8124.5,28.43 C8055.85,20.68 5705.37,15.52 5637.5,28.43 C5594.98,36.52 5547.95,60.51 5531.8,69.22 " fill="none" id="SERVICE_HOST_loader_Delegation_Provider-SERVICE_HOST_loader_Provider" style="stroke:#181818;stroke-width:1.0;"/></g><!--link SERVICE_HOST_loader_Provider to com_acmeair_config_LoaderREST--><g id="link_SERVICE_HOST_loader_Provider_com_acmeair_config_LoaderREST"><path d="M5531.57,75.55 C5559.37,86.11 5684.66,133.74 5760.02,162.39 " fill="none" id="SERVICE_HOST_loader_Provider-com_acmeair_config_LoaderREST" style="stroke:#181818;stroke-width:1.0;"/></g><!--link SERVICE_HOST_login_Delegation_Provider to SERVICE_HOST_login_Provider--><g id="link_SERVICE_HOST_login_Delegation_Provider_SERVICE_HOST_login_Provider"><path d="M7961.77,69.46 C7934.74,60.94 7853.25,36.5 7783.5,28.43 C7715.01,20.5 5369.15,15.12 5301.5,28.43 C5260.34,36.53 5215.1,60.51 5199.58,69.22 " fill="none" id="SERVICE_HOST_login_Delegation_Provider-SERVICE_HOST_login_Provider" style="stroke:#181818;stroke-width:1.0;"/></g><!--link SERVICE_HOST_login_Provider to com_acmeair_web_LoginREST--><g id="link_SERVICE_HOST_login_Provider_com_acmeair_web_LoginREST"><path d="M5187.45,75.17 C5150.77,84.94 4968.6,133.43 4859.66,162.43 " fill="none" id="SERVICE_HOST_login_Provider-com_acmeair_web_LoginREST" style="stroke:#181818;stroke-width:1.0;"/></g><!--link com_acmeair_config_LoaderREST to com_acmeair_loader_Loader--><g id="link_com_acmeair_config_LoaderREST_com_acmeair_loader_Loader"><path d="M5953.61,206.77 C5974.36,214.27 5994.37,224.5 6011,238.43 C6029.55,253.97 6039.82,280.32 6045.1,299.16 " fill="none" id="com_acmeair_config_LoaderREST-com_acmeair_loader_Loader" style="stroke:#181818;stroke-width:1.0;"/><text fill="#000000" font-family="sans-serif" font-size="13" lengthAdjust="spacing" textLength="244" x="6041" y="258.4969">com_acmeair_loader_Loader_Provider</text><path d="M6010.1199,228.4688 A10,10 0 0 0 6001.0388 239.3101" fill="none" style="stroke:#181818;stroke-width:1.5;"/><ellipse cx="6011" cy="238.43" fill="#FFFFFF" rx="6" ry="6" style="stroke:#181818;stroke-width:1.5;"/></g><!--link com_acmeair_morphia_MorphiaConstants_Delegation_Provider to com_acmeair_morphia_MorphiaConstants_Provider--><g id="link_com_acmeair_morphia_MorphiaConstants_Delegation_Provider_com_acmeair_morphia_MorphiaConstants_Provider"><path d="M9153.68,70.26 C9120.23,62.58 9002.94,36.75 8904.5,28.43 C8745.57,15 6192.03,10.9 6033.5,28.43 C5957.06,36.88 5866.88,63.3 5843.03,70.57 " fill="none" id="com_acmeair_morphia_MorphiaConstants_Delegation_Provider-com_acmeair_morphia_MorphiaConstants_Provider" style="stroke:#181818;stroke-width:1.0;"/></g><!--link com_acmeair_morphia_MorphiaConstants_Provider to com_acmeair_morphia_services_BookingServiceImpl--><g id="link_com_acmeair_morphia_MorphiaConstants_Provider_com_acmeair_morphia_services_BookingServiceImpl"><path d="M5843.15,74.41 C5894.52,82.63 6250.58,140.02 6268,154.43 C6271.86,157.63 6300.07,233.5 6301,238.43 C6303.56,251.97 6310.68,259.62 6301,269.43 C6278.55,292.18 4031.96,298.84 4000,299.43 C3749.04,304.04 3459.95,311.18 3272.02,316.07 " fill="none" id="com_acmeair_morphia_MorphiaConstants_Provider-com_acmeair_morphia_services_BookingServiceImpl" style="stroke:#181818;stroke-width:1.0;"/></g><!--link com_acmeair_config_AcmeAirConfiguration to com_acmeair_morphia_services_BookingServiceImpl--><g id="link_com_acmeair_config_AcmeAirConfiguration_com_acmeair_morphia_services_BookingServiceImpl"><path d="M2985.1,208.56 C3002.39,215.97 3019.44,225.71 3033,238.43 C3050.53,254.88 3060.95,280.8 3066.55,299.3 " fill="none" id="com_acmeair_config_AcmeAirConfiguration-com_acmeair_morphia_services_BookingServiceImpl" style="stroke:#181818;stroke-width:1.0;"/><text fill="#000000" font-family="sans-serif" font-size="13" lengthAdjust="spacing" textLength="303" x="3062" y="258.4969">com_acmeair_service_BookingService_Provider</text><path d="M3032.6805,228.4351 A10,10 0 0 0 3023.0051 238.7495" fill="none" style="stroke:#181818;stroke-width:1.5;"/><ellipse cx="3033" cy="238.43" fill="#FFFFFF" rx="6" ry="6" style="stroke:#181818;stroke-width:1.5;"/></g><!--link com_acmeair_config_AcmeAirConfiguration to com_acmeair_wxs_service_BookingServiceImpl--><g id="link_com_acmeair_config_AcmeAirConfiguration_com_acmeair_wxs_service_BookingServiceImpl"><path d="M2733.43,190.41 C2493.61,196.98 2074.11,212.08 2009,238.43 C1989.43,246.35 1992.55,261.45 1973,269.43 C1972.1,269.8 1586.26,294.6 1349.16,309.82 " fill="none" id="com_acmeair_config_AcmeAirConfiguration-com_acmeair_wxs_service_BookingServiceImpl" style="stroke:#181818;stroke-width:1.0;"/><text fill="#000000" font-family="sans-serif" font-size="13" lengthAdjust="spacing" textLength="303" x="2017" y="258.4969">com_acmeair_service_BookingService_Provider</text><path d="M2018.2073,242.332 A10,10 0 0 0 2012.902 229.2227" fill="none" style="stroke:#181818;stroke-width:1.5;"/><ellipse cx="2009" cy="238.43" fill="#FFFFFF" rx="6" ry="6" style="stroke:#181818;stroke-width:1.5;"/></g><!--link com_acmeair_web_BookingsREST to com_acmeair_service_BookingService--><g id="link_com_acmeair_web_BookingsREST_com_acmeair_service_BookingService"><path d="M676.66,189.55 C518.12,194.59 276.38,207.33 248,238.43 C204.36,286.25 279.81,306.73 361.06,315.39 " fill="none" id="com_acmeair_web_BookingsREST-com_acmeair_service_BookingService" style="stroke:#181818;stroke-width:1.0;"/><text fill="#000000" font-family="sans-serif" font-size="13" lengthAdjust="spacing" textLength="303" x="256" y="258.4969">com_acmeair_service_BookingService_Provider</text><path d="M421.2086,210.6117 A10,10 0 0 0 419.9142 196.5289" fill="none" style="stroke:#181818;stroke-width:1.5;"/><ellipse cx="413.52" cy="204.2175" fill="#FFFFFF" rx="6" ry="6" style="stroke:#181818;stroke-width:1.5;"/></g><!--link com_acmeair_web_BookingsREST to com_acmeair_wxs_service_BookingServiceImpl--><g id="link_com_acmeair_web_BookingsREST_com_acmeair_wxs_service_BookingServiceImpl"><path d="M676.73,202.18 C620.41,214.05 575.18,234.52 607,269.43 C632.53,297.44 832.81,310.6 986.86,316.61 " fill="none" id="com_acmeair_web_BookingsREST-com_acmeair_wxs_service_BookingServiceImpl" style="stroke:#181818;stroke-width:1.0;"/><text fill="#000000" font-family="sans-serif" font-size="13" lengthAdjust="spacing" textLength="303" x="615" y="258.4969">com_acmeair_service_BookingService_Provider</text><path d="M742.4334,293.5054 A10,10 0 0 0 740.9704 307.5716" fill="none" style="stroke:#181818;stroke-width:1.5;"/><ellipse cx="748.735" cy="301.27" fill="#FFFFFF" rx="6" ry="6" style="stroke:#181818;stroke-width:1.5;"/></g><!--link com_acmeair_web_BookingsREST to com_acmeair_morphia_services_BookingServiceImpl--><g id="link_com_acmeair_web_BookingsREST_com_acmeair_morphia_services_BookingServiceImpl"><path d="M953.41,196.03 C1020.32,200.38 1101.81,205.25 1175,208.43 C1239.24,211.22 2272.72,213.53 2332,238.43 C2350.26,246.1 2345.93,261.33 2364,269.43 C2451.58,308.69 2694.66,319.43 2871.61,321.81 " fill="none" id="com_acmeair_web_BookingsREST-com_acmeair_morphia_services_BookingServiceImpl" style="stroke:#181818;stroke-width:1.0;"/><text fill="#000000" font-family="sans-serif" font-size="13" lengthAdjust="spacing" textLength="303" x="2372" y="258.4969">com_acmeair_service_BookingService_Provider</text><path d="M1748.394,207.9642 A10,10 0 0 0 1748.1854 222.1048" fill="none" style="stroke:#181818;stroke-width:1.5;"/><ellipse cx="1755.36" cy="215.1388" fill="#FFFFFF" rx="6" ry="6" style="stroke:#181818;stroke-width:1.5;"/></g><!--link com_acmeair_config_AcmeAirConfiguration to com_acmeair_service_BookingService--><g id="link_com_acmeair_config_AcmeAirConfiguration_com_acmeair_service_BookingService"><path d="M2733.34,191.81 C2587.42,196.43 2370.23,203.16 2181,208.43 C2048.45,212.12 1116.21,204.6 988,238.43 C959.74,245.89 957.86,260.59 930,269.43 C843.92,296.75 743.61,309.81 662.84,316.02 " fill="none" id="com_acmeair_config_AcmeAirConfiguration-com_acmeair_service_BookingService" style="stroke:#181818;stroke-width:1.0;"/><text fill="#000000" font-family="sans-serif" font-size="13" lengthAdjust="spacing" textLength="303" x="996" y="258.4969">com_acmeair_service_BookingService_Provider</text><path d="M1590.018,219.1234 A10,10 0 0 0 1589.8684 204.982" fill="none" style="stroke:#181818;stroke-width:1.5;"/><ellipse cx="1582.8725" cy="212.1275" fill="#FFFFFF" rx="6" ry="6" style="stroke:#181818;stroke-width:1.5;"/></g><!--link com_acmeair_config_AcmeAirConfiguration to com_acmeair_service_CustomerService--><g id="link_com_acmeair_config_AcmeAirConfiguration_com_acmeair_service_CustomerService"><path d="M3068.63,196.27 C3161.42,203.8 3278.39,216.71 3381,238.43 C3425.28,247.8 3433.57,260.79 3478,269.43 C3660.76,304.96 3874.91,316.56 4016.69,320.17 " fill="none" id="com_acmeair_config_AcmeAirConfiguration-com_acmeair_service_CustomerService" style="stroke:#181818;stroke-width:1.0;"/><text fill="#000000" font-family="sans-serif" font-size="13" lengthAdjust="spacing" textLength="315" x="3486" y="258.4969">com_acmeair_service_CustomerService_Provider</text><path d="M3472.4087,261.1392 A10,10 0 0 0 3469.7092 275.0213" fill="none" style="stroke:#181818;stroke-width:1.5;"/><ellipse cx="3478" cy="269.43" fill="#FFFFFF" rx="6" ry="6" style="stroke:#181818;stroke-width:1.5;"/></g><!--link com_acmeair_web_LoginREST to com_acmeair_service_CustomerService--><g id="link_com_acmeair_web_LoginREST_com_acmeair_service_CustomerService"><path d="M4652.73,201.91 C4615.49,209.65 4575.43,221.21 4541,238.43 C4522.12,247.88 4524.16,260.57 4505,269.43 C4450.72,294.53 4386.69,307.87 4329.41,314.84 " fill="none" id="com_acmeair_web_LoginREST-com_acmeair_service_CustomerService" style="stroke:#181818;stroke-width:1.0;"/><text fill="#000000" font-family="sans-serif" font-size="13" lengthAdjust="spacing" textLength="315" x="4549" y="258.4969">com_acmeair_service_CustomerService_Provider</text><path d="M4514.3859,272.8802 A10,10 0 0 0 4508.4502 260.0441" fill="none" style="stroke:#181818;stroke-width:1.5;"/><ellipse cx="4505" cy="269.43" fill="#FFFFFF" rx="6" ry="6" style="stroke:#181818;stroke-width:1.5;"/></g><!--link com_acmeair_loader_CustomerLoader to com_acmeair_service_CustomerService--><g id="link_com_acmeair_loader_CustomerLoader_com_acmeair_service_CustomerService"><path d="M4171.45,208.43 C4170.87,217.69 4170.28,228.58 4170,238.43 C4169.6,252.2 4169.6,255.66 4170,269.43 C4170.28,279.28 4170.87,290.17 4171.45,299.43 " fill="none" id="com_acmeair_loader_CustomerLoader-com_acmeair_service_CustomerService" style="stroke:#181818;stroke-width:1.0;"/><text fill="#000000" font-family="sans-serif" font-size="13" lengthAdjust="spacing" textLength="315" x="4178" y="258.4969">com_acmeair_service_CustomerService_Provider</text><path d="M4176.7711,246.8589 A10,10 0 0 0 4162.6289 246.8589" fill="none" style="stroke:#181818;stroke-width:1.5;"/><ellipse cx="4169.7" cy="253.93" fill="#FFFFFF" rx="6" ry="6" style="stroke:#181818;stroke-width:1.5;"/></g><!--link com_acmeair_web_RESTCookieSessionFilter to com_acmeair_service_CustomerService--><g id="link_com_acmeair_web_RESTCookieSessionFilter_com_acmeair_service_CustomerService"><path d="M5140.27,199.16 C5076.36,206.82 5003.99,219.01 4940,238.43 C4909.76,247.61 4906.52,261.23 4876,269.43 C4776.57,296.14 4504.18,310.2 4329.12,316.7 " fill="none" id="com_acmeair_web_RESTCookieSessionFilter-com_acmeair_service_CustomerService" style="stroke:#181818;stroke-width:1.0;"/><text fill="#000000" font-family="sans-serif" font-size="13" lengthAdjust="spacing" textLength="315" x="4948" y="258.4969">com_acmeair_service_CustomerService_Provider</text><path d="M4638.5004,307.1672 A10,10 0 0 0 4637.4447 293.0646" fill="none" style="stroke:#181818;stroke-width:1.5;"/><ellipse cx="4630.9212" cy="300.6438" fill="#FFFFFF" rx="6" ry="6" style="stroke:#181818;stroke-width:1.5;"/></g><!--link com_acmeair_web_CustomerREST to com_acmeair_service_CustomerService--><g id="link_com_acmeair_web_CustomerREST_com_acmeair_service_CustomerService"><path d="M3819.41,208.74 C3816.2,227.35 3815.3,253.34 3830,269.43 C3855.54,297.39 3938.75,310.43 4016.81,316.46 " fill="none" id="com_acmeair_web_CustomerREST-com_acmeair_service_CustomerService" style="stroke:#181818;stroke-width:1.0;"/><text fill="#000000" font-family="sans-serif" font-size="13" lengthAdjust="spacing" textLength="315" x="3838" y="258.4969">com_acmeair_service_CustomerService_Provider</text><path d="M3898.3432,292.7309 A10,10 0 0 0 3895.2721 306.5356" fill="none" style="stroke:#181818;stroke-width:1.5;"/><ellipse cx="3903.71" cy="301.1688" fill="#FFFFFF" rx="6" ry="6" style="stroke:#181818;stroke-width:1.5;"/></g><!--link com_acmeair_web_FlightsREST to com_acmeair_service_FlightService--><g id="link_com_acmeair_web_FlightsREST_com_acmeair_service_FlightService"><path d="M1906.67,187.29 C1813.24,190.96 1697.89,202.87 1667,238.43 C1652.72,254.87 1656.33,280.79 1661.69,299.29 " fill="none" id="com_acmeair_web_FlightsREST-com_acmeair_service_FlightService" style="stroke:#181818;stroke-width:1.0;"/><text fill="#000000" font-family="sans-serif" font-size="13" lengthAdjust="spacing" textLength="286" x="1675" y="258.4969">com_acmeair_service_FlightService_Provider</text><path d="M1771.5811,206.6269 A10,10 0 0 0 1769.1082 192.7027" fill="none" style="stroke:#181818;stroke-width:1.5;"/><ellipse cx="1763.3825" cy="200.9013" fill="#FFFFFF" rx="6" ry="6" style="stroke:#181818;stroke-width:1.5;"/></g><!--link com_acmeair_config_AcmeAirConfiguration to com_acmeair_service_FlightService--><g id="link_com_acmeair_config_AcmeAirConfiguration_com_acmeair_service_FlightService"><path d="M2794.45,208.43 C2770.03,215.92 2744.85,225.72 2723,238.43 C2705.88,248.39 2709.16,261.53 2691,269.43 C2612.44,303.59 2071.69,315.8 1810.55,319.74 " fill="none" id="com_acmeair_config_AcmeAirConfiguration-com_acmeair_service_FlightService" style="stroke:#181818;stroke-width:1.0;"/><text fill="#000000" font-family="sans-serif" font-size="13" lengthAdjust="spacing" textLength="286" x="2731" y="258.4969">com_acmeair_service_FlightService_Provider</text><path d="M2326.6175,312.671 A10,10 0 0 0 2325.996 298.5425" fill="none" style="stroke:#181818;stroke-width:1.5;"/><ellipse cx="2319.2425" cy="305.9175" fill="#FFFFFF" rx="6" ry="6" style="stroke:#181818;stroke-width:1.5;"/></g><!--link com_acmeair_loader_FlightLoader to com_acmeair_service_FlightService--><g id="link_com_acmeair_loader_FlightLoader_com_acmeair_service_FlightService"><path d="M1319.73,208.54 C1314.39,227.02 1310.8,252.93 1325,269.43 C1351.62,300.36 1445.8,313.14 1529.05,318.3 " fill="none" id="com_acmeair_loader_FlightLoader-com_acmeair_service_FlightService" style="stroke:#181818;stroke-width:1.0;"/><text fill="#000000" font-family="sans-serif" font-size="13" lengthAdjust="spacing" textLength="286" x="1333" y="258.4969">com_acmeair_service_FlightService_Provider</text><path d="M1400.2956,295.1726 A10,10 0 0 0 1397.4326 309.0219" fill="none" style="stroke:#181818;stroke-width:1.5;"/><ellipse cx="1405.7888" cy="303.5288" fill="#FFFFFF" rx="6" ry="6" style="stroke:#181818;stroke-width:1.5;"/></g><!--link com_acmeair_service_CustomerService to com_acmeair_service_KeyGenerator--><g id="link_com_acmeair_service_CustomerService_com_acmeair_service_KeyGenerator"><path d="M4173,345.72 C4173,370.74 4173,411.08 4173,436.1 " fill="none" id="com_acmeair_service_CustomerService-com_acmeair_service_KeyGenerator" style="stroke:#181818;stroke-width:1.0;"/><text fill="#000000" font-family="sans-serif" font-size="13" lengthAdjust="spacing" textLength="293" x="4181" y="395.4969">com_acmeair_service_KeyGenerator_Provider</text><path d="M4180.0711,383.8389 A10,10 0 0 0 4165.9289 383.8389" fill="none" style="stroke:#181818;stroke-width:1.5;"/><ellipse cx="4173" cy="390.91" fill="#FFFFFF" rx="6" ry="6" style="stroke:#181818;stroke-width:1.5;"/></g><!--link com_acmeair_web_RESTCookieSessionFilter to com_acmeair_wxs_utils_WXSSessionManager--><g id="link_com_acmeair_web_RESTCookieSessionFilter_com_acmeair_wxs_utils_WXSSessionManager"><path d="M5487.79,203.94 C5546.75,212.23 5604.03,223.63 5629,238.43 C5641.75,245.99 5664.4,277.22 5679.3,299.13 " fill="none" id="com_acmeair_web_RESTCookieSessionFilter-com_acmeair_wxs_utils_WXSSessionManager" style="stroke:#181818;stroke-width:1.0;"/><text fill="#000000" font-family="sans-serif" font-size="13" lengthAdjust="spacing" textLength="326" x="5665" y="258.4969">com_acmeair_service_TransactionService_Provider</text><path d="M5565.8447,210.2616 A10,10 0 0 0 5562.6591 224.0403" fill="none" style="stroke:#181818;stroke-width:1.5;"/><ellipse cx="5571.1413" cy="218.7438" fill="#FFFFFF" rx="6" ry="6" style="stroke:#181818;stroke-width:1.5;"/></g><!--link com_acmeair_web_RESTCookieSessionFilter to com_acmeair_service_TransactionService--><g id="link_com_acmeair_web_RESTCookieSessionFilter_com_acmeair_service_TransactionService"><path d="M5297.26,208.51 C5291.56,217.33 5285.9,227.89 5283,238.43 C5277.49,258.45 5279.12,282.21 5281.61,299.17 " fill="none" id="com_acmeair_web_RESTCookieSessionFilter-com_acmeair_service_TransactionService" style="stroke:#181818;stroke-width:1.0;"/><text fill="#000000" font-family="sans-serif" font-size="13" lengthAdjust="spacing" textLength="326" x="5291" y="258.4969">com_acmeair_service_TransactionService_Provider</text><path d="M5291.6936,233.4881 A10,10 0 0 0 5278.0581 229.7364" fill="none" style="stroke:#181818;stroke-width:1.5;"/><ellipse cx="5283" cy="238.43" fill="#FFFFFF" rx="6" ry="6" style="stroke:#181818;stroke-width:1.5;"/></g><!--link com_acmeair_wxs_WXSConstants_Delegation_Provider to com_acmeair_wxs_WXSConstants_Provider--><g id="link_com_acmeair_wxs_WXSConstants_Delegation_Provider_com_acmeair_wxs_WXSConstants_Provider"><path d="M8697.83,70.04 C8666.84,62.11 8563.07,36.68 8475.5,28.43 C8357.41,17.31 6457.75,10.5 6340.5,28.43 C6286.43,36.7 6224.58,61.89 6205.74,69.93 " fill="none" id="com_acmeair_wxs_WXSConstants_Delegation_Provider-com_acmeair_wxs_WXSConstants_Provider" style="stroke:#181818;stroke-width:1.0;"/></g><!--link com_acmeair_wxs_WXSConstants_Provider to com_acmeair_wxs_utils_WXSSessionManager--><g id="link_com_acmeair_wxs_WXSConstants_Provider_com_acmeair_wxs_utils_WXSSessionManager"><path d="M6205.73,77.29 C6236.63,98.53 6379.88,202.77 6318,269.43 C6287.45,302.34 5959.73,295.54 5915,299.43 C5900.4,300.7 5885.27,302.08 5870.08,303.5 " fill="none" id="com_acmeair_wxs_WXSConstants_Provider-com_acmeair_wxs_utils_WXSSessionManager" style="stroke:#181818;stroke-width:1.0;"/></g><!--SRC=[pLXRRzem67tdLqJQI_V0DEsXclP6CxfL0tLjK7T1A3B1JIqSEx8DBPhst-lS81Sx673Odg8eNyuv_ZvVpcU-H2G634JE8tfn4Gim784vnBTho328OqH2Hx0LxF5jO42Zc198X2Ss63gh27_eNRnrhX4MaFcV8OOX48WI_pkZQxI0BFdg3UyVRjoX__NMc_XpIYLQo8s20qeUKMWMkkA2HbB4V8CMHdyyOXG-2JCXc8A5uG0n3H7HHShy-I28843CZoYBdn3mnzdJfOGBGFI2oly-lt3_nq-l_Hy60_anb7NoDbp0oFdJcvP1ykmEvEi0CJTzMx4KPEPCftbOFt- -Op2c70dADczySBMy_CK7yH1UVkI_yNBqSEUExsOp9S4eJTxzq9lOWSsBuUOLp-2jGb-dKwC3O9kGnVpXaArH0Bb_bIqjBtk_YM9iXoWdgE7RnIwAsGbuLivEeB_1pHT8e5mrbDb5dZ10E0YIrMXL-JES5vNazjPaWbhKq2vgLZpBKaV99cqNCa5paxn23t8kgvOTYfO8v7wlNeRsbdd2iH88foTBFeOn820yOH0nPQ9m1zjpIUyMdBukk1HXdFcCNUq-jlZ6vaGo7mNLfhoo3XLoymDKpQ0tHtMf9Z0wcMqcGQMuOiCqZFkiMaF_mQ1jIQziKueX5BvGpTFY6kkopO3Qf9RtFeNIt5IeyVMMjQxJ16RFz2XPFANEn1Bhy3LskQbo7qXR9dSR_bwBshzuNmEecRTFZlRZJb-Q1IExl_tbsEP0ZhS38bqsJMpd0Nr6Czj6lhPQ0_NHk1lmANBs7RqdA6bQiIQzpdntJFkFH_sVpO4EYd2aWaQVf9PG2skfHCa9dubLqxwVSSnQgtv63TLcwOp4bNvAprlhcTMibI2x4zqQl_9AvmoysWBgkQkN2MhgSeoTATxQzwb5DEycxAusrTt7uKeQ5gnnQwfqH2PtgpNBTIImrh2sLAJtj_SA]--></g></svg>