<?xml version="1.0" encoding="us-ascii" standalone="no"?><svg xmlns="http://www.w3.org/2000/svg" xmlns:xlink="http://www.w3.org/1999/xlink" contentStyleType="text/css" height="374px" preserveAspectRatio="none" style="width:10020px;height:374px;background:#FFFFFF;" version="1.1" viewBox="0 0 10020 374" width="10020px" zoomAndPan="magnify"><defs/><g><!--cluster System--><g id="cluster_System"><rect fill="none" height="289" rx="2.5" ry="2.5" style="stroke:#181818;stroke-width:1.0;" width="7907" x="342.5" y="79"/><text fill="#000000" font-family="sans-serif" font-size="14" font-weight="bold" lengthAdjust="spacing" textLength="58" x="4267" y="93.9951">System</text></g><!--entity com_acmeair_config_AcmeAirConfiguration--><g id="elem_com_acmeair_config_AcmeAirConfiguration"><a href="acmeair-acmeair.repository#_v2WPrjs-Ee-pNLs9786syg" target="_top" title="acmeair-acmeair.repository#_v2WPrjs-Ee-pNLs9786syg" xlink:actuate="onRequest" xlink:href="acmeair-acmeair.repository#_v2WPrjs-Ee-pNLs9786syg" xlink:show="new" xlink:title="acmeair-acmeair.repository#_v2WPrjs-Ee-pNLs9786syg" xlink:type="simple"><rect fill="#F1F1F1" height="46.2969" rx="2.5" ry="2.5" style="stroke:#181818;stroke-width:0.5;" width="335" x="3899" y="169"/><rect fill="#F1F1F1" height="10" style="stroke:#181818;stroke-width:0.5;" width="15" x="4214" y="174"/><rect fill="#F1F1F1" height="2" style="stroke:#181818;stroke-width:0.5;" width="4" x="4212" y="176"/><rect fill="#F1F1F1" height="2" style="stroke:#181818;stroke-width:0.5;" width="4" x="4212" y="180"/><text fill="#000000" font-family="sans-serif" font-size="14" lengthAdjust="spacing" textLength="295" x="3914" y="201.9951">com_acmeair_config_AcmeAirConfiguration</text></a></g><!--entity com_acmeair_config_LoaderREST--><g id="elem_com_acmeair_config_LoaderREST"><a href="acmeair-acmeair.repository#_v2WPrjs-Ee-pNLs9786syg" target="_top" title="acmeair-acmeair.repository#_v2WPrjs-Ee-pNLs9786syg" xlink:actuate="onRequest" xlink:href="acmeair-acmeair.repository#_v2WPrjs-Ee-pNLs9786syg" xlink:show="new" xlink:title="acmeair-acmeair.repository#_v2WPrjs-Ee-pNLs9786syg" xlink:type="simple"><rect fill="#F1F1F1" height="46.2969" rx="2.5" ry="2.5" style="stroke:#181818;stroke-width:0.5;" width="271" x="7838" y="169"/><rect fill="#F1F1F1" height="10" style="stroke:#181818;stroke-width:0.5;" width="15" x="8089" y="174"/><rect fill="#F1F1F1" height="2" style="stroke:#181818;stroke-width:0.5;" width="4" x="8087" y="176"/><rect fill="#F1F1F1" height="2" style="stroke:#181818;stroke-width:0.5;" width="4" x="8087" y="180"/><text fill="#000000" font-family="sans-serif" font-size="14" lengthAdjust="spacing" textLength="231" x="7853" y="201.9951">com_acmeair_config_LoaderREST</text></a></g><!--entity com_acmeair_loader_CustomerLoader--><g id="elem_com_acmeair_loader_CustomerLoader"><a href="acmeair-acmeair.repository#_v2WPrjs-Ee-pNLs9786syg" target="_top" title="acmeair-acmeair.repository#_v2WPrjs-Ee-pNLs9786syg" xlink:actuate="onRequest" xlink:href="acmeair-acmeair.repository#_v2WPrjs-Ee-pNLs9786syg" xlink:show="new" xlink:title="acmeair-acmeair.repository#_v2WPrjs-Ee-pNLs9786syg" xlink:type="simple"><rect fill="#F1F1F1" height="46.2969" rx="2.5" ry="2.5" style="stroke:#181818;stroke-width:0.5;" width="303" x="4635" y="169"/><rect fill="#F1F1F1" height="10" style="stroke:#181818;stroke-width:0.5;" width="15" x="4918" y="174"/><rect fill="#F1F1F1" height="2" style="stroke:#181818;stroke-width:0.5;" width="4" x="4916" y="176"/><rect fill="#F1F1F1" height="2" style="stroke:#181818;stroke-width:0.5;" width="4" x="4916" y="180"/><text fill="#000000" font-family="sans-serif" font-size="14" lengthAdjust="spacing" textLength="263" x="4650" y="201.9951">com_acmeair_loader_CustomerLoader</text></a></g><!--entity com_acmeair_loader_FlightLoader--><g id="elem_com_acmeair_loader_FlightLoader"><a href="acmeair-acmeair.repository#_v2WPrjs-Ee-pNLs9786syg" target="_top" title="acmeair-acmeair.repository#_v2WPrjs-Ee-pNLs9786syg" xlink:actuate="onRequest" xlink:href="acmeair-acmeair.repository#_v2WPrjs-Ee-pNLs9786syg" xlink:show="new" xlink:title="acmeair-acmeair.repository#_v2WPrjs-Ee-pNLs9786syg" xlink:type="simple"><rect fill="#F1F1F1" height="46.2969" rx="2.5" ry="2.5" style="stroke:#181818;stroke-width:0.5;" width="272" x="7251.5" y="169"/><rect fill="#F1F1F1" height="10" style="stroke:#181818;stroke-width:0.5;" width="15" x="7503.5" y="174"/><rect fill="#F1F1F1" height="2" style="stroke:#181818;stroke-width:0.5;" width="4" x="7501.5" y="176"/><rect fill="#F1F1F1" height="2" style="stroke:#181818;stroke-width:0.5;" width="4" x="7501.5" y="180"/><text fill="#000000" font-family="sans-serif" font-size="14" lengthAdjust="spacing" textLength="232" x="7266.5" y="201.9951">com_acmeair_loader_FlightLoader</text></a></g><!--entity com_acmeair_loader_Loader--><g id="elem_com_acmeair_loader_Loader"><a href="acmeair-acmeair.repository#_v2WPrjs-Ee-pNLs9786syg" target="_top" title="acmeair-acmeair.repository#_v2WPrjs-Ee-pNLs9786syg" xlink:actuate="onRequest" xlink:href="acmeair-acmeair.repository#_v2WPrjs-Ee-pNLs9786syg" xlink:show="new" xlink:title="acmeair-acmeair.repository#_v2WPrjs-Ee-pNLs9786syg" xlink:type="simple"><rect fill="#F1F1F1" height="46.2969" rx="2.5" ry="2.5" style="stroke:#181818;stroke-width:0.5;" width="235" x="7856" y="306"/><rect fill="#F1F1F1" height="10" style="stroke:#181818;stroke-width:0.5;" width="15" x="8071" y="311"/><rect fill="#F1F1F1" height="2" style="stroke:#181818;stroke-width:0.5;" width="4" x="8069" y="313"/><rect fill="#F1F1F1" height="2" style="stroke:#181818;stroke-width:0.5;" width="4" x="8069" y="317"/><text fill="#000000" font-family="sans-serif" font-size="14" lengthAdjust="spacing" textLength="195" x="7871" y="338.9951">com_acmeair_loader_Loader</text></a></g><!--entity com_acmeair_morphia_services_BookingServiceImpl--><g id="elem_com_acmeair_morphia_services_BookingServiceImpl"><a href="acmeair-acmeair.repository#_v2WPrjs-Ee-pNLs9786syg" target="_top" title="acmeair-acmeair.repository#_v2WPrjs-Ee-pNLs9786syg" xlink:actuate="onRequest" xlink:href="acmeair-acmeair.repository#_v2WPrjs-Ee-pNLs9786syg" xlink:show="new" xlink:title="acmeair-acmeair.repository#_v2WPrjs-Ee-pNLs9786syg" xlink:type="simple"><rect fill="#F1F1F1" height="46.2969" rx="2.5" ry="2.5" style="stroke:#181818;stroke-width:0.5;" width="400" x="1779.5" y="306"/><rect fill="#F1F1F1" height="10" style="stroke:#181818;stroke-width:0.5;" width="15" x="2159.5" y="311"/><rect fill="#F1F1F1" height="2" style="stroke:#181818;stroke-width:0.5;" width="4" x="2157.5" y="313"/><rect fill="#F1F1F1" height="2" style="stroke:#181818;stroke-width:0.5;" width="4" x="2157.5" y="317"/><text fill="#000000" font-family="sans-serif" font-size="14" lengthAdjust="spacing" textLength="360" x="1794.5" y="338.9951">com_acmeair_morphia_services_BookingServiceImpl</text></a></g><!--entity com_acmeair_morphia_services_CustomerServiceImpl--><g id="elem_com_acmeair_morphia_services_CustomerServiceImpl"><a href="acmeair-acmeair.repository#_v2WPrjs-Ee-pNLs9786syg" target="_top" title="acmeair-acmeair.repository#_v2WPrjs-Ee-pNLs9786syg" xlink:actuate="onRequest" xlink:href="acmeair-acmeair.repository#_v2WPrjs-Ee-pNLs9786syg" xlink:show="new" xlink:title="acmeair-acmeair.repository#_v2WPrjs-Ee-pNLs9786syg" xlink:type="simple"><rect fill="#F1F1F1" height="46.2969" rx="2.5" ry="2.5" style="stroke:#181818;stroke-width:0.5;" width="411" x="2748" y="306"/><rect fill="#F1F1F1" height="10" style="stroke:#181818;stroke-width:0.5;" width="15" x="3139" y="311"/><rect fill="#F1F1F1" height="2" style="stroke:#181818;stroke-width:0.5;" width="4" x="3137" y="313"/><rect fill="#F1F1F1" height="2" style="stroke:#181818;stroke-width:0.5;" width="4" x="3137" y="317"/><text fill="#000000" font-family="sans-serif" font-size="14" lengthAdjust="spacing" textLength="371" x="2763" y="338.9951">com_acmeair_morphia_services_CustomerServiceImpl</text></a></g><!--entity com_acmeair_morphia_services_FlightServiceImpl--><g id="elem_com_acmeair_morphia_services_FlightServiceImpl"><a href="acmeair-acmeair.repository#_v2WPrjs-Ee-pNLs9786syg" target="_top" title="acmeair-acmeair.repository#_v2WPrjs-Ee-pNLs9786syg" xlink:actuate="onRequest" xlink:href="acmeair-acmeair.repository#_v2WPrjs-Ee-pNLs9786syg" xlink:show="new" xlink:title="acmeair-acmeair.repository#_v2WPrjs-Ee-pNLs9786syg" xlink:type="simple"><rect fill="#F1F1F1" height="46.2969" rx="2.5" ry="2.5" style="stroke:#181818;stroke-width:0.5;" width="380" x="6757.5" y="306"/><rect fill="#F1F1F1" height="10" style="stroke:#181818;stroke-width:0.5;" width="15" x="7117.5" y="311"/><rect fill="#F1F1F1" height="2" style="stroke:#181818;stroke-width:0.5;" width="4" x="7115.5" y="313"/><rect fill="#F1F1F1" height="2" style="stroke:#181818;stroke-width:0.5;" width="4" x="7115.5" y="317"/><text fill="#000000" font-family="sans-serif" font-size="14" lengthAdjust="spacing" textLength="340" x="6772.5" y="338.9951">com_acmeair_morphia_services_FlightServiceImpl</text></a></g><!--entity com_acmeair_web_BookingsREST--><g id="elem_com_acmeair_web_BookingsREST"><a href="acmeair-acmeair.repository#_v2WPrjs-Ee-pNLs9786syg" target="_top" title="acmeair-acmeair.repository#_v2WPrjs-Ee-pNLs9786syg" xlink:actuate="onRequest" xlink:href="acmeair-acmeair.repository#_v2WPrjs-Ee-pNLs9786syg" xlink:show="new" xlink:title="acmeair-acmeair.repository#_v2WPrjs-Ee-pNLs9786syg" xlink:type="simple"><rect fill="#F1F1F1" height="46.2969" rx="2.5" ry="2.5" style="stroke:#181818;stroke-width:0.5;" width="276" x="680.5" y="169"/><rect fill="#F1F1F1" height="10" style="stroke:#181818;stroke-width:0.5;" width="15" x="936.5" y="174"/><rect fill="#F1F1F1" height="2" style="stroke:#181818;stroke-width:0.5;" width="4" x="934.5" y="176"/><rect fill="#F1F1F1" height="2" style="stroke:#181818;stroke-width:0.5;" width="4" x="934.5" y="180"/><text fill="#000000" font-family="sans-serif" font-size="14" lengthAdjust="spacing" textLength="236" x="695.5" y="201.9951">com_acmeair_web_BookingsREST</text></a></g><!--entity com_acmeair_web_CustomerREST--><g id="elem_com_acmeair_web_CustomerREST"><a href="acmeair-acmeair.repository#_v2WPrjs-Ee-pNLs9786syg" target="_top" title="acmeair-acmeair.repository#_v2WPrjs-Ee-pNLs9786syg" xlink:actuate="onRequest" xlink:href="acmeair-acmeair.repository#_v2WPrjs-Ee-pNLs9786syg" xlink:show="new" xlink:title="acmeair-acmeair.repository#_v2WPrjs-Ee-pNLs9786syg" xlink:type="simple"><rect fill="#F1F1F1" height="46.2969" rx="2.5" ry="2.5" style="stroke:#181818;stroke-width:0.5;" width="279" x="4298" y="169"/><rect fill="#F1F1F1" height="10" style="stroke:#181818;stroke-width:0.5;" width="15" x="4557" y="174"/><rect fill="#F1F1F1" height="2" style="stroke:#181818;stroke-width:0.5;" width="4" x="4555" y="176"/><rect fill="#F1F1F1" height="2" style="stroke:#181818;stroke-width:0.5;" width="4" x="4555" y="180"/><text fill="#000000" font-family="sans-serif" font-size="14" lengthAdjust="spacing" textLength="239" x="4313" y="201.9951">com_acmeair_web_CustomerREST</text></a></g><!--entity com_acmeair_web_FlightsREST--><g id="elem_com_acmeair_web_FlightsREST"><a href="acmeair-acmeair.repository#_v2WPrjs-Ee-pNLs9786syg" target="_top" title="acmeair-acmeair.repository#_v2WPrjs-Ee-pNLs9786syg" xlink:actuate="onRequest" xlink:href="acmeair-acmeair.repository#_v2WPrjs-Ee-pNLs9786syg" xlink:show="new" xlink:title="acmeair-acmeair.repository#_v2WPrjs-Ee-pNLs9786syg" xlink:type="simple"><rect fill="#F1F1F1" height="46.2969" rx="2.5" ry="2.5" style="stroke:#181818;stroke-width:0.5;" width="256" x="6819.5" y="169"/><rect fill="#F1F1F1" height="10" style="stroke:#181818;stroke-width:0.5;" width="15" x="7055.5" y="174"/><rect fill="#F1F1F1" height="2" style="stroke:#181818;stroke-width:0.5;" width="4" x="7053.5" y="176"/><rect fill="#F1F1F1" height="2" style="stroke:#181818;stroke-width:0.5;" width="4" x="7053.5" y="180"/><text fill="#000000" font-family="sans-serif" font-size="14" lengthAdjust="spacing" textLength="216" x="6834.5" y="201.9951">com_acmeair_web_FlightsREST</text></a></g><!--entity com_acmeair_web_LoginREST--><g id="elem_com_acmeair_web_LoginREST"><a href="acmeair-acmeair.repository#_v2WPrjs-Ee-pNLs9786syg" target="_top" title="acmeair-acmeair.repository#_v2WPrjs-Ee-pNLs9786syg" xlink:actuate="onRequest" xlink:href="acmeair-acmeair.repository#_v2WPrjs-Ee-pNLs9786syg" xlink:show="new" xlink:title="acmeair-acmeair.repository#_v2WPrjs-Ee-pNLs9786syg" xlink:type="simple"><rect fill="#F1F1F1" height="46.2969" rx="2.5" ry="2.5" style="stroke:#181818;stroke-width:0.5;" width="248" x="5768.5" y="169"/><rect fill="#F1F1F1" height="10" style="stroke:#181818;stroke-width:0.5;" width="15" x="5996.5" y="174"/><rect fill="#F1F1F1" height="2" style="stroke:#181818;stroke-width:0.5;" width="4" x="5994.5" y="176"/><rect fill="#F1F1F1" height="2" style="stroke:#181818;stroke-width:0.5;" width="4" x="5994.5" y="180"/><text fill="#000000" font-family="sans-serif" font-size="14" lengthAdjust="spacing" textLength="208" x="5783.5" y="201.9951">com_acmeair_web_LoginREST</text></a></g><!--entity com_acmeair_web_RESTCookieSessionFilter--><g id="elem_com_acmeair_web_RESTCookieSessionFilter"><a href="acmeair-acmeair.repository#_v2WPrjs-Ee-pNLs9786syg" target="_top" title="acmeair-acmeair.repository#_v2WPrjs-Ee-pNLs9786syg" xlink:actuate="onRequest" xlink:href="acmeair-acmeair.repository#_v2WPrjs-Ee-pNLs9786syg" xlink:show="new" xlink:title="acmeair-acmeair.repository#_v2WPrjs-Ee-pNLs9786syg" xlink:type="simple"><rect fill="#F1F1F1" height="46.2969" rx="2.5" ry="2.5" style="stroke:#181818;stroke-width:0.5;" width="347" x="1679" y="169"/><rect fill="#F1F1F1" height="10" style="stroke:#181818;stroke-width:0.5;" width="15" x="2006" y="174"/><rect fill="#F1F1F1" height="2" style="stroke:#181818;stroke-width:0.5;" width="4" x="2004" y="176"/><rect fill="#F1F1F1" height="2" style="stroke:#181818;stroke-width:0.5;" width="4" x="2004" y="180"/><text fill="#000000" font-family="sans-serif" font-size="14" lengthAdjust="spacing" textLength="307" x="1694" y="201.9951">com_acmeair_web_RESTCookieSessionFilter</text></a></g><!--entity com_acmeair_wxs_service_BookingServiceImpl--><g id="elem_com_acmeair_wxs_service_BookingServiceImpl"><a href="acmeair-acmeair.repository#_v2WPrjs-Ee-pNLs9786syg" target="_top" title="acmeair-acmeair.repository#_v2WPrjs-Ee-pNLs9786syg" xlink:actuate="onRequest" xlink:href="acmeair-acmeair.repository#_v2WPrjs-Ee-pNLs9786syg" xlink:show="new" xlink:title="acmeair-acmeair.repository#_v2WPrjs-Ee-pNLs9786syg" xlink:type="simple"><rect fill="#F1F1F1" height="46.2969" rx="2.5" ry="2.5" style="stroke:#181818;stroke-width:0.5;" width="362" x="1138.5" y="306"/><rect fill="#F1F1F1" height="10" style="stroke:#181818;stroke-width:0.5;" width="15" x="1480.5" y="311"/><rect fill="#F1F1F1" height="2" style="stroke:#181818;stroke-width:0.5;" width="4" x="1478.5" y="313"/><rect fill="#F1F1F1" height="2" style="stroke:#181818;stroke-width:0.5;" width="4" x="1478.5" y="317"/><text fill="#000000" font-family="sans-serif" font-size="14" lengthAdjust="spacing" textLength="322" x="1153.5" y="338.9951">com_acmeair_wxs_service_BookingServiceImpl</text></a></g><!--entity com_acmeair_wxs_service_CustomerServiceImpl--><g id="elem_com_acmeair_wxs_service_CustomerServiceImpl"><a href="acmeair-acmeair.repository#_v2WPrjs-Ee-pNLs9786syg" target="_top" title="acmeair-acmeair.repository#_v2WPrjs-Ee-pNLs9786syg" xlink:actuate="onRequest" xlink:href="acmeair-acmeair.repository#_v2WPrjs-Ee-pNLs9786syg" xlink:show="new" xlink:title="acmeair-acmeair.repository#_v2WPrjs-Ee-pNLs9786syg" xlink:type="simple"><rect fill="#F1F1F1" height="46.2969" rx="2.5" ry="2.5" style="stroke:#181818;stroke-width:0.5;" width="373" x="4251" y="306"/><rect fill="#F1F1F1" height="10" style="stroke:#181818;stroke-width:0.5;" width="15" x="4604" y="311"/><rect fill="#F1F1F1" height="2" style="stroke:#181818;stroke-width:0.5;" width="4" x="4602" y="313"/><rect fill="#F1F1F1" height="2" style="stroke:#181818;stroke-width:0.5;" width="4" x="4602" y="317"/><text fill="#000000" font-family="sans-serif" font-size="14" lengthAdjust="spacing" textLength="333" x="4266" y="338.9951">com_acmeair_wxs_service_CustomerServiceImpl</text></a></g><!--entity com_acmeair_wxs_service_FlightServiceImpl--><g id="elem_com_acmeair_wxs_service_FlightServiceImpl"><a href="acmeair-acmeair.repository#_v2WPrjs-Ee-pNLs9786syg" target="_top" title="acmeair-acmeair.repository#_v2WPrjs-Ee-pNLs9786syg" xlink:actuate="onRequest" xlink:href="acmeair-acmeair.repository#_v2WPrjs-Ee-pNLs9786syg" xlink:show="new" xlink:title="acmeair-acmeair.repository#_v2WPrjs-Ee-pNLs9786syg" xlink:type="simple"><rect fill="#F1F1F1" height="46.2969" rx="2.5" ry="2.5" style="stroke:#181818;stroke-width:0.5;" width="342" x="6092.5" y="306"/><rect fill="#F1F1F1" height="10" style="stroke:#181818;stroke-width:0.5;" width="15" x="6414.5" y="311"/><rect fill="#F1F1F1" height="2" style="stroke:#181818;stroke-width:0.5;" width="4" x="6412.5" y="313"/><rect fill="#F1F1F1" height="2" style="stroke:#181818;stroke-width:0.5;" width="4" x="6412.5" y="317"/><text fill="#000000" font-family="sans-serif" font-size="14" lengthAdjust="spacing" textLength="302" x="6107.5" y="338.9951">com_acmeair_wxs_service_FlightServiceImpl</text></a></g><!--entity com_acmeair_wxs_utils_WXSSessionManager--><g id="elem_com_acmeair_wxs_utils_WXSSessionManager"><a href="acmeair-acmeair.repository#_v2WPrjs-Ee-pNLs9786syg" target="_top" title="acmeair-acmeair.repository#_v2WPrjs-Ee-pNLs9786syg" xlink:actuate="onRequest" xlink:href="acmeair-acmeair.repository#_v2WPrjs-Ee-pNLs9786syg" xlink:show="new" xlink:title="acmeair-acmeair.repository#_v2WPrjs-Ee-pNLs9786syg" xlink:type="simple"><rect fill="#F1F1F1" height="46.2969" rx="2.5" ry="2.5" style="stroke:#181818;stroke-width:0.5;" width="352" x="576.5" y="306"/><rect fill="#F1F1F1" height="10" style="stroke:#181818;stroke-width:0.5;" width="15" x="908.5" y="311"/><rect fill="#F1F1F1" height="2" style="stroke:#181818;stroke-width:0.5;" width="4" x="906.5" y="313"/><rect fill="#F1F1F1" height="2" style="stroke:#181818;stroke-width:0.5;" width="4" x="906.5" y="317"/><text fill="#000000" font-family="sans-serif" font-size="14" lengthAdjust="spacing" textLength="312" x="591.5" y="338.9951">com_acmeair_wxs_utils_WXSSessionManager</text></a></g><text fill="#000000" font-family="sans-serif" font-size="14" lengthAdjust="spacing" textLength="239" x="698.5" y="57.6982">SERVICE_HOST_bookings_Provider</text><rect fill="#F1F1F1" height="12" style="stroke:#181818;stroke-width:1.5;" width="12" x="812" y="73"/><text fill="#000000" font-family="sans-serif" font-size="14" lengthAdjust="spacing" textLength="217" x="4731.5" y="57.6982">SERVICE_HOST_config_Provider</text><rect fill="#F1F1F1" height="12" style="stroke:#181818;stroke-width:1.5;" width="12" x="4834" y="73"/><text fill="#000000" font-family="sans-serif" font-size="14" lengthAdjust="spacing" textLength="276" x="6103.5" y="57.6982">SERVICE_HOST_customer_byid_Provider</text><rect fill="#F1F1F1" height="12" style="stroke:#181818;stroke-width:1.5;" width="12" x="6235.5" y="73"/><text fill="#000000" font-family="sans-serif" font-size="14" lengthAdjust="spacing" textLength="216" x="7247" y="57.6982">SERVICE_HOST_flights_Provider</text><rect fill="#F1F1F1" height="12" style="stroke:#181818;stroke-width:1.5;" width="12" x="7349" y="73"/><text fill="#000000" font-family="sans-serif" font-size="14" lengthAdjust="spacing" textLength="218" x="7864" y="57.6982">SERVICE_HOST_loader_Provider</text><rect fill="#F1F1F1" height="12" style="stroke:#181818;stroke-width:1.5;" width="12" x="7967" y="73"/><text fill="#000000" font-family="sans-serif" font-size="14" lengthAdjust="spacing" textLength="208" x="7609" y="57.6982">SERVICE_HOST_login_Provider</text><rect fill="#F1F1F1" height="12" style="stroke:#181818;stroke-width:1.5;" width="12" x="7707" y="73"/><!--entity SERVICE_HOST_bookings_Delegation_Provider--><g id="elem_SERVICE_HOST_bookings_Delegation_Provider"><ellipse cx="166.5" cy="79" fill="#F1F1F1" rx="8" ry="8" style="stroke:#181818;stroke-width:0.5;"/><text fill="#000000" font-family="sans-serif" font-size="14" lengthAdjust="spacing" textLength="321" x="6" y="108.9951">SERVICE_HOST_bookings_Delegation_Provider</text></g><!--entity SERVICE_HOST_config_Delegation_Provider--><g id="elem_SERVICE_HOST_config_Delegation_Provider"><ellipse cx="8414.5" cy="79" fill="#F1F1F1" rx="8" ry="8" style="stroke:#181818;stroke-width:0.5;"/><text fill="#000000" font-family="sans-serif" font-size="14" lengthAdjust="spacing" textLength="299" x="8265" y="108.9951">SERVICE_HOST_config_Delegation_Provider</text></g><!--entity SERVICE_HOST_customer_byid_Delegation_Provider--><g id="elem_SERVICE_HOST_customer_byid_Delegation_Provider"><ellipse cx="8793.5" cy="79" fill="#F1F1F1" rx="8" ry="8" style="stroke:#181818;stroke-width:0.5;"/><text fill="#000000" font-family="sans-serif" font-size="14" lengthAdjust="spacing" textLength="358" x="8614.5" y="108.9951">SERVICE_HOST_customer_byid_Delegation_Provider</text></g><!--entity SERVICE_HOST_flights_Delegation_Provider--><g id="elem_SERVICE_HOST_flights_Delegation_Provider"><ellipse cx="9172.5" cy="79" fill="#F1F1F1" rx="8" ry="8" style="stroke:#181818;stroke-width:0.5;"/><text fill="#000000" font-family="sans-serif" font-size="14" lengthAdjust="spacing" textLength="298" x="9023.5" y="108.9951">SERVICE_HOST_flights_Delegation_Provider</text></g><!--entity SERVICE_HOST_loader_Delegation_Provider--><g id="elem_SERVICE_HOST_loader_Delegation_Provider"><ellipse cx="9863.5" cy="79" fill="#F1F1F1" rx="8" ry="8" style="stroke:#181818;stroke-width:0.5;"/><text fill="#000000" font-family="sans-serif" font-size="14" lengthAdjust="spacing" textLength="300" x="9713.5" y="108.9951">SERVICE_HOST_loader_Delegation_Provider</text></g><!--entity SERVICE_HOST_login_Delegation_Provider--><g id="elem_SERVICE_HOST_login_Delegation_Provider"><ellipse cx="9517.5" cy="79" fill="#F1F1F1" rx="8" ry="8" style="stroke:#181818;stroke-width:0.5;"/><text fill="#000000" font-family="sans-serif" font-size="14" lengthAdjust="spacing" textLength="290" x="9372.5" y="108.9951">SERVICE_HOST_login_Delegation_Provider</text></g><!--link SERVICE_HOST_bookings_Delegation_Provider to SERVICE_HOST_bookings_Provider--><g id="link_SERVICE_HOST_bookings_Delegation_Provider_SERVICE_HOST_bookings_Provider"><path d="M175.72,79 C246.55,79 752.8,79 811.88,79 " fill="none" id="SERVICE_HOST_bookings_Delegation_Provider-SERVICE_HOST_bookings_Provider" style="stroke:#181818;stroke-width:1.0;"/></g><!--link SERVICE_HOST_bookings_Provider to com_acmeair_web_BookingsREST--><g id="link_SERVICE_HOST_bookings_Provider_com_acmeair_web_BookingsREST"><path d="M818.5,85.06 C818.5,99.65 818.5,142.46 818.5,168.98 " fill="none" id="SERVICE_HOST_bookings_Provider-com_acmeair_web_BookingsREST" style="stroke:#181818;stroke-width:1.0;"/></g><!--link SERVICE_HOST_config_Delegation_Provider to SERVICE_HOST_config_Provider--><g id="link_SERVICE_HOST_config_Delegation_Provider_SERVICE_HOST_config_Provider"><path d="M8405.36,75.91 C8379.29,67.28 8302.22,43.04 8236,35 C7999.07,6.23 6326.63,30.79 6088,35 C5562.55,44.26 4913.18,75.46 4846.16,78.72 " fill="none" id="SERVICE_HOST_config_Delegation_Provider-SERVICE_HOST_config_Provider" style="stroke:#181818;stroke-width:1.0;"/></g><!--link SERVICE_HOST_config_Provider to com_acmeair_config_AcmeAirConfiguration--><g id="link_SERVICE_HOST_config_Provider_com_acmeair_config_AcmeAirConfiguration"><path d="M4833.81,80.96 C4781.02,88.53 4428.33,139.11 4219.95,168.99 " fill="none" id="SERVICE_HOST_config_Provider-com_acmeair_config_AcmeAirConfiguration" style="stroke:#181818;stroke-width:1.0;"/></g><!--link SERVICE_HOST_customer_byid_Delegation_Provider to SERVICE_HOST_customer_byid_Provider--><g id="link_SERVICE_HOST_customer_byid_Delegation_Provider_SERVICE_HOST_customer_byid_Provider"><path d="M8784.31,76.5 C8754.18,68.44 8655.5,43.21 8572,35 C8277.2,6 7535.15,28.47 7239,35 C6823.07,44.17 6310.3,74.82 6247.83,78.61 " fill="none" id="SERVICE_HOST_customer_byid_Delegation_Provider-SERVICE_HOST_customer_byid_Provider" style="stroke:#181818;stroke-width:1.0;"/></g><!--link SERVICE_HOST_customer_byid_Provider to com_acmeair_web_CustomerREST--><g id="link_SERVICE_HOST_customer_byid_Provider_com_acmeair_web_CustomerREST"><path d="M6235.4,80.03 C6155.27,80.5 5301.62,87.18 4617.5,161 C4598.13,163.09 4577.68,165.91 4557.78,168.98 " fill="none" id="SERVICE_HOST_customer_byid_Provider-com_acmeair_web_CustomerREST" style="stroke:#181818;stroke-width:1.0;"/></g><!--link SERVICE_HOST_flights_Delegation_Provider to SERVICE_HOST_flights_Provider--><g id="link_SERVICE_HOST_flights_Delegation_Provider_SERVICE_HOST_flights_Provider"><path d="M9163.46,76.15 C9136.24,67.74 9052.52,43.11 8981,35 C8828.75,17.73 7754.63,21.49 7602,35 C7504.57,43.63 7387.99,71.08 7361.18,77.6 " fill="none" id="SERVICE_HOST_flights_Delegation_Provider-SERVICE_HOST_flights_Provider" style="stroke:#181818;stroke-width:1.0;"/></g><!--link SERVICE_HOST_flights_Provider to com_acmeair_web_FlightsREST--><g id="link_SERVICE_HOST_flights_Provider_com_acmeair_web_FlightsREST"><path d="M7348.76,81.83 C7312.13,91.8 7134.8,140.04 7028.52,168.96 " fill="none" id="SERVICE_HOST_flights_Provider-com_acmeair_web_FlightsREST" style="stroke:#181818;stroke-width:1.0;"/></g><!--link SERVICE_HOST_loader_Delegation_Provider to SERVICE_HOST_loader_Provider--><g id="link_SERVICE_HOST_loader_Delegation_Provider_SERVICE_HOST_loader_Provider"><path d="M9854.41,76.15 C9827.04,67.74 9742.88,43.11 9671,35 C9514.99,17.4 8414.54,22.97 8258,35 C8144.88,43.7 8008.68,71.57 7979.27,77.77 " fill="none" id="SERVICE_HOST_loader_Delegation_Provider-SERVICE_HOST_loader_Provider" style="stroke:#181818;stroke-width:1.0;"/></g><!--link SERVICE_HOST_loader_Provider to com_acmeair_config_LoaderREST--><g id="link_SERVICE_HOST_loader_Provider_com_acmeair_config_LoaderREST"><path d="M7973.5,85.06 C7973.5,99.65 7973.5,142.46 7973.5,168.98 " fill="none" id="SERVICE_HOST_loader_Provider-com_acmeair_config_LoaderREST" style="stroke:#181818;stroke-width:1.0;"/></g><!--link SERVICE_HOST_login_Delegation_Provider to SERVICE_HOST_login_Provider--><g id="link_SERVICE_HOST_login_Delegation_Provider_SERVICE_HOST_login_Provider"><path d="M9508.27,76.03 C9481.24,67.51 9399.75,43.07 9330,35 C9248.65,25.58 7936.97,22.78 7856,35 C7800.95,43.3 7737.86,68.69 7719.06,76.61 " fill="none" id="SERVICE_HOST_login_Delegation_Provider-SERVICE_HOST_login_Provider" style="stroke:#181818;stroke-width:1.0;"/></g><!--link SERVICE_HOST_login_Provider to com_acmeair_web_LoginREST--><g id="link_SERVICE_HOST_login_Provider_com_acmeair_web_LoginREST"><path d="M7706.96,80.82 C7677.22,84.51 7551.8,99.79 7448.5,108 C6916.57,150.26 6280.58,176.67 6016.69,186.57 " fill="none" id="SERVICE_HOST_login_Provider-com_acmeair_web_LoginREST" style="stroke:#181818;stroke-width:1.0;"/></g><!--link com_acmeair_config_LoaderREST to com_acmeair_loader_Loader--><g id="link_com_acmeair_config_LoaderREST_com_acmeair_loader_Loader"><path d="M7973.5,215.29 C7973.5,240.31 7973.5,280.65 7973.5,305.67 " fill="none" id="com_acmeair_config_LoaderREST-com_acmeair_loader_Loader" style="stroke:#181818;stroke-width:1.0;"/><text fill="#000000" font-family="sans-serif" font-size="13" lengthAdjust="spacing" textLength="244" x="7981.5" y="265.0669">com_acmeair_loader_Loader_Provider</text><path d="M7980.5711,253.4089 A10,10 0 0 0 7966.4289 253.4089" fill="none" style="stroke:#181818;stroke-width:1.5;"/><ellipse cx="7973.5" cy="260.48" fill="#FFFFFF" rx="6" ry="6" style="stroke:#181818;stroke-width:1.5;"/></g><!--link com_acmeair_config_AcmeAirConfiguration to com_acmeair_wxs_service_BookingServiceImpl--><g id="link_com_acmeair_config_AcmeAirConfiguration_com_acmeair_wxs_service_BookingServiceImpl"><path d="M3898.79,194.23 C3348.55,198.55 1626.68,214.45 1511.5,245 C1483.63,252.39 1480.68,263.9 1454.5,276 C1431.13,286.8 1404.83,297.29 1381.7,305.98 " fill="none" id="com_acmeair_config_AcmeAirConfiguration-com_acmeair_wxs_service_BookingServiceImpl" style="stroke:#181818;stroke-width:1.0;"/><text fill="#000000" font-family="sans-serif" font-size="13" lengthAdjust="spacing" textLength="303" x="1519.5" y="265.0669">com_acmeair_service_BookingService_Provider</text><path d="M2549.1823,216.7342 A10,10 0 0 0 2548.9529 202.5939" fill="none" style="stroke:#181818;stroke-width:1.5;"/><ellipse cx="2541.9975" cy="209.7788" fill="#FFFFFF" rx="6" ry="6" style="stroke:#181818;stroke-width:1.5;"/></g><!--link com_acmeair_web_BookingsREST to com_acmeair_morphia_services_BookingServiceImpl--><g id="link_com_acmeair_web_BookingsREST_com_acmeair_morphia_services_BookingServiceImpl"><path d="M956.83,204.46 C1002.6,211.98 1052.73,224.43 1095.5,245 C1114.53,254.15 1111.94,268.05 1131.5,276 C1161.06,288.02 1538.2,307.55 1779.46,318.95 " fill="none" id="com_acmeair_web_BookingsREST-com_acmeair_morphia_services_BookingServiceImpl" style="stroke:#181818;stroke-width:1.0;"/><text fill="#000000" font-family="sans-serif" font-size="13" lengthAdjust="spacing" textLength="303" x="1139.5" y="265.0669">com_acmeair_service_BookingService_Provider</text><path d="M1369.4647,290.2193 A10,10 0 0 0 1368.6043 304.3353" fill="none" style="stroke:#181818;stroke-width:1.5;"/><ellipse cx="1376.0925" cy="297.7075" fill="#FFFFFF" rx="6" ry="6" style="stroke:#181818;stroke-width:1.5;"/></g><!--link com_acmeair_config_AcmeAirConfiguration to com_acmeair_morphia_services_BookingServiceImpl--><g id="link_com_acmeair_config_AcmeAirConfiguration_com_acmeair_morphia_services_BookingServiceImpl"><path d="M3898.72,193.6 C3478.42,195.69 2402.77,204.95 2245.5,245 C2216.03,252.51 2212.97,265.31 2184.5,276 C2152.88,287.88 2117.51,297.93 2085.17,305.94 " fill="none" id="com_acmeair_config_AcmeAirConfiguration-com_acmeair_morphia_services_BookingServiceImpl" style="stroke:#181818;stroke-width:1.0;"/><text fill="#000000" font-family="sans-serif" font-size="13" lengthAdjust="spacing" textLength="303" x="2253.5" y="265.0669">com_acmeair_service_BookingService_Provider</text><path d="M2980.7002,211.9772 A10,10 0 0 0 2980.3859 197.8385" fill="none" style="stroke:#181818;stroke-width:1.5;"/><ellipse cx="2973.4738" cy="205.065" fill="#FFFFFF" rx="6" ry="6" style="stroke:#181818;stroke-width:1.5;"/></g><!--link com_acmeair_web_BookingsREST to com_acmeair_wxs_service_BookingServiceImpl--><g id="link_com_acmeair_web_BookingsREST_com_acmeair_wxs_service_BookingServiceImpl"><path d="M680.47,200.74 C562.82,208.78 409.75,223.27 390.5,245 C381.36,255.31 381.02,266 390.5,276 C411.78,298.46 915.62,304.26 946.5,306 C1009,309.53 1077.38,313.52 1138.33,317.13 " fill="none" id="com_acmeair_web_BookingsREST-com_acmeair_wxs_service_BookingServiceImpl" style="stroke:#181818;stroke-width:1.0;"/><text fill="#000000" font-family="sans-serif" font-size="13" lengthAdjust="spacing" textLength="303" x="398.5" y="265.0669">com_acmeair_service_BookingService_Provider</text><path d="M939.8379,298.5423 A10,10 0 0 0 939.0423 312.6621" fill="none" style="stroke:#181818;stroke-width:1.5;"/><ellipse cx="946.5" cy="306" fill="#FFFFFF" rx="6" ry="6" style="stroke:#181818;stroke-width:1.5;"/></g><!--link com_acmeair_loader_CustomerLoader to com_acmeair_wxs_service_CustomerServiceImpl--><g id="link_com_acmeair_loader_CustomerLoader_com_acmeair_wxs_service_CustomerServiceImpl"><path d="M4788.37,215.32 C4788.63,234.2 4785.67,260.56 4769.5,276 C4747.29,297.2 4687.22,309.75 4624.18,317.19 " fill="none" id="com_acmeair_loader_CustomerLoader-com_acmeair_wxs_service_CustomerServiceImpl" style="stroke:#181818;stroke-width:1.0;"/><text fill="#000000" font-family="sans-serif" font-size="13" lengthAdjust="spacing" textLength="315" x="4792.5" y="265.0669">com_acmeair_service_CustomerService_Provider</text><path d="M4720.7819,306.8059 A10,10 0 0 0 4717.2022 293.1243" fill="none" style="stroke:#181818;stroke-width:1.5;"/><ellipse cx="4712.1513" cy="301.755" fill="#FFFFFF" rx="6" ry="6" style="stroke:#181818;stroke-width:1.5;"/></g><!--link com_acmeair_config_AcmeAirConfiguration to com_acmeair_wxs_service_CustomerServiceImpl--><g id="link_com_acmeair_config_AcmeAirConfiguration_com_acmeair_wxs_service_CustomerServiceImpl"><path d="M4067.79,215.23 C4070.15,234.32 4076.67,261.05 4094.5,276 C4119.36,296.85 4184.06,309.36 4250.65,316.86 " fill="none" id="com_acmeair_config_AcmeAirConfiguration-com_acmeair_wxs_service_CustomerServiceImpl" style="stroke:#181818;stroke-width:1.0;"/><text fill="#000000" font-family="sans-serif" font-size="13" lengthAdjust="spacing" textLength="315" x="4102.5" y="265.0669">com_acmeair_service_CustomerService_Provider</text><path d="M4151.714,292.9021 A10,10 0 0 0 4148.3921 306.6485" fill="none" style="stroke:#181818;stroke-width:1.5;"/><ellipse cx="4156.9262" cy="301.4363" fill="#FFFFFF" rx="6" ry="6" style="stroke:#181818;stroke-width:1.5;"/></g><!--link com_acmeair_config_AcmeAirConfiguration to com_acmeair_morphia_services_CustomerServiceImpl--><g id="link_com_acmeair_config_AcmeAirConfiguration_com_acmeair_morphia_services_CustomerServiceImpl"><path d="M3898.8,192.7 C3519.45,192.86 2624.68,198.21 2579.5,245 C2569.93,254.91 2570.45,265.61 2579.5,276 C2602.91,302.88 2673.92,316.31 2747.86,322.86 " fill="none" id="com_acmeair_config_AcmeAirConfiguration-com_acmeair_morphia_services_CustomerServiceImpl" style="stroke:#181818;stroke-width:1.0;"/><text fill="#000000" font-family="sans-serif" font-size="13" lengthAdjust="spacing" textLength="315" x="2587.5" y="265.0669">com_acmeair_service_CustomerService_Provider</text><path d="M3121.089,208.2484 A10,10 0 0 0 3120.7209 194.111" fill="none" style="stroke:#181818;stroke-width:1.5;"/><ellipse cx="3113.8363" cy="201.3638" fill="#FFFFFF" rx="6" ry="6" style="stroke:#181818;stroke-width:1.5;"/></g><!--link com_acmeair_web_RESTCookieSessionFilter to com_acmeair_wxs_service_CustomerServiceImpl--><g id="link_com_acmeair_web_RESTCookieSessionFilter_com_acmeair_wxs_service_CustomerServiceImpl"><path d="M2026.18,194.61 C2447.34,198.99 3499.93,213.04 3656.5,245 C3693.46,252.54 3698.72,267.62 3735.5,276 C3829.93,297.51 4076.53,312.32 4250.67,320.48 " fill="none" id="com_acmeair_web_RESTCookieSessionFilter-com_acmeair_wxs_service_CustomerServiceImpl" style="stroke:#181818;stroke-width:1.0;"/><text fill="#000000" font-family="sans-serif" font-size="13" lengthAdjust="spacing" textLength="315" x="3743.5" y="265.0669">com_acmeair_service_CustomerService_Provider</text><path d="M2933.662,202.2237 A10,10 0 0 0 2933.3224 216.3617" fill="none" style="stroke:#181818;stroke-width:1.5;"/><ellipse cx="2940.5613" cy="209.4625" fill="#FFFFFF" rx="6" ry="6" style="stroke:#181818;stroke-width:1.5;"/></g><!--link com_acmeair_web_CustomerREST to com_acmeair_wxs_service_CustomerServiceImpl--><g id="link_com_acmeair_web_CustomerREST_com_acmeair_wxs_service_CustomerServiceImpl"><path d="M4435.95,215 C4435.37,224.26 4434.78,235.15 4434.5,245 C4434.1,258.77 4434.1,262.23 4434.5,276 C4434.78,285.85 4435.37,296.74 4435.95,306 " fill="none" id="com_acmeair_web_CustomerREST-com_acmeair_wxs_service_CustomerServiceImpl" style="stroke:#181818;stroke-width:1.0;"/><text fill="#000000" font-family="sans-serif" font-size="13" lengthAdjust="spacing" textLength="315" x="4442.5" y="265.0669">com_acmeair_service_CustomerService_Provider</text><path d="M4441.2711,253.4289 A10,10 0 0 0 4427.1289 253.4289" fill="none" style="stroke:#181818;stroke-width:1.5;"/><ellipse cx="4434.2" cy="260.5" fill="#FFFFFF" rx="6" ry="6" style="stroke:#181818;stroke-width:1.5;"/></g><!--link com_acmeair_web_LoginREST to com_acmeair_morphia_services_CustomerServiceImpl--><g id="link_com_acmeair_web_LoginREST_com_acmeair_morphia_services_CustomerServiceImpl"><path d="M5768.5,194.69 C5592.5,198.33 5279.71,209.7 5172.5,245 C5148.02,253.06 5148.16,268.53 5123.5,276 C5076.92,290.1 3691.87,315.32 3159.33,324.52 " fill="none" id="com_acmeair_web_LoginREST-com_acmeair_morphia_services_CustomerServiceImpl" style="stroke:#181818;stroke-width:1.0;"/><text fill="#000000" font-family="sans-serif" font-size="13" lengthAdjust="spacing" textLength="315" x="5180.5" y="265.0669">com_acmeair_service_CustomerService_Provider</text><path d="M4330.875,309.0112 A10,10 0 0 0 4330.5637 294.8725" fill="none" style="stroke:#181818;stroke-width:1.5;"/><ellipse cx="4323.65" cy="302.0975" fill="#FFFFFF" rx="6" ry="6" style="stroke:#181818;stroke-width:1.5;"/></g><!--link com_acmeair_loader_CustomerLoader to com_acmeair_morphia_services_CustomerServiceImpl--><g id="link_com_acmeair_loader_CustomerLoader_com_acmeair_morphia_services_CustomerServiceImpl"><path d="M4634.91,211.66 C4621.26,212.95 4607.64,214.09 4594.5,215 C4523.93,219.86 3387.53,219.6 3321.5,245 C3301.79,252.58 3304.66,267.14 3285.5,276 C3246.45,294.06 3202.34,306.03 3159.33,313.92 " fill="none" id="com_acmeair_loader_CustomerLoader-com_acmeair_morphia_services_CustomerServiceImpl" style="stroke:#181818;stroke-width:1.0;"/><text fill="#000000" font-family="sans-serif" font-size="13" lengthAdjust="spacing" textLength="315" x="3329.5" y="265.0669">com_acmeair_service_CustomerService_Provider</text><path d="M3963.4553,229.2808 A10,10 0 0 0 3963.2808 215.1397" fill="none" style="stroke:#181818;stroke-width:1.5;"/><ellipse cx="3956.2975" cy="222.2975" fill="#FFFFFF" rx="6" ry="6" style="stroke:#181818;stroke-width:1.5;"/></g><!--link com_acmeair_web_CustomerREST to com_acmeair_morphia_services_CustomerServiceImpl--><g id="link_com_acmeair_web_CustomerREST_com_acmeair_morphia_services_CustomerServiceImpl"><path d="M4297.98,210.95 C4282.32,212.53 4266.58,213.94 4251.5,215 C4215.44,217.54 2975.76,219.15 2950.5,245 C2935.18,260.68 2939.11,287 2944.83,305.8 " fill="none" id="com_acmeair_web_CustomerREST-com_acmeair_morphia_services_CustomerServiceImpl" style="stroke:#181818;stroke-width:1.0;"/><text fill="#000000" font-family="sans-serif" font-size="13" lengthAdjust="spacing" textLength="315" x="2958.5" y="265.0669">com_acmeair_service_CustomerService_Provider</text><path d="M3604.1085,228.2413 A10,10 0 0 0 3603.9326 214.1003" fill="none" style="stroke:#181818;stroke-width:1.5;"/><ellipse cx="3596.95" cy="221.2588" fill="#FFFFFF" rx="6" ry="6" style="stroke:#181818;stroke-width:1.5;"/></g><!--link com_acmeair_web_LoginREST to com_acmeair_wxs_service_CustomerServiceImpl--><g id="link_com_acmeair_web_LoginREST_com_acmeair_wxs_service_CustomerServiceImpl"><path d="M5888.69,215.21 C5884.04,234.83 5874.09,262.39 5853.5,276 C5803.14,309.29 4997.34,322.1 4624.32,326.27 " fill="none" id="com_acmeair_web_LoginREST-com_acmeair_wxs_service_CustomerServiceImpl" style="stroke:#181818;stroke-width:1.0;"/><text fill="#000000" font-family="sans-serif" font-size="13" lengthAdjust="spacing" textLength="315" x="5885.5" y="265.0669">com_acmeair_service_CustomerService_Provider</text><path d="M5367.1943,318.9036 A10,10 0 0 0 5366.7561 304.7682" fill="none" style="stroke:#181818;stroke-width:1.5;"/><ellipse cx="5359.9075" cy="312.055" fill="#FFFFFF" rx="6" ry="6" style="stroke:#181818;stroke-width:1.5;"/></g><!--link com_acmeair_web_RESTCookieSessionFilter to com_acmeair_morphia_services_CustomerServiceImpl--><g id="link_com_acmeair_web_RESTCookieSessionFilter_com_acmeair_morphia_services_CustomerServiceImpl"><path d="M1843.93,215.11 C1838.27,233.85 1834.37,260.14 1849.5,276 C1864.79,292.03 2432.62,311.99 2747.78,321.87 " fill="none" id="com_acmeair_web_RESTCookieSessionFilter-com_acmeair_morphia_services_CustomerServiceImpl" style="stroke:#181818;stroke-width:1.0;"/><text fill="#000000" font-family="sans-serif" font-size="13" lengthAdjust="spacing" textLength="315" x="1857.5" y="265.0669">com_acmeair_service_CustomerService_Provider</text><path d="M2179.442,293.8601 A10,10 0 0 0 2178.8076 307.988" fill="none" style="stroke:#181818;stroke-width:1.5;"/><ellipse cx="2186.1888" cy="301.2413" fill="#FFFFFF" rx="6" ry="6" style="stroke:#181818;stroke-width:1.5;"/></g><!--link com_acmeair_loader_FlightLoader to com_acmeair_wxs_service_FlightServiceImpl--><g id="link_com_acmeair_loader_FlightLoader_com_acmeair_wxs_service_FlightServiceImpl"><path d="M7334.96,215.09 C7317.6,223.4 7298.62,233.62 7282.5,245 C7266.32,256.42 7268.65,268.09 7250.5,276 C7241.27,280.02 6714.7,306.11 6434.58,319.74 " fill="none" id="com_acmeair_loader_FlightLoader-com_acmeair_wxs_service_FlightServiceImpl" style="stroke:#181818;stroke-width:1.0;"/><text fill="#000000" font-family="sans-serif" font-size="13" lengthAdjust="spacing" textLength="286" x="7290.5" y="265.0669">com_acmeair_service_FlightService_Provider</text><path d="M6951.5526,300.9605 A10,10 0 0 0 6950.818 286.8374" fill="none" style="stroke:#181818;stroke-width:1.5;"/><ellipse cx="6944.1238" cy="294.2663" fill="#FFFFFF" rx="6" ry="6" style="stroke:#181818;stroke-width:1.5;"/></g><!--link com_acmeair_config_AcmeAirConfiguration to com_acmeair_wxs_service_FlightServiceImpl--><g id="link_com_acmeair_config_AcmeAirConfiguration_com_acmeair_wxs_service_FlightServiceImpl"><path d="M4234.03,211.48 C4249.73,212.84 4265.4,214.04 4280.5,215 C4348.77,219.33 5448.41,218.55 5511.5,245 C5529.76,252.66 5525.43,267.91 5543.5,276 C5592.22,297.81 5895,313.62 6092.09,321.76 " fill="none" id="com_acmeair_config_AcmeAirConfiguration-com_acmeair_wxs_service_FlightServiceImpl" style="stroke:#181818;stroke-width:1.0;"/><text fill="#000000" font-family="sans-serif" font-size="13" lengthAdjust="spacing" textLength="286" x="5551.5" y="265.0669">com_acmeair_service_FlightService_Provider</text><path d="M4890.9606,214.5458 A10,10 0 0 0 4890.7833 228.6869" fill="none" style="stroke:#181818;stroke-width:1.5;"/><ellipse cx="4897.9425" cy="221.705" fill="#FFFFFF" rx="6" ry="6" style="stroke:#181818;stroke-width:1.5;"/></g><!--link com_acmeair_web_FlightsREST to com_acmeair_wxs_service_FlightServiceImpl--><g id="link_com_acmeair_web_FlightsREST_com_acmeair_wxs_service_FlightServiceImpl"><path d="M6819.3,193.5 C6630.95,195.59 6297.6,204.98 6260.5,245 C6245.6,261.07 6249.45,287.32 6255.04,305.99 " fill="none" id="com_acmeair_web_FlightsREST-com_acmeair_wxs_service_FlightServiceImpl" style="stroke:#181818;stroke-width:1.0;"/><text fill="#000000" font-family="sans-serif" font-size="13" lengthAdjust="spacing" textLength="286" x="6268.5" y="265.0669">com_acmeair_service_FlightService_Provider</text><path d="M6490.7174,211.5994 A10,10 0 0 0 6489.7544 197.4901" fill="none" style="stroke:#181818;stroke-width:1.5;"/><ellipse cx="6483.1813" cy="205.0263" fill="#FFFFFF" rx="6" ry="6" style="stroke:#181818;stroke-width:1.5;"/></g><!--link com_acmeair_config_AcmeAirConfiguration to com_acmeair_morphia_services_FlightServiceImpl--><g id="link_com_acmeair_config_AcmeAirConfiguration_com_acmeair_morphia_services_FlightServiceImpl"><path d="M4234.02,211.67 C4249.72,212.98 4265.4,214.13 4280.5,215 C4407.3,222.34 6442.64,216.88 6566.5,245 C6598.5,252.26 6602.14,266.34 6633.5,276 C6674.69,288.68 6719.93,298.47 6762.93,305.94 " fill="none" id="com_acmeair_config_AcmeAirConfiguration-com_acmeair_morphia_services_FlightServiceImpl" style="stroke:#181818;stroke-width:1.0;"/><text fill="#000000" font-family="sans-serif" font-size="13" lengthAdjust="spacing" textLength="286" x="6641.5" y="265.0669">com_acmeair_service_FlightService_Provider</text><path d="M5417.5717,215.0964 A10,10 0 0 0 5417.4914 229.2383" fill="none" style="stroke:#181818;stroke-width:1.5;"/><ellipse cx="5424.6025" cy="222.2075" fill="#FFFFFF" rx="6" ry="6" style="stroke:#181818;stroke-width:1.5;"/></g><!--link com_acmeair_web_FlightsREST to com_acmeair_morphia_services_FlightServiceImpl--><g id="link_com_acmeair_web_FlightsREST_com_acmeair_morphia_services_FlightServiceImpl"><path d="M6945.95,215 C6945.37,224.26 6944.78,235.15 6944.5,245 C6944.1,258.77 6944.1,262.23 6944.5,276 C6944.78,285.85 6945.37,296.74 6945.95,306 " fill="none" id="com_acmeair_web_FlightsREST-com_acmeair_morphia_services_FlightServiceImpl" style="stroke:#181818;stroke-width:1.0;"/><text fill="#000000" font-family="sans-serif" font-size="13" lengthAdjust="spacing" textLength="286" x="6952.5" y="265.0669">com_acmeair_service_FlightService_Provider</text><path d="M6951.2711,253.4289 A10,10 0 0 0 6937.1289 253.4289" fill="none" style="stroke:#181818;stroke-width:1.5;"/><ellipse cx="6944.2" cy="260.5" fill="#FFFFFF" rx="6" ry="6" style="stroke:#181818;stroke-width:1.5;"/></g><!--link com_acmeair_loader_FlightLoader to com_acmeair_morphia_services_FlightServiceImpl--><g id="link_com_acmeair_loader_FlightLoader_com_acmeair_morphia_services_FlightServiceImpl"><path d="M7523.65,209.19 C7579.38,221.19 7624.2,241.64 7592.5,276 C7561.98,309.08 7316.93,321.12 7137.89,325.5 " fill="none" id="com_acmeair_loader_FlightLoader-com_acmeair_morphia_services_FlightServiceImpl" style="stroke:#181818;stroke-width:1.0;"/><text fill="#000000" font-family="sans-serif" font-size="13" lengthAdjust="spacing" textLength="286" x="7610.5" y="265.0669">com_acmeair_service_FlightService_Provider</text><path d="M7428.5534,317.9368 A10,10 0 0 0 7427.3143 303.8491" fill="none" style="stroke:#181818;stroke-width:1.5;"/><ellipse cx="7420.89" cy="311.5125" fill="#FFFFFF" rx="6" ry="6" style="stroke:#181818;stroke-width:1.5;"/></g><!--link com_acmeair_web_RESTCookieSessionFilter to com_acmeair_wxs_utils_WXSSessionManager--><g id="link_com_acmeair_web_RESTCookieSessionFilter_com_acmeair_wxs_utils_WXSSessionManager"><path d="M1678.72,194.99 C1376.01,199.31 781,211.98 749.5,245 C734.37,260.86 738.27,287.15 743.93,305.89 " fill="none" id="com_acmeair_web_RESTCookieSessionFilter-com_acmeair_wxs_utils_WXSSessionManager" style="stroke:#181818;stroke-width:1.0;"/><text fill="#000000" font-family="sans-serif" font-size="13" lengthAdjust="spacing" textLength="326" x="757.5" y="265.0669">com_acmeair_service_TransactionService_Provider</text><path d="M1119.7619,216.0071 A10,10 0 0 0 1119.1808 201.8769" fill="none" style="stroke:#181818;stroke-width:1.5;"/><ellipse cx="1112.4063" cy="209.2325" fill="#FFFFFF" rx="6" ry="6" style="stroke:#181818;stroke-width:1.5;"/></g><!--SRC=[pLXTRvim57tFhq3QI_V0DFMX-tZhMAfMojQgH6kbA48ETQWtWv5jqg9f_tqGeEN3DivY9tkA72xd7iwz-1x3Vg4a1HJ4pXezUuY66Cx02kBh3QGOf2bA8eVJ34xOIs18ufGaCE4-pp5qiXYVJaxUElxqziULDmqkh_rvi2AaY8zOy1LY606EI1BSKB913v0EWaEIh56a5venJc98WrME7hJkM6CKFN8z8fY0uc_Dq0WbmaWAGmwIg536pnc7iVDxiYWa2q0OGu1eyxJdnV8SKM-xokWMPEai5dMOM_- -ep0b3752ypV1vlJkXlvaxXIwwVSP-_JXundBe-LIc62sVPZRgJyt0rkBuzKLgE2DGbziIsK1s2HaJ6ZwY4308DsW4BBWIzNgVhM-YbDiAL6ZlFrCLI6Cvtc2gqOjPgulIzH66hEebGo6gSxAZSCiP8dcbRf27p9Mx2CN27DJ_Vxqp9h6iDRgxHpMkhoTn5Q35oaoZZ0BxkxzkXRVG0AYFOgH4iebi_Lbv6YFNiVzDwZM_UetMa2t7aVY3FBHtwUg0oEZgHgv8iOTao79E6P41lnt1bM9tjdm18_Gk1vn7eKdwjFM0r9HRU-Y0gRrY1RZomrPdwSEp4Xxj0oJa6Tf-6Ju4ZCuP3a6ebBoTNIC6Zxtv7qFe6U5FZlIYw_yz7thCD_OtEWI44TAc0nzn32zbatRWyEEQjYceoE9nOf8pWPg3i99BoRH2pNVeSVcecVszo6aD8e75cTesOz0e6N4Zr4FxLVcCAqnLex3i53Mn7f7xF1w7Am_kjz4rA88JZLY1fr0yvkfKHw3W_Z_gu7ETnIhGjWbeDcHzbNOSOn9J-HY5dCA4WR2iiW3AdycVm40]--></g></svg>