<?xml version="1.0" encoding="us-ascii" standalone="no"?><svg xmlns="http://www.w3.org/2000/svg" xmlns:xlink="http://www.w3.org/1999/xlink" contentStyleType="text/css" height="223px" preserveAspectRatio="none" style="width:4220px;height:223px;background:#FFFFFF;" version="1.1" viewBox="0 0 4220 223" width="4220px" zoomAndPan="magnify"><defs/><g><!--cluster nodeteammates_common_util_Logger_Provider--><g id="cluster_nodeteammates_common_util_Logger_Provider"><polygon fill="none" points="16,98.41,26,88.41,461,88.41,461,196.41,451,206.41,16,206.41,16,98.41" style="stroke:#181818;stroke-width:1.0;"/><line style="stroke:#181818;stroke-width:1.0;" x1="451" x2="461" y1="98.41" y2="88.41"/><line style="stroke:#181818;stroke-width:1.0;" x1="16" x2="451" y1="98.41" y2="98.41"/><line style="stroke:#181818;stroke-width:1.0;" x1="451" x2="451" y1="98.41" y2="206.41"/><text fill="#000000" font-family="sans-serif" font-size="14" font-weight="bold" lengthAdjust="spacing" textLength="369" x="50" y="114.4051">nodeteammates_common_util_Logger_Provider</text></g><!--cluster nodeteammates_ui_servlets_DevServerLoginServlet--><g id="cluster_nodeteammates_ui_servlets_DevServerLoginServlet"><polygon fill="none" points="946,106.41,956,96.41,1430,96.41,1430,188.41,1420,198.41,946,198.41,946,106.41" style="stroke:#181818;stroke-width:1.0;"/><line style="stroke:#181818;stroke-width:1.0;" x1="1420" x2="1430" y1="106.41" y2="96.41"/><line style="stroke:#181818;stroke-width:1.0;" x1="946" x2="1420" y1="106.41" y2="106.41"/><line style="stroke:#181818;stroke-width:1.0;" x1="1420" x2="1420" y1="106.41" y2="198.41"/><text fill="#000000" font-family="sans-serif" font-size="14" font-weight="bold" lengthAdjust="spacing" textLength="408" x="980" y="122.4051">nodeteammates_ui_servlets_DevServerLoginServlet</text></g><!--cluster nodeteammates_ui_servlets_HealthCheckServlet--><g id="cluster_nodeteammates_ui_servlets_HealthCheckServlet"><polygon fill="none" points="1454,106.41,1464,96.41,1911,96.41,1911,188.41,1901,198.41,1454,198.41,1454,106.41" style="stroke:#181818;stroke-width:1.0;"/><line style="stroke:#181818;stroke-width:1.0;" x1="1901" x2="1911" y1="106.41" y2="96.41"/><line style="stroke:#181818;stroke-width:1.0;" x1="1454" x2="1901" y1="106.41" y2="106.41"/><line style="stroke:#181818;stroke-width:1.0;" x1="1901" x2="1901" y1="106.41" y2="198.41"/><text fill="#000000" font-family="sans-serif" font-size="14" font-weight="bold" lengthAdjust="spacing" textLength="381" x="1488" y="122.4051">nodeteammates_ui_servlets_HealthCheckServlet</text></g><!--cluster nodeteammates_ui_servlets_LegacyUrlMapper--><g id="cluster_nodeteammates_ui_servlets_LegacyUrlMapper"><polygon fill="none" points="1935,106.41,1945,96.41,2374,96.41,2374,188.41,2364,198.41,1935,198.41,1935,106.41" style="stroke:#181818;stroke-width:1.0;"/><line style="stroke:#181818;stroke-width:1.0;" x1="2364" x2="2374" y1="106.41" y2="96.41"/><line style="stroke:#181818;stroke-width:1.0;" x1="1935" x2="2364" y1="106.41" y2="106.41"/><line style="stroke:#181818;stroke-width:1.0;" x1="2364" x2="2364" y1="106.41" y2="198.41"/><text fill="#000000" font-family="sans-serif" font-size="14" font-weight="bold" lengthAdjust="spacing" textLength="363" x="1969" y="122.4051">nodeteammates_ui_servlets_LegacyUrlMapper</text></g><!--cluster nodeteammates_ui_servlets_LoginServlet--><g id="cluster_nodeteammates_ui_servlets_LoginServlet"><polygon fill="none" points="2398,106.41,2408,96.41,2799,96.41,2799,188.41,2789,198.41,2398,198.41,2398,106.41" style="stroke:#181818;stroke-width:1.0;"/><line style="stroke:#181818;stroke-width:1.0;" x1="2789" x2="2799" y1="106.41" y2="96.41"/><line style="stroke:#181818;stroke-width:1.0;" x1="2398" x2="2789" y1="106.41" y2="106.41"/><line style="stroke:#181818;stroke-width:1.0;" x1="2789" x2="2789" y1="106.41" y2="198.41"/><text fill="#000000" font-family="sans-serif" font-size="14" font-weight="bold" lengthAdjust="spacing" textLength="325" x="2432" y="122.4051">nodeteammates_ui_servlets_LoginServlet</text></g><!--cluster nodeteammates_ui_servlets_LogoutServlet--><g id="cluster_nodeteammates_ui_servlets_LogoutServlet"><polygon fill="none" points="501,98.41,511,88.41,914,88.41,914,196.41,904,206.41,501,206.41,501,98.41" style="stroke:#181818;stroke-width:1.0;"/><line style="stroke:#181818;stroke-width:1.0;" x1="904" x2="914" y1="98.41" y2="88.41"/><line style="stroke:#181818;stroke-width:1.0;" x1="501" x2="904" y1="98.41" y2="98.41"/><line style="stroke:#181818;stroke-width:1.0;" x1="904" x2="904" y1="98.41" y2="206.41"/><text fill="#000000" font-family="sans-serif" font-size="14" font-weight="bold" lengthAdjust="spacing" textLength="337" x="535" y="114.4051">nodeteammates_ui_servlets_LogoutServlet</text></g><!--cluster nodeteammates_ui_servlets_OAuth2CallbackServlet--><g id="cluster_nodeteammates_ui_servlets_OAuth2CallbackServlet"><polygon fill="none" points="2823,106.41,2833,96.41,3305,96.41,3305,188.41,3295,198.41,2823,198.41,2823,106.41" style="stroke:#181818;stroke-width:1.0;"/><line style="stroke:#181818;stroke-width:1.0;" x1="3295" x2="3305" y1="106.41" y2="96.41"/><line style="stroke:#181818;stroke-width:1.0;" x1="2823" x2="3295" y1="106.41" y2="106.41"/><line style="stroke:#181818;stroke-width:1.0;" x1="3295" x2="3295" y1="106.41" y2="198.41"/><text fill="#000000" font-family="sans-serif" font-size="14" font-weight="bold" lengthAdjust="spacing" textLength="406" x="2857" y="122.4051">nodeteammates_ui_servlets_OAuth2CallbackServlet</text></g><!--cluster nodeteammates_ui_servlets_WebApiServlet--><g id="cluster_nodeteammates_ui_servlets_WebApiServlet"><polygon fill="none" points="3329,106.41,3339,96.41,3747,96.41,3747,188.41,3737,198.41,3329,198.41,3329,106.41" style="stroke:#181818;stroke-width:1.0;"/><line style="stroke:#181818;stroke-width:1.0;" x1="3737" x2="3747" y1="106.41" y2="96.41"/><line style="stroke:#181818;stroke-width:1.0;" x1="3329" x2="3737" y1="106.41" y2="106.41"/><line style="stroke:#181818;stroke-width:1.0;" x1="3737" x2="3737" y1="106.41" y2="198.41"/><text fill="#000000" font-family="sans-serif" font-size="14" font-weight="bold" lengthAdjust="spacing" textLength="342" x="3363" y="122.4051">nodeteammates_ui_servlets_WebApiServlet</text></g><!--cluster nodeteammates_ui_servlets_WebPageServlet--><g id="cluster_nodeteammates_ui_servlets_WebPageServlet"><polygon fill="none" points="3771,106.41,3781,96.41,4203,96.41,4203,188.41,4193,198.41,3771,198.41,3771,106.41" style="stroke:#181818;stroke-width:1.0;"/><line style="stroke:#181818;stroke-width:1.0;" x1="4193" x2="4203" y1="106.41" y2="96.41"/><line style="stroke:#181818;stroke-width:1.0;" x1="3771" x2="4193" y1="106.41" y2="106.41"/><line style="stroke:#181818;stroke-width:1.0;" x1="4193" x2="4193" y1="106.41" y2="198.41"/><text fill="#000000" font-family="sans-serif" font-size="14" font-weight="bold" lengthAdjust="spacing" textLength="356" x="3805" y="122.4051">nodeteammates_ui_servlets_WebPageServlet</text></g><!--entity teammates_common_util_Logger_Provider--><g id="elem_teammates_common_util_Logger_Provider"><a href="teammates-teammates.system#_cXRfEFeKEe-XkYGa52I_SA" target="_top" title="teammates-teammates.system#_cXRfEFeKEe-XkYGa52I_SA" xlink:actuate="onRequest" xlink:href="teammates-teammates.system#_cXRfEFeKEe-XkYGa52I_SA" xlink:show="new" xlink:title="teammates-teammates.system#_cXRfEFeKEe-XkYGa52I_SA" xlink:type="simple"><rect fill="#F1F1F1" height="46.2969" rx="2.5" ry="2.5" style="stroke:#181818;stroke-width:0.5;" width="331" x="105.5" y="136.41"/><rect fill="#F1F1F1" height="10" style="stroke:#181818;stroke-width:0.5;" width="15" x="416.5" y="141.41"/><rect fill="#F1F1F1" height="2" style="stroke:#181818;stroke-width:0.5;" width="4" x="414.5" y="143.41"/><rect fill="#F1F1F1" height="2" style="stroke:#181818;stroke-width:0.5;" width="4" x="414.5" y="147.41"/><text fill="#000000" font-family="sans-serif" font-size="14" lengthAdjust="spacing" textLength="291" x="120.5" y="169.4051">teammates_common_util_Logger_Provider</text></a></g><!--entity teammates_ui_servlets_DevServerLoginServlet--><g id="elem_teammates_ui_servlets_DevServerLoginServlet"><a href="teammates-teammates.system#_cXRfEFeKEe-XkYGa52I_SA" target="_top" title="teammates-teammates.system#_cXRfEFeKEe-XkYGa52I_SA" xlink:actuate="onRequest" xlink:href="teammates-teammates.system#_cXRfEFeKEe-XkYGa52I_SA" xlink:show="new" xlink:title="teammates-teammates.system#_cXRfEFeKEe-XkYGa52I_SA" xlink:type="simple"><rect fill="#F1F1F1" height="46.2969" rx="2.5" ry="2.5" style="stroke:#181818;stroke-width:0.5;" width="360" x="1008" y="136.41"/><rect fill="#F1F1F1" height="10" style="stroke:#181818;stroke-width:0.5;" width="15" x="1348" y="141.41"/><rect fill="#F1F1F1" height="2" style="stroke:#181818;stroke-width:0.5;" width="4" x="1346" y="143.41"/><rect fill="#F1F1F1" height="2" style="stroke:#181818;stroke-width:0.5;" width="4" x="1346" y="147.41"/><text fill="#000000" font-family="sans-serif" font-size="14" lengthAdjust="spacing" textLength="320" x="1023" y="169.4051">teammates_ui_servlets_DevServerLoginServlet</text></a></g><!--entity teammates_ui_servlets_HealthCheckServlet--><g id="elem_teammates_ui_servlets_HealthCheckServlet"><a href="teammates-teammates.system#_cXRfEFeKEe-XkYGa52I_SA" target="_top" title="teammates-teammates.system#_cXRfEFeKEe-XkYGa52I_SA" xlink:actuate="onRequest" xlink:href="teammates-teammates.system#_cXRfEFeKEe-XkYGa52I_SA" xlink:show="new" xlink:title="teammates-teammates.system#_cXRfEFeKEe-XkYGa52I_SA" xlink:type="simple"><rect fill="#F1F1F1" height="46.2969" rx="2.5" ry="2.5" style="stroke:#181818;stroke-width:0.5;" width="340" x="1512" y="136.41"/><rect fill="#F1F1F1" height="10" style="stroke:#181818;stroke-width:0.5;" width="15" x="1832" y="141.41"/><rect fill="#F1F1F1" height="2" style="stroke:#181818;stroke-width:0.5;" width="4" x="1830" y="143.41"/><rect fill="#F1F1F1" height="2" style="stroke:#181818;stroke-width:0.5;" width="4" x="1830" y="147.41"/><text fill="#000000" font-family="sans-serif" font-size="14" lengthAdjust="spacing" textLength="300" x="1527" y="169.4051">teammates_ui_servlets_HealthCheckServlet</text></a></g><!--entity teammates_ui_servlets_LegacyUrlMapper--><g id="elem_teammates_ui_servlets_LegacyUrlMapper"><a href="teammates-teammates.system#_cXRfEFeKEe-XkYGa52I_SA" target="_top" title="teammates-teammates.system#_cXRfEFeKEe-XkYGa52I_SA" xlink:actuate="onRequest" xlink:href="teammates-teammates.system#_cXRfEFeKEe-XkYGa52I_SA" xlink:show="new" xlink:title="teammates-teammates.system#_cXRfEFeKEe-XkYGa52I_SA" xlink:type="simple"><rect fill="#F1F1F1" height="46.2969" rx="2.5" ry="2.5" style="stroke:#181818;stroke-width:0.5;" width="323" x="1992.5" y="136.41"/><rect fill="#F1F1F1" height="10" style="stroke:#181818;stroke-width:0.5;" width="15" x="2295.5" y="141.41"/><rect fill="#F1F1F1" height="2" style="stroke:#181818;stroke-width:0.5;" width="4" x="2293.5" y="143.41"/><rect fill="#F1F1F1" height="2" style="stroke:#181818;stroke-width:0.5;" width="4" x="2293.5" y="147.41"/><text fill="#000000" font-family="sans-serif" font-size="14" lengthAdjust="spacing" textLength="283" x="2007.5" y="169.4051">teammates_ui_servlets_LegacyUrlMapper</text></a></g><!--entity teammates_ui_servlets_LoginServlet--><g id="elem_teammates_ui_servlets_LoginServlet"><a href="teammates-teammates.system#_cXRfEFeKEe-XkYGa52I_SA" target="_top" title="teammates-teammates.system#_cXRfEFeKEe-XkYGa52I_SA" xlink:actuate="onRequest" xlink:href="teammates-teammates.system#_cXRfEFeKEe-XkYGa52I_SA" xlink:show="new" xlink:title="teammates-teammates.system#_cXRfEFeKEe-XkYGa52I_SA" xlink:type="simple"><rect fill="#F1F1F1" height="46.2969" rx="2.5" ry="2.5" style="stroke:#181818;stroke-width:0.5;" width="289" x="2453.5" y="136.41"/><rect fill="#F1F1F1" height="10" style="stroke:#181818;stroke-width:0.5;" width="15" x="2722.5" y="141.41"/><rect fill="#F1F1F1" height="2" style="stroke:#181818;stroke-width:0.5;" width="4" x="2720.5" y="143.41"/><rect fill="#F1F1F1" height="2" style="stroke:#181818;stroke-width:0.5;" width="4" x="2720.5" y="147.41"/><text fill="#000000" font-family="sans-serif" font-size="14" lengthAdjust="spacing" textLength="249" x="2468.5" y="169.4051">teammates_ui_servlets_LoginServlet</text></a></g><!--entity teammates_ui_servlets_LogoutServlet--><g id="elem_teammates_ui_servlets_LogoutServlet"><a href="teammates-teammates.system#_cXRfEFeKEe-XkYGa52I_SA" target="_top" title="teammates-teammates.system#_cXRfEFeKEe-XkYGa52I_SA" xlink:actuate="onRequest" xlink:href="teammates-teammates.system#_cXRfEFeKEe-XkYGa52I_SA" xlink:show="new" xlink:title="teammates-teammates.system#_cXRfEFeKEe-XkYGa52I_SA" xlink:type="simple"><rect fill="#F1F1F1" height="46.2969" rx="2.5" ry="2.5" style="stroke:#181818;stroke-width:0.5;" width="300" x="567" y="136.41"/><rect fill="#F1F1F1" height="10" style="stroke:#181818;stroke-width:0.5;" width="15" x="847" y="141.41"/><rect fill="#F1F1F1" height="2" style="stroke:#181818;stroke-width:0.5;" width="4" x="845" y="143.41"/><rect fill="#F1F1F1" height="2" style="stroke:#181818;stroke-width:0.5;" width="4" x="845" y="147.41"/><text fill="#000000" font-family="sans-serif" font-size="14" lengthAdjust="spacing" textLength="260" x="582" y="169.4051">teammates_ui_servlets_LogoutServlet</text></a></g><!--entity teammates_ui_servlets_OAuth2CallbackServlet--><g id="elem_teammates_ui_servlets_OAuth2CallbackServlet"><a href="teammates-teammates.system#_cXRfEFeKEe-XkYGa52I_SA" target="_top" title="teammates-teammates.system#_cXRfEFeKEe-XkYGa52I_SA" xlink:actuate="onRequest" xlink:href="teammates-teammates.system#_cXRfEFeKEe-XkYGa52I_SA" xlink:show="new" xlink:title="teammates-teammates.system#_cXRfEFeKEe-XkYGa52I_SA" xlink:type="simple"><rect fill="#F1F1F1" height="46.2969" rx="2.5" ry="2.5" style="stroke:#181818;stroke-width:0.5;" width="361" x="2883.5" y="136.41"/><rect fill="#F1F1F1" height="10" style="stroke:#181818;stroke-width:0.5;" width="15" x="3224.5" y="141.41"/><rect fill="#F1F1F1" height="2" style="stroke:#181818;stroke-width:0.5;" width="4" x="3222.5" y="143.41"/><rect fill="#F1F1F1" height="2" style="stroke:#181818;stroke-width:0.5;" width="4" x="3222.5" y="147.41"/><text fill="#000000" font-family="sans-serif" font-size="14" lengthAdjust="spacing" textLength="321" x="2898.5" y="169.4051">teammates_ui_servlets_OAuth2CallbackServlet</text></a></g><!--entity teammates_ui_servlets_WebApiServlet--><g id="elem_teammates_ui_servlets_WebApiServlet"><a href="teammates-teammates.system#_cXRfEFeKEe-XkYGa52I_SA" target="_top" title="teammates-teammates.system#_cXRfEFeKEe-XkYGa52I_SA" xlink:actuate="onRequest" xlink:href="teammates-teammates.system#_cXRfEFeKEe-XkYGa52I_SA" xlink:show="new" xlink:title="teammates-teammates.system#_cXRfEFeKEe-XkYGa52I_SA" xlink:type="simple"><rect fill="#F1F1F1" height="46.2969" rx="2.5" ry="2.5" style="stroke:#181818;stroke-width:0.5;" width="304" x="3386" y="136.41"/><rect fill="#F1F1F1" height="10" style="stroke:#181818;stroke-width:0.5;" width="15" x="3670" y="141.41"/><rect fill="#F1F1F1" height="2" style="stroke:#181818;stroke-width:0.5;" width="4" x="3668" y="143.41"/><rect fill="#F1F1F1" height="2" style="stroke:#181818;stroke-width:0.5;" width="4" x="3668" y="147.41"/><text fill="#000000" font-family="sans-serif" font-size="14" lengthAdjust="spacing" textLength="264" x="3401" y="169.4051">teammates_ui_servlets_WebApiServlet</text></a></g><!--entity teammates_ui_servlets_WebPageServlet--><g id="elem_teammates_ui_servlets_WebPageServlet"><a href="teammates-teammates.system#_cXRfEFeKEe-XkYGa52I_SA" target="_top" title="teammates-teammates.system#_cXRfEFeKEe-XkYGa52I_SA" xlink:actuate="onRequest" xlink:href="teammates-teammates.system#_cXRfEFeKEe-XkYGa52I_SA" xlink:show="new" xlink:title="teammates-teammates.system#_cXRfEFeKEe-XkYGa52I_SA" xlink:type="simple"><rect fill="#F1F1F1" height="46.2969" rx="2.5" ry="2.5" style="stroke:#181818;stroke-width:0.5;" width="318" x="3828" y="136.41"/><rect fill="#F1F1F1" height="10" style="stroke:#181818;stroke-width:0.5;" width="15" x="4126" y="141.41"/><rect fill="#F1F1F1" height="2" style="stroke:#181818;stroke-width:0.5;" width="4" x="4124" y="143.41"/><rect fill="#F1F1F1" height="2" style="stroke:#181818;stroke-width:0.5;" width="4" x="4124" y="147.41"/><text fill="#000000" font-family="sans-serif" font-size="14" lengthAdjust="spacing" textLength="278" x="3843" y="169.4051">teammates_ui_servlets_WebPageServlet</text></a></g><!--link nodeteammates_common_util_Logger_Provider to nodeteammates_ui_servlets_LogoutServlet--><g id="link_nodeteammates_common_util_Logger_Provider_nodeteammates_ui_servlets_LogoutServlet"><path d="M75.096,87.9915 C75.1511,87.7964 75.2068,87.6013 75.2629,87.4064 C75.3752,87.0166 75.4893,86.6273 75.6053,86.2385 C75.8374,85.4611 76.0771,84.686 76.3247,83.9137 C76.8198,82.369 77.3464,80.8357 77.9063,79.3178 C79.0261,76.2818 80.2789,73.3071 81.6794,70.4261 C87.2813,58.9019 95.245,48.875 106.5,42.41 C169.9,6 371.51,7.04 435.5,42.41 C461.115,56.565 479.0075,83.8 490.7213,108.4338 C493.6497,114.5922 496.192,120.588 498.3722,126.1763 C498.9172,127.5734 499.4396,128.945 499.9398,130.2873 C500.1899,130.9584 500.4344,131.6222 500.6734,132.2782 C500.7332,132.4422 500.7926,132.6057 500.8517,132.7688 " fill="none" id="nodeteammates_common_util_Logger_Provider-nodeteammates_ui_servlets_LogoutServlet" style="stroke:#181818;stroke-width:1.0;"/></g><!--SRC=[lPJRIiD048RlynGBNiUBW0yGOZrWfSKWLa9O9kaqMRA7i8TW4D_TYD1QBMP1rfjbM3wO3_wVCHsJFMWGPCTUCgPhZakeaAy6r1pwdic6MEqmCdkmLg9N4gNDxSYHEC6JIAejae_78WW15WsTCA4aTPPnkbHDWvgkjHhO5ZLvZGeli2J50OptqxaPZKLnHklDmsvnXNSBZ3VTypLS9BSqJyioUZjbv1Wrg0UErj1B7F9fHZrjP3B__3xsciN3sTqWSDjcBTRThDfFDfpN4XkenqVDxwTgVC_n5p2WaLTy_vFQj4KvwoDpmCBPh59dsoG3pYlmgD59F9pT4rPfpsQjZh2WDcjeq4Vd2_S7dyBxLfOa9eLdvyhe7G00]--></g></svg>