<?xml version="1.0" encoding="us-ascii" standalone="no"?><svg xmlns="http://www.w3.org/2000/svg" xmlns:xlink="http://www.w3.org/1999/xlink" contentStyleType="text/css" height="383px" preserveAspectRatio="none" style="width:5726px;height:383px;background:#FFFFFF;" version="1.1" viewBox="0 0 5726 383" width="5726px" zoomAndPan="magnify"><defs/><g><!--cluster nodecom_ewolff_microservice_catalog--><g id="cluster_nodecom_ewolff_microservice_catalog"><polygon fill="none" points="16,85.55,26,75.55,887,75.55,887,356.55,877,366.55,16,366.55,16,85.55" style="stroke:#181818;stroke-width:1.0;"/><line style="stroke:#181818;stroke-width:1.0;" x1="877" x2="887" y1="85.55" y2="75.55"/><line style="stroke:#181818;stroke-width:1.0;" x1="16" x2="877" y1="85.55" y2="85.55"/><line style="stroke:#181818;stroke-width:1.0;" x1="877" x2="877" y1="85.55" y2="366.55"/><text fill="#000000" font-family="sans-serif" font-size="14" font-weight="bold" lengthAdjust="spacing" textLength="303" x="296" y="101.5451">nodecom_ewolff_microservice_catalog</text></g><!--cluster com_ewolff_microservice_catalog--><g id="cluster_com_ewolff_microservice_catalog"><rect fill="none" height="203" rx="2.5" ry="2.5" style="stroke:#181818;stroke-width:1.0;" width="799" x="56" y="131.55"/><rect fill="none" height="10" style="stroke:#181818;stroke-width:1.0;" width="15" x="835" y="136.55"/><rect fill="none" height="2" style="stroke:#181818;stroke-width:1.0;" width="4" x="833" y="138.55"/><rect fill="none" height="2" style="stroke:#181818;stroke-width:1.0;" width="4" x="833" y="142.55"/><text fill="#000000" font-family="sans-serif" font-size="14" font-weight="bold" lengthAdjust="spacing" textLength="263" x="324" y="157.5451">com_ewolff_microservice_catalog</text></g><!--cluster nodecom_ewolff_microservice_customer--><g id="cluster_nodecom_ewolff_microservice_customer"><polygon fill="none" points="1492,85.55,1502,75.55,2450,75.55,2450,356.55,2440,366.55,1492,366.55,1492,85.55" style="stroke:#181818;stroke-width:1.0;"/><line style="stroke:#181818;stroke-width:1.0;" x1="2440" x2="2450" y1="85.55" y2="75.55"/><line style="stroke:#181818;stroke-width:1.0;" x1="1492" x2="2440" y1="85.55" y2="85.55"/><line style="stroke:#181818;stroke-width:1.0;" x1="2440" x2="2440" y1="85.55" y2="366.55"/><text fill="#000000" font-family="sans-serif" font-size="14" font-weight="bold" lengthAdjust="spacing" textLength="321" x="1806.5" y="101.5451">nodecom_ewolff_microservice_customer</text></g><!--cluster com_ewolff_microservice_customer--><g id="cluster_com_ewolff_microservice_customer"><rect fill="none" height="203" rx="2.5" ry="2.5" style="stroke:#181818;stroke-width:1.0;" width="886" x="1532" y="131.55"/><rect fill="none" height="10" style="stroke:#181818;stroke-width:1.0;" width="15" x="2398" y="136.55"/><rect fill="none" height="2" style="stroke:#181818;stroke-width:1.0;" width="4" x="2396" y="138.55"/><rect fill="none" height="2" style="stroke:#181818;stroke-width:1.0;" width="4" x="2396" y="142.55"/><text fill="#000000" font-family="sans-serif" font-size="14" font-weight="bold" lengthAdjust="spacing" textLength="281" x="1834.5" y="157.5451">com_ewolff_microservice_customer</text></g><!--cluster nodecom_ewolff_microservice_order--><g id="cluster_nodecom_ewolff_microservice_order"><polygon fill="none" points="2490,85.55,2500,75.55,3898,75.55,3898,356.55,3888,366.55,2490,366.55,2490,85.55" style="stroke:#181818;stroke-width:1.0;"/><line style="stroke:#181818;stroke-width:1.0;" x1="3888" x2="3898" y1="85.55" y2="75.55"/><line style="stroke:#181818;stroke-width:1.0;" x1="2490" x2="3888" y1="85.55" y2="85.55"/><line style="stroke:#181818;stroke-width:1.0;" x1="3888" x2="3888" y1="85.55" y2="366.55"/><text fill="#000000" font-family="sans-serif" font-size="14" font-weight="bold" lengthAdjust="spacing" textLength="290" x="3045" y="101.5451">nodecom_ewolff_microservice_order</text></g><!--cluster com_ewolff_microservice_order--><g id="cluster_com_ewolff_microservice_order"><rect fill="none" height="203" rx="2.5" ry="2.5" style="stroke:#181818;stroke-width:1.0;" width="1336" x="2530" y="131.55"/><rect fill="none" height="10" style="stroke:#181818;stroke-width:1.0;" width="15" x="3846" y="136.55"/><rect fill="none" height="2" style="stroke:#181818;stroke-width:1.0;" width="4" x="3844" y="138.55"/><rect fill="none" height="2" style="stroke:#181818;stroke-width:1.0;" width="4" x="3844" y="142.55"/><text fill="#000000" font-family="sans-serif" font-size="14" font-weight="bold" lengthAdjust="spacing" textLength="250" x="3073" y="157.5451">com_ewolff_microservice_order</text></g><!--cluster nodecom_ewolff_microservice_catalog_cdc_CatalogClient--><g id="cluster_nodecom_ewolff_microservice_catalog_cdc_CatalogClient"><polygon fill="none" points="927,128.55,937,118.55,1452,118.55,1452,226.55,1442,236.55,927,236.55,927,128.55" style="stroke:#181818;stroke-width:1.0;"/><line style="stroke:#181818;stroke-width:1.0;" x1="1442" x2="1452" y1="128.55" y2="118.55"/><line style="stroke:#181818;stroke-width:1.0;" x1="927" x2="1442" y1="128.55" y2="128.55"/><line style="stroke:#181818;stroke-width:1.0;" x1="1442" x2="1442" y1="128.55" y2="236.55"/><text fill="#000000" font-family="sans-serif" font-size="14" font-weight="bold" lengthAdjust="spacing" textLength="449" x="961" y="144.5451">nodecom_ewolff_microservice_catalog_cdc_CatalogClient</text></g><!--cluster nodecom_ewolff_microservice_customer_cdc_CustomerClient--><g id="cluster_nodecom_ewolff_microservice_customer_cdc_CustomerClient"><polygon fill="none" points="3930,136.55,3940,126.55,4491,126.55,4491,218.55,4481,228.55,3930,228.55,3930,136.55" style="stroke:#181818;stroke-width:1.0;"/><line style="stroke:#181818;stroke-width:1.0;" x1="4481" x2="4491" y1="136.55" y2="126.55"/><line style="stroke:#181818;stroke-width:1.0;" x1="3930" x2="4481" y1="136.55" y2="136.55"/><line style="stroke:#181818;stroke-width:1.0;" x1="4481" x2="4481" y1="136.55" y2="228.55"/><text fill="#000000" font-family="sans-serif" font-size="14" font-weight="bold" lengthAdjust="spacing" textLength="485" x="3964" y="152.5451">nodecom_ewolff_microservice_customer_cdc_CustomerClient</text></g><!--cluster nodecom_ewolff_microservice_order_catalogstub_CatalogStub--><g id="cluster_nodecom_ewolff_microservice_order_catalogstub_CatalogStub"><polygon fill="none" points="4515,136.55,4525,126.55,5082,126.55,5082,218.55,5072,228.55,4515,228.55,4515,136.55" style="stroke:#181818;stroke-width:1.0;"/><line style="stroke:#181818;stroke-width:1.0;" x1="5072" x2="5082" y1="136.55" y2="126.55"/><line style="stroke:#181818;stroke-width:1.0;" x1="4515" x2="5072" y1="136.55" y2="136.55"/><line style="stroke:#181818;stroke-width:1.0;" x1="5072" x2="5072" y1="136.55" y2="228.55"/><text fill="#000000" font-family="sans-serif" font-size="14" font-weight="bold" lengthAdjust="spacing" textLength="491" x="4549" y="152.5451">nodecom_ewolff_microservice_order_catalogstub_CatalogStub</text></g><!--cluster nodecom_ewolff_microservice_order_customerstub_CustomerStub--><g id="cluster_nodecom_ewolff_microservice_order_customerstub_CustomerStub"><polygon fill="none" points="5106,136.55,5116,126.55,5709,126.55,5709,218.55,5699,228.55,5106,228.55,5106,136.55" style="stroke:#181818;stroke-width:1.0;"/><line style="stroke:#181818;stroke-width:1.0;" x1="5699" x2="5709" y1="136.55" y2="126.55"/><line style="stroke:#181818;stroke-width:1.0;" x1="5106" x2="5699" y1="136.55" y2="136.55"/><line style="stroke:#181818;stroke-width:1.0;" x1="5699" x2="5699" y1="136.55" y2="228.55"/><text fill="#000000" font-family="sans-serif" font-size="14" font-weight="bold" lengthAdjust="spacing" textLength="527" x="5140" y="152.5451">nodecom_ewolff_microservice_order_customerstub_CustomerStub</text></g><!--entity com_ewolff_microservice_catalog_CatalogApp--><g id="elem_com_ewolff_microservice_catalog_CatalogApp"><a href="ewolff-microservice-psr.system#_uqoz3I1jEe-5VPhJeglQCQ" target="_top" title="ewolff-microservice-psr.system#_uqoz3I1jEe-5VPhJeglQCQ" xlink:actuate="onRequest" xlink:href="ewolff-microservice-psr.system#_uqoz3I1jEe-5VPhJeglQCQ" xlink:show="new" xlink:title="ewolff-microservice-psr.system#_uqoz3I1jEe-5VPhJeglQCQ" xlink:type="simple"><rect fill="#F1F1F1" height="46.2969" rx="2.5" ry="2.5" style="stroke:#181818;stroke-width:0.5;" width="354" x="72" y="166.55"/><rect fill="#F1F1F1" height="10" style="stroke:#181818;stroke-width:0.5;" width="15" x="406" y="171.55"/><rect fill="#F1F1F1" height="2" style="stroke:#181818;stroke-width:0.5;" width="4" x="404" y="173.55"/><rect fill="#F1F1F1" height="2" style="stroke:#181818;stroke-width:0.5;" width="4" x="404" y="177.55"/><text fill="#000000" font-family="sans-serif" font-size="14" lengthAdjust="spacing" textLength="314" x="87" y="199.5451">com_ewolff_microservice_catalog_CatalogApp</text></a></g><!--entity com_ewolff_microservice_catalog_ItemRepository--><g id="elem_com_ewolff_microservice_catalog_ItemRepository"><a href="ewolff-microservice-psr.system#_uqoz3I1jEe-5VPhJeglQCQ" target="_top" title="ewolff-microservice-psr.system#_uqoz3I1jEe-5VPhJeglQCQ" xlink:actuate="onRequest" xlink:href="ewolff-microservice-psr.system#_uqoz3I1jEe-5VPhJeglQCQ" xlink:show="new" xlink:title="ewolff-microservice-psr.system#_uqoz3I1jEe-5VPhJeglQCQ" xlink:type="simple"><rect fill="#F1F1F1" height="46.2969" rx="2.5" ry="2.5" style="stroke:#181818;stroke-width:0.5;" width="379" x="460.5" y="166.55"/><rect fill="#F1F1F1" height="10" style="stroke:#181818;stroke-width:0.5;" width="15" x="819.5" y="171.55"/><rect fill="#F1F1F1" height="2" style="stroke:#181818;stroke-width:0.5;" width="4" x="817.5" y="173.55"/><rect fill="#F1F1F1" height="2" style="stroke:#181818;stroke-width:0.5;" width="4" x="817.5" y="177.55"/><text fill="#000000" font-family="sans-serif" font-size="14" lengthAdjust="spacing" textLength="339" x="475.5" y="199.5451">com_ewolff_microservice_catalog_ItemRepository</text></a></g><!--entity com_ewolff_microservice_catalog_web_CatalogController--><g id="elem_com_ewolff_microservice_catalog_web_CatalogController"><a href="ewolff-microservice-psr.system#_uqoz3I1jEe-5VPhJeglQCQ" target="_top" title="ewolff-microservice-psr.system#_uqoz3I1jEe-5VPhJeglQCQ" xlink:actuate="onRequest" xlink:href="ewolff-microservice-psr.system#_uqoz3I1jEe-5VPhJeglQCQ" xlink:show="new" xlink:title="ewolff-microservice-psr.system#_uqoz3I1jEe-5VPhJeglQCQ" xlink:type="simple"><rect fill="#F1F1F1" height="46.2969" rx="2.5" ry="2.5" style="stroke:#181818;stroke-width:0.5;" width="430" x="72" y="272.55"/><rect fill="#F1F1F1" height="10" style="stroke:#181818;stroke-width:0.5;" width="15" x="482" y="277.55"/><rect fill="#F1F1F1" height="2" style="stroke:#181818;stroke-width:0.5;" width="4" x="480" y="279.55"/><rect fill="#F1F1F1" height="2" style="stroke:#181818;stroke-width:0.5;" width="4" x="480" y="283.55"/><text fill="#000000" font-family="sans-serif" font-size="14" lengthAdjust="spacing" textLength="390" x="87" y="305.5451">com_ewolff_microservice_catalog_web_CatalogController</text></a></g><!--entity com_ewolff_microservice_customer_CustomerApp--><g id="elem_com_ewolff_microservice_customer_CustomerApp"><a href="ewolff-microservice-psr.system#_uqoz3I1jEe-5VPhJeglQCQ" target="_top" title="ewolff-microservice-psr.system#_uqoz3I1jEe-5VPhJeglQCQ" xlink:actuate="onRequest" xlink:href="ewolff-microservice-psr.system#_uqoz3I1jEe-5VPhJeglQCQ" xlink:show="new" xlink:title="ewolff-microservice-psr.system#_uqoz3I1jEe-5VPhJeglQCQ" xlink:type="simple"><rect fill="#F1F1F1" height="46.2969" rx="2.5" ry="2.5" style="stroke:#181818;stroke-width:0.5;" width="386" x="1548" y="166.55"/><rect fill="#F1F1F1" height="10" style="stroke:#181818;stroke-width:0.5;" width="15" x="1914" y="171.55"/><rect fill="#F1F1F1" height="2" style="stroke:#181818;stroke-width:0.5;" width="4" x="1912" y="173.55"/><rect fill="#F1F1F1" height="2" style="stroke:#181818;stroke-width:0.5;" width="4" x="1912" y="177.55"/><text fill="#000000" font-family="sans-serif" font-size="14" lengthAdjust="spacing" textLength="346" x="1563" y="199.5451">com_ewolff_microservice_customer_CustomerApp</text></a></g><!--entity com_ewolff_microservice_customer_CustomerRepository--><g id="elem_com_ewolff_microservice_customer_CustomerRepository"><a href="ewolff-microservice-psr.system#_uqoz3I1jEe-5VPhJeglQCQ" target="_top" title="ewolff-microservice-psr.system#_uqoz3I1jEe-5VPhJeglQCQ" xlink:actuate="onRequest" xlink:href="ewolff-microservice-psr.system#_uqoz3I1jEe-5VPhJeglQCQ" xlink:show="new" xlink:title="ewolff-microservice-psr.system#_uqoz3I1jEe-5VPhJeglQCQ" xlink:type="simple"><rect fill="#F1F1F1" height="46.2969" rx="2.5" ry="2.5" style="stroke:#181818;stroke-width:0.5;" width="433" x="1969.5" y="166.55"/><rect fill="#F1F1F1" height="10" style="stroke:#181818;stroke-width:0.5;" width="15" x="2382.5" y="171.55"/><rect fill="#F1F1F1" height="2" style="stroke:#181818;stroke-width:0.5;" width="4" x="2380.5" y="173.55"/><rect fill="#F1F1F1" height="2" style="stroke:#181818;stroke-width:0.5;" width="4" x="2380.5" y="177.55"/><text fill="#000000" font-family="sans-serif" font-size="14" lengthAdjust="spacing" textLength="393" x="1984.5" y="199.5451">com_ewolff_microservice_customer_CustomerRepository</text></a></g><!--entity com_ewolff_microservice_customer_web_CustomerController--><g id="elem_com_ewolff_microservice_customer_web_CustomerController"><a href="ewolff-microservice-psr.system#_uqoz3I1jEe-5VPhJeglQCQ" target="_top" title="ewolff-microservice-psr.system#_uqoz3I1jEe-5VPhJeglQCQ" xlink:actuate="onRequest" xlink:href="ewolff-microservice-psr.system#_uqoz3I1jEe-5VPhJeglQCQ" xlink:show="new" xlink:title="ewolff-microservice-psr.system#_uqoz3I1jEe-5VPhJeglQCQ" xlink:type="simple"><rect fill="#F1F1F1" height="46.2969" rx="2.5" ry="2.5" style="stroke:#181818;stroke-width:0.5;" width="462" x="1548" y="272.55"/><rect fill="#F1F1F1" height="10" style="stroke:#181818;stroke-width:0.5;" width="15" x="1990" y="277.55"/><rect fill="#F1F1F1" height="2" style="stroke:#181818;stroke-width:0.5;" width="4" x="1988" y="279.55"/><rect fill="#F1F1F1" height="2" style="stroke:#181818;stroke-width:0.5;" width="4" x="1988" y="283.55"/><text fill="#000000" font-family="sans-serif" font-size="14" lengthAdjust="spacing" textLength="422" x="1563" y="305.5451">com_ewolff_microservice_customer_web_CustomerController</text></a></g><!--entity com_ewolff_microservice_order_clients_CatalogClient--><g id="elem_com_ewolff_microservice_order_clients_CatalogClient"><a href="ewolff-microservice-psr.system#_uqoz3I1jEe-5VPhJeglQCQ" target="_top" title="ewolff-microservice-psr.system#_uqoz3I1jEe-5VPhJeglQCQ" xlink:actuate="onRequest" xlink:href="ewolff-microservice-psr.system#_uqoz3I1jEe-5VPhJeglQCQ" xlink:show="new" xlink:title="ewolff-microservice-psr.system#_uqoz3I1jEe-5VPhJeglQCQ" xlink:type="simple"><rect fill="#F1F1F1" height="46.2969" rx="2.5" ry="2.5" style="stroke:#181818;stroke-width:0.5;" width="405" x="2546.5" y="166.55"/><rect fill="#F1F1F1" height="10" style="stroke:#181818;stroke-width:0.5;" width="15" x="2931.5" y="171.55"/><rect fill="#F1F1F1" height="2" style="stroke:#181818;stroke-width:0.5;" width="4" x="2929.5" y="173.55"/><rect fill="#F1F1F1" height="2" style="stroke:#181818;stroke-width:0.5;" width="4" x="2929.5" y="177.55"/><text fill="#000000" font-family="sans-serif" font-size="14" lengthAdjust="spacing" textLength="365" x="2561.5" y="199.5451">com_ewolff_microservice_order_clients_CatalogClient</text></a></g><!--entity com_ewolff_microservice_order_clients_CustomerClient--><g id="elem_com_ewolff_microservice_order_clients_CustomerClient"><a href="ewolff-microservice-psr.system#_uqoz3I1jEe-5VPhJeglQCQ" target="_top" title="ewolff-microservice-psr.system#_uqoz3I1jEe-5VPhJeglQCQ" xlink:actuate="onRequest" xlink:href="ewolff-microservice-psr.system#_uqoz3I1jEe-5VPhJeglQCQ" xlink:show="new" xlink:title="ewolff-microservice-psr.system#_uqoz3I1jEe-5VPhJeglQCQ" xlink:type="simple"><rect fill="#F1F1F1" height="46.2969" rx="2.5" ry="2.5" style="stroke:#181818;stroke-width:0.5;" width="421" x="2986.5" y="166.55"/><rect fill="#F1F1F1" height="10" style="stroke:#181818;stroke-width:0.5;" width="15" x="3387.5" y="171.55"/><rect fill="#F1F1F1" height="2" style="stroke:#181818;stroke-width:0.5;" width="4" x="3385.5" y="173.55"/><rect fill="#F1F1F1" height="2" style="stroke:#181818;stroke-width:0.5;" width="4" x="3385.5" y="177.55"/><text fill="#000000" font-family="sans-serif" font-size="14" lengthAdjust="spacing" textLength="381" x="3001.5" y="199.5451">com_ewolff_microservice_order_clients_CustomerClient</text></a></g><!--entity com_ewolff_microservice_order_logic_OrderController--><g id="elem_com_ewolff_microservice_order_logic_OrderController"><a href="ewolff-microservice-psr.system#_uqoz3I1jEe-5VPhJeglQCQ" target="_top" title="ewolff-microservice-psr.system#_uqoz3I1jEe-5VPhJeglQCQ" xlink:actuate="onRequest" xlink:href="ewolff-microservice-psr.system#_uqoz3I1jEe-5VPhJeglQCQ" xlink:show="new" xlink:title="ewolff-microservice-psr.system#_uqoz3I1jEe-5VPhJeglQCQ" xlink:type="simple"><rect fill="#F1F1F1" height="46.2969" rx="2.5" ry="2.5" style="stroke:#181818;stroke-width:0.5;" width="407" x="3442.5" y="166.55"/><rect fill="#F1F1F1" height="10" style="stroke:#181818;stroke-width:0.5;" width="15" x="3829.5" y="171.55"/><rect fill="#F1F1F1" height="2" style="stroke:#181818;stroke-width:0.5;" width="4" x="3827.5" y="173.55"/><rect fill="#F1F1F1" height="2" style="stroke:#181818;stroke-width:0.5;" width="4" x="3827.5" y="177.55"/><text fill="#000000" font-family="sans-serif" font-size="14" lengthAdjust="spacing" textLength="367" x="3457.5" y="199.5451">com_ewolff_microservice_order_logic_OrderController</text></a></g><!--entity com_ewolff_microservice_order_logic_OrderRepository--><g id="elem_com_ewolff_microservice_order_logic_OrderRepository"><a href="ewolff-microservice-psr.system#_uqoz3I1jEe-5VPhJeglQCQ" target="_top" title="ewolff-microservice-psr.system#_uqoz3I1jEe-5VPhJeglQCQ" xlink:actuate="onRequest" xlink:href="ewolff-microservice-psr.system#_uqoz3I1jEe-5VPhJeglQCQ" xlink:show="new" xlink:title="ewolff-microservice-psr.system#_uqoz3I1jEe-5VPhJeglQCQ" xlink:type="simple"><rect fill="#F1F1F1" height="46.2969" rx="2.5" ry="2.5" style="stroke:#181818;stroke-width:0.5;" width="414" x="2546" y="272.55"/><rect fill="#F1F1F1" height="10" style="stroke:#181818;stroke-width:0.5;" width="15" x="2940" y="277.55"/><rect fill="#F1F1F1" height="2" style="stroke:#181818;stroke-width:0.5;" width="4" x="2938" y="279.55"/><rect fill="#F1F1F1" height="2" style="stroke:#181818;stroke-width:0.5;" width="4" x="2938" y="283.55"/><text fill="#000000" font-family="sans-serif" font-size="14" lengthAdjust="spacing" textLength="374" x="2561" y="305.5451">com_ewolff_microservice_order_logic_OrderRepository</text></a></g><!--entity com_ewolff_microservice_order_logic_OrderService--><g id="elem_com_ewolff_microservice_order_logic_OrderService"><a href="ewolff-microservice-psr.system#_uqoz3I1jEe-5VPhJeglQCQ" target="_top" title="ewolff-microservice-psr.system#_uqoz3I1jEe-5VPhJeglQCQ" xlink:actuate="onRequest" xlink:href="ewolff-microservice-psr.system#_uqoz3I1jEe-5VPhJeglQCQ" xlink:show="new" xlink:title="ewolff-microservice-psr.system#_uqoz3I1jEe-5VPhJeglQCQ" xlink:type="simple"><rect fill="#F1F1F1" height="46.2969" rx="2.5" ry="2.5" style="stroke:#181818;stroke-width:0.5;" width="390" x="2995" y="272.55"/><rect fill="#F1F1F1" height="10" style="stroke:#181818;stroke-width:0.5;" width="15" x="3365" y="277.55"/><rect fill="#F1F1F1" height="2" style="stroke:#181818;stroke-width:0.5;" width="4" x="3363" y="279.55"/><rect fill="#F1F1F1" height="2" style="stroke:#181818;stroke-width:0.5;" width="4" x="3363" y="283.55"/><text fill="#000000" font-family="sans-serif" font-size="14" lengthAdjust="spacing" textLength="350" x="3010" y="305.5451">com_ewolff_microservice_order_logic_OrderService</text></a></g><!--entity com_ewolff_microservice_catalog_cdc_CatalogClient--><g id="elem_com_ewolff_microservice_catalog_cdc_CatalogClient"><a href="ewolff-microservice-psr.system#_uqoz3I1jEe-5VPhJeglQCQ" target="_top" title="ewolff-microservice-psr.system#_uqoz3I1jEe-5VPhJeglQCQ" xlink:actuate="onRequest" xlink:href="ewolff-microservice-psr.system#_uqoz3I1jEe-5VPhJeglQCQ" xlink:show="new" xlink:title="ewolff-microservice-psr.system#_uqoz3I1jEe-5VPhJeglQCQ" xlink:type="simple"><rect fill="#F1F1F1" height="46.2969" rx="2.5" ry="2.5" style="stroke:#181818;stroke-width:0.5;" width="398" x="1000" y="166.55"/><rect fill="#F1F1F1" height="10" style="stroke:#181818;stroke-width:0.5;" width="15" x="1378" y="171.55"/><rect fill="#F1F1F1" height="2" style="stroke:#181818;stroke-width:0.5;" width="4" x="1376" y="173.55"/><rect fill="#F1F1F1" height="2" style="stroke:#181818;stroke-width:0.5;" width="4" x="1376" y="177.55"/><text fill="#000000" font-family="sans-serif" font-size="14" lengthAdjust="spacing" textLength="358" x="1015" y="199.5451">com_ewolff_microservice_catalog_cdc_CatalogClient</text></a></g><!--entity com_ewolff_microservice_customer_cdc_CustomerClient--><g id="elem_com_ewolff_microservice_customer_cdc_CustomerClient"><a href="ewolff-microservice-psr.system#_uqoz3I1jEe-5VPhJeglQCQ" target="_top" title="ewolff-microservice-psr.system#_uqoz3I1jEe-5VPhJeglQCQ" xlink:actuate="onRequest" xlink:href="ewolff-microservice-psr.system#_uqoz3I1jEe-5VPhJeglQCQ" xlink:show="new" xlink:title="ewolff-microservice-psr.system#_uqoz3I1jEe-5VPhJeglQCQ" xlink:type="simple"><rect fill="#F1F1F1" height="46.2969" rx="2.5" ry="2.5" style="stroke:#181818;stroke-width:0.5;" width="430" x="3995" y="166.55"/><rect fill="#F1F1F1" height="10" style="stroke:#181818;stroke-width:0.5;" width="15" x="4405" y="171.55"/><rect fill="#F1F1F1" height="2" style="stroke:#181818;stroke-width:0.5;" width="4" x="4403" y="173.55"/><rect fill="#F1F1F1" height="2" style="stroke:#181818;stroke-width:0.5;" width="4" x="4403" y="177.55"/><text fill="#000000" font-family="sans-serif" font-size="14" lengthAdjust="spacing" textLength="390" x="4010" y="199.5451">com_ewolff_microservice_customer_cdc_CustomerClient</text></a></g><!--entity com_ewolff_microservice_order_catalogstub_CatalogStub--><g id="elem_com_ewolff_microservice_order_catalogstub_CatalogStub"><a href="ewolff-microservice-psr.system#_uqoz3I1jEe-5VPhJeglQCQ" target="_top" title="ewolff-microservice-psr.system#_uqoz3I1jEe-5VPhJeglQCQ" xlink:actuate="onRequest" xlink:href="ewolff-microservice-psr.system#_uqoz3I1jEe-5VPhJeglQCQ" xlink:show="new" xlink:title="ewolff-microservice-psr.system#_uqoz3I1jEe-5VPhJeglQCQ" xlink:type="simple"><rect fill="#F1F1F1" height="46.2969" rx="2.5" ry="2.5" style="stroke:#181818;stroke-width:0.5;" width="434" x="4581" y="166.55"/><rect fill="#F1F1F1" height="10" style="stroke:#181818;stroke-width:0.5;" width="15" x="4995" y="171.55"/><rect fill="#F1F1F1" height="2" style="stroke:#181818;stroke-width:0.5;" width="4" x="4993" y="173.55"/><rect fill="#F1F1F1" height="2" style="stroke:#181818;stroke-width:0.5;" width="4" x="4993" y="177.55"/><text fill="#000000" font-family="sans-serif" font-size="14" lengthAdjust="spacing" textLength="394" x="4596" y="199.5451">com_ewolff_microservice_order_catalogstub_CatalogStub</text></a></g><!--entity com_ewolff_microservice_order_customerstub_CustomerStub--><g id="elem_com_ewolff_microservice_order_customerstub_CustomerStub"><a href="ewolff-microservice-psr.system#_uqoz3I1jEe-5VPhJeglQCQ" target="_top" title="ewolff-microservice-psr.system#_uqoz3I1jEe-5VPhJeglQCQ" xlink:actuate="onRequest" xlink:href="ewolff-microservice-psr.system#_uqoz3I1jEe-5VPhJeglQCQ" xlink:show="new" xlink:title="ewolff-microservice-psr.system#_uqoz3I1jEe-5VPhJeglQCQ" xlink:type="simple"><rect fill="#F1F1F1" height="46.2969" rx="2.5" ry="2.5" style="stroke:#181818;stroke-width:0.5;" width="466" x="5174" y="166.55"/><rect fill="#F1F1F1" height="10" style="stroke:#181818;stroke-width:0.5;" width="15" x="5620" y="171.55"/><rect fill="#F1F1F1" height="2" style="stroke:#181818;stroke-width:0.5;" width="4" x="5618" y="173.55"/><rect fill="#F1F1F1" height="2" style="stroke:#181818;stroke-width:0.5;" width="4" x="5618" y="177.55"/><text fill="#000000" font-family="sans-serif" font-size="14" lengthAdjust="spacing" textLength="426" x="5189" y="199.5451">com_ewolff_microservice_order_customerstub_CustomerStub</text></a></g><!--link nodecom_ewolff_microservice_catalog to nodecom_ewolff_microservice_catalog_cdc_CatalogClient--><g id="link_nodecom_ewolff_microservice_catalog_nodecom_ewolff_microservice_catalog_cdc_CatalogClient"><path d="M36.2953,75.3781 C36.5028,74.8678 36.7134,74.359 36.9269,73.8519 C37.781,71.8236 38.6833,69.8218 39.6361,67.852 C47.2588,52.0938 58.12,38.385 73.5,29.55 C110.31,8.41 800.49,8.76 837.5,29.55 C872.1,48.985 895.865,86.235 911.2638,119.905 C915.1134,128.3225 918.4402,136.5163 921.2827,144.152 C922.704,147.9698 924.0041,151.6481 925.188,155.1452 C925.78,156.8937 926.3429,158.5969 926.8773,160.2495 " fill="none" id="nodecom_ewolff_microservice_catalog-nodecom_ewolff_microservice_catalog_cdc_CatalogClient" style="stroke:#181818;stroke-width:1.0;"/></g><!--link nodecom_ewolff_microservice_customer to nodecom_ewolff_microservice_order--><g id="link_nodecom_ewolff_microservice_customer_nodecom_ewolff_microservice_order"><path d="M1512.2953,75.3781 C1512.5028,74.8678 1512.7134,74.359 1512.9269,73.8519 C1513.781,71.8236 1514.6833,69.8218 1515.6361,67.852 C1523.2588,52.0938 1534.12,38.385 1549.5,29.55 C1590.5,6 2359.28,6.4 2400.5,29.55 C2435.1,48.985 2458.865,86.235 2474.2638,119.905 C2478.1134,128.3225 2481.4402,136.5163 2484.2827,144.152 C2485.704,147.9698 2487.0041,151.6481 2488.188,155.1452 C2488.78,156.8937 2489.3429,158.5969 2489.8773,160.2495 " fill="none" id="nodecom_ewolff_microservice_customer-nodecom_ewolff_microservice_order" style="stroke:#181818;stroke-width:1.0;"/></g><!--SRC=[lLLHIyCm47xlhmZuN4757o35Xuamvy2NK4ANtMOqxSKatPpYVxTRqwgRck3CABGvybs-k_ikL_CeAbNeeYGpyPm9pILS5nEGmmLeMIWbgZcnkeR4z42EfS8AAZksAmcaBkLfKk4KoFhLR39OefpDM2cuHWDw8JWmNjX2ufoy9hqxyMEf1yAozdkXL4ueRP7fPsIgZ3usAsEXF6Br4xwS3KuUBY4zlxkvluAv76MZFFVp31h_Mr1eX4MzYikrX4cNLuQLrIWbwBqetvh7hr1jB9QWmoJw05CVXcLk4K-bRQReKdM46wsSSKYnK4y3bUgGz5S0ur8qfvY-yJPcdE9j4NRLYyxOf2Ku6wxN_oHLE67iXjmX7BSR1nWRRchnAV_QF27ZUyTfptY3XrpB_ANrWaRPhbliYDrjQOjaRDt_6yRDEk1UV-zueAXTfLfsPmJ6_PFhdf7JW5xEIKhedte-zvplyl0IR6gG9-y0]--></g></svg>