<?xml version="1.0" encoding="us-ascii" standalone="no"?><svg xmlns="http://www.w3.org/2000/svg" xmlns:xlink="http://www.w3.org/1999/xlink" contentStyleType="text/css" height="283px" preserveAspectRatio="none" style="width:3657px;height:283px;background:#FFFFFF;" version="1.1" viewBox="0 0 3657 283" width="3657px" zoomAndPan="magnify"><defs/><g><!--cluster nodecom_anilallewar_microservices_task_apis--><g id="cluster_nodecom_anilallewar_microservices_task_apis"><polygon fill="none" points="741,91.72,751,81.72,1760,81.72,1760,256.72,1750,266.72,741,266.72,741,91.72" style="stroke:#181818;stroke-width:1.0;"/><line style="stroke:#181818;stroke-width:1.0;" x1="1750" x2="1760" y1="91.72" y2="81.72"/><line style="stroke:#181818;stroke-width:1.0;" x1="741" x2="1750" y1="91.72" y2="91.72"/><line style="stroke:#181818;stroke-width:1.0;" x1="1750" x2="1750" y1="91.72" y2="266.72"/><text fill="#000000" font-family="sans-serif" font-size="14" font-weight="bold" lengthAdjust="spacing" textLength="361" x="1066" y="107.7151">nodecom_anilallewar_microservices_task_apis</text></g><!--cluster com_anilallewar_microservices_task_apis--><g id="cluster_com_anilallewar_microservices_task_apis"><rect fill="none" height="97" rx="2.5" ry="2.5" style="stroke:#181818;stroke-width:1.0;" width="947" x="781" y="137.72"/><rect fill="none" height="10" style="stroke:#181818;stroke-width:1.0;" width="15" x="1708" y="142.72"/><rect fill="none" height="2" style="stroke:#181818;stroke-width:1.0;" width="4" x="1706" y="144.72"/><rect fill="none" height="2" style="stroke:#181818;stroke-width:1.0;" width="4" x="1706" y="148.72"/><text fill="#000000" font-family="sans-serif" font-size="14" font-weight="bold" lengthAdjust="spacing" textLength="321" x="1094" y="163.7151">com_anilallewar_microservices_task_apis</text></g><!--cluster nodecom_anilallewar_microservices_auth_api_AuthUserController--><g id="cluster_nodecom_anilallewar_microservices_auth_api_AuthUserController"><polygon fill="none" points="1792,142.72,1802,132.72,2382,132.72,2382,224.72,2372,234.72,1792,234.72,1792,142.72" style="stroke:#181818;stroke-width:1.0;"/><line style="stroke:#181818;stroke-width:1.0;" x1="2372" x2="2382" y1="142.72" y2="132.72"/><line style="stroke:#181818;stroke-width:1.0;" x1="1792" x2="2372" y1="142.72" y2="142.72"/><line style="stroke:#181818;stroke-width:1.0;" x1="2372" x2="2372" y1="142.72" y2="234.72"/><text fill="#000000" font-family="sans-serif" font-size="14" font-weight="bold" lengthAdjust="spacing" textLength="514" x="1826" y="158.7151">nodecom_anilallewar_microservices_auth_api_AuthUserController</text></g><!--cluster nodecom_anilallewar_microservices_comments_apis_CommentsController--><g id="cluster_nodecom_anilallewar_microservices_comments_apis_CommentsController"><polygon fill="none" points="2406,142.72,2416,132.72,3062,132.72,3062,224.72,3052,234.72,2406,234.72,2406,142.72" style="stroke:#181818;stroke-width:1.0;"/><line style="stroke:#181818;stroke-width:1.0;" x1="3052" x2="3062" y1="142.72" y2="132.72"/><line style="stroke:#181818;stroke-width:1.0;" x1="2406" x2="3052" y1="142.72" y2="142.72"/><line style="stroke:#181818;stroke-width:1.0;" x1="3052" x2="3052" y1="142.72" y2="234.72"/><text fill="#000000" font-family="sans-serif" font-size="14" font-weight="bold" lengthAdjust="spacing" textLength="580" x="2440" y="158.7151">nodecom_anilallewar_microservices_comments_apis_CommentsController</text></g><!--cluster nodecom_anilallewar_microservices_task_apis_OAuth2RestTemplate_Provider--><g id="cluster_nodecom_anilallewar_microservices_task_apis_OAuth2RestTemplate_Provider"><polygon fill="none" points="16,134.72,26,124.72,701,124.72,701,232.72,691,242.72,16,242.72,16,134.72" style="stroke:#181818;stroke-width:1.0;"/><line style="stroke:#181818;stroke-width:1.0;" x1="691" x2="701" y1="134.72" y2="124.72"/><line style="stroke:#181818;stroke-width:1.0;" x1="16" x2="691" y1="134.72" y2="134.72"/><line style="stroke:#181818;stroke-width:1.0;" x1="691" x2="691" y1="134.72" y2="242.72"/><text fill="#000000" font-family="sans-serif" font-size="14" font-weight="bold" lengthAdjust="spacing" textLength="609" x="50" y="150.7151">nodecom_anilallewar_microservices_task_apis_OAuth2RestTemplate_Provider</text></g><!--cluster nodecom_anilallewar_microservices_user_api_UserController--><g id="cluster_nodecom_anilallewar_microservices_user_api_UserController"><polygon fill="none" points="3086,142.72,3096,132.72,3640,132.72,3640,224.72,3630,234.72,3086,234.72,3086,142.72" style="stroke:#181818;stroke-width:1.0;"/><line style="stroke:#181818;stroke-width:1.0;" x1="3630" x2="3640" y1="142.72" y2="132.72"/><line style="stroke:#181818;stroke-width:1.0;" x1="3086" x2="3630" y1="142.72" y2="142.72"/><line style="stroke:#181818;stroke-width:1.0;" x1="3630" x2="3630" y1="142.72" y2="234.72"/><text fill="#000000" font-family="sans-serif" font-size="14" font-weight="bold" lengthAdjust="spacing" textLength="478" x="3120" y="158.7151">nodecom_anilallewar_microservices_user_api_UserController</text></g><!--entity com_anilallewar_microservices_task_apis_CommentsService--><g id="elem_com_anilallewar_microservices_task_apis_CommentsService"><a href="anilallewar-microservices-basics-spring-boot.system#_4GeYACOrEe-Hbo8iYmD8rw" target="_top" title="anilallewar-microservices-basics-spring-boot.system#_4GeYACOrEe-Hbo8iYmD8rw" xlink:actuate="onRequest" xlink:href="anilallewar-microservices-basics-spring-boot.system#_4GeYACOrEe-Hbo8iYmD8rw" xlink:show="new" xlink:title="anilallewar-microservices-basics-spring-boot.system#_4GeYACOrEe-Hbo8iYmD8rw" xlink:type="simple"><rect fill="#F1F1F1" height="46.2969" rx="2.5" ry="2.5" style="stroke:#181818;stroke-width:0.5;" width="453" x="1259.5" y="172.72"/><rect fill="#F1F1F1" height="10" style="stroke:#181818;stroke-width:0.5;" width="15" x="1692.5" y="177.72"/><rect fill="#F1F1F1" height="2" style="stroke:#181818;stroke-width:0.5;" width="4" x="1690.5" y="179.72"/><rect fill="#F1F1F1" height="2" style="stroke:#181818;stroke-width:0.5;" width="4" x="1690.5" y="183.72"/><text fill="#000000" font-family="sans-serif" font-size="14" lengthAdjust="spacing" textLength="413" x="1274.5" y="205.7151">com_anilallewar_microservices_task_apis_CommentsService</text></a></g><!--entity com_anilallewar_microservices_task_apis_TaskController--><g id="elem_com_anilallewar_microservices_task_apis_TaskController"><a href="anilallewar-microservices-basics-spring-boot.system#_4GeYACOrEe-Hbo8iYmD8rw" target="_top" title="anilallewar-microservices-basics-spring-boot.system#_4GeYACOrEe-Hbo8iYmD8rw" xlink:actuate="onRequest" xlink:href="anilallewar-microservices-basics-spring-boot.system#_4GeYACOrEe-Hbo8iYmD8rw" xlink:show="new" xlink:title="anilallewar-microservices-basics-spring-boot.system#_4GeYACOrEe-Hbo8iYmD8rw" xlink:type="simple"><rect fill="#F1F1F1" height="46.2969" rx="2.5" ry="2.5" style="stroke:#181818;stroke-width:0.5;" width="427" x="797.5" y="172.72"/><rect fill="#F1F1F1" height="10" style="stroke:#181818;stroke-width:0.5;" width="15" x="1204.5" y="177.72"/><rect fill="#F1F1F1" height="2" style="stroke:#181818;stroke-width:0.5;" width="4" x="1202.5" y="179.72"/><rect fill="#F1F1F1" height="2" style="stroke:#181818;stroke-width:0.5;" width="4" x="1202.5" y="183.72"/><text fill="#000000" font-family="sans-serif" font-size="14" lengthAdjust="spacing" textLength="387" x="812.5" y="205.7151">com_anilallewar_microservices_task_apis_TaskController</text></a></g><!--entity com_anilallewar_microservices_auth_api_AuthUserController--><g id="elem_com_anilallewar_microservices_auth_api_AuthUserController"><a href="anilallewar-microservices-basics-spring-boot.system#_4GeYACOrEe-Hbo8iYmD8rw" target="_top" title="anilallewar-microservices-basics-spring-boot.system#_4GeYACOrEe-Hbo8iYmD8rw" xlink:actuate="onRequest" xlink:href="anilallewar-microservices-basics-spring-boot.system#_4GeYACOrEe-Hbo8iYmD8rw" xlink:show="new" xlink:title="anilallewar-microservices-basics-spring-boot.system#_4GeYACOrEe-Hbo8iYmD8rw" xlink:type="simple"><rect fill="#F1F1F1" height="46.2969" rx="2.5" ry="2.5" style="stroke:#181818;stroke-width:0.5;" width="452" x="1861" y="172.72"/><rect fill="#F1F1F1" height="10" style="stroke:#181818;stroke-width:0.5;" width="15" x="2293" y="177.72"/><rect fill="#F1F1F1" height="2" style="stroke:#181818;stroke-width:0.5;" width="4" x="2291" y="179.72"/><rect fill="#F1F1F1" height="2" style="stroke:#181818;stroke-width:0.5;" width="4" x="2291" y="183.72"/><text fill="#000000" font-family="sans-serif" font-size="14" lengthAdjust="spacing" textLength="412" x="1876" y="205.7151">com_anilallewar_microservices_auth_api_AuthUserController</text></a></g><!--entity com_anilallewar_microservices_comments_apis_CommentsController--><g id="elem_com_anilallewar_microservices_comments_apis_CommentsController"><a href="anilallewar-microservices-basics-spring-boot.system#_4GeYACOrEe-Hbo8iYmD8rw" target="_top" title="anilallewar-microservices-basics-spring-boot.system#_4GeYACOrEe-Hbo8iYmD8rw" xlink:actuate="onRequest" xlink:href="anilallewar-microservices-basics-spring-boot.system#_4GeYACOrEe-Hbo8iYmD8rw" xlink:show="new" xlink:title="anilallewar-microservices-basics-spring-boot.system#_4GeYACOrEe-Hbo8iYmD8rw" xlink:type="simple"><rect fill="#F1F1F1" height="46.2969" rx="2.5" ry="2.5" style="stroke:#181818;stroke-width:0.5;" width="515" x="2476.5" y="172.72"/><rect fill="#F1F1F1" height="10" style="stroke:#181818;stroke-width:0.5;" width="15" x="2971.5" y="177.72"/><rect fill="#F1F1F1" height="2" style="stroke:#181818;stroke-width:0.5;" width="4" x="2969.5" y="179.72"/><rect fill="#F1F1F1" height="2" style="stroke:#181818;stroke-width:0.5;" width="4" x="2969.5" y="183.72"/><text fill="#000000" font-family="sans-serif" font-size="14" lengthAdjust="spacing" textLength="475" x="2491.5" y="205.7151">com_anilallewar_microservices_comments_apis_CommentsController</text></a></g><!--entity com_anilallewar_microservices_task_apis_OAuth2RestTemplate_Provider--><g id="elem_com_anilallewar_microservices_task_apis_OAuth2RestTemplate_Provider"><a href="anilallewar-microservices-basics-spring-boot.system#_4GeYACOrEe-Hbo8iYmD8rw" target="_top" title="anilallewar-microservices-basics-spring-boot.system#_4GeYACOrEe-Hbo8iYmD8rw" xlink:actuate="onRequest" xlink:href="anilallewar-microservices-basics-spring-boot.system#_4GeYACOrEe-Hbo8iYmD8rw" xlink:show="new" xlink:title="anilallewar-microservices-basics-spring-boot.system#_4GeYACOrEe-Hbo8iYmD8rw" xlink:type="simple"><rect fill="#F1F1F1" height="46.2969" rx="2.5" ry="2.5" style="stroke:#181818;stroke-width:0.5;" width="539" x="137.5" y="172.72"/><rect fill="#F1F1F1" height="10" style="stroke:#181818;stroke-width:0.5;" width="15" x="656.5" y="177.72"/><rect fill="#F1F1F1" height="2" style="stroke:#181818;stroke-width:0.5;" width="4" x="654.5" y="179.72"/><rect fill="#F1F1F1" height="2" style="stroke:#181818;stroke-width:0.5;" width="4" x="654.5" y="183.72"/><text fill="#000000" font-family="sans-serif" font-size="14" lengthAdjust="spacing" textLength="499" x="152.5" y="205.7151">com_anilallewar_microservices_task_apis_OAuth2RestTemplate_Provider</text></a></g><!--entity com_anilallewar_microservices_user_api_UserController--><g id="elem_com_anilallewar_microservices_user_api_UserController"><a href="anilallewar-microservices-basics-spring-boot.system#_4GeYACOrEe-Hbo8iYmD8rw" target="_top" title="anilallewar-microservices-basics-spring-boot.system#_4GeYACOrEe-Hbo8iYmD8rw" xlink:actuate="onRequest" xlink:href="anilallewar-microservices-basics-spring-boot.system#_4GeYACOrEe-Hbo8iYmD8rw" xlink:show="new" xlink:title="anilallewar-microservices-basics-spring-boot.system#_4GeYACOrEe-Hbo8iYmD8rw" xlink:type="simple"><rect fill="#F1F1F1" height="46.2969" rx="2.5" ry="2.5" style="stroke:#181818;stroke-width:0.5;" width="420" x="3153" y="172.72"/><rect fill="#F1F1F1" height="10" style="stroke:#181818;stroke-width:0.5;" width="15" x="3553" y="177.72"/><rect fill="#F1F1F1" height="2" style="stroke:#181818;stroke-width:0.5;" width="4" x="3551" y="179.72"/><rect fill="#F1F1F1" height="2" style="stroke:#181818;stroke-width:0.5;" width="4" x="3551" y="183.72"/><text fill="#000000" font-family="sans-serif" font-size="14" lengthAdjust="spacing" textLength="380" x="3168" y="205.7151">com_anilallewar_microservices_user_api_UserController</text></a></g><!--link nodecom_anilallewar_microservices_task_apis_OAuth2RestTemplate_Provider to nodecom_anilallewar_microservices_task_apis--><g id="link_nodecom_anilallewar_microservices_task_apis_OAuth2RestTemplate_Provider_nodecom_anilallewar_microservices_task_apis"><path d="M96.7567,124.3819 C96.7867,123.8396 96.8187,123.2966 96.8527,122.7529 C96.9207,121.6655 96.9968,120.5755 97.0813,119.4835 C97.2504,117.2995 97.4533,115.1078 97.6935,112.9141 C98.1737,108.5268 98.8024,104.1317 99.6056,99.7759 C101.212,91.0643 103.5161,82.5093 106.7253,74.4858 C113.1438,58.4388 123.1825,44.5175 138.5,35.72 C190.24,6 623.76,6 675.5,35.72 C707.84,54.295 726.0475,91.5025 736.2488,125.365 C737.5239,129.5978 738.674,133.7784 739.7109,137.8637 C739.9701,138.8851 740.2223,139.9004 740.4676,140.9092 C740.5902,141.4136 740.7111,141.9163 740.8303,142.4173 " fill="none" id="nodecom_anilallewar_microservices_task_apis_OAuth2RestTemplate_Provider-nodecom_anilallewar_microservices_task_apis" style="stroke:#181818;stroke-width:1.0;"/></g><!--SRC=[nP9DImCn48Rl-oi2dkEXUEYrhA87eMBheInBoAQZXkQBcUpM8lvtiogjFMYpq582OKZcVPbdPcYbNP0eBNlMRwL6PU1UDc2c7Q2H8MZtmYAsKD0sKNaRl0CNPt5ZWBNMZ0hdby3wAtqAwRIHni1Qeh1QeIV0JYiW4IMjX0oQs7knjM7vcYepLPJUscHDi- -lcbNLBndVa_56abR4AM2YvOttyP8s5C5UYAjRM4pAATu0lslyM2_izHZNTPrVoJn5fNSHVKh4unVoaKvczsKRN_kYn2G5J-bvLzVXtluZFWLK9fBwcVF-r8Tm7N8u8znkYQPzqqUFG74EDXWPGJoWx_GoXp3BveoOROg-DcleIluXF0LATQHfrOop8LvryGa0]--></g></svg>