<?xml version="1.0" encoding="us-ascii" standalone="no"?><svg xmlns="http://www.w3.org/2000/svg" xmlns:xlink="http://www.w3.org/1999/xlink" contentStyleType="text/css" height="125px" preserveAspectRatio="none" style="width:2708px;height:125px;background:#FFFFFF;" version="1.1" viewBox="0 0 2708 125" width="2708px" zoomAndPan="magnify"><defs/><g><!--cluster Placeholder_10--><g id="cluster_Placeholder_10"><polygon fill="none" points="1577,16,1587,6,2691,6,2691,98,2681,108,1577,108,1577,16" style="stroke:#181818;stroke-width:1.0;"/><line style="stroke:#181818;stroke-width:1.0;" x1="2681" x2="2691" y1="16" y2="6"/><line style="stroke:#181818;stroke-width:1.0;" x1="1577" x2="2681" y1="16" y2="16"/><line style="stroke:#181818;stroke-width:1.0;" x1="2681" x2="2681" y1="16" y2="108"/><text fill="#000000" font-family="sans-serif" font-size="14" font-weight="bold" lengthAdjust="spacing" textLength="120" x="2070" y="31.9951">Placeholder_10</text></g><!--entity aName--><g id="elem_aName"><a href="anilallewar-microservices-basics-spring-boot.system#_qi9JkLtpEe6ln6vmFLyqdg" target="_top" title="anilallewar-microservices-basics-spring-boot.system#_qi9JkLtpEe6ln6vmFLyqdg" xlink:actuate="onRequest" xlink:href="anilallewar-microservices-basics-spring-boot.system#_qi9JkLtpEe6ln6vmFLyqdg" xlink:show="new" xlink:title="anilallewar-microservices-basics-spring-boot.system#_qi9JkLtpEe6ln6vmFLyqdg" xlink:type="simple"><rect fill="#F1F1F1" height="46.2969" rx="2.5" ry="2.5" style="stroke:#181818;stroke-width:0.5;" width="88" x="1593" y="46"/><rect fill="#F1F1F1" height="10" style="stroke:#181818;stroke-width:0.5;" width="15" x="1661" y="51"/><rect fill="#F1F1F1" height="2" style="stroke:#181818;stroke-width:0.5;" width="4" x="1659" y="53"/><rect fill="#F1F1F1" height="2" style="stroke:#181818;stroke-width:0.5;" width="4" x="1659" y="57"/><text fill="#000000" font-family="sans-serif" font-size="14" lengthAdjust="spacing" textLength="48" x="1608" y="78.9951">aName</text></a></g><!--entity Placeholder_14--><g id="elem_Placeholder_14"><polygon fill="#F1F1F1" points="16,56,26,46,162,46,162,82.2969,152,92.2969,16,92.2969,16,56" style="stroke:#181818;stroke-width:0.5;"/><line style="stroke:#181818;stroke-width:0.5;" x1="152" x2="162" y1="56" y2="46"/><line style="stroke:#181818;stroke-width:0.5;" x1="16" x2="152" y1="56" y2="56"/><line style="stroke:#181818;stroke-width:0.5;" x1="152" x2="152" y1="56" y2="92.2969"/><text fill="#000000" font-family="sans-serif" font-size="14" lengthAdjust="spacing" textLength="106" x="31" y="78.9951">Placeholder_14</text></g><!--entity Placeholder_5--><g id="elem_Placeholder_5"><polygon fill="#F1F1F1" points="197.5,56,207.5,46,334.5,46,334.5,82.2969,324.5,92.2969,197.5,92.2969,197.5,56" style="stroke:#181818;stroke-width:0.5;"/><line style="stroke:#181818;stroke-width:0.5;" x1="324.5" x2="334.5" y1="56" y2="46"/><line style="stroke:#181818;stroke-width:0.5;" x1="197.5" x2="324.5" y1="56" y2="56"/><line style="stroke:#181818;stroke-width:0.5;" x1="324.5" x2="324.5" y1="56" y2="92.2969"/><text fill="#000000" font-family="sans-serif" font-size="14" lengthAdjust="spacing" textLength="97" x="212.5" y="78.9951">Placeholder_5</text></g><!--entity Placeholder_7--><g id="elem_Placeholder_7"><polygon fill="#F1F1F1" points="369.5,56,379.5,46,506.5,46,506.5,82.2969,496.5,92.2969,369.5,92.2969,369.5,56" style="stroke:#181818;stroke-width:0.5;"/><line style="stroke:#181818;stroke-width:0.5;" x1="496.5" x2="506.5" y1="56" y2="46"/><line style="stroke:#181818;stroke-width:0.5;" x1="369.5" x2="496.5" y1="56" y2="56"/><line style="stroke:#181818;stroke-width:0.5;" x1="496.5" x2="496.5" y1="56" y2="92.2969"/><text fill="#000000" font-family="sans-serif" font-size="14" lengthAdjust="spacing" textLength="97" x="384.5" y="78.9951">Placeholder_7</text></g><!--entity Placeholder_8--><g id="elem_Placeholder_8"><polygon fill="#F1F1F1" points="541.5,56,551.5,46,678.5,46,678.5,82.2969,668.5,92.2969,541.5,92.2969,541.5,56" style="stroke:#181818;stroke-width:0.5;"/><line style="stroke:#181818;stroke-width:0.5;" x1="668.5" x2="678.5" y1="56" y2="46"/><line style="stroke:#181818;stroke-width:0.5;" x1="541.5" x2="668.5" y1="56" y2="56"/><line style="stroke:#181818;stroke-width:0.5;" x1="668.5" x2="668.5" y1="56" y2="92.2969"/><text fill="#000000" font-family="sans-serif" font-size="14" lengthAdjust="spacing" textLength="97" x="556.5" y="78.9951">Placeholder_8</text></g><!--entity Placeholder_6--><g id="elem_Placeholder_6"><polygon fill="#F1F1F1" points="713.5,56,723.5,46,850.5,46,850.5,82.2969,840.5,92.2969,713.5,92.2969,713.5,56" style="stroke:#181818;stroke-width:0.5;"/><line style="stroke:#181818;stroke-width:0.5;" x1="840.5" x2="850.5" y1="56" y2="46"/><line style="stroke:#181818;stroke-width:0.5;" x1="713.5" x2="840.5" y1="56" y2="56"/><line style="stroke:#181818;stroke-width:0.5;" x1="840.5" x2="840.5" y1="56" y2="92.2969"/><text fill="#000000" font-family="sans-serif" font-size="14" lengthAdjust="spacing" textLength="97" x="728.5" y="78.9951">Placeholder_6</text></g><!--entity Placeholder_16--><g id="elem_Placeholder_16"><polygon fill="#F1F1F1" points="886,56,896,46,1032,46,1032,82.2969,1022,92.2969,886,92.2969,886,56" style="stroke:#181818;stroke-width:0.5;"/><line style="stroke:#181818;stroke-width:0.5;" x1="1022" x2="1032" y1="56" y2="46"/><line style="stroke:#181818;stroke-width:0.5;" x1="886" x2="1022" y1="56" y2="56"/><line style="stroke:#181818;stroke-width:0.5;" x1="1022" x2="1022" y1="56" y2="92.2969"/><text fill="#000000" font-family="sans-serif" font-size="14" lengthAdjust="spacing" textLength="106" x="901" y="78.9951">Placeholder_16</text></g><!--entity Placeholder_4--><g id="elem_Placeholder_4"><polygon fill="#F1F1F1" points="1067.5,56,1077.5,46,1204.5,46,1204.5,82.2969,1194.5,92.2969,1067.5,92.2969,1067.5,56" style="stroke:#181818;stroke-width:0.5;"/><line style="stroke:#181818;stroke-width:0.5;" x1="1194.5" x2="1204.5" y1="56" y2="46"/><line style="stroke:#181818;stroke-width:0.5;" x1="1067.5" x2="1194.5" y1="56" y2="56"/><line style="stroke:#181818;stroke-width:0.5;" x1="1194.5" x2="1194.5" y1="56" y2="92.2969"/><text fill="#000000" font-family="sans-serif" font-size="14" lengthAdjust="spacing" textLength="97" x="1082.5" y="78.9951">Placeholder_4</text></g><!--entity Placeholder_9--><g id="elem_Placeholder_9"><polygon fill="#F1F1F1" points="1239.5,56,1249.5,46,1376.5,46,1376.5,82.2969,1366.5,92.2969,1239.5,92.2969,1239.5,56" style="stroke:#181818;stroke-width:0.5;"/><line style="stroke:#181818;stroke-width:0.5;" x1="1366.5" x2="1376.5" y1="56" y2="46"/><line style="stroke:#181818;stroke-width:0.5;" x1="1239.5" x2="1366.5" y1="56" y2="56"/><line style="stroke:#181818;stroke-width:0.5;" x1="1366.5" x2="1366.5" y1="56" y2="92.2969"/><text fill="#000000" font-family="sans-serif" font-size="14" lengthAdjust="spacing" textLength="97" x="1254.5" y="78.9951">Placeholder_9</text></g><!--entity Placeholder_12--><g id="elem_Placeholder_12"><polygon fill="#F1F1F1" points="1412,56,1422,46,1558,46,1558,82.2969,1548,92.2969,1412,92.2969,1412,56" style="stroke:#181818;stroke-width:0.5;"/><line style="stroke:#181818;stroke-width:0.5;" x1="1548" x2="1558" y1="56" y2="46"/><line style="stroke:#181818;stroke-width:0.5;" x1="1412" x2="1548" y1="56" y2="56"/><line style="stroke:#181818;stroke-width:0.5;" x1="1548" x2="1548" y1="56" y2="92.2969"/><text fill="#000000" font-family="sans-serif" font-size="14" lengthAdjust="spacing" textLength="106" x="1427" y="78.9951">Placeholder_12</text></g><!--link aName to aName--><g id="link_aName_aName"><path d="M1681.27,64.73 C1700.02,64.41 1716,65.83 1716,69 C1716,72.17 1700.02,73.59 1681.27,73.27 " fill="none" id="aName-aName" style="stroke:#181818;stroke-width:1.0;"/><text fill="#000000" font-family="sans-serif" font-size="13" lengthAdjust="spacing" textLength="444" x="1729" y="73.5669">com_anilallewar_microservices_task_apis_CommentsService Provider</text><path d="M1674.0793,57.7806 A10,10 0 0 0 1674.3206 71.9207" fill="none" style="stroke:#181818;stroke-width:1.5;"/><ellipse cx="1681.27" cy="64.73" fill="#FFFFFF" rx="6" ry="6" style="stroke:#181818;stroke-width:1.5;"/></g><!--link aName to aName--><g id="link_aName_aName"><path d="M1681.05,64.69 C1813.74,57.75 2186,59.18 2186,69 C2186,78.82 1813.74,80.25 1681.05,73.31 " fill="none" id="aName-aName-1" style="stroke:#181818;stroke-width:1.0;"/><text fill="#000000" font-family="sans-serif" font-size="13" lengthAdjust="spacing" textLength="462" x="2199" y="73.5669">com_anilallewar_microservices_task_apis_OAuth2RestTemplate Provider</text><path d="M1673.6193,57.9979 A10,10 0 0 0 1674.3579 72.1207" fill="none" style="stroke:#181818;stroke-width:1.5;"/><ellipse cx="1681.05" cy="64.69" fill="#FFFFFF" rx="6" ry="6" style="stroke:#181818;stroke-width:1.5;"/></g><!--SRC=[lT9DIyD040RWUtx5WXSlAxNOQBr9iOSIR55l8IoJpTWEsQ_kR5EB-DyjIA62Dt6Fmy3x3CFBFRa04Qnue_SPHMsmWXRDSi1e80HoQv7Y3WldEnGh0nettdGOrVL8V1GrF875HjGrE39W3EuXIaiwUiOua4QMBJ1fbXpYCKostgShFd12Uw6sD5tqLGgFM1fN3dPU7RRTkccApr-ycxpU92ztcvUxoykLcRkIsSjSpMdcRux_rJiboykH5AVXNcXlrHcbVb0g0VSA0h6QUMlH9NxvNebLz0CTp_vhxl9XbpRZP-JqYZOOI6VHNm00]--></g></svg>