<?xml version="1.0" encoding="us-ascii" standalone="no"?><svg xmlns="http://www.w3.org/2000/svg" xmlns:xlink="http://www.w3.org/1999/xlink" contentStyleType="text/css" height="283px" preserveAspectRatio="none" style="width:3485px;height:283px;background:#FFFFFF;" version="1.1" viewBox="0 0 3485 283" width="3485px" zoomAndPan="magnify"><defs/><g><!--cluster nodeAuthUserController--><g id="cluster_nodeAuthUserController"><polygon fill="none" points="1792,99.72,1802,89.72,2324,89.72,2324,248.72,2314,258.72,1792,258.72,1792,99.72" style="stroke:#181818;stroke-width:1.0;"/><line style="stroke:#181818;stroke-width:1.0;" x1="2314" x2="2324" y1="99.72" y2="89.72"/><line style="stroke:#181818;stroke-width:1.0;" x1="1792" x2="2314" y1="99.72" y2="99.72"/><line style="stroke:#181818;stroke-width:1.0;" x1="2314" x2="2314" y1="99.72" y2="258.72"/><text fill="#000000" font-family="sans-serif" font-size="14" font-weight="bold" lengthAdjust="spacing" textLength="193" x="1957.5" y="115.7151">nodeAuthUserController</text></g><!--cluster AuthUserController--><g id="cluster_AuthUserController"><rect fill="none" height="97" rx="2.5" ry="2.5" style="stroke:#181818;stroke-width:1.0;" width="484" x="1816" y="137.72"/><rect fill="none" height="10" style="stroke:#181818;stroke-width:1.0;" width="15" x="2280" y="142.72"/><rect fill="none" height="2" style="stroke:#181818;stroke-width:1.0;" width="4" x="2278" y="144.72"/><rect fill="none" height="2" style="stroke:#181818;stroke-width:1.0;" width="4" x="2278" y="148.72"/><text fill="#000000" font-family="sans-serif" font-size="14" font-weight="bold" lengthAdjust="spacing" textLength="153" x="1981.5" y="163.7151">AuthUserController</text></g><!--cluster nodeCommentsController--><g id="cluster_nodeCommentsController"><polygon fill="none" points="2348,99.72,2358,89.72,2944,89.72,2944,248.72,2934,258.72,2348,258.72,2348,99.72" style="stroke:#181818;stroke-width:1.0;"/><line style="stroke:#181818;stroke-width:1.0;" x1="2934" x2="2944" y1="99.72" y2="89.72"/><line style="stroke:#181818;stroke-width:1.0;" x1="2348" x2="2934" y1="99.72" y2="99.72"/><line style="stroke:#181818;stroke-width:1.0;" x1="2934" x2="2934" y1="99.72" y2="258.72"/><text fill="#000000" font-family="sans-serif" font-size="14" font-weight="bold" lengthAdjust="spacing" textLength="203" x="2540.5" y="115.7151">nodeCommentsController</text></g><!--cluster CommentsController--><g id="cluster_CommentsController"><rect fill="none" height="97" rx="2.5" ry="2.5" style="stroke:#181818;stroke-width:1.0;" width="548" x="2372" y="137.72"/><rect fill="none" height="10" style="stroke:#181818;stroke-width:1.0;" width="15" x="2900" y="142.72"/><rect fill="none" height="2" style="stroke:#181818;stroke-width:1.0;" width="4" x="2898" y="144.72"/><rect fill="none" height="2" style="stroke:#181818;stroke-width:1.0;" width="4" x="2898" y="148.72"/><text fill="#000000" font-family="sans-serif" font-size="14" font-weight="bold" lengthAdjust="spacing" textLength="163" x="2564.5" y="163.7151">CommentsController</text></g><!--cluster nodeTaskController--><g id="cluster_nodeTaskController"><polygon fill="none" points="741,91.72,751,81.72,1760,81.72,1760,256.72,1750,266.72,741,266.72,741,91.72" style="stroke:#181818;stroke-width:1.0;"/><line style="stroke:#181818;stroke-width:1.0;" x1="1750" x2="1760" y1="91.72" y2="81.72"/><line style="stroke:#181818;stroke-width:1.0;" x1="741" x2="1750" y1="91.72" y2="91.72"/><line style="stroke:#181818;stroke-width:1.0;" x1="1750" x2="1750" y1="91.72" y2="266.72"/><text fill="#000000" font-family="sans-serif" font-size="14" font-weight="bold" lengthAdjust="spacing" textLength="156" x="1168.5" y="107.7151">nodeTaskController</text></g><!--cluster TaskController--><g id="cluster_TaskController"><rect fill="none" height="97" rx="2.5" ry="2.5" style="stroke:#181818;stroke-width:1.0;" width="947" x="781" y="137.72"/><rect fill="none" height="10" style="stroke:#181818;stroke-width:1.0;" width="15" x="1708" y="142.72"/><rect fill="none" height="2" style="stroke:#181818;stroke-width:1.0;" width="4" x="1706" y="144.72"/><rect fill="none" height="2" style="stroke:#181818;stroke-width:1.0;" width="4" x="1706" y="148.72"/><text fill="#000000" font-family="sans-serif" font-size="14" font-weight="bold" lengthAdjust="spacing" textLength="116" x="1196.5" y="163.7151">TaskController</text></g><!--cluster nodeUserController--><g id="cluster_nodeUserController"><polygon fill="none" points="2968,99.72,2978,89.72,3468,89.72,3468,248.72,3458,258.72,2968,258.72,2968,99.72" style="stroke:#181818;stroke-width:1.0;"/><line style="stroke:#181818;stroke-width:1.0;" x1="3458" x2="3468" y1="99.72" y2="89.72"/><line style="stroke:#181818;stroke-width:1.0;" x1="2968" x2="3458" y1="99.72" y2="99.72"/><line style="stroke:#181818;stroke-width:1.0;" x1="3458" x2="3458" y1="99.72" y2="258.72"/><text fill="#000000" font-family="sans-serif" font-size="14" font-weight="bold" lengthAdjust="spacing" textLength="156" x="3136" y="115.7151">nodeUserController</text></g><!--cluster UserController--><g id="cluster_UserController"><rect fill="none" height="97" rx="2.5" ry="2.5" style="stroke:#181818;stroke-width:1.0;" width="452" x="2992" y="137.72"/><rect fill="none" height="10" style="stroke:#181818;stroke-width:1.0;" width="15" x="3424" y="142.72"/><rect fill="none" height="2" style="stroke:#181818;stroke-width:1.0;" width="4" x="3422" y="144.72"/><rect fill="none" height="2" style="stroke:#181818;stroke-width:1.0;" width="4" x="3422" y="148.72"/><text fill="#000000" font-family="sans-serif" font-size="14" font-weight="bold" lengthAdjust="spacing" textLength="116" x="3160" y="163.7151">UserController</text></g><!--cluster nodecom_anilallewar_microservices_task_apis_OAuth2RestTemplate_Provider--><g id="cluster_nodecom_anilallewar_microservices_task_apis_OAuth2RestTemplate_Provider"><polygon fill="none" points="16,134.72,26,124.72,701,124.72,701,232.72,691,242.72,16,242.72,16,134.72" style="stroke:#181818;stroke-width:1.0;"/><line style="stroke:#181818;stroke-width:1.0;" x1="691" x2="701" y1="134.72" y2="124.72"/><line style="stroke:#181818;stroke-width:1.0;" x1="16" x2="691" y1="134.72" y2="134.72"/><line style="stroke:#181818;stroke-width:1.0;" x1="691" x2="691" y1="134.72" y2="242.72"/><text fill="#000000" font-family="sans-serif" font-size="14" font-weight="bold" lengthAdjust="spacing" textLength="609" x="50" y="150.7151">nodecom_anilallewar_microservices_task_apis_OAuth2RestTemplate_Provider</text></g><!--entity com_anilallewar_microservices_auth_api_AuthUserController--><g id="elem_com_anilallewar_microservices_auth_api_AuthUserController"><a href="anilallewar-microservices-basics-spring-boot.system#_s6Or0MFwEe6q_64JQbqU-Q" target="_top" title="anilallewar-microservices-basics-spring-boot.system#_s6Or0MFwEe6q_64JQbqU-Q" xlink:actuate="onRequest" xlink:href="anilallewar-microservices-basics-spring-boot.system#_s6Or0MFwEe6q_64JQbqU-Q" xlink:show="new" xlink:title="anilallewar-microservices-basics-spring-boot.system#_s6Or0MFwEe6q_64JQbqU-Q" xlink:type="simple"><rect fill="#F1F1F1" height="46.2969" rx="2.5" ry="2.5" style="stroke:#181818;stroke-width:0.5;" width="452" x="1832" y="172.72"/><rect fill="#F1F1F1" height="10" style="stroke:#181818;stroke-width:0.5;" width="15" x="2264" y="177.72"/><rect fill="#F1F1F1" height="2" style="stroke:#181818;stroke-width:0.5;" width="4" x="2262" y="179.72"/><rect fill="#F1F1F1" height="2" style="stroke:#181818;stroke-width:0.5;" width="4" x="2262" y="183.72"/><text fill="#000000" font-family="sans-serif" font-size="14" lengthAdjust="spacing" textLength="412" x="1847" y="205.7151">com_anilallewar_microservices_auth_api_AuthUserController</text></a></g><!--entity com_anilallewar_microservices_comments_apis_CommentsController--><g id="elem_com_anilallewar_microservices_comments_apis_CommentsController"><a href="anilallewar-microservices-basics-spring-boot.system#_s6Or0MFwEe6q_64JQbqU-Q" target="_top" title="anilallewar-microservices-basics-spring-boot.system#_s6Or0MFwEe6q_64JQbqU-Q" xlink:actuate="onRequest" xlink:href="anilallewar-microservices-basics-spring-boot.system#_s6Or0MFwEe6q_64JQbqU-Q" xlink:show="new" xlink:title="anilallewar-microservices-basics-spring-boot.system#_s6Or0MFwEe6q_64JQbqU-Q" xlink:type="simple"><rect fill="#F1F1F1" height="46.2969" rx="2.5" ry="2.5" style="stroke:#181818;stroke-width:0.5;" width="515" x="2388.5" y="172.72"/><rect fill="#F1F1F1" height="10" style="stroke:#181818;stroke-width:0.5;" width="15" x="2883.5" y="177.72"/><rect fill="#F1F1F1" height="2" style="stroke:#181818;stroke-width:0.5;" width="4" x="2881.5" y="179.72"/><rect fill="#F1F1F1" height="2" style="stroke:#181818;stroke-width:0.5;" width="4" x="2881.5" y="183.72"/><text fill="#000000" font-family="sans-serif" font-size="14" lengthAdjust="spacing" textLength="475" x="2403.5" y="205.7151">com_anilallewar_microservices_comments_apis_CommentsController</text></a></g><!--entity com_anilallewar_microservices_task_apis_CommentsService--><g id="elem_com_anilallewar_microservices_task_apis_CommentsService"><a href="anilallewar-microservices-basics-spring-boot.system#_s6Or0MFwEe6q_64JQbqU-Q" target="_top" title="anilallewar-microservices-basics-spring-boot.system#_s6Or0MFwEe6q_64JQbqU-Q" xlink:actuate="onRequest" xlink:href="anilallewar-microservices-basics-spring-boot.system#_s6Or0MFwEe6q_64JQbqU-Q" xlink:show="new" xlink:title="anilallewar-microservices-basics-spring-boot.system#_s6Or0MFwEe6q_64JQbqU-Q" xlink:type="simple"><rect fill="#F1F1F1" height="46.2969" rx="2.5" ry="2.5" style="stroke:#181818;stroke-width:0.5;" width="453" x="1259.5" y="172.72"/><rect fill="#F1F1F1" height="10" style="stroke:#181818;stroke-width:0.5;" width="15" x="1692.5" y="177.72"/><rect fill="#F1F1F1" height="2" style="stroke:#181818;stroke-width:0.5;" width="4" x="1690.5" y="179.72"/><rect fill="#F1F1F1" height="2" style="stroke:#181818;stroke-width:0.5;" width="4" x="1690.5" y="183.72"/><text fill="#000000" font-family="sans-serif" font-size="14" lengthAdjust="spacing" textLength="413" x="1274.5" y="205.7151">com_anilallewar_microservices_task_apis_CommentsService</text></a></g><!--entity com_anilallewar_microservices_task_apis_TaskController--><g id="elem_com_anilallewar_microservices_task_apis_TaskController"><a href="anilallewar-microservices-basics-spring-boot.system#_s6Or0MFwEe6q_64JQbqU-Q" target="_top" title="anilallewar-microservices-basics-spring-boot.system#_s6Or0MFwEe6q_64JQbqU-Q" xlink:actuate="onRequest" xlink:href="anilallewar-microservices-basics-spring-boot.system#_s6Or0MFwEe6q_64JQbqU-Q" xlink:show="new" xlink:title="anilallewar-microservices-basics-spring-boot.system#_s6Or0MFwEe6q_64JQbqU-Q" xlink:type="simple"><rect fill="#F1F1F1" height="46.2969" rx="2.5" ry="2.5" style="stroke:#181818;stroke-width:0.5;" width="427" x="797.5" y="172.72"/><rect fill="#F1F1F1" height="10" style="stroke:#181818;stroke-width:0.5;" width="15" x="1204.5" y="177.72"/><rect fill="#F1F1F1" height="2" style="stroke:#181818;stroke-width:0.5;" width="4" x="1202.5" y="179.72"/><rect fill="#F1F1F1" height="2" style="stroke:#181818;stroke-width:0.5;" width="4" x="1202.5" y="183.72"/><text fill="#000000" font-family="sans-serif" font-size="14" lengthAdjust="spacing" textLength="387" x="812.5" y="205.7151">com_anilallewar_microservices_task_apis_TaskController</text></a></g><!--entity com_anilallewar_microservices_user_api_UserController--><g id="elem_com_anilallewar_microservices_user_api_UserController"><a href="anilallewar-microservices-basics-spring-boot.system#_s6Or0MFwEe6q_64JQbqU-Q" target="_top" title="anilallewar-microservices-basics-spring-boot.system#_s6Or0MFwEe6q_64JQbqU-Q" xlink:actuate="onRequest" xlink:href="anilallewar-microservices-basics-spring-boot.system#_s6Or0MFwEe6q_64JQbqU-Q" xlink:show="new" xlink:title="anilallewar-microservices-basics-spring-boot.system#_s6Or0MFwEe6q_64JQbqU-Q" xlink:type="simple"><rect fill="#F1F1F1" height="46.2969" rx="2.5" ry="2.5" style="stroke:#181818;stroke-width:0.5;" width="420" x="3008" y="172.72"/><rect fill="#F1F1F1" height="10" style="stroke:#181818;stroke-width:0.5;" width="15" x="3408" y="177.72"/><rect fill="#F1F1F1" height="2" style="stroke:#181818;stroke-width:0.5;" width="4" x="3406" y="179.72"/><rect fill="#F1F1F1" height="2" style="stroke:#181818;stroke-width:0.5;" width="4" x="3406" y="183.72"/><text fill="#000000" font-family="sans-serif" font-size="14" lengthAdjust="spacing" textLength="380" x="3023" y="205.7151">com_anilallewar_microservices_user_api_UserController</text></a></g><!--entity com_anilallewar_microservices_task_apis_OAuth2RestTemplate_Provider--><g id="elem_com_anilallewar_microservices_task_apis_OAuth2RestTemplate_Provider"><a href="anilallewar-microservices-basics-spring-boot.system#_s6Or0MFwEe6q_64JQbqU-Q" target="_top" title="anilallewar-microservices-basics-spring-boot.system#_s6Or0MFwEe6q_64JQbqU-Q" xlink:actuate="onRequest" xlink:href="anilallewar-microservices-basics-spring-boot.system#_s6Or0MFwEe6q_64JQbqU-Q" xlink:show="new" xlink:title="anilallewar-microservices-basics-spring-boot.system#_s6Or0MFwEe6q_64JQbqU-Q" xlink:type="simple"><rect fill="#F1F1F1" height="46.2969" rx="2.5" ry="2.5" style="stroke:#181818;stroke-width:0.5;" width="539" x="137.5" y="172.72"/><rect fill="#F1F1F1" height="10" style="stroke:#181818;stroke-width:0.5;" width="15" x="656.5" y="177.72"/><rect fill="#F1F1F1" height="2" style="stroke:#181818;stroke-width:0.5;" width="4" x="654.5" y="179.72"/><rect fill="#F1F1F1" height="2" style="stroke:#181818;stroke-width:0.5;" width="4" x="654.5" y="183.72"/><text fill="#000000" font-family="sans-serif" font-size="14" lengthAdjust="spacing" textLength="499" x="152.5" y="205.7151">com_anilallewar_microservices_task_apis_OAuth2RestTemplate_Provider</text></a></g><!--link nodecom_anilallewar_microservices_task_apis_OAuth2RestTemplate_Provider to nodeTaskController--><g id="link_nodecom_anilallewar_microservices_task_apis_OAuth2RestTemplate_Provider_nodeTaskController"><path d="M96.7567,124.3819 C96.7867,123.8396 96.8187,123.2966 96.8527,122.7529 C96.9207,121.6655 96.9968,120.5755 97.0813,119.4835 C97.2504,117.2995 97.4533,115.1078 97.6935,112.9141 C98.1737,108.5268 98.8024,104.1317 99.6056,99.7759 C101.212,91.0643 103.5161,82.5093 106.7253,74.4858 C113.1438,58.4388 123.1825,44.5175 138.5,35.72 C190.24,6 623.76,6 675.5,35.72 C707.84,54.295 726.0475,91.5025 736.2488,125.365 C737.5239,129.5978 738.674,133.7784 739.7109,137.8637 C739.9701,138.8851 740.2223,139.9004 740.4676,140.9092 C740.5902,141.4136 740.7111,141.9163 740.8303,142.4173 " fill="none" id="nodecom_anilallewar_microservices_task_apis_OAuth2RestTemplate_Provider-nodeTaskController" style="stroke:#181818;stroke-width:1.0;"/></g><!--SRC=[lPDTIyCm58Rl-oi2NaTaIE-bw8KeTMwxAYMasL73yhMSj7E8_zrKPLYwJrWb44BUyuOyX_VWGXh7FTVaHRvdqWi53xm2bJVW5NTEcbSIV0q9RWg5rSuQC64IrWf8hTKeCNOEfDrkwl0sG_2PDS5RfS2JZsJZ85lb8kgC6wbul5XnpxGKtiQgHWf0ngE7SITPtroIelXZf1qZhJXAWHITZnIqiZPSuXe3w0k6QUwl7kzMjv0kMNfzFwwMCpeko-GphWrCPhMElyOTC5lb0p3YrzC28Uk_C33HbEDY1qrFEa0IOdsNOl8ZdH_Xw9zq6GRkvPwOdnhnEfw-8_wlyJwsgtaxUADdm305xHGFm9wyRUJyj9ZiUMO8qE9CY2MXfEZFJfby0G00]--></g></svg>