<?xml version="1.0" encoding="us-ascii" standalone="no"?><svg xmlns="http://www.w3.org/2000/svg" xmlns:xlink="http://www.w3.org/1999/xlink" contentStyleType="text/css" height="125px" preserveAspectRatio="none" style="width:2714px;height:125px;background:#FFFFFF;" version="1.1" viewBox="0 0 2714 125" width="2714px" zoomAndPan="magnify"><defs/><g><!--cluster Placeholder_4--><g id="cluster_Placeholder_4"><polygon fill="none" points="1577.5,16,1587.5,6,2697.5,6,2697.5,98,2687.5,108,1577.5,108,1577.5,16" style="stroke:#181818;stroke-width:1.0;"/><line style="stroke:#181818;stroke-width:1.0;" x1="2687.5" x2="2697.5" y1="16" y2="6"/><line style="stroke:#181818;stroke-width:1.0;" x1="1577.5" x2="2687.5" y1="16" y2="16"/><line style="stroke:#181818;stroke-width:1.0;" x1="2687.5" x2="2687.5" y1="16" y2="108"/><text fill="#000000" font-family="sans-serif" font-size="14" font-weight="bold" lengthAdjust="spacing" textLength="110" x="2078.5" y="31.9951">Placeholder_4</text></g><!--entity aName--><g id="elem_aName"><a href="anilallewar-microservices-basics-spring-boot.system#_xYIQkLw4Ee6JN9bSHJ_CbA" target="_top" title="anilallewar-microservices-basics-spring-boot.system#_xYIQkLw4Ee6JN9bSHJ_CbA" xlink:actuate="onRequest" xlink:href="anilallewar-microservices-basics-spring-boot.system#_xYIQkLw4Ee6JN9bSHJ_CbA" xlink:show="new" xlink:title="anilallewar-microservices-basics-spring-boot.system#_xYIQkLw4Ee6JN9bSHJ_CbA" xlink:type="simple"><rect fill="#F1F1F1" height="46.2969" rx="2.5" ry="2.5" style="stroke:#181818;stroke-width:0.5;" width="88" x="1593.5" y="46"/><rect fill="#F1F1F1" height="10" style="stroke:#181818;stroke-width:0.5;" width="15" x="1661.5" y="51"/><rect fill="#F1F1F1" height="2" style="stroke:#181818;stroke-width:0.5;" width="4" x="1659.5" y="53"/><rect fill="#F1F1F1" height="2" style="stroke:#181818;stroke-width:0.5;" width="4" x="1659.5" y="57"/><text fill="#000000" font-family="sans-serif" font-size="14" lengthAdjust="spacing" textLength="48" x="1608.5" y="78.9951">aName</text></a></g><!--entity Placeholder_3--><g id="elem_Placeholder_3"><polygon fill="#F1F1F1" points="16,56,26,46,153,46,153,82.2969,143,92.2969,16,92.2969,16,56" style="stroke:#181818;stroke-width:0.5;"/><line style="stroke:#181818;stroke-width:0.5;" x1="143" x2="153" y1="56" y2="46"/><line style="stroke:#181818;stroke-width:0.5;" x1="16" x2="143" y1="56" y2="56"/><line style="stroke:#181818;stroke-width:0.5;" x1="143" x2="143" y1="56" y2="92.2969"/><text fill="#000000" font-family="sans-serif" font-size="14" lengthAdjust="spacing" textLength="97" x="31" y="78.9951">Placeholder_3</text></g><!--entity Placeholder_7--><g id="elem_Placeholder_7"><polygon fill="#F1F1F1" points="188,56,198,46,325,46,325,82.2969,315,92.2969,188,92.2969,188,56" style="stroke:#181818;stroke-width:0.5;"/><line style="stroke:#181818;stroke-width:0.5;" x1="315" x2="325" y1="56" y2="46"/><line style="stroke:#181818;stroke-width:0.5;" x1="188" x2="315" y1="56" y2="56"/><line style="stroke:#181818;stroke-width:0.5;" x1="315" x2="315" y1="56" y2="92.2969"/><text fill="#000000" font-family="sans-serif" font-size="14" lengthAdjust="spacing" textLength="97" x="203" y="78.9951">Placeholder_7</text></g><!--entity Placeholder_10--><g id="elem_Placeholder_10"><polygon fill="#F1F1F1" points="360.5,56,370.5,46,506.5,46,506.5,82.2969,496.5,92.2969,360.5,92.2969,360.5,56" style="stroke:#181818;stroke-width:0.5;"/><line style="stroke:#181818;stroke-width:0.5;" x1="496.5" x2="506.5" y1="56" y2="46"/><line style="stroke:#181818;stroke-width:0.5;" x1="360.5" x2="496.5" y1="56" y2="56"/><line style="stroke:#181818;stroke-width:0.5;" x1="496.5" x2="496.5" y1="56" y2="92.2969"/><text fill="#000000" font-family="sans-serif" font-size="14" lengthAdjust="spacing" textLength="106" x="375.5" y="78.9951">Placeholder_10</text></g><!--entity Placeholder_11--><g id="elem_Placeholder_11"><polygon fill="#F1F1F1" points="541.5,56,551.5,46,687.5,46,687.5,82.2969,677.5,92.2969,541.5,92.2969,541.5,56" style="stroke:#181818;stroke-width:0.5;"/><line style="stroke:#181818;stroke-width:0.5;" x1="677.5" x2="687.5" y1="56" y2="46"/><line style="stroke:#181818;stroke-width:0.5;" x1="541.5" x2="677.5" y1="56" y2="56"/><line style="stroke:#181818;stroke-width:0.5;" x1="677.5" x2="677.5" y1="56" y2="92.2969"/><text fill="#000000" font-family="sans-serif" font-size="14" lengthAdjust="spacing" textLength="106" x="556.5" y="78.9951">Placeholder_11</text></g><!--entity Placeholder_1--><g id="elem_Placeholder_1"><polygon fill="#F1F1F1" points="723,56,733,46,860,46,860,82.2969,850,92.2969,723,92.2969,723,56" style="stroke:#181818;stroke-width:0.5;"/><line style="stroke:#181818;stroke-width:0.5;" x1="850" x2="860" y1="56" y2="46"/><line style="stroke:#181818;stroke-width:0.5;" x1="723" x2="850" y1="56" y2="56"/><line style="stroke:#181818;stroke-width:0.5;" x1="850" x2="850" y1="56" y2="92.2969"/><text fill="#000000" font-family="sans-serif" font-size="14" lengthAdjust="spacing" textLength="97" x="738" y="78.9951">Placeholder_1</text></g><!--entity Placeholder_5--><g id="elem_Placeholder_5"><polygon fill="#F1F1F1" points="895,56,905,46,1032,46,1032,82.2969,1022,92.2969,895,92.2969,895,56" style="stroke:#181818;stroke-width:0.5;"/><line style="stroke:#181818;stroke-width:0.5;" x1="1022" x2="1032" y1="56" y2="46"/><line style="stroke:#181818;stroke-width:0.5;" x1="895" x2="1022" y1="56" y2="56"/><line style="stroke:#181818;stroke-width:0.5;" x1="1022" x2="1022" y1="56" y2="92.2969"/><text fill="#000000" font-family="sans-serif" font-size="14" lengthAdjust="spacing" textLength="97" x="910" y="78.9951">Placeholder_5</text></g><!--entity Placeholder_14--><g id="elem_Placeholder_14"><polygon fill="#F1F1F1" points="1067.5,56,1077.5,46,1213.5,46,1213.5,82.2969,1203.5,92.2969,1067.5,92.2969,1067.5,56" style="stroke:#181818;stroke-width:0.5;"/><line style="stroke:#181818;stroke-width:0.5;" x1="1203.5" x2="1213.5" y1="56" y2="46"/><line style="stroke:#181818;stroke-width:0.5;" x1="1067.5" x2="1203.5" y1="56" y2="56"/><line style="stroke:#181818;stroke-width:0.5;" x1="1203.5" x2="1203.5" y1="56" y2="92.2969"/><text fill="#000000" font-family="sans-serif" font-size="14" lengthAdjust="spacing" textLength="106" x="1082.5" y="78.9951">Placeholder_14</text></g><!--entity Placeholder_9--><g id="elem_Placeholder_9"><polygon fill="#F1F1F1" points="1249,56,1259,46,1386,46,1386,82.2969,1376,92.2969,1249,92.2969,1249,56" style="stroke:#181818;stroke-width:0.5;"/><line style="stroke:#181818;stroke-width:0.5;" x1="1376" x2="1386" y1="56" y2="46"/><line style="stroke:#181818;stroke-width:0.5;" x1="1249" x2="1376" y1="56" y2="56"/><line style="stroke:#181818;stroke-width:0.5;" x1="1376" x2="1376" y1="56" y2="92.2969"/><text fill="#000000" font-family="sans-serif" font-size="14" lengthAdjust="spacing" textLength="97" x="1264" y="78.9951">Placeholder_9</text></g><!--entity Placeholder_8--><g id="elem_Placeholder_8"><polygon fill="#F1F1F1" points="1421,56,1431,46,1558,46,1558,82.2969,1548,92.2969,1421,92.2969,1421,56" style="stroke:#181818;stroke-width:0.5;"/><line style="stroke:#181818;stroke-width:0.5;" x1="1548" x2="1558" y1="56" y2="46"/><line style="stroke:#181818;stroke-width:0.5;" x1="1421" x2="1548" y1="56" y2="56"/><line style="stroke:#181818;stroke-width:0.5;" x1="1548" x2="1548" y1="56" y2="92.2969"/><text fill="#000000" font-family="sans-serif" font-size="14" lengthAdjust="spacing" textLength="97" x="1436" y="78.9951">Placeholder_8</text></g><!--link aName to aName--><g id="link_aName_aName"><path d="M1681.77,64.73 C1700.52,64.41 1716.5,65.83 1716.5,69 C1716.5,72.17 1700.52,73.59 1681.77,73.27 " fill="none" id="aName-aName" style="stroke:#181818;stroke-width:1.0;"/><text fill="#000000" font-family="sans-serif" font-size="13" lengthAdjust="spacing" textLength="447" x="1729.5" y="73.5669">com_anilallewar_microservices_task_apis_CommentsService_Provider</text><path d="M1674.5793,57.7806 A10,10 0 0 0 1674.8206 71.9207" fill="none" style="stroke:#181818;stroke-width:1.5;"/><ellipse cx="1681.77" cy="64.73" fill="#FFFFFF" rx="6" ry="6" style="stroke:#181818;stroke-width:1.5;"/></g><!--link aName to aName--><g id="link_aName_aName"><path d="M1681.73,64.69 C1815.06,57.75 2189.5,59.18 2189.5,69 C2189.5,78.82 1815.06,80.25 1681.73,73.31 " fill="none" id="aName-aName-1" style="stroke:#181818;stroke-width:1.0;"/><text fill="#000000" font-family="sans-serif" font-size="13" lengthAdjust="spacing" textLength="465" x="2202.5" y="73.5669">com_anilallewar_microservices_task_apis_OAuth2RestTemplate_Provider</text><path d="M1674.3009,57.9961 A10,10 0 0 0 1675.0361 72.1191" fill="none" style="stroke:#181818;stroke-width:1.5;"/><ellipse cx="1681.73" cy="64.69" fill="#FFFFFF" rx="6" ry="6" style="stroke:#181818;stroke-width:1.5;"/></g><!--SRC=[lTDDImCn483X-_wAW1SlaLRhHxsLHT1IscfxaMK9atIqmoQRa4ct5V6_MoY5YaSnnp3mFZE7S4DjW0XElD6kf6WiJa2ZdNKOBOH0xRj8SOD5wrSevXOChhrTOLG3yLbKC0M7jQWgQCc2jRY5A1sPw1bZHmPPQc0oB3d4VKjgxzC5Vt12TwPshq_FpMGxUC2RyNIe5uzZLUfHNHTVlxchlDnjNgxVo-prCtjvkUlCrsN-2yEytDs_SiUoFEz9SNpS2-ETEg7K3qebu4P185QbTmxRn8l3ICsZxsY_zL-xiz4chIzVaDCINR2GJjBV]--></g></svg>