<?xml version="1.0" encoding="us-ascii" standalone="no"?><svg xmlns="http://www.w3.org/2000/svg" xmlns:xlink="http://www.w3.org/1999/xlink" contentStyleType="text/css" height="133px" preserveAspectRatio="none" style="width:16330px;height:133px;background:#FFFFFF;" version="1.1" viewBox="0 0 16330 133" width="16330px" zoomAndPan="magnify"><defs/><g><!--cluster Placeholder_5--><g id="cluster_Placeholder_5"><polygon fill="none" points="7537,16,7547,6,16313,6,16313,98,16303,108,7537,108,7537,16" style="stroke:#181818;stroke-width:1.0;"/><line style="stroke:#181818;stroke-width:1.0;" x1="16303" x2="16313" y1="16" y2="6"/><line style="stroke:#181818;stroke-width:1.0;" x1="7537" x2="16303" y1="16" y2="16"/><line style="stroke:#181818;stroke-width:1.0;" x1="16303" x2="16303" y1="16" y2="108"/><text fill="#000000" font-family="sans-serif" font-size="14" font-weight="bold" lengthAdjust="spacing" textLength="110" x="11866" y="31.9951">Placeholder_5</text></g><!--entity aName--><g id="elem_aName"><a href="kbastani-spring-cloud-event-sourcing-example.system#_xMJqF7w4Ee6T_JeXG5hGqQ" target="_top" title="kbastani-spring-cloud-event-sourcing-example.system#_xMJqF7w4Ee6T_JeXG5hGqQ" xlink:actuate="onRequest" xlink:href="kbastani-spring-cloud-event-sourcing-example.system#_xMJqF7w4Ee6T_JeXG5hGqQ" xlink:show="new" xlink:title="kbastani-spring-cloud-event-sourcing-example.system#_xMJqF7w4Ee6T_JeXG5hGqQ" xlink:type="simple"><rect fill="#F1F1F1" height="46.2969" rx="2.5" ry="2.5" style="stroke:#181818;stroke-width:0.5;" width="88" x="7553" y="46"/><rect fill="#F1F1F1" height="10" style="stroke:#181818;stroke-width:0.5;" width="15" x="7621" y="51"/><rect fill="#F1F1F1" height="2" style="stroke:#181818;stroke-width:0.5;" width="4" x="7619" y="53"/><rect fill="#F1F1F1" height="2" style="stroke:#181818;stroke-width:0.5;" width="4" x="7619" y="57"/><text fill="#000000" font-family="sans-serif" font-size="14" lengthAdjust="spacing" textLength="48" x="7568" y="78.9951">aName</text></a></g><!--entity Placeholder_43--><g id="elem_Placeholder_43"><polygon fill="#F1F1F1" points="16,56,26,46,162,46,162,82.2969,152,92.2969,16,92.2969,16,56" style="stroke:#181818;stroke-width:0.5;"/><line style="stroke:#181818;stroke-width:0.5;" x1="152" x2="162" y1="56" y2="46"/><line style="stroke:#181818;stroke-width:0.5;" x1="16" x2="152" y1="56" y2="56"/><line style="stroke:#181818;stroke-width:0.5;" x1="152" x2="152" y1="56" y2="92.2969"/><text fill="#000000" font-family="sans-serif" font-size="14" lengthAdjust="spacing" textLength="106" x="31" y="78.9951">Placeholder_43</text></g><!--entity Placeholder_41--><g id="elem_Placeholder_41"><polygon fill="#F1F1F1" points="197,56,207,46,343,46,343,82.2969,333,92.2969,197,92.2969,197,56" style="stroke:#181818;stroke-width:0.5;"/><line style="stroke:#181818;stroke-width:0.5;" x1="333" x2="343" y1="56" y2="46"/><line style="stroke:#181818;stroke-width:0.5;" x1="197" x2="333" y1="56" y2="56"/><line style="stroke:#181818;stroke-width:0.5;" x1="333" x2="333" y1="56" y2="92.2969"/><text fill="#000000" font-family="sans-serif" font-size="14" lengthAdjust="spacing" textLength="106" x="212" y="78.9951">Placeholder_41</text></g><!--entity Placeholder_42--><g id="elem_Placeholder_42"><polygon fill="#F1F1F1" points="378,56,388,46,524,46,524,82.2969,514,92.2969,378,92.2969,378,56" style="stroke:#181818;stroke-width:0.5;"/><line style="stroke:#181818;stroke-width:0.5;" x1="514" x2="524" y1="56" y2="46"/><line style="stroke:#181818;stroke-width:0.5;" x1="378" x2="514" y1="56" y2="56"/><line style="stroke:#181818;stroke-width:0.5;" x1="514" x2="514" y1="56" y2="92.2969"/><text fill="#000000" font-family="sans-serif" font-size="14" lengthAdjust="spacing" textLength="106" x="393" y="78.9951">Placeholder_42</text></g><!--entity Placeholder_12--><g id="elem_Placeholder_12"><polygon fill="#F1F1F1" points="559,56,569,46,705,46,705,82.2969,695,92.2969,559,92.2969,559,56" style="stroke:#181818;stroke-width:0.5;"/><line style="stroke:#181818;stroke-width:0.5;" x1="695" x2="705" y1="56" y2="46"/><line style="stroke:#181818;stroke-width:0.5;" x1="559" x2="695" y1="56" y2="56"/><line style="stroke:#181818;stroke-width:0.5;" x1="695" x2="695" y1="56" y2="92.2969"/><text fill="#000000" font-family="sans-serif" font-size="14" lengthAdjust="spacing" textLength="106" x="574" y="78.9951">Placeholder_12</text></g><!--entity Placeholder_68--><g id="elem_Placeholder_68"><polygon fill="#F1F1F1" points="740,56,750,46,886,46,886,82.2969,876,92.2969,740,92.2969,740,56" style="stroke:#181818;stroke-width:0.5;"/><line style="stroke:#181818;stroke-width:0.5;" x1="876" x2="886" y1="56" y2="46"/><line style="stroke:#181818;stroke-width:0.5;" x1="740" x2="876" y1="56" y2="56"/><line style="stroke:#181818;stroke-width:0.5;" x1="876" x2="876" y1="56" y2="92.2969"/><text fill="#000000" font-family="sans-serif" font-size="14" lengthAdjust="spacing" textLength="106" x="755" y="78.9951">Placeholder_68</text></g><!--entity Placeholder_25--><g id="elem_Placeholder_25"><polygon fill="#F1F1F1" points="921,56,931,46,1067,46,1067,82.2969,1057,92.2969,921,92.2969,921,56" style="stroke:#181818;stroke-width:0.5;"/><line style="stroke:#181818;stroke-width:0.5;" x1="1057" x2="1067" y1="56" y2="46"/><line style="stroke:#181818;stroke-width:0.5;" x1="921" x2="1057" y1="56" y2="56"/><line style="stroke:#181818;stroke-width:0.5;" x1="1057" x2="1057" y1="56" y2="92.2969"/><text fill="#000000" font-family="sans-serif" font-size="14" lengthAdjust="spacing" textLength="106" x="936" y="78.9951">Placeholder_25</text></g><!--entity Placeholder_8--><g id="elem_Placeholder_8"><polygon fill="#F1F1F1" points="1102.5,56,1112.5,46,1239.5,46,1239.5,82.2969,1229.5,92.2969,1102.5,92.2969,1102.5,56" style="stroke:#181818;stroke-width:0.5;"/><line style="stroke:#181818;stroke-width:0.5;" x1="1229.5" x2="1239.5" y1="56" y2="46"/><line style="stroke:#181818;stroke-width:0.5;" x1="1102.5" x2="1229.5" y1="56" y2="56"/><line style="stroke:#181818;stroke-width:0.5;" x1="1229.5" x2="1229.5" y1="56" y2="92.2969"/><text fill="#000000" font-family="sans-serif" font-size="14" lengthAdjust="spacing" textLength="97" x="1117.5" y="78.9951">Placeholder_8</text></g><!--entity Placeholder_14--><g id="elem_Placeholder_14"><polygon fill="#F1F1F1" points="1275,56,1285,46,1421,46,1421,82.2969,1411,92.2969,1275,92.2969,1275,56" style="stroke:#181818;stroke-width:0.5;"/><line style="stroke:#181818;stroke-width:0.5;" x1="1411" x2="1421" y1="56" y2="46"/><line style="stroke:#181818;stroke-width:0.5;" x1="1275" x2="1411" y1="56" y2="56"/><line style="stroke:#181818;stroke-width:0.5;" x1="1411" x2="1411" y1="56" y2="92.2969"/><text fill="#000000" font-family="sans-serif" font-size="14" lengthAdjust="spacing" textLength="106" x="1290" y="78.9951">Placeholder_14</text></g><!--entity Placeholder_6--><g id="elem_Placeholder_6"><polygon fill="#F1F1F1" points="1456.5,56,1466.5,46,1593.5,46,1593.5,82.2969,1583.5,92.2969,1456.5,92.2969,1456.5,56" style="stroke:#181818;stroke-width:0.5;"/><line style="stroke:#181818;stroke-width:0.5;" x1="1583.5" x2="1593.5" y1="56" y2="46"/><line style="stroke:#181818;stroke-width:0.5;" x1="1456.5" x2="1583.5" y1="56" y2="56"/><line style="stroke:#181818;stroke-width:0.5;" x1="1583.5" x2="1583.5" y1="56" y2="92.2969"/><text fill="#000000" font-family="sans-serif" font-size="14" lengthAdjust="spacing" textLength="97" x="1471.5" y="78.9951">Placeholder_6</text></g><!--entity Placeholder_37--><g id="elem_Placeholder_37"><polygon fill="#F1F1F1" points="1629,56,1639,46,1775,46,1775,82.2969,1765,92.2969,1629,92.2969,1629,56" style="stroke:#181818;stroke-width:0.5;"/><line style="stroke:#181818;stroke-width:0.5;" x1="1765" x2="1775" y1="56" y2="46"/><line style="stroke:#181818;stroke-width:0.5;" x1="1629" x2="1765" y1="56" y2="56"/><line style="stroke:#181818;stroke-width:0.5;" x1="1765" x2="1765" y1="56" y2="92.2969"/><text fill="#000000" font-family="sans-serif" font-size="14" lengthAdjust="spacing" textLength="106" x="1644" y="78.9951">Placeholder_37</text></g><!--entity Placeholder_27--><g id="elem_Placeholder_27"><polygon fill="#F1F1F1" points="1810,56,1820,46,1956,46,1956,82.2969,1946,92.2969,1810,92.2969,1810,56" style="stroke:#181818;stroke-width:0.5;"/><line style="stroke:#181818;stroke-width:0.5;" x1="1946" x2="1956" y1="56" y2="46"/><line style="stroke:#181818;stroke-width:0.5;" x1="1810" x2="1946" y1="56" y2="56"/><line style="stroke:#181818;stroke-width:0.5;" x1="1946" x2="1946" y1="56" y2="92.2969"/><text fill="#000000" font-family="sans-serif" font-size="14" lengthAdjust="spacing" textLength="106" x="1825" y="78.9951">Placeholder_27</text></g><!--entity Placeholder_40--><g id="elem_Placeholder_40"><polygon fill="#F1F1F1" points="1991,56,2001,46,2137,46,2137,82.2969,2127,92.2969,1991,92.2969,1991,56" style="stroke:#181818;stroke-width:0.5;"/><line style="stroke:#181818;stroke-width:0.5;" x1="2127" x2="2137" y1="56" y2="46"/><line style="stroke:#181818;stroke-width:0.5;" x1="1991" x2="2127" y1="56" y2="56"/><line style="stroke:#181818;stroke-width:0.5;" x1="2127" x2="2127" y1="56" y2="92.2969"/><text fill="#000000" font-family="sans-serif" font-size="14" lengthAdjust="spacing" textLength="106" x="2006" y="78.9951">Placeholder_40</text></g><!--entity Placeholder_26--><g id="elem_Placeholder_26"><polygon fill="#F1F1F1" points="2172,56,2182,46,2318,46,2318,82.2969,2308,92.2969,2172,92.2969,2172,56" style="stroke:#181818;stroke-width:0.5;"/><line style="stroke:#181818;stroke-width:0.5;" x1="2308" x2="2318" y1="56" y2="46"/><line style="stroke:#181818;stroke-width:0.5;" x1="2172" x2="2308" y1="56" y2="56"/><line style="stroke:#181818;stroke-width:0.5;" x1="2308" x2="2308" y1="56" y2="92.2969"/><text fill="#000000" font-family="sans-serif" font-size="14" lengthAdjust="spacing" textLength="106" x="2187" y="78.9951">Placeholder_26</text></g><!--entity Placeholder_63--><g id="elem_Placeholder_63"><polygon fill="#F1F1F1" points="2353,56,2363,46,2499,46,2499,82.2969,2489,92.2969,2353,92.2969,2353,56" style="stroke:#181818;stroke-width:0.5;"/><line style="stroke:#181818;stroke-width:0.5;" x1="2489" x2="2499" y1="56" y2="46"/><line style="stroke:#181818;stroke-width:0.5;" x1="2353" x2="2489" y1="56" y2="56"/><line style="stroke:#181818;stroke-width:0.5;" x1="2489" x2="2489" y1="56" y2="92.2969"/><text fill="#000000" font-family="sans-serif" font-size="14" lengthAdjust="spacing" textLength="106" x="2368" y="78.9951">Placeholder_63</text></g><!--entity Placeholder_10--><g id="elem_Placeholder_10"><polygon fill="#F1F1F1" points="2534,56,2544,46,2680,46,2680,82.2969,2670,92.2969,2534,92.2969,2534,56" style="stroke:#181818;stroke-width:0.5;"/><line style="stroke:#181818;stroke-width:0.5;" x1="2670" x2="2680" y1="56" y2="46"/><line style="stroke:#181818;stroke-width:0.5;" x1="2534" x2="2670" y1="56" y2="56"/><line style="stroke:#181818;stroke-width:0.5;" x1="2670" x2="2670" y1="56" y2="92.2969"/><text fill="#000000" font-family="sans-serif" font-size="14" lengthAdjust="spacing" textLength="106" x="2549" y="78.9951">Placeholder_10</text></g><!--entity Placeholder_20--><g id="elem_Placeholder_20"><polygon fill="#F1F1F1" points="2715,56,2725,46,2861,46,2861,82.2969,2851,92.2969,2715,92.2969,2715,56" style="stroke:#181818;stroke-width:0.5;"/><line style="stroke:#181818;stroke-width:0.5;" x1="2851" x2="2861" y1="56" y2="46"/><line style="stroke:#181818;stroke-width:0.5;" x1="2715" x2="2851" y1="56" y2="56"/><line style="stroke:#181818;stroke-width:0.5;" x1="2851" x2="2851" y1="56" y2="92.2969"/><text fill="#000000" font-family="sans-serif" font-size="14" lengthAdjust="spacing" textLength="106" x="2730" y="78.9951">Placeholder_20</text></g><!--entity Placeholder_45--><g id="elem_Placeholder_45"><polygon fill="#F1F1F1" points="2896,56,2906,46,3042,46,3042,82.2969,3032,92.2969,2896,92.2969,2896,56" style="stroke:#181818;stroke-width:0.5;"/><line style="stroke:#181818;stroke-width:0.5;" x1="3032" x2="3042" y1="56" y2="46"/><line style="stroke:#181818;stroke-width:0.5;" x1="2896" x2="3032" y1="56" y2="56"/><line style="stroke:#181818;stroke-width:0.5;" x1="3032" x2="3032" y1="56" y2="92.2969"/><text fill="#000000" font-family="sans-serif" font-size="14" lengthAdjust="spacing" textLength="106" x="2911" y="78.9951">Placeholder_45</text></g><!--entity Placeholder_44--><g id="elem_Placeholder_44"><polygon fill="#F1F1F1" points="3077,56,3087,46,3223,46,3223,82.2969,3213,92.2969,3077,92.2969,3077,56" style="stroke:#181818;stroke-width:0.5;"/><line style="stroke:#181818;stroke-width:0.5;" x1="3213" x2="3223" y1="56" y2="46"/><line style="stroke:#181818;stroke-width:0.5;" x1="3077" x2="3213" y1="56" y2="56"/><line style="stroke:#181818;stroke-width:0.5;" x1="3213" x2="3213" y1="56" y2="92.2969"/><text fill="#000000" font-family="sans-serif" font-size="14" lengthAdjust="spacing" textLength="106" x="3092" y="78.9951">Placeholder_44</text></g><!--entity Placeholder_3--><g id="elem_Placeholder_3"><polygon fill="#F1F1F1" points="3258.5,56,3268.5,46,3395.5,46,3395.5,82.2969,3385.5,92.2969,3258.5,92.2969,3258.5,56" style="stroke:#181818;stroke-width:0.5;"/><line style="stroke:#181818;stroke-width:0.5;" x1="3385.5" x2="3395.5" y1="56" y2="46"/><line style="stroke:#181818;stroke-width:0.5;" x1="3258.5" x2="3385.5" y1="56" y2="56"/><line style="stroke:#181818;stroke-width:0.5;" x1="3385.5" x2="3385.5" y1="56" y2="92.2969"/><text fill="#000000" font-family="sans-serif" font-size="14" lengthAdjust="spacing" textLength="97" x="3273.5" y="78.9951">Placeholder_3</text></g><!--entity Placeholder_33--><g id="elem_Placeholder_33"><polygon fill="#F1F1F1" points="3431,56,3441,46,3577,46,3577,82.2969,3567,92.2969,3431,92.2969,3431,56" style="stroke:#181818;stroke-width:0.5;"/><line style="stroke:#181818;stroke-width:0.5;" x1="3567" x2="3577" y1="56" y2="46"/><line style="stroke:#181818;stroke-width:0.5;" x1="3431" x2="3567" y1="56" y2="56"/><line style="stroke:#181818;stroke-width:0.5;" x1="3567" x2="3567" y1="56" y2="92.2969"/><text fill="#000000" font-family="sans-serif" font-size="14" lengthAdjust="spacing" textLength="106" x="3446" y="78.9951">Placeholder_33</text></g><!--entity Placeholder_9--><g id="elem_Placeholder_9"><polygon fill="#F1F1F1" points="3612.5,56,3622.5,46,3749.5,46,3749.5,82.2969,3739.5,92.2969,3612.5,92.2969,3612.5,56" style="stroke:#181818;stroke-width:0.5;"/><line style="stroke:#181818;stroke-width:0.5;" x1="3739.5" x2="3749.5" y1="56" y2="46"/><line style="stroke:#181818;stroke-width:0.5;" x1="3612.5" x2="3739.5" y1="56" y2="56"/><line style="stroke:#181818;stroke-width:0.5;" x1="3739.5" x2="3739.5" y1="56" y2="92.2969"/><text fill="#000000" font-family="sans-serif" font-size="14" lengthAdjust="spacing" textLength="97" x="3627.5" y="78.9951">Placeholder_9</text></g><!--entity Placeholder_4--><g id="elem_Placeholder_4"><polygon fill="#F1F1F1" points="3784.5,56,3794.5,46,3921.5,46,3921.5,82.2969,3911.5,92.2969,3784.5,92.2969,3784.5,56" style="stroke:#181818;stroke-width:0.5;"/><line style="stroke:#181818;stroke-width:0.5;" x1="3911.5" x2="3921.5" y1="56" y2="46"/><line style="stroke:#181818;stroke-width:0.5;" x1="3784.5" x2="3911.5" y1="56" y2="56"/><line style="stroke:#181818;stroke-width:0.5;" x1="3911.5" x2="3911.5" y1="56" y2="92.2969"/><text fill="#000000" font-family="sans-serif" font-size="14" lengthAdjust="spacing" textLength="97" x="3799.5" y="78.9951">Placeholder_4</text></g><!--entity Placeholder_16--><g id="elem_Placeholder_16"><polygon fill="#F1F1F1" points="3957,56,3967,46,4103,46,4103,82.2969,4093,92.2969,3957,92.2969,3957,56" style="stroke:#181818;stroke-width:0.5;"/><line style="stroke:#181818;stroke-width:0.5;" x1="4093" x2="4103" y1="56" y2="46"/><line style="stroke:#181818;stroke-width:0.5;" x1="3957" x2="4093" y1="56" y2="56"/><line style="stroke:#181818;stroke-width:0.5;" x1="4093" x2="4093" y1="56" y2="92.2969"/><text fill="#000000" font-family="sans-serif" font-size="14" lengthAdjust="spacing" textLength="106" x="3972" y="78.9951">Placeholder_16</text></g><!--entity Placeholder_13--><g id="elem_Placeholder_13"><polygon fill="#F1F1F1" points="4138,56,4148,46,4284,46,4284,82.2969,4274,92.2969,4138,92.2969,4138,56" style="stroke:#181818;stroke-width:0.5;"/><line style="stroke:#181818;stroke-width:0.5;" x1="4274" x2="4284" y1="56" y2="46"/><line style="stroke:#181818;stroke-width:0.5;" x1="4138" x2="4274" y1="56" y2="56"/><line style="stroke:#181818;stroke-width:0.5;" x1="4274" x2="4274" y1="56" y2="92.2969"/><text fill="#000000" font-family="sans-serif" font-size="14" lengthAdjust="spacing" textLength="106" x="4153" y="78.9951">Placeholder_13</text></g><!--entity Placeholder_0--><g id="elem_Placeholder_0"><polygon fill="#F1F1F1" points="4319.5,56,4329.5,46,4456.5,46,4456.5,82.2969,4446.5,92.2969,4319.5,92.2969,4319.5,56" style="stroke:#181818;stroke-width:0.5;"/><line style="stroke:#181818;stroke-width:0.5;" x1="4446.5" x2="4456.5" y1="56" y2="46"/><line style="stroke:#181818;stroke-width:0.5;" x1="4319.5" x2="4446.5" y1="56" y2="56"/><line style="stroke:#181818;stroke-width:0.5;" x1="4446.5" x2="4446.5" y1="56" y2="92.2969"/><text fill="#000000" font-family="sans-serif" font-size="14" lengthAdjust="spacing" textLength="97" x="4334.5" y="78.9951">Placeholder_0</text></g><!--entity Placeholder_38--><g id="elem_Placeholder_38"><polygon fill="#F1F1F1" points="4492,56,4502,46,4638,46,4638,82.2969,4628,92.2969,4492,92.2969,4492,56" style="stroke:#181818;stroke-width:0.5;"/><line style="stroke:#181818;stroke-width:0.5;" x1="4628" x2="4638" y1="56" y2="46"/><line style="stroke:#181818;stroke-width:0.5;" x1="4492" x2="4628" y1="56" y2="56"/><line style="stroke:#181818;stroke-width:0.5;" x1="4628" x2="4628" y1="56" y2="92.2969"/><text fill="#000000" font-family="sans-serif" font-size="14" lengthAdjust="spacing" textLength="106" x="4507" y="78.9951">Placeholder_38</text></g><!--entity Placeholder_70--><g id="elem_Placeholder_70"><polygon fill="#F1F1F1" points="4673,56,4683,46,4819,46,4819,82.2969,4809,92.2969,4673,92.2969,4673,56" style="stroke:#181818;stroke-width:0.5;"/><line style="stroke:#181818;stroke-width:0.5;" x1="4809" x2="4819" y1="56" y2="46"/><line style="stroke:#181818;stroke-width:0.5;" x1="4673" x2="4809" y1="56" y2="56"/><line style="stroke:#181818;stroke-width:0.5;" x1="4809" x2="4809" y1="56" y2="92.2969"/><text fill="#000000" font-family="sans-serif" font-size="14" lengthAdjust="spacing" textLength="106" x="4688" y="78.9951">Placeholder_70</text></g><!--entity Placeholder_11--><g id="elem_Placeholder_11"><polygon fill="#F1F1F1" points="4854,56,4864,46,5000,46,5000,82.2969,4990,92.2969,4854,92.2969,4854,56" style="stroke:#181818;stroke-width:0.5;"/><line style="stroke:#181818;stroke-width:0.5;" x1="4990" x2="5000" y1="56" y2="46"/><line style="stroke:#181818;stroke-width:0.5;" x1="4854" x2="4990" y1="56" y2="56"/><line style="stroke:#181818;stroke-width:0.5;" x1="4990" x2="4990" y1="56" y2="92.2969"/><text fill="#000000" font-family="sans-serif" font-size="14" lengthAdjust="spacing" textLength="106" x="4869" y="78.9951">Placeholder_11</text></g><!--entity Placeholder_24--><g id="elem_Placeholder_24"><polygon fill="#F1F1F1" points="5035,56,5045,46,5181,46,5181,82.2969,5171,92.2969,5035,92.2969,5035,56" style="stroke:#181818;stroke-width:0.5;"/><line style="stroke:#181818;stroke-width:0.5;" x1="5171" x2="5181" y1="56" y2="46"/><line style="stroke:#181818;stroke-width:0.5;" x1="5035" x2="5171" y1="56" y2="56"/><line style="stroke:#181818;stroke-width:0.5;" x1="5171" x2="5171" y1="56" y2="92.2969"/><text fill="#000000" font-family="sans-serif" font-size="14" lengthAdjust="spacing" textLength="106" x="5050" y="78.9951">Placeholder_24</text></g><!--entity Placeholder_39--><g id="elem_Placeholder_39"><polygon fill="#F1F1F1" points="5216,56,5226,46,5362,46,5362,82.2969,5352,92.2969,5216,92.2969,5216,56" style="stroke:#181818;stroke-width:0.5;"/><line style="stroke:#181818;stroke-width:0.5;" x1="5352" x2="5362" y1="56" y2="46"/><line style="stroke:#181818;stroke-width:0.5;" x1="5216" x2="5352" y1="56" y2="56"/><line style="stroke:#181818;stroke-width:0.5;" x1="5352" x2="5352" y1="56" y2="92.2969"/><text fill="#000000" font-family="sans-serif" font-size="14" lengthAdjust="spacing" textLength="106" x="5231" y="78.9951">Placeholder_39</text></g><!--entity Placeholder_7--><g id="elem_Placeholder_7"><polygon fill="#F1F1F1" points="5397.5,56,5407.5,46,5534.5,46,5534.5,82.2969,5524.5,92.2969,5397.5,92.2969,5397.5,56" style="stroke:#181818;stroke-width:0.5;"/><line style="stroke:#181818;stroke-width:0.5;" x1="5524.5" x2="5534.5" y1="56" y2="46"/><line style="stroke:#181818;stroke-width:0.5;" x1="5397.5" x2="5524.5" y1="56" y2="56"/><line style="stroke:#181818;stroke-width:0.5;" x1="5524.5" x2="5524.5" y1="56" y2="92.2969"/><text fill="#000000" font-family="sans-serif" font-size="14" lengthAdjust="spacing" textLength="97" x="5412.5" y="78.9951">Placeholder_7</text></g><!--entity Placeholder_23--><g id="elem_Placeholder_23"><polygon fill="#F1F1F1" points="5570,56,5580,46,5716,46,5716,82.2969,5706,92.2969,5570,92.2969,5570,56" style="stroke:#181818;stroke-width:0.5;"/><line style="stroke:#181818;stroke-width:0.5;" x1="5706" x2="5716" y1="56" y2="46"/><line style="stroke:#181818;stroke-width:0.5;" x1="5570" x2="5706" y1="56" y2="56"/><line style="stroke:#181818;stroke-width:0.5;" x1="5706" x2="5706" y1="56" y2="92.2969"/><text fill="#000000" font-family="sans-serif" font-size="14" lengthAdjust="spacing" textLength="106" x="5585" y="78.9951">Placeholder_23</text></g><!--entity Placeholder_28--><g id="elem_Placeholder_28"><polygon fill="#F1F1F1" points="5751,56,5761,46,5897,46,5897,82.2969,5887,92.2969,5751,92.2969,5751,56" style="stroke:#181818;stroke-width:0.5;"/><line style="stroke:#181818;stroke-width:0.5;" x1="5887" x2="5897" y1="56" y2="46"/><line style="stroke:#181818;stroke-width:0.5;" x1="5751" x2="5887" y1="56" y2="56"/><line style="stroke:#181818;stroke-width:0.5;" x1="5887" x2="5887" y1="56" y2="92.2969"/><text fill="#000000" font-family="sans-serif" font-size="14" lengthAdjust="spacing" textLength="106" x="5766" y="78.9951">Placeholder_28</text></g><!--entity Placeholder_1--><g id="elem_Placeholder_1"><polygon fill="#F1F1F1" points="5932.5,56,5942.5,46,6069.5,46,6069.5,82.2969,6059.5,92.2969,5932.5,92.2969,5932.5,56" style="stroke:#181818;stroke-width:0.5;"/><line style="stroke:#181818;stroke-width:0.5;" x1="6059.5" x2="6069.5" y1="56" y2="46"/><line style="stroke:#181818;stroke-width:0.5;" x1="5932.5" x2="6059.5" y1="56" y2="56"/><line style="stroke:#181818;stroke-width:0.5;" x1="6059.5" x2="6059.5" y1="56" y2="92.2969"/><text fill="#000000" font-family="sans-serif" font-size="14" lengthAdjust="spacing" textLength="97" x="5947.5" y="78.9951">Placeholder_1</text></g><!--entity Placeholder_19--><g id="elem_Placeholder_19"><polygon fill="#F1F1F1" points="6105,56,6115,46,6251,46,6251,82.2969,6241,92.2969,6105,92.2969,6105,56" style="stroke:#181818;stroke-width:0.5;"/><line style="stroke:#181818;stroke-width:0.5;" x1="6241" x2="6251" y1="56" y2="46"/><line style="stroke:#181818;stroke-width:0.5;" x1="6105" x2="6241" y1="56" y2="56"/><line style="stroke:#181818;stroke-width:0.5;" x1="6241" x2="6241" y1="56" y2="92.2969"/><text fill="#000000" font-family="sans-serif" font-size="14" lengthAdjust="spacing" textLength="106" x="6120" y="78.9951">Placeholder_19</text></g><!--entity Placeholder_57--><g id="elem_Placeholder_57"><polygon fill="#F1F1F1" points="6286,56,6296,46,6432,46,6432,82.2969,6422,92.2969,6286,92.2969,6286,56" style="stroke:#181818;stroke-width:0.5;"/><line style="stroke:#181818;stroke-width:0.5;" x1="6422" x2="6432" y1="56" y2="46"/><line style="stroke:#181818;stroke-width:0.5;" x1="6286" x2="6422" y1="56" y2="56"/><line style="stroke:#181818;stroke-width:0.5;" x1="6422" x2="6422" y1="56" y2="92.2969"/><text fill="#000000" font-family="sans-serif" font-size="14" lengthAdjust="spacing" textLength="106" x="6301" y="78.9951">Placeholder_57</text></g><!--entity Placeholder_15--><g id="elem_Placeholder_15"><polygon fill="#F1F1F1" points="6467,56,6477,46,6613,46,6613,82.2969,6603,92.2969,6467,92.2969,6467,56" style="stroke:#181818;stroke-width:0.5;"/><line style="stroke:#181818;stroke-width:0.5;" x1="6603" x2="6613" y1="56" y2="46"/><line style="stroke:#181818;stroke-width:0.5;" x1="6467" x2="6603" y1="56" y2="56"/><line style="stroke:#181818;stroke-width:0.5;" x1="6603" x2="6603" y1="56" y2="92.2969"/><text fill="#000000" font-family="sans-serif" font-size="14" lengthAdjust="spacing" textLength="106" x="6482" y="78.9951">Placeholder_15</text></g><!--entity Placeholder_60--><g id="elem_Placeholder_60"><polygon fill="#F1F1F1" points="6648,56,6658,46,6794,46,6794,82.2969,6784,92.2969,6648,92.2969,6648,56" style="stroke:#181818;stroke-width:0.5;"/><line style="stroke:#181818;stroke-width:0.5;" x1="6784" x2="6794" y1="56" y2="46"/><line style="stroke:#181818;stroke-width:0.5;" x1="6648" x2="6784" y1="56" y2="56"/><line style="stroke:#181818;stroke-width:0.5;" x1="6784" x2="6784" y1="56" y2="92.2969"/><text fill="#000000" font-family="sans-serif" font-size="14" lengthAdjust="spacing" textLength="106" x="6663" y="78.9951">Placeholder_60</text></g><!--entity Placeholder_52--><g id="elem_Placeholder_52"><polygon fill="#F1F1F1" points="6829,56,6839,46,6975,46,6975,82.2969,6965,92.2969,6829,92.2969,6829,56" style="stroke:#181818;stroke-width:0.5;"/><line style="stroke:#181818;stroke-width:0.5;" x1="6965" x2="6975" y1="56" y2="46"/><line style="stroke:#181818;stroke-width:0.5;" x1="6829" x2="6965" y1="56" y2="56"/><line style="stroke:#181818;stroke-width:0.5;" x1="6965" x2="6965" y1="56" y2="92.2969"/><text fill="#000000" font-family="sans-serif" font-size="14" lengthAdjust="spacing" textLength="106" x="6844" y="78.9951">Placeholder_52</text></g><!--entity Placeholder_18--><g id="elem_Placeholder_18"><polygon fill="#F1F1F1" points="7010,56,7020,46,7156,46,7156,82.2969,7146,92.2969,7010,92.2969,7010,56" style="stroke:#181818;stroke-width:0.5;"/><line style="stroke:#181818;stroke-width:0.5;" x1="7146" x2="7156" y1="56" y2="46"/><line style="stroke:#181818;stroke-width:0.5;" x1="7010" x2="7146" y1="56" y2="56"/><line style="stroke:#181818;stroke-width:0.5;" x1="7146" x2="7146" y1="56" y2="92.2969"/><text fill="#000000" font-family="sans-serif" font-size="14" lengthAdjust="spacing" textLength="106" x="7025" y="78.9951">Placeholder_18</text></g><!--entity Placeholder_21--><g id="elem_Placeholder_21"><polygon fill="#F1F1F1" points="7191,56,7201,46,7337,46,7337,82.2969,7327,92.2969,7191,92.2969,7191,56" style="stroke:#181818;stroke-width:0.5;"/><line style="stroke:#181818;stroke-width:0.5;" x1="7327" x2="7337" y1="56" y2="46"/><line style="stroke:#181818;stroke-width:0.5;" x1="7191" x2="7327" y1="56" y2="56"/><line style="stroke:#181818;stroke-width:0.5;" x1="7327" x2="7327" y1="56" y2="92.2969"/><text fill="#000000" font-family="sans-serif" font-size="14" lengthAdjust="spacing" textLength="106" x="7206" y="78.9951">Placeholder_21</text></g><!--entity Placeholder_22--><g id="elem_Placeholder_22"><polygon fill="#F1F1F1" points="7372,56,7382,46,7518,46,7518,82.2969,7508,92.2969,7372,92.2969,7372,56" style="stroke:#181818;stroke-width:0.5;"/><line style="stroke:#181818;stroke-width:0.5;" x1="7508" x2="7518" y1="56" y2="46"/><line style="stroke:#181818;stroke-width:0.5;" x1="7372" x2="7508" y1="56" y2="56"/><line style="stroke:#181818;stroke-width:0.5;" x1="7508" x2="7508" y1="56" y2="92.2969"/><text fill="#000000" font-family="sans-serif" font-size="14" lengthAdjust="spacing" textLength="106" x="7387" y="78.9951">Placeholder_22</text></g><!--link aName to aName--><g id="link_aName_aName"><path d="M7641.27,67.52 C7660.02,67.4 7676,67.9 7676,69 C7676,70.1 7660.02,70.6 7641.27,70.48 " fill="none" id="aName-aName" style="stroke:#181818;stroke-width:1.0;"/><text fill="#000000" font-family="sans-serif" font-size="13" lengthAdjust="spacing" textLength="200" x="7689" y="73.5669">demo_UserRepository_Provider</text><path d="M7634.1538,60.4943 A10,10 0 0 0 7634.2443 74.6362" fill="none" style="stroke:#181818;stroke-width:1.5;"/><ellipse cx="7641.27" cy="67.52" fill="#FFFFFF" rx="6" ry="6" style="stroke:#181818;stroke-width:1.5;"/></g><!--link aName to aName--><g id="link_aName_aName"><path d="M7641.14,67.13 C7728.27,65.15 7902,65.77 7902,69 C7902,72.23 7728.27,72.85 7641.14,70.87 " fill="none" id="aName-aName-1" style="stroke:#181818;stroke-width:1.0;"/><text fill="#000000" font-family="sans-serif" font-size="13" lengthAdjust="spacing" textLength="180" x="7915" y="73.5669">demo_UserService_Provider</text><path d="M7633.9101,60.2214 A10,10 0 0 0 7634.2314 74.3599" fill="none" style="stroke:#181818;stroke-width:1.5;"/><ellipse cx="7641.14" cy="67.13" fill="#FFFFFF" rx="6" ry="6" style="stroke:#181818;stroke-width:1.5;"/></g><!--link aName to aName--><g id="link_aName_aName"><path d="M7641.26,66.79 C7769.61,63.12 8108,63.86 8108,69 C8108,74.14 7769.61,74.88 7641.26,71.21 " fill="none" id="aName-aName-2" style="stroke:#181818;stroke-width:1.0;"/><text fill="#000000" font-family="sans-serif" font-size="13" lengthAdjust="spacing" textLength="280" x="8121" y="73.5669">demo_account_AccountRepository_Provider</text><path d="M7633.9897,59.9239 A10,10 0 0 0 7634.3939 74.0603" fill="none" style="stroke:#181818;stroke-width:1.5;"/><ellipse cx="7641.26" cy="66.79" fill="#FFFFFF" rx="6" ry="6" style="stroke:#181818;stroke-width:1.5;"/></g><!--link aName to aName--><g id="link_aName_aName"><path d="M7641.01,66.63 C7816.57,61.1 8414,61.89 8414,69 C8414,76.11 7816.57,76.9 7641.01,71.37 " fill="none" id="aName-aName-3" style="stroke:#181818;stroke-width:1.0;"/><text fill="#000000" font-family="sans-serif" font-size="13" lengthAdjust="spacing" textLength="267" x="8427" y="73.5669">demo_api_v1_AccountServiceV1_Provider</text><path d="M7633.7198,59.7851 A10,10 0 0 0 7634.1651 73.9202" fill="none" style="stroke:#181818;stroke-width:1.5;"/><ellipse cx="7641.01" cy="66.63" fill="#FFFFFF" rx="6" ry="6" style="stroke:#181818;stroke-width:1.5;"/></g><!--link aName to aName--><g id="link_aName_aName"><path d="M7641.3,66.45 C7855.32,59.09 8707,59.94 8707,69 C8707,78.06 7855.32,78.91 7641.3,71.55 " fill="none" id="aName-aName-4" style="stroke:#181818;stroke-width:1.0;"/><text fill="#000000" font-family="sans-serif" font-size="13" lengthAdjust="spacing" textLength="264" x="8720" y="73.5669">demo_api_v1_CatalogServiceV1_Provider</text><path d="M7633.9901,59.6261 A10,10 0 0 0 7634.4761 73.7599" fill="none" style="stroke:#181818;stroke-width:1.5;"/><ellipse cx="7641.3" cy="66.45" fill="#FFFFFF" rx="6" ry="6" style="stroke:#181818;stroke-width:1.5;"/></g><!--link aName to aName--><g id="link_aName_aName"><path d="M7641.27,66.29 C7888.61,57.08 8997,57.98 8997,69 C8997,80.02 7888.61,80.92 7641.27,71.71 " fill="none" id="aName-aName-5" style="stroke:#181818;stroke-width:1.0;"/><text fill="#000000" font-family="sans-serif" font-size="13" lengthAdjust="spacing" textLength="287" x="9010" y="73.5669">demo_api_v1_OAuth2RestTemplate_Provider</text><path d="M7633.9407,59.4869 A10,10 0 0 0 7634.4669 73.6193" fill="none" style="stroke:#181818;stroke-width:1.5;"/><ellipse cx="7641.27" cy="66.29" fill="#FFFFFF" rx="6" ry="6" style="stroke:#181818;stroke-width:1.5;"/></g><!--link aName to aName--><g id="link_aName_aName"><path d="M7641.4,66.15 C7921.48,55.08 9310,56.03 9310,69 C9310,81.97 7921.48,82.92 7641.4,71.85 " fill="none" id="aName-aName-6" style="stroke:#181818;stroke-width:1.0;"/><text fill="#000000" font-family="sans-serif" font-size="13" lengthAdjust="spacing" textLength="287" x="9323" y="73.5669">demo_api_v1_OAuth2RestTemplate_Provider</text><path d="M7634.0552,59.3637 A10,10 0 0 0 7634.6137 73.4948" fill="none" style="stroke:#181818;stroke-width:1.5;"/><ellipse cx="7641.4" cy="66.15" fill="#FFFFFF" rx="6" ry="6" style="stroke:#181818;stroke-width:1.5;"/></g><!--link aName to aName--><g id="link_aName_aName"><path d="M7641.37,66.02 C7951.28,53.07 9623,54.06 9623,69 C9623,83.94 7951.28,84.93 7641.37,71.98 " fill="none" id="aName-aName-7" style="stroke:#181818;stroke-width:1.0;"/><text fill="#000000" font-family="sans-serif" font-size="13" lengthAdjust="spacing" textLength="287" x="9636" y="73.5669">demo_api_v1_OAuth2RestTemplate_Provider</text><path d="M7634.0099,59.2503 A10,10 0 0 0 7634.6003 73.3801" fill="none" style="stroke:#181818;stroke-width:1.5;"/><ellipse cx="7641.37" cy="66.02" fill="#FFFFFF" rx="6" ry="6" style="stroke:#181818;stroke-width:1.5;"/></g><!--link aName to aName--><g id="link_aName_aName"><path d="M7641.13,65.92 C7978.3,51.07 9936,52.09 9936,69 C9936,85.91 7978.3,86.93 7641.13,72.08 " fill="none" id="aName-aName-8" style="stroke:#181818;stroke-width:1.0;"/><text fill="#000000" font-family="sans-serif" font-size="13" lengthAdjust="spacing" textLength="251" x="9949" y="73.5669">demo_api_v1_OrderServiceV1_Provider</text><path d="M7633.7547,59.1669 A10,10 0 0 0 7634.3769 73.2953" fill="none" style="stroke:#181818;stroke-width:1.5;"/><ellipse cx="7641.13" cy="65.92" fill="#FFFFFF" rx="6" ry="6" style="stroke:#181818;stroke-width:1.5;"/></g><!--link aName to aName--><g id="link_aName_aName"><path d="M7641.09,65.79 C8001.83,49.06 10213,50.13 10213,69 C10213,87.87 8001.83,88.94 7641.09,72.21 " fill="none" id="aName-aName-9" style="stroke:#181818;stroke-width:1.0;"/><text fill="#000000" font-family="sans-serif" font-size="13" lengthAdjust="spacing" textLength="239" x="10226" y="73.5669">demo_api_v1_RestTemplate_Provider</text><path d="M7633.6989,59.0541 A10,10 0 0 0 7634.3541 73.1811" fill="none" style="stroke:#181818;stroke-width:1.5;"/><ellipse cx="7641.09" cy="65.79" fill="#FFFFFF" rx="6" ry="6" style="stroke:#181818;stroke-width:1.5;"/></g><!--link aName to aName--><g id="link_aName_aName"><path d="M7641.08,65.67 C8023.69,47.06 10478,48.17 10478,69 C10478,89.83 8023.69,90.94 7641.08,72.33 " fill="none" id="aName-aName-10" style="stroke:#181818;stroke-width:1.0;"/><text fill="#000000" font-family="sans-serif" font-size="13" lengthAdjust="spacing" textLength="239" x="10491" y="73.5669">demo_api_v1_RestTemplate_Provider</text><path d="M7633.6738,58.9508 A10,10 0 0 0 7634.3608 73.0762" fill="none" style="stroke:#181818;stroke-width:1.5;"/><ellipse cx="7641.08" cy="65.67" fill="#FFFFFF" rx="6" ry="6" style="stroke:#181818;stroke-width:1.5;"/></g><!--link aName to aName--><g id="link_aName_aName"><path d="M7641.12,65.56 C8044.99,45.06 10743,46.21 10743,69 C10743,91.79 8044.99,92.94 7641.12,72.44 " fill="none" id="aName-aName-11" style="stroke:#181818;stroke-width:1.0;"/><text fill="#000000" font-family="sans-serif" font-size="13" lengthAdjust="spacing" textLength="302" x="10756" y="73.5669">demo_api_v1_ShoppingCartServiceV1_Provider</text><path d="M7633.6996,58.8565 A10,10 0 0 0 7634.4165 72.9804" fill="none" style="stroke:#181818;stroke-width:1.5;"/><ellipse cx="7641.12" cy="65.56" fill="#FFFFFF" rx="6" ry="6" style="stroke:#181818;stroke-width:1.5;"/></g><!--link aName to aName--><g id="link_aName_aName"><path d="M7641.09,65.48 C8069.24,43.06 11071,44.23 11071,69 C11071,93.77 8069.24,94.94 7641.09,72.52 " fill="none" id="aName-aName-12" style="stroke:#181818;stroke-width:1.0;"/><text fill="#000000" font-family="sans-serif" font-size="13" lengthAdjust="spacing" textLength="245" x="11084" y="73.5669">demo_api_v1_UserServiceV1_Provider</text><path d="M7633.6588,58.7884 A10,10 0 0 0 7634.3984 72.9112" fill="none" style="stroke:#181818;stroke-width:1.5;"/><ellipse cx="7641.09" cy="65.48" fill="#FFFFFF" rx="6" ry="6" style="stroke:#181818;stroke-width:1.5;"/></g><!--link aName to aName--><g id="link_aName_aName"><path d="M7641.22,65.38 C8089.94,41.06 11342,42.26 11342,69 C11342,95.74 8089.94,96.94 7641.22,72.62 " fill="none" id="aName-aName-13" style="stroke:#181818;stroke-width:1.0;"/><text fill="#000000" font-family="sans-serif" font-size="13" lengthAdjust="spacing" textLength="265" x="11355" y="73.5669">demo_cart_CartEventRepository_Provider</text><path d="M7633.7766,58.702 A10,10 0 0 0 7634.542 72.8234" fill="none" style="stroke:#181818;stroke-width:1.5;"/><ellipse cx="7641.22" cy="65.38" fill="#FFFFFF" rx="6" ry="6" style="stroke:#181818;stroke-width:1.5;"/></g><!--link aName to aName--><g id="link_aName_aName"><path d="M7641.11,65.3 C8110.11,39.06 11633,40.29 11633,69 C11633,97.71 8110.11,98.94 7641.11,72.7 " fill="none" id="aName-aName-14" style="stroke:#181818;stroke-width:1.0;"/><text fill="#000000" font-family="sans-serif" font-size="13" lengthAdjust="spacing" textLength="296" x="11646" y="73.5669">demo_catalog_CatalogInfoRepository_Provider</text><path d="M7633.655,58.635 A10,10 0 0 0 7634.445 72.755" fill="none" style="stroke:#181818;stroke-width:1.5;"/><ellipse cx="7641.11" cy="65.3" fill="#FFFFFF" rx="6" ry="6" style="stroke:#181818;stroke-width:1.5;"/></g><!--link aName to aName--><g id="link_aName_aName"><path d="M7641.18,65.22 C8132.32,37.05 11955,38.31 11955,69 C11955,99.69 8132.32,100.95 7641.18,72.78 " fill="none" id="aName-aName-15" style="stroke:#181818;stroke-width:1.0;"/><text fill="#000000" font-family="sans-serif" font-size="13" lengthAdjust="spacing" textLength="295" x="11968" y="73.5669">demo_inventory_InventoryRepository_Provider</text><path d="M7633.7156,58.5654 A10,10 0 0 0 7634.5254 72.6844" fill="none" style="stroke:#181818;stroke-width:1.5;"/><ellipse cx="7641.18" cy="65.22" fill="#FFFFFF" rx="6" ry="6" style="stroke:#181818;stroke-width:1.5;"/></g><!--link aName to aName--><g id="link_aName_aName"><path d="M7641.3,65.15 C8154.19,35.05 12276,36.34 12276,69 C12276,101.66 8154.19,102.95 7641.3,72.85 " fill="none" id="aName-aName-16" style="stroke:#181818;stroke-width:1.0;"/><text fill="#000000" font-family="sans-serif" font-size="13" lengthAdjust="spacing" textLength="265" x="12289" y="73.5669">demo_invoice_InvoiceRepository_Provider</text><path d="M7633.8268,58.5053 A10,10 0 0 0 7634.6553 72.6232" fill="none" style="stroke:#181818;stroke-width:1.5;"/><ellipse cx="7641.3" cy="65.15" fill="#FFFFFF" rx="6" ry="6" style="stroke:#181818;stroke-width:1.5;"/></g><!--link aName to aName--><g id="link_aName_aName"><path d="M7641.02,65.09 C8171.79,33.05 12567,34.35 12567,69 C12567,103.65 8171.79,104.95 7641.02,72.91 " fill="none" id="aName-aName-17" style="stroke:#181818;stroke-width:1.0;"/><text fill="#000000" font-family="sans-serif" font-size="13" lengthAdjust="spacing" textLength="289" x="12580" y="73.5669">demo_login_AuthenticationManager_Provider</text><path d="M7633.5357,58.4579 A10,10 0 0 0 7634.3879 72.5743" fill="none" style="stroke:#181818;stroke-width:1.5;"/><ellipse cx="7641.02" cy="65.09" fill="#FFFFFF" rx="6" ry="6" style="stroke:#181818;stroke-width:1.5;"/></g><!--link aName to aName--><g id="link_aName_aName"><path d="M7641,65.03 C8191.59,31.05 12882,32.37 12882,69 C12882,105.63 8191.59,106.95 7641,72.97 " fill="none" id="aName-aName-18" style="stroke:#181818;stroke-width:1.0;"/><text fill="#000000" font-family="sans-serif" font-size="13" lengthAdjust="spacing" textLength="267" x="12895" y="73.5669">demo_login_ClientDetailsService_Provider</text><path d="M7633.5068,58.4079 A10,10 0 0 0 7634.3779 72.5232" fill="none" style="stroke:#181818;stroke-width:1.5;"/><ellipse cx="7641" cy="65.03" fill="#FFFFFF" rx="6" ry="6" style="stroke:#181818;stroke-width:1.5;"/></g><!--link aName to aName--><g id="link_aName_aName"><path d="M7641.11,64.96 C8210.67,29.05 13175,30.4 13175,69 C13175,107.6 8210.67,108.95 7641.11,73.04 " fill="none" id="aName-aName-19" style="stroke:#181818;stroke-width:1.0;"/><text fill="#000000" font-family="sans-serif" font-size="13" lengthAdjust="spacing" textLength="387" x="13188" y="73.5669">demo_login_HttpSessionSecurityContextRepository_Provider</text><path d="M7633.608,58.3479 A10,10 0 0 0 7634.4979 72.462" fill="none" style="stroke:#181818;stroke-width:1.5;"/><ellipse cx="7641.11" cy="64.96" fill="#FFFFFF" rx="6" ry="6" style="stroke:#181818;stroke-width:1.5;"/></g><!--link aName to aName--><g id="link_aName_aName"><path d="M7641,64.93 C8233.65,27.05 13588,28.4 13588,69 C13588,109.6 8233.65,110.95 7641,73.07 " fill="none" id="aName-aName-20" style="stroke:#181818;stroke-width:1.0;"/><text fill="#000000" font-family="sans-serif" font-size="13" lengthAdjust="spacing" textLength="283" x="13601" y="73.5669">demo_order_OrderEventRepository_Provider</text><path d="M7633.4923,58.3244 A10,10 0 0 0 7634.3944 72.4377" fill="none" style="stroke:#181818;stroke-width:1.5;"/><ellipse cx="7641" cy="64.93" fill="#FFFFFF" rx="6" ry="6" style="stroke:#181818;stroke-width:1.5;"/></g><!--link aName to aName--><g id="link_aName_aName"><path d="M7641.24,64.85 C8253.49,25.05 13897,26.43 13897,69 C13897,111.57 8253.49,112.95 7641.24,73.15 " fill="none" id="aName-aName-21" style="stroke:#181818;stroke-width:1.0;"/><text fill="#000000" font-family="sans-serif" font-size="13" lengthAdjust="spacing" textLength="247" x="13910" y="73.5669">demo_order_OrderRepository_Provider</text><path d="M7633.7251,58.2525 A10,10 0 0 0 7634.6425 72.3649" fill="none" style="stroke:#181818;stroke-width:1.5;"/><ellipse cx="7641.24" cy="64.85" fill="#FFFFFF" rx="6" ry="6" style="stroke:#181818;stroke-width:1.5;"/></g><!--link aName to aName--><g id="link_aName_aName"><path d="M7641.23,64.79 C8269.96,23.05 14170,24.45 14170,69 C14170,113.55 8269.96,114.95 7641.23,73.21 " fill="none" id="aName-aName-22" style="stroke:#181818;stroke-width:1.0;"/><text fill="#000000" font-family="sans-serif" font-size="13" lengthAdjust="spacing" textLength="247" x="14183" y="73.5669">demo_order_OrderRepository_Provider</text><path d="M7633.7061,58.2029 A10,10 0 0 0 7634.6429 72.3139" fill="none" style="stroke:#181818;stroke-width:1.5;"/><ellipse cx="7641.23" cy="64.79" fill="#FFFFFF" rx="6" ry="6" style="stroke:#181818;stroke-width:1.5;"/></g><!--link aName to aName--><g id="link_aName_aName"><path d="M7641.09,64.74 C8285.43,21.04 14443,22.46 14443,69 C14443,115.54 8285.43,116.96 7641.09,73.26 " fill="none" id="aName-aName-23" style="stroke:#181818;stroke-width:1.0;"/><text fill="#000000" font-family="sans-serif" font-size="13" lengthAdjust="spacing" textLength="275" x="14456" y="73.5669">demo_product_ProductRepository_Provider</text><path d="M7633.5567,58.1636 A10,10 0 0 0 7634.5136 72.2733" fill="none" style="stroke:#181818;stroke-width:1.5;"/><ellipse cx="7641.09" cy="64.74" fill="#FFFFFF" rx="6" ry="6" style="stroke:#181818;stroke-width:1.5;"/></g><!--link aName to aName--><g id="link_aName_aName"><path d="M7641.41,64.67 C8304.77,19.04 14744,20.49 14744,69 C14744,117.51 8304.77,118.96 7641.41,73.33 " fill="none" id="aName-aName-24" style="stroke:#181818;stroke-width:1.0;"/><text fill="#000000" font-family="sans-serif" font-size="13" lengthAdjust="spacing" textLength="235" x="14757" y="73.5669">demo_user_UserRepository_Provider</text><path d="M7633.8704,58.1008 A10,10 0 0 0 7634.8408 72.2096" fill="none" style="stroke:#181818;stroke-width:1.5;"/><ellipse cx="7641.41" cy="64.67" fill="#FFFFFF" rx="6" ry="6" style="stroke:#181818;stroke-width:1.5;"/></g><!--link aName to aName--><g id="link_aName_aName"><path d="M7641.01,64.64 C8317.62,17.04 15005,18.5 15005,69 C15005,119.5 8317.62,120.96 7641.01,73.36 " fill="none" id="aName-aName-25" style="stroke:#181818;stroke-width:1.0;"/><text fill="#000000" font-family="sans-serif" font-size="13" lengthAdjust="spacing" textLength="248" x="15018" y="73.5669">demo_v1_InventoryServiceV1_Provider</text><path d="M7633.4601,58.0826 A10,10 0 0 0 7634.4526 72.1899" fill="none" style="stroke:#181818;stroke-width:1.5;"/><ellipse cx="7641.01" cy="64.64" fill="#FFFFFF" rx="6" ry="6" style="stroke:#181818;stroke-width:1.5;"/></g><!--link aName to aName--><g id="link_aName_aName"><path d="M7641.06,64.58 C8333.72,15.04 15279,16.52 15279,69 C15279,121.48 8333.72,122.96 7641.06,73.42 " fill="none" id="aName-aName-26" style="stroke:#181818;stroke-width:1.0;"/><text fill="#000000" font-family="sans-serif" font-size="13" lengthAdjust="spacing" textLength="175" x="15292" y="73.5669">demo_v1_Session_Provider</text><path d="M7633.5025,58.0314 A10,10 0 0 0 7634.5114 72.1375" fill="none" style="stroke:#181818;stroke-width:1.5;"/><ellipse cx="7641.06" cy="64.58" fill="#FFFFFF" rx="6" ry="6" style="stroke:#181818;stroke-width:1.5;"/></g><!--link aName to aName--><g id="link_aName_aName"><path d="M7641.11,64.51 C8346.92,13.04 15480,14.54 15480,69 C15480,123.46 8346.92,124.96 7641.11,73.49 " fill="none" id="aName-aName-27" style="stroke:#181818;stroke-width:1.0;"/><text fill="#000000" font-family="sans-serif" font-size="13" lengthAdjust="spacing" textLength="139" x="15493" y="73.5669">user_service_Provider</text><path d="M7633.5434,57.9719 A10,10 0 0 0 7634.5719 72.0766" fill="none" style="stroke:#181818;stroke-width:1.5;"/><ellipse cx="7641.11" cy="64.51" fill="#FFFFFF" rx="6" ry="6" style="stroke:#181818;stroke-width:1.5;"/></g><!--link aName to aName--><g id="link_aName_aName"><path d="M7641.03,64.45 C8357.76,11.04 15645,12.56 15645,69 C15645,125.44 8357.76,126.96 7641.03,73.55 " fill="none" id="aName-aName-28" style="stroke:#181818;stroke-width:1.0;"/><text fill="#000000" font-family="sans-serif" font-size="13" lengthAdjust="spacing" textLength="139" x="15658" y="73.5669">user_service_Provider</text><path d="M7633.453,57.924 A10,10 0 0 0 7634.504 72.027" fill="none" style="stroke:#181818;stroke-width:1.5;"/><ellipse cx="7641.03" cy="64.45" fill="#FFFFFF" rx="6" ry="6" style="stroke:#181818;stroke-width:1.5;"/></g><!--SRC=[rPXHQzim58NVyoiCUzcBH-quoRQtadLTohfsJJS68HXLlar4RScLP2zXxBzFgkTIsA2HOGVsf2Jew9Dqpxs-ZhaJicQQLT6jsCs5vYLzP3TKNhIaIrRNGcuYgniQILLGT5aoJbjL5gJpIVHZj6AVM4NhQBMwks76CYbYKskdYNcfcYAcbgIDZMeqzp_IZbLrIQ_CtbYgNkIxyxFxzxFlsGbDh_Cp-dOwsPxUVrwlHp__n6LZC2y1yr8iBm7pfg-nl1JiJ_3naWmSFYnkF0Ex1SpBZi3d0yTl2gxM2Ve-mRmC_RG5bnUmNSPWtXjmzC391ouk2JXwu5mVWrk96VXy2RYpJj6r39pjw5O9d7qfkhC6uy1kcO3jae0xbocucatGx-tezsXqjVwtzzcl7ByyYgF-ozkee4hbNmpfAwgL4LRfVNwfLIlSbfxLB4ctWjDX0iQvQgJDZxinbCTgaRT9h_vD_fe4YUVCib9jXealZXkxJQ_8s6jobyui_KzoNJo6A_3SWvc3XSkjUlZ_TSxqm40_CUUXIkvWkIUU-1GBTIVldDKxR25lLUWIGdgmdxxeFmrOGlbyN7HZgDnjNCZS6ytXXJkIKFASIRPnrIbWWNafdFuTMIPA4rGYElq7Q-ib6UFeI-AD5dO_LzBIBZWgohk-y_wWg3xH0wMrLaN3hP_inr1vuxm_gAAxl7bqNc3o-AJj8lRi_8VjcGDTyVV9lm00]--></g></svg>