<?xml version="1.0" encoding="us-ascii" standalone="no"?><svg xmlns="http://www.w3.org/2000/svg" xmlns:xlink="http://www.w3.org/1999/xlink" contentStyleType="text/css" height="133px" preserveAspectRatio="none" style="width:16237px;height:133px;background:#FFFFFF;" version="1.1" viewBox="0 0 16237 133" width="16237px" zoomAndPan="magnify"><defs/><g><!--cluster Placeholder_22--><g id="cluster_Placeholder_22"><polygon fill="none" points="7527,16,7537,6,16220,6,16220,98,16210,108,7527,108,7527,16" style="stroke:#181818;stroke-width:1.0;"/><line style="stroke:#181818;stroke-width:1.0;" x1="16210" x2="16220" y1="16" y2="6"/><line style="stroke:#181818;stroke-width:1.0;" x1="7527" x2="16210" y1="16" y2="16"/><line style="stroke:#181818;stroke-width:1.0;" x1="16210" x2="16210" y1="16" y2="108"/><text fill="#000000" font-family="sans-serif" font-size="14" font-weight="bold" lengthAdjust="spacing" textLength="120" x="11809.5" y="31.9951">Placeholder_22</text></g><!--entity aName--><g id="elem_aName"><a href="kbastani-spring-cloud-event-sourcing-example.system#_qlL-MrtpEe6l7fA9BdzNhg" target="_top" title="kbastani-spring-cloud-event-sourcing-example.system#_qlL-MrtpEe6l7fA9BdzNhg" xlink:actuate="onRequest" xlink:href="kbastani-spring-cloud-event-sourcing-example.system#_qlL-MrtpEe6l7fA9BdzNhg" xlink:show="new" xlink:title="kbastani-spring-cloud-event-sourcing-example.system#_qlL-MrtpEe6l7fA9BdzNhg" xlink:type="simple"><rect fill="#F1F1F1" height="46.2969" rx="2.5" ry="2.5" style="stroke:#181818;stroke-width:0.5;" width="88" x="7543" y="46"/><rect fill="#F1F1F1" height="10" style="stroke:#181818;stroke-width:0.5;" width="15" x="7611" y="51"/><rect fill="#F1F1F1" height="2" style="stroke:#181818;stroke-width:0.5;" width="4" x="7609" y="53"/><rect fill="#F1F1F1" height="2" style="stroke:#181818;stroke-width:0.5;" width="4" x="7609" y="57"/><text fill="#000000" font-family="sans-serif" font-size="14" lengthAdjust="spacing" textLength="48" x="7558" y="78.9951">aName</text></a></g><!--entity Placeholder_26--><g id="elem_Placeholder_26"><polygon fill="#F1F1F1" points="16,56,26,46,162,46,162,82.2969,152,92.2969,16,92.2969,16,56" style="stroke:#181818;stroke-width:0.5;"/><line style="stroke:#181818;stroke-width:0.5;" x1="152" x2="162" y1="56" y2="46"/><line style="stroke:#181818;stroke-width:0.5;" x1="16" x2="152" y1="56" y2="56"/><line style="stroke:#181818;stroke-width:0.5;" x1="152" x2="152" y1="56" y2="92.2969"/><text fill="#000000" font-family="sans-serif" font-size="14" lengthAdjust="spacing" textLength="106" x="31" y="78.9951">Placeholder_26</text></g><!--entity Placeholder_42--><g id="elem_Placeholder_42"><polygon fill="#F1F1F1" points="197,56,207,46,343,46,343,82.2969,333,92.2969,197,92.2969,197,56" style="stroke:#181818;stroke-width:0.5;"/><line style="stroke:#181818;stroke-width:0.5;" x1="333" x2="343" y1="56" y2="46"/><line style="stroke:#181818;stroke-width:0.5;" x1="197" x2="333" y1="56" y2="56"/><line style="stroke:#181818;stroke-width:0.5;" x1="333" x2="333" y1="56" y2="92.2969"/><text fill="#000000" font-family="sans-serif" font-size="14" lengthAdjust="spacing" textLength="106" x="212" y="78.9951">Placeholder_42</text></g><!--entity Placeholder_36--><g id="elem_Placeholder_36"><polygon fill="#F1F1F1" points="378,56,388,46,524,46,524,82.2969,514,92.2969,378,92.2969,378,56" style="stroke:#181818;stroke-width:0.5;"/><line style="stroke:#181818;stroke-width:0.5;" x1="514" x2="524" y1="56" y2="46"/><line style="stroke:#181818;stroke-width:0.5;" x1="378" x2="514" y1="56" y2="56"/><line style="stroke:#181818;stroke-width:0.5;" x1="514" x2="514" y1="56" y2="92.2969"/><text fill="#000000" font-family="sans-serif" font-size="14" lengthAdjust="spacing" textLength="106" x="393" y="78.9951">Placeholder_36</text></g><!--entity Placeholder_57--><g id="elem_Placeholder_57"><polygon fill="#F1F1F1" points="559,56,569,46,705,46,705,82.2969,695,92.2969,559,92.2969,559,56" style="stroke:#181818;stroke-width:0.5;"/><line style="stroke:#181818;stroke-width:0.5;" x1="695" x2="705" y1="56" y2="46"/><line style="stroke:#181818;stroke-width:0.5;" x1="559" x2="695" y1="56" y2="56"/><line style="stroke:#181818;stroke-width:0.5;" x1="695" x2="695" y1="56" y2="92.2969"/><text fill="#000000" font-family="sans-serif" font-size="14" lengthAdjust="spacing" textLength="106" x="574" y="78.9951">Placeholder_57</text></g><!--entity Placeholder_12--><g id="elem_Placeholder_12"><polygon fill="#F1F1F1" points="740,56,750,46,886,46,886,82.2969,876,92.2969,740,92.2969,740,56" style="stroke:#181818;stroke-width:0.5;"/><line style="stroke:#181818;stroke-width:0.5;" x1="876" x2="886" y1="56" y2="46"/><line style="stroke:#181818;stroke-width:0.5;" x1="740" x2="876" y1="56" y2="56"/><line style="stroke:#181818;stroke-width:0.5;" x1="876" x2="876" y1="56" y2="92.2969"/><text fill="#000000" font-family="sans-serif" font-size="14" lengthAdjust="spacing" textLength="106" x="755" y="78.9951">Placeholder_12</text></g><!--entity Placeholder_2--><g id="elem_Placeholder_2"><polygon fill="#F1F1F1" points="921.5,56,931.5,46,1058.5,46,1058.5,82.2969,1048.5,92.2969,921.5,92.2969,921.5,56" style="stroke:#181818;stroke-width:0.5;"/><line style="stroke:#181818;stroke-width:0.5;" x1="1048.5" x2="1058.5" y1="56" y2="46"/><line style="stroke:#181818;stroke-width:0.5;" x1="921.5" x2="1048.5" y1="56" y2="56"/><line style="stroke:#181818;stroke-width:0.5;" x1="1048.5" x2="1048.5" y1="56" y2="92.2969"/><text fill="#000000" font-family="sans-serif" font-size="14" lengthAdjust="spacing" textLength="97" x="936.5" y="78.9951">Placeholder_2</text></g><!--entity Placeholder_41--><g id="elem_Placeholder_41"><polygon fill="#F1F1F1" points="1094,56,1104,46,1240,46,1240,82.2969,1230,92.2969,1094,92.2969,1094,56" style="stroke:#181818;stroke-width:0.5;"/><line style="stroke:#181818;stroke-width:0.5;" x1="1230" x2="1240" y1="56" y2="46"/><line style="stroke:#181818;stroke-width:0.5;" x1="1094" x2="1230" y1="56" y2="56"/><line style="stroke:#181818;stroke-width:0.5;" x1="1230" x2="1230" y1="56" y2="92.2969"/><text fill="#000000" font-family="sans-serif" font-size="14" lengthAdjust="spacing" textLength="106" x="1109" y="78.9951">Placeholder_41</text></g><!--entity Placeholder_64--><g id="elem_Placeholder_64"><polygon fill="#F1F1F1" points="1275,56,1285,46,1421,46,1421,82.2969,1411,92.2969,1275,92.2969,1275,56" style="stroke:#181818;stroke-width:0.5;"/><line style="stroke:#181818;stroke-width:0.5;" x1="1411" x2="1421" y1="56" y2="46"/><line style="stroke:#181818;stroke-width:0.5;" x1="1275" x2="1411" y1="56" y2="56"/><line style="stroke:#181818;stroke-width:0.5;" x1="1411" x2="1411" y1="56" y2="92.2969"/><text fill="#000000" font-family="sans-serif" font-size="14" lengthAdjust="spacing" textLength="106" x="1290" y="78.9951">Placeholder_64</text></g><!--entity Placeholder_37--><g id="elem_Placeholder_37"><polygon fill="#F1F1F1" points="1456,56,1466,46,1602,46,1602,82.2969,1592,92.2969,1456,92.2969,1456,56" style="stroke:#181818;stroke-width:0.5;"/><line style="stroke:#181818;stroke-width:0.5;" x1="1592" x2="1602" y1="56" y2="46"/><line style="stroke:#181818;stroke-width:0.5;" x1="1456" x2="1592" y1="56" y2="56"/><line style="stroke:#181818;stroke-width:0.5;" x1="1592" x2="1592" y1="56" y2="92.2969"/><text fill="#000000" font-family="sans-serif" font-size="14" lengthAdjust="spacing" textLength="106" x="1471" y="78.9951">Placeholder_37</text></g><!--entity Placeholder_17--><g id="elem_Placeholder_17"><polygon fill="#F1F1F1" points="1637,56,1647,46,1783,46,1783,82.2969,1773,92.2969,1637,92.2969,1637,56" style="stroke:#181818;stroke-width:0.5;"/><line style="stroke:#181818;stroke-width:0.5;" x1="1773" x2="1783" y1="56" y2="46"/><line style="stroke:#181818;stroke-width:0.5;" x1="1637" x2="1773" y1="56" y2="56"/><line style="stroke:#181818;stroke-width:0.5;" x1="1773" x2="1773" y1="56" y2="92.2969"/><text fill="#000000" font-family="sans-serif" font-size="14" lengthAdjust="spacing" textLength="106" x="1652" y="78.9951">Placeholder_17</text></g><!--entity Placeholder_24--><g id="elem_Placeholder_24"><polygon fill="#F1F1F1" points="1818,56,1828,46,1964,46,1964,82.2969,1954,92.2969,1818,92.2969,1818,56" style="stroke:#181818;stroke-width:0.5;"/><line style="stroke:#181818;stroke-width:0.5;" x1="1954" x2="1964" y1="56" y2="46"/><line style="stroke:#181818;stroke-width:0.5;" x1="1818" x2="1954" y1="56" y2="56"/><line style="stroke:#181818;stroke-width:0.5;" x1="1954" x2="1954" y1="56" y2="92.2969"/><text fill="#000000" font-family="sans-serif" font-size="14" lengthAdjust="spacing" textLength="106" x="1833" y="78.9951">Placeholder_24</text></g><!--entity Placeholder_31--><g id="elem_Placeholder_31"><polygon fill="#F1F1F1" points="1999,56,2009,46,2145,46,2145,82.2969,2135,92.2969,1999,92.2969,1999,56" style="stroke:#181818;stroke-width:0.5;"/><line style="stroke:#181818;stroke-width:0.5;" x1="2135" x2="2145" y1="56" y2="46"/><line style="stroke:#181818;stroke-width:0.5;" x1="1999" x2="2135" y1="56" y2="56"/><line style="stroke:#181818;stroke-width:0.5;" x1="2135" x2="2135" y1="56" y2="92.2969"/><text fill="#000000" font-family="sans-serif" font-size="14" lengthAdjust="spacing" textLength="106" x="2014" y="78.9951">Placeholder_31</text></g><!--entity Placeholder_0--><g id="elem_Placeholder_0"><polygon fill="#F1F1F1" points="2180.5,56,2190.5,46,2317.5,46,2317.5,82.2969,2307.5,92.2969,2180.5,92.2969,2180.5,56" style="stroke:#181818;stroke-width:0.5;"/><line style="stroke:#181818;stroke-width:0.5;" x1="2307.5" x2="2317.5" y1="56" y2="46"/><line style="stroke:#181818;stroke-width:0.5;" x1="2180.5" x2="2307.5" y1="56" y2="56"/><line style="stroke:#181818;stroke-width:0.5;" x1="2307.5" x2="2307.5" y1="56" y2="92.2969"/><text fill="#000000" font-family="sans-serif" font-size="14" lengthAdjust="spacing" textLength="97" x="2195.5" y="78.9951">Placeholder_0</text></g><!--entity Placeholder_11--><g id="elem_Placeholder_11"><polygon fill="#F1F1F1" points="2353,56,2363,46,2499,46,2499,82.2969,2489,92.2969,2353,92.2969,2353,56" style="stroke:#181818;stroke-width:0.5;"/><line style="stroke:#181818;stroke-width:0.5;" x1="2489" x2="2499" y1="56" y2="46"/><line style="stroke:#181818;stroke-width:0.5;" x1="2353" x2="2489" y1="56" y2="56"/><line style="stroke:#181818;stroke-width:0.5;" x1="2489" x2="2489" y1="56" y2="92.2969"/><text fill="#000000" font-family="sans-serif" font-size="14" lengthAdjust="spacing" textLength="106" x="2368" y="78.9951">Placeholder_11</text></g><!--entity Placeholder_72--><g id="elem_Placeholder_72"><polygon fill="#F1F1F1" points="2534,56,2544,46,2680,46,2680,82.2969,2670,92.2969,2534,92.2969,2534,56" style="stroke:#181818;stroke-width:0.5;"/><line style="stroke:#181818;stroke-width:0.5;" x1="2670" x2="2680" y1="56" y2="46"/><line style="stroke:#181818;stroke-width:0.5;" x1="2534" x2="2670" y1="56" y2="56"/><line style="stroke:#181818;stroke-width:0.5;" x1="2670" x2="2670" y1="56" y2="92.2969"/><text fill="#000000" font-family="sans-serif" font-size="14" lengthAdjust="spacing" textLength="106" x="2549" y="78.9951">Placeholder_72</text></g><!--entity Placeholder_66--><g id="elem_Placeholder_66"><polygon fill="#F1F1F1" points="2715,56,2725,46,2861,46,2861,82.2969,2851,92.2969,2715,92.2969,2715,56" style="stroke:#181818;stroke-width:0.5;"/><line style="stroke:#181818;stroke-width:0.5;" x1="2851" x2="2861" y1="56" y2="46"/><line style="stroke:#181818;stroke-width:0.5;" x1="2715" x2="2851" y1="56" y2="56"/><line style="stroke:#181818;stroke-width:0.5;" x1="2851" x2="2851" y1="56" y2="92.2969"/><text fill="#000000" font-family="sans-serif" font-size="14" lengthAdjust="spacing" textLength="106" x="2730" y="78.9951">Placeholder_66</text></g><!--entity Placeholder_35--><g id="elem_Placeholder_35"><polygon fill="#F1F1F1" points="2896,56,2906,46,3042,46,3042,82.2969,3032,92.2969,2896,92.2969,2896,56" style="stroke:#181818;stroke-width:0.5;"/><line style="stroke:#181818;stroke-width:0.5;" x1="3032" x2="3042" y1="56" y2="46"/><line style="stroke:#181818;stroke-width:0.5;" x1="2896" x2="3032" y1="56" y2="56"/><line style="stroke:#181818;stroke-width:0.5;" x1="3032" x2="3032" y1="56" y2="92.2969"/><text fill="#000000" font-family="sans-serif" font-size="14" lengthAdjust="spacing" textLength="106" x="2911" y="78.9951">Placeholder_35</text></g><!--entity Placeholder_44--><g id="elem_Placeholder_44"><polygon fill="#F1F1F1" points="3077,56,3087,46,3223,46,3223,82.2969,3213,92.2969,3077,92.2969,3077,56" style="stroke:#181818;stroke-width:0.5;"/><line style="stroke:#181818;stroke-width:0.5;" x1="3213" x2="3223" y1="56" y2="46"/><line style="stroke:#181818;stroke-width:0.5;" x1="3077" x2="3213" y1="56" y2="56"/><line style="stroke:#181818;stroke-width:0.5;" x1="3213" x2="3213" y1="56" y2="92.2969"/><text fill="#000000" font-family="sans-serif" font-size="14" lengthAdjust="spacing" textLength="106" x="3092" y="78.9951">Placeholder_44</text></g><!--entity Placeholder_9--><g id="elem_Placeholder_9"><polygon fill="#F1F1F1" points="3258.5,56,3268.5,46,3395.5,46,3395.5,82.2969,3385.5,92.2969,3258.5,92.2969,3258.5,56" style="stroke:#181818;stroke-width:0.5;"/><line style="stroke:#181818;stroke-width:0.5;" x1="3385.5" x2="3395.5" y1="56" y2="46"/><line style="stroke:#181818;stroke-width:0.5;" x1="3258.5" x2="3385.5" y1="56" y2="56"/><line style="stroke:#181818;stroke-width:0.5;" x1="3385.5" x2="3385.5" y1="56" y2="92.2969"/><text fill="#000000" font-family="sans-serif" font-size="14" lengthAdjust="spacing" textLength="97" x="3273.5" y="78.9951">Placeholder_9</text></g><!--entity Placeholder_60--><g id="elem_Placeholder_60"><polygon fill="#F1F1F1" points="3431,56,3441,46,3577,46,3577,82.2969,3567,92.2969,3431,92.2969,3431,56" style="stroke:#181818;stroke-width:0.5;"/><line style="stroke:#181818;stroke-width:0.5;" x1="3567" x2="3577" y1="56" y2="46"/><line style="stroke:#181818;stroke-width:0.5;" x1="3431" x2="3567" y1="56" y2="56"/><line style="stroke:#181818;stroke-width:0.5;" x1="3567" x2="3567" y1="56" y2="92.2969"/><text fill="#000000" font-family="sans-serif" font-size="14" lengthAdjust="spacing" textLength="106" x="3446" y="78.9951">Placeholder_60</text></g><!--entity Placeholder_28--><g id="elem_Placeholder_28"><polygon fill="#F1F1F1" points="3612,56,3622,46,3758,46,3758,82.2969,3748,92.2969,3612,92.2969,3612,56" style="stroke:#181818;stroke-width:0.5;"/><line style="stroke:#181818;stroke-width:0.5;" x1="3748" x2="3758" y1="56" y2="46"/><line style="stroke:#181818;stroke-width:0.5;" x1="3612" x2="3748" y1="56" y2="56"/><line style="stroke:#181818;stroke-width:0.5;" x1="3748" x2="3748" y1="56" y2="92.2969"/><text fill="#000000" font-family="sans-serif" font-size="14" lengthAdjust="spacing" textLength="106" x="3627" y="78.9951">Placeholder_28</text></g><!--entity Placeholder_7--><g id="elem_Placeholder_7"><polygon fill="#F1F1F1" points="3793.5,56,3803.5,46,3930.5,46,3930.5,82.2969,3920.5,92.2969,3793.5,92.2969,3793.5,56" style="stroke:#181818;stroke-width:0.5;"/><line style="stroke:#181818;stroke-width:0.5;" x1="3920.5" x2="3930.5" y1="56" y2="46"/><line style="stroke:#181818;stroke-width:0.5;" x1="3793.5" x2="3920.5" y1="56" y2="56"/><line style="stroke:#181818;stroke-width:0.5;" x1="3920.5" x2="3920.5" y1="56" y2="92.2969"/><text fill="#000000" font-family="sans-serif" font-size="14" lengthAdjust="spacing" textLength="97" x="3808.5" y="78.9951">Placeholder_7</text></g><!--entity Placeholder_8--><g id="elem_Placeholder_8"><polygon fill="#F1F1F1" points="3965.5,56,3975.5,46,4102.5,46,4102.5,82.2969,4092.5,92.2969,3965.5,92.2969,3965.5,56" style="stroke:#181818;stroke-width:0.5;"/><line style="stroke:#181818;stroke-width:0.5;" x1="4092.5" x2="4102.5" y1="56" y2="46"/><line style="stroke:#181818;stroke-width:0.5;" x1="3965.5" x2="4092.5" y1="56" y2="56"/><line style="stroke:#181818;stroke-width:0.5;" x1="4092.5" x2="4092.5" y1="56" y2="92.2969"/><text fill="#000000" font-family="sans-serif" font-size="14" lengthAdjust="spacing" textLength="97" x="3980.5" y="78.9951">Placeholder_8</text></g><!--entity Placeholder_40--><g id="elem_Placeholder_40"><polygon fill="#F1F1F1" points="4138,56,4148,46,4284,46,4284,82.2969,4274,92.2969,4138,92.2969,4138,56" style="stroke:#181818;stroke-width:0.5;"/><line style="stroke:#181818;stroke-width:0.5;" x1="4274" x2="4284" y1="56" y2="46"/><line style="stroke:#181818;stroke-width:0.5;" x1="4138" x2="4274" y1="56" y2="56"/><line style="stroke:#181818;stroke-width:0.5;" x1="4274" x2="4274" y1="56" y2="92.2969"/><text fill="#000000" font-family="sans-serif" font-size="14" lengthAdjust="spacing" textLength="106" x="4153" y="78.9951">Placeholder_40</text></g><!--entity Placeholder_27--><g id="elem_Placeholder_27"><polygon fill="#F1F1F1" points="4319,56,4329,46,4465,46,4465,82.2969,4455,92.2969,4319,92.2969,4319,56" style="stroke:#181818;stroke-width:0.5;"/><line style="stroke:#181818;stroke-width:0.5;" x1="4455" x2="4465" y1="56" y2="46"/><line style="stroke:#181818;stroke-width:0.5;" x1="4319" x2="4455" y1="56" y2="56"/><line style="stroke:#181818;stroke-width:0.5;" x1="4455" x2="4455" y1="56" y2="92.2969"/><text fill="#000000" font-family="sans-serif" font-size="14" lengthAdjust="spacing" textLength="106" x="4334" y="78.9951">Placeholder_27</text></g><!--entity Placeholder_30--><g id="elem_Placeholder_30"><polygon fill="#F1F1F1" points="4500,56,4510,46,4646,46,4646,82.2969,4636,92.2969,4500,92.2969,4500,56" style="stroke:#181818;stroke-width:0.5;"/><line style="stroke:#181818;stroke-width:0.5;" x1="4636" x2="4646" y1="56" y2="46"/><line style="stroke:#181818;stroke-width:0.5;" x1="4500" x2="4636" y1="56" y2="56"/><line style="stroke:#181818;stroke-width:0.5;" x1="4636" x2="4636" y1="56" y2="92.2969"/><text fill="#000000" font-family="sans-serif" font-size="14" lengthAdjust="spacing" textLength="106" x="4515" y="78.9951">Placeholder_30</text></g><!--entity Placeholder_50--><g id="elem_Placeholder_50"><polygon fill="#F1F1F1" points="4681,56,4691,46,4827,46,4827,82.2969,4817,92.2969,4681,92.2969,4681,56" style="stroke:#181818;stroke-width:0.5;"/><line style="stroke:#181818;stroke-width:0.5;" x1="4817" x2="4827" y1="56" y2="46"/><line style="stroke:#181818;stroke-width:0.5;" x1="4681" x2="4817" y1="56" y2="56"/><line style="stroke:#181818;stroke-width:0.5;" x1="4817" x2="4817" y1="56" y2="92.2969"/><text fill="#000000" font-family="sans-serif" font-size="14" lengthAdjust="spacing" textLength="106" x="4696" y="78.9951">Placeholder_50</text></g><!--entity Placeholder_4--><g id="elem_Placeholder_4"><polygon fill="#F1F1F1" points="4862.5,56,4872.5,46,4999.5,46,4999.5,82.2969,4989.5,92.2969,4862.5,92.2969,4862.5,56" style="stroke:#181818;stroke-width:0.5;"/><line style="stroke:#181818;stroke-width:0.5;" x1="4989.5" x2="4999.5" y1="56" y2="46"/><line style="stroke:#181818;stroke-width:0.5;" x1="4862.5" x2="4989.5" y1="56" y2="56"/><line style="stroke:#181818;stroke-width:0.5;" x1="4989.5" x2="4989.5" y1="56" y2="92.2969"/><text fill="#000000" font-family="sans-serif" font-size="14" lengthAdjust="spacing" textLength="97" x="4877.5" y="78.9951">Placeholder_4</text></g><!--entity Placeholder_45--><g id="elem_Placeholder_45"><polygon fill="#F1F1F1" points="5035,56,5045,46,5181,46,5181,82.2969,5171,92.2969,5035,92.2969,5035,56" style="stroke:#181818;stroke-width:0.5;"/><line style="stroke:#181818;stroke-width:0.5;" x1="5171" x2="5181" y1="56" y2="46"/><line style="stroke:#181818;stroke-width:0.5;" x1="5035" x2="5171" y1="56" y2="56"/><line style="stroke:#181818;stroke-width:0.5;" x1="5171" x2="5171" y1="56" y2="92.2969"/><text fill="#000000" font-family="sans-serif" font-size="14" lengthAdjust="spacing" textLength="106" x="5050" y="78.9951">Placeholder_45</text></g><!--entity Placeholder_15--><g id="elem_Placeholder_15"><polygon fill="#F1F1F1" points="5216,56,5226,46,5362,46,5362,82.2969,5352,92.2969,5216,92.2969,5216,56" style="stroke:#181818;stroke-width:0.5;"/><line style="stroke:#181818;stroke-width:0.5;" x1="5352" x2="5362" y1="56" y2="46"/><line style="stroke:#181818;stroke-width:0.5;" x1="5216" x2="5352" y1="56" y2="56"/><line style="stroke:#181818;stroke-width:0.5;" x1="5352" x2="5352" y1="56" y2="92.2969"/><text fill="#000000" font-family="sans-serif" font-size="14" lengthAdjust="spacing" textLength="106" x="5231" y="78.9951">Placeholder_15</text></g><!--entity Placeholder_25--><g id="elem_Placeholder_25"><polygon fill="#F1F1F1" points="5397,56,5407,46,5543,46,5543,82.2969,5533,92.2969,5397,92.2969,5397,56" style="stroke:#181818;stroke-width:0.5;"/><line style="stroke:#181818;stroke-width:0.5;" x1="5533" x2="5543" y1="56" y2="46"/><line style="stroke:#181818;stroke-width:0.5;" x1="5397" x2="5533" y1="56" y2="56"/><line style="stroke:#181818;stroke-width:0.5;" x1="5533" x2="5533" y1="56" y2="92.2969"/><text fill="#000000" font-family="sans-serif" font-size="14" lengthAdjust="spacing" textLength="106" x="5412" y="78.9951">Placeholder_25</text></g><!--entity Placeholder_23--><g id="elem_Placeholder_23"><polygon fill="#F1F1F1" points="5578,56,5588,46,5724,46,5724,82.2969,5714,92.2969,5578,92.2969,5578,56" style="stroke:#181818;stroke-width:0.5;"/><line style="stroke:#181818;stroke-width:0.5;" x1="5714" x2="5724" y1="56" y2="46"/><line style="stroke:#181818;stroke-width:0.5;" x1="5578" x2="5714" y1="56" y2="56"/><line style="stroke:#181818;stroke-width:0.5;" x1="5714" x2="5714" y1="56" y2="92.2969"/><text fill="#000000" font-family="sans-serif" font-size="14" lengthAdjust="spacing" textLength="106" x="5593" y="78.9951">Placeholder_23</text></g><!--entity Placeholder_13--><g id="elem_Placeholder_13"><polygon fill="#F1F1F1" points="5759,56,5769,46,5905,46,5905,82.2969,5895,92.2969,5759,92.2969,5759,56" style="stroke:#181818;stroke-width:0.5;"/><line style="stroke:#181818;stroke-width:0.5;" x1="5895" x2="5905" y1="56" y2="46"/><line style="stroke:#181818;stroke-width:0.5;" x1="5759" x2="5895" y1="56" y2="56"/><line style="stroke:#181818;stroke-width:0.5;" x1="5895" x2="5895" y1="56" y2="92.2969"/><text fill="#000000" font-family="sans-serif" font-size="14" lengthAdjust="spacing" textLength="106" x="5774" y="78.9951">Placeholder_13</text></g><!--entity Placeholder_21--><g id="elem_Placeholder_21"><polygon fill="#F1F1F1" points="5940,56,5950,46,6086,46,6086,82.2969,6076,92.2969,5940,92.2969,5940,56" style="stroke:#181818;stroke-width:0.5;"/><line style="stroke:#181818;stroke-width:0.5;" x1="6076" x2="6086" y1="56" y2="46"/><line style="stroke:#181818;stroke-width:0.5;" x1="5940" x2="6076" y1="56" y2="56"/><line style="stroke:#181818;stroke-width:0.5;" x1="6076" x2="6076" y1="56" y2="92.2969"/><text fill="#000000" font-family="sans-serif" font-size="14" lengthAdjust="spacing" textLength="106" x="5955" y="78.9951">Placeholder_21</text></g><!--entity Placeholder_19--><g id="elem_Placeholder_19"><polygon fill="#F1F1F1" points="6121,56,6131,46,6267,46,6267,82.2969,6257,92.2969,6121,92.2969,6121,56" style="stroke:#181818;stroke-width:0.5;"/><line style="stroke:#181818;stroke-width:0.5;" x1="6257" x2="6267" y1="56" y2="46"/><line style="stroke:#181818;stroke-width:0.5;" x1="6121" x2="6257" y1="56" y2="56"/><line style="stroke:#181818;stroke-width:0.5;" x1="6257" x2="6257" y1="56" y2="92.2969"/><text fill="#000000" font-family="sans-serif" font-size="14" lengthAdjust="spacing" textLength="106" x="6136" y="78.9951">Placeholder_19</text></g><!--entity Placeholder_38--><g id="elem_Placeholder_38"><polygon fill="#F1F1F1" points="6302,56,6312,46,6448,46,6448,82.2969,6438,92.2969,6302,92.2969,6302,56" style="stroke:#181818;stroke-width:0.5;"/><line style="stroke:#181818;stroke-width:0.5;" x1="6438" x2="6448" y1="56" y2="46"/><line style="stroke:#181818;stroke-width:0.5;" x1="6302" x2="6438" y1="56" y2="56"/><line style="stroke:#181818;stroke-width:0.5;" x1="6438" x2="6438" y1="56" y2="92.2969"/><text fill="#000000" font-family="sans-serif" font-size="14" lengthAdjust="spacing" textLength="106" x="6317" y="78.9951">Placeholder_38</text></g><!--entity Placeholder_16--><g id="elem_Placeholder_16"><polygon fill="#F1F1F1" points="6483,56,6493,46,6629,46,6629,82.2969,6619,92.2969,6483,92.2969,6483,56" style="stroke:#181818;stroke-width:0.5;"/><line style="stroke:#181818;stroke-width:0.5;" x1="6619" x2="6629" y1="56" y2="46"/><line style="stroke:#181818;stroke-width:0.5;" x1="6483" x2="6619" y1="56" y2="56"/><line style="stroke:#181818;stroke-width:0.5;" x1="6619" x2="6619" y1="56" y2="92.2969"/><text fill="#000000" font-family="sans-serif" font-size="14" lengthAdjust="spacing" textLength="106" x="6498" y="78.9951">Placeholder_16</text></g><!--entity Placeholder_39--><g id="elem_Placeholder_39"><polygon fill="#F1F1F1" points="6664,56,6674,46,6810,46,6810,82.2969,6800,92.2969,6664,92.2969,6664,56" style="stroke:#181818;stroke-width:0.5;"/><line style="stroke:#181818;stroke-width:0.5;" x1="6800" x2="6810" y1="56" y2="46"/><line style="stroke:#181818;stroke-width:0.5;" x1="6664" x2="6800" y1="56" y2="56"/><line style="stroke:#181818;stroke-width:0.5;" x1="6800" x2="6800" y1="56" y2="92.2969"/><text fill="#000000" font-family="sans-serif" font-size="14" lengthAdjust="spacing" textLength="106" x="6679" y="78.9951">Placeholder_39</text></g><!--entity Placeholder_1--><g id="elem_Placeholder_1"><polygon fill="#F1F1F1" points="6845.5,56,6855.5,46,6982.5,46,6982.5,82.2969,6972.5,92.2969,6845.5,92.2969,6845.5,56" style="stroke:#181818;stroke-width:0.5;"/><line style="stroke:#181818;stroke-width:0.5;" x1="6972.5" x2="6982.5" y1="56" y2="46"/><line style="stroke:#181818;stroke-width:0.5;" x1="6845.5" x2="6972.5" y1="56" y2="56"/><line style="stroke:#181818;stroke-width:0.5;" x1="6972.5" x2="6972.5" y1="56" y2="92.2969"/><text fill="#000000" font-family="sans-serif" font-size="14" lengthAdjust="spacing" textLength="97" x="6860.5" y="78.9951">Placeholder_1</text></g><!--entity Placeholder_3--><g id="elem_Placeholder_3"><polygon fill="#F1F1F1" points="7017.5,56,7027.5,46,7154.5,46,7154.5,82.2969,7144.5,92.2969,7017.5,92.2969,7017.5,56" style="stroke:#181818;stroke-width:0.5;"/><line style="stroke:#181818;stroke-width:0.5;" x1="7144.5" x2="7154.5" y1="56" y2="46"/><line style="stroke:#181818;stroke-width:0.5;" x1="7017.5" x2="7144.5" y1="56" y2="56"/><line style="stroke:#181818;stroke-width:0.5;" x1="7144.5" x2="7144.5" y1="56" y2="92.2969"/><text fill="#000000" font-family="sans-serif" font-size="14" lengthAdjust="spacing" textLength="97" x="7032.5" y="78.9951">Placeholder_3</text></g><!--entity Placeholder_6--><g id="elem_Placeholder_6"><polygon fill="#F1F1F1" points="7189.5,56,7199.5,46,7326.5,46,7326.5,82.2969,7316.5,92.2969,7189.5,92.2969,7189.5,56" style="stroke:#181818;stroke-width:0.5;"/><line style="stroke:#181818;stroke-width:0.5;" x1="7316.5" x2="7326.5" y1="56" y2="46"/><line style="stroke:#181818;stroke-width:0.5;" x1="7189.5" x2="7316.5" y1="56" y2="56"/><line style="stroke:#181818;stroke-width:0.5;" x1="7316.5" x2="7316.5" y1="56" y2="92.2969"/><text fill="#000000" font-family="sans-serif" font-size="14" lengthAdjust="spacing" textLength="97" x="7204.5" y="78.9951">Placeholder_6</text></g><!--entity Placeholder_14--><g id="elem_Placeholder_14"><polygon fill="#F1F1F1" points="7362,56,7372,46,7508,46,7508,82.2969,7498,92.2969,7362,92.2969,7362,56" style="stroke:#181818;stroke-width:0.5;"/><line style="stroke:#181818;stroke-width:0.5;" x1="7498" x2="7508" y1="56" y2="46"/><line style="stroke:#181818;stroke-width:0.5;" x1="7362" x2="7498" y1="56" y2="56"/><line style="stroke:#181818;stroke-width:0.5;" x1="7498" x2="7498" y1="56" y2="92.2969"/><text fill="#000000" font-family="sans-serif" font-size="14" lengthAdjust="spacing" textLength="106" x="7377" y="78.9951">Placeholder_14</text></g><!--link aName to aName--><g id="link_aName_aName"><path d="M7631.27,67.52 C7650.02,67.4 7666,67.9 7666,69 C7666,70.1 7650.02,70.6 7631.27,70.48 " fill="none" id="aName-aName" style="stroke:#181818;stroke-width:1.0;"/><text fill="#000000" font-family="sans-serif" font-size="13" lengthAdjust="spacing" textLength="284" x="7679" y="73.5669">demo_api_v1_OAuth2RestTemplate Provider</text><path d="M7624.1538,60.4943 A10,10 0 0 0 7624.2443 74.6362" fill="none" style="stroke:#181818;stroke-width:1.5;"/><ellipse cx="7631.27" cy="67.52" fill="#FFFFFF" rx="6" ry="6" style="stroke:#181818;stroke-width:1.5;"/></g><!--link aName to aName--><g id="link_aName_aName"><path d="M7631.33,67.28 C7735.85,65.12 7976,65.69 7976,69 C7976,72.31 7735.85,72.88 7631.33,70.72 " fill="none" id="aName-aName-1" style="stroke:#181818;stroke-width:1.0;"/><text fill="#000000" font-family="sans-serif" font-size="13" lengthAdjust="spacing" textLength="272" x="7989" y="73.5669">demo_product_ProductRepository Provider</text><path d="M7624.1143,60.3565 A10,10 0 0 0 7624.4065 74.4957" fill="none" style="stroke:#181818;stroke-width:1.5;"/><ellipse cx="7631.33" cy="67.28" fill="#FFFFFF" rx="6" ry="6" style="stroke:#181818;stroke-width:1.5;"/></g><!--link aName to aName--><g id="link_aName_aName"><path d="M7631.04,67.02 C7786.59,63.09 8274,63.75 8274,69 C8274,74.25 7786.59,74.91 7631.04,70.98 " fill="none" id="aName-aName-2" style="stroke:#181818;stroke-width:1.0;"/><text fill="#000000" font-family="sans-serif" font-size="13" lengthAdjust="spacing" textLength="292" x="8287" y="73.5669">demo_inventory_InventoryRepository Provider</text><path d="M7623.7926,60.1298 A10,10 0 0 0 7624.1498 74.2674" fill="none" style="stroke:#181818;stroke-width:1.5;"/><ellipse cx="7631.04" cy="67.02" fill="#FFFFFF" rx="6" ry="6" style="stroke:#181818;stroke-width:1.5;"/></g><!--link aName to aName--><g id="link_aName_aName"><path d="M7631.08,66.81 C7830.28,61.08 8592,61.81 8592,69 C8592,76.19 7830.28,76.92 7631.08,71.19 " fill="none" id="aName-aName-3" style="stroke:#181818;stroke-width:1.0;"/><text fill="#000000" font-family="sans-serif" font-size="13" lengthAdjust="spacing" textLength="277" x="8605" y="73.5669">demo_account_AccountRepository Provider</text><path d="M7623.8085,59.9452 A10,10 0 0 0 7624.2152 74.0815" fill="none" style="stroke:#181818;stroke-width:1.5;"/><ellipse cx="7631.08" cy="66.81" fill="#FFFFFF" rx="6" ry="6" style="stroke:#181818;stroke-width:1.5;"/></g><!--link aName to aName--><g id="link_aName_aName"><path d="M7631.17,66.61 C7866.45,59.08 8895,59.87 8895,69 C8895,78.13 7866.45,78.92 7631.17,71.39 " fill="none" id="aName-aName-4" style="stroke:#181818;stroke-width:1.0;"/><text fill="#000000" font-family="sans-serif" font-size="13" lengthAdjust="spacing" textLength="245" x="8908" y="73.5669">demo_v1_InventoryServiceV1 Provider</text><path d="M7623.8764,59.7687 A10,10 0 0 0 7624.3287 73.9036" fill="none" style="stroke:#181818;stroke-width:1.5;"/><ellipse cx="7631.17" cy="66.61" fill="#FFFFFF" rx="6" ry="6" style="stroke:#181818;stroke-width:1.5;"/></g><!--link aName to aName--><g id="link_aName_aName"><path d="M7631.27,66.41 C7896.04,57.07 9166,57.94 9166,69 C9166,80.06 7896.04,80.93 7631.27,71.59 " fill="none" id="aName-aName-5" style="stroke:#181818;stroke-width:1.0;"/><text fill="#000000" font-family="sans-serif" font-size="13" lengthAdjust="spacing" textLength="242" x="9179" y="73.5669">demo_api_v1_UserServiceV1 Provider</text><path d="M7623.954,59.5926 A10,10 0 0 0 7624.4526 73.726" fill="none" style="stroke:#181818;stroke-width:1.5;"/><ellipse cx="7631.27" cy="66.41" fill="#FFFFFF" rx="6" ry="6" style="stroke:#181818;stroke-width:1.5;"/></g><!--link aName to aName--><g id="link_aName_aName"><path d="M7631.13,66.24 C7922.45,55.07 9434,55.99 9434,69 C9434,82.01 7922.45,82.93 7631.13,71.76 " fill="none" id="aName-aName-6" style="stroke:#181818;stroke-width:1.0;"/><text fill="#000000" font-family="sans-serif" font-size="13" lengthAdjust="spacing" textLength="284" x="9447" y="73.5669">demo_api_v1_OAuth2RestTemplate Provider</text><path d="M7623.7932,59.445 A10,10 0 0 0 7624.335 73.5768" fill="none" style="stroke:#181818;stroke-width:1.5;"/><ellipse cx="7631.13" cy="66.24" fill="#FFFFFF" rx="6" ry="6" style="stroke:#181818;stroke-width:1.5;"/></g><!--link aName to aName--><g id="link_aName_aName"><path d="M7631,66.11 C7950.62,53.07 9744,54.03 9744,69 C9744,83.97 7950.62,84.93 7631,71.89 " fill="none" id="aName-aName-7" style="stroke:#181818;stroke-width:1.0;"/><text fill="#000000" font-family="sans-serif" font-size="13" lengthAdjust="spacing" textLength="232" x="9757" y="73.5669">demo_user_UserRepository Provider</text><path d="M7623.6466,59.3331 A10,10 0 0 0 7624.2231 73.4634" fill="none" style="stroke:#181818;stroke-width:1.5;"/><ellipse cx="7631" cy="66.11" fill="#FFFFFF" rx="6" ry="6" style="stroke:#181818;stroke-width:1.5;"/></g><!--link aName to aName--><g id="link_aName_aName"><path d="M7631.14,65.95 C7974.1,51.06 10002,52.08 10002,69 C10002,85.92 7974.1,86.94 7631.14,72.05 " fill="none" id="aName-aName-8" style="stroke:#181818;stroke-width:1.0;"/><text fill="#000000" font-family="sans-serif" font-size="13" lengthAdjust="spacing" textLength="264" x="10015" y="73.5669">demo_api_v1_AccountServiceV1 Provider</text><path d="M7623.7689,59.1923 A10,10 0 0 0 7624.3823 73.3211" fill="none" style="stroke:#181818;stroke-width:1.5;"/><ellipse cx="7631.14" cy="65.95" fill="#FFFFFF" rx="6" ry="6" style="stroke:#181818;stroke-width:1.5;"/></g><!--link aName to aName--><g id="link_aName_aName"><path d="M7631.05,65.83 C7998.07,49.06 10292,50.12 10292,69 C10292,87.88 7998.07,88.94 7631.05,72.17 " fill="none" id="aName-aName-9" style="stroke:#181818;stroke-width:1.0;"/><text fill="#000000" font-family="sans-serif" font-size="13" lengthAdjust="spacing" textLength="261" x="10305" y="73.5669">demo_api_v1_CatalogServiceV1 Provider</text><path d="M7623.6635,59.0891 A10,10 0 0 0 7624.3091 73.2165" fill="none" style="stroke:#181818;stroke-width:1.5;"/><ellipse cx="7631.05" cy="65.83" fill="#FFFFFF" rx="6" ry="6" style="stroke:#181818;stroke-width:1.5;"/></g><!--link aName to aName--><g id="link_aName_aName"><path d="M7631.08,65.72 C8021.24,47.06 10579,48.15 10579,69 C10579,89.85 8021.24,90.94 7631.08,72.28 " fill="none" id="aName-aName-10" style="stroke:#181818;stroke-width:1.0;"/><text fill="#000000" font-family="sans-serif" font-size="13" lengthAdjust="spacing" textLength="280" x="10592" y="73.5669">demo_order_OrderEventRepository Provider</text><path d="M7623.6792,58.9948 A10,10 0 0 0 7624.3548 73.1208" fill="none" style="stroke:#181818;stroke-width:1.5;"/><ellipse cx="7631.08" cy="65.72" fill="#FFFFFF" rx="6" ry="6" style="stroke:#181818;stroke-width:1.5;"/></g><!--link aName to aName--><g id="link_aName_aName"><path d="M7631.27,65.61 C8045.52,45.06 10885,46.19 10885,69 C10885,91.81 8045.52,92.94 7631.27,72.39 " fill="none" id="aName-aName-11" style="stroke:#181818;stroke-width:1.0;"/><text fill="#000000" font-family="sans-serif" font-size="13" lengthAdjust="spacing" textLength="197" x="10898" y="73.5669">demo_UserRepository Provider</text><path d="M7623.8573,58.898 A10,10 0 0 0 7624.558 73.0227" fill="none" style="stroke:#181818;stroke-width:1.5;"/><ellipse cx="7631.27" cy="65.61" fill="#FFFFFF" rx="6" ry="6" style="stroke:#181818;stroke-width:1.5;"/></g><!--link aName to aName--><g id="link_aName_aName"><path d="M7631.06,65.5 C8062.02,43.06 11108,44.23 11108,69 C11108,93.77 8062.02,94.94 7631.06,72.5 " fill="none" id="aName-aName-12" style="stroke:#181818;stroke-width:1.0;"/><text fill="#000000" font-family="sans-serif" font-size="13" lengthAdjust="spacing" textLength="172" x="11121" y="73.5669">demo_v1_Session Provider</text><path d="M7623.6308,58.8062 A10,10 0 0 0 7624.3662 72.9292" fill="none" style="stroke:#181818;stroke-width:1.5;"/><ellipse cx="7631.06" cy="65.5" fill="#FFFFFF" rx="6" ry="6" style="stroke:#181818;stroke-width:1.5;"/></g><!--link aName to aName--><g id="link_aName_aName"><path d="M7631.06,65.38 C8077.64,41.06 11306,42.26 11306,69 C11306,95.74 8077.64,96.94 7631.06,72.62 " fill="none" id="aName-aName-13" style="stroke:#181818;stroke-width:1.0;"/><text fill="#000000" font-family="sans-serif" font-size="13" lengthAdjust="spacing" textLength="177" x="11319" y="73.5669">demo_UserService Provider</text><path d="M7623.6149,58.7039 A10,10 0 0 0 7624.3839 72.8251" fill="none" style="stroke:#181818;stroke-width:1.5;"/><ellipse cx="7631.06" cy="65.38" fill="#FFFFFF" rx="6" ry="6" style="stroke:#181818;stroke-width:1.5;"/></g><!--link aName to aName--><g id="link_aName_aName"><path d="M7631.2,65.26 C8094.01,39.06 11509,40.3 11509,69 C11509,97.7 8094.01,98.94 7631.2,72.74 " fill="none" id="aName-aName-14" style="stroke:#181818;stroke-width:1.0;"/><text fill="#000000" font-family="sans-serif" font-size="13" lengthAdjust="spacing" textLength="264" x="11522" y="73.5669">demo_login_ClientDetailsService Provider</text><path d="M7623.7406,58.5999 A10,10 0 0 0 7624.5399 72.7194" fill="none" style="stroke:#181818;stroke-width:1.5;"/><ellipse cx="7631.2" cy="65.26" fill="#FFFFFF" rx="6" ry="6" style="stroke:#181818;stroke-width:1.5;"/></g><!--link aName to aName--><g id="link_aName_aName"><path d="M7631.19,65.18 C8114.34,37.06 11799,38.33 11799,69 C11799,99.67 8114.34,100.94 7631.19,72.82 " fill="none" id="aName-aName-15" style="stroke:#181818;stroke-width:1.0;"/><text fill="#000000" font-family="sans-serif" font-size="13" lengthAdjust="spacing" textLength="384" x="11812" y="73.5669">demo_login_HttpSessionSecurityContextRepository Provider</text><path d="M7623.72,58.5317 A10,10 0 0 0 7624.5417 72.65" fill="none" style="stroke:#181818;stroke-width:1.5;"/><ellipse cx="7631.19" cy="65.18" fill="#FFFFFF" rx="6" ry="6" style="stroke:#181818;stroke-width:1.5;"/></g><!--link aName to aName--><g id="link_aName_aName"><path d="M7631.04,65.15 C8139.79,35.05 12209,36.34 12209,69 C12209,101.66 8139.79,102.95 7631.04,72.85 " fill="none" id="aName-aName-16" style="stroke:#181818;stroke-width:1.0;"/><text fill="#000000" font-family="sans-serif" font-size="13" lengthAdjust="spacing" textLength="236" x="12222" y="73.5669">demo_api_v1_RestTemplate Provider</text><path d="M7623.5636,58.5089 A10,10 0 0 0 7624.3989 72.6264" fill="none" style="stroke:#181818;stroke-width:1.5;"/><ellipse cx="7631.04" cy="65.15" fill="#FFFFFF" rx="6" ry="6" style="stroke:#181818;stroke-width:1.5;"/></g><!--link aName to aName--><g id="link_aName_aName"><path d="M7631.06,65.07 C8157.63,33.05 12471,34.36 12471,69 C12471,103.64 8157.63,104.95 7631.06,72.93 " fill="none" id="aName-aName-17" style="stroke:#181818;stroke-width:1.0;"/><text fill="#000000" font-family="sans-serif" font-size="13" lengthAdjust="spacing" textLength="262" x="12484" y="73.5669">demo_cart_CartEventRepository Provider</text><path d="M7623.5728,58.4412 A10,10 0 0 0 7624.4312 72.5572" fill="none" style="stroke:#181818;stroke-width:1.5;"/><ellipse cx="7631.06" cy="65.07" fill="#FFFFFF" rx="6" ry="6" style="stroke:#181818;stroke-width:1.5;"/></g><!--link aName to aName--><g id="link_aName_aName"><path d="M7631.4,64.98 C8178.21,31.05 12759,32.39 12759,69 C12759,105.61 8178.21,106.95 7631.4,73.02 " fill="none" id="aName-aName-18" style="stroke:#181818;stroke-width:1.0;"/><text fill="#000000" font-family="sans-serif" font-size="13" lengthAdjust="spacing" textLength="244" x="12772" y="73.5669">demo_order_OrderRepository Provider</text><path d="M7623.9046,58.3604 A10,10 0 0 0 7624.7804 72.4754" fill="none" style="stroke:#181818;stroke-width:1.5;"/><ellipse cx="7631.4" cy="64.98" fill="#FFFFFF" rx="6" ry="6" style="stroke:#181818;stroke-width:1.5;"/></g><!--link aName to aName--><g id="link_aName_aName"><path d="M7631.05,64.93 C8193.78,29.05 13029,30.41 13029,69 C13029,107.59 8193.78,108.95 7631.05,73.07 " fill="none" id="aName-aName-19" style="stroke:#181818;stroke-width:1.0;"/><text fill="#000000" font-family="sans-serif" font-size="13" lengthAdjust="spacing" textLength="138" x="13042" y="73.5669">user-service/ Provider</text><path d="M7623.5433,58.3232 A10,10 0 0 0 7624.4432 72.4367" fill="none" style="stroke:#181818;stroke-width:1.5;"/><ellipse cx="7631.05" cy="64.93" fill="#FFFFFF" rx="6" ry="6" style="stroke:#181818;stroke-width:1.5;"/></g><!--link aName to aName--><g id="link_aName_aName"><path d="M7631.04,64.84 C8205.89,27.05 13193,28.44 13193,69 C13193,109.56 8205.89,110.95 7631.04,73.16 " fill="none" id="aName-aName-20" style="stroke:#181818;stroke-width:1.0;"/><text fill="#000000" font-family="sans-serif" font-size="13" lengthAdjust="spacing" textLength="293" x="13206" y="73.5669">demo_catalog_CatalogInfoRepository Provider</text><path d="M7623.5203,58.248 A10,10 0 0 0 7624.448 72.3597" fill="none" style="stroke:#181818;stroke-width:1.5;"/><ellipse cx="7631.04" cy="64.84" fill="#FFFFFF" rx="6" ry="6" style="stroke:#181818;stroke-width:1.5;"/></g><!--link aName to aName--><g id="link_aName_aName"><path d="M7631.42,64.76 C8227.54,25.05 13512,26.46 13512,69 C13512,111.54 8227.54,112.95 7631.42,73.24 " fill="none" id="aName-aName-21" style="stroke:#181818;stroke-width:1.0;"/><text fill="#000000" font-family="sans-serif" font-size="13" lengthAdjust="spacing" textLength="248" x="13525" y="73.5669">demo_api_v1_OrderServiceV1 Provider</text><path d="M7623.8946,58.1746 A10,10 0 0 0 7624.8346 72.2854" fill="none" style="stroke:#181818;stroke-width:1.5;"/><ellipse cx="7631.42" cy="64.76" fill="#FFFFFF" rx="6" ry="6" style="stroke:#181818;stroke-width:1.5;"/></g><!--link aName to aName--><g id="link_aName_aName"><path d="M7631.06,64.73 C8242.36,23.05 13786,24.47 13786,69 C13786,113.53 8242.36,114.95 7631.06,73.27 " fill="none" id="aName-aName-22" style="stroke:#181818;stroke-width:1.0;"/><text fill="#000000" font-family="sans-serif" font-size="13" lengthAdjust="spacing" textLength="284" x="13799" y="73.5669">demo_api_v1_OAuth2RestTemplate Provider</text><path d="M7623.5243,58.1563 A10,10 0 0 0 7624.4863 72.2657" fill="none" style="stroke:#181818;stroke-width:1.5;"/><ellipse cx="7631.06" cy="64.73" fill="#FFFFFF" rx="6" ry="6" style="stroke:#181818;stroke-width:1.5;"/></g><!--link aName to aName--><g id="link_aName_aName"><path d="M7631.12,64.67 C8261.05,21.05 14096,22.49 14096,69 C14096,115.51 8261.05,116.95 7631.12,73.33 " fill="none" id="aName-aName-23" style="stroke:#181818;stroke-width:1.0;"/><text fill="#000000" font-family="sans-serif" font-size="13" lengthAdjust="spacing" textLength="262" x="14109" y="73.5669">demo_invoice_InvoiceRepository Provider</text><path d="M7623.5774,58.1043 A10,10 0 0 0 7624.5543 72.2126" fill="none" style="stroke:#181818;stroke-width:1.5;"/><ellipse cx="7631.12" cy="64.67" fill="#FFFFFF" rx="6" ry="6" style="stroke:#181818;stroke-width:1.5;"/></g><!--link aName to aName--><g id="link_aName_aName"><path d="M7631.47,64.6 C8280.37,19.05 14384,20.51 14384,69 C14384,117.49 8280.37,118.95 7631.47,73.4 " fill="none" id="aName-aName-24" style="stroke:#181818;stroke-width:1.0;"/><text fill="#000000" font-family="sans-serif" font-size="13" lengthAdjust="spacing" textLength="286" x="14397" y="73.5669">demo_login_AuthenticationManager Provider</text><path d="M7623.9211,58.0414 A10,10 0 0 0 7624.9114 72.1489" fill="none" style="stroke:#181818;stroke-width:1.5;"/><ellipse cx="7631.47" cy="64.6" fill="#FFFFFF" rx="6" ry="6" style="stroke:#181818;stroke-width:1.5;"/></g><!--link aName to aName--><g id="link_aName_aName"><path d="M7631.28,64.56 C8297.08,17.04 14696,18.52 14696,69 C14696,119.48 8297.08,120.96 7631.28,73.44 " fill="none" id="aName-aName-25" style="stroke:#181818;stroke-width:1.0;"/><text fill="#000000" font-family="sans-serif" font-size="13" lengthAdjust="spacing" textLength="244" x="14709" y="73.5669">demo_order_OrderRepository Provider</text><path d="M7623.7235,58.0103 A10,10 0 0 0 7624.7303 72.1165" fill="none" style="stroke:#181818;stroke-width:1.5;"/><ellipse cx="7631.28" cy="64.56" fill="#FFFFFF" rx="6" ry="6" style="stroke:#181818;stroke-width:1.5;"/></g><!--link aName to aName--><g id="link_aName_aName"><path d="M7631.12,64.52 C8311.96,15.04 14966,16.54 14966,69 C14966,121.46 8311.96,122.96 7631.12,73.48 " fill="none" id="aName-aName-26" style="stroke:#181818;stroke-width:1.0;"/><text fill="#000000" font-family="sans-serif" font-size="13" lengthAdjust="spacing" textLength="138" x="14979" y="73.5669">user-service/ Provider</text><path d="M7623.555,57.9801 A10,10 0 0 0 7624.5801 72.085" fill="none" style="stroke:#181818;stroke-width:1.5;"/><ellipse cx="7631.12" cy="64.52" fill="#FFFFFF" rx="6" ry="6" style="stroke:#181818;stroke-width:1.5;"/></g><!--link aName to aName--><g id="link_aName_aName"><path d="M7631.14,64.45 C8323.63,13.04 15130,14.56 15130,69 C15130,123.44 8323.63,124.96 7631.14,73.55 " fill="none" id="aName-aName-27" style="stroke:#181818;stroke-width:1.0;"/><text fill="#000000" font-family="sans-serif" font-size="13" lengthAdjust="spacing" textLength="236" x="15143" y="73.5669">demo_api_v1_RestTemplate Provider</text><path d="M7623.5648,57.9218 A10,10 0 0 0 7624.6118 72.0252" fill="none" style="stroke:#181818;stroke-width:1.5;"/><ellipse cx="7631.14" cy="64.45" fill="#FFFFFF" rx="6" ry="6" style="stroke:#181818;stroke-width:1.5;"/></g><!--link aName to aName--><g id="link_aName_aName"><path d="M7631.05,64.41 C8338.42,11.04 15392,12.57 15392,69 C15392,125.43 8338.42,126.96 7631.05,73.59 " fill="none" id="aName-aName-28" style="stroke:#181818;stroke-width:1.0;"/><text fill="#000000" font-family="sans-serif" font-size="13" lengthAdjust="spacing" textLength="299" x="15405" y="73.5669">demo_api_v1_ShoppingCartServiceV1 Provider</text><path d="M7623.467,57.891 A10,10 0 0 0 7624.531 71.993" fill="none" style="stroke:#181818;stroke-width:1.5;"/><ellipse cx="7631.05" cy="64.41" fill="#FFFFFF" rx="6" ry="6" style="stroke:#181818;stroke-width:1.5;"/></g><!--SRC=[pLbDRzf05BppAoprqelRsEQZwOtII8sKX2YqlI1aRTOFM6Mzw-wk4RJgV-ykXYY7gB8jTTGB1iJil3SpxzaIzaceYXbMHckndmd39TsmHvBp7Hd9gageJUHCJGEb2uhk9UEqrR8WawTfz6kmP7Uif5MqN3uzCkkO4h6jZ0V5NEgwY6b7oiLMruQ7BsdFoahIEtkmZiet-Gzv4zyQLrtHM4xMqyjFnS-xxMQr6ln-XM-CvHk2-yl0_OqcMBu4dHTmN18ittW8ZYSwBc2-5AqdE2yNOFl0xKt0upu6R-ji15vdu76u1Di77eVq0tWSi7JWxePezy1oPk3-Hc0-y6uPWdTd0kPBqNmPM4ymNmf-Tad0DxyClAuJzBCIM4zmNC3J03Ol-RStX_F9yTkBE3f_-1WLLEgSLIBV9VbyMhjj-a3MVIL_B7E-GADtmbVtLtXbT55pbzytrmUgj1LEcqCxk52XAV_p_FhyhkiHZ7DTAvTFcsjNkE_zcNf1PYSuVKzQCZVIVRDa-Y7xYbvxnYDjPwqQtfDK_OgUCSUatdG4QnDoFW-lLq7jhfNtwTONko1hXLRjEKvjjGDu6OJAPrBuXZwJOqBQ7lWlpbMdEXV4QoFSOQQLexthQM_tG75cd3VMk5xUlF2s0pI4EBQDNE_RbdcCtZc2rsgjUqfqB1Oxj7xLQSyMjasuTYsyoKhWzWu9huIFoorJR4FcFtEfTmfFmCLM7_-22NbynQ8_]--></g></svg>