<?xml version="1.0" encoding="us-ascii" standalone="no"?><svg xmlns="http://www.w3.org/2000/svg" xmlns:xlink="http://www.w3.org/1999/xlink" contentStyleType="text/css" height="192px" preserveAspectRatio="none" style="width:3471px;height:192px;background:#FFFFFF;" version="1.1" viewBox="0 0 3471 192" width="3471px" zoomAndPan="magnify"><defs/><g><!--cluster nodeExternalTanController--><g id="cluster_nodeExternalTanController"><polygon fill="none" points="16,16,26,6,558,6,558,165,548,175,16,175,16,16" style="stroke:#181818;stroke-width:1.0;"/><line style="stroke:#181818;stroke-width:1.0;" x1="548" x2="558" y1="16" y2="6"/><line style="stroke:#181818;stroke-width:1.0;" x1="16" x2="548" y1="16" y2="16"/><line style="stroke:#181818;stroke-width:1.0;" x1="548" x2="548" y1="16" y2="175"/><text fill="#000000" font-family="sans-serif" font-size="14" font-weight="bold" lengthAdjust="spacing" textLength="212" x="177" y="31.9951">nodeExternalTanController</text></g><!--cluster ExternalTanController--><g id="cluster_ExternalTanController"><rect fill="none" height="97" rx="2.5" ry="2.5" style="stroke:#181818;stroke-width:1.0;" width="494" x="40" y="54"/><rect fill="none" height="10" style="stroke:#181818;stroke-width:1.0;" width="15" x="514" y="59"/><rect fill="none" height="2" style="stroke:#181818;stroke-width:1.0;" width="4" x="512" y="61"/><rect fill="none" height="2" style="stroke:#181818;stroke-width:1.0;" width="4" x="512" y="65"/><text fill="#000000" font-family="sans-serif" font-size="14" font-weight="bold" lengthAdjust="spacing" textLength="172" x="201" y="79.9951">ExternalTanController</text></g><!--cluster nodeExternalTestStateController--><g id="cluster_nodeExternalTestStateController"><polygon fill="none" points="582,16,592,6,1164,6,1164,165,1154,175,582,175,582,16" style="stroke:#181818;stroke-width:1.0;"/><line style="stroke:#181818;stroke-width:1.0;" x1="1154" x2="1164" y1="16" y2="6"/><line style="stroke:#181818;stroke-width:1.0;" x1="582" x2="1154" y1="16" y2="16"/><line style="stroke:#181818;stroke-width:1.0;" x1="1154" x2="1154" y1="16" y2="175"/><text fill="#000000" font-family="sans-serif" font-size="14" font-weight="bold" lengthAdjust="spacing" textLength="259" x="739.5" y="31.9951">nodeExternalTestStateController</text></g><!--cluster ExternalTestStateController--><g id="cluster_ExternalTestStateController"><rect fill="none" height="97" rx="2.5" ry="2.5" style="stroke:#181818;stroke-width:1.0;" width="534" x="606" y="54"/><rect fill="none" height="10" style="stroke:#181818;stroke-width:1.0;" width="15" x="1120" y="59"/><rect fill="none" height="2" style="stroke:#181818;stroke-width:1.0;" width="4" x="1118" y="61"/><rect fill="none" height="2" style="stroke:#181818;stroke-width:1.0;" width="4" x="1118" y="65"/><text fill="#000000" font-family="sans-serif" font-size="14" font-weight="bold" lengthAdjust="spacing" textLength="219" x="763.5" y="79.9951">ExternalTestStateController</text></g><!--cluster nodeExternalTokenController--><g id="cluster_nodeExternalTokenController"><polygon fill="none" points="1188,16,1198,6,1748,6,1748,165,1738,175,1188,175,1188,16" style="stroke:#181818;stroke-width:1.0;"/><line style="stroke:#181818;stroke-width:1.0;" x1="1738" x2="1748" y1="16" y2="6"/><line style="stroke:#181818;stroke-width:1.0;" x1="1188" x2="1738" y1="16" y2="16"/><line style="stroke:#181818;stroke-width:1.0;" x1="1738" x2="1738" y1="16" y2="175"/><text fill="#000000" font-family="sans-serif" font-size="14" font-weight="bold" lengthAdjust="spacing" textLength="232" x="1348" y="31.9951">nodeExternalTokenController</text></g><!--cluster ExternalTokenController--><g id="cluster_ExternalTokenController"><rect fill="none" height="97" rx="2.5" ry="2.5" style="stroke:#181818;stroke-width:1.0;" width="512" x="1212" y="54"/><rect fill="none" height="10" style="stroke:#181818;stroke-width:1.0;" width="15" x="1704" y="59"/><rect fill="none" height="2" style="stroke:#181818;stroke-width:1.0;" width="4" x="1702" y="61"/><rect fill="none" height="2" style="stroke:#181818;stroke-width:1.0;" width="4" x="1702" y="65"/><text fill="#000000" font-family="sans-serif" font-size="14" font-weight="bold" lengthAdjust="spacing" textLength="192" x="1372" y="79.9951">ExternalTokenController</text></g><!--cluster nodeFakeRequestService--><g id="cluster_nodeFakeRequestService"><polygon fill="none" points="1772,16,1782,6,2292,6,2292,165,2282,175,1772,175,1772,16" style="stroke:#181818;stroke-width:1.0;"/><line style="stroke:#181818;stroke-width:1.0;" x1="2282" x2="2292" y1="16" y2="6"/><line style="stroke:#181818;stroke-width:1.0;" x1="1772" x2="2282" y1="16" y2="16"/><line style="stroke:#181818;stroke-width:1.0;" x1="2282" x2="2282" y1="16" y2="175"/><text fill="#000000" font-family="sans-serif" font-size="14" font-weight="bold" lengthAdjust="spacing" textLength="201" x="1927.5" y="31.9951">nodeFakeRequestService</text></g><!--cluster FakeRequestService--><g id="cluster_FakeRequestService"><rect fill="none" height="97" rx="2.5" ry="2.5" style="stroke:#181818;stroke-width:1.0;" width="472" x="1796" y="54"/><rect fill="none" height="10" style="stroke:#181818;stroke-width:1.0;" width="15" x="2248" y="59"/><rect fill="none" height="2" style="stroke:#181818;stroke-width:1.0;" width="4" x="2246" y="61"/><rect fill="none" height="2" style="stroke:#181818;stroke-width:1.0;" width="4" x="2246" y="65"/><text fill="#000000" font-family="sans-serif" font-size="14" font-weight="bold" lengthAdjust="spacing" textLength="161" x="1951.5" y="79.9951">FakeRequestService</text></g><!--cluster nodeInternalTanController--><g id="cluster_nodeInternalTanController"><polygon fill="none" points="2316,16,2326,6,2852,6,2852,165,2842,175,2316,175,2316,16" style="stroke:#181818;stroke-width:1.0;"/><line style="stroke:#181818;stroke-width:1.0;" x1="2842" x2="2852" y1="16" y2="6"/><line style="stroke:#181818;stroke-width:1.0;" x1="2316" x2="2842" y1="16" y2="16"/><line style="stroke:#181818;stroke-width:1.0;" x1="2842" x2="2842" y1="16" y2="175"/><text fill="#000000" font-family="sans-serif" font-size="14" font-weight="bold" lengthAdjust="spacing" textLength="208" x="2476" y="31.9951">nodeInternalTanController</text></g><!--cluster InternalTanController--><g id="cluster_InternalTanController"><rect fill="none" height="97" rx="2.5" ry="2.5" style="stroke:#181818;stroke-width:1.0;" width="488" x="2340" y="54"/><rect fill="none" height="10" style="stroke:#181818;stroke-width:1.0;" width="15" x="2808" y="59"/><rect fill="none" height="2" style="stroke:#181818;stroke-width:1.0;" width="4" x="2806" y="61"/><rect fill="none" height="2" style="stroke:#181818;stroke-width:1.0;" width="4" x="2806" y="65"/><text fill="#000000" font-family="sans-serif" font-size="14" font-weight="bold" lengthAdjust="spacing" textLength="168" x="2500" y="79.9951">InternalTanController</text></g><!--cluster nodeInternalTestStateController--><g id="cluster_nodeInternalTestStateController"><polygon fill="none" points="2876,16,2886,6,3454,6,3454,165,3444,175,2876,175,2876,16" style="stroke:#181818;stroke-width:1.0;"/><line style="stroke:#181818;stroke-width:1.0;" x1="3444" x2="3454" y1="16" y2="6"/><line style="stroke:#181818;stroke-width:1.0;" x1="2876" x2="3444" y1="16" y2="16"/><line style="stroke:#181818;stroke-width:1.0;" x1="3444" x2="3444" y1="16" y2="175"/><text fill="#000000" font-family="sans-serif" font-size="14" font-weight="bold" lengthAdjust="spacing" textLength="255" x="3033.5" y="31.9951">nodeInternalTestStateController</text></g><!--cluster InternalTestStateController--><g id="cluster_InternalTestStateController"><rect fill="none" height="97" rx="2.5" ry="2.5" style="stroke:#181818;stroke-width:1.0;" width="530" x="2900" y="54"/><rect fill="none" height="10" style="stroke:#181818;stroke-width:1.0;" width="15" x="3410" y="59"/><rect fill="none" height="2" style="stroke:#181818;stroke-width:1.0;" width="4" x="3408" y="61"/><rect fill="none" height="2" style="stroke:#181818;stroke-width:1.0;" width="4" x="3408" y="65"/><text fill="#000000" font-family="sans-serif" font-size="14" font-weight="bold" lengthAdjust="spacing" textLength="215" x="3057.5" y="79.9951">InternalTestStateController</text></g><!--entity app_coronawarn_verification_controller_ExternalTanController--><g id="elem_app_coronawarn_verification_controller_ExternalTanController"><a href="corona-warn-app-cwa-verification-server.system#_cWEsksApEe6Jo-U8etpBOw" target="_top" title="corona-warn-app-cwa-verification-server.system#_cWEsksApEe6Jo-U8etpBOw" xlink:actuate="onRequest" xlink:href="corona-warn-app-cwa-verification-server.system#_cWEsksApEe6Jo-U8etpBOw" xlink:show="new" xlink:title="corona-warn-app-cwa-verification-server.system#_cWEsksApEe6Jo-U8etpBOw" xlink:type="simple"><rect fill="#F1F1F1" height="46.2969" rx="2.5" ry="2.5" style="stroke:#181818;stroke-width:0.5;" width="461" x="56.5" y="89"/><rect fill="#F1F1F1" height="10" style="stroke:#181818;stroke-width:0.5;" width="15" x="497.5" y="94"/><rect fill="#F1F1F1" height="2" style="stroke:#181818;stroke-width:0.5;" width="4" x="495.5" y="96"/><rect fill="#F1F1F1" height="2" style="stroke:#181818;stroke-width:0.5;" width="4" x="495.5" y="100"/><text fill="#000000" font-family="sans-serif" font-size="14" lengthAdjust="spacing" textLength="421" x="71.5" y="121.9951">app_coronawarn_verification_controller_ExternalTanController</text></a></g><!--entity app_coronawarn_verification_controller_ExternalTestStateController--><g id="elem_app_coronawarn_verification_controller_ExternalTestStateController"><a href="corona-warn-app-cwa-verification-server.system#_cWEsksApEe6Jo-U8etpBOw" target="_top" title="corona-warn-app-cwa-verification-server.system#_cWEsksApEe6Jo-U8etpBOw" xlink:actuate="onRequest" xlink:href="corona-warn-app-cwa-verification-server.system#_cWEsksApEe6Jo-U8etpBOw" xlink:show="new" xlink:title="corona-warn-app-cwa-verification-server.system#_cWEsksApEe6Jo-U8etpBOw" xlink:type="simple"><rect fill="#F1F1F1" height="46.2969" rx="2.5" ry="2.5" style="stroke:#181818;stroke-width:0.5;" width="502" x="622" y="89"/><rect fill="#F1F1F1" height="10" style="stroke:#181818;stroke-width:0.5;" width="15" x="1104" y="94"/><rect fill="#F1F1F1" height="2" style="stroke:#181818;stroke-width:0.5;" width="4" x="1102" y="96"/><rect fill="#F1F1F1" height="2" style="stroke:#181818;stroke-width:0.5;" width="4" x="1102" y="100"/><text fill="#000000" font-family="sans-serif" font-size="14" lengthAdjust="spacing" textLength="462" x="637" y="121.9951">app_coronawarn_verification_controller_ExternalTestStateController</text></a></g><!--entity app_coronawarn_verification_controller_ExternalTokenController--><g id="elem_app_coronawarn_verification_controller_ExternalTokenController"><a href="corona-warn-app-cwa-verification-server.system#_cWEsksApEe6Jo-U8etpBOw" target="_top" title="corona-warn-app-cwa-verification-server.system#_cWEsksApEe6Jo-U8etpBOw" xlink:actuate="onRequest" xlink:href="corona-warn-app-cwa-verification-server.system#_cWEsksApEe6Jo-U8etpBOw" xlink:show="new" xlink:title="corona-warn-app-cwa-verification-server.system#_cWEsksApEe6Jo-U8etpBOw" xlink:type="simple"><rect fill="#F1F1F1" height="46.2969" rx="2.5" ry="2.5" style="stroke:#181818;stroke-width:0.5;" width="479" x="1228.5" y="89"/><rect fill="#F1F1F1" height="10" style="stroke:#181818;stroke-width:0.5;" width="15" x="1687.5" y="94"/><rect fill="#F1F1F1" height="2" style="stroke:#181818;stroke-width:0.5;" width="4" x="1685.5" y="96"/><rect fill="#F1F1F1" height="2" style="stroke:#181818;stroke-width:0.5;" width="4" x="1685.5" y="100"/><text fill="#000000" font-family="sans-serif" font-size="14" lengthAdjust="spacing" textLength="439" x="1243.5" y="121.9951">app_coronawarn_verification_controller_ExternalTokenController</text></a></g><!--entity app_coronawarn_verification_service_FakeRequestService--><g id="elem_app_coronawarn_verification_service_FakeRequestService"><a href="corona-warn-app-cwa-verification-server.system#_cWEsksApEe6Jo-U8etpBOw" target="_top" title="corona-warn-app-cwa-verification-server.system#_cWEsksApEe6Jo-U8etpBOw" xlink:actuate="onRequest" xlink:href="corona-warn-app-cwa-verification-server.system#_cWEsksApEe6Jo-U8etpBOw" xlink:show="new" xlink:title="corona-warn-app-cwa-verification-server.system#_cWEsksApEe6Jo-U8etpBOw" xlink:type="simple"><rect fill="#F1F1F1" height="46.2969" rx="2.5" ry="2.5" style="stroke:#181818;stroke-width:0.5;" width="439" x="1812.5" y="89"/><rect fill="#F1F1F1" height="10" style="stroke:#181818;stroke-width:0.5;" width="15" x="2231.5" y="94"/><rect fill="#F1F1F1" height="2" style="stroke:#181818;stroke-width:0.5;" width="4" x="2229.5" y="96"/><rect fill="#F1F1F1" height="2" style="stroke:#181818;stroke-width:0.5;" width="4" x="2229.5" y="100"/><text fill="#000000" font-family="sans-serif" font-size="14" lengthAdjust="spacing" textLength="399" x="1827.5" y="121.9951">app_coronawarn_verification_service_FakeRequestService</text></a></g><!--entity app_coronawarn_verification_controller_InternalTanController--><g id="elem_app_coronawarn_verification_controller_InternalTanController"><a href="corona-warn-app-cwa-verification-server.system#_cWEsksApEe6Jo-U8etpBOw" target="_top" title="corona-warn-app-cwa-verification-server.system#_cWEsksApEe6Jo-U8etpBOw" xlink:actuate="onRequest" xlink:href="corona-warn-app-cwa-verification-server.system#_cWEsksApEe6Jo-U8etpBOw" xlink:show="new" xlink:title="corona-warn-app-cwa-verification-server.system#_cWEsksApEe6Jo-U8etpBOw" xlink:type="simple"><rect fill="#F1F1F1" height="46.2969" rx="2.5" ry="2.5" style="stroke:#181818;stroke-width:0.5;" width="457" x="2355.5" y="89"/><rect fill="#F1F1F1" height="10" style="stroke:#181818;stroke-width:0.5;" width="15" x="2792.5" y="94"/><rect fill="#F1F1F1" height="2" style="stroke:#181818;stroke-width:0.5;" width="4" x="2790.5" y="96"/><rect fill="#F1F1F1" height="2" style="stroke:#181818;stroke-width:0.5;" width="4" x="2790.5" y="100"/><text fill="#000000" font-family="sans-serif" font-size="14" lengthAdjust="spacing" textLength="417" x="2370.5" y="121.9951">app_coronawarn_verification_controller_InternalTanController</text></a></g><!--entity app_coronawarn_verification_controller_InternalTestStateController--><g id="elem_app_coronawarn_verification_controller_InternalTestStateController"><a href="corona-warn-app-cwa-verification-server.system#_cWEsksApEe6Jo-U8etpBOw" target="_top" title="corona-warn-app-cwa-verification-server.system#_cWEsksApEe6Jo-U8etpBOw" xlink:actuate="onRequest" xlink:href="corona-warn-app-cwa-verification-server.system#_cWEsksApEe6Jo-U8etpBOw" xlink:show="new" xlink:title="corona-warn-app-cwa-verification-server.system#_cWEsksApEe6Jo-U8etpBOw" xlink:type="simple"><rect fill="#F1F1F1" height="46.2969" rx="2.5" ry="2.5" style="stroke:#181818;stroke-width:0.5;" width="498" x="2916" y="89"/><rect fill="#F1F1F1" height="10" style="stroke:#181818;stroke-width:0.5;" width="15" x="3394" y="94"/><rect fill="#F1F1F1" height="2" style="stroke:#181818;stroke-width:0.5;" width="4" x="3392" y="96"/><rect fill="#F1F1F1" height="2" style="stroke:#181818;stroke-width:0.5;" width="4" x="3392" y="100"/><text fill="#000000" font-family="sans-serif" font-size="14" lengthAdjust="spacing" textLength="458" x="2931" y="121.9951">app_coronawarn_verification_controller_InternalTestStateController</text></a></g><!--SRC=[lPDVIyCm5CNV-oa2FiS77yJNEIeemi0_-51AkSQx4PhUcoMftH2_kod3uMYtseULG239EIVvvN9zgSc2WqeizMQkdJBu2Eze5f_e35YhQIM2gp7nUw7YoZ8XXUUmDIZgobmbn1yesYdT17G4vWLepXGS6uDEV2LxapYcoE9jXMB710quAk83z58h29efxlygYrv_Bh9ivvMjMSOigHgGVqEaHnVNbtxh0rONXNfBVUbdDiNh1vQlDnZixQB9y-GxZYuG-WWC0OUmUdMZuRef4o1oYODLwsX6enqcd0_h3afymdNTVcNqQuK7HBt79s7yJbPqdUU3kAUXVZgc-6zTUlqJ00tqqsdTQBW9-ka7]--></g></svg>