<?xml version="1.0" encoding="us-ascii" standalone="no"?><svg xmlns="http://www.w3.org/2000/svg" xmlns:xlink="http://www.w3.org/1999/xlink" contentStyleType="text/css" height="125px" preserveAspectRatio="none" style="width:2142px;height:125px;background:#FFFFFF;" version="1.1" viewBox="0 0 2142 125" width="2142px" zoomAndPan="magnify"><defs/><g><!--cluster Placeholder_1--><g id="cluster_Placeholder_1"><polygon fill="none" points="1939,16,1949,6,2125,6,2125,98,2115,108,1939,108,1939,16" style="stroke:#181818;stroke-width:1.0;"/><line style="stroke:#181818;stroke-width:1.0;" x1="2115" x2="2125" y1="16" y2="6"/><line style="stroke:#181818;stroke-width:1.0;" x1="1939" x2="2115" y1="16" y2="16"/><line style="stroke:#181818;stroke-width:1.0;" x1="2115" x2="2115" y1="16" y2="108"/><text fill="#000000" font-family="sans-serif" font-size="14" font-weight="bold" lengthAdjust="spacing" textLength="110" x="1973" y="31.9951">Placeholder_1</text></g><!--entity aName--><g id="elem_aName"><a href="corona-warn-app-cwa-verification-server.system#_qJ7lkbtpEe6rpoenAd3otQ" target="_top" title="corona-warn-app-cwa-verification-server.system#_qJ7lkbtpEe6rpoenAd3otQ" xlink:actuate="onRequest" xlink:href="corona-warn-app-cwa-verification-server.system#_qJ7lkbtpEe6rpoenAd3otQ" xlink:show="new" xlink:title="corona-warn-app-cwa-verification-server.system#_qJ7lkbtpEe6rpoenAd3otQ" xlink:type="simple"><rect fill="#F1F1F1" height="46.2969" rx="2.5" ry="2.5" style="stroke:#181818;stroke-width:0.5;" width="88" x="1956" y="46"/><rect fill="#F1F1F1" height="10" style="stroke:#181818;stroke-width:0.5;" width="15" x="2024" y="51"/><rect fill="#F1F1F1" height="2" style="stroke:#181818;stroke-width:0.5;" width="4" x="2022" y="53"/><rect fill="#F1F1F1" height="2" style="stroke:#181818;stroke-width:0.5;" width="4" x="2022" y="57"/><text fill="#000000" font-family="sans-serif" font-size="14" lengthAdjust="spacing" textLength="48" x="1971" y="78.9951">aName</text></a></g><!--entity Placeholder_16--><g id="elem_Placeholder_16"><polygon fill="#F1F1F1" points="16,56,26,46,162,46,162,82.2969,152,92.2969,16,92.2969,16,56" style="stroke:#181818;stroke-width:0.5;"/><line style="stroke:#181818;stroke-width:0.5;" x1="152" x2="162" y1="56" y2="46"/><line style="stroke:#181818;stroke-width:0.5;" x1="16" x2="152" y1="56" y2="56"/><line style="stroke:#181818;stroke-width:0.5;" x1="152" x2="152" y1="56" y2="92.2969"/><text fill="#000000" font-family="sans-serif" font-size="14" lengthAdjust="spacing" textLength="106" x="31" y="78.9951">Placeholder_16</text></g><!--entity Placeholder_15--><g id="elem_Placeholder_15"><polygon fill="#F1F1F1" points="197,56,207,46,343,46,343,82.2969,333,92.2969,197,92.2969,197,56" style="stroke:#181818;stroke-width:0.5;"/><line style="stroke:#181818;stroke-width:0.5;" x1="333" x2="343" y1="56" y2="46"/><line style="stroke:#181818;stroke-width:0.5;" x1="197" x2="333" y1="56" y2="56"/><line style="stroke:#181818;stroke-width:0.5;" x1="333" x2="333" y1="56" y2="92.2969"/><text fill="#000000" font-family="sans-serif" font-size="14" lengthAdjust="spacing" textLength="106" x="212" y="78.9951">Placeholder_15</text></g><!--entity Placeholder_14--><g id="elem_Placeholder_14"><polygon fill="#F1F1F1" points="378,56,388,46,524,46,524,82.2969,514,92.2969,378,92.2969,378,56" style="stroke:#181818;stroke-width:0.5;"/><line style="stroke:#181818;stroke-width:0.5;" x1="514" x2="524" y1="56" y2="46"/><line style="stroke:#181818;stroke-width:0.5;" x1="378" x2="514" y1="56" y2="56"/><line style="stroke:#181818;stroke-width:0.5;" x1="514" x2="514" y1="56" y2="92.2969"/><text fill="#000000" font-family="sans-serif" font-size="14" lengthAdjust="spacing" textLength="106" x="393" y="78.9951">Placeholder_14</text></g><!--entity Placeholder_6--><g id="elem_Placeholder_6"><polygon fill="#F1F1F1" points="559.5,56,569.5,46,696.5,46,696.5,82.2969,686.5,92.2969,559.5,92.2969,559.5,56" style="stroke:#181818;stroke-width:0.5;"/><line style="stroke:#181818;stroke-width:0.5;" x1="686.5" x2="696.5" y1="56" y2="46"/><line style="stroke:#181818;stroke-width:0.5;" x1="559.5" x2="686.5" y1="56" y2="56"/><line style="stroke:#181818;stroke-width:0.5;" x1="686.5" x2="686.5" y1="56" y2="92.2969"/><text fill="#000000" font-family="sans-serif" font-size="14" lengthAdjust="spacing" textLength="97" x="574.5" y="78.9951">Placeholder_6</text></g><!--entity Placeholder_4--><g id="elem_Placeholder_4"><polygon fill="#F1F1F1" points="731.5,56,741.5,46,868.5,46,868.5,82.2969,858.5,92.2969,731.5,92.2969,731.5,56" style="stroke:#181818;stroke-width:0.5;"/><line style="stroke:#181818;stroke-width:0.5;" x1="858.5" x2="868.5" y1="56" y2="46"/><line style="stroke:#181818;stroke-width:0.5;" x1="731.5" x2="858.5" y1="56" y2="56"/><line style="stroke:#181818;stroke-width:0.5;" x1="858.5" x2="858.5" y1="56" y2="92.2969"/><text fill="#000000" font-family="sans-serif" font-size="14" lengthAdjust="spacing" textLength="97" x="746.5" y="78.9951">Placeholder_4</text></g><!--entity Placeholder_12--><g id="elem_Placeholder_12"><polygon fill="#F1F1F1" points="904,56,914,46,1050,46,1050,82.2969,1040,92.2969,904,92.2969,904,56" style="stroke:#181818;stroke-width:0.5;"/><line style="stroke:#181818;stroke-width:0.5;" x1="1040" x2="1050" y1="56" y2="46"/><line style="stroke:#181818;stroke-width:0.5;" x1="904" x2="1040" y1="56" y2="56"/><line style="stroke:#181818;stroke-width:0.5;" x1="1040" x2="1040" y1="56" y2="92.2969"/><text fill="#000000" font-family="sans-serif" font-size="14" lengthAdjust="spacing" textLength="106" x="919" y="78.9951">Placeholder_12</text></g><!--entity Placeholder_0--><g id="elem_Placeholder_0"><polygon fill="#F1F1F1" points="1085.5,56,1095.5,46,1222.5,46,1222.5,82.2969,1212.5,92.2969,1085.5,92.2969,1085.5,56" style="stroke:#181818;stroke-width:0.5;"/><line style="stroke:#181818;stroke-width:0.5;" x1="1212.5" x2="1222.5" y1="56" y2="46"/><line style="stroke:#181818;stroke-width:0.5;" x1="1085.5" x2="1212.5" y1="56" y2="56"/><line style="stroke:#181818;stroke-width:0.5;" x1="1212.5" x2="1212.5" y1="56" y2="92.2969"/><text fill="#000000" font-family="sans-serif" font-size="14" lengthAdjust="spacing" textLength="97" x="1100.5" y="78.9951">Placeholder_0</text></g><!--entity Placeholder_13--><g id="elem_Placeholder_13"><polygon fill="#F1F1F1" points="1258,56,1268,46,1404,46,1404,82.2969,1394,92.2969,1258,92.2969,1258,56" style="stroke:#181818;stroke-width:0.5;"/><line style="stroke:#181818;stroke-width:0.5;" x1="1394" x2="1404" y1="56" y2="46"/><line style="stroke:#181818;stroke-width:0.5;" x1="1258" x2="1394" y1="56" y2="56"/><line style="stroke:#181818;stroke-width:0.5;" x1="1394" x2="1394" y1="56" y2="92.2969"/><text fill="#000000" font-family="sans-serif" font-size="14" lengthAdjust="spacing" textLength="106" x="1273" y="78.9951">Placeholder_13</text></g><!--entity Placeholder_3--><g id="elem_Placeholder_3"><polygon fill="#F1F1F1" points="1439.5,56,1449.5,46,1576.5,46,1576.5,82.2969,1566.5,92.2969,1439.5,92.2969,1439.5,56" style="stroke:#181818;stroke-width:0.5;"/><line style="stroke:#181818;stroke-width:0.5;" x1="1566.5" x2="1576.5" y1="56" y2="46"/><line style="stroke:#181818;stroke-width:0.5;" x1="1439.5" x2="1566.5" y1="56" y2="56"/><line style="stroke:#181818;stroke-width:0.5;" x1="1566.5" x2="1566.5" y1="56" y2="92.2969"/><text fill="#000000" font-family="sans-serif" font-size="14" lengthAdjust="spacing" textLength="97" x="1454.5" y="78.9951">Placeholder_3</text></g><!--entity Placeholder_7--><g id="elem_Placeholder_7"><polygon fill="#F1F1F1" points="1611.5,56,1621.5,46,1748.5,46,1748.5,82.2969,1738.5,92.2969,1611.5,92.2969,1611.5,56" style="stroke:#181818;stroke-width:0.5;"/><line style="stroke:#181818;stroke-width:0.5;" x1="1738.5" x2="1748.5" y1="56" y2="46"/><line style="stroke:#181818;stroke-width:0.5;" x1="1611.5" x2="1738.5" y1="56" y2="56"/><line style="stroke:#181818;stroke-width:0.5;" x1="1738.5" x2="1738.5" y1="56" y2="92.2969"/><text fill="#000000" font-family="sans-serif" font-size="14" lengthAdjust="spacing" textLength="97" x="1626.5" y="78.9951">Placeholder_7</text></g><!--entity Placeholder_8--><g id="elem_Placeholder_8"><polygon fill="#F1F1F1" points="1783.5,56,1793.5,46,1920.5,46,1920.5,82.2969,1910.5,92.2969,1783.5,92.2969,1783.5,56" style="stroke:#181818;stroke-width:0.5;"/><line style="stroke:#181818;stroke-width:0.5;" x1="1910.5" x2="1920.5" y1="56" y2="46"/><line style="stroke:#181818;stroke-width:0.5;" x1="1783.5" x2="1910.5" y1="56" y2="56"/><line style="stroke:#181818;stroke-width:0.5;" x1="1910.5" x2="1910.5" y1="56" y2="92.2969"/><text fill="#000000" font-family="sans-serif" font-size="14" lengthAdjust="spacing" textLength="97" x="1798.5" y="78.9951">Placeholder_8</text></g><!--SRC=[lT1D3e8m40NWFQTeuhf6HC6jCMwCyMTD21dAe0sbhKCLZV7kSW2tpd8MxtrvqxVQUY3eHAEV6qtAu1ugDCS7aW7ljRs8G7UChAjHd0mel3fJ8vMnU4Sv7A33GkIvSkGio078oZ4crG1ohD2DLX2qix976kzf_-e3TfFojijCMmM_nPIyGxkk4nVEHH5zVaWf7xNaenPi5D__-3R5SpPgnZSgOQFuf8nDMlrB-W80]--></g></svg>