<?xml version="1.0" encoding="us-ascii" standalone="no"?><svg xmlns="http://www.w3.org/2000/svg" xmlns:xlink="http://www.w3.org/1999/xlink" contentStyleType="text/css" height="125px" preserveAspectRatio="none" style="width:2167px;height:125px;background:#FFFFFF;" version="1.1" viewBox="0 0 2167 125" width="2167px" zoomAndPan="magnify"><defs/><g><!--cluster Placeholder_4--><g id="cluster_Placeholder_4"><polygon fill="none" points="1964.5,16,1974.5,6,2150.5,6,2150.5,98,2140.5,108,1964.5,108,1964.5,16" style="stroke:#181818;stroke-width:1.0;"/><line style="stroke:#181818;stroke-width:1.0;" x1="2140.5" x2="2150.5" y1="16" y2="6"/><line style="stroke:#181818;stroke-width:1.0;" x1="1964.5" x2="2140.5" y1="16" y2="16"/><line style="stroke:#181818;stroke-width:1.0;" x1="2140.5" x2="2140.5" y1="16" y2="108"/><text fill="#000000" font-family="sans-serif" font-size="14" font-weight="bold" lengthAdjust="spacing" textLength="110" x="1998.5" y="31.9951">Placeholder_4</text></g><!--entity aName--><g id="elem_aName"><a href="corona-warn-app-cwa-verification-server.system#_xdfRsLw4Ee6gyps-25Z0Jw" target="_top" title="corona-warn-app-cwa-verification-server.system#_xdfRsLw4Ee6gyps-25Z0Jw" xlink:actuate="onRequest" xlink:href="corona-warn-app-cwa-verification-server.system#_xdfRsLw4Ee6gyps-25Z0Jw" xlink:show="new" xlink:title="corona-warn-app-cwa-verification-server.system#_xdfRsLw4Ee6gyps-25Z0Jw" xlink:type="simple"><rect fill="#F1F1F1" height="46.2969" rx="2.5" ry="2.5" style="stroke:#181818;stroke-width:0.5;" width="88" x="1981.5" y="46"/><rect fill="#F1F1F1" height="10" style="stroke:#181818;stroke-width:0.5;" width="15" x="2049.5" y="51"/><rect fill="#F1F1F1" height="2" style="stroke:#181818;stroke-width:0.5;" width="4" x="2047.5" y="53"/><rect fill="#F1F1F1" height="2" style="stroke:#181818;stroke-width:0.5;" width="4" x="2047.5" y="57"/><text fill="#000000" font-family="sans-serif" font-size="14" lengthAdjust="spacing" textLength="48" x="1996.5" y="78.9951">aName</text></a></g><!--entity Placeholder_1--><g id="elem_Placeholder_1"><polygon fill="#F1F1F1" points="16,56,26,46,153,46,153,82.2969,143,92.2969,16,92.2969,16,56" style="stroke:#181818;stroke-width:0.5;"/><line style="stroke:#181818;stroke-width:0.5;" x1="143" x2="153" y1="56" y2="46"/><line style="stroke:#181818;stroke-width:0.5;" x1="16" x2="143" y1="56" y2="56"/><line style="stroke:#181818;stroke-width:0.5;" x1="143" x2="143" y1="56" y2="92.2969"/><text fill="#000000" font-family="sans-serif" font-size="14" lengthAdjust="spacing" textLength="97" x="31" y="78.9951">Placeholder_1</text></g><!--entity Placeholder_10--><g id="elem_Placeholder_10"><polygon fill="#F1F1F1" points="188.5,56,198.5,46,334.5,46,334.5,82.2969,324.5,92.2969,188.5,92.2969,188.5,56" style="stroke:#181818;stroke-width:0.5;"/><line style="stroke:#181818;stroke-width:0.5;" x1="324.5" x2="334.5" y1="56" y2="46"/><line style="stroke:#181818;stroke-width:0.5;" x1="188.5" x2="324.5" y1="56" y2="56"/><line style="stroke:#181818;stroke-width:0.5;" x1="324.5" x2="324.5" y1="56" y2="92.2969"/><text fill="#000000" font-family="sans-serif" font-size="14" lengthAdjust="spacing" textLength="106" x="203.5" y="78.9951">Placeholder_10</text></g><!--entity Placeholder_13--><g id="elem_Placeholder_13"><polygon fill="#F1F1F1" points="369.5,56,379.5,46,515.5,46,515.5,82.2969,505.5,92.2969,369.5,92.2969,369.5,56" style="stroke:#181818;stroke-width:0.5;"/><line style="stroke:#181818;stroke-width:0.5;" x1="505.5" x2="515.5" y1="56" y2="46"/><line style="stroke:#181818;stroke-width:0.5;" x1="369.5" x2="505.5" y1="56" y2="56"/><line style="stroke:#181818;stroke-width:0.5;" x1="505.5" x2="505.5" y1="56" y2="92.2969"/><text fill="#000000" font-family="sans-serif" font-size="14" lengthAdjust="spacing" textLength="106" x="384.5" y="78.9951">Placeholder_13</text></g><!--entity Placeholder_17--><g id="elem_Placeholder_17"><polygon fill="#F1F1F1" points="550.5,56,560.5,46,696.5,46,696.5,82.2969,686.5,92.2969,550.5,92.2969,550.5,56" style="stroke:#181818;stroke-width:0.5;"/><line style="stroke:#181818;stroke-width:0.5;" x1="686.5" x2="696.5" y1="56" y2="46"/><line style="stroke:#181818;stroke-width:0.5;" x1="550.5" x2="686.5" y1="56" y2="56"/><line style="stroke:#181818;stroke-width:0.5;" x1="686.5" x2="686.5" y1="56" y2="92.2969"/><text fill="#000000" font-family="sans-serif" font-size="14" lengthAdjust="spacing" textLength="106" x="565.5" y="78.9951">Placeholder_17</text></g><!--entity Placeholder_14--><g id="elem_Placeholder_14"><polygon fill="#F1F1F1" points="731.5,56,741.5,46,877.5,46,877.5,82.2969,867.5,92.2969,731.5,92.2969,731.5,56" style="stroke:#181818;stroke-width:0.5;"/><line style="stroke:#181818;stroke-width:0.5;" x1="867.5" x2="877.5" y1="56" y2="46"/><line style="stroke:#181818;stroke-width:0.5;" x1="731.5" x2="867.5" y1="56" y2="56"/><line style="stroke:#181818;stroke-width:0.5;" x1="867.5" x2="867.5" y1="56" y2="92.2969"/><text fill="#000000" font-family="sans-serif" font-size="14" lengthAdjust="spacing" textLength="106" x="746.5" y="78.9951">Placeholder_14</text></g><!--entity Placeholder_11--><g id="elem_Placeholder_11"><polygon fill="#F1F1F1" points="912.5,56,922.5,46,1058.5,46,1058.5,82.2969,1048.5,92.2969,912.5,92.2969,912.5,56" style="stroke:#181818;stroke-width:0.5;"/><line style="stroke:#181818;stroke-width:0.5;" x1="1048.5" x2="1058.5" y1="56" y2="46"/><line style="stroke:#181818;stroke-width:0.5;" x1="912.5" x2="1048.5" y1="56" y2="56"/><line style="stroke:#181818;stroke-width:0.5;" x1="1048.5" x2="1048.5" y1="56" y2="92.2969"/><text fill="#000000" font-family="sans-serif" font-size="14" lengthAdjust="spacing" textLength="106" x="927.5" y="78.9951">Placeholder_11</text></g><!--entity Placeholder_12--><g id="elem_Placeholder_12"><polygon fill="#F1F1F1" points="1093.5,56,1103.5,46,1239.5,46,1239.5,82.2969,1229.5,92.2969,1093.5,92.2969,1093.5,56" style="stroke:#181818;stroke-width:0.5;"/><line style="stroke:#181818;stroke-width:0.5;" x1="1229.5" x2="1239.5" y1="56" y2="46"/><line style="stroke:#181818;stroke-width:0.5;" x1="1093.5" x2="1229.5" y1="56" y2="56"/><line style="stroke:#181818;stroke-width:0.5;" x1="1229.5" x2="1229.5" y1="56" y2="92.2969"/><text fill="#000000" font-family="sans-serif" font-size="14" lengthAdjust="spacing" textLength="106" x="1108.5" y="78.9951">Placeholder_12</text></g><!--entity Placeholder_7--><g id="elem_Placeholder_7"><polygon fill="#F1F1F1" points="1275,56,1285,46,1412,46,1412,82.2969,1402,92.2969,1275,92.2969,1275,56" style="stroke:#181818;stroke-width:0.5;"/><line style="stroke:#181818;stroke-width:0.5;" x1="1402" x2="1412" y1="56" y2="46"/><line style="stroke:#181818;stroke-width:0.5;" x1="1275" x2="1402" y1="56" y2="56"/><line style="stroke:#181818;stroke-width:0.5;" x1="1402" x2="1402" y1="56" y2="92.2969"/><text fill="#000000" font-family="sans-serif" font-size="14" lengthAdjust="spacing" textLength="97" x="1290" y="78.9951">Placeholder_7</text></g><!--entity Placeholder_9--><g id="elem_Placeholder_9"><polygon fill="#F1F1F1" points="1447,56,1457,46,1584,46,1584,82.2969,1574,92.2969,1447,92.2969,1447,56" style="stroke:#181818;stroke-width:0.5;"/><line style="stroke:#181818;stroke-width:0.5;" x1="1574" x2="1584" y1="56" y2="46"/><line style="stroke:#181818;stroke-width:0.5;" x1="1447" x2="1574" y1="56" y2="56"/><line style="stroke:#181818;stroke-width:0.5;" x1="1574" x2="1574" y1="56" y2="92.2969"/><text fill="#000000" font-family="sans-serif" font-size="14" lengthAdjust="spacing" textLength="97" x="1462" y="78.9951">Placeholder_9</text></g><!--entity Placeholder_15--><g id="elem_Placeholder_15"><polygon fill="#F1F1F1" points="1619.5,56,1629.5,46,1765.5,46,1765.5,82.2969,1755.5,92.2969,1619.5,92.2969,1619.5,56" style="stroke:#181818;stroke-width:0.5;"/><line style="stroke:#181818;stroke-width:0.5;" x1="1755.5" x2="1765.5" y1="56" y2="46"/><line style="stroke:#181818;stroke-width:0.5;" x1="1619.5" x2="1755.5" y1="56" y2="56"/><line style="stroke:#181818;stroke-width:0.5;" x1="1755.5" x2="1755.5" y1="56" y2="92.2969"/><text fill="#000000" font-family="sans-serif" font-size="14" lengthAdjust="spacing" textLength="106" x="1634.5" y="78.9951">Placeholder_15</text></g><!--entity Placeholder_16--><g id="elem_Placeholder_16"><polygon fill="#F1F1F1" points="1800.5,56,1810.5,46,1946.5,46,1946.5,82.2969,1936.5,92.2969,1800.5,92.2969,1800.5,56" style="stroke:#181818;stroke-width:0.5;"/><line style="stroke:#181818;stroke-width:0.5;" x1="1936.5" x2="1946.5" y1="56" y2="46"/><line style="stroke:#181818;stroke-width:0.5;" x1="1800.5" x2="1936.5" y1="56" y2="56"/><line style="stroke:#181818;stroke-width:0.5;" x1="1936.5" x2="1936.5" y1="56" y2="92.2969"/><text fill="#000000" font-family="sans-serif" font-size="14" lengthAdjust="spacing" textLength="106" x="1815.5" y="78.9951">Placeholder_16</text></g><!--SRC=[lTAn3e8m40RWdQTeubo321XdusA86aS98MSviB6qJOiMOdntsPszyOQxB_dlzm-fBJZeMIl7dNH2OG4tLASNEWNMIjsnmJqnqgP1TbOWy6vKWwvEsJiguGWzLgmiXN560m_WD9_Nk0Z0vnEobG86QJJtwEPvwIS_OB-enwQz-2AaUyoxoNgUPDVu4Aeg-lnAApeffgFMTDI6ZY9i1M4j4ZAAxbLRklWoEYh_5_K5]--></g></svg>