<?xml version="1.0" encoding="windows-1252" standalone="no"?>
<svg xmlns="http://www.w3.org/2000/svg" xmlns:xlink="http://www.w3.org/1999/xlink" contentStyleType="text/css" height="1252px" preserveAspectRatio="none" style="width:1392px;height:1252px;background:#FFFFFF;" version="1.1" viewBox="0 0 1392 1252" width="1392px" zoomAndPan="magnify"><defs/><g><!--cluster catalog--><g id="cluster_catalog"><rect fill="none" height="260" rx="2.5" ry="2.5" style="stroke:#181818;stroke-width:1.0;" width="490" x="664" y="986"/><rect fill="none" height="10" style="stroke:#181818;stroke-width:1.0;" width="15" x="1134" y="991"/><rect fill="none" height="2" style="stroke:#181818;stroke-width:1.0;" width="4" x="1132" y="993"/><rect fill="none" height="2" style="stroke:#181818;stroke-width:1.0;" width="4" x="1132" y="997"/><text fill="#000000" font-family="sans-serif" font-size="14" font-weight="bold" lengthAdjust="spacing" textLength="62" x="878" y="1011.9951">catalog</text></g><!--cluster customer--><g id="cluster_customer"><rect fill="none" height="260" rx="2.5" ry="2.5" style="stroke:#181818;stroke-width:1.0;" width="456" x="7" y="986"/><rect fill="none" height="10" style="stroke:#181818;stroke-width:1.0;" width="15" x="443" y="991"/><rect fill="none" height="2" style="stroke:#181818;stroke-width:1.0;" width="4" x="441" y="993"/><rect fill="none" height="2" style="stroke:#181818;stroke-width:1.0;" width="4" x="441" y="997"/><text fill="#000000" font-family="sans-serif" font-size="14" font-weight="bold" lengthAdjust="spacing" textLength="77" x="196.5" y="1011.9951">customer</text></g><!--cluster order--><g id="cluster_order"><rect fill="none" height="426" rx="2.5" ry="2.5" style="stroke:#181818;stroke-width:1.0;" width="591" x="618" y="352"/><rect fill="none" height="10" style="stroke:#181818;stroke-width:1.0;" width="15" x="1189" y="357"/><rect fill="none" height="2" style="stroke:#181818;stroke-width:1.0;" width="4" x="1187" y="359"/><rect fill="none" height="2" style="stroke:#181818;stroke-width:1.0;" width="4" x="1187" y="363"/><text fill="#000000" font-family="sans-serif" font-size="14" font-weight="bold" lengthAdjust="spacing" textLength="43" x="892" y="377.9951">order</text></g><text fill="#000000" font-family="sans-serif" font-size="14" lengthAdjust="spacing" textLength="4" x="925" y="964.6982"> </text><rect fill="#F1F1F1" height="12" style="stroke:#181818;stroke-width:1.5;" width="12" x="921" y="980"/><!--entity CatalogController--><g id="elem_CatalogController"><rect fill="#F1F1F1" height="46.2969" rx="2.5" ry="2.5" style="stroke:#181818;stroke-width:0.5;" width="168" x="962" y="1053"/><rect fill="#F1F1F1" height="10" style="stroke:#181818;stroke-width:0.5;" width="15" x="1110" y="1058"/><rect fill="#F1F1F1" height="2" style="stroke:#181818;stroke-width:0.5;" width="4" x="1108" y="1060"/><rect fill="#F1F1F1" height="2" style="stroke:#181818;stroke-width:0.5;" width="4" x="1108" y="1064"/><text fill="#000000" font-family="sans-serif" font-size="14" lengthAdjust="spacing" textLength="128" x="977" y="1085.9951">CatalogController</text></g><!--entity ItemRepository--><g id="elem_ItemRepository"><rect fill="#F1F1F1" height="46.2969" rx="2.5" ry="2.5" style="stroke:#181818;stroke-width:0.5;" width="153" x="856.5" y="1176"/><rect fill="#F1F1F1" height="10" style="stroke:#181818;stroke-width:0.5;" width="15" x="989.5" y="1181"/><rect fill="#F1F1F1" height="2" style="stroke:#181818;stroke-width:0.5;" width="4" x="987.5" y="1183"/><rect fill="#F1F1F1" height="2" style="stroke:#181818;stroke-width:0.5;" width="4" x="987.5" y="1187"/><text fill="#000000" font-family="sans-serif" font-size="14" lengthAdjust="spacing" textLength="113" x="871.5" y="1208.9951">ItemRepository</text></g><!--entity CatalogApp--><g id="elem_CatalogApp"><rect fill="#F1F1F1" height="46.2969" rx="2.5" ry="2.5" style="stroke:#181818;stroke-width:0.5;" width="125" x="801.5" y="1053"/><rect fill="#F1F1F1" height="10" style="stroke:#181818;stroke-width:0.5;" width="15" x="906.5" y="1058"/><rect fill="#F1F1F1" height="2" style="stroke:#181818;stroke-width:0.5;" width="4" x="904.5" y="1060"/><rect fill="#F1F1F1" height="2" style="stroke:#181818;stroke-width:0.5;" width="4" x="904.5" y="1064"/><text fill="#000000" font-family="sans-serif" font-size="14" lengthAdjust="spacing" textLength="85" x="816.5" y="1085.9951">CatalogApp</text></g><text fill="#000000" font-family="sans-serif" font-size="14" lengthAdjust="spacing" textLength="4" x="443" y="964.6982"> </text><rect fill="#F1F1F1" height="12" style="stroke:#181818;stroke-width:1.5;" width="12" x="439" y="980"/><!--entity CustomerController--><g id="elem_CustomerController"><rect fill="#F1F1F1" height="46.2969" rx="2.5" ry="2.5" style="stroke:#181818;stroke-width:0.5;" width="183" x="206.5" y="1053"/><rect fill="#F1F1F1" height="10" style="stroke:#181818;stroke-width:0.5;" width="15" x="369.5" y="1058"/><rect fill="#F1F1F1" height="2" style="stroke:#181818;stroke-width:0.5;" width="4" x="367.5" y="1060"/><rect fill="#F1F1F1" height="2" style="stroke:#181818;stroke-width:0.5;" width="4" x="367.5" y="1064"/><text fill="#000000" font-family="sans-serif" font-size="14" lengthAdjust="spacing" textLength="143" x="221.5" y="1085.9951">CustomerController</text></g><!--entity CustomerRepository--><g id="elem_CustomerRepository"><rect fill="#F1F1F1" height="46.2969" rx="2.5" ry="2.5" style="stroke:#181818;stroke-width:0.5;" width="189" x="91.5" y="1176"/><rect fill="#F1F1F1" height="10" style="stroke:#181818;stroke-width:0.5;" width="15" x="260.5" y="1181"/><rect fill="#F1F1F1" height="2" style="stroke:#181818;stroke-width:0.5;" width="4" x="258.5" y="1183"/><rect fill="#F1F1F1" height="2" style="stroke:#181818;stroke-width:0.5;" width="4" x="258.5" y="1187"/><text fill="#000000" font-family="sans-serif" font-size="14" lengthAdjust="spacing" textLength="149" x="106.5" y="1208.9951">CustomerRepository</text></g><!--entity CustomerApp--><g id="elem_CustomerApp"><rect fill="#F1F1F1" height="46.2969" rx="2.5" ry="2.5" style="stroke:#181818;stroke-width:0.5;" width="140" x="31" y="1053"/><rect fill="#F1F1F1" height="10" style="stroke:#181818;stroke-width:0.5;" width="15" x="151" y="1058"/><rect fill="#F1F1F1" height="2" style="stroke:#181818;stroke-width:0.5;" width="4" x="149" y="1060"/><rect fill="#F1F1F1" height="2" style="stroke:#181818;stroke-width:0.5;" width="4" x="149" y="1064"/><text fill="#000000" font-family="sans-serif" font-size="14" lengthAdjust="spacing" textLength="100" x="46" y="1085.9951">CustomerApp</text></g><text fill="#000000" font-family="sans-serif" font-size="14" lengthAdjust="spacing" textLength="4" x="1129" y="330.6982"> </text><rect fill="#F1F1F1" height="12" style="stroke:#181818;stroke-width:1.5;" width="12" x="1125" y="346"/><!--entity OrderController--><g id="elem_OrderController"><rect fill="#F1F1F1" height="46.2969" rx="2.5" ry="2.5" style="stroke:#181818;stroke-width:0.5;" width="154" x="909" y="419"/><rect fill="#F1F1F1" height="10" style="stroke:#181818;stroke-width:0.5;" width="15" x="1043" y="424"/><rect fill="#F1F1F1" height="2" style="stroke:#181818;stroke-width:0.5;" width="4" x="1041" y="426"/><rect fill="#F1F1F1" height="2" style="stroke:#181818;stroke-width:0.5;" width="4" x="1041" y="430"/><text fill="#000000" font-family="sans-serif" font-size="14" lengthAdjust="spacing" textLength="114" x="924" y="451.9951">OrderController</text></g><!--entity OrderRepository--><g id="elem_OrderRepository"><rect fill="#F1F1F1" height="46.2969" rx="2.5" ry="2.5" style="stroke:#181818;stroke-width:0.5;" width="160" x="1004" y="665"/><rect fill="#F1F1F1" height="10" style="stroke:#181818;stroke-width:0.5;" width="15" x="1144" y="670"/><rect fill="#F1F1F1" height="2" style="stroke:#181818;stroke-width:0.5;" width="4" x="1142" y="672"/><rect fill="#F1F1F1" height="2" style="stroke:#181818;stroke-width:0.5;" width="4" x="1142" y="676"/><text fill="#000000" font-family="sans-serif" font-size="14" lengthAdjust="spacing" textLength="120" x="1019" y="697.9951">OrderRepository</text></g><!--entity OrderService--><g id="elem_OrderService"><rect fill="#F1F1F1" height="46.2969" rx="2.5" ry="2.5" style="stroke:#181818;stroke-width:0.5;" width="134" x="782" y="542"/><rect fill="#F1F1F1" height="10" style="stroke:#181818;stroke-width:0.5;" width="15" x="896" y="547"/><rect fill="#F1F1F1" height="2" style="stroke:#181818;stroke-width:0.5;" width="4" x="894" y="549"/><rect fill="#F1F1F1" height="2" style="stroke:#181818;stroke-width:0.5;" width="4" x="894" y="553"/><text fill="#000000" font-family="sans-serif" font-size="14" lengthAdjust="spacing" textLength="94" x="797" y="574.9951">OrderService</text></g><!--entity CustomerClient--><g id="elem_CustomerClient"><rect fill="#F1F1F1" height="46.2969" rx="2.5" ry="2.5" style="stroke:#181818;stroke-width:0.5;" width="153" x="642.5" y="665"/><rect fill="#F1F1F1" height="10" style="stroke:#181818;stroke-width:0.5;" width="15" x="775.5" y="670"/><rect fill="#F1F1F1" height="2" style="stroke:#181818;stroke-width:0.5;" width="4" x="773.5" y="672"/><rect fill="#F1F1F1" height="2" style="stroke:#181818;stroke-width:0.5;" width="4" x="773.5" y="676"/><text fill="#000000" font-family="sans-serif" font-size="14" lengthAdjust="spacing" textLength="113" x="657.5" y="697.9951">CustomerClient</text></g><!--entity CatalogClient--><g id="elem_CatalogClient"><rect fill="#F1F1F1" height="46.2969" rx="2.5" ry="2.5" style="stroke:#181818;stroke-width:0.5;" width="138" x="831" y="665"/><rect fill="#F1F1F1" height="10" style="stroke:#181818;stroke-width:0.5;" width="15" x="949" y="670"/><rect fill="#F1F1F1" height="2" style="stroke:#181818;stroke-width:0.5;" width="4" x="947" y="672"/><rect fill="#F1F1F1" height="2" style="stroke:#181818;stroke-width:0.5;" width="4" x="947" y="676"/><text fill="#000000" font-family="sans-serif" font-size="14" lengthAdjust="spacing" textLength="98" x="846" y="697.9951">CatalogClient</text></g><text fill="#000000" font-family="sans-serif" font-size="14" lengthAdjust="spacing" textLength="4" x="717" y="796.9951"> </text><rect fill="#F1F1F1" height="12" style="stroke:#181818;stroke-width:1.5;" width="12" x="713" y="772"/><text fill="#000000" font-family="sans-serif" font-size="14" lengthAdjust="spacing" textLength="4" x="905" y="796.9951"> </text><rect fill="#F1F1F1" height="12" style="stroke:#181818;stroke-width:1.5;" width="12" x="901" y="772"/><!--entity catalogInterface--><g id="elem_catalogInterface"><ellipse cx="927" cy="890" fill="#F1F1F1" rx="8" ry="8" style="stroke:#181818;stroke-width:0.5;"/><text fill="#000000" font-family="sans-serif" font-size="14" lengthAdjust="spacing" textLength="58" x="898" y="919.9951">/catalog</text></g><!--entity customerInterface--><g id="elem_customerInterface"><ellipse cx="445" cy="890" fill="#F1F1F1" rx="8" ry="8" style="stroke:#181818;stroke-width:0.5;"/><text fill="#000000" font-family="sans-serif" font-size="14" lengthAdjust="spacing" textLength="73" x="408.5" y="919.9951">/customer</text></g><!--entity orderInterface--><g id="elem_orderInterface"><ellipse cx="1152" cy="256" fill="#F1F1F1" rx="8" ry="8" style="stroke:#181818;stroke-width:0.5;"/><text fill="#000000" font-family="sans-serif" font-size="14" lengthAdjust="spacing" textLength="44" x="1130" y="285.9951">/order</text></g><!--entity eureka--><g id="elem_eureka"><rect fill="#F1F1F1" height="46.2969" rx="2.5" ry="2.5" style="stroke:#181818;stroke-width:0.5;" width="89" x="558.5" y="1176"/><rect fill="#F1F1F1" height="10" style="stroke:#181818;stroke-width:0.5;" width="15" x="627.5" y="1181"/><rect fill="#F1F1F1" height="2" style="stroke:#181818;stroke-width:0.5;" width="4" x="625.5" y="1183"/><rect fill="#F1F1F1" height="2" style="stroke:#181818;stroke-width:0.5;" width="4" x="625.5" y="1187"/><text fill="#000000" font-family="sans-serif" font-size="14" lengthAdjust="spacing" textLength="49" x="573.5" y="1208.9951">eureka</text></g><!--entity entryPoint--><g id="elem_entryPoint"><ellipse cx="1208" cy="14" fill="#F1F1F1" rx="8" ry="8" style="stroke:#181818;stroke-width:0.5;"/><text fill="#000000" font-family="sans-serif" font-size="14" lengthAdjust="spacing" textLength="27" x="1194.5" y="43.9951">/api</text></g><!--entity zuul--><g id="elem_zuul"><rect fill="#F1F1F1" height="46.2969" rx="2.5" ry="2.5" style="stroke:#181818;stroke-width:0.5;" width="68" x="1174" y="104"/><rect fill="#F1F1F1" height="10" style="stroke:#181818;stroke-width:0.5;" width="15" x="1222" y="109"/><rect fill="#F1F1F1" height="2" style="stroke:#181818;stroke-width:0.5;" width="4" x="1220" y="111"/><rect fill="#F1F1F1" height="2" style="stroke:#181818;stroke-width:0.5;" width="4" x="1220" y="115"/><text fill="#000000" font-family="sans-serif" font-size="14" lengthAdjust="spacing" textLength="28" x="1189" y="136.9951">zuul</text></g><!--link catalogInterface to catalogIn--><g id="link_catalogInterface_catalogIn"><path d="M927,899.014 C927,917.839 927,964.454 927,979.921 " fill="none" id="catalogInterface-catalogIn" style="stroke:#181818;stroke-width:1.0;"/></g><!--link catalogIn to CatalogController--><g id="link_catalogIn_CatalogController"><path d="M933.065,991.485 C948.126,1002.623 988.044,1032.142 1016.13,1052.913 " fill="none" id="catalogIn-CatalogController" style="stroke:#181818;stroke-width:1.0;"/></g><!--link CatalogController to ItemRepository--><g id="link_CatalogController_ItemRepository"><path d="M1025.27,1099.193 C1004.89,1121.026 978.0332,1149.7789 957.6902,1171.5623 " fill="none" id="CatalogController-to-ItemRepository" style="stroke:#181818;stroke-width:1.0;stroke-dasharray:7.0,7.0;"/><polygon fill="#181818" points="953.595,1175.9474,962.6612,1172.0998,957.0077,1172.2931,956.8143,1166.6396,953.595,1175.9474" style="stroke:#181818;stroke-width:1.0;"/><text fill="#000000" font-family="sans-serif" font-size="13" lengthAdjust="spacing" textLength="52" x="998" y="1142.0669">requires</text></g><!--link CatalogApp to ItemRepository--><g id="link_CatalogApp_ItemRepository"><path d="M876.656,1099.193 C889.105,1121.026 905.0308,1148.9519 917.4528,1170.7353 " fill="none" id="CatalogApp-to-ItemRepository" style="stroke:#181818;stroke-width:1.0;stroke-dasharray:7.0,7.0;"/><polygon fill="#181818" points="920.425,1175.9474,919.4414,1166.1478,917.9482,1171.604,912.492,1170.1107,920.425,1175.9474" style="stroke:#181818;stroke-width:1.0;"/><text fill="#000000" font-family="sans-serif" font-size="13" lengthAdjust="spacing" textLength="52" x="904" y="1142.0669">requires</text></g><!--link customerInterface to customerIn--><g id="link_customerInterface_customerIn"><path d="M445,899.014 C445,917.839 445,964.454 445,979.921 " fill="none" id="customerInterface-customerIn" style="stroke:#181818;stroke-width:1.0;"/></g><!--link customerIn to CustomerController--><g id="link_customerIn_CustomerController"><path d="M438.684,990.781 C421.043,1001.341 370.224,1031.764 334.762,1052.993 " fill="none" id="customerIn-CustomerController" style="stroke:#181818;stroke-width:1.0;"/></g><!--link CustomerController to CustomerRepository--><g id="link_CustomerController_CustomerRepository"><path d="M277.457,1099.193 C257.249,1121.026 230.6518,1149.7609 210.4878,1171.5443 " fill="none" id="CustomerController-to-CustomerRepository" style="stroke:#181818;stroke-width:1.0;stroke-dasharray:7.0,7.0;"/><polygon fill="#181818" points="206.412,1175.9474,215.4612,1172.0599,209.8085,1172.2781,209.5903,1166.6255,206.412,1175.9474" style="stroke:#181818;stroke-width:1.0;"/><text fill="#000000" font-family="sans-serif" font-size="13" lengthAdjust="spacing" textLength="52" x="250" y="1142.0669">requires</text></g><!--link CustomerApp to CustomerRepository--><g id="link_CustomerApp_CustomerRepository"><path d="M116.59,1099.193 C131.927,1121.026 151.757,1149.2544 167.06,1171.0378 " fill="none" id="CustomerApp-to-CustomerRepository" style="stroke:#181818;stroke-width:1.0;stroke-dasharray:7.0,7.0;"/><polygon fill="#181818" points="170.509,1175.9474,168.6085,1166.2836,167.6348,1171.8561,162.0624,1170.8824,170.509,1175.9474" style="stroke:#181818;stroke-width:1.0;"/><text fill="#000000" font-family="sans-serif" font-size="13" lengthAdjust="spacing" textLength="52" x="150" y="1142.0669">requires</text></g><!--link orderInterface to orderIn--><g id="link_orderInterface_orderIn"><path d="M1150.21,265.014 C1146,283.839 1135.59,330.454 1132.13,345.921 " fill="none" id="orderInterface-orderIn" style="stroke:#181818;stroke-width:1.0;"/></g><!--link orderIn to OrderController--><g id="link_orderIn_OrderController"><path d="M1124.77,356.781 C1107.37,367.341 1057.24,397.764 1022.26,418.993 " fill="none" id="orderIn-OrderController" style="stroke:#181818;stroke-width:1.0;"/></g><!--link OrderController to OrderRepository--><g id="link_OrderController_OrderRepository"><path d="M998.82,465.309 C1009.84,485.056 1025.7,514.87 1037,542 C1054.7,584.508 1068.4386,630.4384 1076.4586,659.2034 " fill="none" id="OrderController-to-OrderRepository" style="stroke:#181818;stroke-width:1.0;stroke-dasharray:7.0,7.0;"/><polygon fill="#181818" points="1078.07,664.983,1079.5059,655.2394,1076.7272,660.1667,1071.7998,657.3879,1078.07,664.983" style="stroke:#181818;stroke-width:1.0;"/><text fill="#000000" font-family="sans-serif" font-size="13" lengthAdjust="spacing" textLength="52" x="1056" y="569.5669">requires</text></g><!--link OrderController to OrderService--><g id="link_OrderController_OrderService"><path d="M958.409,465.169 C947.283,474.265 934.406,484.991 923,495 C905.572,510.293 890.792,524.0275 876.349,537.7485 " fill="none" id="OrderController-to-OrderService" style="stroke:#181818;stroke-width:1.0;stroke-dasharray:7.0,7.0;"/><polygon fill="#181818" points="871.999,541.881,881.279,538.5822,875.624,538.4372,875.7689,532.7822,871.999,541.881" style="stroke:#181818;stroke-width:1.0;"/><text fill="#000000" font-family="sans-serif" font-size="13" lengthAdjust="spacing" textLength="52" x="924" y="508.0669">requires</text></g><!--link OrderService to OrderRepository--><g id="link_OrderService_OrderRepository"><path d="M891.829,588.053 C934.193,609.865 993.3356,640.3174 1035.7356,662.1484 " fill="none" id="OrderService-to-OrderRepository" style="stroke:#181818;stroke-width:1.0;stroke-dasharray:7.0,7.0;"/><polygon fill="#181818" points="1041.07,664.895,1034.8994,657.2188,1036.6246,662.6062,1031.2373,664.3314,1041.07,664.895" style="stroke:#181818;stroke-width:1.0;"/><text fill="#000000" font-family="sans-serif" font-size="13" lengthAdjust="spacing" textLength="52" x="982" y="631.0669">requires</text></g><!--link OrderService to CustomerClient--><g id="link_OrderService_CustomerClient"><path d="M825.156,588.193 C801.7,610.026 770.489,639.0762 747.085,660.8592 " fill="none" id="OrderService-to-CustomerClient" style="stroke:#181818;stroke-width:1.0;stroke-dasharray:7.0,7.0;"/><polygon fill="#181818" points="742.693,664.947,752.0062,661.7433,746.353,661.5405,746.5558,655.8873,742.693,664.947" style="stroke:#181818;stroke-width:1.0;"/><text fill="#000000" font-family="sans-serif" font-size="13" lengthAdjust="spacing" textLength="52" x="793" y="631.0669">requires</text></g><!--link OrderService to CatalogClient--><g id="link_OrderService_CatalogClient"><path d="M858.354,588.193 C867.556,610.026 879.1937,637.635 888.3747,659.418 " fill="none" id="OrderService-to-CatalogClient" style="stroke:#181818;stroke-width:1.0;stroke-dasharray:7.0,7.0;"/><polygon fill="#181818" points="890.705,664.947,890.8955,655.1,888.7631,660.3395,883.5235,658.2071,890.705,664.947" style="stroke:#181818;stroke-width:1.0;"/><text fill="#000000" font-family="sans-serif" font-size="13" lengthAdjust="spacing" textLength="52" x="879" y="631.0669">requires</text></g><!--link OrderController to CustomerClient--><g id="link_OrderController_CustomerClient"><path d="M908.725,447.37 C843.774,455.608 754.603,478.616 710,542 C684.236,578.613 696.4673,628.5262 707.6543,659.1512 " fill="none" id="OrderController-to-CustomerClient" style="stroke:#181818;stroke-width:1.0;stroke-dasharray:7.0,7.0;"/><polygon fill="#181818" points="709.713,664.787,710.3821,654.9609,707.9974,660.0905,702.8678,657.7058,709.713,664.787" style="stroke:#181818;stroke-width:1.0;"/><text fill="#000000" font-family="sans-serif" font-size="13" lengthAdjust="spacing" textLength="52" x="711" y="569.5669">requires</text></g><!--link OrderController to CatalogClient--><g id="link_OrderController_CatalogClient"><path d="M985.791,465.251 C985.317,478.864 984.08,496.571 981,512 C969.719,568.509 967.054,584.122 940,635 C934.439,645.459 930.5587,651.3301 923.4417,660.1621 " fill="none" id="OrderController-to-CatalogClient" style="stroke:#181818;stroke-width:1.0;stroke-dasharray:7.0,7.0;"/><polygon fill="#181818" points="919.677,664.834,928.4387,660.3359,922.8143,660.9407,922.2095,655.3163,919.677,664.834" style="stroke:#181818;stroke-width:1.0;"/><text fill="#000000" font-family="sans-serif" font-size="13" lengthAdjust="spacing" textLength="52" x="976" y="569.5669">requires</text></g><!--link CustomerClient to orderCustomer--><g id="link_CustomerClient_orderCustomer"><path d="M719,711.206 C719,731.573 719,760.274 719,771.856 " fill="none" id="CustomerClient-orderCustomer" style="stroke:#181818;stroke-width:1.0;stroke-dasharray:7.0,7.0;"/></g><!--link orderCustomer to customerInterface--><g id="link_orderCustomer_customerInterface"><path d="M712.81,779.268 C680.366,780.771 529.974,789.012 492,814 C467.097,830.387 454.8845,859.3294 449.4905,875.1384 " fill="none" id="orderCustomer-to-customerInterface" style="stroke:#181818;stroke-width:1.0;stroke-dasharray:7.0,7.0;"/><polygon fill="#181818" points="447.553,880.817,454.245,873.5908,449.1676,876.0849,446.6736,871.0075,447.553,880.817" style="stroke:#181818;stroke-width:1.0;"/><text fill="#000000" font-family="sans-serif" font-size="13" lengthAdjust="spacing" textLength="52" x="493" y="827.0669">requires</text></g><!--link CatalogClient to orderCatalog--><g id="link_CatalogClient_orderCatalog"><path d="M901.766,711.206 C903.386,731.573 905.67,760.274 906.591,771.856 " fill="none" id="CatalogClient-orderCatalog" style="stroke:#181818;stroke-width:1.0;stroke-dasharray:7.0,7.0;"/></g><!--link orderCatalog to catalogInterface--><g id="link_orderCatalog_catalogInterface"><path d="M907.911,784.012 C911.075,801.413 920.5298,853.4138 924.4438,874.9428 " fill="none" id="orderCatalog-to-catalogInterface" style="stroke:#181818;stroke-width:1.0;stroke-dasharray:7.0,7.0;"/><polygon fill="#181818" points="925.517,880.846,927.8427,871.2757,924.6227,875.9266,919.9717,872.7066,925.517,880.846" style="stroke:#181818;stroke-width:1.0;"/><text fill="#000000" font-family="sans-serif" font-size="13" lengthAdjust="spacing" textLength="52" x="918" y="827.0669">requires</text></g><!--link entryPoint to zuul--><g id="link_entryPoint_zuul"><path d="M1208,23.34 C1208,40.28 1208,79.2 1208,103.95 " fill="none" id="entryPoint-zuul" style="stroke:#181818;stroke-width:1.0;"/></g><!--link zuul to orderInterface--><g id="link_zuul_orderInterface"><path d="M1179.49,150.05 C1170.73,158.42 1162.07,168.69 1157,180 C1146.97,202.39 1148.245,226.3852 1150.015,240.7252 " fill="none" id="zuul-to-orderInterface" style="stroke:#181818;stroke-width:1.0;stroke-dasharray:7.0,7.0;"/><polygon fill="#181818" points="1150.75,246.68,1153.6174,237.2578,1150.1375,241.7177,1145.6776,238.2378,1150.75,246.68" style="stroke:#181818;stroke-width:1.0;"/><text fill="#000000" font-family="sans-serif" font-size="13" lengthAdjust="spacing" textLength="75" x="1158" y="193.0669">depends on</text></g><!--link zuul to catalogInterface--><g id="link_zuul_catalogInterface"><path d="M1223.32,150.28 C1238.66,174.8 1260,215.93 1260,255 C1260,255 1260,255 1260,779 C1260,849.17 996.0005,881.5055 942.2185,887.3805 " fill="none" id="zuul-to-catalogInterface" style="stroke:#181818;stroke-width:1.0;stroke-dasharray:7.0,7.0;"/><polygon fill="#181818" points="936.254,888.032,945.6351,891.031,941.2244,887.489,944.7664,883.0783,936.254,888.032" style="stroke:#181818;stroke-width:1.0;"/><text fill="#000000" font-family="sans-serif" font-size="13" lengthAdjust="spacing" textLength="75" x="1261" y="508.0669">depends on</text></g><!--link zuul to customerInterface--><g id="link_zuul_customerInterface"><path d="M1173.88,129.96 C1024.66,138.95 437,179.2 437,255 C437,255 437,255 437,779 C437,817.104 441.1329,856.4781 443.2859,874.7771 " fill="none" id="zuul-to-customerInterface" style="stroke:#181818;stroke-width:1.0;stroke-dasharray:7.0,7.0;"/><polygon fill="#181818" points="443.987,880.736,446.9079,871.3303,443.4027,875.7703,438.9627,872.2651,443.987,880.736" style="stroke:#181818;stroke-width:1.0;"/><text fill="#000000" font-family="sans-serif" font-size="13" lengthAdjust="spacing" textLength="75" x="438" y="508.0669">depends on</text></g><!--link order to eureka--><g id="link_order_eureka"><path d="M617.1009,520.7091 C616.2552,521.23 615.4263,521.758 614.6145,522.2932 C611.3675,524.4342 608.3947,526.6914 605.7163,529.0718 C595.0028,538.5935 589,550.0866 589,564 C589,564 589,564 589,1077 C589,1111.681 593.7369,1145.6715 597.8659,1169.8732 " fill="none" id="order-to-eureka" style="stroke:#181818;stroke-width:1.0;stroke-dasharray:7.0,7.0;"/><polygon fill="#181818" points="598.875,1175.7877,601.3044,1166.2432,598.0341,1170.8589,593.4184,1167.5886,598.875,1175.7877" style="stroke:#181818;stroke-width:1.0;"/><text fill="#000000" font-family="sans-serif" font-size="13" lengthAdjust="spacing" textLength="23" x="590" y="827.0669">use</text></g><!--link catalog to eureka--><g id="link_catalog_eureka"><path d="M663.8253,1138.6462 C663.2813,1139.1771 662.7374,1139.7078 662.1938,1140.2382 C657.845,1144.4818 653.5147,1148.7074 649.2887,1152.8312 C640.8366,1161.0788 637.0958,1164.7292 630.1643,1171.493 " fill="none" id="catalog-to-eureka" style="stroke:#181818;stroke-width:1.0;stroke-dasharray:7.0,7.0;"/><polygon fill="#181818" points="625.87,1175.6834,635.105,1172.2607,629.4485,1172.1914,629.5178,1166.535,625.87,1175.6834" style="stroke:#181818;stroke-width:1.0;"/><text fill="#000000" font-family="sans-serif" font-size="13" lengthAdjust="spacing" textLength="23" x="674" y="1142.0669">use</text></g><!--link customer to eureka--><g id="link_customer_eureka"><path d="M478.92,1085.841 C491.132,1099.312 515.506,1125.567 538,1146 C549.339,1156.3 557.712,1163.2812 569.162,1172.2672 " fill="none" id="customer-to-eureka" style="stroke:#181818;stroke-width:1.0;stroke-dasharray:7.0,7.0;"/><polygon fill="#181818" points="573.882,1175.9715,569.2715,1167.2684,569.9487,1172.8846,564.3325,1173.5618,573.882,1175.9715" style="stroke:#181818;stroke-width:1.0;"/><text fill="#000000" font-family="sans-serif" font-size="13" lengthAdjust="spacing" textLength="23" x="539" y="1142.0669">use</text></g><!--link zuul to eureka--><g id="link_zuul_eureka"><path d="M1242.11,139.28 C1286.93,156.51 1360,193.96 1360,255 C1360,255 1360,255 1360,1077 C1360,1176.9328 1244.18,1127.367 1146,1146 C938.614,1185.3592 879.45,1136.978 672,1176 C663.968,1177.5108 661.3207,1177.9714 653.2547,1180.3564 " fill="none" id="zuul-to-eureka" style="stroke:#181818;stroke-width:1.0;stroke-dasharray:7.0,7.0;"/><polygon fill="#181818" points="647.501,1182.0577,657.2658,1183.3416,652.2958,1180.64,654.9974,1175.6699,647.501,1182.0577" style="stroke:#181818;stroke-width:1.0;"/><text fill="#000000" font-family="sans-serif" font-size="13" lengthAdjust="spacing" textLength="23" x="1361" y="692.5669">use</text></g><!--SRC=[ZLKzJyCm49thNs5rOMhPEo2XJfr0CA8EKMh08esDuo0Ln7_7Nt7kpgx2KjdltbtExvrTsLjXNfjMyFLjszYcKszhtWmyhGzJcBNgh5KlUijVKkm8U3zifPMnikThZlFP2cJk8xfNlJMgwuG9DGeKvHoiE3y9hGPfbRc410pLld2lDIpjjcpbUEHGVBEP6-KWxWELhWg8RxTtf1k-uqPyZjA88IUupoymVncJq8bniEeiJ9GoRUfUfE0HCdbfHww1rKemDQI0grd4bHAkPcLhvdtmXfxIUO2wpkjWJgN34WkYbsrXY-Os_a5tFjtenhxpNba-Z4OWsvGv9S_2gcfOY1mpfxGgfIBj7Zn6J29OoIVs4ApaFmlp9LinanDGdvXEkZsUbW1LxpiWGoGUNOqMdNsgToKQ2_YHmIBxiSZQfON72fq845mdug09kSfF-fJaAV2lof2CfLpWGYKN6rwgJEbNYvD2soqr3Mr3iV9gLzv8Mc-o6UvYDVg8u-i9fa-u-_dHXB6BI_p8Dbg6iN9SStbKBWIJlyUn2wb-mTXCyZCLCFyJEY9pkECdeKL_SWFh_bGogzBtp0EqYbY0n-AhuPdnJ2uy3kw50GhX07G2HV8d8Ve7]--></g></svg>