<?xml version="1.0" encoding="us-ascii" standalone="no"?><svg xmlns="http://www.w3.org/2000/svg" xmlns:xlink="http://www.w3.org/1999/xlink" contentStyleType="text/css" height="125px" preserveAspectRatio="none" style="width:2694px;height:125px;background:#FFFFFF;" version="1.1" viewBox="0 0 2694 125" width="2694px" zoomAndPan="magnify"><defs/><g><!--cluster Placeholder_8--><g id="cluster_Placeholder_8"><polygon fill="none" points="1395.5,16,1405.5,6,2677.5,6,2677.5,98,2667.5,108,1395.5,108,1395.5,16" style="stroke:#181818;stroke-width:1.0;"/><line style="stroke:#181818;stroke-width:1.0;" x1="2667.5" x2="2677.5" y1="16" y2="6"/><line style="stroke:#181818;stroke-width:1.0;" x1="1395.5" x2="2667.5" y1="16" y2="16"/><line style="stroke:#181818;stroke-width:1.0;" x1="2667.5" x2="2667.5" y1="16" y2="108"/><text fill="#000000" font-family="sans-serif" font-size="14" font-weight="bold" lengthAdjust="spacing" textLength="110" x="1977.5" y="31.9951">Placeholder_8</text></g><!--entity aName--><g id="elem_aName"><a href="koushikkothagal-spring-boot-microservices-workshop.system#_q02x4btpEe6NFo6ejmMMWQ" target="_top" title="koushikkothagal-spring-boot-microservices-workshop.system#_q02x4btpEe6NFo6ejmMMWQ" xlink:actuate="onRequest" xlink:href="koushikkothagal-spring-boot-microservices-workshop.system#_q02x4btpEe6NFo6ejmMMWQ" xlink:show="new" xlink:title="koushikkothagal-spring-boot-microservices-workshop.system#_q02x4btpEe6NFo6ejmMMWQ" xlink:type="simple"><rect fill="#F1F1F1" height="46.2969" rx="2.5" ry="2.5" style="stroke:#181818;stroke-width:0.5;" width="88" x="1411.5" y="46"/><rect fill="#F1F1F1" height="10" style="stroke:#181818;stroke-width:0.5;" width="15" x="1479.5" y="51"/><rect fill="#F1F1F1" height="2" style="stroke:#181818;stroke-width:0.5;" width="4" x="1477.5" y="53"/><rect fill="#F1F1F1" height="2" style="stroke:#181818;stroke-width:0.5;" width="4" x="1477.5" y="57"/><text fill="#000000" font-family="sans-serif" font-size="14" lengthAdjust="spacing" textLength="48" x="1426.5" y="78.9951">aName</text></a></g><!--entity Placeholder_6--><g id="elem_Placeholder_6"><polygon fill="#F1F1F1" points="16,56,26,46,153,46,153,82.2969,143,92.2969,16,92.2969,16,56" style="stroke:#181818;stroke-width:0.5;"/><line style="stroke:#181818;stroke-width:0.5;" x1="143" x2="153" y1="56" y2="46"/><line style="stroke:#181818;stroke-width:0.5;" x1="16" x2="143" y1="56" y2="56"/><line style="stroke:#181818;stroke-width:0.5;" x1="143" x2="143" y1="56" y2="92.2969"/><text fill="#000000" font-family="sans-serif" font-size="14" lengthAdjust="spacing" textLength="97" x="31" y="78.9951">Placeholder_6</text></g><!--entity Placeholder_13--><g id="elem_Placeholder_13"><polygon fill="#F1F1F1" points="188.5,56,198.5,46,334.5,46,334.5,82.2969,324.5,92.2969,188.5,92.2969,188.5,56" style="stroke:#181818;stroke-width:0.5;"/><line style="stroke:#181818;stroke-width:0.5;" x1="324.5" x2="334.5" y1="56" y2="46"/><line style="stroke:#181818;stroke-width:0.5;" x1="188.5" x2="324.5" y1="56" y2="56"/><line style="stroke:#181818;stroke-width:0.5;" x1="324.5" x2="324.5" y1="56" y2="92.2969"/><text fill="#000000" font-family="sans-serif" font-size="14" lengthAdjust="spacing" textLength="106" x="203.5" y="78.9951">Placeholder_13</text></g><!--entity Placeholder_2--><g id="elem_Placeholder_2"><polygon fill="#F1F1F1" points="370,56,380,46,507,46,507,82.2969,497,92.2969,370,92.2969,370,56" style="stroke:#181818;stroke-width:0.5;"/><line style="stroke:#181818;stroke-width:0.5;" x1="497" x2="507" y1="56" y2="46"/><line style="stroke:#181818;stroke-width:0.5;" x1="370" x2="497" y1="56" y2="56"/><line style="stroke:#181818;stroke-width:0.5;" x1="497" x2="497" y1="56" y2="92.2969"/><text fill="#000000" font-family="sans-serif" font-size="14" lengthAdjust="spacing" textLength="97" x="385" y="78.9951">Placeholder_2</text></g><!--entity Placeholder_7--><g id="elem_Placeholder_7"><polygon fill="#F1F1F1" points="542,56,552,46,679,46,679,82.2969,669,92.2969,542,92.2969,542,56" style="stroke:#181818;stroke-width:0.5;"/><line style="stroke:#181818;stroke-width:0.5;" x1="669" x2="679" y1="56" y2="46"/><line style="stroke:#181818;stroke-width:0.5;" x1="542" x2="669" y1="56" y2="56"/><line style="stroke:#181818;stroke-width:0.5;" x1="669" x2="669" y1="56" y2="92.2969"/><text fill="#000000" font-family="sans-serif" font-size="14" lengthAdjust="spacing" textLength="97" x="557" y="78.9951">Placeholder_7</text></g><!--entity Placeholder_0--><g id="elem_Placeholder_0"><polygon fill="#F1F1F1" points="714,56,724,46,851,46,851,82.2969,841,92.2969,714,92.2969,714,56" style="stroke:#181818;stroke-width:0.5;"/><line style="stroke:#181818;stroke-width:0.5;" x1="841" x2="851" y1="56" y2="46"/><line style="stroke:#181818;stroke-width:0.5;" x1="714" x2="841" y1="56" y2="56"/><line style="stroke:#181818;stroke-width:0.5;" x1="841" x2="841" y1="56" y2="92.2969"/><text fill="#000000" font-family="sans-serif" font-size="14" lengthAdjust="spacing" textLength="97" x="729" y="78.9951">Placeholder_0</text></g><!--entity Placeholder_9--><g id="elem_Placeholder_9"><polygon fill="#F1F1F1" points="886,56,896,46,1023,46,1023,82.2969,1013,92.2969,886,92.2969,886,56" style="stroke:#181818;stroke-width:0.5;"/><line style="stroke:#181818;stroke-width:0.5;" x1="1013" x2="1023" y1="56" y2="46"/><line style="stroke:#181818;stroke-width:0.5;" x1="886" x2="1013" y1="56" y2="56"/><line style="stroke:#181818;stroke-width:0.5;" x1="1013" x2="1013" y1="56" y2="92.2969"/><text fill="#000000" font-family="sans-serif" font-size="14" lengthAdjust="spacing" textLength="97" x="901" y="78.9951">Placeholder_9</text></g><!--entity Placeholder_3--><g id="elem_Placeholder_3"><polygon fill="#F1F1F1" points="1058,56,1068,46,1195,46,1195,82.2969,1185,92.2969,1058,92.2969,1058,56" style="stroke:#181818;stroke-width:0.5;"/><line style="stroke:#181818;stroke-width:0.5;" x1="1185" x2="1195" y1="56" y2="46"/><line style="stroke:#181818;stroke-width:0.5;" x1="1058" x2="1185" y1="56" y2="56"/><line style="stroke:#181818;stroke-width:0.5;" x1="1185" x2="1185" y1="56" y2="92.2969"/><text fill="#000000" font-family="sans-serif" font-size="14" lengthAdjust="spacing" textLength="97" x="1073" y="78.9951">Placeholder_3</text></g><!--entity Placeholder_11--><g id="elem_Placeholder_11"><polygon fill="#F1F1F1" points="1230.5,56,1240.5,46,1376.5,46,1376.5,82.2969,1366.5,92.2969,1230.5,92.2969,1230.5,56" style="stroke:#181818;stroke-width:0.5;"/><line style="stroke:#181818;stroke-width:0.5;" x1="1366.5" x2="1376.5" y1="56" y2="46"/><line style="stroke:#181818;stroke-width:0.5;" x1="1230.5" x2="1366.5" y1="56" y2="56"/><line style="stroke:#181818;stroke-width:0.5;" x1="1366.5" x2="1366.5" y1="56" y2="92.2969"/><text fill="#000000" font-family="sans-serif" font-size="14" lengthAdjust="spacing" textLength="106" x="1245.5" y="78.9951">Placeholder_11</text></g><!--link aName to aName--><g id="link_aName_aName"><path d="M1499.77,66.15 C1518.52,65.94 1534.5,66.89 1534.5,69 C1534.5,71.11 1518.52,72.06 1499.77,71.85 " fill="none" id="aName-aName" style="stroke:#181818;stroke-width:1.0;"/><text fill="#000000" font-family="sans-serif" font-size="13" lengthAdjust="spacing" textLength="418" x="1547.5" y="73.5669">io_javabrains_movieinfoservice_resources_RestTemplate Provider</text><path d="M1492.6202,59.1586 A10,10 0 0 0 1492.7786 73.2998" fill="none" style="stroke:#181818;stroke-width:1.5;"/><ellipse cx="1499.77" cy="66.15" fill="#FFFFFF" rx="6" ry="6" style="stroke:#181818;stroke-width:1.5;"/></g><!--link aName to aName--><g id="link_aName_aName"><path d="M1499.8,66.06 C1628.41,61.51 1978.5,62.49 1978.5,69 C1978.5,75.51 1628.41,76.49 1499.8,71.94 " fill="none" id="aName-aName-1" style="stroke:#181818;stroke-width:1.0;"/><text fill="#000000" font-family="sans-serif" font-size="13" lengthAdjust="spacing" textLength="442" x="1991.5" y="73.5669">io_javabrains_moviecatalogservice_resources_RestTemplate Provider</text><path d="M1492.4833,59.2434 A10,10 0 0 0 1492.9834 73.3767" fill="none" style="stroke:#181818;stroke-width:1.5;"/><ellipse cx="1499.8" cy="66.06" fill="#FFFFFF" rx="6" ry="6" style="stroke:#181818;stroke-width:1.5;"/></g><!--link aName to aName--><g id="link_aName_aName"><path d="M1499.78,65.71 C1695.72,57.63 2446.5,58.73 2446.5,69 C2446.5,79.27 1695.72,80.37 1499.78,72.29 " fill="none" id="aName-aName-2" style="stroke:#181818;stroke-width:1.0;"/><text fill="#000000" font-family="sans-serif" font-size="13" lengthAdjust="spacing" textLength="170" x="2459.5" y="73.5669">WebClient_Builder Provider</text><path d="M1492.4236,58.9363 A10,10 0 0 0 1493.0063 73.0664" fill="none" style="stroke:#181818;stroke-width:1.5;"/><ellipse cx="1499.78" cy="65.71" fill="#FFFFFF" rx="6" ry="6" style="stroke:#181818;stroke-width:1.5;"/></g><!--SRC=[nT8zJyD030RWFR_Y91QMeAQWy35ImKJBXv0wHDN9ITt4pLry-2wX2F7V2KF4m8IGkD6I_JwMPTzIvq30gXqT5YILmJieqTmFA0QSewvMGNfCEjwYUZ1GOSDcYw8lr7jIm0eiRbHHjDpxXjgMGmCrcDGx6KVJaZcabYfXZp9GXJvzPMbzm-x4l_c0zaY_pEQ7ipAu6ynNjvpZtYwNwyVD9lduYUOnqEmqXZgFWPx7G6SnqCiOQ9H7oh9_KAVyz7YMggcuKiHw3mEK0jHvRNaWf6ut4LhGSo-ZfP_GXsUqpa0OjvUnSLpz5waL131S_p5uZUN247P1N_VqTRplYKy0]--></g></svg>