<?xml version="1.0" encoding="us-ascii" standalone="no"?><svg xmlns="http://www.w3.org/2000/svg" xmlns:xlink="http://www.w3.org/1999/xlink" contentStyleType="text/css" height="214px" preserveAspectRatio="none" style="width:3645px;height:214px;background:#FFFFFF;" version="1.1" viewBox="0 0 3645 214" width="3645px" zoomAndPan="magnify"><defs/><g><!--cluster nodeWebClient_Builder_Provider--><g id="cluster_nodeWebClient_Builder_Provider"><polygon fill="none" points="16,89.06,26,79.06,348,79.06,348,187.06,338,197.06,16,197.06,16,89.06" style="stroke:#181818;stroke-width:1.0;"/><line style="stroke:#181818;stroke-width:1.0;" x1="338" x2="348" y1="89.06" y2="79.06"/><line style="stroke:#181818;stroke-width:1.0;" x1="16" x2="338" y1="89.06" y2="89.06"/><line style="stroke:#181818;stroke-width:1.0;" x1="338" x2="338" y1="89.06" y2="197.06"/><text fill="#000000" font-family="sans-serif" font-size="14" font-weight="bold" lengthAdjust="spacing" textLength="256" x="50" y="105.0551">nodeWebClient_Builder_Provider</text></g><!--cluster nodeio_javabrains_moviecatalogservice_resources_CatalogResource--><g id="cluster_nodeio_javabrains_moviecatalogservice_resources_CatalogResource"><polygon fill="none" points="388,89.06,398,79.06,1003,79.06,1003,187.06,993,197.06,388,197.06,388,89.06" style="stroke:#181818;stroke-width:1.0;"/><line style="stroke:#181818;stroke-width:1.0;" x1="993" x2="1003" y1="89.06" y2="79.06"/><line style="stroke:#181818;stroke-width:1.0;" x1="388" x2="993" y1="89.06" y2="89.06"/><line style="stroke:#181818;stroke-width:1.0;" x1="993" x2="993" y1="89.06" y2="197.06"/><text fill="#000000" font-family="sans-serif" font-size="14" font-weight="bold" lengthAdjust="spacing" textLength="539" x="422" y="105.0551">nodeio_javabrains_moviecatalogservice_resources_CatalogResource</text></g><!--cluster nodeio_javabrains_moviecatalogservice_resources_RestTemplate_Provider--><g id="cluster_nodeio_javabrains_moviecatalogservice_resources_RestTemplate_Provider"><polygon fill="none" points="1043,89.06,1053,79.06,1706,79.06,1706,187.06,1696,197.06,1043,197.06,1043,89.06" style="stroke:#181818;stroke-width:1.0;"/><line style="stroke:#181818;stroke-width:1.0;" x1="1696" x2="1706" y1="89.06" y2="79.06"/><line style="stroke:#181818;stroke-width:1.0;" x1="1043" x2="1696" y1="89.06" y2="89.06"/><line style="stroke:#181818;stroke-width:1.0;" x1="1696" x2="1696" y1="89.06" y2="197.06"/><text fill="#000000" font-family="sans-serif" font-size="14" font-weight="bold" lengthAdjust="spacing" textLength="587" x="1077" y="105.0551">nodeio_javabrains_moviecatalogservice_resources_RestTemplate_Provider</text></g><!--cluster nodeio_javabrains_movieinfoservice_resources_MovieResource--><g id="cluster_nodeio_javabrains_movieinfoservice_resources_MovieResource"><polygon fill="none" points="2422,89.06,2432,79.06,2997,79.06,2997,187.06,2987,197.06,2422,197.06,2422,89.06" style="stroke:#181818;stroke-width:1.0;"/><line style="stroke:#181818;stroke-width:1.0;" x1="2987" x2="2997" y1="89.06" y2="79.06"/><line style="stroke:#181818;stroke-width:1.0;" x1="2422" x2="2987" y1="89.06" y2="89.06"/><line style="stroke:#181818;stroke-width:1.0;" x1="2987" x2="2987" y1="89.06" y2="197.06"/><text fill="#000000" font-family="sans-serif" font-size="14" font-weight="bold" lengthAdjust="spacing" textLength="499" x="2456" y="105.0551">nodeio_javabrains_movieinfoservice_resources_MovieResource</text></g><!--cluster nodeio_javabrains_movieinfoservice_resources_RestTemplate_Provider--><g id="cluster_nodeio_javabrains_movieinfoservice_resources_RestTemplate_Provider"><polygon fill="none" points="1746,89.06,1756,79.06,2382,79.06,2382,187.06,2372,197.06,1746,197.06,1746,89.06" style="stroke:#181818;stroke-width:1.0;"/><line style="stroke:#181818;stroke-width:1.0;" x1="2372" x2="2382" y1="89.06" y2="79.06"/><line style="stroke:#181818;stroke-width:1.0;" x1="1746" x2="2372" y1="89.06" y2="89.06"/><line style="stroke:#181818;stroke-width:1.0;" x1="2372" x2="2372" y1="89.06" y2="197.06"/><text fill="#000000" font-family="sans-serif" font-size="14" font-weight="bold" lengthAdjust="spacing" textLength="560" x="1780" y="105.0551">nodeio_javabrains_movieinfoservice_resources_RestTemplate_Provider</text></g><!--cluster nodeio_javabrains_ratingsdataservice_resources_RatingsResource--><g id="cluster_nodeio_javabrains_ratingsdataservice_resources_RatingsResource"><polygon fill="none" points="3029,97.06,3039,87.06,3628,87.06,3628,179.06,3618,189.06,3029,189.06,3029,97.06" style="stroke:#181818;stroke-width:1.0;"/><line style="stroke:#181818;stroke-width:1.0;" x1="3618" x2="3628" y1="97.06" y2="87.06"/><line style="stroke:#181818;stroke-width:1.0;" x1="3029" x2="3618" y1="97.06" y2="97.06"/><line style="stroke:#181818;stroke-width:1.0;" x1="3618" x2="3618" y1="97.06" y2="189.06"/><text fill="#000000" font-family="sans-serif" font-size="14" font-weight="bold" lengthAdjust="spacing" textLength="523" x="3063" y="113.0551">nodeio_javabrains_ratingsdataservice_resources_RatingsResource</text></g><!--entity WebClient_Builder_Provider--><g id="elem_WebClient_Builder_Provider"><a href="koushikkothagal-spring-boot-microservices-workshop.system#_-qqh5I1jEe-uT9HSBJfKaA" target="_top" title="koushikkothagal-spring-boot-microservices-workshop.system#_-qqh5I1jEe-uT9HSBJfKaA" xlink:actuate="onRequest" xlink:href="koushikkothagal-spring-boot-microservices-workshop.system#_-qqh5I1jEe-uT9HSBJfKaA" xlink:show="new" xlink:title="koushikkothagal-spring-boot-microservices-workshop.system#_-qqh5I1jEe-uT9HSBJfKaA" xlink:type="simple"><rect fill="#F1F1F1" height="46.2969" rx="2.5" ry="2.5" style="stroke:#181818;stroke-width:0.5;" width="228" x="96" y="127.06"/><rect fill="#F1F1F1" height="10" style="stroke:#181818;stroke-width:0.5;" width="15" x="304" y="132.06"/><rect fill="#F1F1F1" height="2" style="stroke:#181818;stroke-width:0.5;" width="4" x="302" y="134.06"/><rect fill="#F1F1F1" height="2" style="stroke:#181818;stroke-width:0.5;" width="4" x="302" y="138.06"/><text fill="#000000" font-family="sans-serif" font-size="14" lengthAdjust="spacing" textLength="188" x="111" y="160.0551">WebClient_Builder_Provider</text></a></g><!--entity io_javabrains_moviecatalogservice_resources_CatalogResource--><g id="elem_io_javabrains_moviecatalogservice_resources_CatalogResource"><a href="koushikkothagal-spring-boot-microservices-workshop.system#_-qqh5I1jEe-uT9HSBJfKaA" target="_top" title="koushikkothagal-spring-boot-microservices-workshop.system#_-qqh5I1jEe-uT9HSBJfKaA" xlink:actuate="onRequest" xlink:href="koushikkothagal-spring-boot-microservices-workshop.system#_-qqh5I1jEe-uT9HSBJfKaA" xlink:show="new" xlink:title="koushikkothagal-spring-boot-microservices-workshop.system#_-qqh5I1jEe-uT9HSBJfKaA" xlink:type="simple"><rect fill="#F1F1F1" height="46.2969" rx="2.5" ry="2.5" style="stroke:#181818;stroke-width:0.5;" width="477" x="483.5" y="127.06"/><rect fill="#F1F1F1" height="10" style="stroke:#181818;stroke-width:0.5;" width="15" x="940.5" y="132.06"/><rect fill="#F1F1F1" height="2" style="stroke:#181818;stroke-width:0.5;" width="4" x="938.5" y="134.06"/><rect fill="#F1F1F1" height="2" style="stroke:#181818;stroke-width:0.5;" width="4" x="938.5" y="138.06"/><text fill="#000000" font-family="sans-serif" font-size="14" lengthAdjust="spacing" textLength="437" x="498.5" y="160.0551">io_javabrains_moviecatalogservice_resources_CatalogResource</text></a></g><!--entity io_javabrains_moviecatalogservice_resources_RestTemplate_Provider--><g id="elem_io_javabrains_moviecatalogservice_resources_RestTemplate_Provider"><a href="koushikkothagal-spring-boot-microservices-workshop.system#_-qqh5I1jEe-uT9HSBJfKaA" target="_top" title="koushikkothagal-spring-boot-microservices-workshop.system#_-qqh5I1jEe-uT9HSBJfKaA" xlink:actuate="onRequest" xlink:href="koushikkothagal-spring-boot-microservices-workshop.system#_-qqh5I1jEe-uT9HSBJfKaA" xlink:show="new" xlink:title="koushikkothagal-spring-boot-microservices-workshop.system#_-qqh5I1jEe-uT9HSBJfKaA" xlink:type="simple"><rect fill="#F1F1F1" height="46.2969" rx="2.5" ry="2.5" style="stroke:#181818;stroke-width:0.5;" width="518" x="1125" y="127.06"/><rect fill="#F1F1F1" height="10" style="stroke:#181818;stroke-width:0.5;" width="15" x="1623" y="132.06"/><rect fill="#F1F1F1" height="2" style="stroke:#181818;stroke-width:0.5;" width="4" x="1621" y="134.06"/><rect fill="#F1F1F1" height="2" style="stroke:#181818;stroke-width:0.5;" width="4" x="1621" y="138.06"/><text fill="#000000" font-family="sans-serif" font-size="14" lengthAdjust="spacing" textLength="478" x="1140" y="160.0551">io_javabrains_moviecatalogservice_resources_RestTemplate_Provider</text></a></g><!--entity io_javabrains_movieinfoservice_resources_MovieResource--><g id="elem_io_javabrains_movieinfoservice_resources_MovieResource"><a href="koushikkothagal-spring-boot-microservices-workshop.system#_-qqh5I1jEe-uT9HSBJfKaA" target="_top" title="koushikkothagal-spring-boot-microservices-workshop.system#_-qqh5I1jEe-uT9HSBJfKaA" xlink:actuate="onRequest" xlink:href="koushikkothagal-spring-boot-microservices-workshop.system#_-qqh5I1jEe-uT9HSBJfKaA" xlink:show="new" xlink:title="koushikkothagal-spring-boot-microservices-workshop.system#_-qqh5I1jEe-uT9HSBJfKaA" xlink:type="simple"><rect fill="#F1F1F1" height="46.2969" rx="2.5" ry="2.5" style="stroke:#181818;stroke-width:0.5;" width="440" x="2499" y="127.06"/><rect fill="#F1F1F1" height="10" style="stroke:#181818;stroke-width:0.5;" width="15" x="2919" y="132.06"/><rect fill="#F1F1F1" height="2" style="stroke:#181818;stroke-width:0.5;" width="4" x="2917" y="134.06"/><rect fill="#F1F1F1" height="2" style="stroke:#181818;stroke-width:0.5;" width="4" x="2917" y="138.06"/><text fill="#000000" font-family="sans-serif" font-size="14" lengthAdjust="spacing" textLength="400" x="2514" y="160.0551">io_javabrains_movieinfoservice_resources_MovieResource</text></a></g><!--entity io_javabrains_movieinfoservice_resources_RestTemplate_Provider--><g id="elem_io_javabrains_movieinfoservice_resources_RestTemplate_Provider"><a href="koushikkothagal-spring-boot-microservices-workshop.system#_-qqh5I1jEe-uT9HSBJfKaA" target="_top" title="koushikkothagal-spring-boot-microservices-workshop.system#_-qqh5I1jEe-uT9HSBJfKaA" xlink:actuate="onRequest" xlink:href="koushikkothagal-spring-boot-microservices-workshop.system#_-qqh5I1jEe-uT9HSBJfKaA" xlink:show="new" xlink:title="koushikkothagal-spring-boot-microservices-workshop.system#_-qqh5I1jEe-uT9HSBJfKaA" xlink:type="simple"><rect fill="#F1F1F1" height="46.2969" rx="2.5" ry="2.5" style="stroke:#181818;stroke-width:0.5;" width="493" x="1865.5" y="127.06"/><rect fill="#F1F1F1" height="10" style="stroke:#181818;stroke-width:0.5;" width="15" x="2338.5" y="132.06"/><rect fill="#F1F1F1" height="2" style="stroke:#181818;stroke-width:0.5;" width="4" x="2336.5" y="134.06"/><rect fill="#F1F1F1" height="2" style="stroke:#181818;stroke-width:0.5;" width="4" x="2336.5" y="138.06"/><text fill="#000000" font-family="sans-serif" font-size="14" lengthAdjust="spacing" textLength="453" x="1880.5" y="160.0551">io_javabrains_movieinfoservice_resources_RestTemplate_Provider</text></a></g><!--entity io_javabrains_ratingsdataservice_resources_RatingsResource--><g id="elem_io_javabrains_ratingsdataservice_resources_RatingsResource"><a href="koushikkothagal-spring-boot-microservices-workshop.system#_-qqh5I1jEe-uT9HSBJfKaA" target="_top" title="koushikkothagal-spring-boot-microservices-workshop.system#_-qqh5I1jEe-uT9HSBJfKaA" xlink:actuate="onRequest" xlink:href="koushikkothagal-spring-boot-microservices-workshop.system#_-qqh5I1jEe-uT9HSBJfKaA" xlink:show="new" xlink:title="koushikkothagal-spring-boot-microservices-workshop.system#_-qqh5I1jEe-uT9HSBJfKaA" xlink:type="simple"><rect fill="#F1F1F1" height="46.2969" rx="2.5" ry="2.5" style="stroke:#181818;stroke-width:0.5;" width="463" x="3096.5" y="127.06"/><rect fill="#F1F1F1" height="10" style="stroke:#181818;stroke-width:0.5;" width="15" x="3539.5" y="132.06"/><rect fill="#F1F1F1" height="2" style="stroke:#181818;stroke-width:0.5;" width="4" x="3537.5" y="134.06"/><rect fill="#F1F1F1" height="2" style="stroke:#181818;stroke-width:0.5;" width="4" x="3537.5" y="138.06"/><text fill="#000000" font-family="sans-serif" font-size="14" lengthAdjust="spacing" textLength="423" x="3111.5" y="160.0551">io_javabrains_ratingsdataservice_resources_RatingsResource</text></a></g><!--link nodeWebClient_Builder_Provider to nodeio_javabrains_moviecatalogservice_resources_CatalogResource--><g id="link_nodeWebClient_Builder_Provider_nodeio_javabrains_moviecatalogservice_resources_CatalogResource"><path d="M66.096,78.6415 C66.1511,78.4464 66.2068,78.2513 66.2629,78.0564 C66.3752,77.6666 66.4893,77.2773 66.6053,76.8885 C66.8374,76.1111 67.0771,75.336 67.3247,74.5637 C67.8198,73.019 68.3464,71.4857 68.9063,69.9678 C70.0261,66.9318 71.2789,63.9571 72.6794,61.0761 C78.2813,49.5519 86.245,39.525 97.5,33.06 C140.86,8.16 276.67,13.06 322.5,33.06 C337.9875,39.82 352.2544,50.0013 365.0031,61.5895 C371.3775,67.3837 377.3723,73.5296 382.9505,79.7754 C384.345,81.3369 385.7135,82.9046 387.0553,84.4747 C387.2231,84.6709 387.3904,84.8672 387.5573,85.0635 " fill="none" id="nodeWebClient_Builder_Provider-nodeio_javabrains_moviecatalogservice_resources_CatalogResource" style="stroke:#181818;stroke-width:1.0;"/></g><!--link nodeio_javabrains_moviecatalogservice_resources_RestTemplate_Provider to nodeio_javabrains_moviecatalogservice_resources_CatalogResource--><g id="link_nodeio_javabrains_moviecatalogservice_resources_RestTemplate_Provider_nodeio_javabrains_moviecatalogservice_resources_CatalogResource"><path d="M1042.8673,131.1233 C1042.7304,130.8333 1042.5917,130.5409 1042.4514,130.2461 C1042.1706,129.6564 1041.8831,129.0569 1041.5888,128.4483 C1041.0001,127.2309 1040.3844,125.9765 1039.7416,124.6891 C1038.456,122.1141 1037.0623,119.4067 1035.5617,116.598 C1032.5605,110.9805 1029.1313,104.9578 1025.2825,98.7788 C1009.8875,74.0625 987.78,46.845 959.5,33.06 C912.06,9.94 530.27,6.77 484.5,33.06 C472.685,39.845 463.4631,50.0394 456.2694,61.6331 C454.4709,64.5316 452.7993,67.5175 451.2455,70.5594 C450.4686,72.0804 449.7212,73.6154 449.0022,75.1605 C448.6427,75.933 448.2903,76.7081 447.9449,77.4852 C447.7721,77.8737 447.6011,78.2628 447.4319,78.6523 " fill="none" id="nodeio_javabrains_moviecatalogservice_resources_RestTemplate_Provider-nodeio_javabrains_moviecatalogservice_resources_CatalogResource" style="stroke:#181818;stroke-width:1.0;"/></g><!--link nodeio_javabrains_movieinfoservice_resources_RestTemplate_Provider to nodeio_javabrains_movieinfoservice_resources_MovieResource--><g id="link_nodeio_javabrains_movieinfoservice_resources_RestTemplate_Provider_nodeio_javabrains_movieinfoservice_resources_MovieResource"><path d="M1835.7574,78.6705 C1835.8143,78.4754 1835.8716,78.2803 1835.9294,78.0854 C1836.045,77.6956 1836.1625,77.3063 1836.2819,76.9176 C1836.5206,76.1401 1836.767,75.365 1837.0212,74.5926 C1837.5295,73.048 1838.0691,71.5145 1838.6417,69.9964 C1839.787,66.96 1841.0643,63.9848 1842.488,61.1028 C1848.1825,49.575 1856.2175,39.54 1867.5,33.06 C1914.61,6 2308.95,6.78 2356.5,33.06 C2382.115,47.215 2400.0075,74.45 2411.7213,99.0838 C2414.6497,105.2422 2417.192,111.238 2419.3722,116.8263 C2419.9172,118.2234 2420.4396,119.595 2420.9398,120.9373 C2421.1899,121.6084 2421.4344,122.2722 2421.6734,122.9282 C2421.7332,123.0922 2421.7926,123.2557 2421.8517,123.4188 " fill="none" id="nodeio_javabrains_movieinfoservice_resources_RestTemplate_Provider-nodeio_javabrains_movieinfoservice_resources_MovieResource" style="stroke:#181818;stroke-width:1.0;"/></g><!--SRC=[pLHDImCn4BtlhmXuZg3WmQCjWfyejk1XMPRPxRIRRf999zdL8lvtKreKqQfBhVOIGbxcpNlCXw-LTS1Wn5WzzXMN6g-WG7tJ8cjmJjc92DnWuby_bcGSMRHX4EOQHMFqOM9fX69nt6FHrog2UQzHUeIStpArAbx4KvAkHpEHfZKrlb9rJQ622MZf7SVqiY0AqgYIoIEtgaGl7uXhNv7RztCVqEpbSZQhZiuFfgSec-7nsQ1tCRw4aonBdj-aASgdq4B1eApFJSoB9GJGD5dnveoU6eu9yluIk5izBBHl4BvZvgAiC4JZD0HyLvwDIVx7gB9Z-YZmUW5zKy0VHEwIfIw5wy3mvnOPGYJtezXRdqXSWkihroLwUzRIhxTT9gH8DzmwMPB-ocXlLqkdHbilv2UZcBm0]--></g></svg>