<?xml version="1.0" encoding="us-ascii" standalone="no"?><svg xmlns="http://www.w3.org/2000/svg" xmlns:xlink="http://www.w3.org/1999/xlink" contentStyleType="text/css" height="281px" preserveAspectRatio="none" style="width:3526px;height:281px;background:#FFFFFF;" version="1.1" viewBox="0 0 3526 281" width="3526px" zoomAndPan="magnify"><defs/><g><!--cluster nodeCatalogResource--><g id="cluster_nodeCatalogResource"><polygon fill="none" points="388,89.06,398,79.06,970,79.06,970,254.06,960,264.06,388,264.06,388,89.06" style="stroke:#181818;stroke-width:1.0;"/><line style="stroke:#181818;stroke-width:1.0;" x1="960" x2="970" y1="89.06" y2="79.06"/><line style="stroke:#181818;stroke-width:1.0;" x1="388" x2="960" y1="89.06" y2="89.06"/><line style="stroke:#181818;stroke-width:1.0;" x1="960" x2="960" y1="89.06" y2="264.06"/><text fill="#000000" font-family="sans-serif" font-size="14" font-weight="bold" lengthAdjust="spacing" textLength="174" x="588" y="105.0551">nodeCatalogResource</text></g><!--cluster CatalogResource--><g id="cluster_CatalogResource"><rect fill="none" height="97" rx="2.5" ry="2.5" style="stroke:#181818;stroke-width:1.0;" width="510" x="428" y="135.06"/><rect fill="none" height="10" style="stroke:#181818;stroke-width:1.0;" width="15" x="918" y="140.06"/><rect fill="none" height="2" style="stroke:#181818;stroke-width:1.0;" width="4" x="916" y="142.06"/><rect fill="none" height="2" style="stroke:#181818;stroke-width:1.0;" width="4" x="916" y="146.06"/><text fill="#000000" font-family="sans-serif" font-size="14" font-weight="bold" lengthAdjust="spacing" textLength="134" x="616" y="161.0551">CatalogResource</text></g><!--cluster nodeMovieResource--><g id="cluster_nodeMovieResource"><polygon fill="none" points="2389,89.06,2399,79.06,2933,79.06,2933,254.06,2923,264.06,2389,264.06,2389,89.06" style="stroke:#181818;stroke-width:1.0;"/><line style="stroke:#181818;stroke-width:1.0;" x1="2923" x2="2933" y1="89.06" y2="79.06"/><line style="stroke:#181818;stroke-width:1.0;" x1="2389" x2="2923" y1="89.06" y2="89.06"/><line style="stroke:#181818;stroke-width:1.0;" x1="2923" x2="2923" y1="89.06" y2="264.06"/><text fill="#000000" font-family="sans-serif" font-size="14" font-weight="bold" lengthAdjust="spacing" textLength="161" x="2576.5" y="105.0551">nodeMovieResource</text></g><!--cluster MovieResource--><g id="cluster_MovieResource"><rect fill="none" height="97" rx="2.5" ry="2.5" style="stroke:#181818;stroke-width:1.0;" width="472" x="2429" y="135.06"/><rect fill="none" height="10" style="stroke:#181818;stroke-width:1.0;" width="15" x="2881" y="140.06"/><rect fill="none" height="2" style="stroke:#181818;stroke-width:1.0;" width="4" x="2879" y="142.06"/><rect fill="none" height="2" style="stroke:#181818;stroke-width:1.0;" width="4" x="2879" y="146.06"/><text fill="#000000" font-family="sans-serif" font-size="14" font-weight="bold" lengthAdjust="spacing" textLength="121" x="2604.5" y="161.0551">MovieResource</text></g><!--cluster nodeRatingsResource--><g id="cluster_nodeRatingsResource"><polygon fill="none" points="2965,97.06,2975,87.06,3509,87.06,3509,246.06,3499,256.06,2965,256.06,2965,97.06" style="stroke:#181818;stroke-width:1.0;"/><line style="stroke:#181818;stroke-width:1.0;" x1="3499" x2="3509" y1="97.06" y2="87.06"/><line style="stroke:#181818;stroke-width:1.0;" x1="2965" x2="3499" y1="97.06" y2="97.06"/><line style="stroke:#181818;stroke-width:1.0;" x1="3499" x2="3499" y1="97.06" y2="256.06"/><text fill="#000000" font-family="sans-serif" font-size="14" font-weight="bold" lengthAdjust="spacing" textLength="173" x="3146.5" y="113.0551">nodeRatingsResource</text></g><!--cluster RatingsResource--><g id="cluster_RatingsResource"><rect fill="none" height="97" rx="2.5" ry="2.5" style="stroke:#181818;stroke-width:1.0;" width="496" x="2989" y="135.06"/><rect fill="none" height="10" style="stroke:#181818;stroke-width:1.0;" width="15" x="3465" y="140.06"/><rect fill="none" height="2" style="stroke:#181818;stroke-width:1.0;" width="4" x="3463" y="142.06"/><rect fill="none" height="2" style="stroke:#181818;stroke-width:1.0;" width="4" x="3463" y="146.06"/><text fill="#000000" font-family="sans-serif" font-size="14" font-weight="bold" lengthAdjust="spacing" textLength="133" x="3170.5" y="161.0551">RatingsResource</text></g><!--cluster nodeWebClient_Builder_Provider--><g id="cluster_nodeWebClient_Builder_Provider"><polygon fill="none" points="16,132.06,26,122.06,348,122.06,348,230.06,338,240.06,16,240.06,16,132.06" style="stroke:#181818;stroke-width:1.0;"/><line style="stroke:#181818;stroke-width:1.0;" x1="338" x2="348" y1="132.06" y2="122.06"/><line style="stroke:#181818;stroke-width:1.0;" x1="16" x2="338" y1="132.06" y2="132.06"/><line style="stroke:#181818;stroke-width:1.0;" x1="338" x2="338" y1="132.06" y2="240.06"/><text fill="#000000" font-family="sans-serif" font-size="14" font-weight="bold" lengthAdjust="spacing" textLength="256" x="50" y="148.0551">nodeWebClient_Builder_Provider</text></g><!--cluster nodeio_javabrains_moviecatalogservice_resources_RestTemplate_Provider--><g id="cluster_nodeio_javabrains_moviecatalogservice_resources_RestTemplate_Provider"><polygon fill="none" points="1010,132.06,1020,122.06,1673,122.06,1673,230.06,1663,240.06,1010,240.06,1010,132.06" style="stroke:#181818;stroke-width:1.0;"/><line style="stroke:#181818;stroke-width:1.0;" x1="1663" x2="1673" y1="132.06" y2="122.06"/><line style="stroke:#181818;stroke-width:1.0;" x1="1010" x2="1663" y1="132.06" y2="132.06"/><line style="stroke:#181818;stroke-width:1.0;" x1="1663" x2="1663" y1="132.06" y2="240.06"/><text fill="#000000" font-family="sans-serif" font-size="14" font-weight="bold" lengthAdjust="spacing" textLength="587" x="1044" y="148.0551">nodeio_javabrains_moviecatalogservice_resources_RestTemplate_Provider</text></g><!--cluster nodeio_javabrains_movieinfoservice_resources_RestTemplate_Provider--><g id="cluster_nodeio_javabrains_movieinfoservice_resources_RestTemplate_Provider"><polygon fill="none" points="1713,132.06,1723,122.06,2349,122.06,2349,230.06,2339,240.06,1713,240.06,1713,132.06" style="stroke:#181818;stroke-width:1.0;"/><line style="stroke:#181818;stroke-width:1.0;" x1="2339" x2="2349" y1="132.06" y2="122.06"/><line style="stroke:#181818;stroke-width:1.0;" x1="1713" x2="2339" y1="132.06" y2="132.06"/><line style="stroke:#181818;stroke-width:1.0;" x1="2339" x2="2339" y1="132.06" y2="240.06"/><text fill="#000000" font-family="sans-serif" font-size="14" font-weight="bold" lengthAdjust="spacing" textLength="560" x="1747" y="148.0551">nodeio_javabrains_movieinfoservice_resources_RestTemplate_Provider</text></g><!--entity io_javabrains_moviecatalogservice_resources_CatalogResource--><g id="elem_io_javabrains_moviecatalogservice_resources_CatalogResource"><a href="koushikkothagal-spring-boot-microservices-workshop.system#_S7DS5cBFEe6izKWjMypg5g" target="_top" title="koushikkothagal-spring-boot-microservices-workshop.system#_S7DS5cBFEe6izKWjMypg5g" xlink:actuate="onRequest" xlink:href="koushikkothagal-spring-boot-microservices-workshop.system#_S7DS5cBFEe6izKWjMypg5g" xlink:show="new" xlink:title="koushikkothagal-spring-boot-microservices-workshop.system#_S7DS5cBFEe6izKWjMypg5g" xlink:type="simple"><rect fill="#F1F1F1" height="46.2969" rx="2.5" ry="2.5" style="stroke:#181818;stroke-width:0.5;" width="477" x="444.5" y="170.06"/><rect fill="#F1F1F1" height="10" style="stroke:#181818;stroke-width:0.5;" width="15" x="901.5" y="175.06"/><rect fill="#F1F1F1" height="2" style="stroke:#181818;stroke-width:0.5;" width="4" x="899.5" y="177.06"/><rect fill="#F1F1F1" height="2" style="stroke:#181818;stroke-width:0.5;" width="4" x="899.5" y="181.06"/><text fill="#000000" font-family="sans-serif" font-size="14" lengthAdjust="spacing" textLength="437" x="459.5" y="203.0551">io_javabrains_moviecatalogservice_resources_CatalogResource</text></a></g><!--entity io_javabrains_movieinfoservice_resources_MovieResource--><g id="elem_io_javabrains_movieinfoservice_resources_MovieResource"><a href="koushikkothagal-spring-boot-microservices-workshop.system#_S7DS5cBFEe6izKWjMypg5g" target="_top" title="koushikkothagal-spring-boot-microservices-workshop.system#_S7DS5cBFEe6izKWjMypg5g" xlink:actuate="onRequest" xlink:href="koushikkothagal-spring-boot-microservices-workshop.system#_S7DS5cBFEe6izKWjMypg5g" xlink:show="new" xlink:title="koushikkothagal-spring-boot-microservices-workshop.system#_S7DS5cBFEe6izKWjMypg5g" xlink:type="simple"><rect fill="#F1F1F1" height="46.2969" rx="2.5" ry="2.5" style="stroke:#181818;stroke-width:0.5;" width="440" x="2445" y="170.06"/><rect fill="#F1F1F1" height="10" style="stroke:#181818;stroke-width:0.5;" width="15" x="2865" y="175.06"/><rect fill="#F1F1F1" height="2" style="stroke:#181818;stroke-width:0.5;" width="4" x="2863" y="177.06"/><rect fill="#F1F1F1" height="2" style="stroke:#181818;stroke-width:0.5;" width="4" x="2863" y="181.06"/><text fill="#000000" font-family="sans-serif" font-size="14" lengthAdjust="spacing" textLength="400" x="2460" y="203.0551">io_javabrains_movieinfoservice_resources_MovieResource</text></a></g><!--entity io_javabrains_ratingsdataservice_resources_RatingsResource--><g id="elem_io_javabrains_ratingsdataservice_resources_RatingsResource"><a href="koushikkothagal-spring-boot-microservices-workshop.system#_S7DS5cBFEe6izKWjMypg5g" target="_top" title="koushikkothagal-spring-boot-microservices-workshop.system#_S7DS5cBFEe6izKWjMypg5g" xlink:actuate="onRequest" xlink:href="koushikkothagal-spring-boot-microservices-workshop.system#_S7DS5cBFEe6izKWjMypg5g" xlink:show="new" xlink:title="koushikkothagal-spring-boot-microservices-workshop.system#_S7DS5cBFEe6izKWjMypg5g" xlink:type="simple"><rect fill="#F1F1F1" height="46.2969" rx="2.5" ry="2.5" style="stroke:#181818;stroke-width:0.5;" width="463" x="3005.5" y="170.06"/><rect fill="#F1F1F1" height="10" style="stroke:#181818;stroke-width:0.5;" width="15" x="3448.5" y="175.06"/><rect fill="#F1F1F1" height="2" style="stroke:#181818;stroke-width:0.5;" width="4" x="3446.5" y="177.06"/><rect fill="#F1F1F1" height="2" style="stroke:#181818;stroke-width:0.5;" width="4" x="3446.5" y="181.06"/><text fill="#000000" font-family="sans-serif" font-size="14" lengthAdjust="spacing" textLength="423" x="3020.5" y="203.0551">io_javabrains_ratingsdataservice_resources_RatingsResource</text></a></g><!--entity WebClient_Builder_Provider--><g id="elem_WebClient_Builder_Provider"><a href="koushikkothagal-spring-boot-microservices-workshop.system#_S7DS5cBFEe6izKWjMypg5g" target="_top" title="koushikkothagal-spring-boot-microservices-workshop.system#_S7DS5cBFEe6izKWjMypg5g" xlink:actuate="onRequest" xlink:href="koushikkothagal-spring-boot-microservices-workshop.system#_S7DS5cBFEe6izKWjMypg5g" xlink:show="new" xlink:title="koushikkothagal-spring-boot-microservices-workshop.system#_S7DS5cBFEe6izKWjMypg5g" xlink:type="simple"><rect fill="#F1F1F1" height="46.2969" rx="2.5" ry="2.5" style="stroke:#181818;stroke-width:0.5;" width="228" x="96" y="170.06"/><rect fill="#F1F1F1" height="10" style="stroke:#181818;stroke-width:0.5;" width="15" x="304" y="175.06"/><rect fill="#F1F1F1" height="2" style="stroke:#181818;stroke-width:0.5;" width="4" x="302" y="177.06"/><rect fill="#F1F1F1" height="2" style="stroke:#181818;stroke-width:0.5;" width="4" x="302" y="181.06"/><text fill="#000000" font-family="sans-serif" font-size="14" lengthAdjust="spacing" textLength="188" x="111" y="203.0551">WebClient_Builder_Provider</text></a></g><!--entity io_javabrains_moviecatalogservice_resources_RestTemplate_Provider--><g id="elem_io_javabrains_moviecatalogservice_resources_RestTemplate_Provider"><a href="koushikkothagal-spring-boot-microservices-workshop.system#_S7DS5cBFEe6izKWjMypg5g" target="_top" title="koushikkothagal-spring-boot-microservices-workshop.system#_S7DS5cBFEe6izKWjMypg5g" xlink:actuate="onRequest" xlink:href="koushikkothagal-spring-boot-microservices-workshop.system#_S7DS5cBFEe6izKWjMypg5g" xlink:show="new" xlink:title="koushikkothagal-spring-boot-microservices-workshop.system#_S7DS5cBFEe6izKWjMypg5g" xlink:type="simple"><rect fill="#F1F1F1" height="46.2969" rx="2.5" ry="2.5" style="stroke:#181818;stroke-width:0.5;" width="518" x="1092" y="170.06"/><rect fill="#F1F1F1" height="10" style="stroke:#181818;stroke-width:0.5;" width="15" x="1590" y="175.06"/><rect fill="#F1F1F1" height="2" style="stroke:#181818;stroke-width:0.5;" width="4" x="1588" y="177.06"/><rect fill="#F1F1F1" height="2" style="stroke:#181818;stroke-width:0.5;" width="4" x="1588" y="181.06"/><text fill="#000000" font-family="sans-serif" font-size="14" lengthAdjust="spacing" textLength="478" x="1107" y="203.0551">io_javabrains_moviecatalogservice_resources_RestTemplate_Provider</text></a></g><!--entity io_javabrains_movieinfoservice_resources_RestTemplate_Provider--><g id="elem_io_javabrains_movieinfoservice_resources_RestTemplate_Provider"><a href="koushikkothagal-spring-boot-microservices-workshop.system#_S7DS5cBFEe6izKWjMypg5g" target="_top" title="koushikkothagal-spring-boot-microservices-workshop.system#_S7DS5cBFEe6izKWjMypg5g" xlink:actuate="onRequest" xlink:href="koushikkothagal-spring-boot-microservices-workshop.system#_S7DS5cBFEe6izKWjMypg5g" xlink:show="new" xlink:title="koushikkothagal-spring-boot-microservices-workshop.system#_S7DS5cBFEe6izKWjMypg5g" xlink:type="simple"><rect fill="#F1F1F1" height="46.2969" rx="2.5" ry="2.5" style="stroke:#181818;stroke-width:0.5;" width="493" x="1832.5" y="170.06"/><rect fill="#F1F1F1" height="10" style="stroke:#181818;stroke-width:0.5;" width="15" x="2305.5" y="175.06"/><rect fill="#F1F1F1" height="2" style="stroke:#181818;stroke-width:0.5;" width="4" x="2303.5" y="177.06"/><rect fill="#F1F1F1" height="2" style="stroke:#181818;stroke-width:0.5;" width="4" x="2303.5" y="181.06"/><text fill="#000000" font-family="sans-serif" font-size="14" lengthAdjust="spacing" textLength="453" x="1847.5" y="203.0551">io_javabrains_movieinfoservice_resources_RestTemplate_Provider</text></a></g><!--link nodeWebClient_Builder_Provider to nodeCatalogResource--><g id="link_nodeWebClient_Builder_Provider_nodeCatalogResource"><path d="M55.7567,121.7219 C55.7867,121.1796 55.8187,120.6366 55.8527,120.0929 C55.9207,119.0055 55.9968,117.9155 56.0813,116.8235 C56.2504,114.6395 56.4533,112.4478 56.6935,110.2541 C57.1737,105.8668 57.8024,101.4717 58.6056,97.1159 C60.212,88.4043 62.5161,79.8493 65.7253,71.8258 C72.1438,55.7788 82.1825,41.8575 97.5,33.06 C140.86,8.16 279.14,8.16 322.5,33.06 C354.84,51.635 373.0475,88.8425 383.2488,122.705 C384.5239,126.9378 385.674,131.1184 386.7109,135.2037 C386.9701,136.2251 387.2223,137.2404 387.4676,138.2492 C387.5902,138.7536 387.7111,139.2563 387.8303,139.7573 " fill="none" id="nodeWebClient_Builder_Provider-nodeCatalogResource" style="stroke:#181818;stroke-width:1.0;"/></g><!--link nodeio_javabrains_moviecatalogservice_resources_RestTemplate_Provider to nodeCatalogResource--><g id="link_nodeio_javabrains_moviecatalogservice_resources_RestTemplate_Provider_nodeCatalogResource"><path d="M1009.8773,163.7595 C1009.3429,162.1069 1008.78,160.4037 1008.188,158.6552 C1007.0041,155.1581 1005.704,151.4798 1004.2827,147.662 C1001.4402,140.0263 998.1134,131.8325 994.2638,123.415 C978.865,89.745 955.1,52.495 920.5,33.06 C874.48,7.21 491.27,6.77 445.5,33.06 C430.12,41.895 419.2588,55.6038 411.6361,71.362 C410.6833,73.3318 409.781,75.3336 408.9269,77.3619 C408.7134,77.869 408.5028,78.3778 408.2953,78.8881 " fill="none" id="nodeio_javabrains_moviecatalogservice_resources_RestTemplate_Provider-nodeCatalogResource" style="stroke:#181818;stroke-width:1.0;"/></g><!--link nodeio_javabrains_movieinfoservice_resources_RestTemplate_Provider to nodeMovieResource--><g id="link_nodeio_javabrains_movieinfoservice_resources_RestTemplate_Provider_nodeMovieResource"><path d="M1792.2526,121.7409 C1792.2862,121.1987 1792.3219,120.6558 1792.3595,120.1122 C1792.4348,119.025 1792.5181,117.9352 1792.6099,116.8433 C1792.7935,114.6597 1793.011,112.4682 1793.2655,110.2749 C1793.7745,105.8881 1794.4318,101.4935 1795.2628,97.1379 C1796.9248,88.4267 1799.2819,79.8716 1802.5381,71.8469 C1809.0506,55.7975 1819.16,41.87 1834.5,33.06 C1881.61,6 2276.39,6 2323.5,33.06 C2355.84,51.635 2374.0475,88.8425 2384.2487,122.705 C2385.5239,126.9378 2386.674,131.1184 2387.7109,135.2037 C2387.9701,136.2251 2388.2223,137.2404 2388.4676,138.2492 C2388.5902,138.7536 2388.7111,139.2563 2388.8303,139.7573 " fill="none" id="nodeio_javabrains_movieinfoservice_resources_RestTemplate_Provider-nodeMovieResource" style="stroke:#181818;stroke-width:1.0;"/></g><!--SRC=[nPJHIyCm4CRV-rS4VAuFmlHzKrzqA9kmXr9Acjswh4akNDBg5FztCpOAQwjGT9D02Tnt7z_lUiILqbXENBELV9j84WeUUGxggGPIt5ff2kQfWiWrGe7QeW7ZvtwhW5LQNKK6by1sdmdtN64n0uSL2M0VKIDdtLeYCTlmckV4fN6Pnbg2sAiSK2q5P7HGkwpLdh8aAR5oQrcMwDUyu2fsbaBWE4VqiPQ2yE3YubUaqgtHNhgjyw0lildDxNmanlTtS2tV7nQRwTOMeo9Deyzm6fpfBb4lJBlIXoBD2hiSHvrdePXn7mnTBqUtrYAXlM0PfjzbQNMVXMO1-KJ9a3qRLr8jWR9d2YCDbrtuxwkd2zT46xBEOMR-1RHLtCCHmQzD_WUqVzc7K0vmE1rYylEAfIncISz3b-uR_-3V3VKVDBM3-V4J57q1]--></g></svg>