<?xml version="1.0" encoding="us-ascii" standalone="no"?><svg xmlns="http://www.w3.org/2000/svg" xmlns:xlink="http://www.w3.org/1999/xlink" contentStyleType="text/css" height="125px" preserveAspectRatio="none" style="width:8044px;height:125px;background:#FFFFFF;" version="1.1" viewBox="0 0 8044 125" width="8044px" zoomAndPan="magnify"><defs/><g><!--cluster Placeholder_13--><g id="cluster_Placeholder_13"><polygon fill="none" points="3008,16,3018,6,8027,6,8027,98,8017,108,3008,108,3008,16" style="stroke:#181818;stroke-width:1.0;"/><line style="stroke:#181818;stroke-width:1.0;" x1="8017" x2="8027" y1="16" y2="6"/><line style="stroke:#181818;stroke-width:1.0;" x1="3008" x2="8017" y1="16" y2="16"/><line style="stroke:#181818;stroke-width:1.0;" x1="8017" x2="8017" y1="16" y2="108"/><text fill="#000000" font-family="sans-serif" font-size="14" font-weight="bold" lengthAdjust="spacing" textLength="120" x="5453.5" y="31.9951">Placeholder_13</text></g><!--entity aName--><g id="elem_aName"><a href="ewolff-microservice.system#_X8MkJLy5Ee6K5NqwH9DI4A" target="_top" title="ewolff-microservice.system#_X8MkJLy5Ee6K5NqwH9DI4A" xlink:actuate="onRequest" xlink:href="ewolff-microservice.system#_X8MkJLy5Ee6K5NqwH9DI4A" xlink:show="new" xlink:title="ewolff-microservice.system#_X8MkJLy5Ee6K5NqwH9DI4A" xlink:type="simple"><rect fill="#F1F1F1" height="46.2969" rx="2.5" ry="2.5" style="stroke:#181818;stroke-width:0.5;" width="88" x="3024" y="46"/><rect fill="#F1F1F1" height="10" style="stroke:#181818;stroke-width:0.5;" width="15" x="3092" y="51"/><rect fill="#F1F1F1" height="2" style="stroke:#181818;stroke-width:0.5;" width="4" x="3090" y="53"/><rect fill="#F1F1F1" height="2" style="stroke:#181818;stroke-width:0.5;" width="4" x="3090" y="57"/><text fill="#000000" font-family="sans-serif" font-size="14" lengthAdjust="spacing" textLength="48" x="3039" y="78.9951">aName</text></a></g><!--entity Placeholder_21--><g id="elem_Placeholder_21"><polygon fill="#F1F1F1" points="16,56,26,46,162,46,162,82.2969,152,92.2969,16,92.2969,16,56" style="stroke:#181818;stroke-width:0.5;"/><line style="stroke:#181818;stroke-width:0.5;" x1="152" x2="162" y1="56" y2="46"/><line style="stroke:#181818;stroke-width:0.5;" x1="16" x2="152" y1="56" y2="56"/><line style="stroke:#181818;stroke-width:0.5;" x1="152" x2="152" y1="56" y2="92.2969"/><text fill="#000000" font-family="sans-serif" font-size="14" lengthAdjust="spacing" textLength="106" x="31" y="78.9951">Placeholder_21</text></g><!--entity Placeholder_22--><g id="elem_Placeholder_22"><polygon fill="#F1F1F1" points="197,56,207,46,343,46,343,82.2969,333,92.2969,197,92.2969,197,56" style="stroke:#181818;stroke-width:0.5;"/><line style="stroke:#181818;stroke-width:0.5;" x1="333" x2="343" y1="56" y2="46"/><line style="stroke:#181818;stroke-width:0.5;" x1="197" x2="333" y1="56" y2="56"/><line style="stroke:#181818;stroke-width:0.5;" x1="333" x2="333" y1="56" y2="92.2969"/><text fill="#000000" font-family="sans-serif" font-size="14" lengthAdjust="spacing" textLength="106" x="212" y="78.9951">Placeholder_22</text></g><!--entity Placeholder_20--><g id="elem_Placeholder_20"><polygon fill="#F1F1F1" points="378,56,388,46,524,46,524,82.2969,514,92.2969,378,92.2969,378,56" style="stroke:#181818;stroke-width:0.5;"/><line style="stroke:#181818;stroke-width:0.5;" x1="514" x2="524" y1="56" y2="46"/><line style="stroke:#181818;stroke-width:0.5;" x1="378" x2="514" y1="56" y2="56"/><line style="stroke:#181818;stroke-width:0.5;" x1="514" x2="514" y1="56" y2="92.2969"/><text fill="#000000" font-family="sans-serif" font-size="14" lengthAdjust="spacing" textLength="106" x="393" y="78.9951">Placeholder_20</text></g><!--entity Placeholder_2--><g id="elem_Placeholder_2"><polygon fill="#F1F1F1" points="559.5,56,569.5,46,696.5,46,696.5,82.2969,686.5,92.2969,559.5,92.2969,559.5,56" style="stroke:#181818;stroke-width:0.5;"/><line style="stroke:#181818;stroke-width:0.5;" x1="686.5" x2="696.5" y1="56" y2="46"/><line style="stroke:#181818;stroke-width:0.5;" x1="559.5" x2="686.5" y1="56" y2="56"/><line style="stroke:#181818;stroke-width:0.5;" x1="686.5" x2="686.5" y1="56" y2="92.2969"/><text fill="#000000" font-family="sans-serif" font-size="14" lengthAdjust="spacing" textLength="97" x="574.5" y="78.9951">Placeholder_2</text></g><!--entity Placeholder_6--><g id="elem_Placeholder_6"><polygon fill="#F1F1F1" points="731.5,56,741.5,46,868.5,46,868.5,82.2969,858.5,92.2969,731.5,92.2969,731.5,56" style="stroke:#181818;stroke-width:0.5;"/><line style="stroke:#181818;stroke-width:0.5;" x1="858.5" x2="868.5" y1="56" y2="46"/><line style="stroke:#181818;stroke-width:0.5;" x1="731.5" x2="858.5" y1="56" y2="56"/><line style="stroke:#181818;stroke-width:0.5;" x1="858.5" x2="858.5" y1="56" y2="92.2969"/><text fill="#000000" font-family="sans-serif" font-size="14" lengthAdjust="spacing" textLength="97" x="746.5" y="78.9951">Placeholder_6</text></g><!--entity Placeholder_3--><g id="elem_Placeholder_3"><polygon fill="#F1F1F1" points="903.5,56,913.5,46,1040.5,46,1040.5,82.2969,1030.5,92.2969,903.5,92.2969,903.5,56" style="stroke:#181818;stroke-width:0.5;"/><line style="stroke:#181818;stroke-width:0.5;" x1="1030.5" x2="1040.5" y1="56" y2="46"/><line style="stroke:#181818;stroke-width:0.5;" x1="903.5" x2="1030.5" y1="56" y2="56"/><line style="stroke:#181818;stroke-width:0.5;" x1="1030.5" x2="1030.5" y1="56" y2="92.2969"/><text fill="#000000" font-family="sans-serif" font-size="14" lengthAdjust="spacing" textLength="97" x="918.5" y="78.9951">Placeholder_3</text></g><!--entity Placeholder_5--><g id="elem_Placeholder_5"><polygon fill="#F1F1F1" points="1075.5,56,1085.5,46,1212.5,46,1212.5,82.2969,1202.5,92.2969,1075.5,92.2969,1075.5,56" style="stroke:#181818;stroke-width:0.5;"/><line style="stroke:#181818;stroke-width:0.5;" x1="1202.5" x2="1212.5" y1="56" y2="46"/><line style="stroke:#181818;stroke-width:0.5;" x1="1075.5" x2="1202.5" y1="56" y2="56"/><line style="stroke:#181818;stroke-width:0.5;" x1="1202.5" x2="1202.5" y1="56" y2="92.2969"/><text fill="#000000" font-family="sans-serif" font-size="14" lengthAdjust="spacing" textLength="97" x="1090.5" y="78.9951">Placeholder_5</text></g><!--entity Placeholder_8--><g id="elem_Placeholder_8"><polygon fill="#F1F1F1" points="1247.5,56,1257.5,46,1384.5,46,1384.5,82.2969,1374.5,92.2969,1247.5,92.2969,1247.5,56" style="stroke:#181818;stroke-width:0.5;"/><line style="stroke:#181818;stroke-width:0.5;" x1="1374.5" x2="1384.5" y1="56" y2="46"/><line style="stroke:#181818;stroke-width:0.5;" x1="1247.5" x2="1374.5" y1="56" y2="56"/><line style="stroke:#181818;stroke-width:0.5;" x1="1374.5" x2="1374.5" y1="56" y2="92.2969"/><text fill="#000000" font-family="sans-serif" font-size="14" lengthAdjust="spacing" textLength="97" x="1262.5" y="78.9951">Placeholder_8</text></g><!--entity Placeholder_7--><g id="elem_Placeholder_7"><polygon fill="#F1F1F1" points="1419.5,56,1429.5,46,1556.5,46,1556.5,82.2969,1546.5,92.2969,1419.5,92.2969,1419.5,56" style="stroke:#181818;stroke-width:0.5;"/><line style="stroke:#181818;stroke-width:0.5;" x1="1546.5" x2="1556.5" y1="56" y2="46"/><line style="stroke:#181818;stroke-width:0.5;" x1="1419.5" x2="1546.5" y1="56" y2="56"/><line style="stroke:#181818;stroke-width:0.5;" x1="1546.5" x2="1546.5" y1="56" y2="92.2969"/><text fill="#000000" font-family="sans-serif" font-size="14" lengthAdjust="spacing" textLength="97" x="1434.5" y="78.9951">Placeholder_7</text></g><!--entity Placeholder_18--><g id="elem_Placeholder_18"><polygon fill="#F1F1F1" points="1592,56,1602,46,1738,46,1738,82.2969,1728,92.2969,1592,92.2969,1592,56" style="stroke:#181818;stroke-width:0.5;"/><line style="stroke:#181818;stroke-width:0.5;" x1="1728" x2="1738" y1="56" y2="46"/><line style="stroke:#181818;stroke-width:0.5;" x1="1592" x2="1728" y1="56" y2="56"/><line style="stroke:#181818;stroke-width:0.5;" x1="1728" x2="1728" y1="56" y2="92.2969"/><text fill="#000000" font-family="sans-serif" font-size="14" lengthAdjust="spacing" textLength="106" x="1607" y="78.9951">Placeholder_18</text></g><!--entity Placeholder_1--><g id="elem_Placeholder_1"><polygon fill="#F1F1F1" points="1773.5,56,1783.5,46,1910.5,46,1910.5,82.2969,1900.5,92.2969,1773.5,92.2969,1773.5,56" style="stroke:#181818;stroke-width:0.5;"/><line style="stroke:#181818;stroke-width:0.5;" x1="1900.5" x2="1910.5" y1="56" y2="46"/><line style="stroke:#181818;stroke-width:0.5;" x1="1773.5" x2="1900.5" y1="56" y2="56"/><line style="stroke:#181818;stroke-width:0.5;" x1="1900.5" x2="1900.5" y1="56" y2="92.2969"/><text fill="#000000" font-family="sans-serif" font-size="14" lengthAdjust="spacing" textLength="97" x="1788.5" y="78.9951">Placeholder_1</text></g><!--entity Placeholder_19--><g id="elem_Placeholder_19"><polygon fill="#F1F1F1" points="1946,56,1956,46,2092,46,2092,82.2969,2082,92.2969,1946,92.2969,1946,56" style="stroke:#181818;stroke-width:0.5;"/><line style="stroke:#181818;stroke-width:0.5;" x1="2082" x2="2092" y1="56" y2="46"/><line style="stroke:#181818;stroke-width:0.5;" x1="1946" x2="2082" y1="56" y2="56"/><line style="stroke:#181818;stroke-width:0.5;" x1="2082" x2="2082" y1="56" y2="92.2969"/><text fill="#000000" font-family="sans-serif" font-size="14" lengthAdjust="spacing" textLength="106" x="1961" y="78.9951">Placeholder_19</text></g><!--entity Placeholder_16--><g id="elem_Placeholder_16"><polygon fill="#F1F1F1" points="2127,56,2137,46,2273,46,2273,82.2969,2263,92.2969,2127,92.2969,2127,56" style="stroke:#181818;stroke-width:0.5;"/><line style="stroke:#181818;stroke-width:0.5;" x1="2263" x2="2273" y1="56" y2="46"/><line style="stroke:#181818;stroke-width:0.5;" x1="2127" x2="2263" y1="56" y2="56"/><line style="stroke:#181818;stroke-width:0.5;" x1="2263" x2="2263" y1="56" y2="92.2969"/><text fill="#000000" font-family="sans-serif" font-size="14" lengthAdjust="spacing" textLength="106" x="2142" y="78.9951">Placeholder_16</text></g><!--entity Placeholder_12--><g id="elem_Placeholder_12"><polygon fill="#F1F1F1" points="2308,56,2318,46,2454,46,2454,82.2969,2444,92.2969,2308,92.2969,2308,56" style="stroke:#181818;stroke-width:0.5;"/><line style="stroke:#181818;stroke-width:0.5;" x1="2444" x2="2454" y1="56" y2="46"/><line style="stroke:#181818;stroke-width:0.5;" x1="2308" x2="2444" y1="56" y2="56"/><line style="stroke:#181818;stroke-width:0.5;" x1="2444" x2="2444" y1="56" y2="92.2969"/><text fill="#000000" font-family="sans-serif" font-size="14" lengthAdjust="spacing" textLength="106" x="2323" y="78.9951">Placeholder_12</text></g><!--entity Placeholder_15--><g id="elem_Placeholder_15"><polygon fill="#F1F1F1" points="2489,56,2499,46,2635,46,2635,82.2969,2625,92.2969,2489,92.2969,2489,56" style="stroke:#181818;stroke-width:0.5;"/><line style="stroke:#181818;stroke-width:0.5;" x1="2625" x2="2635" y1="56" y2="46"/><line style="stroke:#181818;stroke-width:0.5;" x1="2489" x2="2625" y1="56" y2="56"/><line style="stroke:#181818;stroke-width:0.5;" x1="2625" x2="2625" y1="56" y2="92.2969"/><text fill="#000000" font-family="sans-serif" font-size="14" lengthAdjust="spacing" textLength="106" x="2504" y="78.9951">Placeholder_15</text></g><!--entity Placeholder_14--><g id="elem_Placeholder_14"><polygon fill="#F1F1F1" points="2670,56,2680,46,2816,46,2816,82.2969,2806,92.2969,2670,92.2969,2670,56" style="stroke:#181818;stroke-width:0.5;"/><line style="stroke:#181818;stroke-width:0.5;" x1="2806" x2="2816" y1="56" y2="46"/><line style="stroke:#181818;stroke-width:0.5;" x1="2670" x2="2806" y1="56" y2="56"/><line style="stroke:#181818;stroke-width:0.5;" x1="2806" x2="2806" y1="56" y2="92.2969"/><text fill="#000000" font-family="sans-serif" font-size="14" lengthAdjust="spacing" textLength="106" x="2685" y="78.9951">Placeholder_14</text></g><!--entity Placeholder_4--><g id="elem_Placeholder_4"><polygon fill="#F1F1F1" points="2851.5,56,2861.5,46,2988.5,46,2988.5,82.2969,2978.5,92.2969,2851.5,92.2969,2851.5,56" style="stroke:#181818;stroke-width:0.5;"/><line style="stroke:#181818;stroke-width:0.5;" x1="2978.5" x2="2988.5" y1="56" y2="46"/><line style="stroke:#181818;stroke-width:0.5;" x1="2851.5" x2="2978.5" y1="56" y2="56"/><line style="stroke:#181818;stroke-width:0.5;" x1="2978.5" x2="2978.5" y1="56" y2="92.2969"/><text fill="#000000" font-family="sans-serif" font-size="14" lengthAdjust="spacing" textLength="97" x="2866.5" y="78.9951">Placeholder_4</text></g><!--link aName to aName--><g id="link_aName_aName"><path d="M3112.27,67.52 C3131.02,67.4 3147,67.9 3147,69 C3147,70.1 3131.02,70.6 3112.27,70.48 " fill="none" id="aName-aName" style="stroke:#181818;stroke-width:1.0;"/><text fill="#000000" font-family="sans-serif" font-size="13" lengthAdjust="spacing" textLength="375" x="3160" y="73.5669">com_ewolff_microservice_catalog_ItemRepository_Provider</text><path d="M3105.1538,60.4943 A10,10 0 0 0 3105.2443 74.6362" fill="none" style="stroke:#181818;stroke-width:1.5;"/><ellipse cx="3112.27" cy="67.52" fill="#FFFFFF" rx="6" ry="6" style="stroke:#181818;stroke-width:1.5;"/></g><!--link aName to aName--><g id="link_aName_aName"><path d="M3112.18,67.42 C3233.33,65.1 3548,65.62 3548,69 C3548,72.38 3233.33,72.9 3112.18,70.58 " fill="none" id="aName-aName-1" style="stroke:#181818;stroke-width:1.0;"/><text fill="#000000" font-family="sans-serif" font-size="13" lengthAdjust="spacing" textLength="375" x="3561" y="73.5669">com_ewolff_microservice_catalog_ItemRepository_Provider</text><path d="M3104.9748,60.4856 A10,10 0 0 0 3105.2456 74.6252" fill="none" style="stroke:#181818;stroke-width:1.5;"/><ellipse cx="3112.18" cy="67.42" fill="#FFFFFF" rx="6" ry="6" style="stroke:#181818;stroke-width:1.5;"/></g><!--link aName to aName--><g id="link_aName_aName"><path d="M3112.02,67.21 C3293.91,63.08 3949,63.67 3949,69 C3949,74.33 3293.91,74.92 3112.02,70.79 " fill="none" id="aName-aName-2" style="stroke:#181818;stroke-width:1.0;"/><text fill="#000000" font-family="sans-serif" font-size="13" lengthAdjust="spacing" textLength="423" x="3962" y="73.5669">com_ewolff_microservice_customer_CustomerRepository_Provider</text><path d="M3104.7902,60.3013 A10,10 0 0 0 3105.1113 74.4398" fill="none" style="stroke:#181818;stroke-width:1.5;"/><ellipse cx="3112.02" cy="67.21" fill="#FFFFFF" rx="6" ry="6" style="stroke:#181818;stroke-width:1.5;"/></g><!--link aName to aName--><g id="link_aName_aName"><path d="M3112.35,67.03 C3348.18,61.07 4398,61.72 4398,69 C4398,76.28 3348.18,76.93 3112.35,70.97 " fill="none" id="aName-aName-3" style="stroke:#181818;stroke-width:1.0;"/><text fill="#000000" font-family="sans-serif" font-size="13" lengthAdjust="spacing" textLength="423" x="4411" y="73.5669">com_ewolff_microservice_customer_CustomerRepository_Provider</text><path d="M3105.1025,60.1398 A10,10 0 0 0 3105.4598 74.2775" fill="none" style="stroke:#181818;stroke-width:1.5;"/><ellipse cx="3112.35" cy="67.03" fill="#FFFFFF" rx="6" ry="6" style="stroke:#181818;stroke-width:1.5;"/></g><!--link aName to aName--><g id="link_aName_aName"><path d="M3112.07,66.88 C3392.54,59.06 4847,59.77 4847,69 C4847,78.23 3392.54,78.94 3112.07,71.12 " fill="none" id="aName-aName-4" style="stroke:#181818;stroke-width:1.0;"/><text fill="#000000" font-family="sans-serif" font-size="13" lengthAdjust="spacing" textLength="399" x="4860" y="73.5669">com_ewolff_microservice_order_clients_CatalogClient_Provider</text><path d="M3104.8046,60.0088 A10,10 0 0 0 3105.1988 74.1454" fill="none" style="stroke:#181818;stroke-width:1.5;"/><ellipse cx="3112.07" cy="66.88" fill="#FFFFFF" rx="6" ry="6" style="stroke:#181818;stroke-width:1.5;"/></g><!--link aName to aName--><g id="link_aName_aName"><path d="M3112.06,66.72 C3430.59,57.06 5272,57.81 5272,69 C5272,80.19 3430.59,80.94 3112.06,71.28 " fill="none" id="aName-aName-5" style="stroke:#181818;stroke-width:1.0;"/><text fill="#000000" font-family="sans-serif" font-size="13" lengthAdjust="spacing" textLength="399" x="5285" y="73.5669">com_ewolff_microservice_order_clients_CatalogClient_Provider</text><path d="M3104.7778,59.8665 A10,10 0 0 0 3105.2065 74.0022" fill="none" style="stroke:#181818;stroke-width:1.5;"/><ellipse cx="3112.06" cy="66.72" fill="#FFFFFF" rx="6" ry="6" style="stroke:#181818;stroke-width:1.5;"/></g><!--link aName to aName--><g id="link_aName_aName"><path d="M3112.01,66.58 C3465.22,55.05 5697,55.86 5697,69 C5697,82.14 3465.22,82.95 3112.01,71.42 " fill="none" id="aName-aName-6" style="stroke:#181818;stroke-width:1.0;"/><text fill="#000000" font-family="sans-serif" font-size="13" lengthAdjust="spacing" textLength="413" x="5710" y="73.5669">com_ewolff_microservice_order_clients_CustomerClient_Provider</text><path d="M3104.712,59.7434 A10,10 0 0 0 3105.1734 73.878" fill="none" style="stroke:#181818;stroke-width:1.5;"/><ellipse cx="3112.01" cy="66.58" fill="#FFFFFF" rx="6" ry="6" style="stroke:#181818;stroke-width:1.5;"/></g><!--link aName to aName--><g id="link_aName_aName"><path d="M3112.14,66.46 C3499.09,53.05 6136,53.9 6136,69 C6136,84.1 3499.09,84.95 3112.14,71.54 " fill="none" id="aName-aName-7" style="stroke:#181818;stroke-width:1.0;"/><text fill="#000000" font-family="sans-serif" font-size="13" lengthAdjust="spacing" textLength="413" x="6149" y="73.5669">com_ewolff_microservice_order_clients_CustomerClient_Provider</text><path d="M3104.8283,59.6381 A10,10 0 0 0 3105.3181 73.7717" fill="none" style="stroke:#181818;stroke-width:1.5;"/><ellipse cx="3112.14" cy="66.46" fill="#FFFFFF" rx="6" ry="6" style="stroke:#181818;stroke-width:1.5;"/></g><!--link aName to aName--><g id="link_aName_aName"><path d="M3112.24,66.34 C3530.8,51.05 6575,51.94 6575,69 C6575,86.06 3530.8,86.95 3112.24,71.66 " fill="none" id="aName-aName-8" style="stroke:#181818;stroke-width:1.0;"/><text fill="#000000" font-family="sans-serif" font-size="13" lengthAdjust="spacing" textLength="405" x="6588" y="73.5669">com_ewolff_microservice_order_logic_OrderRepository_Provider</text><path d="M3104.9155,59.5318 A10,10 0 0 0 3105.4318 73.6645" fill="none" style="stroke:#181818;stroke-width:1.5;"/><ellipse cx="3112.24" cy="66.34" fill="#FFFFFF" rx="6" ry="6" style="stroke:#181818;stroke-width:1.5;"/></g><!--link aName to aName--><g id="link_aName_aName"><path d="M3112.31,66.23 C3560.23,49.05 7006,49.97 7006,69 C7006,88.03 3560.23,88.95 3112.31,71.77 " fill="none" id="aName-aName-9" style="stroke:#181818;stroke-width:1.0;"/><text fill="#000000" font-family="sans-serif" font-size="13" lengthAdjust="spacing" textLength="405" x="7019" y="73.5669">com_ewolff_microservice_order_logic_OrderRepository_Provider</text><path d="M3104.9731,59.4351 A10,10 0 0 0 3105.5151 73.5669" fill="none" style="stroke:#181818;stroke-width:1.5;"/><ellipse cx="3112.31" cy="66.23" fill="#FFFFFF" rx="6" ry="6" style="stroke:#181818;stroke-width:1.5;"/></g><!--link aName to aName--><g id="link_aName_aName"><path d="M3112.33,66.12 C3588.06,47.05 7437,48 7437,69 C7437,90 3588.06,90.95 3112.33,71.88 " fill="none" id="aName-aName-10" style="stroke:#181818;stroke-width:1.0;"/><text fill="#000000" font-family="sans-serif" font-size="13" lengthAdjust="spacing" textLength="385" x="7450" y="73.5669">com_ewolff_microservice_order_logic_OrderService_Provider</text><path d="M3104.9814,59.3378 A10,10 0 0 0 3105.5478 73.4686" fill="none" style="stroke:#181818;stroke-width:1.5;"/><ellipse cx="3112.33" cy="66.12" fill="#FFFFFF" rx="6" ry="6" style="stroke:#181818;stroke-width:1.5;"/></g><!--SRC=[pTDFIyCm503mUpz5m8kNoZBNkNcJAZYTsz2BK4g8sUiCI_fgqdKMyRlRkKu4htlOsti4VhoyFtwjyq8wQLcctsFjb86fV04phy0PMHGwNx7IRI38SGbiOQI2LpHBS8AViuyWaJDf8ML90biqMHPQhHnwS9LMSEPhNu8z4S-ZX_NTj8vkO7WVpTwsj-FhoU0gJOFFlsoVqx1z6hP7mvAeGnALPWqY4dL4ebwGg9ocM9hpucCQbcPbESrzSPgbvGCIzYZg0GXFUo4x99TCeHLxKVmMXPAbDBWIayPzX0AzBj7LOk6mqarD_yrjV8csQKtS1XqrqUtcfuo6lFGYtZSX_awxRBODw2xQ_5WhCT_5HviIiVdKFlo0Nm00]--></g></svg>