<?xml version="1.0" encoding="us-ascii" standalone="no"?><svg xmlns="http://www.w3.org/2000/svg" xmlns:xlink="http://www.w3.org/1999/xlink" contentStyleType="text/css" height="384px" preserveAspectRatio="none" style="width:3332px;height:384px;background:#FFFFFF;" version="1.1" viewBox="0 0 3332 384" width="3332px" zoomAndPan="magnify"><defs/><g><!--cluster nodeDepartmentController--><g id="cluster_nodeDepartmentController"><polygon fill="none" points="1612,94.4,1622,84.4,2737,84.4,2737,349.4,2727,359.4,1612,359.4,1612,94.4" style="stroke:#181818;stroke-width:1.0;"/><line style="stroke:#181818;stroke-width:1.0;" x1="2727" x2="2737" y1="94.4" y2="84.4"/><line style="stroke:#181818;stroke-width:1.0;" x1="1612" x2="2727" y1="94.4" y2="94.4"/><line style="stroke:#181818;stroke-width:1.0;" x1="2727" x2="2727" y1="94.4" y2="359.4"/><text fill="#000000" font-family="sans-serif" font-size="14" font-weight="bold" lengthAdjust="spacing" textLength="212" x="2064.5" y="110.3951">nodeDepartmentController</text></g><!--cluster DepartmentController--><g id="cluster_DepartmentController"><rect fill="none" height="203" rx="2.5" ry="2.5" style="stroke:#181818;stroke-width:1.0;" width="1077" x="1636" y="132.4"/><rect fill="none" height="10" style="stroke:#181818;stroke-width:1.0;" width="15" x="2693" y="137.4"/><rect fill="none" height="2" style="stroke:#181818;stroke-width:1.0;" width="4" x="2691" y="139.4"/><rect fill="none" height="2" style="stroke:#181818;stroke-width:1.0;" width="4" x="2691" y="143.4"/><text fill="#000000" font-family="sans-serif" font-size="14" font-weight="bold" lengthAdjust="spacing" textLength="172" x="2088.5" y="158.3951">DepartmentController</text></g><!--cluster nodeFallBackMethodController--><g id="cluster_nodeFallBackMethodController"><polygon fill="none" points="2761,94.4,2771,84.4,3315,84.4,3315,243.4,3305,253.4,2761,253.4,2761,94.4" style="stroke:#181818;stroke-width:1.0;"/><line style="stroke:#181818;stroke-width:1.0;" x1="3305" x2="3315" y1="94.4" y2="84.4"/><line style="stroke:#181818;stroke-width:1.0;" x1="2761" x2="3305" y1="94.4" y2="94.4"/><line style="stroke:#181818;stroke-width:1.0;" x1="3305" x2="3305" y1="94.4" y2="253.4"/><text fill="#000000" font-family="sans-serif" font-size="14" font-weight="bold" lengthAdjust="spacing" textLength="241" x="2913.5" y="110.3951">nodeFallBackMethodController</text></g><!--cluster FallBackMethodController--><g id="cluster_FallBackMethodController"><rect fill="none" height="97" rx="2.5" ry="2.5" style="stroke:#181818;stroke-width:1.0;" width="506" x="2785" y="132.4"/><rect fill="none" height="10" style="stroke:#181818;stroke-width:1.0;" width="15" x="3271" y="137.4"/><rect fill="none" height="2" style="stroke:#181818;stroke-width:1.0;" width="4" x="3269" y="139.4"/><rect fill="none" height="2" style="stroke:#181818;stroke-width:1.0;" width="4" x="3269" y="143.4"/><text fill="#000000" font-family="sans-serif" font-size="14" font-weight="bold" lengthAdjust="spacing" textLength="201" x="2937.5" y="158.3951">FallBackMethodController</text></g><!--cluster nodeUserController--><g id="cluster_nodeUserController"><polygon fill="none" points="633,86.4,643,76.4,1580,76.4,1580,357.4,1570,367.4,633,367.4,633,86.4" style="stroke:#181818;stroke-width:1.0;"/><line style="stroke:#181818;stroke-width:1.0;" x1="1570" x2="1580" y1="86.4" y2="76.4"/><line style="stroke:#181818;stroke-width:1.0;" x1="633" x2="1570" y1="86.4" y2="86.4"/><line style="stroke:#181818;stroke-width:1.0;" x1="1570" x2="1570" y1="86.4" y2="367.4"/><text fill="#000000" font-family="sans-serif" font-size="14" font-weight="bold" lengthAdjust="spacing" textLength="156" x="1024.5" y="102.3951">nodeUserController</text></g><!--cluster UserController--><g id="cluster_UserController"><rect fill="none" height="203" rx="2.5" ry="2.5" style="stroke:#181818;stroke-width:1.0;" width="875" x="673" y="132.4"/><rect fill="none" height="10" style="stroke:#181818;stroke-width:1.0;" width="15" x="1528" y="137.4"/><rect fill="none" height="2" style="stroke:#181818;stroke-width:1.0;" width="4" x="1526" y="139.4"/><rect fill="none" height="2" style="stroke:#181818;stroke-width:1.0;" width="4" x="1526" y="143.4"/><text fill="#000000" font-family="sans-serif" font-size="14" font-weight="bold" lengthAdjust="spacing" textLength="116" x="1052.5" y="158.3951">UserController</text></g><!--cluster nodecom_dailycodebuffer_user_service_RestTemplate_Provider--><g id="cluster_nodecom_dailycodebuffer_user_service_RestTemplate_Provider"><polygon fill="none" points="16,129.4,26,119.4,593,119.4,593,227.4,583,237.4,16,237.4,16,129.4" style="stroke:#181818;stroke-width:1.0;"/><line style="stroke:#181818;stroke-width:1.0;" x1="583" x2="593" y1="129.4" y2="119.4"/><line style="stroke:#181818;stroke-width:1.0;" x1="16" x2="583" y1="129.4" y2="129.4"/><line style="stroke:#181818;stroke-width:1.0;" x1="583" x2="583" y1="129.4" y2="237.4"/><text fill="#000000" font-family="sans-serif" font-size="14" font-weight="bold" lengthAdjust="spacing" textLength="501" x="50" y="145.3951">nodecom_dailycodebuffer_user_service_RestTemplate_Provider</text></g><!--entity com_dailycodebuffer_department_controller_DepartmentController--><g id="elem_com_dailycodebuffer_department_controller_DepartmentController"><a href="shabbirdwd53-springboot-microservice.system#_bmBe9sBFEe6D79JAskx6vw" target="_top" title="shabbirdwd53-springboot-microservice.system#_bmBe9sBFEe6D79JAskx6vw" xlink:actuate="onRequest" xlink:href="shabbirdwd53-springboot-microservice.system#_bmBe9sBFEe6D79JAskx6vw" xlink:show="new" xlink:title="shabbirdwd53-springboot-microservice.system#_bmBe9sBFEe6D79JAskx6vw" xlink:type="simple"><rect fill="#F1F1F1" height="46.2969" rx="2.5" ry="2.5" style="stroke:#181818;stroke-width:0.5;" width="499" x="1652.5" y="167.4"/><rect fill="#F1F1F1" height="10" style="stroke:#181818;stroke-width:0.5;" width="15" x="2131.5" y="172.4"/><rect fill="#F1F1F1" height="2" style="stroke:#181818;stroke-width:0.5;" width="4" x="2129.5" y="174.4"/><rect fill="#F1F1F1" height="2" style="stroke:#181818;stroke-width:0.5;" width="4" x="2129.5" y="178.4"/><text fill="#000000" font-family="sans-serif" font-size="14" lengthAdjust="spacing" textLength="459" x="1667.5" y="200.3951">com_dailycodebuffer_department_controller_DepartmentController</text></a></g><!--entity com_dailycodebuffer_department_repository_DepartmentRepository--><g id="elem_com_dailycodebuffer_department_repository_DepartmentRepository"><a href="shabbirdwd53-springboot-microservice.system#_bmBe9sBFEe6D79JAskx6vw" target="_top" title="shabbirdwd53-springboot-microservice.system#_bmBe9sBFEe6D79JAskx6vw" xlink:actuate="onRequest" xlink:href="shabbirdwd53-springboot-microservice.system#_bmBe9sBFEe6D79JAskx6vw" xlink:show="new" xlink:title="shabbirdwd53-springboot-microservice.system#_bmBe9sBFEe6D79JAskx6vw" xlink:type="simple"><rect fill="#F1F1F1" height="46.2969" rx="2.5" ry="2.5" style="stroke:#181818;stroke-width:0.5;" width="510" x="2187" y="167.4"/><rect fill="#F1F1F1" height="10" style="stroke:#181818;stroke-width:0.5;" width="15" x="2677" y="172.4"/><rect fill="#F1F1F1" height="2" style="stroke:#181818;stroke-width:0.5;" width="4" x="2675" y="174.4"/><rect fill="#F1F1F1" height="2" style="stroke:#181818;stroke-width:0.5;" width="4" x="2675" y="178.4"/><text fill="#000000" font-family="sans-serif" font-size="14" lengthAdjust="spacing" textLength="470" x="2202" y="200.3951">com_dailycodebuffer_department_repository_DepartmentRepository</text></a></g><!--entity com_dailycodebuffer_department_service_DepartmentService--><g id="elem_com_dailycodebuffer_department_service_DepartmentService"><a href="shabbirdwd53-springboot-microservice.system#_bmBe9sBFEe6D79JAskx6vw" target="_top" title="shabbirdwd53-springboot-microservice.system#_bmBe9sBFEe6D79JAskx6vw" xlink:actuate="onRequest" xlink:href="shabbirdwd53-springboot-microservice.system#_bmBe9sBFEe6D79JAskx6vw" xlink:show="new" xlink:title="shabbirdwd53-springboot-microservice.system#_bmBe9sBFEe6D79JAskx6vw" xlink:type="simple"><rect fill="#F1F1F1" height="46.2969" rx="2.5" ry="2.5" style="stroke:#181818;stroke-width:0.5;" width="466" x="1669" y="273.4"/><rect fill="#F1F1F1" height="10" style="stroke:#181818;stroke-width:0.5;" width="15" x="2115" y="278.4"/><rect fill="#F1F1F1" height="2" style="stroke:#181818;stroke-width:0.5;" width="4" x="2113" y="280.4"/><rect fill="#F1F1F1" height="2" style="stroke:#181818;stroke-width:0.5;" width="4" x="2113" y="284.4"/><text fill="#000000" font-family="sans-serif" font-size="14" lengthAdjust="spacing" textLength="426" x="1684" y="306.3951">com_dailycodebuffer_department_service_DepartmentService</text></a></g><!--entity com_dailycodebuffer_cloud_gateway_FallBackMethodController--><g id="elem_com_dailycodebuffer_cloud_gateway_FallBackMethodController"><a href="shabbirdwd53-springboot-microservice.system#_bmBe9sBFEe6D79JAskx6vw" target="_top" title="shabbirdwd53-springboot-microservice.system#_bmBe9sBFEe6D79JAskx6vw" xlink:actuate="onRequest" xlink:href="shabbirdwd53-springboot-microservice.system#_bmBe9sBFEe6D79JAskx6vw" xlink:show="new" xlink:title="shabbirdwd53-springboot-microservice.system#_bmBe9sBFEe6D79JAskx6vw" xlink:type="simple"><rect fill="#F1F1F1" height="46.2969" rx="2.5" ry="2.5" style="stroke:#181818;stroke-width:0.5;" width="474" x="2801" y="167.4"/><rect fill="#F1F1F1" height="10" style="stroke:#181818;stroke-width:0.5;" width="15" x="3255" y="172.4"/><rect fill="#F1F1F1" height="2" style="stroke:#181818;stroke-width:0.5;" width="4" x="3253" y="174.4"/><rect fill="#F1F1F1" height="2" style="stroke:#181818;stroke-width:0.5;" width="4" x="3253" y="178.4"/><text fill="#000000" font-family="sans-serif" font-size="14" lengthAdjust="spacing" textLength="434" x="2816" y="200.3951">com_dailycodebuffer_cloud_gateway_FallBackMethodController</text></a></g><!--entity com_dailycodebuffer_user_controller_UserController--><g id="elem_com_dailycodebuffer_user_controller_UserController"><a href="shabbirdwd53-springboot-microservice.system#_bmBe9sBFEe6D79JAskx6vw" target="_top" title="shabbirdwd53-springboot-microservice.system#_bmBe9sBFEe6D79JAskx6vw" xlink:actuate="onRequest" xlink:href="shabbirdwd53-springboot-microservice.system#_bmBe9sBFEe6D79JAskx6vw" xlink:show="new" xlink:title="shabbirdwd53-springboot-microservice.system#_bmBe9sBFEe6D79JAskx6vw" xlink:type="simple"><rect fill="#F1F1F1" height="46.2969" rx="2.5" ry="2.5" style="stroke:#181818;stroke-width:0.5;" width="398" x="689" y="167.4"/><rect fill="#F1F1F1" height="10" style="stroke:#181818;stroke-width:0.5;" width="15" x="1067" y="172.4"/><rect fill="#F1F1F1" height="2" style="stroke:#181818;stroke-width:0.5;" width="4" x="1065" y="174.4"/><rect fill="#F1F1F1" height="2" style="stroke:#181818;stroke-width:0.5;" width="4" x="1065" y="178.4"/><text fill="#000000" font-family="sans-serif" font-size="14" lengthAdjust="spacing" textLength="358" x="704" y="200.3951">com_dailycodebuffer_user_controller_UserController</text></a></g><!--entity com_dailycodebuffer_user_repository_UserRepository--><g id="elem_com_dailycodebuffer_user_repository_UserRepository"><a href="shabbirdwd53-springboot-microservice.system#_bmBe9sBFEe6D79JAskx6vw" target="_top" title="shabbirdwd53-springboot-microservice.system#_bmBe9sBFEe6D79JAskx6vw" xlink:actuate="onRequest" xlink:href="shabbirdwd53-springboot-microservice.system#_bmBe9sBFEe6D79JAskx6vw" xlink:show="new" xlink:title="shabbirdwd53-springboot-microservice.system#_bmBe9sBFEe6D79JAskx6vw" xlink:type="simple"><rect fill="#F1F1F1" height="46.2969" rx="2.5" ry="2.5" style="stroke:#181818;stroke-width:0.5;" width="409" x="1122.5" y="167.4"/><rect fill="#F1F1F1" height="10" style="stroke:#181818;stroke-width:0.5;" width="15" x="1511.5" y="172.4"/><rect fill="#F1F1F1" height="2" style="stroke:#181818;stroke-width:0.5;" width="4" x="1509.5" y="174.4"/><rect fill="#F1F1F1" height="2" style="stroke:#181818;stroke-width:0.5;" width="4" x="1509.5" y="178.4"/><text fill="#000000" font-family="sans-serif" font-size="14" lengthAdjust="spacing" textLength="369" x="1137.5" y="200.3951">com_dailycodebuffer_user_repository_UserRepository</text></a></g><!--entity com_dailycodebuffer_user_service_UserService--><g id="elem_com_dailycodebuffer_user_service_UserService"><a href="shabbirdwd53-springboot-microservice.system#_bmBe9sBFEe6D79JAskx6vw" target="_top" title="shabbirdwd53-springboot-microservice.system#_bmBe9sBFEe6D79JAskx6vw" xlink:actuate="onRequest" xlink:href="shabbirdwd53-springboot-microservice.system#_bmBe9sBFEe6D79JAskx6vw" xlink:show="new" xlink:title="shabbirdwd53-springboot-microservice.system#_bmBe9sBFEe6D79JAskx6vw" xlink:type="simple"><rect fill="#F1F1F1" height="46.2969" rx="2.5" ry="2.5" style="stroke:#181818;stroke-width:0.5;" width="365" x="705.5" y="273.4"/><rect fill="#F1F1F1" height="10" style="stroke:#181818;stroke-width:0.5;" width="15" x="1050.5" y="278.4"/><rect fill="#F1F1F1" height="2" style="stroke:#181818;stroke-width:0.5;" width="4" x="1048.5" y="280.4"/><rect fill="#F1F1F1" height="2" style="stroke:#181818;stroke-width:0.5;" width="4" x="1048.5" y="284.4"/><text fill="#000000" font-family="sans-serif" font-size="14" lengthAdjust="spacing" textLength="325" x="720.5" y="306.3951">com_dailycodebuffer_user_service_UserService</text></a></g><!--entity com_dailycodebuffer_user_service_RestTemplate_Provider--><g id="elem_com_dailycodebuffer_user_service_RestTemplate_Provider"><a href="shabbirdwd53-springboot-microservice.system#_bmBe9sBFEe6D79JAskx6vw" target="_top" title="shabbirdwd53-springboot-microservice.system#_bmBe9sBFEe6D79JAskx6vw" xlink:actuate="onRequest" xlink:href="shabbirdwd53-springboot-microservice.system#_bmBe9sBFEe6D79JAskx6vw" xlink:show="new" xlink:title="shabbirdwd53-springboot-microservice.system#_bmBe9sBFEe6D79JAskx6vw" xlink:type="simple"><rect fill="#F1F1F1" height="46.2969" rx="2.5" ry="2.5" style="stroke:#181818;stroke-width:0.5;" width="443" x="125.5" y="167.4"/><rect fill="#F1F1F1" height="10" style="stroke:#181818;stroke-width:0.5;" width="15" x="548.5" y="172.4"/><rect fill="#F1F1F1" height="2" style="stroke:#181818;stroke-width:0.5;" width="4" x="546.5" y="174.4"/><rect fill="#F1F1F1" height="2" style="stroke:#181818;stroke-width:0.5;" width="4" x="546.5" y="178.4"/><text fill="#000000" font-family="sans-serif" font-size="14" lengthAdjust="spacing" textLength="403" x="140.5" y="200.3951">com_dailycodebuffer_user_service_RestTemplate_Provider</text></a></g><!--link nodecom_dailycodebuffer_user_service_RestTemplate_Provider to nodeUserController--><g id="link_nodecom_dailycodebuffer_user_service_RestTemplate_Provider_nodeUserController"><path d="M84.7567,119.0619 C84.7867,118.5196 84.8187,117.9766 84.8527,117.4329 C84.9207,116.3455 84.9968,115.2555 85.0813,114.1635 C85.2504,111.9795 85.4533,109.7878 85.6935,107.5941 C86.1737,103.2068 86.8024,98.8117 87.6056,94.4559 C89.212,85.7443 91.5161,77.1893 94.7253,69.1658 C101.1438,53.1187 111.1825,39.1975 126.5,30.4 C168.99,6 525.01,6 567.5,30.4 C599.84,48.975 618.0475,86.1825 628.2488,120.045 C629.5239,124.2778 630.674,128.4584 631.7109,132.5437 C631.9701,133.5651 632.2223,134.5804 632.4676,135.5892 C632.5902,136.0936 632.7111,136.5963 632.8303,137.0973 " fill="none" id="nodecom_dailycodebuffer_user_service_RestTemplate_Provider-nodeUserController" style="stroke:#181818;stroke-width:1.0;"/></g><!--SRC=[lLB1JW8n4BtlLpJnZ0UD68u2SZ0Q3UXfiscwxG0DxRQPTdVP6F_TBkgAWMKJ0wH93pFlpRoNUMubCykGQJANwv54hk2HfQ2U2q35h9NPWdZC8N8Da1jjJGQPd_bA0Scrkeeo8u3KtnW2oElG7PdCer4AaBn73OUq0EA0e899LV4m9StdSq0g6Ypb3PZkcv2GE7PBbgOIHIbkhdlEOf2U6kDxMd8q3h2G72vTvJpe2vhg8GpSS78F_V7juE7EhTRzeaoIJY48rZZf3LPRGgPDyNn2lWTjgPXzLOuduIEyvh8JfjIGyTKJ-AKHBTSz0DhhXokJ2xfW7afMqJRsYHoz1LgBZvtMNlMvgoty9lClwyHHs2pVIcEz_6mvt2p_IM2z-RJPwvGm1UTVGLiLaaHVq1HIT9pj8FEODkB_6qX8ZyIxIKsYJm00]--></g></svg>