<?xml version="1.0" encoding="us-ascii" standalone="no"?><svg xmlns="http://www.w3.org/2000/svg" xmlns:xlink="http://www.w3.org/1999/xlink" contentStyleType="text/css" height="125px" preserveAspectRatio="none" style="width:4205px;height:125px;background:#FFFFFF;" version="1.1" viewBox="0 0 4205 125" width="4205px" zoomAndPan="magnify"><defs/><g><!--cluster Placeholder_2--><g id="cluster_Placeholder_2"><polygon fill="none" points="1757.5,16,1767.5,6,4188.5,6,4188.5,98,4178.5,108,1757.5,108,1757.5,16" style="stroke:#181818;stroke-width:1.0;"/><line style="stroke:#181818;stroke-width:1.0;" x1="4178.5" x2="4188.5" y1="16" y2="6"/><line style="stroke:#181818;stroke-width:1.0;" x1="1757.5" x2="4178.5" y1="16" y2="16"/><line style="stroke:#181818;stroke-width:1.0;" x1="4178.5" x2="4178.5" y1="16" y2="108"/><text fill="#000000" font-family="sans-serif" font-size="14" font-weight="bold" lengthAdjust="spacing" textLength="110" x="2914" y="31.9951">Placeholder_2</text></g><!--entity aName--><g id="elem_aName"><a href="shabbirdwd53-springboot-microservice.system#_13A2s7w4Ee6VEP-bQeXcfQ" target="_top" title="shabbirdwd53-springboot-microservice.system#_13A2s7w4Ee6VEP-bQeXcfQ" xlink:actuate="onRequest" xlink:href="shabbirdwd53-springboot-microservice.system#_13A2s7w4Ee6VEP-bQeXcfQ" xlink:show="new" xlink:title="shabbirdwd53-springboot-microservice.system#_13A2s7w4Ee6VEP-bQeXcfQ" xlink:type="simple"><rect fill="#F1F1F1" height="46.2969" rx="2.5" ry="2.5" style="stroke:#181818;stroke-width:0.5;" width="88" x="1773.5" y="46"/><rect fill="#F1F1F1" height="10" style="stroke:#181818;stroke-width:0.5;" width="15" x="1841.5" y="51"/><rect fill="#F1F1F1" height="2" style="stroke:#181818;stroke-width:0.5;" width="4" x="1839.5" y="53"/><rect fill="#F1F1F1" height="2" style="stroke:#181818;stroke-width:0.5;" width="4" x="1839.5" y="57"/><text fill="#000000" font-family="sans-serif" font-size="14" lengthAdjust="spacing" textLength="48" x="1788.5" y="78.9951">aName</text></a></g><!--entity Placeholder_5--><g id="elem_Placeholder_5"><polygon fill="#F1F1F1" points="16,56,26,46,153,46,153,82.2969,143,92.2969,16,92.2969,16,56" style="stroke:#181818;stroke-width:0.5;"/><line style="stroke:#181818;stroke-width:0.5;" x1="143" x2="153" y1="56" y2="46"/><line style="stroke:#181818;stroke-width:0.5;" x1="16" x2="143" y1="56" y2="56"/><line style="stroke:#181818;stroke-width:0.5;" x1="143" x2="143" y1="56" y2="92.2969"/><text fill="#000000" font-family="sans-serif" font-size="14" lengthAdjust="spacing" textLength="97" x="31" y="78.9951">Placeholder_5</text></g><!--entity Placeholder_6--><g id="elem_Placeholder_6"><polygon fill="#F1F1F1" points="188,56,198,46,325,46,325,82.2969,315,92.2969,188,92.2969,188,56" style="stroke:#181818;stroke-width:0.5;"/><line style="stroke:#181818;stroke-width:0.5;" x1="315" x2="325" y1="56" y2="46"/><line style="stroke:#181818;stroke-width:0.5;" x1="188" x2="315" y1="56" y2="56"/><line style="stroke:#181818;stroke-width:0.5;" x1="315" x2="315" y1="56" y2="92.2969"/><text fill="#000000" font-family="sans-serif" font-size="14" lengthAdjust="spacing" textLength="97" x="203" y="78.9951">Placeholder_6</text></g><!--entity Placeholder_0--><g id="elem_Placeholder_0"><polygon fill="#F1F1F1" points="360,56,370,46,497,46,497,82.2969,487,92.2969,360,92.2969,360,56" style="stroke:#181818;stroke-width:0.5;"/><line style="stroke:#181818;stroke-width:0.5;" x1="487" x2="497" y1="56" y2="46"/><line style="stroke:#181818;stroke-width:0.5;" x1="360" x2="487" y1="56" y2="56"/><line style="stroke:#181818;stroke-width:0.5;" x1="487" x2="487" y1="56" y2="92.2969"/><text fill="#000000" font-family="sans-serif" font-size="14" lengthAdjust="spacing" textLength="97" x="375" y="78.9951">Placeholder_0</text></g><!--entity Placeholder_10--><g id="elem_Placeholder_10"><polygon fill="#F1F1F1" points="532.5,56,542.5,46,678.5,46,678.5,82.2969,668.5,92.2969,532.5,92.2969,532.5,56" style="stroke:#181818;stroke-width:0.5;"/><line style="stroke:#181818;stroke-width:0.5;" x1="668.5" x2="678.5" y1="56" y2="46"/><line style="stroke:#181818;stroke-width:0.5;" x1="532.5" x2="668.5" y1="56" y2="56"/><line style="stroke:#181818;stroke-width:0.5;" x1="668.5" x2="668.5" y1="56" y2="92.2969"/><text fill="#000000" font-family="sans-serif" font-size="14" lengthAdjust="spacing" textLength="106" x="547.5" y="78.9951">Placeholder_10</text></g><!--entity Placeholder_12--><g id="elem_Placeholder_12"><polygon fill="#F1F1F1" points="713.5,56,723.5,46,859.5,46,859.5,82.2969,849.5,92.2969,713.5,92.2969,713.5,56" style="stroke:#181818;stroke-width:0.5;"/><line style="stroke:#181818;stroke-width:0.5;" x1="849.5" x2="859.5" y1="56" y2="46"/><line style="stroke:#181818;stroke-width:0.5;" x1="713.5" x2="849.5" y1="56" y2="56"/><line style="stroke:#181818;stroke-width:0.5;" x1="849.5" x2="849.5" y1="56" y2="92.2969"/><text fill="#000000" font-family="sans-serif" font-size="14" lengthAdjust="spacing" textLength="106" x="728.5" y="78.9951">Placeholder_12</text></g><!--entity Placeholder_4--><g id="elem_Placeholder_4"><polygon fill="#F1F1F1" points="895,56,905,46,1032,46,1032,82.2969,1022,92.2969,895,92.2969,895,56" style="stroke:#181818;stroke-width:0.5;"/><line style="stroke:#181818;stroke-width:0.5;" x1="1022" x2="1032" y1="56" y2="46"/><line style="stroke:#181818;stroke-width:0.5;" x1="895" x2="1022" y1="56" y2="56"/><line style="stroke:#181818;stroke-width:0.5;" x1="1022" x2="1022" y1="56" y2="92.2969"/><text fill="#000000" font-family="sans-serif" font-size="14" lengthAdjust="spacing" textLength="97" x="910" y="78.9951">Placeholder_4</text></g><!--entity Placeholder_3--><g id="elem_Placeholder_3"><polygon fill="#F1F1F1" points="1067,56,1077,46,1204,46,1204,82.2969,1194,92.2969,1067,92.2969,1067,56" style="stroke:#181818;stroke-width:0.5;"/><line style="stroke:#181818;stroke-width:0.5;" x1="1194" x2="1204" y1="56" y2="46"/><line style="stroke:#181818;stroke-width:0.5;" x1="1067" x2="1194" y1="56" y2="56"/><line style="stroke:#181818;stroke-width:0.5;" x1="1194" x2="1194" y1="56" y2="92.2969"/><text fill="#000000" font-family="sans-serif" font-size="14" lengthAdjust="spacing" textLength="97" x="1082" y="78.9951">Placeholder_3</text></g><!--entity Placeholder_1--><g id="elem_Placeholder_1"><polygon fill="#F1F1F1" points="1239,56,1249,46,1376,46,1376,82.2969,1366,92.2969,1239,92.2969,1239,56" style="stroke:#181818;stroke-width:0.5;"/><line style="stroke:#181818;stroke-width:0.5;" x1="1366" x2="1376" y1="56" y2="46"/><line style="stroke:#181818;stroke-width:0.5;" x1="1239" x2="1366" y1="56" y2="56"/><line style="stroke:#181818;stroke-width:0.5;" x1="1366" x2="1366" y1="56" y2="92.2969"/><text fill="#000000" font-family="sans-serif" font-size="14" lengthAdjust="spacing" textLength="97" x="1254" y="78.9951">Placeholder_1</text></g><!--entity Placeholder_15--><g id="elem_Placeholder_15"><polygon fill="#F1F1F1" points="1411.5,56,1421.5,46,1557.5,46,1557.5,82.2969,1547.5,92.2969,1411.5,92.2969,1411.5,56" style="stroke:#181818;stroke-width:0.5;"/><line style="stroke:#181818;stroke-width:0.5;" x1="1547.5" x2="1557.5" y1="56" y2="46"/><line style="stroke:#181818;stroke-width:0.5;" x1="1411.5" x2="1547.5" y1="56" y2="56"/><line style="stroke:#181818;stroke-width:0.5;" x1="1547.5" x2="1547.5" y1="56" y2="92.2969"/><text fill="#000000" font-family="sans-serif" font-size="14" lengthAdjust="spacing" textLength="106" x="1426.5" y="78.9951">Placeholder_15</text></g><!--entity Placeholder_11--><g id="elem_Placeholder_11"><polygon fill="#F1F1F1" points="1592.5,56,1602.5,46,1738.5,46,1738.5,82.2969,1728.5,92.2969,1592.5,92.2969,1592.5,56" style="stroke:#181818;stroke-width:0.5;"/><line style="stroke:#181818;stroke-width:0.5;" x1="1728.5" x2="1738.5" y1="56" y2="46"/><line style="stroke:#181818;stroke-width:0.5;" x1="1592.5" x2="1728.5" y1="56" y2="56"/><line style="stroke:#181818;stroke-width:0.5;" x1="1728.5" x2="1728.5" y1="56" y2="92.2969"/><text fill="#000000" font-family="sans-serif" font-size="14" lengthAdjust="spacing" textLength="106" x="1607.5" y="78.9951">Placeholder_11</text></g><!--link aName to aName--><g id="link_aName_aName"><path d="M1861.77,67.29 C1880.52,67.16 1896.5,67.73 1896.5,69 C1896.5,70.27 1880.52,70.84 1861.77,70.71 " fill="none" id="aName-aName" style="stroke:#181818;stroke-width:1.0;"/><text fill="#000000" font-family="sans-serif" font-size="13" lengthAdjust="spacing" textLength="497" x="1909.5" y="73.5669">com_dailycodebuffer_department_repository_DepartmentRepository_Provider</text><path d="M1854.6501,60.2681 A10,10 0 0 0 1854.7481 74.4099" fill="none" style="stroke:#181818;stroke-width:1.5;"/><ellipse cx="1861.77" cy="67.29" fill="#FFFFFF" rx="6" ry="6" style="stroke:#181818;stroke-width:1.5;"/></g><!--link aName to aName--><g id="link_aName_aName"><path d="M1861.71,67.33 C2002.97,64.49 2419.5,65.05 2419.5,69 C2419.5,72.95 2002.97,73.51 1861.71,70.67 " fill="none" id="aName-aName-1" style="stroke:#181818;stroke-width:1.0;"/><text fill="#000000" font-family="sans-serif" font-size="13" lengthAdjust="spacing" textLength="458" x="2432.5" y="73.5669">com_dailycodebuffer_department_service_DepartmentService_Provider</text><path d="M1854.4982,60.4025 A10,10 0 0 0 1854.7825 74.5418" fill="none" style="stroke:#181818;stroke-width:1.5;"/><ellipse cx="1861.71" cy="67.33" fill="#FFFFFF" rx="6" ry="6" style="stroke:#181818;stroke-width:1.5;"/></g><!--link aName to aName--><g id="link_aName_aName"><path d="M1861.72,67.1 C2068.8,62.17 2903.5,62.81 2903.5,69 C2903.5,75.19 2068.8,75.83 1861.72,70.9 " fill="none" id="aName-aName-2" style="stroke:#181818;stroke-width:1.0;"/><text fill="#000000" font-family="sans-serif" font-size="13" lengthAdjust="spacing" textLength="401" x="2916.5" y="73.5669">com_dailycodebuffer_user_repository_UserRepository_Provider</text><path d="M1854.4826,60.1992 A10,10 0 0 0 1854.8192 74.3374" fill="none" style="stroke:#181818;stroke-width:1.5;"/><ellipse cx="1861.72" cy="67.1" fill="#FFFFFF" rx="6" ry="6" style="stroke:#181818;stroke-width:1.5;"/></g><!--link aName to aName--><g id="link_aName_aName"><path d="M1861.9,66.84 C2116.32,59.87 3330.5,60.59 3330.5,69 C3330.5,77.41 2116.32,78.13 1861.9,71.16 " fill="none" id="aName-aName-3" style="stroke:#181818;stroke-width:1.0;"/><text fill="#000000" font-family="sans-serif" font-size="13" lengthAdjust="spacing" textLength="373" x="3343.5" y="73.5669">com_dailycodebuffer_user_service_RestTemplate_Provider</text><path d="M1854.6379,59.9652 A10,10 0 0 0 1855.0252 74.1021" fill="none" style="stroke:#181818;stroke-width:1.5;"/><ellipse cx="1861.9" cy="66.84" fill="#FFFFFF" rx="6" ry="6" style="stroke:#181818;stroke-width:1.5;"/></g><!--link aName to aName--><g id="link_aName_aName"><path d="M1861.93,66.62 C2155.01,57.56 3729.5,58.36 3729.5,69 C3729.5,79.64 2155.01,80.44 1861.93,71.38 " fill="none" id="aName-aName-4" style="stroke:#181818;stroke-width:1.0;"/><text fill="#000000" font-family="sans-serif" font-size="13" lengthAdjust="spacing" textLength="362" x="3742.5" y="73.5669">com_dailycodebuffer_user_service_UserService_Provider</text><path d="M1854.6438,59.7708 A10,10 0 0 0 1855.0808 73.9062" fill="none" style="stroke:#181818;stroke-width:1.5;"/><ellipse cx="1861.93" cy="66.62" fill="#FFFFFF" rx="6" ry="6" style="stroke:#181818;stroke-width:1.5;"/></g><!--SRC=[lPHDImCn48Rl_HK1BrvMkjssWZVHtaItzGDXMPPypDfWiWcJxDP5_Ez6wTP2RotcE0DvdsU69EvTDfOYrQIM7pSIkO8xoa0zT82AMYkRD-AnXL5Z191SKGvhemHWDI6VeuBUKmqbAGgtfen951inon9dCPnZnlX4Iux60NQImuNhdGTzLgNPzSHTRgOBcByiyeGjuPNNox8SVHrYPd4mypYOSHnC6eiJwH9Cus2oI5kBX8dqTDB_cMT8JCx72HcAAyADhWILgkV1WxLr7Gm4X2_CQsXyXM2DazvWNztkkgk_Pewcay7woFYj_rxsuxPpJ70RulQDdqDzekjlv62v0kUVG5j5FPoUzcDtCEqt]--></g></svg>