<?xml version="1.0" encoding="us-ascii" standalone="no"?><svg xmlns="http://www.w3.org/2000/svg" xmlns:xlink="http://www.w3.org/1999/xlink" contentStyleType="text/css" height="125px" preserveAspectRatio="none" style="width:374px;height:125px;background:#FFFFFF;" version="1.1" viewBox="0 0 374 125" width="374px" zoomAndPan="magnify"><defs/><g><!--cluster Placeholder_2--><g id="cluster_Placeholder_2"><polygon fill="none" points="171.5,16,181.5,6,357.5,6,357.5,98,347.5,108,171.5,108,171.5,16" style="stroke:#181818;stroke-width:1.0;"/><line style="stroke:#181818;stroke-width:1.0;" x1="347.5" x2="357.5" y1="16" y2="6"/><line style="stroke:#181818;stroke-width:1.0;" x1="171.5" x2="347.5" y1="16" y2="16"/><line style="stroke:#181818;stroke-width:1.0;" x1="347.5" x2="347.5" y1="16" y2="108"/><text fill="#000000" font-family="sans-serif" font-size="14" font-weight="bold" lengthAdjust="spacing" textLength="110" x="205.5" y="31.9951">Placeholder_2</text></g><!--entity aName--><g id="elem_aName"><a href="kit-sdq-esda.system#_xTqAQbw4Ee6yq-ZP2LwqFw" target="_top" title="kit-sdq-esda.system#_xTqAQbw4Ee6yq-ZP2LwqFw" xlink:actuate="onRequest" xlink:href="kit-sdq-esda.system#_xTqAQbw4Ee6yq-ZP2LwqFw" xlink:show="new" xlink:title="kit-sdq-esda.system#_xTqAQbw4Ee6yq-ZP2LwqFw" xlink:type="simple"><rect fill="#F1F1F1" height="46.2969" rx="2.5" ry="2.5" style="stroke:#181818;stroke-width:0.5;" width="88" x="188.5" y="46"/><rect fill="#F1F1F1" height="10" style="stroke:#181818;stroke-width:0.5;" width="15" x="256.5" y="51"/><rect fill="#F1F1F1" height="2" style="stroke:#181818;stroke-width:0.5;" width="4" x="254.5" y="53"/><rect fill="#F1F1F1" height="2" style="stroke:#181818;stroke-width:0.5;" width="4" x="254.5" y="57"/><text fill="#000000" font-family="sans-serif" font-size="14" lengthAdjust="spacing" textLength="48" x="203.5" y="78.9951">aName</text></a></g><!--entity Placeholder_0--><g id="elem_Placeholder_0"><polygon fill="#F1F1F1" points="16,56,26,46,153,46,153,82.2969,143,92.2969,16,92.2969,16,56" style="stroke:#181818;stroke-width:0.5;"/><line style="stroke:#181818;stroke-width:0.5;" x1="143" x2="153" y1="56" y2="46"/><line style="stroke:#181818;stroke-width:0.5;" x1="16" x2="143" y1="56" y2="56"/><line style="stroke:#181818;stroke-width:0.5;" x1="143" x2="143" y1="56" y2="92.2969"/><text fill="#000000" font-family="sans-serif" font-size="14" lengthAdjust="spacing" textLength="97" x="31" y="78.9951">Placeholder_0</text></g><!--SRC=[AyxEp2j8B4hCLKZBh73EB4hEIVL9J4hDyIzBBSf9B2Z8p4jNA2agJUNAoqz9LGZ8IKnEpSZFIKajYZTIgEQAJlHBp4sDLOYEpiuiqIrEATHDBKv9r2kkB2v9pLMEhmWfT0nCAZTnJJMhBDID2Z3oAIzqAu-DvQh5DCw08kC0]--></g></svg>