<?xml version="1.0" encoding="us-ascii" standalone="no"?><svg xmlns="http://www.w3.org/2000/svg" xmlns:xlink="http://www.w3.org/1999/xlink" contentStyleType="text/css" height="294px" preserveAspectRatio="none" style="width:11464px;height:294px;background:#FFFFFF;" version="1.1" viewBox="0 0 11464 294" width="11464px" zoomAndPan="magnify"><defs/><g><!--entity interface.java_util_List--><g id="elem_interface.java_util_List"><ellipse cx="2604.5" cy="256" fill="#F1F1F1" rx="8" ry="8" style="stroke:#181818;stroke-width:0.5;"/><text fill="#000000" font-family="sans-serif" font-size="14" lengthAdjust="spacing" textLength="83" x="2563" y="285.9951">java_util_List</text></g><!--entity teammates_client_scripts_DataBundleRegenerator--><g id="elem_teammates_client_scripts_DataBundleRegenerator"><rect fill="#F1F1F1" height="46.2969" rx="2.5" ry="2.5" style="stroke:#181818;stroke-width:0.5;" width="390" x="1238.5" y="104"/><rect fill="#F1F1F1" height="10" style="stroke:#181818;stroke-width:0.5;" width="15" x="1608.5" y="109"/><rect fill="#F1F1F1" height="2" style="stroke:#181818;stroke-width:0.5;" width="4" x="1606.5" y="111"/><rect fill="#F1F1F1" height="2" style="stroke:#181818;stroke-width:0.5;" width="4" x="1606.5" y="115"/><text fill="#000000" font-family="sans-serif" font-size="14" lengthAdjust="spacing" textLength="350" x="1253.5" y="136.9951">teammates_client_scripts_DataBundleRegenerator</text></g><!--entity interface.java_util_Iterator--><g id="elem_interface.java_util_Iterator"><ellipse cx="7263.5" cy="14" fill="#F1F1F1" rx="8" ry="8" style="stroke:#181818;stroke-width:0.5;"/><text fill="#000000" font-family="sans-serif" font-size="14" lengthAdjust="spacing" textLength="109" x="7209" y="43.9951">java_util_Iterator</text></g><!--entity teammates_client_scripts_statistics_CursorIterator--><g id="elem_teammates_client_scripts_statistics_CursorIterator"><rect fill="#F1F1F1" height="46.2969" rx="2.5" ry="2.5" style="stroke:#181818;stroke-width:0.5;" width="385" x="7071" y="104"/><rect fill="#F1F1F1" height="10" style="stroke:#181818;stroke-width:0.5;" width="15" x="7436" y="109"/><rect fill="#F1F1F1" height="2" style="stroke:#181818;stroke-width:0.5;" width="4" x="7434" y="111"/><rect fill="#F1F1F1" height="2" style="stroke:#181818;stroke-width:0.5;" width="4" x="7434" y="115"/><text fill="#000000" font-family="sans-serif" font-size="14" lengthAdjust="spacing" textLength="345" x="7086" y="136.9951">teammates_client_scripts_statistics_CursorIterator</text></g><!--entity interface.java_util_Queue--><g id="elem_interface.java_util_Queue"><ellipse cx="7263.5" cy="256" fill="#F1F1F1" rx="8" ry="8" style="stroke:#181818;stroke-width:0.5;"/><text fill="#000000" font-family="sans-serif" font-size="14" lengthAdjust="spacing" textLength="107" x="7210" y="285.9951">java_util_Queue</text></g><!--entity interface.java_util_Map--><g id="elem_interface.java_util_Map"><ellipse cx="4980.5" cy="256" fill="#F1F1F1" rx="8" ry="8" style="stroke:#181818;stroke-width:0.5;"/><text fill="#000000" font-family="sans-serif" font-size="14" lengthAdjust="spacing" textLength="89" x="4936" y="285.9951">java_util_Map</text></g><!--entity teammates_common_datatransfer_InstructorPrivileges--><g id="elem_teammates_common_datatransfer_InstructorPrivileges"><rect fill="#F1F1F1" height="46.2969" rx="2.5" ry="2.5" style="stroke:#181818;stroke-width:0.5;" width="414" x="6165.5" y="104"/><rect fill="#F1F1F1" height="10" style="stroke:#181818;stroke-width:0.5;" width="15" x="6559.5" y="109"/><rect fill="#F1F1F1" height="2" style="stroke:#181818;stroke-width:0.5;" width="4" x="6557.5" y="111"/><rect fill="#F1F1F1" height="2" style="stroke:#181818;stroke-width:0.5;" width="4" x="6557.5" y="115"/><text fill="#000000" font-family="sans-serif" font-size="14" lengthAdjust="spacing" textLength="374" x="6180.5" y="136.9951">teammates_common_datatransfer_InstructorPrivileges</text></g><!--entity interface.java_util_Set--><g id="elem_interface.java_util_Set"><ellipse cx="6372.5" cy="256" fill="#F1F1F1" rx="8" ry="8" style="stroke:#181818;stroke-width:0.5;"/><text fill="#000000" font-family="sans-serif" font-size="14" lengthAdjust="spacing" textLength="83" x="6331" y="285.9951">java_util_Set</text></g><!--entity teammates_common_datatransfer_attributes_AccountAttributes--><g id="elem_teammates_common_datatransfer_attributes_AccountAttributes"><rect fill="#F1F1F1" height="46.2969" rx="2.5" ry="2.5" style="stroke:#181818;stroke-width:0.5;" width="480" x="4740.5" y="104"/><rect fill="#F1F1F1" height="10" style="stroke:#181818;stroke-width:0.5;" width="15" x="5200.5" y="109"/><rect fill="#F1F1F1" height="2" style="stroke:#181818;stroke-width:0.5;" width="4" x="5198.5" y="111"/><rect fill="#F1F1F1" height="2" style="stroke:#181818;stroke-width:0.5;" width="4" x="5198.5" y="115"/><text fill="#000000" font-family="sans-serif" font-size="14" lengthAdjust="spacing" textLength="440" x="4755.5" y="136.9951">teammates_common_datatransfer_attributes_AccountAttributes</text></g><!--entity interface.java_lang_Comparable--><g id="elem_interface.java_lang_Comparable"><ellipse cx="1004.5" cy="14" fill="#F1F1F1" rx="8" ry="8" style="stroke:#181818;stroke-width:0.5;"/><text fill="#000000" font-family="sans-serif" font-size="14" lengthAdjust="spacing" textLength="152" x="928.5" y="43.9951">java_lang_Comparable</text></g><!--entity teammates_common_datatransfer_attributes_CourseAttributes--><g id="elem_teammates_common_datatransfer_attributes_CourseAttributes"><rect fill="#F1F1F1" height="46.2969" rx="2.5" ry="2.5" style="stroke:#181818;stroke-width:0.5;" width="473" x="353" y="104"/><rect fill="#F1F1F1" height="10" style="stroke:#181818;stroke-width:0.5;" width="15" x="806" y="109"/><rect fill="#F1F1F1" height="2" style="stroke:#181818;stroke-width:0.5;" width="4" x="804" y="111"/><rect fill="#F1F1F1" height="2" style="stroke:#181818;stroke-width:0.5;" width="4" x="804" y="115"/><text fill="#000000" font-family="sans-serif" font-size="14" lengthAdjust="spacing" textLength="433" x="368" y="136.9951">teammates_common_datatransfer_attributes_CourseAttributes</text></g><!--entity teammates_common_datatransfer_attributes_FeedbackQuestionAttributes--><g id="elem_teammates_common_datatransfer_attributes_FeedbackQuestionAttributes"><rect fill="#F1F1F1" height="46.2969" rx="2.5" ry="2.5" style="stroke:#181818;stroke-width:0.5;" width="554" x="1930.5" y="104"/><rect fill="#F1F1F1" height="10" style="stroke:#181818;stroke-width:0.5;" width="15" x="2464.5" y="109"/><rect fill="#F1F1F1" height="2" style="stroke:#181818;stroke-width:0.5;" width="4" x="2462.5" y="111"/><rect fill="#F1F1F1" height="2" style="stroke:#181818;stroke-width:0.5;" width="4" x="2462.5" y="115"/><text fill="#000000" font-family="sans-serif" font-size="14" lengthAdjust="spacing" textLength="514" x="1945.5" y="136.9951">teammates_common_datatransfer_attributes_FeedbackQuestionAttributes</text></g><!--entity teammates_common_datatransfer_attributes_FeedbackResponseCommentAttributes--><g id="elem_teammates_common_datatransfer_attributes_FeedbackResponseCommentAttributes"><rect fill="#F1F1F1" height="46.2969" rx="2.5" ry="2.5" style="stroke:#181818;stroke-width:0.5;" width="630" x="2818.5" y="104"/><rect fill="#F1F1F1" height="10" style="stroke:#181818;stroke-width:0.5;" width="15" x="3428.5" y="109"/><rect fill="#F1F1F1" height="2" style="stroke:#181818;stroke-width:0.5;" width="4" x="3426.5" y="111"/><rect fill="#F1F1F1" height="2" style="stroke:#181818;stroke-width:0.5;" width="4" x="3426.5" y="115"/><text fill="#000000" font-family="sans-serif" font-size="14" lengthAdjust="spacing" textLength="590" x="2833.5" y="136.9951">teammates_common_datatransfer_attributes_FeedbackResponseCommentAttributes</text></g><!--entity teammates_common_datatransfer_attributes_FeedbackSessionAttributes--><g id="elem_teammates_common_datatransfer_attributes_FeedbackSessionAttributes"><rect fill="#F1F1F1" height="46.2969" rx="2.5" ry="2.5" style="stroke:#181818;stroke-width:0.5;" width="546" x="5255.5" y="104"/><rect fill="#F1F1F1" height="10" style="stroke:#181818;stroke-width:0.5;" width="15" x="5781.5" y="109"/><rect fill="#F1F1F1" height="2" style="stroke:#181818;stroke-width:0.5;" width="4" x="5779.5" y="111"/><rect fill="#F1F1F1" height="2" style="stroke:#181818;stroke-width:0.5;" width="4" x="5779.5" y="115"/><text fill="#000000" font-family="sans-serif" font-size="14" lengthAdjust="spacing" textLength="506" x="5270.5" y="136.9951">teammates_common_datatransfer_attributes_FeedbackSessionAttributes</text></g><!--entity interface.java_util_function_Supplier--><g id="elem_interface.java_util_function_Supplier"><ellipse cx="5688.5" cy="256" fill="#F1F1F1" rx="8" ry="8" style="stroke:#181818;stroke-width:0.5;"/><text fill="#000000" font-family="sans-serif" font-size="14" lengthAdjust="spacing" textLength="179" x="5599" y="285.9951">java_util_function_Supplier</text></g><!--entity teammates_common_util_Config--><g id="elem_teammates_common_util_Config"><rect fill="#F1F1F1" height="46.2969" rx="2.5" ry="2.5" style="stroke:#181818;stroke-width:0.5;" width="264" x="2519.5" y="104"/><rect fill="#F1F1F1" height="10" style="stroke:#181818;stroke-width:0.5;" width="15" x="2763.5" y="109"/><rect fill="#F1F1F1" height="2" style="stroke:#181818;stroke-width:0.5;" width="4" x="2761.5" y="111"/><rect fill="#F1F1F1" height="2" style="stroke:#181818;stroke-width:0.5;" width="4" x="2761.5" y="115"/><text fill="#000000" font-family="sans-serif" font-size="14" lengthAdjust="spacing" textLength="224" x="2534.5" y="136.9951">teammates_common_util_Config</text></g><!--entity teammates_common_util_FieldValidator--><g id="elem_teammates_common_util_FieldValidator"><rect fill="#F1F1F1" height="46.2969" rx="2.5" ry="2.5" style="stroke:#181818;stroke-width:0.5;" width="311" x="7" y="104"/><rect fill="#F1F1F1" height="10" style="stroke:#181818;stroke-width:0.5;" width="15" x="298" y="109"/><rect fill="#F1F1F1" height="2" style="stroke:#181818;stroke-width:0.5;" width="4" x="296" y="111"/><rect fill="#F1F1F1" height="2" style="stroke:#181818;stroke-width:0.5;" width="4" x="296" y="115"/><text fill="#000000" font-family="sans-serif" font-size="14" lengthAdjust="spacing" textLength="271" x="22" y="136.9951">teammates_common_util_FieldValidator</text></g><!--entity teammates_common_util_TzdbResourceZoneRulesProvider--><g id="elem_teammates_common_util_TzdbResourceZoneRulesProvider"><rect fill="#F1F1F1" height="46.2969" rx="2.5" ry="2.5" style="stroke:#181818;stroke-width:0.5;" width="454" x="3850.5" y="104"/><rect fill="#F1F1F1" height="10" style="stroke:#181818;stroke-width:0.5;" width="15" x="4284.5" y="109"/><rect fill="#F1F1F1" height="2" style="stroke:#181818;stroke-width:0.5;" width="4" x="4282.5" y="111"/><rect fill="#F1F1F1" height="2" style="stroke:#181818;stroke-width:0.5;" width="4" x="4282.5" y="115"/><text fill="#000000" font-family="sans-serif" font-size="14" lengthAdjust="spacing" textLength="414" x="3865.5" y="136.9951">teammates_common_util_TzdbResourceZoneRulesProvider</text></g><!--entity teammates_e2e_util_AxeUtil--><g id="elem_teammates_e2e_util_AxeUtil"><rect fill="#F1F1F1" height="46.2969" rx="2.5" ry="2.5" style="stroke:#181818;stroke-width:0.5;" width="232" x="1663.5" y="104"/><rect fill="#F1F1F1" height="10" style="stroke:#181818;stroke-width:0.5;" width="15" x="1875.5" y="109"/><rect fill="#F1F1F1" height="2" style="stroke:#181818;stroke-width:0.5;" width="4" x="1873.5" y="111"/><rect fill="#F1F1F1" height="2" style="stroke:#181818;stroke-width:0.5;" width="4" x="1873.5" y="115"/><text fill="#000000" font-family="sans-serif" font-size="14" lengthAdjust="spacing" textLength="192" x="1678.5" y="136.9951">teammates_e2e_util_AxeUtil</text></g><!--entity interface.teammates_logic_external_AuthService--><g id="elem_interface.teammates_logic_external_AuthService"><ellipse cx="7863.5" cy="14" fill="#F1F1F1" rx="8" ry="8" style="stroke:#181818;stroke-width:0.5;"/><text fill="#000000" font-family="sans-serif" font-size="14" lengthAdjust="spacing" textLength="268" x="7729.5" y="43.9951">teammates_logic_external_AuthService</text></g><!--entity teammates_logic_external_EmptyAuthService--><g id="elem_teammates_logic_external_EmptyAuthService"><rect fill="#F1F1F1" height="46.2969" rx="2.5" ry="2.5" style="stroke:#181818;stroke-width:0.5;" width="351" x="7491" y="104"/><rect fill="#F1F1F1" height="10" style="stroke:#181818;stroke-width:0.5;" width="15" x="7822" y="109"/><rect fill="#F1F1F1" height="2" style="stroke:#181818;stroke-width:0.5;" width="4" x="7820" y="111"/><rect fill="#F1F1F1" height="2" style="stroke:#181818;stroke-width:0.5;" width="4" x="7820" y="115"/><text fill="#000000" font-family="sans-serif" font-size="14" lengthAdjust="spacing" textLength="311" x="7506" y="136.9951">teammates_logic_external_EmptyAuthService</text></g><!--entity interface.teammates_logic_external_EmailSenderService--><g id="elem_interface.teammates_logic_external_EmailSenderService"><ellipse cx="9012.5" cy="14" fill="#F1F1F1" rx="8" ry="8" style="stroke:#181818;stroke-width:0.5;"/><text fill="#000000" font-family="sans-serif" font-size="14" lengthAdjust="spacing" textLength="322" x="8851.5" y="43.9951">teammates_logic_external_EmailSenderService</text></g><!--entity teammates_logic_external_EmptyEmailService--><g id="elem_teammates_logic_external_EmptyEmailService"><rect fill="#F1F1F1" height="46.2969" rx="2.5" ry="2.5" style="stroke:#181818;stroke-width:0.5;" width="355" x="8279" y="104"/><rect fill="#F1F1F1" height="10" style="stroke:#181818;stroke-width:0.5;" width="15" x="8614" y="109"/><rect fill="#F1F1F1" height="2" style="stroke:#181818;stroke-width:0.5;" width="4" x="8612" y="111"/><rect fill="#F1F1F1" height="2" style="stroke:#181818;stroke-width:0.5;" width="4" x="8612" y="115"/><text fill="#000000" font-family="sans-serif" font-size="14" lengthAdjust="spacing" textLength="315" x="8294" y="136.9951">teammates_logic_external_EmptyEmailService</text></g><!--entity interface.teammates_logic_external_RecaptchaService--><g id="elem_interface.teammates_logic_external_RecaptchaService"><ellipse cx="10173.5" cy="14" fill="#F1F1F1" rx="8" ry="8" style="stroke:#181818;stroke-width:0.5;"/><text fill="#000000" font-family="sans-serif" font-size="14" lengthAdjust="spacing" textLength="310" x="10018.5" y="43.9951">teammates_logic_external_RecaptchaService</text></g><!--entity teammates_logic_external_EmptyRecaptchaService--><g id="elem_teammates_logic_external_EmptyRecaptchaService"><rect fill="#F1F1F1" height="46.2969" rx="2.5" ry="2.5" style="stroke:#181818;stroke-width:0.5;" width="393" x="9761" y="104"/><rect fill="#F1F1F1" height="10" style="stroke:#181818;stroke-width:0.5;" width="15" x="10134" y="109"/><rect fill="#F1F1F1" height="2" style="stroke:#181818;stroke-width:0.5;" width="4" x="10132" y="111"/><rect fill="#F1F1F1" height="2" style="stroke:#181818;stroke-width:0.5;" width="4" x="10132" y="115"/><text fill="#000000" font-family="sans-serif" font-size="14" lengthAdjust="spacing" textLength="353" x="9776" y="136.9951">teammates_logic_external_EmptyRecaptchaService</text></g><!--entity teammates_logic_external_FirebaseAuthService--><g id="elem_teammates_logic_external_FirebaseAuthService"><rect fill="#F1F1F1" height="46.2969" rx="2.5" ry="2.5" style="stroke:#181818;stroke-width:0.5;" width="367" x="7877" y="104"/><rect fill="#F1F1F1" height="10" style="stroke:#181818;stroke-width:0.5;" width="15" x="8224" y="109"/><rect fill="#F1F1F1" height="2" style="stroke:#181818;stroke-width:0.5;" width="4" x="8222" y="111"/><rect fill="#F1F1F1" height="2" style="stroke:#181818;stroke-width:0.5;" width="4" x="8222" y="115"/><text fill="#000000" font-family="sans-serif" font-size="14" lengthAdjust="spacing" textLength="327" x="7892" y="136.9951">teammates_logic_external_FirebaseAuthService</text></g><!--entity interface.teammates_logic_external_LogService--><g id="elem_interface.teammates_logic_external_LogService"><ellipse cx="6239.5" cy="14" fill="#F1F1F1" rx="8" ry="8" style="stroke:#181818;stroke-width:0.5;"/><text fill="#000000" font-family="sans-serif" font-size="14" lengthAdjust="spacing" textLength="261" x="6109" y="43.9951">teammates_logic_external_LogService</text></g><!--entity teammates_logic_external_GoogleCloudLoggingService--><g id="elem_teammates_logic_external_GoogleCloudLoggingService"><rect fill="#F1F1F1" height="46.2969" rx="2.5" ry="2.5" style="stroke:#181818;stroke-width:0.5;" width="421" x="6615" y="104"/><rect fill="#F1F1F1" height="10" style="stroke:#181818;stroke-width:0.5;" width="15" x="7016" y="109"/><rect fill="#F1F1F1" height="2" style="stroke:#181818;stroke-width:0.5;" width="4" x="7014" y="111"/><rect fill="#F1F1F1" height="2" style="stroke:#181818;stroke-width:0.5;" width="4" x="7014" y="115"/><text fill="#000000" font-family="sans-serif" font-size="14" lengthAdjust="spacing" textLength="381" x="6630" y="136.9951">teammates_logic_external_GoogleCloudLoggingService</text></g><!--entity interface.teammates_logic_external_TaskQueueService--><g id="elem_interface.teammates_logic_external_TaskQueueService"><ellipse cx="11045.5" cy="14" fill="#F1F1F1" rx="8" ry="8" style="stroke:#181818;stroke-width:0.5;"/><text fill="#000000" font-family="sans-serif" font-size="14" lengthAdjust="spacing" textLength="316" x="10887.5" y="43.9951">teammates_logic_external_TaskQueueService</text></g><!--entity teammates_logic_external_GoogleCloudTasksService--><g id="elem_teammates_logic_external_GoogleCloudTasksService"><rect fill="#F1F1F1" height="46.2969" rx="2.5" ry="2.5" style="stroke:#181818;stroke-width:0.5;" width="407" x="10625" y="104"/><rect fill="#F1F1F1" height="10" style="stroke:#181818;stroke-width:0.5;" width="15" x="11012" y="109"/><rect fill="#F1F1F1" height="2" style="stroke:#181818;stroke-width:0.5;" width="4" x="11010" y="111"/><rect fill="#F1F1F1" height="2" style="stroke:#181818;stroke-width:0.5;" width="4" x="11010" y="115"/><text fill="#000000" font-family="sans-serif" font-size="14" lengthAdjust="spacing" textLength="367" x="10640" y="136.9951">teammates_logic_external_GoogleCloudTasksService</text></g><!--entity teammates_logic_external_GoogleRecaptchaService--><g id="elem_teammates_logic_external_GoogleRecaptchaService"><rect fill="#F1F1F1" height="46.2969" rx="2.5" ry="2.5" style="stroke:#181818;stroke-width:0.5;" width="400" x="10189.5" y="104"/><rect fill="#F1F1F1" height="10" style="stroke:#181818;stroke-width:0.5;" width="15" x="10569.5" y="109"/><rect fill="#F1F1F1" height="2" style="stroke:#181818;stroke-width:0.5;" width="4" x="10567.5" y="111"/><rect fill="#F1F1F1" height="2" style="stroke:#181818;stroke-width:0.5;" width="4" x="10567.5" y="115"/><text fill="#000000" font-family="sans-serif" font-size="14" lengthAdjust="spacing" textLength="360" x="10204.5" y="136.9951">teammates_logic_external_GoogleRecaptchaService</text></g><!--entity teammates_logic_external_LocalLoggingService--><g id="elem_teammates_logic_external_LocalLoggingService"><rect fill="#F1F1F1" height="46.2969" rx="2.5" ry="2.5" style="stroke:#181818;stroke-width:0.5;" width="366" x="4339.5" y="104"/><rect fill="#F1F1F1" height="10" style="stroke:#181818;stroke-width:0.5;" width="15" x="4685.5" y="109"/><rect fill="#F1F1F1" height="2" style="stroke:#181818;stroke-width:0.5;" width="4" x="4683.5" y="111"/><rect fill="#F1F1F1" height="2" style="stroke:#181818;stroke-width:0.5;" width="4" x="4683.5" y="115"/><text fill="#000000" font-family="sans-serif" font-size="14" lengthAdjust="spacing" textLength="326" x="4354.5" y="136.9951">teammates_logic_external_LocalLoggingService</text></g><!--entity teammates_logic_external_LocalTaskQueueService--><g id="elem_teammates_logic_external_LocalTaskQueueService"><rect fill="#F1F1F1" height="46.2969" rx="2.5" ry="2.5" style="stroke:#181818;stroke-width:0.5;" width="391" x="11067" y="104"/><rect fill="#F1F1F1" height="10" style="stroke:#181818;stroke-width:0.5;" width="15" x="11438" y="109"/><rect fill="#F1F1F1" height="2" style="stroke:#181818;stroke-width:0.5;" width="4" x="11436" y="111"/><rect fill="#F1F1F1" height="2" style="stroke:#181818;stroke-width:0.5;" width="4" x="11436" y="115"/><text fill="#000000" font-family="sans-serif" font-size="14" lengthAdjust="spacing" textLength="351" x="11082" y="136.9951">teammates_logic_external_LocalTaskQueueService</text></g><!--entity teammates_logic_external_MailgunService--><g id="elem_teammates_logic_external_MailgunService"><rect fill="#F1F1F1" height="46.2969" rx="2.5" ry="2.5" style="stroke:#181818;stroke-width:0.5;" width="329" x="8669" y="104"/><rect fill="#F1F1F1" height="10" style="stroke:#181818;stroke-width:0.5;" width="15" x="8978" y="109"/><rect fill="#F1F1F1" height="2" style="stroke:#181818;stroke-width:0.5;" width="4" x="8976" y="111"/><rect fill="#F1F1F1" height="2" style="stroke:#181818;stroke-width:0.5;" width="4" x="8976" y="115"/><text fill="#000000" font-family="sans-serif" font-size="14" lengthAdjust="spacing" textLength="289" x="8684" y="136.9951">teammates_logic_external_MailgunService</text></g><!--entity teammates_logic_external_MailjetService--><g id="elem_teammates_logic_external_MailjetService"><rect fill="#F1F1F1" height="46.2969" rx="2.5" ry="2.5" style="stroke:#181818;stroke-width:0.5;" width="319" x="9033" y="104"/><rect fill="#F1F1F1" height="10" style="stroke:#181818;stroke-width:0.5;" width="15" x="9332" y="109"/><rect fill="#F1F1F1" height="2" style="stroke:#181818;stroke-width:0.5;" width="4" x="9330" y="111"/><rect fill="#F1F1F1" height="2" style="stroke:#181818;stroke-width:0.5;" width="4" x="9330" y="115"/><text fill="#000000" font-family="sans-serif" font-size="14" lengthAdjust="spacing" textLength="279" x="9048" y="136.9951">teammates_logic_external_MailjetService</text></g><!--entity teammates_logic_external_SendgridService--><g id="elem_teammates_logic_external_SendgridService"><rect fill="#F1F1F1" height="46.2969" rx="2.5" ry="2.5" style="stroke:#181818;stroke-width:0.5;" width="338" x="9387.5" y="104"/><rect fill="#F1F1F1" height="10" style="stroke:#181818;stroke-width:0.5;" width="15" x="9705.5" y="109"/><rect fill="#F1F1F1" height="2" style="stroke:#181818;stroke-width:0.5;" width="4" x="9703.5" y="111"/><rect fill="#F1F1F1" height="2" style="stroke:#181818;stroke-width:0.5;" width="4" x="9703.5" y="115"/><text fill="#000000" font-family="sans-serif" font-size="14" lengthAdjust="spacing" textLength="298" x="9402.5" y="136.9951">teammates_logic_external_SendgridService</text></g><!--entity teammates_test_MockHttpServletRequest--><g id="elem_teammates_test_MockHttpServletRequest"><rect fill="#F1F1F1" height="46.2969" rx="2.5" ry="2.5" style="stroke:#181818;stroke-width:0.5;" width="331" x="3484" y="104"/><rect fill="#F1F1F1" height="10" style="stroke:#181818;stroke-width:0.5;" width="15" x="3795" y="109"/><rect fill="#F1F1F1" height="2" style="stroke:#181818;stroke-width:0.5;" width="4" x="3793" y="111"/><rect fill="#F1F1F1" height="2" style="stroke:#181818;stroke-width:0.5;" width="4" x="3793" y="115"/><text fill="#000000" font-family="sans-serif" font-size="14" lengthAdjust="spacing" textLength="291" x="3499" y="136.9951">teammates_test_MockHttpServletRequest</text></g><!--entity teammates_test_MockHttpServletResponse--><g id="elem_teammates_test_MockHttpServletResponse"><rect fill="#F1F1F1" height="46.2969" rx="2.5" ry="2.5" style="stroke:#181818;stroke-width:0.5;" width="343" x="861" y="104"/><rect fill="#F1F1F1" height="10" style="stroke:#181818;stroke-width:0.5;" width="15" x="1184" y="109"/><rect fill="#F1F1F1" height="2" style="stroke:#181818;stroke-width:0.5;" width="4" x="1182" y="111"/><rect fill="#F1F1F1" height="2" style="stroke:#181818;stroke-width:0.5;" width="4" x="1182" y="115"/><text fill="#000000" font-family="sans-serif" font-size="14" lengthAdjust="spacing" textLength="303" x="876" y="136.9951">teammates_test_MockHttpServletResponse</text></g><!--entity teammates_ui_webapi_ActionFactory--><g id="elem_teammates_ui_webapi_ActionFactory"><rect fill="#F1F1F1" height="46.2969" rx="2.5" ry="2.5" style="stroke:#181818;stroke-width:0.5;" width="293" x="5837" y="104"/><rect fill="#F1F1F1" height="10" style="stroke:#181818;stroke-width:0.5;" width="15" x="6110" y="109"/><rect fill="#F1F1F1" height="2" style="stroke:#181818;stroke-width:0.5;" width="4" x="6108" y="111"/><rect fill="#F1F1F1" height="2" style="stroke:#181818;stroke-width:0.5;" width="4" x="6108" y="115"/><text fill="#000000" font-family="sans-serif" font-size="14" lengthAdjust="spacing" textLength="253" x="5852" y="136.9951">teammates_ui_webapi_ActionFactory</text></g><!--link teammates_client_scripts_DataBundleRegenerator to interface.java_util_List--><g id="link_teammates_client_scripts_DataBundleRegenerator_interface.java_util_List"><path d="M1628.71,149.65 C1752.43,163.34 1915.83,181.33 2060.5,197 C2270.86,219.79 2527.06,246.84 2590.02,253.47 " fill="none" id="teammates_client_scripts_DataBundleRegenerator-to-interface.java_util_List" style="stroke:#181818;stroke-width:1.0;stroke-dasharray:7.0,7.0;"/><polygon fill="#181818" points="2595.19,254.02,2586.6619,249.0935,2590.2179,253.4929,2585.8185,257.0489,2595.19,254.02" style="stroke:#181818;stroke-width:1.0;"/><text fill="#000000" font-family="sans-serif" font-size="13" lengthAdjust="spacing" textLength="52" x="2061.5" y="193.0669">requires</text></g><!--link interface.java_util_Iterator to teammates_client_scripts_statistics_CursorIterator--><g id="link_interface.java_util_Iterator_teammates_client_scripts_statistics_CursorIterator"><path d="M7263.5,23.34 C7263.5,40.28 7263.5,79.2 7263.5,103.95 " fill="none" id="interface.java_util_Iterator-teammates_client_scripts_statistics_CursorIterator" style="stroke:#181818;stroke-width:1.0;"/></g><!--link teammates_client_scripts_statistics_CursorIterator to interface.java_util_Queue--><g id="link_teammates_client_scripts_statistics_CursorIterator_interface.java_util_Queue"><path d="M7263.5,150.12 C7263.5,176.59 7263.5,220.05 7263.5,241.77 " fill="none" id="teammates_client_scripts_statistics_CursorIterator-to-interface.java_util_Queue" style="stroke:#181818;stroke-width:1.0;stroke-dasharray:7.0,7.0;"/><polygon fill="#181818" points="7263.5,246.8,7267.5,237.8,7263.5,241.8,7259.5,237.8,7263.5,246.8" style="stroke:#181818;stroke-width:1.0;"/><text fill="#000000" font-family="sans-serif" font-size="13" lengthAdjust="spacing" textLength="52" x="7264.5" y="193.0669">requires</text></g><!--link teammates_common_datatransfer_InstructorPrivileges to interface.java_util_Map--><g id="link_teammates_common_datatransfer_InstructorPrivileges_interface.java_util_Map"><path d="M6179.78,150.01 C6051.2,164.33 5878.34,182.9 5725.5,197 C5431.52,224.11 5071.48,248.86 4995.15,254.02 " fill="none" id="teammates_common_datatransfer_InstructorPrivileges-to-interface.java_util_Map" style="stroke:#181818;stroke-width:1.0;stroke-dasharray:7.0,7.0;"/><polygon fill="#181818" points="4989.76,254.38,4999.0132,257.7531,4994.7482,254.037,4998.4644,249.772,4989.76,254.38" style="stroke:#181818;stroke-width:1.0;"/><text fill="#000000" font-family="sans-serif" font-size="13" lengthAdjust="spacing" textLength="52" x="5886.5" y="193.0669">requires</text></g><!--link teammates_common_datatransfer_InstructorPrivileges to interface.java_util_Set--><g id="link_teammates_common_datatransfer_InstructorPrivileges_interface.java_util_Set"><path d="M6372.5,150.12 C6372.5,176.59 6372.5,220.05 6372.5,241.77 " fill="none" id="teammates_common_datatransfer_InstructorPrivileges-to-interface.java_util_Set" style="stroke:#181818;stroke-width:1.0;stroke-dasharray:7.0,7.0;"/><polygon fill="#181818" points="6372.5,246.8,6376.5,237.8,6372.5,241.8,6368.5,237.8,6372.5,246.8" style="stroke:#181818;stroke-width:1.0;"/><text fill="#000000" font-family="sans-serif" font-size="13" lengthAdjust="spacing" textLength="52" x="6373.5" y="193.0669">requires</text></g><!--link teammates_common_datatransfer_attributes_AccountAttributes to interface.java_util_Map--><g id="link_teammates_common_datatransfer_attributes_AccountAttributes_interface.java_util_Map"><path d="M4980.5,150.12 C4980.5,176.59 4980.5,220.05 4980.5,241.77 " fill="none" id="teammates_common_datatransfer_attributes_AccountAttributes-to-interface.java_util_Map" style="stroke:#181818;stroke-width:1.0;stroke-dasharray:7.0,7.0;"/><polygon fill="#181818" points="4980.5,246.8,4984.5,237.8,4980.5,241.8,4976.5,237.8,4980.5,246.8" style="stroke:#181818;stroke-width:1.0;"/><text fill="#000000" font-family="sans-serif" font-size="13" lengthAdjust="spacing" textLength="52" x="4981.5" y="193.0669">requires</text></g><!--link interface.java_lang_Comparable to teammates_common_datatransfer_attributes_CourseAttributes--><g id="link_interface.java_lang_Comparable_teammates_common_datatransfer_attributes_CourseAttributes"><path d="M995.45,17.42 C953.78,28.57 778,75.58 671.88,103.97 " fill="none" id="interface.java_lang_Comparable-teammates_common_datatransfer_attributes_CourseAttributes" style="stroke:#181818;stroke-width:1.0;"/></g><!--link interface.java_lang_Comparable to teammates_common_datatransfer_attributes_FeedbackQuestionAttributes--><g id="link_interface.java_lang_Comparable_teammates_common_datatransfer_attributes_FeedbackQuestionAttributes"><path d="M1013.83,15.86 C1092.07,23.08 1643.75,73.98 1969.06,104 " fill="none" id="interface.java_lang_Comparable-teammates_common_datatransfer_attributes_FeedbackQuestionAttributes" style="stroke:#181818;stroke-width:1.0;"/></g><!--link teammates_common_datatransfer_attributes_FeedbackQuestionAttributes to interface.java_util_List--><g id="link_teammates_common_datatransfer_attributes_FeedbackQuestionAttributes_interface.java_util_List"><path d="M2276.65,150.12 C2372.89,180.91 2540.98,234.68 2590.44,250.5 " fill="none" id="teammates_common_datatransfer_attributes_FeedbackQuestionAttributes-to-interface.java_util_List" style="stroke:#181818;stroke-width:1.0;stroke-dasharray:7.0,7.0;"/><polygon fill="#181818" points="2595.36,252.08,2587.9973,245.5386,2590.5956,250.5634,2585.5707,253.1617,2595.36,252.08" style="stroke:#181818;stroke-width:1.0;"/><text fill="#000000" font-family="sans-serif" font-size="13" lengthAdjust="spacing" textLength="52" x="2419.5" y="193.0669">requires</text></g><!--link teammates_common_datatransfer_attributes_FeedbackResponseCommentAttributes to interface.java_util_List--><g id="link_teammates_common_datatransfer_attributes_FeedbackResponseCommentAttributes_interface.java_util_List"><path d="M3041.66,150.05 C2910.38,181.56 2678.34,237.27 2618.76,251.58 " fill="none" id="teammates_common_datatransfer_attributes_FeedbackResponseCommentAttributes-to-interface.java_util_List" style="stroke:#181818;stroke-width:1.0;stroke-dasharray:7.0,7.0;"/><polygon fill="#181818" points="2613.54,252.83,2623.227,254.6084,2618.4006,251.6577,2621.3513,246.8314,2613.54,252.83" style="stroke:#181818;stroke-width:1.0;"/><text fill="#000000" font-family="sans-serif" font-size="13" lengthAdjust="spacing" textLength="52" x="2917.5" y="193.0669">requires</text></g><!--link teammates_common_datatransfer_attributes_FeedbackSessionAttributes to interface.java_util_Map--><g id="link_teammates_common_datatransfer_attributes_FeedbackSessionAttributes_interface.java_util_Map"><path d="M5433.36,150.05 C5296.8,181.7 5054.97,237.74 4994.5,251.75 " fill="none" id="teammates_common_datatransfer_attributes_FeedbackSessionAttributes-to-interface.java_util_Map" style="stroke:#181818;stroke-width:1.0;stroke-dasharray:7.0,7.0;"/><polygon fill="#181818" points="4989.53,252.91,4999.2006,254.7755,4994.401,251.7815,4997.395,246.982,4989.53,252.91" style="stroke:#181818;stroke-width:1.0;"/><text fill="#000000" font-family="sans-serif" font-size="13" lengthAdjust="spacing" textLength="52" x="5305.5" y="193.0669">requires</text></g><!--link teammates_common_datatransfer_attributes_FeedbackSessionAttributes to interface.java_util_function_Supplier--><g id="link_teammates_common_datatransfer_attributes_FeedbackSessionAttributes_interface.java_util_function_Supplier"><path d="M5601.8,150.01 C5618.83,157.56 5635.93,167.4 5649.5,180 C5668.05,197.23 5679.31,225.29 5684.68,241.77 " fill="none" id="teammates_common_datatransfer_attributes_FeedbackSessionAttributes-to-interface.java_util_function_Supplier" style="stroke:#181818;stroke-width:1.0;stroke-dasharray:7.0,7.0;"/><polygon fill="#181818" points="5686.28,246.88,5687.3968,237.0947,5684.7805,242.1101,5679.765,239.4939,5686.28,246.88" style="stroke:#181818;stroke-width:1.0;"/><text fill="#000000" font-family="sans-serif" font-size="13" lengthAdjust="spacing" textLength="52" x="5664.5" y="193.0669">requires</text></g><!--link teammates_common_util_Config to interface.java_util_List--><g id="link_teammates_common_util_Config_interface.java_util_List"><path d="M2643.31,150.12 C2633.48,176.7 2617.3,220.41 2609.29,242.05 " fill="none" id="teammates_common_util_Config-to-interface.java_util_List" style="stroke:#181818;stroke-width:1.0;stroke-dasharray:7.0,7.0;"/><polygon fill="#181818" points="2607.53,246.8,2614.4166,239.7591,2609.2731,242.1137,2606.9185,236.9701,2607.53,246.8" style="stroke:#181818;stroke-width:1.0;"/><text fill="#000000" font-family="sans-serif" font-size="13" lengthAdjust="spacing" textLength="52" x="2633.5" y="193.0669">requires</text></g><!--link teammates_common_util_FieldValidator to interface.java_util_List--><g id="link_teammates_common_util_FieldValidator_interface.java_util_List"><path d="M318.05,148.38 C323.94,148.96 329.77,149.5 335.5,150 C1278.1,231.61 2446.86,252.48 2589.93,254.78 " fill="none" id="teammates_common_util_FieldValidator-to-interface.java_util_List" style="stroke:#181818;stroke-width:1.0;stroke-dasharray:7.0,7.0;"/><polygon fill="#181818" points="2595.29,254.86,2586.3599,250.7063,2590.2907,254.7743,2586.2228,258.7051,2595.29,254.86" style="stroke:#181818;stroke-width:1.0;"/><text fill="#000000" font-family="sans-serif" font-size="13" lengthAdjust="spacing" textLength="52" x="959.5" y="193.0669">requires</text></g><!--link teammates_common_util_TzdbResourceZoneRulesProvider to interface.java_util_List--><g id="link_teammates_common_util_TzdbResourceZoneRulesProvider_interface.java_util_List"><path d="M3850.26,148.44 C3844.28,148.97 3838.35,149.49 3832.5,150 C3333.04,193.8 2719.09,245.39 2618.68,253.81 " fill="none" id="teammates_common_util_TzdbResourceZoneRulesProvider-to-interface.java_util_List" style="stroke:#181818;stroke-width:1.0;stroke-dasharray:7.0,7.0;"/><polygon fill="#181818" points="2613.54,254.24,2622.8403,257.481,2618.5228,253.826,2622.1779,249.5085,2613.54,254.24" style="stroke:#181818;stroke-width:1.0;"/><text fill="#000000" font-family="sans-serif" font-size="13" lengthAdjust="spacing" textLength="52" x="3462.5" y="193.0669">requires</text></g><!--link teammates_common_util_TzdbResourceZoneRulesProvider to interface.java_util_Map--><g id="link_teammates_common_util_TzdbResourceZoneRulesProvider_interface.java_util_Map"><path d="M4140.55,150.04 C4187.84,165.66 4254.48,185.76 4314.5,197 C4573,245.4 4895.68,253.56 4966.39,254.8 " fill="none" id="teammates_common_util_TzdbResourceZoneRulesProvider-to-interface.java_util_Map" style="stroke:#181818;stroke-width:1.0;stroke-dasharray:7.0,7.0;"/><polygon fill="#181818" points="4971.4,254.88,4962.4699,250.7263,4966.4007,254.7943,4962.3328,258.7251,4971.4,254.88" style="stroke:#181818;stroke-width:1.0;"/><text fill="#000000" font-family="sans-serif" font-size="13" lengthAdjust="spacing" textLength="52" x="4315.5" y="193.0669">requires</text></g><!--link teammates_e2e_util_AxeUtil to interface.java_util_List--><g id="link_teammates_e2e_util_AxeUtil_interface.java_util_List"><path d="M1895.54,147.29 C1901.28,148.21 1906.95,149.12 1912.5,150 C2184.45,193.12 2517.14,242.17 2589.97,252.87 " fill="none" id="teammates_e2e_util_AxeUtil-to-interface.java_util_List" style="stroke:#181818;stroke-width:1.0;stroke-dasharray:7.0,7.0;"/><polygon fill="#181818" points="2595.13,253.63,2586.8095,248.3603,2590.1834,252.9009,2585.6429,256.2748,2595.13,253.63" style="stroke:#181818;stroke-width:1.0;"/><text fill="#000000" font-family="sans-serif" font-size="13" lengthAdjust="spacing" textLength="52" x="2198.5" y="193.0669">requires</text></g><!--link interface.teammates_logic_external_AuthService to teammates_logic_external_EmptyAuthService--><g id="link_interface.teammates_logic_external_AuthService_teammates_logic_external_EmptyAuthService"><path d="M7854.26,20.2 C7828.17,34.91 7752.77,77.39 7705.84,103.83 " fill="none" id="interface.teammates_logic_external_AuthService-teammates_logic_external_EmptyAuthService" style="stroke:#181818;stroke-width:1.0;"/></g><!--link interface.teammates_logic_external_EmailSenderService to teammates_logic_external_EmptyEmailService--><g id="link_interface.teammates_logic_external_EmailSenderService_teammates_logic_external_EmptyEmailService"><path d="M9003.31,16.83 C8953.4,26.8 8711.75,75.04 8566.92,103.96 " fill="none" id="interface.teammates_logic_external_EmailSenderService-teammates_logic_external_EmptyEmailService" style="stroke:#181818;stroke-width:1.0;"/></g><!--link interface.teammates_logic_external_RecaptchaService to teammates_logic_external_EmptyRecaptchaService--><g id="link_interface.teammates_logic_external_RecaptchaService_teammates_logic_external_EmptyRecaptchaService"><path d="M10164.49,19.63 C10136.95,33.78 10052.54,77.16 10000.41,103.95 " fill="none" id="interface.teammates_logic_external_RecaptchaService-teammates_logic_external_EmptyRecaptchaService" style="stroke:#181818;stroke-width:1.0;"/></g><!--link interface.teammates_logic_external_AuthService to teammates_logic_external_FirebaseAuthService--><g id="link_interface.teammates_logic_external_AuthService_teammates_logic_external_FirebaseAuthService"><path d="M7872.74,20.2 C7898.83,34.91 7974.23,77.39 8021.16,103.83 " fill="none" id="interface.teammates_logic_external_AuthService-teammates_logic_external_FirebaseAuthService" style="stroke:#181818;stroke-width:1.0;"/></g><!--link interface.teammates_logic_external_LogService to teammates_logic_external_GoogleCloudLoggingService--><g id="link_interface.teammates_logic_external_LogService_teammates_logic_external_GoogleCloudLoggingService"><path d="M6248.7,16.74 C6300.25,26.51 6556.25,75 6709.34,104 " fill="none" id="interface.teammates_logic_external_LogService-teammates_logic_external_GoogleCloudLoggingService" style="stroke:#181818;stroke-width:1.0;"/></g><!--link interface.teammates_logic_external_TaskQueueService to teammates_logic_external_GoogleCloudTasksService--><g id="link_interface.teammates_logic_external_TaskQueueService_teammates_logic_external_GoogleCloudTasksService"><path d="M11036.45,19.63 C11008.78,33.78 10923.98,77.16 10871.61,103.95 " fill="none" id="interface.teammates_logic_external_TaskQueueService-teammates_logic_external_GoogleCloudTasksService" style="stroke:#181818;stroke-width:1.0;"/></g><!--link interface.teammates_logic_external_RecaptchaService to teammates_logic_external_GoogleRecaptchaService--><g id="link_interface.teammates_logic_external_RecaptchaService_teammates_logic_external_GoogleRecaptchaService"><path d="M10182.51,19.63 C10210.05,33.78 10294.46,77.16 10346.59,103.95 " fill="none" id="interface.teammates_logic_external_RecaptchaService-teammates_logic_external_GoogleRecaptchaService" style="stroke:#181818;stroke-width:1.0;"/></g><!--link interface.teammates_logic_external_LogService to teammates_logic_external_LocalLoggingService--><g id="link_interface.teammates_logic_external_LogService_teammates_logic_external_LocalLoggingService"><path d="M6230.44,15.35 C6137.92,19 5354.75,50.71 4722.5,104 C4716.93,104.47 4711.28,104.97 4705.57,105.48 " fill="none" id="interface.teammates_logic_external_LogService-teammates_logic_external_LocalLoggingService" style="stroke:#181818;stroke-width:1.0;"/></g><!--link teammates_logic_external_LocalLoggingService to interface.java_util_List--><g id="link_teammates_logic_external_LocalLoggingService_interface.java_util_List"><path d="M4485.47,150.11 C4456,166.43 4413.09,187.41 4372.5,197 C4191.95,239.65 2777.09,253.46 2618.87,254.88 " fill="none" id="teammates_logic_external_LocalLoggingService-to-interface.java_util_List" style="stroke:#181818;stroke-width:1.0;stroke-dasharray:7.0,7.0;"/><polygon fill="#181818" points="2613.78,254.92,2622.814,258.8427,2618.7798,254.8771,2622.7454,250.843,2613.78,254.92" style="stroke:#181818;stroke-width:1.0;"/><text fill="#000000" font-family="sans-serif" font-size="13" lengthAdjust="spacing" textLength="52" x="4421.5" y="193.0669">requires</text></g><!--link teammates_logic_external_LocalLoggingService to interface.java_util_Map--><g id="link_teammates_logic_external_LocalLoggingService_interface.java_util_Map"><path d="M4602.02,150.05 C4714.2,181.16 4911.4,235.84 4966.08,251 " fill="none" id="teammates_logic_external_LocalLoggingService-to-interface.java_util_Map" style="stroke:#181818;stroke-width:1.0;stroke-dasharray:7.0,7.0;"/><polygon fill="#181818" points="4971.2,252.42,4963.5884,246.1699,4966.3802,251.0899,4961.4602,253.8817,4971.2,252.42" style="stroke:#181818;stroke-width:1.0;"/><text fill="#000000" font-family="sans-serif" font-size="13" lengthAdjust="spacing" textLength="52" x="4766.5" y="193.0669">requires</text></g><!--link interface.teammates_logic_external_TaskQueueService to teammates_logic_external_LocalTaskQueueService--><g id="link_interface.teammates_logic_external_TaskQueueService_teammates_logic_external_LocalTaskQueueService"><path d="M11054.55,19.63 C11082.22,33.78 11167.02,77.16 11219.39,103.95 " fill="none" id="interface.teammates_logic_external_TaskQueueService-teammates_logic_external_LocalTaskQueueService" style="stroke:#181818;stroke-width:1.0;"/></g><!--link interface.teammates_logic_external_EmailSenderService to teammates_logic_external_MailgunService--><g id="link_interface.teammates_logic_external_EmailSenderService_teammates_logic_external_MailgunService"><path d="M9003.38,20.66 C8979.01,35.77 8911.4,77.69 8869.19,103.87 " fill="none" id="interface.teammates_logic_external_EmailSenderService-teammates_logic_external_MailgunService" style="stroke:#181818;stroke-width:1.0;"/></g><!--link interface.teammates_logic_external_EmailSenderService to teammates_logic_external_MailjetService--><g id="link_interface.teammates_logic_external_EmailSenderService_teammates_logic_external_MailjetService"><path d="M9021.67,20.66 C9046.18,35.77 9114.16,77.69 9156.61,103.87 " fill="none" id="interface.teammates_logic_external_EmailSenderService-teammates_logic_external_MailjetService" style="stroke:#181818;stroke-width:1.0;"/></g><!--link interface.teammates_logic_external_EmailSenderService to teammates_logic_external_SendgridService--><g id="link_interface.teammates_logic_external_EmailSenderService_teammates_logic_external_SendgridService"><path d="M9021.94,16.93 C9071.78,27.1 9307.31,75.15 9448.57,103.98 " fill="none" id="interface.teammates_logic_external_EmailSenderService-teammates_logic_external_SendgridService" style="stroke:#181818;stroke-width:1.0;"/></g><!--link teammates_test_MockHttpServletRequest to interface.java_util_List--><g id="link_teammates_test_MockHttpServletRequest_interface.java_util_List"><path d="M3483.92,148.12 C3216.72,180.6 2710.98,242.06 2619.03,253.23 " fill="none" id="teammates_test_MockHttpServletRequest-to-interface.java_util_List" style="stroke:#181818;stroke-width:1.0;stroke-dasharray:7.0,7.0;"/><polygon fill="#181818" points="2613.81,253.87,2623.2254,256.7596,2618.7738,253.2692,2622.2641,248.8175,2613.81,253.87" style="stroke:#181818;stroke-width:1.0;"/><text fill="#000000" font-family="sans-serif" font-size="13" lengthAdjust="spacing" textLength="52" x="3222.5" y="193.0669">requires</text></g><!--link teammates_test_MockHttpServletRequest to interface.java_util_Map--><g id="link_teammates_test_MockHttpServletRequest_interface.java_util_Map"><path d="M3801.16,150.04 C3907.22,164.88 4052.28,184.03 4180.5,197 C4497.78,229.09 4887.59,250.18 4966.27,254.27 " fill="none" id="teammates_test_MockHttpServletRequest-to-interface.java_util_Map" style="stroke:#181818;stroke-width:1.0;stroke-dasharray:7.0,7.0;"/><polygon fill="#181818" points="4971.39,254.54,4962.6073,250.083,4966.3966,254.2832,4962.1964,258.0725,4971.39,254.54" style="stroke:#181818;stroke-width:1.0;"/><text fill="#000000" font-family="sans-serif" font-size="13" lengthAdjust="spacing" textLength="52" x="4181.5" y="193.0669">requires</text></g><!--link teammates_test_MockHttpServletResponse to interface.java_util_List--><g id="link_teammates_test_MockHttpServletResponse_interface.java_util_List"><path d="M1204.09,148.37 C1209.62,148.94 1215.1,149.48 1220.5,150 C1785.45,204.46 2482.4,247.59 2590.21,254.14 " fill="none" id="teammates_test_MockHttpServletResponse-to-interface.java_util_List" style="stroke:#181818;stroke-width:1.0;stroke-dasharray:7.0,7.0;"/><polygon fill="#181818" points="2595.43,254.45,2586.6865,249.9167,2590.439,254.1497,2586.206,257.9022,2595.43,254.45" style="stroke:#181818;stroke-width:1.0;"/><text fill="#000000" font-family="sans-serif" font-size="13" lengthAdjust="spacing" textLength="52" x="1754.5" y="193.0669">requires</text></g><!--link teammates_ui_webapi_ActionFactory to interface.java_util_Map--><g id="link_teammates_ui_webapi_ActionFactory_interface.java_util_Map"><path d="M5836.86,147.61 C5830.66,148.42 5824.52,149.22 5818.5,150 C5484.79,193.15 5075.95,243.32 4994.86,253.24 " fill="none" id="teammates_ui_webapi_ActionFactory-to-interface.java_util_Map" style="stroke:#181818;stroke-width:1.0;stroke-dasharray:7.0,7.0;"/><polygon fill="#181818" points="4989.59,253.89,4999.0126,256.7561,4994.5523,253.2768,4998.0315,248.8165,4989.59,253.89" style="stroke:#181818;stroke-width:1.0;"/><text fill="#000000" font-family="sans-serif" font-size="13" lengthAdjust="spacing" textLength="52" x="5566.5" y="193.0669">requires</text></g><!--SRC=[tLXDRzf04BtxLrYvXqEFFLIYDBIHY9f2saChj1hMWxDXlUlk1oNzzHsRaWG7Wxq1b710I9wFVM_spOxNTYPK3WQoU2eMFM6un05CK7wTev6GvqAbiJCU8w4ScYbmZC_kO0xCEo7PG5Xt5eED7woTTMFqoo5a6JYqZ4k1oZ7BZSYTPP_0mKUl4eb3J56X0QVDkDFvK9ShVXyR_Es5GRiPpQLR9gb5j7A8jXdFp-inMmUEa0XkMSyRgyqgQBmPqJUF7clXbDOePBMQAfK9TvRf2l9QI6HR0wIpJ2kMq5Ov0yfEqR1BPKaGd61S6p4NaZRFrW6YT3lXZB1UGcJR9nnAT-ZgW7D6J7nXxdAklNBTXoU1LPAWKjRJMT6c4xbHJXMNQBjvNU7RIVGqAG-VS7XTyFg8oGJuZ9HFZQBLDg019rRmuYyvnWu1SOWsryeYLJd39ffiX7H_lRB2EK9h6rMooSaozOeN-y96Fi_fQAqV3Cyy3mdzsM87KKHfwsar5UdHrLZQ-W9byWEaI5uys8CntFnD9YHzEiCu_jGAXrwYlJPwBX8qHvP-EA0cMczL8do7IqDtWT_fFw0IZycaJWLdk22J0ahftUq8pLpmwYXe4XArSryR5HMtYontzqzynutWNsGWv0WLRKTB5iyZew2edPp-XxGWDKGEkUEtq99IDIuAYDb9fnemVbiowrDdJ81UaTegRQ3JbWGU8w9MtjlWVzOwbTYJsYSKaD9rhnM96x2pyjRHaaerBWg8QKYh2BCdqIvBKc7zyZhKDj0Sv1QT1Swp1giSQTQ78waVyc-k-KhMrO1J6BzNv9nwTMACxj2T4AF2CJKYsUFnGZ_7hZIVVN4kB_9AT4DgL7fyh7Cb0CBURmsRCIo_Anoh3bwmF_IwbGlMBU_GVIY-_DqthC4_]--></g></svg>