<?xml version="1.0" encoding="us-ascii" standalone="no"?><svg xmlns="http://www.w3.org/2000/svg" xmlns:xlink="http://www.w3.org/1999/xlink" contentStyleType="text/css" height="284px" preserveAspectRatio="none" style="width:3687px;height:284px;background:#FFFFFF;" version="1.1" viewBox="0 0 3687 284" width="3687px" zoomAndPan="magnify"><defs/><g><!--cluster nodecom_rohitghatol_microservices_task_apis--><g id="cluster_nodecom_rohitghatol_microservices_task_apis"><polygon fill="none" points="757,92.49,767,82.49,1784,82.49,1784,257.49,1774,267.49,757,267.49,757,92.49" style="stroke:#181818;stroke-width:1.0;"/><line style="stroke:#181818;stroke-width:1.0;" x1="1774" x2="1784" y1="92.49" y2="82.49"/><line style="stroke:#181818;stroke-width:1.0;" x1="757" x2="1774" y1="92.49" y2="92.49"/><line style="stroke:#181818;stroke-width:1.0;" x1="1774" x2="1774" y1="92.49" y2="267.49"/><text fill="#000000" font-family="sans-serif" font-size="14" font-weight="bold" lengthAdjust="spacing" textLength="363" x="1085" y="108.4851">nodecom_rohitghatol_microservices_task_apis</text></g><!--cluster com_rohitghatol_microservices_task_apis--><g id="cluster_com_rohitghatol_microservices_task_apis"><rect fill="none" height="97" rx="2.5" ry="2.5" style="stroke:#181818;stroke-width:1.0;" width="955" x="797" y="138.49"/><rect fill="none" height="10" style="stroke:#181818;stroke-width:1.0;" width="15" x="1732" y="143.49"/><rect fill="none" height="2" style="stroke:#181818;stroke-width:1.0;" width="4" x="1730" y="145.49"/><rect fill="none" height="2" style="stroke:#181818;stroke-width:1.0;" width="4" x="1730" y="149.49"/><text fill="#000000" font-family="sans-serif" font-size="14" font-weight="bold" lengthAdjust="spacing" textLength="323" x="1113" y="164.4851">com_rohitghatol_microservices_task_apis</text></g><!--cluster nodecom_rohitghatol_microservice_auth_api_AuthUserController--><g id="cluster_nodecom_rohitghatol_microservice_auth_api_AuthUserController"><polygon fill="none" points="1816,143.49,1826,133.49,2399,133.49,2399,225.49,2389,235.49,1816,235.49,1816,143.49" style="stroke:#181818;stroke-width:1.0;"/><line style="stroke:#181818;stroke-width:1.0;" x1="2389" x2="2399" y1="143.49" y2="133.49"/><line style="stroke:#181818;stroke-width:1.0;" x1="1816" x2="2389" y1="143.49" y2="143.49"/><line style="stroke:#181818;stroke-width:1.0;" x1="2389" x2="2389" y1="143.49" y2="235.49"/><text fill="#000000" font-family="sans-serif" font-size="14" font-weight="bold" lengthAdjust="spacing" textLength="507" x="1850" y="159.4851">nodecom_rohitghatol_microservice_auth_api_AuthUserController</text></g><!--cluster nodecom_rohitghatol_microservices_comments_apis_CommentsController--><g id="cluster_nodecom_rohitghatol_microservices_comments_apis_CommentsController"><polygon fill="none" points="2423,143.49,2433,133.49,3081,133.49,3081,225.49,3071,235.49,2423,235.49,2423,143.49" style="stroke:#181818;stroke-width:1.0;"/><line style="stroke:#181818;stroke-width:1.0;" x1="3071" x2="3081" y1="143.49" y2="133.49"/><line style="stroke:#181818;stroke-width:1.0;" x1="2423" x2="3071" y1="143.49" y2="143.49"/><line style="stroke:#181818;stroke-width:1.0;" x1="3071" x2="3071" y1="143.49" y2="235.49"/><text fill="#000000" font-family="sans-serif" font-size="14" font-weight="bold" lengthAdjust="spacing" textLength="582" x="2457" y="159.4851">nodecom_rohitghatol_microservices_comments_apis_CommentsController</text></g><!--cluster nodecom_rohitghatol_microservices_task_apis_OAuth2RestOperations_Provider--><g id="cluster_nodecom_rohitghatol_microservices_task_apis_OAuth2RestOperations_Provider"><polygon fill="none" points="16,135.49,26,125.49,717,125.49,717,233.49,707,243.49,16,243.49,16,135.49" style="stroke:#181818;stroke-width:1.0;"/><line style="stroke:#181818;stroke-width:1.0;" x1="707" x2="717" y1="135.49" y2="125.49"/><line style="stroke:#181818;stroke-width:1.0;" x1="16" x2="707" y1="135.49" y2="135.49"/><line style="stroke:#181818;stroke-width:1.0;" x1="707" x2="707" y1="135.49" y2="243.49"/><text fill="#000000" font-family="sans-serif" font-size="14" font-weight="bold" lengthAdjust="spacing" textLength="625" x="50" y="151.4851">nodecom_rohitghatol_microservices_task_apis_OAuth2RestOperations_Provider</text></g><!--cluster nodecom_rohitghatol_microservices_user_apis_UserController--><g id="cluster_nodecom_rohitghatol_microservices_user_apis_UserController"><polygon fill="none" points="3105,143.49,3115,133.49,3670,133.49,3670,225.49,3660,235.49,3105,235.49,3105,143.49" style="stroke:#181818;stroke-width:1.0;"/><line style="stroke:#181818;stroke-width:1.0;" x1="3660" x2="3670" y1="143.49" y2="133.49"/><line style="stroke:#181818;stroke-width:1.0;" x1="3105" x2="3660" y1="143.49" y2="143.49"/><line style="stroke:#181818;stroke-width:1.0;" x1="3660" x2="3660" y1="143.49" y2="235.49"/><text fill="#000000" font-family="sans-serif" font-size="14" font-weight="bold" lengthAdjust="spacing" textLength="489" x="3139" y="159.4851">nodecom_rohitghatol_microservices_user_apis_UserController</text></g><!--entity com_rohitghatol_microservices_task_apis_CommentsService--><g id="elem_com_rohitghatol_microservices_task_apis_CommentsService"><a href="rohitghatol-spring-boot-microservices.system#_QUfYAFR8Ee-QBdhMxVFhkg" target="_top" title="rohitghatol-spring-boot-microservices.system#_QUfYAFR8Ee-QBdhMxVFhkg" xlink:actuate="onRequest" xlink:href="rohitghatol-spring-boot-microservices.system#_QUfYAFR8Ee-QBdhMxVFhkg" xlink:show="new" xlink:title="rohitghatol-spring-boot-microservices.system#_QUfYAFR8Ee-QBdhMxVFhkg" xlink:type="simple"><rect fill="#F1F1F1" height="46.2969" rx="2.5" ry="2.5" style="stroke:#181818;stroke-width:0.5;" width="457" x="1279.5" y="173.49"/><rect fill="#F1F1F1" height="10" style="stroke:#181818;stroke-width:0.5;" width="15" x="1716.5" y="178.49"/><rect fill="#F1F1F1" height="2" style="stroke:#181818;stroke-width:0.5;" width="4" x="1714.5" y="180.49"/><rect fill="#F1F1F1" height="2" style="stroke:#181818;stroke-width:0.5;" width="4" x="1714.5" y="184.49"/><text fill="#000000" font-family="sans-serif" font-size="14" lengthAdjust="spacing" textLength="417" x="1294.5" y="206.4851">com_rohitghatol_microservices_task_apis_CommentsService</text></a></g><!--entity com_rohitghatol_microservices_task_apis_TaskController--><g id="elem_com_rohitghatol_microservices_task_apis_TaskController"><a href="rohitghatol-spring-boot-microservices.system#_QUfYAFR8Ee-QBdhMxVFhkg" target="_top" title="rohitghatol-spring-boot-microservices.system#_QUfYAFR8Ee-QBdhMxVFhkg" xlink:actuate="onRequest" xlink:href="rohitghatol-spring-boot-microservices.system#_QUfYAFR8Ee-QBdhMxVFhkg" xlink:show="new" xlink:title="rohitghatol-spring-boot-microservices.system#_QUfYAFR8Ee-QBdhMxVFhkg" xlink:type="simple"><rect fill="#F1F1F1" height="46.2969" rx="2.5" ry="2.5" style="stroke:#181818;stroke-width:0.5;" width="431" x="813.5" y="173.49"/><rect fill="#F1F1F1" height="10" style="stroke:#181818;stroke-width:0.5;" width="15" x="1224.5" y="178.49"/><rect fill="#F1F1F1" height="2" style="stroke:#181818;stroke-width:0.5;" width="4" x="1222.5" y="180.49"/><rect fill="#F1F1F1" height="2" style="stroke:#181818;stroke-width:0.5;" width="4" x="1222.5" y="184.49"/><text fill="#000000" font-family="sans-serif" font-size="14" lengthAdjust="spacing" textLength="391" x="828.5" y="206.4851">com_rohitghatol_microservices_task_apis_TaskController</text></a></g><!--entity com_rohitghatol_microservice_auth_api_AuthUserController--><g id="elem_com_rohitghatol_microservice_auth_api_AuthUserController"><a href="rohitghatol-spring-boot-microservices.system#_QUfYAFR8Ee-QBdhMxVFhkg" target="_top" title="rohitghatol-spring-boot-microservices.system#_QUfYAFR8Ee-QBdhMxVFhkg" xlink:actuate="onRequest" xlink:href="rohitghatol-spring-boot-microservices.system#_QUfYAFR8Ee-QBdhMxVFhkg" xlink:show="new" xlink:title="rohitghatol-spring-boot-microservices.system#_QUfYAFR8Ee-QBdhMxVFhkg" xlink:type="simple"><rect fill="#F1F1F1" height="46.2969" rx="2.5" ry="2.5" style="stroke:#181818;stroke-width:0.5;" width="448" x="1883" y="173.49"/><rect fill="#F1F1F1" height="10" style="stroke:#181818;stroke-width:0.5;" width="15" x="2311" y="178.49"/><rect fill="#F1F1F1" height="2" style="stroke:#181818;stroke-width:0.5;" width="4" x="2309" y="180.49"/><rect fill="#F1F1F1" height="2" style="stroke:#181818;stroke-width:0.5;" width="4" x="2309" y="184.49"/><text fill="#000000" font-family="sans-serif" font-size="14" lengthAdjust="spacing" textLength="408" x="1898" y="206.4851">com_rohitghatol_microservice_auth_api_AuthUserController</text></a></g><!--entity com_rohitghatol_microservices_comments_apis_CommentsController--><g id="elem_com_rohitghatol_microservices_comments_apis_CommentsController"><a href="rohitghatol-spring-boot-microservices.system#_QUfYAFR8Ee-QBdhMxVFhkg" target="_top" title="rohitghatol-spring-boot-microservices.system#_QUfYAFR8Ee-QBdhMxVFhkg" xlink:actuate="onRequest" xlink:href="rohitghatol-spring-boot-microservices.system#_QUfYAFR8Ee-QBdhMxVFhkg" xlink:show="new" xlink:title="rohitghatol-spring-boot-microservices.system#_QUfYAFR8Ee-QBdhMxVFhkg" xlink:type="simple"><rect fill="#F1F1F1" height="46.2969" rx="2.5" ry="2.5" style="stroke:#181818;stroke-width:0.5;" width="519" x="2492.5" y="173.49"/><rect fill="#F1F1F1" height="10" style="stroke:#181818;stroke-width:0.5;" width="15" x="2991.5" y="178.49"/><rect fill="#F1F1F1" height="2" style="stroke:#181818;stroke-width:0.5;" width="4" x="2989.5" y="180.49"/><rect fill="#F1F1F1" height="2" style="stroke:#181818;stroke-width:0.5;" width="4" x="2989.5" y="184.49"/><text fill="#000000" font-family="sans-serif" font-size="14" lengthAdjust="spacing" textLength="479" x="2507.5" y="206.4851">com_rohitghatol_microservices_comments_apis_CommentsController</text></a></g><!--entity com_rohitghatol_microservices_task_apis_OAuth2RestOperations_Provider--><g id="elem_com_rohitghatol_microservices_task_apis_OAuth2RestOperations_Provider"><a href="rohitghatol-spring-boot-microservices.system#_QUfYAFR8Ee-QBdhMxVFhkg" target="_top" title="rohitghatol-spring-boot-microservices.system#_QUfYAFR8Ee-QBdhMxVFhkg" xlink:actuate="onRequest" xlink:href="rohitghatol-spring-boot-microservices.system#_QUfYAFR8Ee-QBdhMxVFhkg" xlink:show="new" xlink:title="rohitghatol-spring-boot-microservices.system#_QUfYAFR8Ee-QBdhMxVFhkg" xlink:type="simple"><rect fill="#F1F1F1" height="46.2969" rx="2.5" ry="2.5" style="stroke:#181818;stroke-width:0.5;" width="554" x="139" y="173.49"/><rect fill="#F1F1F1" height="10" style="stroke:#181818;stroke-width:0.5;" width="15" x="673" y="178.49"/><rect fill="#F1F1F1" height="2" style="stroke:#181818;stroke-width:0.5;" width="4" x="671" y="180.49"/><rect fill="#F1F1F1" height="2" style="stroke:#181818;stroke-width:0.5;" width="4" x="671" y="184.49"/><text fill="#000000" font-family="sans-serif" font-size="14" lengthAdjust="spacing" textLength="514" x="154" y="206.4851">com_rohitghatol_microservices_task_apis_OAuth2RestOperations_Provider</text></a></g><!--entity com_rohitghatol_microservices_user_apis_UserController--><g id="elem_com_rohitghatol_microservices_user_apis_UserController"><a href="rohitghatol-spring-boot-microservices.system#_QUfYAFR8Ee-QBdhMxVFhkg" target="_top" title="rohitghatol-spring-boot-microservices.system#_QUfYAFR8Ee-QBdhMxVFhkg" xlink:actuate="onRequest" xlink:href="rohitghatol-spring-boot-microservices.system#_QUfYAFR8Ee-QBdhMxVFhkg" xlink:show="new" xlink:title="rohitghatol-spring-boot-microservices.system#_QUfYAFR8Ee-QBdhMxVFhkg" xlink:type="simple"><rect fill="#F1F1F1" height="46.2969" rx="2.5" ry="2.5" style="stroke:#181818;stroke-width:0.5;" width="432" x="3171" y="173.49"/><rect fill="#F1F1F1" height="10" style="stroke:#181818;stroke-width:0.5;" width="15" x="3583" y="178.49"/><rect fill="#F1F1F1" height="2" style="stroke:#181818;stroke-width:0.5;" width="4" x="3581" y="180.49"/><rect fill="#F1F1F1" height="2" style="stroke:#181818;stroke-width:0.5;" width="4" x="3581" y="184.49"/><text fill="#000000" font-family="sans-serif" font-size="14" lengthAdjust="spacing" textLength="392" x="3186" y="206.4851">com_rohitghatol_microservices_user_apis_UserController</text></a></g><!--link nodecom_rohitghatol_microservices_task_apis_OAuth2RestOperations_Provider to nodecom_rohitghatol_microservices_task_apis--><g id="link_nodecom_rohitghatol_microservices_task_apis_OAuth2RestOperations_Provider_nodecom_rohitghatol_microservices_task_apis"><path d="M98.7567,125.1519 C98.7867,124.6096 98.8187,124.0666 98.8527,123.5229 C98.9207,122.4355 98.9968,121.3455 99.0813,120.2535 C99.2504,118.0695 99.4533,115.8778 99.6935,113.6841 C100.1737,109.2968 100.8024,104.9017 101.6056,100.5459 C103.212,91.8343 105.5161,83.2793 108.7253,75.2558 C115.1438,59.2088 125.1825,45.2875 140.5,36.49 C193.59,6 638.41,6 691.5,36.49 C723.84,55.065 742.0475,92.2725 752.2488,126.135 C753.5239,130.3678 754.674,134.5484 755.7109,138.6337 C755.9701,139.6551 756.2223,140.6704 756.4676,141.6792 C756.5902,142.1836 756.7111,142.6863 756.8303,143.1873 " fill="none" id="nodecom_rohitghatol_microservices_task_apis_OAuth2RestOperations_Provider-nodecom_rohitghatol_microservices_task_apis" style="stroke:#181818;stroke-width:1.0;"/></g><!--SRC=[nLB1QiCm3BtdAmmxPuUUTkt2Ujh8sgw34O9n4xKniIrZEQ5bxD_dqD6kXwqk18h124dlyPuaQgMnmWdDDdANILSfU1PhK7aFJWbhfTaoxpf8wDXOeRPemFYbtojWdLQJn60DRFX2aJjifDysmgFYMbOE2LmlAo3k1RLSM4diCpdIi7XC4TdACzGwKDFoK2fPKVo2fMHTC9Qk4NrwHd5FU_AWx_XyjVcOpXOFJv3E7-lcPVS-QzfjMSPBU0jHXiOxL0hSY0g-mekQDnUTRmOnV1g2LSYUz5mQvd_OKRr4Naxriz3pzSRxkSnm2rUdQyc7CKyMG3wtu8INQ8Y_Eknb7MCkakWM7hiG7QHTTu5_8qTrKOosfPAbx1gsCla6]--></g></svg>