<?xml version="1.0" encoding="windows-1252" standalone="no"?>
<svg xmlns="http://www.w3.org/2000/svg" xmlns:xlink="http://www.w3.org/1999/xlink" contentStyleType="text/css" height="1012px" preserveAspectRatio="none" style="width:1543px;height:1012px;background:#FFFFFF;" version="1.1" viewBox="0 0 1543 1012" width="1543px" zoomAndPan="magnify"><defs/><g><!--cluster movieService--><g id="cluster_movieService"><rect fill="none" height="260" rx="2.5" ry="2.5" style="stroke:#181818;stroke-width:1.0;" width="296" x="1181" y="637"/><rect fill="none" height="10" style="stroke:#181818;stroke-width:1.0;" width="15" x="1457" y="642"/><rect fill="none" height="2" style="stroke:#181818;stroke-width:1.0;" width="4" x="1455" y="644"/><rect fill="none" height="2" style="stroke:#181818;stroke-width:1.0;" width="4" x="1455" y="648"/><text fill="#000000" font-family="sans-serif" font-size="14" font-weight="bold" lengthAdjust="spacing" textLength="111" x="1273.5" y="662.9951">movie-service</text></g><!--cluster recoService--><g id="cluster_recoService"><rect fill="none" height="260" rx="2.5" ry="2.5" style="stroke:#181818;stroke-width:1.0;" width="541" x="7" y="637"/><rect fill="none" height="10" style="stroke:#181818;stroke-width:1.0;" width="15" x="528" y="642"/><rect fill="none" height="2" style="stroke:#181818;stroke-width:1.0;" width="4" x="526" y="644"/><rect fill="none" height="2" style="stroke:#181818;stroke-width:1.0;" width="4" x="526" y="648"/><text fill="#000000" font-family="sans-serif" font-size="14" font-weight="bold" lengthAdjust="spacing" textLength="200" x="177.5" y="662.9951">recommendation-service</text></g><!--cluster userService--><g id="cluster_userService"><rect fill="none" height="260" rx="2.5" ry="2.5" style="stroke:#181818;stroke-width:1.0;" width="341" x="746" y="637"/><rect fill="none" height="10" style="stroke:#181818;stroke-width:1.0;" width="15" x="1067" y="642"/><rect fill="none" height="2" style="stroke:#181818;stroke-width:1.0;" width="4" x="1065" y="644"/><rect fill="none" height="2" style="stroke:#181818;stroke-width:1.0;" width="4" x="1065" y="648"/><text fill="#000000" font-family="sans-serif" font-size="14" font-weight="bold" lengthAdjust="spacing" textLength="98" x="867.5" y="662.9951">user-service</text></g><!--cluster recoClient--><g id="cluster_recoClient"><rect fill="none" height="303" rx="2.5" ry="2.5" style="stroke:#181818;stroke-width:1.0;" width="861" x="617" y="110"/><rect fill="none" height="10" style="stroke:#181818;stroke-width:1.0;" width="15" x="1458" y="115"/><rect fill="none" height="2" style="stroke:#181818;stroke-width:1.0;" width="4" x="1456" y="117"/><rect fill="none" height="2" style="stroke:#181818;stroke-width:1.0;" width="4" x="1456" y="121"/><text fill="#000000" font-family="sans-serif" font-size="14" font-weight="bold" lengthAdjust="spacing" textLength="189" x="953" y="135.9951">recommendation-client</text></g><text fill="#000000" font-family="sans-serif" font-size="14" lengthAdjust="spacing" textLength="4" x="1197" y="615.6982"> </text><rect fill="#F1F1F1" height="12" style="stroke:#181818;stroke-width:1.5;" width="12" x="1193" y="631"/><!--entity MovieController--><g id="elem_MovieController"><rect fill="#F1F1F1" height="46.2969" rx="2.5" ry="2.5" style="stroke:#181818;stroke-width:0.5;" width="155" x="1297.5" y="704"/><rect fill="#F1F1F1" height="10" style="stroke:#181818;stroke-width:0.5;" width="15" x="1432.5" y="709"/><rect fill="#F1F1F1" height="2" style="stroke:#181818;stroke-width:0.5;" width="4" x="1430.5" y="711"/><rect fill="#F1F1F1" height="2" style="stroke:#181818;stroke-width:0.5;" width="4" x="1430.5" y="715"/><text fill="#000000" font-family="sans-serif" font-size="14" lengthAdjust="spacing" textLength="115" x="1312.5" y="736.9951">MovieController</text></g><!--entity MovieRepo1--><g id="elem_MovieRepo1"><rect fill="#F1F1F1" height="46.2969" rx="2.5" ry="2.5" style="stroke:#181818;stroke-width:0.5;" width="120" x="1315" y="827"/><rect fill="#F1F1F1" height="10" style="stroke:#181818;stroke-width:0.5;" width="15" x="1415" y="832"/><rect fill="#F1F1F1" height="2" style="stroke:#181818;stroke-width:0.5;" width="4" x="1413" y="834"/><rect fill="#F1F1F1" height="2" style="stroke:#181818;stroke-width:0.5;" width="4" x="1413" y="838"/><text fill="#000000" font-family="sans-serif" font-size="14" lengthAdjust="spacing" textLength="80" x="1330" y="859.9951">MovieRepo</text></g><text fill="#000000" font-family="sans-serif" font-size="14" lengthAdjust="spacing" textLength="4" x="401" y="615.6982"> </text><rect fill="#F1F1F1" height="12" style="stroke:#181818;stroke-width:1.5;" width="12" x="397" y="631"/><!--entity RecoController--><g id="elem_RecoController"><rect fill="#F1F1F1" height="46.2969" rx="2.5" ry="2.5" style="stroke:#181818;stroke-width:0.5;" width="241" x="282.5" y="704"/><rect fill="#F1F1F1" height="10" style="stroke:#181818;stroke-width:0.5;" width="15" x="503.5" y="709"/><rect fill="#F1F1F1" height="2" style="stroke:#181818;stroke-width:0.5;" width="4" x="501.5" y="711"/><rect fill="#F1F1F1" height="2" style="stroke:#181818;stroke-width:0.5;" width="4" x="501.5" y="715"/><text fill="#000000" font-family="sans-serif" font-size="14" lengthAdjust="spacing" textLength="201" x="297.5" y="736.9951">RecommendationController</text></g><!--entity UserRepo2--><g id="elem_UserRepo2"><rect fill="#F1F1F1" height="46.2969" rx="2.5" ry="2.5" style="stroke:#181818;stroke-width:0.5;" width="109" x="249.5" y="827"/><rect fill="#F1F1F1" height="10" style="stroke:#181818;stroke-width:0.5;" width="15" x="338.5" y="832"/><rect fill="#F1F1F1" height="2" style="stroke:#181818;stroke-width:0.5;" width="4" x="336.5" y="834"/><rect fill="#F1F1F1" height="2" style="stroke:#181818;stroke-width:0.5;" width="4" x="336.5" y="838"/><text fill="#000000" font-family="sans-serif" font-size="14" lengthAdjust="spacing" textLength="69" x="264.5" y="859.9951">UserRepo</text></g><!--entity MovieRepo2--><g id="elem_MovieRepo2"><rect fill="#F1F1F1" height="46.2969" rx="2.5" ry="2.5" style="stroke:#181818;stroke-width:0.5;" width="120" x="394" y="827"/><rect fill="#F1F1F1" height="10" style="stroke:#181818;stroke-width:0.5;" width="15" x="494" y="832"/><rect fill="#F1F1F1" height="2" style="stroke:#181818;stroke-width:0.5;" width="4" x="492" y="834"/><rect fill="#F1F1F1" height="2" style="stroke:#181818;stroke-width:0.5;" width="4" x="492" y="838"/><text fill="#000000" font-family="sans-serif" font-size="14" lengthAdjust="spacing" textLength="80" x="409" y="859.9951">MovieRepo</text></g><text fill="#000000" font-family="sans-serif" font-size="14" lengthAdjust="spacing" textLength="4" x="848" y="615.6982"> </text><rect fill="#F1F1F1" height="12" style="stroke:#181818;stroke-width:1.5;" width="12" x="844" y="631"/><!--entity UserController--><g id="elem_UserController"><rect fill="#F1F1F1" height="46.2969" rx="2.5" ry="2.5" style="stroke:#181818;stroke-width:0.5;" width="144" x="919" y="704"/><rect fill="#F1F1F1" height="10" style="stroke:#181818;stroke-width:0.5;" width="15" x="1043" y="709"/><rect fill="#F1F1F1" height="2" style="stroke:#181818;stroke-width:0.5;" width="4" x="1041" y="711"/><rect fill="#F1F1F1" height="2" style="stroke:#181818;stroke-width:0.5;" width="4" x="1041" y="715"/><text fill="#000000" font-family="sans-serif" font-size="14" lengthAdjust="spacing" textLength="104" x="934" y="736.9951">UserController</text></g><!--entity UserRepo1--><g id="elem_UserRepo1"><rect fill="#F1F1F1" height="46.2969" rx="2.5" ry="2.5" style="stroke:#181818;stroke-width:0.5;" width="109" x="830.5" y="827"/><rect fill="#F1F1F1" height="10" style="stroke:#181818;stroke-width:0.5;" width="15" x="919.5" y="832"/><rect fill="#F1F1F1" height="2" style="stroke:#181818;stroke-width:0.5;" width="4" x="917.5" y="834"/><rect fill="#F1F1F1" height="2" style="stroke:#181818;stroke-width:0.5;" width="4" x="917.5" y="838"/><text fill="#000000" font-family="sans-serif" font-size="14" lengthAdjust="spacing" textLength="69" x="845.5" y="859.9951">UserRepo</text></g><text fill="#000000" font-family="sans-serif" font-size="14" lengthAdjust="spacing" textLength="4" x="830" y="88.6982"> </text><rect fill="#F1F1F1" height="12" style="stroke:#181818;stroke-width:1.5;" width="12" x="826" y="104"/><!--entity MainController--><g id="elem_MainController"><rect fill="#F1F1F1" height="46.2969" rx="2.5" ry="2.5" style="stroke:#181818;stroke-width:0.5;" width="146" x="641" y="177"/><rect fill="#F1F1F1" height="10" style="stroke:#181818;stroke-width:0.5;" width="15" x="767" y="182"/><rect fill="#F1F1F1" height="2" style="stroke:#181818;stroke-width:0.5;" width="4" x="765" y="184"/><rect fill="#F1F1F1" height="2" style="stroke:#181818;stroke-width:0.5;" width="4" x="765" y="188"/><text fill="#000000" font-family="sans-serif" font-size="14" lengthAdjust="spacing" textLength="106" x="656" y="209.9951">MainController</text></g><!--entity RecommendationClientService--><g id="elem_RecommendationClientService"><rect fill="#F1F1F1" height="46.2969" rx="2.5" ry="2.5" style="stroke:#181818;stroke-width:0.5;" width="264" x="800" y="300"/><rect fill="#F1F1F1" height="10" style="stroke:#181818;stroke-width:0.5;" width="15" x="1044" y="305"/><rect fill="#F1F1F1" height="2" style="stroke:#181818;stroke-width:0.5;" width="4" x="1042" y="307"/><rect fill="#F1F1F1" height="2" style="stroke:#181818;stroke-width:0.5;" width="4" x="1042" y="311"/><text fill="#000000" font-family="sans-serif" font-size="14" lengthAdjust="spacing" textLength="224" x="815" y="332.9951">RecommendationClientService</text></g><text fill="#000000" font-family="sans-serif" font-size="14" lengthAdjust="spacing" textLength="4" x="904" y="431.9951"> </text><rect fill="#F1F1F1" height="12" style="stroke:#181818;stroke-width:1.5;" width="12" x="900" y="407"/><text fill="#000000" font-family="sans-serif" font-size="14" lengthAdjust="spacing" textLength="4" x="986" y="431.9951"> </text><rect fill="#F1F1F1" height="12" style="stroke:#181818;stroke-width:1.5;" width="12" x="982" y="407"/><!--entity RecommendationService--><g id="elem_RecommendationService"><rect fill="#F1F1F1" height="46.2969" rx="2.5" ry="2.5" style="stroke:#181818;stroke-width:0.5;" width="221" x="822.5" y="177"/><rect fill="#F1F1F1" height="10" style="stroke:#181818;stroke-width:0.5;" width="15" x="1023.5" y="182"/><rect fill="#F1F1F1" height="2" style="stroke:#181818;stroke-width:0.5;" width="4" x="1021.5" y="184"/><rect fill="#F1F1F1" height="2" style="stroke:#181818;stroke-width:0.5;" width="4" x="1021.5" y="188"/><text fill="#000000" font-family="sans-serif" font-size="14" lengthAdjust="spacing" textLength="181" x="837.5" y="209.9951">RecommendationService</text></g><text fill="#000000" font-family="sans-serif" font-size="14" lengthAdjust="spacing" textLength="4" x="1074" y="431.9951"> </text><rect fill="#F1F1F1" height="12" style="stroke:#181818;stroke-width:1.5;" width="12" x="1070" y="407"/><!--entity UserService--><g id="elem_UserService"><rect fill="#F1F1F1" height="46.2969" rx="2.5" ry="2.5" style="stroke:#181818;stroke-width:0.5;" width="124" x="641" y="300"/><rect fill="#F1F1F1" height="10" style="stroke:#181818;stroke-width:0.5;" width="15" x="745" y="305"/><rect fill="#F1F1F1" height="2" style="stroke:#181818;stroke-width:0.5;" width="4" x="743" y="307"/><rect fill="#F1F1F1" height="2" style="stroke:#181818;stroke-width:0.5;" width="4" x="743" y="311"/><text fill="#000000" font-family="sans-serif" font-size="14" lengthAdjust="spacing" textLength="84" x="656" y="332.9951">UserService</text></g><text fill="#000000" font-family="sans-serif" font-size="14" lengthAdjust="spacing" textLength="4" x="828" y="431.9951"> </text><rect fill="#F1F1F1" height="12" style="stroke:#181818;stroke-width:1.5;" width="12" x="824" y="407"/><!--entity MovieService--><g id="elem_MovieService"><rect fill="#F1F1F1" height="46.2969" rx="2.5" ry="2.5" style="stroke:#181818;stroke-width:0.5;" width="135" x="1318.5" y="177"/><rect fill="#F1F1F1" height="10" style="stroke:#181818;stroke-width:0.5;" width="15" x="1433.5" y="182"/><rect fill="#F1F1F1" height="2" style="stroke:#181818;stroke-width:0.5;" width="4" x="1431.5" y="184"/><rect fill="#F1F1F1" height="2" style="stroke:#181818;stroke-width:0.5;" width="4" x="1431.5" y="188"/><text fill="#000000" font-family="sans-serif" font-size="14" lengthAdjust="spacing" textLength="95" x="1333.5" y="209.9951">MovieService</text></g><text fill="#000000" font-family="sans-serif" font-size="14" lengthAdjust="spacing" textLength="4" x="1180" y="431.9951"> </text><rect fill="#F1F1F1" height="12" style="stroke:#181818;stroke-width:1.5;" width="12" x="1176" y="407"/><!--entity MovieInterface1--><g id="elem_MovieInterface1"><ellipse cx="1185" cy="525" fill="#F1F1F1" rx="8" ry="8" style="stroke:#181818;stroke-width:0.5;"/><text fill="#000000" font-family="sans-serif" font-size="14" lengthAdjust="spacing" textLength="49" x="1160.5" y="554.9951">/movie</text></g><!--entity recoInterface1--><g id="elem_recoInterface1"><ellipse cx="988" cy="525" fill="#F1F1F1" rx="8" ry="8" style="stroke:#181818;stroke-width:0.5;"/><text fill="#000000" font-family="sans-serif" font-size="14" lengthAdjust="spacing" textLength="129" x="923.5" y="554.9951">/recommendation</text></g><!--entity userInterface1--><g id="elem_userInterface1"><ellipse cx="850" cy="525" fill="#F1F1F1" rx="8" ry="8" style="stroke:#181818;stroke-width:0.5;"/><text fill="#000000" font-family="sans-serif" font-size="14" lengthAdjust="spacing" textLength="35" x="832.5" y="554.9951">/user</text></g><!--entity ClientInterface--><g id="elem_ClientInterface"><ellipse cx="832" cy="14" fill="#F1F1F1" rx="8" ry="8" style="stroke:#181818;stroke-width:0.5;"/><text fill="#000000" font-family="sans-serif" font-size="14" lengthAdjust="spacing" textLength="27" x="818.5" y="43.9951">/api</text></g><!--entity config--><g id="elem_config"><rect fill="#F1F1F1" height="46.2969" rx="2.5" ry="2.5" style="stroke:#181818;stroke-width:0.5;" width="142" x="939" y="960"/><rect fill="#F1F1F1" height="10" style="stroke:#181818;stroke-width:0.5;" width="15" x="1061" y="965"/><rect fill="#F1F1F1" height="2" style="stroke:#181818;stroke-width:0.5;" width="4" x="1059" y="967"/><rect fill="#F1F1F1" height="2" style="stroke:#181818;stroke-width:0.5;" width="4" x="1059" y="971"/><text fill="#000000" font-family="sans-serif" font-size="14" lengthAdjust="spacing" textLength="102" x="954" y="992.9951">config-service</text></g><!--entity eureka--><g id="elem_eureka"><rect fill="#F1F1F1" height="46.2969" rx="2.5" ry="2.5" style="stroke:#181818;stroke-width:0.5;" width="146" x="567" y="827"/><rect fill="#F1F1F1" height="10" style="stroke:#181818;stroke-width:0.5;" width="15" x="693" y="832"/><rect fill="#F1F1F1" height="2" style="stroke:#181818;stroke-width:0.5;" width="4" x="691" y="834"/><rect fill="#F1F1F1" height="2" style="stroke:#181818;stroke-width:0.5;" width="4" x="691" y="838"/><text fill="#000000" font-family="sans-serif" font-size="14" lengthAdjust="spacing" textLength="106" x="582" y="859.9951">eureka-service</text></g><!--link MovieInterface1 to movieIn1--><g id="link_MovieInterface1_movieIn1"><path d="M1186.05,534.268 C1188.8,555.852 1196.13,613.438 1198.35,630.906 " fill="none" id="MovieInterface1-movieIn1" style="stroke:#181818;stroke-width:1.0;"/></g><!--link MovieController to MovieRepo1--><g id="link_MovieController_MovieRepo1"><path d="M1375,750.193 C1375,772.026 1375,799.164 1375,820.947 " fill="none" id="MovieController-to-MovieRepo1" style="stroke:#181818;stroke-width:1.0;stroke-dasharray:7.0,7.0;"/><polygon fill="#181818" points="1375,826.947,1379,817.947,1375,821.947,1371,817.947,1375,826.947" style="stroke:#181818;stroke-width:1.0;"/><text fill="#000000" font-family="sans-serif" font-size="13" lengthAdjust="spacing" textLength="52" x="1376" y="793.0669">requires</text></g><!--link movieIn1 to MovieController--><g id="link_movieIn1_MovieController"><path d="M1205.26,641.132 C1225.04,651.021 1287.42,682.209 1330.77,703.887 " fill="none" id="movieIn1-MovieController" style="stroke:#181818;stroke-width:1.0;"/></g><!--link recoInterface1 to RecoIn--><g id="link_recoInterface1_RecoIn"><path d="M978.763,529.169 C962.032,534.814 925.52,546.703 894,554 C697.4,599.513 450.957,630.22 409.156,635.266 " fill="none" id="recoInterface1-RecoIn" style="stroke:#181818;stroke-width:1.0;"/></g><!--link RecoIn to RecoController--><g id="link_RecoIn_RecoController"><path d="M403,643.241 C403,654.86 403,683.354 403,703.655 " fill="none" id="RecoIn-RecoController" style="stroke:#181818;stroke-width:1.0;"/></g><!--link RecoController to UserRepo2--><g id="link_RecoController_UserRepo2"><path d="M384.541,750.231 C376.924,759.429 368.018,770.213 360,780 C347.192,795.634 336.6025,808.672 325.6295,822.231 " fill="none" id="RecoController-to-UserRepo2" style="stroke:#181818;stroke-width:1.0;stroke-dasharray:7.0,7.0;"/><polygon fill="#181818" points="321.855,826.895,330.6261,822.4153,325.0004,823.0083,324.4074,817.3826,321.855,826.895" style="stroke:#181818;stroke-width:1.0;"/><text fill="#000000" font-family="sans-serif" font-size="13" lengthAdjust="spacing" textLength="52" x="361" y="793.0669">requires</text></g><!--link RecoController to MovieRepo2--><g id="link_RecoController_MovieRepo2"><path d="M410.243,750.006 C414.924,763.684 421.364,781.546 428,797 C432.301,807.016 434.8672,812.495 439.5572,821.658 " fill="none" id="RecoController-to-MovieRepo2" style="stroke:#181818;stroke-width:1.0;stroke-dasharray:7.0,7.0;"/><polygon fill="#181818" points="442.291,826.999,441.751,817.165,440.0129,822.5481,434.6297,820.81,442.291,826.999" style="stroke:#181818;stroke-width:1.0;"/><text fill="#000000" font-family="sans-serif" font-size="13" lengthAdjust="spacing" textLength="52" x="429" y="793.0669">requires</text></g><!--link userInterface1 to UserIn1--><g id="link_userInterface1_UserIn1"><path d="M850,534.268 C850,555.852 850,613.438 850,630.906 " fill="none" id="userInterface1-UserIn1" style="stroke:#181818;stroke-width:1.0;"/></g><!--link UserIn1 to UserController--><g id="link_UserIn1_UserController"><path d="M856.059,641.781 C872.979,652.341 921.724,682.764 955.738,703.993 " fill="none" id="UserIn1-UserController" style="stroke:#181818;stroke-width:1.0;"/></g><!--link UserController to UserRepo1--><g id="link_UserController_UserRepo1"><path d="M971.558,750.193 C952.432,772.026 927.3557,800.6509 908.2727,822.4339 " fill="none" id="UserController-to-UserRepo1" style="stroke:#181818;stroke-width:1.0;stroke-dasharray:7.0,7.0;"/><polygon fill="#181818" points="904.319,826.947,913.2583,822.8131,907.6138,823.1861,907.2408,817.5415,904.319,826.947" style="stroke:#181818;stroke-width:1.0;"/><text fill="#000000" font-family="sans-serif" font-size="13" lengthAdjust="spacing" textLength="52" x="946" y="793.0669">requires</text></g><!--link ClientInterface to ClientIn--><g id="link_ClientInterface_ClientIn"><path d="M832,23.014 C832,41.839 832,88.454 832,103.921 " fill="none" id="ClientInterface-ClientIn" style="stroke:#181818;stroke-width:1.0;"/></g><!--link ClientIn to MainController--><g id="link_ClientIn_MainController"><path d="M825.986,115.485 C811.051,126.623 771.469,156.142 743.617,176.913 " fill="none" id="ClientIn-MainController" style="stroke:#181818;stroke-width:1.0;"/></g><!--link MainController to RecommendationClientService--><g id="link_MainController_RecommendationClientService"><path d="M746.084,223.305 C766.982,237.426 795.084,255.659 821,270 C840.272,280.664 856.6482,288.7082 875.8202,297.4822 " fill="none" id="MainController-to-RecommendationClientService" style="stroke:#181818;stroke-width:1.0;stroke-dasharray:7.0,7.0;"/><polygon fill="#181818" points="881.276,299.979,874.7568,292.5965,876.7295,297.8983,871.4277,299.871,881.276,299.979" style="stroke:#181818;stroke-width:1.0;"/><text fill="#000000" font-family="sans-serif" font-size="13" lengthAdjust="spacing" textLength="52" x="822" y="266.0669">requires</text></g><!--link MainController to UserService--><g id="link_MainController_UserService"><path d="M711.982,223.193 C709.998,245.026 707.5281,272.1886 705.5481,293.9716 " fill="none" id="MainController-to-UserService" style="stroke:#181818;stroke-width:1.0;stroke-dasharray:7.0,7.0;"/><polygon fill="#181818" points="705.005,299.947,709.8033,291.346,705.4576,294.9675,701.8361,290.6219,705.005,299.947" style="stroke:#181818;stroke-width:1.0;"/><text fill="#000000" font-family="sans-serif" font-size="13" lengthAdjust="spacing" textLength="52" x="711" y="266.0669">requires</text></g><!--link RecommendationService to ClientReco--><g id="link_RecommendationService_ClientReco"><path d="M990.375,223.029 C1023.32,239.003 1061.85,264.144 1081,300 C1100.63,336.739 1083.95,390.32 1077.94,406.912 " fill="none" id="RecommendationService-ClientReco" style="stroke:#181818;stroke-width:1.0;stroke-dasharray:7.0,7.0;"/></g><!--link UserService to ClientUser--><g id="link_UserService_ClientUser"><path d="M735.047,346.206 C765.028,366.98 807.523,396.425 823.549,407.53 " fill="none" id="UserService-ClientUser" style="stroke:#181818;stroke-width:1.0;stroke-dasharray:7.0,7.0;"/></g><!--link MovieService to ClientMovie--><g id="link_MovieService_ClientMovie"><path d="M1364.55,223.182 C1318.32,271.007 1211.44,381.548 1187.03,406.799 " fill="none" id="MovieService-ClientMovie" style="stroke:#181818;stroke-width:1.0;stroke-dasharray:7.0,7.0;"/></g><!--link RecommendationClientService to out1--><g id="link_RecommendationClientService_out1"><path d="M925.439,346.206 C919.422,366.573 910.942,395.274 907.52,406.856 " fill="none" id="RecommendationClientService-out1" style="stroke:#181818;stroke-width:1.0;stroke-dasharray:7.0,7.0;"/></g><!--link RecommendationClientService to out2--><g id="link_RecommendationClientService_out2"><path d="M946.131,346.206 C959.092,366.573 977.356,395.274 984.727,406.856 " fill="none" id="RecommendationClientService-out2" style="stroke:#181818;stroke-width:1.0;stroke-dasharray:7.0,7.0;"/></g><!--link ClientMovie to MovieInterface1--><g id="link_ClientMovie_MovieInterface1"><path d="M1182.14,419.012 C1182.61,436.413 1184.0256,488.3193 1184.6156,509.8483 " fill="none" id="ClientMovie-to-MovieInterface1" style="stroke:#181818;stroke-width:1.0;stroke-dasharray:7.0,7.0;"/><polygon fill="#181818" points="1184.78,515.846,1188.5319,506.7398,1184.643,510.8479,1180.5349,506.959,1184.78,515.846" style="stroke:#181818;stroke-width:1.0;"/><text fill="#000000" font-family="sans-serif" font-size="13" lengthAdjust="spacing" textLength="52" x="1185" y="462.0669">requires</text></g><!--link ClientUser to userInterface1--><g id="link_ClientUser_userInterface1"><path d="M823.935,418.115 C815.988,423.919 802.425,435.339 797,449 C794.212,456.022 794.266,458.956 797,466 C805.784,488.635 823.1881,504.2179 835.8961,513.8159 " fill="none" id="ClientUser-to-userInterface1" style="stroke:#181818;stroke-width:1.0;stroke-dasharray:7.0,7.0;"/><polygon fill="#181818" points="840.684,517.432,835.913,508.8159,836.6941,514.4186,831.0915,515.1997,840.684,517.432" style="stroke:#181818;stroke-width:1.0;"/><text fill="#000000" font-family="sans-serif" font-size="13" lengthAdjust="spacing" textLength="52" x="798" y="462.0669">requires</text></g><!--link ClientReco to recoInterface1--><g id="link_ClientReco_recoInterface1"><path d="M1073.21,419.089 C1067.87,428.655 1055.62,449.81 1043,466 C1028.15,485.043 1012.4197,500.8507 1001.0797,511.6777 " fill="none" id="ClientReco-to-recoInterface1" style="stroke:#181818;stroke-width:1.0;stroke-dasharray:7.0,7.0;"/><polygon fill="#181818" points="996.74,515.821,1006.0117,512.4991,1000.3564,512.3682,1000.4873,506.7129,996.74,515.821" style="stroke:#181818;stroke-width:1.0;"/><text fill="#000000" font-family="sans-serif" font-size="13" lengthAdjust="spacing" textLength="52" x="1056" y="462.0669">requires</text></g><!--link out1 to userInterface1--><g id="link_out1_userInterface1"><path d="M903.448,419.012 C894.59,436.413 867.8331,488.97 856.8731,510.499 " fill="none" id="out1-to-userInterface1" style="stroke:#181818;stroke-width:1.0;stroke-dasharray:7.0,7.0;"/><polygon fill="#181818" points="854.151,515.846,861.7987,509.6402,856.4194,511.3902,854.6694,506.0108,854.151,515.846" style="stroke:#181818;stroke-width:1.0;"/><text fill="#000000" font-family="sans-serif" font-size="13" lengthAdjust="spacing" textLength="52" x="889" y="462.0669">requires</text></g><!--link out2 to recoInterface1--><g id="link_out2_recoInterface1"><path d="M987.388,419.447 C986.648,426.323 985.448,438.52 985,449 C983.964,473.216 985.4988,495.8574 986.6988,509.6984 " fill="none" id="out2-to-recoInterface1" style="stroke:#181818;stroke-width:1.0;stroke-dasharray:7.0,7.0;"/><polygon fill="#181818" points="987.217,515.676,990.4247,506.3641,986.7851,510.6947,982.4546,507.0551,987.217,515.676" style="stroke:#181818;stroke-width:1.0;"/><text fill="#000000" font-family="sans-serif" font-size="13" lengthAdjust="spacing" textLength="52" x="986" y="462.0669">requires</text></g><!--link movieService to eureka--><g id="link_movieService_eureka"><path d="M1158.06,736.512 C1134.93,741.065 1105.45,746.45 1079,750 C924.261,770.767 874.419,723.179 729,780 C702.777,790.246 682.2312,806.65 665.4782,822.672 " fill="none" id="movieService-to-eureka" style="stroke:#181818;stroke-width:1.0;stroke-dasharray:7.0,7.0;"/><polygon fill="#181818" points="661.142,826.819,670.4109,823.4893,664.7555,823.3632,664.8816,817.7077,661.142,826.819" style="stroke:#181818;stroke-width:1.0;"/><text fill="#000000" font-family="sans-serif" font-size="13" lengthAdjust="spacing" textLength="23" x="730" y="793.0669">use</text></g><!--link recoService to eureka--><g id="link_recoService_eureka"><path d="M548.0663,805.2184 C548.2262,805.2908 548.3862,805.3633 548.5462,805.4358 C548.8662,805.5808 549.1864,805.7261 549.5068,805.8715 C554.6328,808.1982 559.8023,810.573 564.9346,812.9525 C575.1993,817.7116 579.9004,819.9042 589.2197,824.3545 " fill="none" id="recoService-to-eureka" style="stroke:#181818;stroke-width:1.0;stroke-dasharray:7.0,7.0;"/><polygon fill="#181818" points="594.634,826.94,588.2362,819.4522,590.1221,824.7854,584.7888,826.6713,594.634,826.94" style="stroke:#181818;stroke-width:1.0;"/><text fill="#000000" font-family="sans-serif" font-size="13" lengthAdjust="spacing" textLength="23" x="529" y="793.0669">use</text></g><!--link recoClient to eureka--><g id="link_recoClient_eureka"><path d="M616.9714,273.7285 C609.6649,277.7874 603.3437,282.2394 598.1627,287.1263 C587.8008,296.9 582,308.4133 582,322 C582,322 582,322 582,728 C582,765.506 601.3879,798.8594 618.4139,822.0374 " fill="none" id="recoClient-to-eureka" style="stroke:#181818;stroke-width:1.0;stroke-dasharray:7.0,7.0;"/><polygon fill="#181818" points="621.966,826.873,619.8616,817.2516,619.0059,822.8434,613.4142,821.9877,621.966,826.873" style="stroke:#181818;stroke-width:1.0;"/><text fill="#000000" font-family="sans-serif" font-size="13" lengthAdjust="spacing" textLength="23" x="583" y="529.5669">use</text></g><!--link userService to eureka--><g id="link_userService_eureka"><path d="M745.8943,740.1892 C745.6857,740.229 745.4771,740.2689 745.2683,740.309 C743.5983,740.6291 741.9221,740.9555 740.2418,741.2881 C736.8812,741.9534 733.5043,742.6438 730.1275,743.3593 C716.6202,746.2213 703.1145,749.485 690.662,753.1518 C665.757,760.4853 645.065,769.431 637,780 C626.962,793.154 627.1726,806.3537 630.8316,821.0957 " fill="none" id="userService-to-eureka" style="stroke:#181818;stroke-width:1.0;stroke-dasharray:7.0,7.0;"/><polygon fill="#181818" points="632.277,826.919,633.9912,817.2205,631.0725,822.0662,626.2268,819.1476,632.277,826.919" style="stroke:#181818;stroke-width:1.0;"/><text fill="#000000" font-family="sans-serif" font-size="13" lengthAdjust="spacing" textLength="23" x="638" y="793.0669">use</text></g><!--link movieService to config--><g id="link_movieService_config"><path d="M1180.8723,757.2797 C1180.7634,757.4527 1180.654,757.6263 1180.5442,757.8005 C1180.3246,758.1488 1180.1034,758.4997 1179.8806,758.8529 C1179.4348,759.5593 1178.9826,760.2753 1178.524,761.0006 C1177.6067,762.4512 1176.6639,763.939 1175.6966,765.4617 C1167.9581,777.6439 1158.6538,792.0648 1148.3475,807.593 C1127.735,838.6495 1103.115,874.1355 1079,905 C1063.97,924.2371 1049.5436,940.3889 1035.4636,955.4081 " fill="none" id="movieService-to-config" style="stroke:#181818;stroke-width:1.0;stroke-dasharray:7.0,7.0;"/><polygon fill="#181818" points="1031.36,959.7854,1040.4336,955.9552,1034.7796,956.1377,1034.5972,950.4837,1031.36,959.7854" style="stroke:#181818;stroke-width:1.0;"/><text fill="#000000" font-family="sans-serif" font-size="13" lengthAdjust="spacing" textLength="23" x="1136" y="854.5669">use</text></g><!--link recoService to config--><g id="link_recoService_config"><path d="M198.1673,897.5194 C198.5686,897.8963 198.9726,898.2705 199.3793,898.6417 C200.1927,899.3842 201.0171,900.1152 201.8526,900.8341 C203.5236,902.272 205.239,903.6618 207,905 C264.636,948.7966 746.9337,971.8375 932.6797,979.173 " fill="none" id="recoService-to-config" style="stroke:#181818;stroke-width:1.0;stroke-dasharray:7.0,7.0;"/><polygon fill="#181818" points="938.675,979.4098,929.8399,975.0578,933.6789,979.2125,929.5242,983.0515,938.675,979.4098" style="stroke:#181818;stroke-width:1.0;"/><text fill="#000000" font-family="sans-serif" font-size="13" lengthAdjust="spacing" textLength="23" x="208" y="854.5669">use</text></g><!--link recoClient to config--><g id="link_recoClient_config"><path d="M1478.5956,247.1774 C1479.082,247.5391 1479.5698,247.906 1480.0591,248.2781 C1482.016,249.7666 1483.9956,251.3391 1486,253 C1511.12,273.812 1511,289.383 1511,322 C1511,322 1511,322 1511,851 C1511,881.405 1495.11,889.421 1469,905 C1404.73,943.3492 1199.0968,965.9908 1087.0468,975.8676 " fill="none" id="recoClient-to-config" style="stroke:#181818;stroke-width:1.0;stroke-dasharray:7.0,7.0;"/><polygon fill="#181818" points="1081.07,976.3944,1090.3865,979.5887,1086.0507,975.9554,1089.684,971.6196,1081.07,976.3944" style="stroke:#181818;stroke-width:1.0;"/><text fill="#000000" font-family="sans-serif" font-size="13" lengthAdjust="spacing" textLength="23" x="1512" y="597.0669">use</text></g><!--link userService to config--><g id="link_userService_config"><path d="M1020.629,897.5194 C1020.6238,898.0213 1020.6175,898.5224 1020.6101,899.0224 C1020.4913,907.023 1020.0871,914.7726 1019.5014,922.1125 C1018.33,936.7923 1017.4775,943.9254 1015.685,954.06 " fill="none" id="userService-to-config" style="stroke:#181818;stroke-width:1.0;stroke-dasharray:7.0,7.0;"/><polygon fill="#181818" points="1014.64,959.9683,1020.1464,951.8025,1015.5108,955.0447,1012.2686,950.4092,1014.64,959.9683" style="stroke:#181818;stroke-width:1.0;"/><text fill="#000000" font-family="sans-serif" font-size="13" lengthAdjust="spacing" textLength="23" x="1022" y="854.5669">use</text></g><!--link eureka to config--><g id="link_eureka_config"><path d="M682.641,873.068 C703.777,883.523 729.882,895.721 754,905 C815.292,928.581 881.2498,948.0459 933.1688,962.1474 " fill="none" id="eureka-to-config" style="stroke:#181818;stroke-width:1.0;stroke-dasharray:7.0,7.0;"/><polygon fill="#181818" points="938.959,963.7201,931.3221,957.501,934.1338,962.4096,929.2252,965.2213,938.959,963.7201" style="stroke:#181818;stroke-width:1.0;"/><text fill="#000000" font-family="sans-serif" font-size="13" lengthAdjust="spacing" textLength="23" x="825" y="926.0669">use</text></g><!--SRC=[ZLPDInj163vdViMIoxQWaMnwyY05Iy53Bugduc69eonDTjFDnY8YY0gsLPj8QMcj26chBLeKUYYsVlsPx2QU-XSw7_inxypkffTavtsUzsFUPzxPrGUt7_sDTl3Xl7Unrhiu2GvE_BETu6Mdlxzvr_tT_tJszueiz_psoM3ZEcXt_FPxV-kF__LRSBnEEFtBpTxbh_xbs-1m4-aa68d1_OAVtU3WrQBfuHVcibPrwWt7nhOtShV-fR_zet-wJRmjsyFkWbd5W_CZ_tYzT_rkS7iOl3b2I7_u65kBzcJD8ZxtYdLdoSAZJUmkMLLSlA_5ZgHmltDCtQy_amX8XzGnjYeYFNRGYjmsLhEQNb4pczeJkfoAS2EDEz-grvSVcPwPub19SrXXVrFpgue3Ve1qNciAERqbtU-3cnk4b2mfnPGHYZkjFGMjcADiPfdXXXLKQ3YkPzbQKIl6u9HTHWKz5J2oW0eg25bPHPEExRbEhORTkRZAnARoft73IPXqHSf01MbtskYeMAMad80Q2beHq4eOE2b8AvKcXDJQkERYvotBnKrKY1BI0Ce-z2XXBbf9GrUXf2ucFQbZUzxqBCTcxQMc36aX6sXCeL1YJT5uceK4_Py6eIJXA9YXson96iiMBOp_aTQWqiBDqGP5jV7_o29cXsicMfmOQ9P2JBABJ4c45ed6-aGVXDRhCcbiXJ720GTi0mX58I0FDMJACyi2gHF8xORIVqajQ1gk5fink5NQzgGAkB448vM4fCW6Zdr8IiFW6aXO7i-InMnOh0tyTH0Nb3SHLKQD1u9xAlsE0i9JQrho641JtlYmW3E2tZauhyPfUL4vvB6SPZHoCcRdoih2Qw1SvOI8mOHrHWZAKETTZ24QCe8m2Zs7ahZqy2JoH4_i8fN4W6jsf7AQ3kw955TXsygLelIMU8ZT57rB9T0biHC95cu-hrp2vSTYE8dUgsHoXD39pITCkB0hFPzR0LpoEH8S7l3lnF16krlR7znkzIvs_SvEFB3-tfNVFYMMw9Dort_T7Gd5vnzix3V4KT8cLe9q7maL9ArcHEaD8X1fmuR4ekqQ4aMyNQgElM0jWekScm0Bjrpyp0GiRaAe3lMV206IZzI8n7TsAiYthc8jSE8aK4tAQyv8ge12Ke39IG4OLY3R_m40]--></g></svg>