<?xml version="1.0" encoding="windows-1252" standalone="no"?>
<svg xmlns="http://www.w3.org/2000/svg" xmlns:xlink="http://www.w3.org/1999/xlink" contentStyleType="text/css" height="513px" preserveAspectRatio="none" style="width:1118px;height:513px;background:#FFFFFF;" version="1.1" viewBox="0 0 1118 513" width="1118px" zoomAndPan="magnify"><defs/><g><!--cluster cart--><g id="cluster_cart"><rect fill="none" height="252" rx="2.5" ry="2.5" style="stroke:#181818;stroke-width:1.0;" width="325" x="7" y="255"/><rect fill="none" height="10" style="stroke:#181818;stroke-width:1.0;" width="15" x="312" y="260"/><rect fill="none" height="2" style="stroke:#181818;stroke-width:1.0;" width="4" x="310" y="262"/><rect fill="none" height="2" style="stroke:#181818;stroke-width:1.0;" width="4" x="310" y="266"/><text fill="#000000" font-family="sans-serif" font-size="14" font-weight="bold" lengthAdjust="spacing" textLength="97" x="121" y="280.9951">cart-service</text></g><!--cluster product--><g id="cluster_product"><rect fill="none" height="252" rx="2.5" ry="2.5" style="stroke:#181818;stroke-width:1.0;" width="261" x="459" y="255"/><rect fill="none" height="10" style="stroke:#181818;stroke-width:1.0;" width="15" x="700" y="260"/><rect fill="none" height="2" style="stroke:#181818;stroke-width:1.0;" width="4" x="698" y="262"/><rect fill="none" height="2" style="stroke:#181818;stroke-width:1.0;" width="4" x="698" y="266"/><text fill="#000000" font-family="sans-serif" font-size="14" font-weight="bold" lengthAdjust="spacing" textLength="127" x="526" y="280.9951">product-service</text></g><!--cluster content--><g id="cluster_content"><rect fill="none" height="129" rx="2.5" ry="2.5" style="stroke:#181818;stroke-width:1.0;" width="314" x="798" y="255"/><rect fill="none" height="10" style="stroke:#181818;stroke-width:1.0;" width="15" x="1092" y="260"/><rect fill="none" height="2" style="stroke:#181818;stroke-width:1.0;" width="4" x="1090" y="262"/><rect fill="none" height="2" style="stroke:#181818;stroke-width:1.0;" width="4" x="1090" y="266"/><text fill="#000000" font-family="sans-serif" font-size="14" font-weight="bold" lengthAdjust="spacing" textLength="127" x="891.5" y="280.9951">content-service</text></g><text fill="#000000" font-family="sans-serif" font-size="14" lengthAdjust="spacing" textLength="4" x="242" y="233.6982"> </text><rect fill="#F1F1F1" height="12" style="stroke:#181818;stroke-width:1.5;" width="12" x="238" y="249"/><!--entity CartController--><g id="elem_CartController"><rect fill="#F1F1F1" height="46.2969" rx="2.5" ry="2.5" style="stroke:#181818;stroke-width:0.5;" width="144" x="172" y="322"/><rect fill="#F1F1F1" height="10" style="stroke:#181818;stroke-width:0.5;" width="15" x="296" y="327"/><rect fill="#F1F1F1" height="2" style="stroke:#181818;stroke-width:0.5;" width="4" x="294" y="329"/><rect fill="#F1F1F1" height="2" style="stroke:#181818;stroke-width:0.5;" width="4" x="294" y="333"/><text fill="#000000" font-family="sans-serif" font-size="14" lengthAdjust="spacing" textLength="104" x="187" y="354.9951">CartController</text></g><!--entity CartService--><g id="elem_CartService"><rect fill="#F1F1F1" height="46.2969" rx="2.5" ry="2.5" style="stroke:#181818;stroke-width:0.5;" width="124" x="182" y="445"/><rect fill="#F1F1F1" height="10" style="stroke:#181818;stroke-width:0.5;" width="15" x="286" y="450"/><rect fill="#F1F1F1" height="2" style="stroke:#181818;stroke-width:0.5;" width="4" x="284" y="452"/><rect fill="#F1F1F1" height="2" style="stroke:#181818;stroke-width:0.5;" width="4" x="284" y="456"/><text fill="#000000" font-family="sans-serif" font-size="14" lengthAdjust="spacing" textLength="84" x="197" y="477.9951">CartService</text></g><text fill="#000000" font-family="sans-serif" font-size="14" lengthAdjust="spacing" textLength="4" x="475" y="233.6982"> </text><rect fill="#F1F1F1" height="12" style="stroke:#181818;stroke-width:1.5;" width="12" x="471" y="249"/><!--entity ProductController--><g id="elem_ProductController"><rect fill="#F1F1F1" height="46.2969" rx="2.5" ry="2.5" style="stroke:#181818;stroke-width:0.5;" width="169" x="534.5" y="322"/><rect fill="#F1F1F1" height="10" style="stroke:#181818;stroke-width:0.5;" width="15" x="683.5" y="327"/><rect fill="#F1F1F1" height="2" style="stroke:#181818;stroke-width:0.5;" width="4" x="681.5" y="329"/><rect fill="#F1F1F1" height="2" style="stroke:#181818;stroke-width:0.5;" width="4" x="681.5" y="333"/><text fill="#000000" font-family="sans-serif" font-size="14" lengthAdjust="spacing" textLength="129" x="549.5" y="354.9951">ProductController</text></g><!--entity ProductService--><g id="elem_ProductService"><rect fill="#F1F1F1" height="46.2969" rx="2.5" ry="2.5" style="stroke:#181818;stroke-width:0.5;" width="149" x="544.5" y="445"/><rect fill="#F1F1F1" height="10" style="stroke:#181818;stroke-width:0.5;" width="15" x="673.5" y="450"/><rect fill="#F1F1F1" height="2" style="stroke:#181818;stroke-width:0.5;" width="4" x="671.5" y="452"/><rect fill="#F1F1F1" height="2" style="stroke:#181818;stroke-width:0.5;" width="4" x="671.5" y="456"/><text fill="#000000" font-family="sans-serif" font-size="14" lengthAdjust="spacing" textLength="109" x="559.5" y="477.9951">ProductService</text></g><text fill="#000000" font-family="sans-serif" font-size="14" lengthAdjust="spacing" textLength="4" x="814" y="233.6982"> </text><rect fill="#F1F1F1" height="12" style="stroke:#181818;stroke-width:1.5;" width="12" x="810" y="249"/><!--entity ContentController--><g id="elem_ContentController"><rect fill="#F1F1F1" height="46.2969" rx="2.5" ry="2.5" style="stroke:#181818;stroke-width:0.5;" width="173" x="922.5" y="322"/><rect fill="#F1F1F1" height="10" style="stroke:#181818;stroke-width:0.5;" width="15" x="1075.5" y="327"/><rect fill="#F1F1F1" height="2" style="stroke:#181818;stroke-width:0.5;" width="4" x="1073.5" y="329"/><rect fill="#F1F1F1" height="2" style="stroke:#181818;stroke-width:0.5;" width="4" x="1073.5" y="333"/><text fill="#000000" font-family="sans-serif" font-size="14" lengthAdjust="spacing" textLength="133" x="937.5" y="354.9951">ContentController</text></g><!--entity web--><g id="elem_web"><rect fill="#F1F1F1" height="46.2969" rx="2.5" ry="2.5" style="stroke:#181818;stroke-width:0.5;" width="121" x="416.5" y="7"/><rect fill="#F1F1F1" height="10" style="stroke:#181818;stroke-width:0.5;" width="15" x="517.5" y="12"/><rect fill="#F1F1F1" height="2" style="stroke:#181818;stroke-width:0.5;" width="4" x="515.5" y="14"/><rect fill="#F1F1F1" height="2" style="stroke:#181818;stroke-width:0.5;" width="4" x="515.5" y="18"/><text fill="#000000" font-family="sans-serif" font-size="14" lengthAdjust="spacing" textLength="81" x="431.5" y="39.9951">web-server</text></g><!--entity cartInterface--><g id="elem_cartInterface"><ellipse cx="343" cy="159" fill="#F1F1F1" rx="8" ry="8" style="stroke:#181818;stroke-width:0.5;"/><text fill="#000000" font-family="sans-serif" font-size="14" lengthAdjust="spacing" textLength="34" x="326" y="188.9951">/cart</text></g><!--entity productInterface--><g id="elem_productInterface"><ellipse cx="477" cy="159" fill="#F1F1F1" rx="8" ry="8" style="stroke:#181818;stroke-width:0.5;"/><text fill="#000000" font-family="sans-serif" font-size="14" lengthAdjust="spacing" textLength="62" x="446" y="188.9951">/product</text></g><!--entity contenInterface--><g id="elem_contenInterface"><ellipse cx="637" cy="159" fill="#F1F1F1" rx="8" ry="8" style="stroke:#181818;stroke-width:0.5;"/><text fill="#000000" font-family="sans-serif" font-size="14" lengthAdjust="spacing" textLength="5" x="634.5" y="188.9951">/</text></g><!--link cartInterface to cartIn--><g id="link_cartInterface_cartIn"><path d="M334.559,168.014 C314.733,186.839 265.639,233.454 249.349,248.921 " fill="none" id="cartInterface-cartIn" style="stroke:#181818;stroke-width:1.0;"/></g><!--link cartIn to CartController--><g id="link_cartIn_CartController"><path d="M244,261.241 C244,272.86 244,301.354 244,321.655 " fill="none" id="cartIn-CartController" style="stroke:#181818;stroke-width:1.0;"/></g><!--link CartController to CartService--><g id="link_CartController_CartService"><path d="M244,368.193 C244,390.026 244,417.1639 244,438.9474 " fill="none" id="CartController-to-CartService" style="stroke:#181818;stroke-width:1.0;stroke-dasharray:7.0,7.0;"/><polygon fill="#181818" points="244,444.9474,248,435.9474,244,439.9474,240,435.9474,244,444.9474" style="stroke:#181818;stroke-width:1.0;"/><text fill="#000000" font-family="sans-serif" font-size="13" lengthAdjust="spacing" textLength="52" x="245" y="411.0669">requires</text></g><!--link productInterface to productIn--><g id="link_productInterface_productIn"><path d="M477,168.014 C477,186.839 477,233.454 477,248.921 " fill="none" id="productInterface-productIn" style="stroke:#181818;stroke-width:1.0;"/></g><!--link productIn to ProductController--><g id="link_productIn_ProductController"><path d="M483.102,259.781 C500.142,270.341 549.233,300.764 583.488,321.993 " fill="none" id="productIn-ProductController" style="stroke:#181818;stroke-width:1.0;"/></g><!--link ProductController to ProductService--><g id="link_ProductController_ProductService"><path d="M619,368.193 C619,390.026 619,417.1639 619,438.9474 " fill="none" id="ProductController-to-ProductService" style="stroke:#181818;stroke-width:1.0;stroke-dasharray:7.0,7.0;"/><polygon fill="#181818" points="619,444.9474,623,435.9474,619,439.9474,615,435.9474,619,444.9474" style="stroke:#181818;stroke-width:1.0;"/><text fill="#000000" font-family="sans-serif" font-size="13" lengthAdjust="spacing" textLength="52" x="620" y="411.0669">requires</text></g><!--link contenInterface to contentIn--><g id="link_contenInterface_contentIn"><path d="M646.123,164.791 C677.897,181.477 783.218,236.785 809.843,250.767 " fill="none" id="contenInterface-contentIn" style="stroke:#181818;stroke-width:1.0;"/></g><!--link contentIn to ContentController--><g id="link_contentIn_ContentController"><path d="M822.421,258.928 C843.613,268.591 912.7,300.091 960.578,321.922 " fill="none" id="contentIn-ContentController" style="stroke:#181818;stroke-width:1.0;"/></g><!--link web to cartInterface--><g id="link_web_cartInterface"><path d="M450.619,53.09 C440.008,62.174 427.761,72.913 417,83 C391.911,106.519 367.8808,131.5781 354.6968,145.5501 " fill="none" id="web-to-cartInterface" style="stroke:#181818;stroke-width:1.0;stroke-dasharray:7.0,7.0;"/><polygon fill="#181818" points="350.579,149.914,359.665,146.1133,354.0105,146.2774,353.8464,140.6229,350.579,149.914" style="stroke:#181818;stroke-width:1.0;"/><text fill="#000000" font-family="sans-serif" font-size="13" lengthAdjust="spacing" textLength="50" x="418" y="96.0669">forward</text></g><!--link web to productInterface--><g id="link_web_productInterface"><path d="M477,53.122 C477,81.833 477,124.533 477,143.802 " fill="none" id="web-to-productInterface" style="stroke:#181818;stroke-width:1.0;stroke-dasharray:7.0,7.0;"/><polygon fill="#181818" points="477,149.802,481,140.802,477,144.802,473,140.802,477,149.802" style="stroke:#181818;stroke-width:1.0;"/><text fill="#000000" font-family="sans-serif" font-size="13" lengthAdjust="spacing" textLength="50" x="478" y="96.0669">forward</text></g><!--link web to contenInterface--><g id="link_web_contenInterface"><path d="M504.87,53.122 C541.579,82.259 599.5255,128.2537 623.0285,146.9097 " fill="none" id="web-to-contenInterface" style="stroke:#181818;stroke-width:1.0;stroke-dasharray:7.0,7.0;"/><polygon fill="#181818" points="627.728,150.64,623.1657,141.9116,623.8118,147.5314,618.192,148.1775,627.728,150.64" style="stroke:#181818;stroke-width:1.0;"/><text fill="#000000" font-family="sans-serif" font-size="13" lengthAdjust="spacing" textLength="50" x="563" y="96.0669">forward</text></g><!--SRC=[VLExRiCm39ojho2yEzapTCdKhK3788EZC821L79ffHcA_7lrYaDAGYTJTtmUpjf-pTQWSN2uusbOa7wGZZ0ku9zAJSOXNKQDq6_rIAuFJ0ZUduJIhmw1Y2qcZSTd9logRhRa9WCzi7hLiSgzX_RMEBBNQvuleIhxaurXRzNvJBuV3CDhOFm6f6mktx3PlF6ci0F2xzj4kAY756KcUxxff4kEcz9aJgYJiKgVjOyu-YEXXKeLsghXMaaeo5Mk7VHXAwnXm1lZAYYg9yVy8s1oX2z6q_PKf0fR9QpXh4IKvafewQyIZTQHYqJpy9uvZ1Qgwlrb_gU9vqiBxk1YwJxIUUKhpUkKSfKrumy0]--></g></svg>