<svg xmlns="http://www.w3.org/2000/svg" xmlns:xlink="http://www.w3.org/1999/xlink" contentStyleType="text/css" height="414px" preserveAspectRatio="none" style="width:1231px;height:414px;background:#FFFFFF;" version="1.1" viewBox="0 0 1231 414" width="1231px" zoomAndPan="magnify"><defs/><g><!--cluster Frontend--><g id="cluster_Frontend"><path d="M8.5,6 L81.7285,6 A3.75,3.75 0 0 1 84.2285,8.5 L91.2285,28.2969 L125.5,28.2969 A2.5,2.5 0 0 1 128,30.7969 L128,251.8 A2.5,2.5 0 0 1 125.5,254.3 L8.5,254.3 A2.5,2.5 0 0 1 6,251.8 L6,8.5 A2.5,2.5 0 0 1 8.5,6 " fill="none" style="stroke:#000000;stroke-width:1.5;"/><line style="stroke:#000000;stroke-width:1.5;" x1="6" x2="91.2285" y1="28.2969" y2="28.2969"/><text fill="#000000" font-family="sans-serif" font-size="14" font-weight="bold" lengthAdjust="spacing" textLength="72.2285" x="10" y="20.9951">Frontend</text></g><!--cluster Database--><g id="cluster_Database"><path d="M1094.5,151.15 L1170.0049,151.15 A3.75,3.75 0 0 1 1172.5049,153.65 L1179.5049,173.4469 L1221.5,173.4469 A2.5,2.5 0 0 1 1224,175.9469 L1224,404.8 A2.5,2.5 0 0 1 1221.5,407.3 L1094.5,407.3 A2.5,2.5 0 0 1 1092,404.8 L1092,153.65 A2.5,2.5 0 0 1 1094.5,151.15 " fill="none" style="stroke:#000000;stroke-width:1.5;"/><line style="stroke:#000000;stroke-width:1.5;" x1="1092" x2="1179.5049" y1="173.4469" y2="173.4469"/><text fill="#000000" font-family="sans-serif" font-size="14" font-weight="bold" lengthAdjust="spacing" textLength="74.5049" x="1096" y="166.1451">Database</text></g><!--cluster Services--><g id="cluster_Services"><path d="M279.5,6 L347.0342,6 A3.75,3.75 0 0 1 349.5342,8.5 L356.5342,28.2969 L1065.5,28.2969 A2.5,2.5 0 0 1 1068,30.7969 L1068,267.8 A2.5,2.5 0 0 1 1065.5,270.3 L279.5,270.3 A2.5,2.5 0 0 1 277,267.8 L277,8.5 A2.5,2.5 0 0 1 279.5,6 " fill="none" style="stroke:#000000;stroke-width:1.5;"/><line style="stroke:#000000;stroke-width:1.5;" x1="277" x2="356.5342" y1="28.2969" y2="28.2969"/><text fill="#000000" font-family="sans-serif" font-size="14" font-weight="bold" lengthAdjust="spacing" textLength="66.5342" x="281" y="20.9951">Services</text></g><!--entity Web UI--><g id="elem_Web UI"><rect fill="#F1F1F1" height="46.2969" rx="2.5" ry="2.5" style="stroke:#181818;stroke-width:0.5;" width="90.1689" x="21.92" y="41"/><rect fill="#F1F1F1" height="10" style="stroke:#181818;stroke-width:0.5;" width="15" x="92.0889" y="46"/><rect fill="#F1F1F1" height="2" style="stroke:#181818;stroke-width:0.5;" width="4" x="90.0889" y="48"/><rect fill="#F1F1F1" height="2" style="stroke:#181818;stroke-width:0.5;" width="4" x="90.0889" y="52"/><text fill="#000000" font-family="sans-serif" font-size="14" lengthAdjust="spacing" textLength="50.1689" x="36.92" y="73.9951">Web UI</text></g><!--entity interface.WebUI--><g id="elem_interface.WebUI"><ellipse cx="67" cy="209.3" fill="#F1F1F1" rx="8" ry="8" style="stroke:#181818;stroke-width:0.5;"/><text fill="#000000" font-family="sans-serif" font-size="14" lengthAdjust="spacing" textLength="50.1689" x="41.9155" y="239.2951">Web UI</text></g><!--entity MariaDB--><g id="elem_MariaDB"><rect fill="#F1F1F1" height="46.2969" rx="2.5" ry="2.5" style="stroke:#181818;stroke-width:0.5;" width="99.2676" x="1108.37" y="186.15"/><rect fill="#F1F1F1" height="10" style="stroke:#181818;stroke-width:0.5;" width="15" x="1187.6376" y="191.15"/><rect fill="#F1F1F1" height="2" style="stroke:#181818;stroke-width:0.5;" width="4" x="1185.6376" y="193.15"/><rect fill="#F1F1F1" height="2" style="stroke:#181818;stroke-width:0.5;" width="4" x="1185.6376" y="197.15"/><text fill="#000000" font-family="sans-serif" font-size="14" lengthAdjust="spacing" textLength="59.2676" x="1123.37" y="219.1451">MariaDB</text></g><!--entity interface.Persistence--><g id="elem_interface.Persistence"><ellipse cx="1157" cy="362.3" fill="#F1F1F1" rx="8" ry="8" style="stroke:#181818;stroke-width:0.5;"/><text fill="#000000" font-family="sans-serif" font-size="14" lengthAdjust="spacing" textLength="80.5752" x="1116.7124" y="392.2951">Persistence</text></g><!--entity Authentication Service--><g id="elem_Authentication Service"><rect fill="#F1F1F1" height="46.2969" rx="2.5" ry="2.5" style="stroke:#181818;stroke-width:0.5;" width="198.9629" x="292.52" y="41"/><rect fill="#F1F1F1" height="10" style="stroke:#181818;stroke-width:0.5;" width="15" x="471.4829" y="46"/><rect fill="#F1F1F1" height="2" style="stroke:#181818;stroke-width:0.5;" width="4" x="469.4829" y="48"/><rect fill="#F1F1F1" height="2" style="stroke:#181818;stroke-width:0.5;" width="4" x="469.4829" y="52"/><text fill="#000000" font-family="sans-serif" font-size="14" lengthAdjust="spacing" textLength="158.9629" x="307.52" y="73.9951">Authentication Service</text></g><!--entity interface.AuthCart--><g id="elem_interface.AuthCart"><ellipse cx="352" cy="209.3" fill="#F1F1F1" rx="8" ry="8" style="stroke:#181818;stroke-width:0.5;"/><text fill="#000000" font-family="sans-serif" font-size="14" lengthAdjust="spacing" textLength="99.7979" x="300.6143" y="239.2951">Shopping Cart</text><text fill="#000000" font-family="sans-serif" font-size="14" lengthAdjust="spacing" textLength="102.7715" x="300.6143" y="255.592">Authentication</text></g><!--entity Registry Service--><g id="elem_Registry Service"><rect fill="#F1F1F1" height="46.2969" rx="2.5" ry="2.5" style="stroke:#181818;stroke-width:0.5;" width="154.1328" x="526.93" y="41"/><rect fill="#F1F1F1" height="10" style="stroke:#181818;stroke-width:0.5;" width="15" x="661.0628" y="46"/><rect fill="#F1F1F1" height="2" style="stroke:#181818;stroke-width:0.5;" width="4" x="659.0628" y="48"/><rect fill="#F1F1F1" height="2" style="stroke:#181818;stroke-width:0.5;" width="4" x="659.0628" y="52"/><text fill="#000000" font-family="sans-serif" font-size="14" lengthAdjust="spacing" textLength="114.1328" x="541.93" y="73.9951">Registry Service</text></g><!--entity Image Service--><g id="elem_Image Service"><rect fill="#F1F1F1" height="46.2969" rx="2.5" ry="2.5" style="stroke:#181818;stroke-width:0.5;" width="140.0371" x="911.98" y="186.15"/><rect fill="#F1F1F1" height="10" style="stroke:#181818;stroke-width:0.5;" width="15" x="1032.0171" y="191.15"/><rect fill="#F1F1F1" height="2" style="stroke:#181818;stroke-width:0.5;" width="4" x="1030.0171" y="193.15"/><rect fill="#F1F1F1" height="2" style="stroke:#181818;stroke-width:0.5;" width="4" x="1030.0171" y="197.15"/><text fill="#000000" font-family="sans-serif" font-size="14" lengthAdjust="spacing" textLength="100.0371" x="926.98" y="219.1451">Image Service</text></g><!--entity Persistence Service--><g id="elem_Persistence Service"><rect fill="#F1F1F1" height="46.2969" rx="2.5" ry="2.5" style="stroke:#181818;stroke-width:0.5;" width="176.7666" x="445.62" y="186.15"/><rect fill="#F1F1F1" height="10" style="stroke:#181818;stroke-width:0.5;" width="15" x="602.3866" y="191.15"/><rect fill="#F1F1F1" height="2" style="stroke:#181818;stroke-width:0.5;" width="4" x="600.3866" y="193.15"/><rect fill="#F1F1F1" height="2" style="stroke:#181818;stroke-width:0.5;" width="4" x="600.3866" y="197.15"/><text fill="#000000" font-family="sans-serif" font-size="14" lengthAdjust="spacing" textLength="136.7666" x="460.62" y="219.1451">Persistence Service</text></g><!--entity Recommendation Service--><g id="elem_Recommendation Service"><rect fill="#F1F1F1" height="46.2969" rx="2.5" ry="2.5" style="stroke:#181818;stroke-width:0.5;" width="219.8398" x="657.08" y="186.15"/><rect fill="#F1F1F1" height="10" style="stroke:#181818;stroke-width:0.5;" width="15" x="856.9198" y="191.15"/><rect fill="#F1F1F1" height="2" style="stroke:#181818;stroke-width:0.5;" width="4" x="854.9198" y="193.15"/><rect fill="#F1F1F1" height="2" style="stroke:#181818;stroke-width:0.5;" width="4" x="854.9198" y="197.15"/><text fill="#000000" font-family="sans-serif" font-size="14" lengthAdjust="spacing" textLength="179.8398" x="672.08" y="219.1451">Recommendation Service</text></g><!--entity interface.LoadBalancer--><g id="elem_interface.LoadBalancer"><ellipse cx="201" cy="209.3" fill="#F1F1F1" rx="8" ry="8" style="stroke:#181818;stroke-width:0.5;"/><text fill="#000000" font-family="sans-serif" font-size="14" lengthAdjust="spacing" textLength="99.873" x="151.0635" y="239.2951">Load Balancer</text></g><!--link Web UI to interface.WebUI--><g id="link_Web UI_interface.WebUI"><path d="M67,87.52 C67,120.23 67,179.52 67,200.6 " fill="none" id="Web UI-interface.WebUI" style="stroke:#181818;stroke-width:1.0;"/></g><!--link MariaDB to interface.Persistence--><g id="link_MariaDB_interface.Persistence"><path d="M1157.85,232.91 C1157.62,267.3 1157.2,331.11 1157.05,353.38 " fill="none" id="MariaDB-interface.Persistence" style="stroke:#181818;stroke-width:1.0;"/></g><!--link Registry Service to Image Service--><g id="link_Registry Service_Image Service"><path d="M681.27,77.76 C741.35,89.47 825.69,110.15 894,143.15 C917.11,154.31 935.7222,167.9652 952.4922,182.0252 " fill="none" id="Registry Service-to-Image Service" style="stroke:#181818;stroke-width:1.0;stroke-dasharray:7.0,7.0;"/><polygon fill="#181818" points="957.09,185.88,952.7631,177.0325,953.2585,182.6676,947.6233,183.163,957.09,185.88" style="stroke:#181818;stroke-width:1.0;"/><text fill="#000000" font-family="sans-serif" font-size="13" lengthAdjust="spacing" textLength="53.5615" x="872" y="130.3669">requires</text></g><!--link Registry Service to Persistence Service--><g id="link_Registry Service_Persistence Service"><path d="M593.06,87.52 C579.91,114.41 560.6166,153.8803 547.4966,180.7003 " fill="none" id="Registry Service-to-Persistence Service" style="stroke:#181818;stroke-width:1.0;stroke-dasharray:7.0,7.0;"/><polygon fill="#181818" points="544.86,186.09,552.408,179.7632,547.0571,181.5986,545.2217,176.2478,544.86,186.09" style="stroke:#181818;stroke-width:1.0;"/><text fill="#000000" font-family="sans-serif" font-size="13" lengthAdjust="spacing" textLength="53.5615" x="578" y="130.3669">requires</text></g><!--link Registry Service to Recommendation Service--><g id="link_Registry Service_Recommendation Service"><path d="M629.47,87.52 C660,114.33 706.3612,155.0514 736.9312,181.8914 " fill="none" id="Registry Service-to-Recommendation Service" style="stroke:#181818;stroke-width:1.0;stroke-dasharray:7.0,7.0;"/><polygon fill="#181818" points="741.44,185.85,737.3159,176.9062,737.6827,182.5511,732.0377,182.9179,741.44,185.85" style="stroke:#181818;stroke-width:1.0;"/><text fill="#000000" font-family="sans-serif" font-size="13" lengthAdjust="spacing" textLength="53.5615" x="681" y="130.3669">requires</text></g><!--link Registry Service to interface.LoadBalancer--><g id="link_Registry Service_interface.LoadBalancer"><path d="M526.54,83.4 C430.74,105.99 279.84,141.71 277,143.15 C247.58,158.15 219.97,186.77 207.68,200.53 " fill="none" id="Registry Service-interface.LoadBalancer" style="stroke:#181818;stroke-width:1.0;"/></g><!--link Authentication Service to interface.LoadBalancer--><g id="link_Authentication Service_interface.LoadBalancer"><path d="M292.09,86.58 C273.54,94 255.48,103.96 241,117.3 C215.62,140.69 206.5706,177.1799 203.3506,194.5999 " fill="none" id="Authentication Service-to-interface.LoadBalancer" style="stroke:#181818;stroke-width:1.0;stroke-dasharray:7.0,7.0;"/><polygon fill="#181818" points="202.26,200.5,207.8293,192.377,203.1688,195.5833,199.9625,190.9229,202.26,200.5" style="stroke:#181818;stroke-width:1.0;"/><text fill="#000000" font-family="sans-serif" font-size="13" lengthAdjust="spacing" textLength="53.5615" x="242" y="130.3669">requires</text></g><!--link Web UI to interface.LoadBalancer--><g id="link_Web UI_interface.LoadBalancer"><path d="M87.94,87.52 C118.56,120.23 169.9588,175.1404 189.6988,196.2204 " fill="none" id="Web UI-to-interface.LoadBalancer" style="stroke:#181818;stroke-width:1.0;stroke-dasharray:7.0,7.0;"/><polygon fill="#181818" points="193.8,200.6,190.568,191.2966,190.3824,196.9504,184.7286,196.7648,193.8,200.6" style="stroke:#181818;stroke-width:1.0;"/><text fill="#000000" font-family="sans-serif" font-size="13" lengthAdjust="spacing" textLength="53.5615" x="131" y="130.3669">requires</text></g><!--link Authentication Service to interface.AuthCart--><g id="link_Authentication Service_interface.AuthCart"><path d="M385.75,87.52 C376.61,120.23 360.04,179.52 354.15,200.6 " fill="none" id="Authentication Service-interface.AuthCart" style="stroke:#181818;stroke-width:1.0;"/></g><!--link Registry Service to interface.AuthCart--><g id="link_Registry Service_interface.AuthCart"><path d="M541.49,87.68 C506.81,101.43 463.61,120.68 428,143.15 C400.37,160.59 376.5481,183.283 363.6081,196.373 " fill="none" id="Registry Service-to-interface.AuthCart" style="stroke:#181818;stroke-width:1.0;stroke-dasharray:7.0,7.0;"/><polygon fill="#181818" points="359.39,200.64,368.5619,197.0516,362.9051,197.0842,362.8725,191.4274,359.39,200.64" style="stroke:#181818;stroke-width:1.0;"/><text fill="#000000" font-family="sans-serif" font-size="13" lengthAdjust="spacing" textLength="53.5615" x="475" y="130.3669">requires</text></g><!--link Persistence Service to interface.Persistence--><g id="link_Persistence Service_interface.Persistence"><path d="M561.95,232.81 C582.38,248.07 611.4,267.38 640,278.3 C835.33,352.89 1090.9907,360.3608 1142.1307,361.1208 " fill="none" id="Persistence Service-to-interface.Persistence" style="stroke:#181818;stroke-width:1.0;stroke-dasharray:7.0,7.0;"/><polygon fill="#181818" points="1148.13,361.21,1139.1904,357.0767,1143.1306,361.1357,1139.0716,365.0758,1148.13,361.21" style="stroke:#181818;stroke-width:1.0;"/><text fill="#000000" font-family="sans-serif" font-size="13" lengthAdjust="spacing" textLength="53.5615" x="708" y="299.3669">requires</text></g><!--SRC=[ZPCnJyCm48Lt_ufJzsPWP42YhP0g5O5QLGp0S76lhTN42MUdeaByTnnA4pjnK3CbllVyFjrTp47f4XbpsAhFgMAPqG9JofwEn1cMfT8xi5oHC8rG5dbPQD9sPKyPGPLdDqAKA0-u8nWzSA4jwSq8lWIufr73wmkbi9w__nxNZt92tg9qhdDf16ZQqyGThkUD-cA7yRYd-VO0PcWnHKCHW4TaXRD9bE2Ps2ZZo2LrCBnA2tEvAgJnfJxJYlYe99a8qtrbz-v5IRIgqF2dZ2AkziLv85Da-wP3PmUwBjOoqSrRqiuHygbDwYhcUStS0-axa-Ik8uPROFge59FfNUlrvjhBOvR_8fRaFdAtV0EzZASCk88WDqnl48i2Dp3131qOTnfVroub4GyDTwPl65W9SB03Ffyr-5UkiuZ1o82qsQbe7_kwC28spC3c2rhd3m00]--></g></svg>