<?xml version="1.0" encoding="us-ascii" standalone="no"?><svg xmlns="http://www.w3.org/2000/svg" xmlns:xlink="http://www.w3.org/1999/xlink" contentStyleType="text/css" height="125px" preserveAspectRatio="none" style="width:1778px;height:125px;background:#FFFFFF;" version="1.1" viewBox="0 0 1778 125" width="1778px" zoomAndPan="magnify"><defs/><g><!--cluster Placeholder_7--><g id="cluster_Placeholder_7"><polygon fill="none" points="1575.5,16,1585.5,6,1761.5,6,1761.5,98,1751.5,108,1575.5,108,1575.5,16" style="stroke:#181818;stroke-width:1.0;"/><line style="stroke:#181818;stroke-width:1.0;" x1="1751.5" x2="1761.5" y1="16" y2="6"/><line style="stroke:#181818;stroke-width:1.0;" x1="1575.5" x2="1751.5" y1="16" y2="16"/><line style="stroke:#181818;stroke-width:1.0;" x1="1751.5" x2="1751.5" y1="16" y2="108"/><text fill="#000000" font-family="sans-serif" font-size="14" font-weight="bold" lengthAdjust="spacing" textLength="110" x="1609.5" y="31.9951">Placeholder_7</text></g><!--entity aName--><g id="elem_aName"><a href="corona-warn-app-cwa-server.system#_yGnHNrw4Ee6kBqDCSpQY-g" target="_top" title="corona-warn-app-cwa-server.system#_yGnHNrw4Ee6kBqDCSpQY-g" xlink:actuate="onRequest" xlink:href="corona-warn-app-cwa-server.system#_yGnHNrw4Ee6kBqDCSpQY-g" xlink:show="new" xlink:title="corona-warn-app-cwa-server.system#_yGnHNrw4Ee6kBqDCSpQY-g" xlink:type="simple"><rect fill="#F1F1F1" height="46.2969" rx="2.5" ry="2.5" style="stroke:#181818;stroke-width:0.5;" width="88" x="1592.5" y="46"/><rect fill="#F1F1F1" height="10" style="stroke:#181818;stroke-width:0.5;" width="15" x="1660.5" y="51"/><rect fill="#F1F1F1" height="2" style="stroke:#181818;stroke-width:0.5;" width="4" x="1658.5" y="53"/><rect fill="#F1F1F1" height="2" style="stroke:#181818;stroke-width:0.5;" width="4" x="1658.5" y="57"/><text fill="#000000" font-family="sans-serif" font-size="14" lengthAdjust="spacing" textLength="48" x="1607.5" y="78.9951">aName</text></a></g><!--entity Placeholder_1--><g id="elem_Placeholder_1"><polygon fill="#F1F1F1" points="16,56,26,46,153,46,153,82.2969,143,92.2969,16,92.2969,16,56" style="stroke:#181818;stroke-width:0.5;"/><line style="stroke:#181818;stroke-width:0.5;" x1="143" x2="153" y1="56" y2="46"/><line style="stroke:#181818;stroke-width:0.5;" x1="16" x2="143" y1="56" y2="56"/><line style="stroke:#181818;stroke-width:0.5;" x1="143" x2="143" y1="56" y2="92.2969"/><text fill="#000000" font-family="sans-serif" font-size="14" lengthAdjust="spacing" textLength="97" x="31" y="78.9951">Placeholder_1</text></g><!--entity Placeholder_11--><g id="elem_Placeholder_11"><polygon fill="#F1F1F1" points="188.5,56,198.5,46,334.5,46,334.5,82.2969,324.5,92.2969,188.5,92.2969,188.5,56" style="stroke:#181818;stroke-width:0.5;"/><line style="stroke:#181818;stroke-width:0.5;" x1="324.5" x2="334.5" y1="56" y2="46"/><line style="stroke:#181818;stroke-width:0.5;" x1="188.5" x2="324.5" y1="56" y2="56"/><line style="stroke:#181818;stroke-width:0.5;" x1="324.5" x2="324.5" y1="56" y2="92.2969"/><text fill="#000000" font-family="sans-serif" font-size="14" lengthAdjust="spacing" textLength="106" x="203.5" y="78.9951">Placeholder_11</text></g><!--entity Placeholder_13--><g id="elem_Placeholder_13"><polygon fill="#F1F1F1" points="369.5,56,379.5,46,515.5,46,515.5,82.2969,505.5,92.2969,369.5,92.2969,369.5,56" style="stroke:#181818;stroke-width:0.5;"/><line style="stroke:#181818;stroke-width:0.5;" x1="505.5" x2="515.5" y1="56" y2="46"/><line style="stroke:#181818;stroke-width:0.5;" x1="369.5" x2="505.5" y1="56" y2="56"/><line style="stroke:#181818;stroke-width:0.5;" x1="505.5" x2="505.5" y1="56" y2="92.2969"/><text fill="#000000" font-family="sans-serif" font-size="14" lengthAdjust="spacing" textLength="106" x="384.5" y="78.9951">Placeholder_13</text></g><!--entity Placeholder_10--><g id="elem_Placeholder_10"><polygon fill="#F1F1F1" points="550.5,56,560.5,46,696.5,46,696.5,82.2969,686.5,92.2969,550.5,92.2969,550.5,56" style="stroke:#181818;stroke-width:0.5;"/><line style="stroke:#181818;stroke-width:0.5;" x1="686.5" x2="696.5" y1="56" y2="46"/><line style="stroke:#181818;stroke-width:0.5;" x1="550.5" x2="686.5" y1="56" y2="56"/><line style="stroke:#181818;stroke-width:0.5;" x1="686.5" x2="686.5" y1="56" y2="92.2969"/><text fill="#000000" font-family="sans-serif" font-size="14" lengthAdjust="spacing" textLength="106" x="565.5" y="78.9951">Placeholder_10</text></g><!--entity Placeholder_4--><g id="elem_Placeholder_4"><polygon fill="#F1F1F1" points="732,56,742,46,869,46,869,82.2969,859,92.2969,732,92.2969,732,56" style="stroke:#181818;stroke-width:0.5;"/><line style="stroke:#181818;stroke-width:0.5;" x1="859" x2="869" y1="56" y2="46"/><line style="stroke:#181818;stroke-width:0.5;" x1="732" x2="859" y1="56" y2="56"/><line style="stroke:#181818;stroke-width:0.5;" x1="859" x2="859" y1="56" y2="92.2969"/><text fill="#000000" font-family="sans-serif" font-size="14" lengthAdjust="spacing" textLength="97" x="747" y="78.9951">Placeholder_4</text></g><!--entity Placeholder_6--><g id="elem_Placeholder_6"><polygon fill="#F1F1F1" points="904,56,914,46,1041,46,1041,82.2969,1031,92.2969,904,92.2969,904,56" style="stroke:#181818;stroke-width:0.5;"/><line style="stroke:#181818;stroke-width:0.5;" x1="1031" x2="1041" y1="56" y2="46"/><line style="stroke:#181818;stroke-width:0.5;" x1="904" x2="1031" y1="56" y2="56"/><line style="stroke:#181818;stroke-width:0.5;" x1="1031" x2="1031" y1="56" y2="92.2969"/><text fill="#000000" font-family="sans-serif" font-size="14" lengthAdjust="spacing" textLength="97" x="919" y="78.9951">Placeholder_6</text></g><!--entity Placeholder_9--><g id="elem_Placeholder_9"><polygon fill="#F1F1F1" points="1076,56,1086,46,1213,46,1213,82.2969,1203,92.2969,1076,92.2969,1076,56" style="stroke:#181818;stroke-width:0.5;"/><line style="stroke:#181818;stroke-width:0.5;" x1="1203" x2="1213" y1="56" y2="46"/><line style="stroke:#181818;stroke-width:0.5;" x1="1076" x2="1203" y1="56" y2="56"/><line style="stroke:#181818;stroke-width:0.5;" x1="1203" x2="1203" y1="56" y2="92.2969"/><text fill="#000000" font-family="sans-serif" font-size="14" lengthAdjust="spacing" textLength="97" x="1091" y="78.9951">Placeholder_9</text></g><!--entity Placeholder_2--><g id="elem_Placeholder_2"><polygon fill="#F1F1F1" points="1248,56,1258,46,1385,46,1385,82.2969,1375,92.2969,1248,92.2969,1248,56" style="stroke:#181818;stroke-width:0.5;"/><line style="stroke:#181818;stroke-width:0.5;" x1="1375" x2="1385" y1="56" y2="46"/><line style="stroke:#181818;stroke-width:0.5;" x1="1248" x2="1375" y1="56" y2="56"/><line style="stroke:#181818;stroke-width:0.5;" x1="1375" x2="1375" y1="56" y2="92.2969"/><text fill="#000000" font-family="sans-serif" font-size="14" lengthAdjust="spacing" textLength="97" x="1263" y="78.9951">Placeholder_2</text></g><!--entity Placeholder_8--><g id="elem_Placeholder_8"><polygon fill="#F1F1F1" points="1420,56,1430,46,1557,46,1557,82.2969,1547,92.2969,1420,92.2969,1420,56" style="stroke:#181818;stroke-width:0.5;"/><line style="stroke:#181818;stroke-width:0.5;" x1="1547" x2="1557" y1="56" y2="46"/><line style="stroke:#181818;stroke-width:0.5;" x1="1420" x2="1547" y1="56" y2="56"/><line style="stroke:#181818;stroke-width:0.5;" x1="1547" x2="1547" y1="56" y2="92.2969"/><text fill="#000000" font-family="sans-serif" font-size="14" lengthAdjust="spacing" textLength="97" x="1435" y="78.9951">Placeholder_8</text></g><!--SRC=[jSox3e8m503GdQzeubpZWw2kej71eCR944AkvOeDfQstA1BZlylkQZ_W75T9RO6WPbVvYYK9XJkueDe_aHHOAtN96dfWe4s1xA10uCse0YcViNUGGW8rPYnDXI6ZWRT0clUCYnQuG-gNeUjSW_KWxpPwcr0RhZ6gblTLVBB7Co-pBFZyvcElkTzzwdKV-Tn3dtdaCr_up2S-y_aVyoy0]--></g></svg>