<?xml version="1.0" encoding="us-ascii" standalone="no"?><svg xmlns="http://www.w3.org/2000/svg" xmlns:xlink="http://www.w3.org/1999/xlink" contentStyleType="text/css" height="125px" preserveAspectRatio="none" style="width:1779px;height:125px;background:#FFFFFF;" version="1.1" viewBox="0 0 1779 125" width="1779px" zoomAndPan="magnify"><defs/><g><!--cluster Placeholder_0--><g id="cluster_Placeholder_0"><polygon fill="none" points="1576.5,16,1586.5,6,1762.5,6,1762.5,98,1752.5,108,1576.5,108,1576.5,16" style="stroke:#181818;stroke-width:1.0;"/><line style="stroke:#181818;stroke-width:1.0;" x1="1752.5" x2="1762.5" y1="16" y2="6"/><line style="stroke:#181818;stroke-width:1.0;" x1="1576.5" x2="1752.5" y1="16" y2="16"/><line style="stroke:#181818;stroke-width:1.0;" x1="1752.5" x2="1752.5" y1="16" y2="108"/><text fill="#000000" font-family="sans-serif" font-size="14" font-weight="bold" lengthAdjust="spacing" textLength="110" x="1610.5" y="31.9951">Placeholder_0</text></g><!--entity aName--><g id="elem_aName"><a href="corona-warn-app-cwa-server.system#_sJGoA7tpEe6JCa48q1xu6g" target="_top" title="corona-warn-app-cwa-server.system#_sJGoA7tpEe6JCa48q1xu6g" xlink:actuate="onRequest" xlink:href="corona-warn-app-cwa-server.system#_sJGoA7tpEe6JCa48q1xu6g" xlink:show="new" xlink:title="corona-warn-app-cwa-server.system#_sJGoA7tpEe6JCa48q1xu6g" xlink:type="simple"><rect fill="#F1F1F1" height="46.2969" rx="2.5" ry="2.5" style="stroke:#181818;stroke-width:0.5;" width="88" x="1593.5" y="46"/><rect fill="#F1F1F1" height="10" style="stroke:#181818;stroke-width:0.5;" width="15" x="1661.5" y="51"/><rect fill="#F1F1F1" height="2" style="stroke:#181818;stroke-width:0.5;" width="4" x="1659.5" y="53"/><rect fill="#F1F1F1" height="2" style="stroke:#181818;stroke-width:0.5;" width="4" x="1659.5" y="57"/><text fill="#000000" font-family="sans-serif" font-size="14" lengthAdjust="spacing" textLength="48" x="1608.5" y="78.9951">aName</text></a></g><!--entity Placeholder_6--><g id="elem_Placeholder_6"><polygon fill="#F1F1F1" points="16,56,26,46,153,46,153,82.2969,143,92.2969,16,92.2969,16,56" style="stroke:#181818;stroke-width:0.5;"/><line style="stroke:#181818;stroke-width:0.5;" x1="143" x2="153" y1="56" y2="46"/><line style="stroke:#181818;stroke-width:0.5;" x1="16" x2="143" y1="56" y2="56"/><line style="stroke:#181818;stroke-width:0.5;" x1="143" x2="143" y1="56" y2="92.2969"/><text fill="#000000" font-family="sans-serif" font-size="14" lengthAdjust="spacing" textLength="97" x="31" y="78.9951">Placeholder_6</text></g><!--entity Placeholder_4--><g id="elem_Placeholder_4"><polygon fill="#F1F1F1" points="188,56,198,46,325,46,325,82.2969,315,92.2969,188,92.2969,188,56" style="stroke:#181818;stroke-width:0.5;"/><line style="stroke:#181818;stroke-width:0.5;" x1="315" x2="325" y1="56" y2="46"/><line style="stroke:#181818;stroke-width:0.5;" x1="188" x2="315" y1="56" y2="56"/><line style="stroke:#181818;stroke-width:0.5;" x1="315" x2="315" y1="56" y2="92.2969"/><text fill="#000000" font-family="sans-serif" font-size="14" lengthAdjust="spacing" textLength="97" x="203" y="78.9951">Placeholder_4</text></g><!--entity Placeholder_11--><g id="elem_Placeholder_11"><polygon fill="#F1F1F1" points="360.5,56,370.5,46,506.5,46,506.5,82.2969,496.5,92.2969,360.5,92.2969,360.5,56" style="stroke:#181818;stroke-width:0.5;"/><line style="stroke:#181818;stroke-width:0.5;" x1="496.5" x2="506.5" y1="56" y2="46"/><line style="stroke:#181818;stroke-width:0.5;" x1="360.5" x2="496.5" y1="56" y2="56"/><line style="stroke:#181818;stroke-width:0.5;" x1="496.5" x2="496.5" y1="56" y2="92.2969"/><text fill="#000000" font-family="sans-serif" font-size="14" lengthAdjust="spacing" textLength="106" x="375.5" y="78.9951">Placeholder_11</text></g><!--entity Placeholder_10--><g id="elem_Placeholder_10"><polygon fill="#F1F1F1" points="541.5,56,551.5,46,687.5,46,687.5,82.2969,677.5,92.2969,541.5,92.2969,541.5,56" style="stroke:#181818;stroke-width:0.5;"/><line style="stroke:#181818;stroke-width:0.5;" x1="677.5" x2="687.5" y1="56" y2="46"/><line style="stroke:#181818;stroke-width:0.5;" x1="541.5" x2="677.5" y1="56" y2="56"/><line style="stroke:#181818;stroke-width:0.5;" x1="677.5" x2="677.5" y1="56" y2="92.2969"/><text fill="#000000" font-family="sans-serif" font-size="14" lengthAdjust="spacing" textLength="106" x="556.5" y="78.9951">Placeholder_10</text></g><!--entity Placeholder_7--><g id="elem_Placeholder_7"><polygon fill="#F1F1F1" points="723,56,733,46,860,46,860,82.2969,850,92.2969,723,92.2969,723,56" style="stroke:#181818;stroke-width:0.5;"/><line style="stroke:#181818;stroke-width:0.5;" x1="850" x2="860" y1="56" y2="46"/><line style="stroke:#181818;stroke-width:0.5;" x1="723" x2="850" y1="56" y2="56"/><line style="stroke:#181818;stroke-width:0.5;" x1="850" x2="850" y1="56" y2="92.2969"/><text fill="#000000" font-family="sans-serif" font-size="14" lengthAdjust="spacing" textLength="97" x="738" y="78.9951">Placeholder_7</text></g><!--entity Placeholder_12--><g id="elem_Placeholder_12"><polygon fill="#F1F1F1" points="895.5,56,905.5,46,1041.5,46,1041.5,82.2969,1031.5,92.2969,895.5,92.2969,895.5,56" style="stroke:#181818;stroke-width:0.5;"/><line style="stroke:#181818;stroke-width:0.5;" x1="1031.5" x2="1041.5" y1="56" y2="46"/><line style="stroke:#181818;stroke-width:0.5;" x1="895.5" x2="1031.5" y1="56" y2="56"/><line style="stroke:#181818;stroke-width:0.5;" x1="1031.5" x2="1031.5" y1="56" y2="92.2969"/><text fill="#000000" font-family="sans-serif" font-size="14" lengthAdjust="spacing" textLength="106" x="910.5" y="78.9951">Placeholder_12</text></g><!--entity Placeholder_1--><g id="elem_Placeholder_1"><polygon fill="#F1F1F1" points="1077,56,1087,46,1214,46,1214,82.2969,1204,92.2969,1077,92.2969,1077,56" style="stroke:#181818;stroke-width:0.5;"/><line style="stroke:#181818;stroke-width:0.5;" x1="1204" x2="1214" y1="56" y2="46"/><line style="stroke:#181818;stroke-width:0.5;" x1="1077" x2="1204" y1="56" y2="56"/><line style="stroke:#181818;stroke-width:0.5;" x1="1204" x2="1204" y1="56" y2="92.2969"/><text fill="#000000" font-family="sans-serif" font-size="14" lengthAdjust="spacing" textLength="97" x="1092" y="78.9951">Placeholder_1</text></g><!--entity Placeholder_3--><g id="elem_Placeholder_3"><polygon fill="#F1F1F1" points="1249,56,1259,46,1386,46,1386,82.2969,1376,92.2969,1249,92.2969,1249,56" style="stroke:#181818;stroke-width:0.5;"/><line style="stroke:#181818;stroke-width:0.5;" x1="1376" x2="1386" y1="56" y2="46"/><line style="stroke:#181818;stroke-width:0.5;" x1="1249" x2="1376" y1="56" y2="56"/><line style="stroke:#181818;stroke-width:0.5;" x1="1376" x2="1376" y1="56" y2="92.2969"/><text fill="#000000" font-family="sans-serif" font-size="14" lengthAdjust="spacing" textLength="97" x="1264" y="78.9951">Placeholder_3</text></g><!--entity Placeholder_5--><g id="elem_Placeholder_5"><polygon fill="#F1F1F1" points="1421,56,1431,46,1558,46,1558,82.2969,1548,92.2969,1421,92.2969,1421,56" style="stroke:#181818;stroke-width:0.5;"/><line style="stroke:#181818;stroke-width:0.5;" x1="1548" x2="1558" y1="56" y2="46"/><line style="stroke:#181818;stroke-width:0.5;" x1="1421" x2="1548" y1="56" y2="56"/><line style="stroke:#181818;stroke-width:0.5;" x1="1548" x2="1548" y1="56" y2="92.2969"/><text fill="#000000" font-family="sans-serif" font-size="14" lengthAdjust="spacing" textLength="97" x="1436" y="78.9951">Placeholder_5</text></g><!--SRC=[jT312e9058NXlKynq7eYoxHjI0GIrLv4RdgpeN5ckgDfHE-U-xRT1pWVXz_VbN50q8gh6bD5bSO3N52VdaWQd5Ec4Htr61XRepXhgF1cTOrKBiGxoE48BHOYpojBre0SW8oSPh8QG7gaIPdxb- -mdPK-szjjqhaTnbaAqUOHZdtS54Nm-SLZJZpYnCEGLMUjdh1UNxBgdFYA4r__4Vy2]--></g></svg>