<?xml version="1.0" encoding="us-ascii" standalone="no"?><svg xmlns="http://www.w3.org/2000/svg" xmlns:xlink="http://www.w3.org/1999/xlink" contentStyleType="text/css" height="125px" preserveAspectRatio="none" style="width:8702px;height:125px;background:#FFFFFF;" version="1.1" viewBox="0 0 8702 125" width="8702px" zoomAndPan="magnify"><defs/><g><!--cluster Placeholder_15--><g id="cluster_Placeholder_15"><polygon fill="none" points="3734,16,3744,6,8685,6,8685,98,8675,108,3734,108,3734,16" style="stroke:#181818;stroke-width:1.0;"/><line style="stroke:#181818;stroke-width:1.0;" x1="8675" x2="8685" y1="16" y2="6"/><line style="stroke:#181818;stroke-width:1.0;" x1="3734" x2="8675" y1="16" y2="16"/><line style="stroke:#181818;stroke-width:1.0;" x1="8675" x2="8675" y1="16" y2="108"/><text fill="#000000" font-family="sans-serif" font-size="14" font-weight="bold" lengthAdjust="spacing" textLength="120" x="6145.5" y="31.9951">Placeholder_15</text></g><!--entity aName--><g id="elem_aName"><a href="kit-recipe-app-recipebackendnew.system#_qGvusrtpEe60_Iln787yZQ" target="_top" title="kit-recipe-app-recipebackendnew.system#_qGvusrtpEe60_Iln787yZQ" xlink:actuate="onRequest" xlink:href="kit-recipe-app-recipebackendnew.system#_qGvusrtpEe60_Iln787yZQ" xlink:show="new" xlink:title="kit-recipe-app-recipebackendnew.system#_qGvusrtpEe60_Iln787yZQ" xlink:type="simple"><rect fill="#F1F1F1" height="46.2969" rx="2.5" ry="2.5" style="stroke:#181818;stroke-width:0.5;" width="88" x="3750" y="46"/><rect fill="#F1F1F1" height="10" style="stroke:#181818;stroke-width:0.5;" width="15" x="3818" y="51"/><rect fill="#F1F1F1" height="2" style="stroke:#181818;stroke-width:0.5;" width="4" x="3816" y="53"/><rect fill="#F1F1F1" height="2" style="stroke:#181818;stroke-width:0.5;" width="4" x="3816" y="57"/><text fill="#000000" font-family="sans-serif" font-size="14" lengthAdjust="spacing" textLength="48" x="3765" y="78.9951">aName</text></a></g><!--entity Placeholder_18--><g id="elem_Placeholder_18"><polygon fill="#F1F1F1" points="16,56,26,46,162,46,162,82.2969,152,92.2969,16,92.2969,16,56" style="stroke:#181818;stroke-width:0.5;"/><line style="stroke:#181818;stroke-width:0.5;" x1="152" x2="162" y1="56" y2="46"/><line style="stroke:#181818;stroke-width:0.5;" x1="16" x2="152" y1="56" y2="56"/><line style="stroke:#181818;stroke-width:0.5;" x1="152" x2="152" y1="56" y2="92.2969"/><text fill="#000000" font-family="sans-serif" font-size="14" lengthAdjust="spacing" textLength="106" x="31" y="78.9951">Placeholder_18</text></g><!--entity Placeholder_29--><g id="elem_Placeholder_29"><polygon fill="#F1F1F1" points="197,56,207,46,343,46,343,82.2969,333,92.2969,197,92.2969,197,56" style="stroke:#181818;stroke-width:0.5;"/><line style="stroke:#181818;stroke-width:0.5;" x1="333" x2="343" y1="56" y2="46"/><line style="stroke:#181818;stroke-width:0.5;" x1="197" x2="333" y1="56" y2="56"/><line style="stroke:#181818;stroke-width:0.5;" x1="333" x2="333" y1="56" y2="92.2969"/><text fill="#000000" font-family="sans-serif" font-size="14" lengthAdjust="spacing" textLength="106" x="212" y="78.9951">Placeholder_29</text></g><!--entity Placeholder_25--><g id="elem_Placeholder_25"><polygon fill="#F1F1F1" points="378,56,388,46,524,46,524,82.2969,514,92.2969,378,92.2969,378,56" style="stroke:#181818;stroke-width:0.5;"/><line style="stroke:#181818;stroke-width:0.5;" x1="514" x2="524" y1="56" y2="46"/><line style="stroke:#181818;stroke-width:0.5;" x1="378" x2="514" y1="56" y2="56"/><line style="stroke:#181818;stroke-width:0.5;" x1="514" x2="514" y1="56" y2="92.2969"/><text fill="#000000" font-family="sans-serif" font-size="14" lengthAdjust="spacing" textLength="106" x="393" y="78.9951">Placeholder_25</text></g><!--entity Placeholder_1--><g id="elem_Placeholder_1"><polygon fill="#F1F1F1" points="559.5,56,569.5,46,696.5,46,696.5,82.2969,686.5,92.2969,559.5,92.2969,559.5,56" style="stroke:#181818;stroke-width:0.5;"/><line style="stroke:#181818;stroke-width:0.5;" x1="686.5" x2="696.5" y1="56" y2="46"/><line style="stroke:#181818;stroke-width:0.5;" x1="559.5" x2="686.5" y1="56" y2="56"/><line style="stroke:#181818;stroke-width:0.5;" x1="686.5" x2="686.5" y1="56" y2="92.2969"/><text fill="#000000" font-family="sans-serif" font-size="14" lengthAdjust="spacing" textLength="97" x="574.5" y="78.9951">Placeholder_1</text></g><!--entity Placeholder_16--><g id="elem_Placeholder_16"><polygon fill="#F1F1F1" points="732,56,742,46,878,46,878,82.2969,868,92.2969,732,92.2969,732,56" style="stroke:#181818;stroke-width:0.5;"/><line style="stroke:#181818;stroke-width:0.5;" x1="868" x2="878" y1="56" y2="46"/><line style="stroke:#181818;stroke-width:0.5;" x1="732" x2="868" y1="56" y2="56"/><line style="stroke:#181818;stroke-width:0.5;" x1="868" x2="868" y1="56" y2="92.2969"/><text fill="#000000" font-family="sans-serif" font-size="14" lengthAdjust="spacing" textLength="106" x="747" y="78.9951">Placeholder_16</text></g><!--entity Placeholder_12--><g id="elem_Placeholder_12"><polygon fill="#F1F1F1" points="913,56,923,46,1059,46,1059,82.2969,1049,92.2969,913,92.2969,913,56" style="stroke:#181818;stroke-width:0.5;"/><line style="stroke:#181818;stroke-width:0.5;" x1="1049" x2="1059" y1="56" y2="46"/><line style="stroke:#181818;stroke-width:0.5;" x1="913" x2="1049" y1="56" y2="56"/><line style="stroke:#181818;stroke-width:0.5;" x1="1049" x2="1049" y1="56" y2="92.2969"/><text fill="#000000" font-family="sans-serif" font-size="14" lengthAdjust="spacing" textLength="106" x="928" y="78.9951">Placeholder_12</text></g><!--entity Placeholder_23--><g id="elem_Placeholder_23"><polygon fill="#F1F1F1" points="1094,56,1104,46,1240,46,1240,82.2969,1230,92.2969,1094,92.2969,1094,56" style="stroke:#181818;stroke-width:0.5;"/><line style="stroke:#181818;stroke-width:0.5;" x1="1230" x2="1240" y1="56" y2="46"/><line style="stroke:#181818;stroke-width:0.5;" x1="1094" x2="1230" y1="56" y2="56"/><line style="stroke:#181818;stroke-width:0.5;" x1="1230" x2="1230" y1="56" y2="92.2969"/><text fill="#000000" font-family="sans-serif" font-size="14" lengthAdjust="spacing" textLength="106" x="1109" y="78.9951">Placeholder_23</text></g><!--entity Placeholder_22--><g id="elem_Placeholder_22"><polygon fill="#F1F1F1" points="1275,56,1285,46,1421,46,1421,82.2969,1411,92.2969,1275,92.2969,1275,56" style="stroke:#181818;stroke-width:0.5;"/><line style="stroke:#181818;stroke-width:0.5;" x1="1411" x2="1421" y1="56" y2="46"/><line style="stroke:#181818;stroke-width:0.5;" x1="1275" x2="1411" y1="56" y2="56"/><line style="stroke:#181818;stroke-width:0.5;" x1="1411" x2="1411" y1="56" y2="92.2969"/><text fill="#000000" font-family="sans-serif" font-size="14" lengthAdjust="spacing" textLength="106" x="1290" y="78.9951">Placeholder_22</text></g><!--entity Placeholder_26--><g id="elem_Placeholder_26"><polygon fill="#F1F1F1" points="1456,56,1466,46,1602,46,1602,82.2969,1592,92.2969,1456,92.2969,1456,56" style="stroke:#181818;stroke-width:0.5;"/><line style="stroke:#181818;stroke-width:0.5;" x1="1592" x2="1602" y1="56" y2="46"/><line style="stroke:#181818;stroke-width:0.5;" x1="1456" x2="1592" y1="56" y2="56"/><line style="stroke:#181818;stroke-width:0.5;" x1="1592" x2="1592" y1="56" y2="92.2969"/><text fill="#000000" font-family="sans-serif" font-size="14" lengthAdjust="spacing" textLength="106" x="1471" y="78.9951">Placeholder_26</text></g><!--entity Placeholder_17--><g id="elem_Placeholder_17"><polygon fill="#F1F1F1" points="1637,56,1647,46,1783,46,1783,82.2969,1773,92.2969,1637,92.2969,1637,56" style="stroke:#181818;stroke-width:0.5;"/><line style="stroke:#181818;stroke-width:0.5;" x1="1773" x2="1783" y1="56" y2="46"/><line style="stroke:#181818;stroke-width:0.5;" x1="1637" x2="1773" y1="56" y2="56"/><line style="stroke:#181818;stroke-width:0.5;" x1="1773" x2="1773" y1="56" y2="92.2969"/><text fill="#000000" font-family="sans-serif" font-size="14" lengthAdjust="spacing" textLength="106" x="1652" y="78.9951">Placeholder_17</text></g><!--entity Placeholder_9--><g id="elem_Placeholder_9"><polygon fill="#F1F1F1" points="1818.5,56,1828.5,46,1955.5,46,1955.5,82.2969,1945.5,92.2969,1818.5,92.2969,1818.5,56" style="stroke:#181818;stroke-width:0.5;"/><line style="stroke:#181818;stroke-width:0.5;" x1="1945.5" x2="1955.5" y1="56" y2="46"/><line style="stroke:#181818;stroke-width:0.5;" x1="1818.5" x2="1945.5" y1="56" y2="56"/><line style="stroke:#181818;stroke-width:0.5;" x1="1945.5" x2="1945.5" y1="56" y2="92.2969"/><text fill="#000000" font-family="sans-serif" font-size="14" lengthAdjust="spacing" textLength="97" x="1833.5" y="78.9951">Placeholder_9</text></g><!--entity Placeholder_5--><g id="elem_Placeholder_5"><polygon fill="#F1F1F1" points="1990.5,56,2000.5,46,2127.5,46,2127.5,82.2969,2117.5,92.2969,1990.5,92.2969,1990.5,56" style="stroke:#181818;stroke-width:0.5;"/><line style="stroke:#181818;stroke-width:0.5;" x1="2117.5" x2="2127.5" y1="56" y2="46"/><line style="stroke:#181818;stroke-width:0.5;" x1="1990.5" x2="2117.5" y1="56" y2="56"/><line style="stroke:#181818;stroke-width:0.5;" x1="2117.5" x2="2117.5" y1="56" y2="92.2969"/><text fill="#000000" font-family="sans-serif" font-size="14" lengthAdjust="spacing" textLength="97" x="2005.5" y="78.9951">Placeholder_5</text></g><!--entity Placeholder_4--><g id="elem_Placeholder_4"><polygon fill="#F1F1F1" points="2162.5,56,2172.5,46,2299.5,46,2299.5,82.2969,2289.5,92.2969,2162.5,92.2969,2162.5,56" style="stroke:#181818;stroke-width:0.5;"/><line style="stroke:#181818;stroke-width:0.5;" x1="2289.5" x2="2299.5" y1="56" y2="46"/><line style="stroke:#181818;stroke-width:0.5;" x1="2162.5" x2="2289.5" y1="56" y2="56"/><line style="stroke:#181818;stroke-width:0.5;" x1="2289.5" x2="2289.5" y1="56" y2="92.2969"/><text fill="#000000" font-family="sans-serif" font-size="14" lengthAdjust="spacing" textLength="97" x="2177.5" y="78.9951">Placeholder_4</text></g><!--entity Placeholder_27--><g id="elem_Placeholder_27"><polygon fill="#F1F1F1" points="2335,56,2345,46,2481,46,2481,82.2969,2471,92.2969,2335,92.2969,2335,56" style="stroke:#181818;stroke-width:0.5;"/><line style="stroke:#181818;stroke-width:0.5;" x1="2471" x2="2481" y1="56" y2="46"/><line style="stroke:#181818;stroke-width:0.5;" x1="2335" x2="2471" y1="56" y2="56"/><line style="stroke:#181818;stroke-width:0.5;" x1="2471" x2="2471" y1="56" y2="92.2969"/><text fill="#000000" font-family="sans-serif" font-size="14" lengthAdjust="spacing" textLength="106" x="2350" y="78.9951">Placeholder_27</text></g><!--entity Placeholder_7--><g id="elem_Placeholder_7"><polygon fill="#F1F1F1" points="2516.5,56,2526.5,46,2653.5,46,2653.5,82.2969,2643.5,92.2969,2516.5,92.2969,2516.5,56" style="stroke:#181818;stroke-width:0.5;"/><line style="stroke:#181818;stroke-width:0.5;" x1="2643.5" x2="2653.5" y1="56" y2="46"/><line style="stroke:#181818;stroke-width:0.5;" x1="2516.5" x2="2643.5" y1="56" y2="56"/><line style="stroke:#181818;stroke-width:0.5;" x1="2643.5" x2="2643.5" y1="56" y2="92.2969"/><text fill="#000000" font-family="sans-serif" font-size="14" lengthAdjust="spacing" textLength="97" x="2531.5" y="78.9951">Placeholder_7</text></g><!--entity Placeholder_24--><g id="elem_Placeholder_24"><polygon fill="#F1F1F1" points="2689,56,2699,46,2835,46,2835,82.2969,2825,92.2969,2689,92.2969,2689,56" style="stroke:#181818;stroke-width:0.5;"/><line style="stroke:#181818;stroke-width:0.5;" x1="2825" x2="2835" y1="56" y2="46"/><line style="stroke:#181818;stroke-width:0.5;" x1="2689" x2="2825" y1="56" y2="56"/><line style="stroke:#181818;stroke-width:0.5;" x1="2825" x2="2825" y1="56" y2="92.2969"/><text fill="#000000" font-family="sans-serif" font-size="14" lengthAdjust="spacing" textLength="106" x="2704" y="78.9951">Placeholder_24</text></g><!--entity Placeholder_3--><g id="elem_Placeholder_3"><polygon fill="#F1F1F1" points="2870.5,56,2880.5,46,3007.5,46,3007.5,82.2969,2997.5,92.2969,2870.5,92.2969,2870.5,56" style="stroke:#181818;stroke-width:0.5;"/><line style="stroke:#181818;stroke-width:0.5;" x1="2997.5" x2="3007.5" y1="56" y2="46"/><line style="stroke:#181818;stroke-width:0.5;" x1="2870.5" x2="2997.5" y1="56" y2="56"/><line style="stroke:#181818;stroke-width:0.5;" x1="2997.5" x2="2997.5" y1="56" y2="92.2969"/><text fill="#000000" font-family="sans-serif" font-size="14" lengthAdjust="spacing" textLength="97" x="2885.5" y="78.9951">Placeholder_3</text></g><!--entity Placeholder_19--><g id="elem_Placeholder_19"><polygon fill="#F1F1F1" points="3043,56,3053,46,3189,46,3189,82.2969,3179,92.2969,3043,92.2969,3043,56" style="stroke:#181818;stroke-width:0.5;"/><line style="stroke:#181818;stroke-width:0.5;" x1="3179" x2="3189" y1="56" y2="46"/><line style="stroke:#181818;stroke-width:0.5;" x1="3043" x2="3179" y1="56" y2="56"/><line style="stroke:#181818;stroke-width:0.5;" x1="3179" x2="3179" y1="56" y2="92.2969"/><text fill="#000000" font-family="sans-serif" font-size="14" lengthAdjust="spacing" textLength="106" x="3058" y="78.9951">Placeholder_19</text></g><!--entity Placeholder_28--><g id="elem_Placeholder_28"><polygon fill="#F1F1F1" points="3224,56,3234,46,3370,46,3370,82.2969,3360,92.2969,3224,92.2969,3224,56" style="stroke:#181818;stroke-width:0.5;"/><line style="stroke:#181818;stroke-width:0.5;" x1="3360" x2="3370" y1="56" y2="46"/><line style="stroke:#181818;stroke-width:0.5;" x1="3224" x2="3360" y1="56" y2="56"/><line style="stroke:#181818;stroke-width:0.5;" x1="3360" x2="3360" y1="56" y2="92.2969"/><text fill="#000000" font-family="sans-serif" font-size="14" lengthAdjust="spacing" textLength="106" x="3239" y="78.9951">Placeholder_28</text></g><!--entity Placeholder_0--><g id="elem_Placeholder_0"><polygon fill="#F1F1F1" points="3405.5,56,3415.5,46,3542.5,46,3542.5,82.2969,3532.5,92.2969,3405.5,92.2969,3405.5,56" style="stroke:#181818;stroke-width:0.5;"/><line style="stroke:#181818;stroke-width:0.5;" x1="3532.5" x2="3542.5" y1="56" y2="46"/><line style="stroke:#181818;stroke-width:0.5;" x1="3405.5" x2="3532.5" y1="56" y2="56"/><line style="stroke:#181818;stroke-width:0.5;" x1="3532.5" x2="3532.5" y1="56" y2="92.2969"/><text fill="#000000" font-family="sans-serif" font-size="14" lengthAdjust="spacing" textLength="97" x="3420.5" y="78.9951">Placeholder_0</text></g><!--entity Placeholder_2--><g id="elem_Placeholder_2"><polygon fill="#F1F1F1" points="3577.5,56,3587.5,46,3714.5,46,3714.5,82.2969,3704.5,92.2969,3577.5,92.2969,3577.5,56" style="stroke:#181818;stroke-width:0.5;"/><line style="stroke:#181818;stroke-width:0.5;" x1="3704.5" x2="3714.5" y1="56" y2="46"/><line style="stroke:#181818;stroke-width:0.5;" x1="3577.5" x2="3704.5" y1="56" y2="56"/><line style="stroke:#181818;stroke-width:0.5;" x1="3704.5" x2="3704.5" y1="56" y2="92.2969"/><text fill="#000000" font-family="sans-serif" font-size="14" lengthAdjust="spacing" textLength="97" x="3592.5" y="78.9951">Placeholder_2</text></g><!--link aName to aName--><g id="link_aName_aName"><path d="M3838.27,67.52 C3857.02,67.4 3873,67.9 3873,69 C3873,70.1 3857.02,70.6 3838.27,70.48 " fill="none" id="aName-aName" style="stroke:#181818;stroke-width:1.0;"/><text fill="#000000" font-family="sans-serif" font-size="13" lengthAdjust="spacing" textLength="433" x="3886" y="73.5669">edu_kit_recipe_recipebackend_repository_ImageRepository Provider</text><path d="M3831.1538,60.4943 A10,10 0 0 0 3831.2443 74.6362" fill="none" style="stroke:#181818;stroke-width:1.5;"/><ellipse cx="3838.27" cy="67.52" fill="#FFFFFF" rx="6" ry="6" style="stroke:#181818;stroke-width:1.5;"/></g><!--link aName to aName--><g id="link_aName_aName"><path d="M3838.31,67.48 C3969.42,65.09 4332,65.59 4332,69 C4332,72.41 3969.42,72.91 3838.31,70.52 " fill="none" id="aName-aName-1" style="stroke:#181818;stroke-width:1.0;"/><text fill="#000000" font-family="sans-serif" font-size="13" lengthAdjust="spacing" textLength="444" x="4345" y="73.5669">edu_kit_recipe_recipebackend_repository_tag_TagRepository Provider</text><path d="M3831.1112,60.539 A10,10 0 0 0 3831.369 74.6788" fill="none" style="stroke:#181818;stroke-width:1.5;"/><ellipse cx="3838.31" cy="67.48" fill="#FFFFFF" rx="6" ry="6" style="stroke:#181818;stroke-width:1.5;"/></g><!--link aName to aName--><g id="link_aName_aName"><path d="M3838.17,67.29 C4035.99,63.07 4802,63.64 4802,69 C4802,74.36 4035.99,74.93 3838.17,70.71 " fill="none" id="aName-aName-2" style="stroke:#181818;stroke-width:1.0;"/><text fill="#000000" font-family="sans-serif" font-size="13" lengthAdjust="spacing" textLength="457" x="4815" y="73.5669">edu_kit_recipe_recipebackend_repository_IngredientRepository Provider</text><path d="M3830.9497,60.3713 A10,10 0 0 0 3831.2513 74.5103" fill="none" style="stroke:#181818;stroke-width:1.5;"/><ellipse cx="3838.17" cy="67.29" fill="#FFFFFF" rx="6" ry="6" style="stroke:#181818;stroke-width:1.5;"/></g><!--link aName to aName--><g id="link_aName_aName"><path d="M3838.35,67.11 C4090.5,61.06 5285,61.69 5285,69 C5285,76.31 4090.5,76.94 3838.35,70.89 " fill="none" id="aName-aName-3" style="stroke:#181818;stroke-width:1.0;"/><text fill="#000000" font-family="sans-serif" font-size="13" lengthAdjust="spacing" textLength="433" x="5298" y="73.5669">edu_kit_recipe_recipebackend_repository_ImageRepository Provider</text><path d="M3831.1114,60.2106 A10,10 0 0 0 3831.4506 74.3486" fill="none" style="stroke:#181818;stroke-width:1.5;"/><ellipse cx="3838.35" cy="67.11" fill="#FFFFFF" rx="6" ry="6" style="stroke:#181818;stroke-width:1.5;"/></g><!--link aName to aName--><g id="link_aName_aName"><path d="M3838.09,66.95 C4133.58,59.05 5744,59.74 5744,69 C5744,78.26 4133.58,78.95 3838.09,71.05 " fill="none" id="aName-aName-4" style="stroke:#181818;stroke-width:1.0;"/><text fill="#000000" font-family="sans-serif" font-size="13" lengthAdjust="spacing" textLength="435" x="5757" y="73.5669">edu_kit_recipe_recipebackend_repository_RecipeRepository Provider</text><path d="M3830.8325,60.0704 A10,10 0 0 0 3831.2104 74.2075" fill="none" style="stroke:#181818;stroke-width:1.5;"/><ellipse cx="3838.09" cy="66.95" fill="#FFFFFF" rx="6" ry="6" style="stroke:#181818;stroke-width:1.5;"/></g><!--link aName to aName--><g id="link_aName_aName"><path d="M3838.13,66.8 C4173.13,57.05 6205,57.79 6205,69 C6205,80.21 4173.13,80.95 3838.13,71.2 " fill="none" id="aName-aName-5" style="stroke:#181818;stroke-width:1.0;"/><text fill="#000000" font-family="sans-serif" font-size="13" lengthAdjust="spacing" textLength="456" x="6218" y="73.5669">edu_kit_recipe_recipebackend_repository_CustomerRepository Provider</text><path d="M3830.8562,59.9376 A10,10 0 0 0 3831.2676 74.0738" fill="none" style="stroke:#181818;stroke-width:1.5;"/><ellipse cx="3838.13" cy="66.8" fill="#FFFFFF" rx="6" ry="6" style="stroke:#181818;stroke-width:1.5;"/></g><!--link aName to aName--><g id="link_aName_aName"><path d="M3838.22,66.67 C4211.04,55.05 6687,55.83 6687,69 C6687,82.17 4211.04,82.95 3838.22,71.33 " fill="none" id="aName-aName-6" style="stroke:#181818;stroke-width:1.0;"/><text fill="#000000" font-family="sans-serif" font-size="13" lengthAdjust="spacing" textLength="444" x="6700" y="73.5669">edu_kit_recipe_recipebackend_repository_tag_TagRepository Provider</text><path d="M3830.9321,59.8226 A10,10 0 0 0 3831.3726 73.9579" fill="none" style="stroke:#181818;stroke-width:1.5;"/><ellipse cx="3838.22" cy="66.67" fill="#FFFFFF" rx="6" ry="6" style="stroke:#181818;stroke-width:1.5;"/></g><!--link aName to aName--><g id="link_aName_aName"><path d="M3838.27,66.54 C4245.28,53.05 7157,53.87 7157,69 C7157,84.13 4245.28,84.95 3838.27,71.46 " fill="none" id="aName-aName-7" style="stroke:#181818;stroke-width:1.0;"/><text fill="#000000" font-family="sans-serif" font-size="13" lengthAdjust="spacing" textLength="419" x="7170" y="73.5669">edu_kit_recipe_recipebackend_repository_UnitRepository Provider</text><path d="M3830.9686,59.707 A10,10 0 0 0 3831.437 73.8414" fill="none" style="stroke:#181818;stroke-width:1.5;"/><ellipse cx="3838.27" cy="66.54" fill="#FFFFFF" rx="6" ry="6" style="stroke:#181818;stroke-width:1.5;"/></g><!--link aName to aName--><g id="link_aName_aName"><path d="M3838.21,66.42 C4275.33,51.05 7602,51.91 7602,69 C7602,86.09 4275.33,86.95 3838.21,71.58 " fill="none" id="aName-aName-8" style="stroke:#181818;stroke-width:1.0;"/><text fill="#000000" font-family="sans-serif" font-size="13" lengthAdjust="spacing" textLength="435" x="7615" y="73.5669">edu_kit_recipe_recipebackend_repository_RecipeRepository Provider</text><path d="M3830.8948,59.6018 A10,10 0 0 0 3831.3918 73.7352" fill="none" style="stroke:#181818;stroke-width:1.5;"/><ellipse cx="3838.21" cy="66.42" fill="#FFFFFF" rx="6" ry="6" style="stroke:#181818;stroke-width:1.5;"/></g><!--link aName to aName--><g id="link_aName_aName"><path d="M3838.04,66.32 C4304.15,49.04 8063,49.94 8063,69 C8063,88.06 4304.15,88.96 3838.04,71.68 " fill="none" id="aName-aName-9" style="stroke:#181818;stroke-width:1.0;"/><text fill="#000000" font-family="sans-serif" font-size="13" lengthAdjust="spacing" textLength="435" x="8076" y="73.5669">edu_kit_recipe_recipebackend_repository_RecipeRepository Provider</text><path d="M3830.7118,59.5158 A10,10 0 0 0 3831.2358 73.6482" fill="none" style="stroke:#181818;stroke-width:1.5;"/><ellipse cx="3838.04" cy="66.32" fill="#FFFFFF" rx="6" ry="6" style="stroke:#181818;stroke-width:1.5;"/></g><!--SRC=[rPN1IiGm48RlVOg05o-LRjNjwdKHAOYkYrui9SmsOmrDavYarIA-kqLTGT2JJc5l6KA-BvcV8RwHseA3bjtBvwLqbS8BsA2wwj4fi5RgcWNNOQIDGBPIKE63KG8TdnspbwY0IsYnP4NHo10xhAJ5U3pskTn0rQ0M6fyE_E03jdlyyRpll0ls3ES9pvNE5jbmTrsMqUiFYWMv8ZsXLqpGA7h3d5wHqaTnIA-Ou1KJP96HA-W7ZtxkZkYpfW-2tf3Izub-i6SJ_1Jq_rr2_uZ_DcnXyNuIisrnob1qVAJp3oJ_HXuhQxmCnWqyRw76zLVDLixqShpeNxa1Qdu3DG4vrxL38L472ZXHEzRl6mJWPUU3QT7jL8ItMePTQlBlu3S0]--></g></svg>