<?xml version="1.0" encoding="us-ascii" standalone="no"?><svg xmlns="http://www.w3.org/2000/svg" xmlns:xlink="http://www.w3.org/1999/xlink" contentStyleType="text/css" height="125px" preserveAspectRatio="none" style="width:8741px;height:125px;background:#FFFFFF;" version="1.1" viewBox="0 0 8741 125" width="8741px" zoomAndPan="magnify"><defs/><g><!--cluster Placeholder_15--><g id="cluster_Placeholder_15"><polygon fill="none" points="3743,16,3753,6,8724,6,8724,98,8714,108,3743,108,3743,16" style="stroke:#181818;stroke-width:1.0;"/><line style="stroke:#181818;stroke-width:1.0;" x1="8714" x2="8724" y1="16" y2="6"/><line style="stroke:#181818;stroke-width:1.0;" x1="3743" x2="8714" y1="16" y2="16"/><line style="stroke:#181818;stroke-width:1.0;" x1="8714" x2="8714" y1="16" y2="108"/><text fill="#000000" font-family="sans-serif" font-size="14" font-weight="bold" lengthAdjust="spacing" textLength="120" x="6169.5" y="31.9951">Placeholder_15</text></g><!--entity aName--><g id="elem_aName"><a href="kit-recipe-app-recipebackendnew.system#_0AVB6Lw4Ee6yMM4EfqSvTA" target="_top" title="kit-recipe-app-recipebackendnew.system#_0AVB6Lw4Ee6yMM4EfqSvTA" xlink:actuate="onRequest" xlink:href="kit-recipe-app-recipebackendnew.system#_0AVB6Lw4Ee6yMM4EfqSvTA" xlink:show="new" xlink:title="kit-recipe-app-recipebackendnew.system#_0AVB6Lw4Ee6yMM4EfqSvTA" xlink:type="simple"><rect fill="#F1F1F1" height="46.2969" rx="2.5" ry="2.5" style="stroke:#181818;stroke-width:0.5;" width="88" x="3759" y="46"/><rect fill="#F1F1F1" height="10" style="stroke:#181818;stroke-width:0.5;" width="15" x="3827" y="51"/><rect fill="#F1F1F1" height="2" style="stroke:#181818;stroke-width:0.5;" width="4" x="3825" y="53"/><rect fill="#F1F1F1" height="2" style="stroke:#181818;stroke-width:0.5;" width="4" x="3825" y="57"/><text fill="#000000" font-family="sans-serif" font-size="14" lengthAdjust="spacing" textLength="48" x="3774" y="78.9951">aName</text></a></g><!--entity Placeholder_28--><g id="elem_Placeholder_28"><polygon fill="#F1F1F1" points="16,56,26,46,162,46,162,82.2969,152,92.2969,16,92.2969,16,56" style="stroke:#181818;stroke-width:0.5;"/><line style="stroke:#181818;stroke-width:0.5;" x1="152" x2="162" y1="56" y2="46"/><line style="stroke:#181818;stroke-width:0.5;" x1="16" x2="152" y1="56" y2="56"/><line style="stroke:#181818;stroke-width:0.5;" x1="152" x2="152" y1="56" y2="92.2969"/><text fill="#000000" font-family="sans-serif" font-size="14" lengthAdjust="spacing" textLength="106" x="31" y="78.9951">Placeholder_28</text></g><!--entity Placeholder_25--><g id="elem_Placeholder_25"><polygon fill="#F1F1F1" points="197,56,207,46,343,46,343,82.2969,333,92.2969,197,92.2969,197,56" style="stroke:#181818;stroke-width:0.5;"/><line style="stroke:#181818;stroke-width:0.5;" x1="333" x2="343" y1="56" y2="46"/><line style="stroke:#181818;stroke-width:0.5;" x1="197" x2="333" y1="56" y2="56"/><line style="stroke:#181818;stroke-width:0.5;" x1="333" x2="333" y1="56" y2="92.2969"/><text fill="#000000" font-family="sans-serif" font-size="14" lengthAdjust="spacing" textLength="106" x="212" y="78.9951">Placeholder_25</text></g><!--entity Placeholder_19--><g id="elem_Placeholder_19"><polygon fill="#F1F1F1" points="378,56,388,46,524,46,524,82.2969,514,92.2969,378,92.2969,378,56" style="stroke:#181818;stroke-width:0.5;"/><line style="stroke:#181818;stroke-width:0.5;" x1="514" x2="524" y1="56" y2="46"/><line style="stroke:#181818;stroke-width:0.5;" x1="378" x2="514" y1="56" y2="56"/><line style="stroke:#181818;stroke-width:0.5;" x1="514" x2="514" y1="56" y2="92.2969"/><text fill="#000000" font-family="sans-serif" font-size="14" lengthAdjust="spacing" textLength="106" x="393" y="78.9951">Placeholder_19</text></g><!--entity Placeholder_13--><g id="elem_Placeholder_13"><polygon fill="#F1F1F1" points="559,56,569,46,705,46,705,82.2969,695,92.2969,559,92.2969,559,56" style="stroke:#181818;stroke-width:0.5;"/><line style="stroke:#181818;stroke-width:0.5;" x1="695" x2="705" y1="56" y2="46"/><line style="stroke:#181818;stroke-width:0.5;" x1="559" x2="695" y1="56" y2="56"/><line style="stroke:#181818;stroke-width:0.5;" x1="695" x2="695" y1="56" y2="92.2969"/><text fill="#000000" font-family="sans-serif" font-size="14" lengthAdjust="spacing" textLength="106" x="574" y="78.9951">Placeholder_13</text></g><!--entity Placeholder_27--><g id="elem_Placeholder_27"><polygon fill="#F1F1F1" points="740,56,750,46,886,46,886,82.2969,876,92.2969,740,92.2969,740,56" style="stroke:#181818;stroke-width:0.5;"/><line style="stroke:#181818;stroke-width:0.5;" x1="876" x2="886" y1="56" y2="46"/><line style="stroke:#181818;stroke-width:0.5;" x1="740" x2="876" y1="56" y2="56"/><line style="stroke:#181818;stroke-width:0.5;" x1="876" x2="876" y1="56" y2="92.2969"/><text fill="#000000" font-family="sans-serif" font-size="14" lengthAdjust="spacing" textLength="106" x="755" y="78.9951">Placeholder_27</text></g><!--entity Placeholder_4--><g id="elem_Placeholder_4"><polygon fill="#F1F1F1" points="921.5,56,931.5,46,1058.5,46,1058.5,82.2969,1048.5,92.2969,921.5,92.2969,921.5,56" style="stroke:#181818;stroke-width:0.5;"/><line style="stroke:#181818;stroke-width:0.5;" x1="1048.5" x2="1058.5" y1="56" y2="46"/><line style="stroke:#181818;stroke-width:0.5;" x1="921.5" x2="1048.5" y1="56" y2="56"/><line style="stroke:#181818;stroke-width:0.5;" x1="1048.5" x2="1048.5" y1="56" y2="92.2969"/><text fill="#000000" font-family="sans-serif" font-size="14" lengthAdjust="spacing" textLength="97" x="936.5" y="78.9951">Placeholder_4</text></g><!--entity Placeholder_8--><g id="elem_Placeholder_8"><polygon fill="#F1F1F1" points="1093.5,56,1103.5,46,1230.5,46,1230.5,82.2969,1220.5,92.2969,1093.5,92.2969,1093.5,56" style="stroke:#181818;stroke-width:0.5;"/><line style="stroke:#181818;stroke-width:0.5;" x1="1220.5" x2="1230.5" y1="56" y2="46"/><line style="stroke:#181818;stroke-width:0.5;" x1="1093.5" x2="1220.5" y1="56" y2="56"/><line style="stroke:#181818;stroke-width:0.5;" x1="1220.5" x2="1220.5" y1="56" y2="92.2969"/><text fill="#000000" font-family="sans-serif" font-size="14" lengthAdjust="spacing" textLength="97" x="1108.5" y="78.9951">Placeholder_8</text></g><!--entity Placeholder_7--><g id="elem_Placeholder_7"><polygon fill="#F1F1F1" points="1265.5,56,1275.5,46,1402.5,46,1402.5,82.2969,1392.5,92.2969,1265.5,92.2969,1265.5,56" style="stroke:#181818;stroke-width:0.5;"/><line style="stroke:#181818;stroke-width:0.5;" x1="1392.5" x2="1402.5" y1="56" y2="46"/><line style="stroke:#181818;stroke-width:0.5;" x1="1265.5" x2="1392.5" y1="56" y2="56"/><line style="stroke:#181818;stroke-width:0.5;" x1="1392.5" x2="1392.5" y1="56" y2="92.2969"/><text fill="#000000" font-family="sans-serif" font-size="14" lengthAdjust="spacing" textLength="97" x="1280.5" y="78.9951">Placeholder_7</text></g><!--entity Placeholder_26--><g id="elem_Placeholder_26"><polygon fill="#F1F1F1" points="1438,56,1448,46,1584,46,1584,82.2969,1574,92.2969,1438,92.2969,1438,56" style="stroke:#181818;stroke-width:0.5;"/><line style="stroke:#181818;stroke-width:0.5;" x1="1574" x2="1584" y1="56" y2="46"/><line style="stroke:#181818;stroke-width:0.5;" x1="1438" x2="1574" y1="56" y2="56"/><line style="stroke:#181818;stroke-width:0.5;" x1="1574" x2="1574" y1="56" y2="92.2969"/><text fill="#000000" font-family="sans-serif" font-size="14" lengthAdjust="spacing" textLength="106" x="1453" y="78.9951">Placeholder_26</text></g><!--entity Placeholder_22--><g id="elem_Placeholder_22"><polygon fill="#F1F1F1" points="1619,56,1629,46,1765,46,1765,82.2969,1755,92.2969,1619,92.2969,1619,56" style="stroke:#181818;stroke-width:0.5;"/><line style="stroke:#181818;stroke-width:0.5;" x1="1755" x2="1765" y1="56" y2="46"/><line style="stroke:#181818;stroke-width:0.5;" x1="1619" x2="1755" y1="56" y2="56"/><line style="stroke:#181818;stroke-width:0.5;" x1="1755" x2="1755" y1="56" y2="92.2969"/><text fill="#000000" font-family="sans-serif" font-size="14" lengthAdjust="spacing" textLength="106" x="1634" y="78.9951">Placeholder_22</text></g><!--entity Placeholder_14--><g id="elem_Placeholder_14"><polygon fill="#F1F1F1" points="1800,56,1810,46,1946,46,1946,82.2969,1936,92.2969,1800,92.2969,1800,56" style="stroke:#181818;stroke-width:0.5;"/><line style="stroke:#181818;stroke-width:0.5;" x1="1936" x2="1946" y1="56" y2="46"/><line style="stroke:#181818;stroke-width:0.5;" x1="1800" x2="1936" y1="56" y2="56"/><line style="stroke:#181818;stroke-width:0.5;" x1="1936" x2="1936" y1="56" y2="92.2969"/><text fill="#000000" font-family="sans-serif" font-size="14" lengthAdjust="spacing" textLength="106" x="1815" y="78.9951">Placeholder_14</text></g><!--entity Placeholder_23--><g id="elem_Placeholder_23"><polygon fill="#F1F1F1" points="1981,56,1991,46,2127,46,2127,82.2969,2117,92.2969,1981,92.2969,1981,56" style="stroke:#181818;stroke-width:0.5;"/><line style="stroke:#181818;stroke-width:0.5;" x1="2117" x2="2127" y1="56" y2="46"/><line style="stroke:#181818;stroke-width:0.5;" x1="1981" x2="2117" y1="56" y2="56"/><line style="stroke:#181818;stroke-width:0.5;" x1="2117" x2="2117" y1="56" y2="92.2969"/><text fill="#000000" font-family="sans-serif" font-size="14" lengthAdjust="spacing" textLength="106" x="1996" y="78.9951">Placeholder_23</text></g><!--entity Placeholder_5--><g id="elem_Placeholder_5"><polygon fill="#F1F1F1" points="2162.5,56,2172.5,46,2299.5,46,2299.5,82.2969,2289.5,92.2969,2162.5,92.2969,2162.5,56" style="stroke:#181818;stroke-width:0.5;"/><line style="stroke:#181818;stroke-width:0.5;" x1="2289.5" x2="2299.5" y1="56" y2="46"/><line style="stroke:#181818;stroke-width:0.5;" x1="2162.5" x2="2289.5" y1="56" y2="56"/><line style="stroke:#181818;stroke-width:0.5;" x1="2289.5" x2="2289.5" y1="56" y2="92.2969"/><text fill="#000000" font-family="sans-serif" font-size="14" lengthAdjust="spacing" textLength="97" x="2177.5" y="78.9951">Placeholder_5</text></g><!--entity Placeholder_16--><g id="elem_Placeholder_16"><polygon fill="#F1F1F1" points="2335,56,2345,46,2481,46,2481,82.2969,2471,92.2969,2335,92.2969,2335,56" style="stroke:#181818;stroke-width:0.5;"/><line style="stroke:#181818;stroke-width:0.5;" x1="2471" x2="2481" y1="56" y2="46"/><line style="stroke:#181818;stroke-width:0.5;" x1="2335" x2="2471" y1="56" y2="56"/><line style="stroke:#181818;stroke-width:0.5;" x1="2471" x2="2471" y1="56" y2="92.2969"/><text fill="#000000" font-family="sans-serif" font-size="14" lengthAdjust="spacing" textLength="106" x="2350" y="78.9951">Placeholder_16</text></g><!--entity Placeholder_3--><g id="elem_Placeholder_3"><polygon fill="#F1F1F1" points="2516.5,56,2526.5,46,2653.5,46,2653.5,82.2969,2643.5,92.2969,2516.5,92.2969,2516.5,56" style="stroke:#181818;stroke-width:0.5;"/><line style="stroke:#181818;stroke-width:0.5;" x1="2643.5" x2="2653.5" y1="56" y2="46"/><line style="stroke:#181818;stroke-width:0.5;" x1="2516.5" x2="2643.5" y1="56" y2="56"/><line style="stroke:#181818;stroke-width:0.5;" x1="2643.5" x2="2643.5" y1="56" y2="92.2969"/><text fill="#000000" font-family="sans-serif" font-size="14" lengthAdjust="spacing" textLength="97" x="2531.5" y="78.9951">Placeholder_3</text></g><!--entity Placeholder_12--><g id="elem_Placeholder_12"><polygon fill="#F1F1F1" points="2689,56,2699,46,2835,46,2835,82.2969,2825,92.2969,2689,92.2969,2689,56" style="stroke:#181818;stroke-width:0.5;"/><line style="stroke:#181818;stroke-width:0.5;" x1="2825" x2="2835" y1="56" y2="46"/><line style="stroke:#181818;stroke-width:0.5;" x1="2689" x2="2825" y1="56" y2="56"/><line style="stroke:#181818;stroke-width:0.5;" x1="2825" x2="2825" y1="56" y2="92.2969"/><text fill="#000000" font-family="sans-serif" font-size="14" lengthAdjust="spacing" textLength="106" x="2704" y="78.9951">Placeholder_12</text></g><!--entity Placeholder_10--><g id="elem_Placeholder_10"><polygon fill="#F1F1F1" points="2870,56,2880,46,3016,46,3016,82.2969,3006,92.2969,2870,92.2969,2870,56" style="stroke:#181818;stroke-width:0.5;"/><line style="stroke:#181818;stroke-width:0.5;" x1="3006" x2="3016" y1="56" y2="46"/><line style="stroke:#181818;stroke-width:0.5;" x1="2870" x2="3006" y1="56" y2="56"/><line style="stroke:#181818;stroke-width:0.5;" x1="3006" x2="3006" y1="56" y2="92.2969"/><text fill="#000000" font-family="sans-serif" font-size="14" lengthAdjust="spacing" textLength="106" x="2885" y="78.9951">Placeholder_10</text></g><!--entity Placeholder_2--><g id="elem_Placeholder_2"><polygon fill="#F1F1F1" points="3051.5,56,3061.5,46,3188.5,46,3188.5,82.2969,3178.5,92.2969,3051.5,92.2969,3051.5,56" style="stroke:#181818;stroke-width:0.5;"/><line style="stroke:#181818;stroke-width:0.5;" x1="3178.5" x2="3188.5" y1="56" y2="46"/><line style="stroke:#181818;stroke-width:0.5;" x1="3051.5" x2="3178.5" y1="56" y2="56"/><line style="stroke:#181818;stroke-width:0.5;" x1="3178.5" x2="3178.5" y1="56" y2="92.2969"/><text fill="#000000" font-family="sans-serif" font-size="14" lengthAdjust="spacing" textLength="97" x="3066.5" y="78.9951">Placeholder_2</text></g><!--entity Placeholder_24--><g id="elem_Placeholder_24"><polygon fill="#F1F1F1" points="3224,56,3234,46,3370,46,3370,82.2969,3360,92.2969,3224,92.2969,3224,56" style="stroke:#181818;stroke-width:0.5;"/><line style="stroke:#181818;stroke-width:0.5;" x1="3360" x2="3370" y1="56" y2="46"/><line style="stroke:#181818;stroke-width:0.5;" x1="3224" x2="3360" y1="56" y2="56"/><line style="stroke:#181818;stroke-width:0.5;" x1="3360" x2="3360" y1="56" y2="92.2969"/><text fill="#000000" font-family="sans-serif" font-size="14" lengthAdjust="spacing" textLength="106" x="3239" y="78.9951">Placeholder_24</text></g><!--entity Placeholder_6--><g id="elem_Placeholder_6"><polygon fill="#F1F1F1" points="3405.5,56,3415.5,46,3542.5,46,3542.5,82.2969,3532.5,92.2969,3405.5,92.2969,3405.5,56" style="stroke:#181818;stroke-width:0.5;"/><line style="stroke:#181818;stroke-width:0.5;" x1="3532.5" x2="3542.5" y1="56" y2="46"/><line style="stroke:#181818;stroke-width:0.5;" x1="3405.5" x2="3532.5" y1="56" y2="56"/><line style="stroke:#181818;stroke-width:0.5;" x1="3532.5" x2="3532.5" y1="56" y2="92.2969"/><text fill="#000000" font-family="sans-serif" font-size="14" lengthAdjust="spacing" textLength="97" x="3420.5" y="78.9951">Placeholder_6</text></g><!--entity Placeholder_29--><g id="elem_Placeholder_29"><polygon fill="#F1F1F1" points="3578,56,3588,46,3724,46,3724,82.2969,3714,92.2969,3578,92.2969,3578,56" style="stroke:#181818;stroke-width:0.5;"/><line style="stroke:#181818;stroke-width:0.5;" x1="3714" x2="3724" y1="56" y2="46"/><line style="stroke:#181818;stroke-width:0.5;" x1="3578" x2="3714" y1="56" y2="56"/><line style="stroke:#181818;stroke-width:0.5;" x1="3714" x2="3714" y1="56" y2="92.2969"/><text fill="#000000" font-family="sans-serif" font-size="14" lengthAdjust="spacing" textLength="106" x="3593" y="78.9951">Placeholder_29</text></g><!--link aName to aName--><g id="link_aName_aName"><path d="M3847.27,67.52 C3866.02,67.4 3882,67.9 3882,69 C3882,70.1 3866.02,70.6 3847.27,70.48 " fill="none" id="aName-aName" style="stroke:#181818;stroke-width:1.0;"/><text fill="#000000" font-family="sans-serif" font-size="13" lengthAdjust="spacing" textLength="459" x="3895" y="73.5669">edu_kit_recipe_recipebackend_repository_CustomerRepository_Provider</text><path d="M3840.1538,60.4943 A10,10 0 0 0 3840.2443 74.6362" fill="none" style="stroke:#181818;stroke-width:1.5;"/><ellipse cx="3847.27" cy="67.52" fill="#FFFFFF" rx="6" ry="6" style="stroke:#181818;stroke-width:1.5;"/></g><!--link aName to aName--><g id="link_aName_aName"><path d="M3847.46,67.51 C3982.94,65.08 4367,65.58 4367,69 C4367,72.42 3982.94,72.92 3847.46,70.49 " fill="none" id="aName-aName-1" style="stroke:#181818;stroke-width:1.0;"/><text fill="#000000" font-family="sans-serif" font-size="13" lengthAdjust="spacing" textLength="436" x="4380" y="73.5669">edu_kit_recipe_recipebackend_repository_ImageRepository_Provider</text><path d="M3840.2633,60.5669 A10,10 0 0 0 3840.5169 74.7067" fill="none" style="stroke:#181818;stroke-width:1.5;"/><ellipse cx="3847.46" cy="67.51" fill="#FFFFFF" rx="6" ry="6" style="stroke:#181818;stroke-width:1.5;"/></g><!--link aName to aName--><g id="link_aName_aName"><path d="M3847.08,67.31 C4046.9,63.07 4829,63.63 4829,69 C4829,74.37 4046.9,74.93 3847.08,70.69 " fill="none" id="aName-aName-2" style="stroke:#181818;stroke-width:1.0;"/><text fill="#000000" font-family="sans-serif" font-size="13" lengthAdjust="spacing" textLength="436" x="4842" y="73.5669">edu_kit_recipe_recipebackend_repository_ImageRepository_Provider</text><path d="M3839.8605,60.3905 A10,10 0 0 0 3840.1605 74.5295" fill="none" style="stroke:#181818;stroke-width:1.5;"/><ellipse cx="3847.08" cy="67.31" fill="#FFFFFF" rx="6" ry="6" style="stroke:#181818;stroke-width:1.5;"/></g><!--link aName to aName--><g id="link_aName_aName"><path d="M3847.29,67.11 C4099.01,61.06 5291,61.69 5291,69 C5291,76.31 4099.01,76.94 3847.29,70.89 " fill="none" id="aName-aName-3" style="stroke:#181818;stroke-width:1.0;"/><text fill="#000000" font-family="sans-serif" font-size="13" lengthAdjust="spacing" textLength="460" x="5304" y="73.5669">edu_kit_recipe_recipebackend_repository_IngredientRepository_Provider</text><path d="M3840.0511,60.2109 A10,10 0 0 0 3840.3909 74.3489" fill="none" style="stroke:#181818;stroke-width:1.5;"/><ellipse cx="3847.29" cy="67.11" fill="#FFFFFF" rx="6" ry="6" style="stroke:#181818;stroke-width:1.5;"/></g><!--link aName to aName--><g id="link_aName_aName"><path d="M3847.46,66.95 C4145.99,59.05 5777,59.74 5777,69 C5777,78.26 4145.99,78.95 3847.46,71.05 " fill="none" id="aName-aName-4" style="stroke:#181818;stroke-width:1.0;"/><text fill="#000000" font-family="sans-serif" font-size="13" lengthAdjust="spacing" textLength="438" x="5790" y="73.5669">edu_kit_recipe_recipebackend_repository_RecipeRepository_Provider</text><path d="M3840.2044,60.0685 A10,10 0 0 0 3840.5785 74.2056" fill="none" style="stroke:#181818;stroke-width:1.5;"/><ellipse cx="3847.46" cy="66.95" fill="#FFFFFF" rx="6" ry="6" style="stroke:#181818;stroke-width:1.5;"/></g><!--link aName to aName--><g id="link_aName_aName"><path d="M3847.2,66.81 C4184.47,57.05 6241,57.78 6241,69 C6241,80.22 4184.47,80.95 3847.2,71.19 " fill="none" id="aName-aName-5" style="stroke:#181818;stroke-width:1.0;"/><text fill="#000000" font-family="sans-serif" font-size="13" lengthAdjust="spacing" textLength="438" x="6254" y="73.5669">edu_kit_recipe_recipebackend_repository_RecipeRepository_Provider</text><path d="M3839.9274,59.9464 A10,10 0 0 0 3840.3364 74.0826" fill="none" style="stroke:#181818;stroke-width:1.5;"/><ellipse cx="3847.2" cy="66.81" fill="#FFFFFF" rx="6" ry="6" style="stroke:#181818;stroke-width:1.5;"/></g><!--link aName to aName--><g id="link_aName_aName"><path d="M3847.02,66.67 C4219.78,55.05 6705,55.82 6705,69 C6705,82.18 4219.78,82.95 3847.02,71.33 " fill="none" id="aName-aName-6" style="stroke:#181818;stroke-width:1.0;"/><text fill="#000000" font-family="sans-serif" font-size="13" lengthAdjust="spacing" textLength="438" x="6718" y="73.5669">edu_kit_recipe_recipebackend_repository_RecipeRepository_Provider</text><path d="M3839.732,59.8227 A10,10 0 0 0 3840.1727 73.958" fill="none" style="stroke:#181818;stroke-width:1.5;"/><ellipse cx="3847.02" cy="66.67" fill="#FFFFFF" rx="6" ry="6" style="stroke:#181818;stroke-width:1.5;"/></g><!--link aName to aName--><g id="link_aName_aName"><path d="M3847.3,66.54 C4254.59,53.05 7169,53.87 7169,69 C7169,84.13 4254.59,84.95 3847.3,71.46 " fill="none" id="aName-aName-7" style="stroke:#181818;stroke-width:1.0;"/><text fill="#000000" font-family="sans-serif" font-size="13" lengthAdjust="spacing" textLength="422" x="7182" y="73.5669">edu_kit_recipe_recipebackend_repository_UnitRepository_Provider</text><path d="M3839.9987,59.7069 A10,10 0 0 0 3840.4669 73.8413" fill="none" style="stroke:#181818;stroke-width:1.5;"/><ellipse cx="3847.3" cy="66.54" fill="#FFFFFF" rx="6" ry="6" style="stroke:#181818;stroke-width:1.5;"/></g><!--link aName to aName--><g id="link_aName_aName"><path d="M3847.26,66.42 C4284.92,51.05 7617,51.91 7617,69 C7617,86.09 4284.92,86.95 3847.26,71.58 " fill="none" id="aName-aName-8" style="stroke:#181818;stroke-width:1.0;"/><text fill="#000000" font-family="sans-serif" font-size="13" lengthAdjust="spacing" textLength="447" x="7630" y="73.5669">edu_kit_recipe_recipebackend_repository_tag_TagRepository_Provider</text><path d="M3839.9451,59.6015 A10,10 0 0 0 3840.4415 73.7349" fill="none" style="stroke:#181818;stroke-width:1.5;"/><ellipse cx="3847.26" cy="66.42" fill="#FFFFFF" rx="6" ry="6" style="stroke:#181818;stroke-width:1.5;"/></g><!--link aName to aName--><g id="link_aName_aName"><path d="M3847.15,66.32 C4314.8,49.04 8090,49.94 8090,69 C8090,88.06 4314.8,88.96 3847.15,71.68 " fill="none" id="aName-aName-9" style="stroke:#181818;stroke-width:1.0;"/><text fill="#000000" font-family="sans-serif" font-size="13" lengthAdjust="spacing" textLength="447" x="8103" y="73.5669">edu_kit_recipe_recipebackend_repository_tag_TagRepository_Provider</text><path d="M3839.8227,59.5149 A10,10 0 0 0 3840.3449 73.6473" fill="none" style="stroke:#181818;stroke-width:1.5;"/><ellipse cx="3847.15" cy="66.32" fill="#FFFFFF" rx="6" ry="6" style="stroke:#181818;stroke-width:1.5;"/></g><!--SRC=[xPLDIyGm48Rl_HK1BrugRQtruxOkUn1sTLbNBwM4sMQsXhP9JDEkHVpl5dKHyQXJ4Bnb4lAyoJipILDAPS12pRRoQIfjNk4SDbZTT6WhC4QgWZdRegUqGBQi8CS7NGcqF3nXpruArr1ZnjAqbCwtc4k3_h3jOxY1l4Gb5EwEchvnM1_mO79_cSntyGoJVh68Pzl7ssuzoJBlvRj4T4OlGN-By9nUufZUg5DoYPXSWRwUw5sA4dg9YBvYwPCTqJV528y7VRRfRGf7gAU0lfxe5UYROeJ7uzU_kptCFmnyjWyk68gM3tJ-ZkHVo4DaT2ETjZsVjetJDThLvzJIwauEX_qf-gg60lyILnKMXKJb2E2hjuL_yC2vKvB2OGS5NqCnBlaL]--></g></svg>