<?xml version="1.0" encoding="us-ascii" standalone="no"?><svg xmlns="http://www.w3.org/2000/svg" xmlns:xlink="http://www.w3.org/1999/xlink" contentStyleType="text/css" height="399px" preserveAspectRatio="none" style="width:3105px;height:399px;background:#FFFFFF;" version="1.1" viewBox="0 0 3105 399" width="3105px" zoomAndPan="magnify"><defs/><g><!--cluster nodecom_example--><g id="cluster_nodecom_example"><polygon fill="none" points="2137,109.29,2147,99.29,3088,99.29,3088,364.29,3078,374.29,2137,374.29,2137,109.29" style="stroke:#181818;stroke-width:1.0;"/><line style="stroke:#181818;stroke-width:1.0;" x1="3078" x2="3088" y1="109.29" y2="99.29"/><line style="stroke:#181818;stroke-width:1.0;" x1="2137" x2="3078" y1="109.29" y2="109.29"/><line style="stroke:#181818;stroke-width:1.0;" x1="3078" x2="3078" y1="109.29" y2="374.29"/><text fill="#000000" font-family="sans-serif" font-size="14" font-weight="bold" lengthAdjust="spacing" textLength="146" x="2535.5" y="125.2851">nodecom_example</text></g><!--cluster com_example--><g id="cluster_com_example"><rect fill="none" height="203" rx="2.5" ry="2.5" style="stroke:#181818;stroke-width:1.0;" width="903" x="2161" y="147.29"/><rect fill="none" height="10" style="stroke:#181818;stroke-width:1.0;" width="15" x="3044" y="152.29"/><rect fill="none" height="2" style="stroke:#181818;stroke-width:1.0;" width="4" x="3042" y="154.29"/><rect fill="none" height="2" style="stroke:#181818;stroke-width:1.0;" width="4" x="3042" y="158.29"/><text fill="#000000" font-family="sans-serif" font-size="14" font-weight="bold" lengthAdjust="spacing" textLength="106" x="2559.5" y="173.2851">com_example</text></g><!--cluster nodecom_example_2--><g id="cluster_nodecom_example_2"><polygon fill="none" points="532,101.29,542,91.29,1323,91.29,1323,372.29,1313,382.29,532,382.29,532,101.29" style="stroke:#181818;stroke-width:1.0;"/><line style="stroke:#181818;stroke-width:1.0;" x1="1313" x2="1323" y1="101.29" y2="91.29"/><line style="stroke:#181818;stroke-width:1.0;" x1="532" x2="1313" y1="101.29" y2="101.29"/><line style="stroke:#181818;stroke-width:1.0;" x1="1313" x2="1313" y1="101.29" y2="382.29"/><text fill="#000000" font-family="sans-serif" font-size="14" font-weight="bold" lengthAdjust="spacing" textLength="163" x="842" y="117.2851">nodecom_example_2</text></g><!--cluster com_example_2--><g id="cluster_com_example_2"><rect fill="none" height="203" rx="2.5" ry="2.5" style="stroke:#181818;stroke-width:1.0;" width="719" x="572" y="147.29"/><rect fill="none" height="10" style="stroke:#181818;stroke-width:1.0;" width="15" x="1271" y="152.29"/><rect fill="none" height="2" style="stroke:#181818;stroke-width:1.0;" width="4" x="1269" y="154.29"/><rect fill="none" height="2" style="stroke:#181818;stroke-width:1.0;" width="4" x="1269" y="158.29"/><text fill="#000000" font-family="sans-serif" font-size="14" font-weight="bold" lengthAdjust="spacing" textLength="123" x="870" y="173.2851">com_example_2</text></g><!--cluster nodecom_example_service_RestTemplate_Provider--><g id="cluster_nodecom_example_service_RestTemplate_Provider"><polygon fill="none" points="16,144.29,26,134.29,492,134.29,492,242.29,482,252.29,16,252.29,16,144.29" style="stroke:#181818;stroke-width:1.0;"/><line style="stroke:#181818;stroke-width:1.0;" x1="482" x2="492" y1="144.29" y2="134.29"/><line style="stroke:#181818;stroke-width:1.0;" x1="16" x2="482" y1="144.29" y2="144.29"/><line style="stroke:#181818;stroke-width:1.0;" x1="482" x2="482" y1="144.29" y2="252.29"/><text fill="#000000" font-family="sans-serif" font-size="14" font-weight="bold" lengthAdjust="spacing" textLength="400" x="50" y="160.2851">nodecom_example_service_RestTemplate_Provider</text></g><!--cluster nodeuser_service_newuser_Provider--><g id="cluster_nodeuser_service_newuser_Provider"><polygon fill="none" points="1363,144.29,1373,134.29,1731,134.29,1731,242.29,1721,252.29,1363,252.29,1363,144.29" style="stroke:#181818;stroke-width:1.0;"/><line style="stroke:#181818;stroke-width:1.0;" x1="1721" x2="1731" y1="144.29" y2="134.29"/><line style="stroke:#181818;stroke-width:1.0;" x1="1363" x2="1721" y1="144.29" y2="144.29"/><line style="stroke:#181818;stroke-width:1.0;" x1="1721" x2="1721" y1="144.29" y2="252.29"/><text fill="#000000" font-family="sans-serif" font-size="14" font-weight="bold" lengthAdjust="spacing" textLength="292" x="1397" y="160.2851">nodeuser_service_newuser_Provider</text></g><!--cluster nodeuser_service_user_Provider--><g id="cluster_nodeuser_service_user_Provider"><polygon fill="none" points="1771,144.29,1781,134.29,2105,134.29,2105,242.29,2095,252.29,1771,252.29,1771,144.29" style="stroke:#181818;stroke-width:1.0;"/><line style="stroke:#181818;stroke-width:1.0;" x1="2095" x2="2105" y1="144.29" y2="134.29"/><line style="stroke:#181818;stroke-width:1.0;" x1="1771" x2="2095" y1="144.29" y2="144.29"/><line style="stroke:#181818;stroke-width:1.0;" x1="2095" x2="2095" y1="144.29" y2="252.29"/><text fill="#000000" font-family="sans-serif" font-size="14" font-weight="bold" lengthAdjust="spacing" textLength="258" x="1805" y="160.2851">nodeuser_service_user_Provider</text></g><!--entity com_example_MovieController--><g id="elem_com_example_MovieController"><a href="mdeket-spring-cloud-movie-recommendation.system#_AwF9t2kPEe-PpNS-_CU2Aw" target="_top" title="mdeket-spring-cloud-movie-recommendation.system#_AwF9t2kPEe-PpNS-_CU2Aw" xlink:actuate="onRequest" xlink:href="mdeket-spring-cloud-movie-recommendation.system#_AwF9t2kPEe-PpNS-_CU2Aw" xlink:show="new" xlink:title="mdeket-spring-cloud-movie-recommendation.system#_AwF9t2kPEe-PpNS-_CU2Aw" xlink:type="simple"><rect fill="#F1F1F1" height="46.2969" rx="2.5" ry="2.5" style="stroke:#181818;stroke-width:0.5;" width="249" x="2177.5" y="182.29"/><rect fill="#F1F1F1" height="10" style="stroke:#181818;stroke-width:0.5;" width="15" x="2406.5" y="187.29"/><rect fill="#F1F1F1" height="2" style="stroke:#181818;stroke-width:0.5;" width="4" x="2404.5" y="189.29"/><rect fill="#F1F1F1" height="2" style="stroke:#181818;stroke-width:0.5;" width="4" x="2404.5" y="193.29"/><text fill="#000000" font-family="sans-serif" font-size="14" lengthAdjust="spacing" textLength="209" x="2192.5" y="215.2851">com_example_MovieController</text></a></g><!--entity com_example_MovieRepo--><g id="elem_com_example_MovieRepo"><a href="mdeket-spring-cloud-movie-recommendation.system#_AwF9t2kPEe-PpNS-_CU2Aw" target="_top" title="mdeket-spring-cloud-movie-recommendation.system#_AwF9t2kPEe-PpNS-_CU2Aw" xlink:actuate="onRequest" xlink:href="mdeket-spring-cloud-movie-recommendation.system#_AwF9t2kPEe-PpNS-_CU2Aw" xlink:show="new" xlink:title="mdeket-spring-cloud-movie-recommendation.system#_AwF9t2kPEe-PpNS-_CU2Aw" xlink:type="simple"><rect fill="#F1F1F1" height="46.2969" rx="2.5" ry="2.5" style="stroke:#181818;stroke-width:0.5;" width="219" x="2461.5" y="182.29"/><rect fill="#F1F1F1" height="10" style="stroke:#181818;stroke-width:0.5;" width="15" x="2660.5" y="187.29"/><rect fill="#F1F1F1" height="2" style="stroke:#181818;stroke-width:0.5;" width="4" x="2658.5" y="189.29"/><rect fill="#F1F1F1" height="2" style="stroke:#181818;stroke-width:0.5;" width="4" x="2658.5" y="193.29"/><text fill="#000000" font-family="sans-serif" font-size="14" lengthAdjust="spacing" textLength="179" x="2476.5" y="215.2851">com_example_MovieRepo</text></a></g><!--entity com_example_RecommendationController--><g id="elem_com_example_RecommendationController"><a href="mdeket-spring-cloud-movie-recommendation.system#_AwF9t2kPEe-PpNS-_CU2Aw" target="_top" title="mdeket-spring-cloud-movie-recommendation.system#_AwF9t2kPEe-PpNS-_CU2Aw" xlink:actuate="onRequest" xlink:href="mdeket-spring-cloud-movie-recommendation.system#_AwF9t2kPEe-PpNS-_CU2Aw" xlink:show="new" xlink:title="mdeket-spring-cloud-movie-recommendation.system#_AwF9t2kPEe-PpNS-_CU2Aw" xlink:type="simple"><rect fill="#F1F1F1" height="46.2969" rx="2.5" ry="2.5" style="stroke:#181818;stroke-width:0.5;" width="332" x="2716" y="182.29"/><rect fill="#F1F1F1" height="10" style="stroke:#181818;stroke-width:0.5;" width="15" x="3028" y="187.29"/><rect fill="#F1F1F1" height="2" style="stroke:#181818;stroke-width:0.5;" width="4" x="3026" y="189.29"/><rect fill="#F1F1F1" height="2" style="stroke:#181818;stroke-width:0.5;" width="4" x="3026" y="193.29"/><text fill="#000000" font-family="sans-serif" font-size="14" lengthAdjust="spacing" textLength="292" x="2731" y="215.2851">com_example_RecommendationController</text></a></g><!--entity com_example_UserController--><g id="elem_com_example_UserController"><a href="mdeket-spring-cloud-movie-recommendation.system#_AwF9t2kPEe-PpNS-_CU2Aw" target="_top" title="mdeket-spring-cloud-movie-recommendation.system#_AwF9t2kPEe-PpNS-_CU2Aw" xlink:actuate="onRequest" xlink:href="mdeket-spring-cloud-movie-recommendation.system#_AwF9t2kPEe-PpNS-_CU2Aw" xlink:show="new" xlink:title="mdeket-spring-cloud-movie-recommendation.system#_AwF9t2kPEe-PpNS-_CU2Aw" xlink:type="simple"><rect fill="#F1F1F1" height="46.2969" rx="2.5" ry="2.5" style="stroke:#181818;stroke-width:0.5;" width="241" x="2181.5" y="288.29"/><rect fill="#F1F1F1" height="10" style="stroke:#181818;stroke-width:0.5;" width="15" x="2402.5" y="293.29"/><rect fill="#F1F1F1" height="2" style="stroke:#181818;stroke-width:0.5;" width="4" x="2400.5" y="295.29"/><rect fill="#F1F1F1" height="2" style="stroke:#181818;stroke-width:0.5;" width="4" x="2400.5" y="299.29"/><text fill="#000000" font-family="sans-serif" font-size="14" lengthAdjust="spacing" textLength="201" x="2196.5" y="321.2851">com_example_UserController</text></a></g><!--entity com_example_UserRepo--><g id="elem_com_example_UserRepo"><a href="mdeket-spring-cloud-movie-recommendation.system#_AwF9t2kPEe-PpNS-_CU2Aw" target="_top" title="mdeket-spring-cloud-movie-recommendation.system#_AwF9t2kPEe-PpNS-_CU2Aw" xlink:actuate="onRequest" xlink:href="mdeket-spring-cloud-movie-recommendation.system#_AwF9t2kPEe-PpNS-_CU2Aw" xlink:show="new" xlink:title="mdeket-spring-cloud-movie-recommendation.system#_AwF9t2kPEe-PpNS-_CU2Aw" xlink:type="simple"><rect fill="#F1F1F1" height="46.2969" rx="2.5" ry="2.5" style="stroke:#181818;stroke-width:0.5;" width="211" x="2457.5" y="288.29"/><rect fill="#F1F1F1" height="10" style="stroke:#181818;stroke-width:0.5;" width="15" x="2648.5" y="293.29"/><rect fill="#F1F1F1" height="2" style="stroke:#181818;stroke-width:0.5;" width="4" x="2646.5" y="295.29"/><rect fill="#F1F1F1" height="2" style="stroke:#181818;stroke-width:0.5;" width="4" x="2646.5" y="299.29"/><text fill="#000000" font-family="sans-serif" font-size="14" lengthAdjust="spacing" textLength="171" x="2472.5" y="321.2851">com_example_UserRepo</text></a></g><!--entity com_example_MainController--><g id="elem_com_example_MainController"><a href="mdeket-spring-cloud-movie-recommendation.system#_AwF9t2kPEe-PpNS-_CU2Aw" target="_top" title="mdeket-spring-cloud-movie-recommendation.system#_AwF9t2kPEe-PpNS-_CU2Aw" xlink:actuate="onRequest" xlink:href="mdeket-spring-cloud-movie-recommendation.system#_AwF9t2kPEe-PpNS-_CU2Aw" xlink:show="new" xlink:title="mdeket-spring-cloud-movie-recommendation.system#_AwF9t2kPEe-PpNS-_CU2Aw" xlink:type="simple"><rect fill="#F1F1F1" height="46.2969" rx="2.5" ry="2.5" style="stroke:#181818;stroke-width:0.5;" width="241" x="588.5" y="182.29"/><rect fill="#F1F1F1" height="10" style="stroke:#181818;stroke-width:0.5;" width="15" x="809.5" y="187.29"/><rect fill="#F1F1F1" height="2" style="stroke:#181818;stroke-width:0.5;" width="4" x="807.5" y="189.29"/><rect fill="#F1F1F1" height="2" style="stroke:#181818;stroke-width:0.5;" width="4" x="807.5" y="193.29"/><text fill="#000000" font-family="sans-serif" font-size="14" lengthAdjust="spacing" textLength="201" x="603.5" y="215.2851">com_example_MainController</text></a></g><!--entity com_example_service_RecommendationClientService--><g id="elem_com_example_service_RecommendationClientService"><a href="mdeket-spring-cloud-movie-recommendation.system#_AwF9t2kPEe-PpNS-_CU2Aw" target="_top" title="mdeket-spring-cloud-movie-recommendation.system#_AwF9t2kPEe-PpNS-_CU2Aw" xlink:actuate="onRequest" xlink:href="mdeket-spring-cloud-movie-recommendation.system#_AwF9t2kPEe-PpNS-_CU2Aw" xlink:show="new" xlink:title="mdeket-spring-cloud-movie-recommendation.system#_AwF9t2kPEe-PpNS-_CU2Aw" xlink:type="simple"><rect fill="#F1F1F1" height="46.2969" rx="2.5" ry="2.5" style="stroke:#181818;stroke-width:0.5;" width="410" x="865" y="182.29"/><rect fill="#F1F1F1" height="10" style="stroke:#181818;stroke-width:0.5;" width="15" x="1255" y="187.29"/><rect fill="#F1F1F1" height="2" style="stroke:#181818;stroke-width:0.5;" width="4" x="1253" y="189.29"/><rect fill="#F1F1F1" height="2" style="stroke:#181818;stroke-width:0.5;" width="4" x="1253" y="193.29"/><text fill="#000000" font-family="sans-serif" font-size="14" lengthAdjust="spacing" textLength="370" x="880" y="215.2851">com_example_service_RecommendationClientService</text></a></g><!--entity com_example_service_UserService--><g id="elem_com_example_service_UserService"><a href="mdeket-spring-cloud-movie-recommendation.system#_AwF9t2kPEe-PpNS-_CU2Aw" target="_top" title="mdeket-spring-cloud-movie-recommendation.system#_AwF9t2kPEe-PpNS-_CU2Aw" xlink:actuate="onRequest" xlink:href="mdeket-spring-cloud-movie-recommendation.system#_AwF9t2kPEe-PpNS-_CU2Aw" xlink:show="new" xlink:title="mdeket-spring-cloud-movie-recommendation.system#_AwF9t2kPEe-PpNS-_CU2Aw" xlink:type="simple"><rect fill="#F1F1F1" height="46.2969" rx="2.5" ry="2.5" style="stroke:#181818;stroke-width:0.5;" width="280" x="588" y="288.29"/><rect fill="#F1F1F1" height="10" style="stroke:#181818;stroke-width:0.5;" width="15" x="848" y="293.29"/><rect fill="#F1F1F1" height="2" style="stroke:#181818;stroke-width:0.5;" width="4" x="846" y="295.29"/><rect fill="#F1F1F1" height="2" style="stroke:#181818;stroke-width:0.5;" width="4" x="846" y="299.29"/><text fill="#000000" font-family="sans-serif" font-size="14" lengthAdjust="spacing" textLength="240" x="603" y="321.2851">com_example_service_UserService</text></a></g><!--entity com_example_service_RestTemplate_Provider--><g id="elem_com_example_service_RestTemplate_Provider"><a href="mdeket-spring-cloud-movie-recommendation.system#_AwF9t2kPEe-PpNS-_CU2Aw" target="_top" title="mdeket-spring-cloud-movie-recommendation.system#_AwF9t2kPEe-PpNS-_CU2Aw" xlink:actuate="onRequest" xlink:href="mdeket-spring-cloud-movie-recommendation.system#_AwF9t2kPEe-PpNS-_CU2Aw" xlink:show="new" xlink:title="mdeket-spring-cloud-movie-recommendation.system#_AwF9t2kPEe-PpNS-_CU2Aw" xlink:type="simple"><rect fill="#F1F1F1" height="46.2969" rx="2.5" ry="2.5" style="stroke:#181818;stroke-width:0.5;" width="358" x="110" y="182.29"/><rect fill="#F1F1F1" height="10" style="stroke:#181818;stroke-width:0.5;" width="15" x="448" y="187.29"/><rect fill="#F1F1F1" height="2" style="stroke:#181818;stroke-width:0.5;" width="4" x="446" y="189.29"/><rect fill="#F1F1F1" height="2" style="stroke:#181818;stroke-width:0.5;" width="4" x="446" y="193.29"/><text fill="#000000" font-family="sans-serif" font-size="14" lengthAdjust="spacing" textLength="318" x="125" y="215.2851">com_example_service_RestTemplate_Provider</text></a></g><!--entity user_service_newuser_Provider--><g id="elem_user_service_newuser_Provider"><a href="mdeket-spring-cloud-movie-recommendation.system#_AwF9t2kPEe-PpNS-_CU2Aw" target="_top" title="mdeket-spring-cloud-movie-recommendation.system#_AwF9t2kPEe-PpNS-_CU2Aw" xlink:actuate="onRequest" xlink:href="mdeket-spring-cloud-movie-recommendation.system#_AwF9t2kPEe-PpNS-_CU2Aw" xlink:show="new" xlink:title="mdeket-spring-cloud-movie-recommendation.system#_AwF9t2kPEe-PpNS-_CU2Aw" xlink:type="simple"><rect fill="#F1F1F1" height="46.2969" rx="2.5" ry="2.5" style="stroke:#181818;stroke-width:0.5;" width="257" x="1427.5" y="182.29"/><rect fill="#F1F1F1" height="10" style="stroke:#181818;stroke-width:0.5;" width="15" x="1664.5" y="187.29"/><rect fill="#F1F1F1" height="2" style="stroke:#181818;stroke-width:0.5;" width="4" x="1662.5" y="189.29"/><rect fill="#F1F1F1" height="2" style="stroke:#181818;stroke-width:0.5;" width="4" x="1662.5" y="193.29"/><text fill="#000000" font-family="sans-serif" font-size="14" lengthAdjust="spacing" textLength="217" x="1442.5" y="215.2851">user_service_newuser_Provider</text></a></g><!--entity user_service_user_Provider--><g id="elem_user_service_user_Provider"><a href="mdeket-spring-cloud-movie-recommendation.system#_AwF9t2kPEe-PpNS-_CU2Aw" target="_top" title="mdeket-spring-cloud-movie-recommendation.system#_AwF9t2kPEe-PpNS-_CU2Aw" xlink:actuate="onRequest" xlink:href="mdeket-spring-cloud-movie-recommendation.system#_AwF9t2kPEe-PpNS-_CU2Aw" xlink:show="new" xlink:title="mdeket-spring-cloud-movie-recommendation.system#_AwF9t2kPEe-PpNS-_CU2Aw" xlink:type="simple"><rect fill="#F1F1F1" height="46.2969" rx="2.5" ry="2.5" style="stroke:#181818;stroke-width:0.5;" width="228" x="1833" y="182.29"/><rect fill="#F1F1F1" height="10" style="stroke:#181818;stroke-width:0.5;" width="15" x="2041" y="187.29"/><rect fill="#F1F1F1" height="2" style="stroke:#181818;stroke-width:0.5;" width="4" x="2039" y="189.29"/><rect fill="#F1F1F1" height="2" style="stroke:#181818;stroke-width:0.5;" width="4" x="2039" y="193.29"/><text fill="#000000" font-family="sans-serif" font-size="14" lengthAdjust="spacing" textLength="188" x="1848" y="215.2851">user_service_user_Provider</text></a></g><!--link nodecom_example_service_RestTemplate_Provider to nodecom_example_2--><g id="link_nodecom_example_service_RestTemplate_Provider_nodecom_example_2"><path d="M69.7567,133.9519 C69.7867,133.4096 69.8187,132.8666 69.8527,132.3229 C69.9207,131.2355 69.9968,130.1455 70.0813,129.0535 C70.2504,126.8695 70.4533,124.6778 70.6935,122.4841 C71.1737,118.0968 71.8024,113.7017 72.6056,109.3459 C74.212,100.6343 76.5161,92.0793 79.7253,84.0558 C86.1438,68.0088 96.1825,54.0875 111.5,45.29 C179.91,6 398.09,6 466.5,45.29 C498.84,63.865 517.0475,101.0725 527.2488,134.935 C528.5239,139.1678 529.674,143.3484 530.7109,147.4337 C530.9701,148.4551 531.2223,149.4704 531.4676,150.4792 C531.5902,150.9836 531.7111,151.4863 531.8303,151.9873 " fill="none" id="nodecom_example_service_RestTemplate_Provider-nodecom_example_2" style="stroke:#181818;stroke-width:1.0;"/></g><!--link nodeuser_service_newuser_Provider to nodecom_example_2--><g id="link_nodeuser_service_newuser_Provider_nodecom_example_2"><path d="M1362.8773,175.9895 C1362.3429,174.3369 1361.78,172.6337 1361.188,170.8852 C1360.0041,167.3881 1358.704,163.7098 1357.2827,159.892 C1354.4402,152.2563 1351.1134,144.0625 1347.2638,135.645 C1331.865,101.975 1308.1,64.725 1273.5,45.29 C1207.24,8.07 655.4,7.44 589.5,45.29 C574.12,54.125 563.2588,67.8338 555.6361,83.592 C554.6833,85.5618 553.781,87.5636 552.9269,89.5919 C552.7134,90.099 552.5028,90.6078 552.2953,91.1181 " fill="none" id="nodeuser_service_newuser_Provider-nodecom_example_2" style="stroke:#181818;stroke-width:1.0;"/></g><!--link nodeuser_service_user_Provider to nodecom_example_2--><g id="link_nodeuser_service_user_Provider_nodecom_example_2"><path d="M1770.8366,174.7621 C1770.7045,174.3429 1770.5706,173.9206 1770.435,173.4954 C1770.1637,172.6449 1769.8854,171.7824 1769.5999,170.9086 C1768.4582,167.4133 1767.2025,163.7368 1765.8274,159.9208 C1763.0774,152.2887 1759.8503,144.0984 1756.1038,135.6838 C1741.1175,102.025 1717.82,64.775 1683.5,45.29 C1630.65,15.28 642.2,15.02 589.5,45.29 C574.12,54.125 563.2588,67.8338 555.6361,83.592 C554.6833,85.5618 553.781,87.5636 552.9269,89.5919 C552.7134,90.099 552.5028,90.6078 552.2953,91.1181 " fill="none" id="nodeuser_service_user_Provider-nodecom_example_2" style="stroke:#181818;stroke-width:1.0;"/></g><!--SRC=[lPDTQuCm58Rl_HM1NMSNtksoo7Qr3sdNAv6GwTa8vekJg2rZ_tsn1LVNrdLGHH2IynwVD-UDhXBQSkIAl8jD8h2GyCZVGBuqW99RA_G7yLX3v7fXOPGr6hHV-Qq4KYiPHzgKGBfNA3BOS6L3vJFgfMIudnqisPDf12H6UpHI0kOaorG95NZgB0O-BQIfIwew6SMEe42Nt0kZRztMUL0tRD4-tFcuIk-1flPvHLcoZXTjdfyWBS6Q2HdBGVCinrexmDb0rn_VLtXEtHyMdxj1kyemMIxccNMOG2EAevYbwFw7VMq6UXV49BIpMVoSs_bN25lS0qinG4h0tscCYgzjkBTR1soFrj3kreSMHmNps1htDAcXx5-HveIIeuuutt_bZq5UsdbHspS0]--></g></svg>