<?xml version="1.0" encoding="us-ascii" standalone="no"?><svg xmlns="http://www.w3.org/2000/svg" xmlns:xlink="http://www.w3.org/1999/xlink" contentStyleType="text/css" height="399px" preserveAspectRatio="none" style="width:3527px;height:399px;background:#FFFFFF;" version="1.1" viewBox="0 0 3527 399" width="3527px" zoomAndPan="magnify"><defs/><g><!--cluster nodecom_example--><g id="cluster_nodecom_example"><polygon fill="none" points="2534,109.29,2544,99.29,3118,99.29,3118,364.29,3108,374.29,2534,374.29,2534,109.29" style="stroke:#181818;stroke-width:1.0;"/><line style="stroke:#181818;stroke-width:1.0;" x1="3108" x2="3118" y1="109.29" y2="99.29"/><line style="stroke:#181818;stroke-width:1.0;" x1="2534" x2="3108" y1="109.29" y2="109.29"/><line style="stroke:#181818;stroke-width:1.0;" x1="3108" x2="3108" y1="109.29" y2="374.29"/><text fill="#000000" font-family="sans-serif" font-size="14" font-weight="bold" lengthAdjust="spacing" textLength="146" x="2749" y="125.2851">nodecom_example</text></g><!--cluster com_example--><g id="cluster_com_example"><rect fill="none" height="203" rx="2.5" ry="2.5" style="stroke:#181818;stroke-width:1.0;" width="536" x="2558" y="147.29"/><rect fill="none" height="10" style="stroke:#181818;stroke-width:1.0;" width="15" x="3074" y="152.29"/><rect fill="none" height="2" style="stroke:#181818;stroke-width:1.0;" width="4" x="3072" y="154.29"/><rect fill="none" height="2" style="stroke:#181818;stroke-width:1.0;" width="4" x="3072" y="158.29"/><text fill="#000000" font-family="sans-serif" font-size="14" font-weight="bold" lengthAdjust="spacing" textLength="106" x="2773" y="173.2851">com_example</text></g><!--cluster nodecom_example_2--><g id="cluster_nodecom_example_2"><polygon fill="none" points="1337,101.29,1347,91.29,2128,91.29,2128,372.29,2118,382.29,1337,382.29,1337,101.29" style="stroke:#181818;stroke-width:1.0;"/><line style="stroke:#181818;stroke-width:1.0;" x1="2118" x2="2128" y1="101.29" y2="91.29"/><line style="stroke:#181818;stroke-width:1.0;" x1="1337" x2="2118" y1="101.29" y2="101.29"/><line style="stroke:#181818;stroke-width:1.0;" x1="2118" x2="2118" y1="101.29" y2="382.29"/><text fill="#000000" font-family="sans-serif" font-size="14" font-weight="bold" lengthAdjust="spacing" textLength="163" x="1647" y="117.2851">nodecom_example_2</text></g><!--cluster com_example_2--><g id="cluster_com_example_2"><rect fill="none" height="203" rx="2.5" ry="2.5" style="stroke:#181818;stroke-width:1.0;" width="719" x="1377" y="147.29"/><rect fill="none" height="10" style="stroke:#181818;stroke-width:1.0;" width="15" x="2076" y="152.29"/><rect fill="none" height="2" style="stroke:#181818;stroke-width:1.0;" width="4" x="2074" y="154.29"/><rect fill="none" height="2" style="stroke:#181818;stroke-width:1.0;" width="4" x="2074" y="158.29"/><text fill="#000000" font-family="sans-serif" font-size="14" font-weight="bold" lengthAdjust="spacing" textLength="123" x="1675" y="173.2851">com_example_2</text></g><!--cluster nodecom_example_UserController--><g id="cluster_nodecom_example_UserController"><polygon fill="none" points="436,144.29,446,134.29,781,134.29,781,242.29,771,252.29,436,252.29,436,144.29" style="stroke:#181818;stroke-width:1.0;"/><line style="stroke:#181818;stroke-width:1.0;" x1="771" x2="781" y1="144.29" y2="134.29"/><line style="stroke:#181818;stroke-width:1.0;" x1="436" x2="771" y1="144.29" y2="144.29"/><line style="stroke:#181818;stroke-width:1.0;" x1="771" x2="771" y1="144.29" y2="252.29"/><text fill="#000000" font-family="sans-serif" font-size="14" font-weight="bold" lengthAdjust="spacing" textLength="269" x="470" y="160.2851">nodecom_example_UserController</text></g><!--cluster nodecom_example_UserRepo_Provider--><g id="cluster_nodecom_example_UserRepo_Provider"><polygon fill="none" points="16,144.29,26,134.29,396,134.29,396,242.29,386,252.29,16,252.29,16,144.29" style="stroke:#181818;stroke-width:1.0;"/><line style="stroke:#181818;stroke-width:1.0;" x1="386" x2="396" y1="144.29" y2="134.29"/><line style="stroke:#181818;stroke-width:1.0;" x1="16" x2="386" y1="144.29" y2="144.29"/><line style="stroke:#181818;stroke-width:1.0;" x1="386" x2="386" y1="144.29" y2="252.29"/><text fill="#000000" font-family="sans-serif" font-size="14" font-weight="bold" lengthAdjust="spacing" textLength="304" x="50" y="160.2851">nodecom_example_UserRepo_Provider</text></g><!--cluster nodecom_example_service_RestTemplate_Provider--><g id="cluster_nodecom_example_service_RestTemplate_Provider"><polygon fill="none" points="821,144.29,831,134.29,1297,134.29,1297,242.29,1287,252.29,821,252.29,821,144.29" style="stroke:#181818;stroke-width:1.0;"/><line style="stroke:#181818;stroke-width:1.0;" x1="1287" x2="1297" y1="144.29" y2="134.29"/><line style="stroke:#181818;stroke-width:1.0;" x1="821" x2="1287" y1="144.29" y2="144.29"/><line style="stroke:#181818;stroke-width:1.0;" x1="1287" x2="1287" y1="144.29" y2="252.29"/><text fill="#000000" font-family="sans-serif" font-size="14" font-weight="bold" lengthAdjust="spacing" textLength="400" x="855" y="160.2851">nodecom_example_service_RestTemplate_Provider</text></g><!--cluster nodeuser_service_newuser_Provider--><g id="cluster_nodeuser_service_newuser_Provider"><polygon fill="none" points="3142,152.29,3152,142.29,3510,142.29,3510,234.29,3500,244.29,3142,244.29,3142,152.29" style="stroke:#181818;stroke-width:1.0;"/><line style="stroke:#181818;stroke-width:1.0;" x1="3500" x2="3510" y1="152.29" y2="142.29"/><line style="stroke:#181818;stroke-width:1.0;" x1="3142" x2="3500" y1="152.29" y2="152.29"/><line style="stroke:#181818;stroke-width:1.0;" x1="3500" x2="3500" y1="152.29" y2="244.29"/><text fill="#000000" font-family="sans-serif" font-size="14" font-weight="bold" lengthAdjust="spacing" textLength="292" x="3176" y="168.2851">nodeuser_service_newuser_Provider</text></g><!--cluster nodeuser_service_user_Provider--><g id="cluster_nodeuser_service_user_Provider"><polygon fill="none" points="2168,144.29,2178,134.29,2502,134.29,2502,242.29,2492,252.29,2168,252.29,2168,144.29" style="stroke:#181818;stroke-width:1.0;"/><line style="stroke:#181818;stroke-width:1.0;" x1="2492" x2="2502" y1="144.29" y2="134.29"/><line style="stroke:#181818;stroke-width:1.0;" x1="2168" x2="2492" y1="144.29" y2="144.29"/><line style="stroke:#181818;stroke-width:1.0;" x1="2492" x2="2492" y1="144.29" y2="252.29"/><text fill="#000000" font-family="sans-serif" font-size="14" font-weight="bold" lengthAdjust="spacing" textLength="258" x="2202" y="160.2851">nodeuser_service_user_Provider</text></g><!--entity com_example_MovieController--><g id="elem_com_example_MovieController"><a href="mdeket-spring-cloud-movie-recommendation.system#_JnteR41kEe-a-OVTuGcE6g" target="_top" title="mdeket-spring-cloud-movie-recommendation.system#_JnteR41kEe-a-OVTuGcE6g" xlink:actuate="onRequest" xlink:href="mdeket-spring-cloud-movie-recommendation.system#_JnteR41kEe-a-OVTuGcE6g" xlink:show="new" xlink:title="mdeket-spring-cloud-movie-recommendation.system#_JnteR41kEe-a-OVTuGcE6g" xlink:type="simple"><rect fill="#F1F1F1" height="46.2969" rx="2.5" ry="2.5" style="stroke:#181818;stroke-width:0.5;" width="249" x="2574.5" y="182.29"/><rect fill="#F1F1F1" height="10" style="stroke:#181818;stroke-width:0.5;" width="15" x="2803.5" y="187.29"/><rect fill="#F1F1F1" height="2" style="stroke:#181818;stroke-width:0.5;" width="4" x="2801.5" y="189.29"/><rect fill="#F1F1F1" height="2" style="stroke:#181818;stroke-width:0.5;" width="4" x="2801.5" y="193.29"/><text fill="#000000" font-family="sans-serif" font-size="14" lengthAdjust="spacing" textLength="209" x="2589.5" y="215.2851">com_example_MovieController</text></a></g><!--entity com_example_MovieRepo--><g id="elem_com_example_MovieRepo"><a href="mdeket-spring-cloud-movie-recommendation.system#_JnteR41kEe-a-OVTuGcE6g" target="_top" title="mdeket-spring-cloud-movie-recommendation.system#_JnteR41kEe-a-OVTuGcE6g" xlink:actuate="onRequest" xlink:href="mdeket-spring-cloud-movie-recommendation.system#_JnteR41kEe-a-OVTuGcE6g" xlink:show="new" xlink:title="mdeket-spring-cloud-movie-recommendation.system#_JnteR41kEe-a-OVTuGcE6g" xlink:type="simple"><rect fill="#F1F1F1" height="46.2969" rx="2.5" ry="2.5" style="stroke:#181818;stroke-width:0.5;" width="219" x="2858.5" y="182.29"/><rect fill="#F1F1F1" height="10" style="stroke:#181818;stroke-width:0.5;" width="15" x="3057.5" y="187.29"/><rect fill="#F1F1F1" height="2" style="stroke:#181818;stroke-width:0.5;" width="4" x="3055.5" y="189.29"/><rect fill="#F1F1F1" height="2" style="stroke:#181818;stroke-width:0.5;" width="4" x="3055.5" y="193.29"/><text fill="#000000" font-family="sans-serif" font-size="14" lengthAdjust="spacing" textLength="179" x="2873.5" y="215.2851">com_example_MovieRepo</text></a></g><!--entity com_example_RecommendationController--><g id="elem_com_example_RecommendationController"><a href="mdeket-spring-cloud-movie-recommendation.system#_JnteR41kEe-a-OVTuGcE6g" target="_top" title="mdeket-spring-cloud-movie-recommendation.system#_JnteR41kEe-a-OVTuGcE6g" xlink:actuate="onRequest" xlink:href="mdeket-spring-cloud-movie-recommendation.system#_JnteR41kEe-a-OVTuGcE6g" xlink:show="new" xlink:title="mdeket-spring-cloud-movie-recommendation.system#_JnteR41kEe-a-OVTuGcE6g" xlink:type="simple"><rect fill="#F1F1F1" height="46.2969" rx="2.5" ry="2.5" style="stroke:#181818;stroke-width:0.5;" width="332" x="2574" y="288.29"/><rect fill="#F1F1F1" height="10" style="stroke:#181818;stroke-width:0.5;" width="15" x="2886" y="293.29"/><rect fill="#F1F1F1" height="2" style="stroke:#181818;stroke-width:0.5;" width="4" x="2884" y="295.29"/><rect fill="#F1F1F1" height="2" style="stroke:#181818;stroke-width:0.5;" width="4" x="2884" y="299.29"/><text fill="#000000" font-family="sans-serif" font-size="14" lengthAdjust="spacing" textLength="292" x="2589" y="321.2851">com_example_RecommendationController</text></a></g><!--entity com_example_MainController--><g id="elem_com_example_MainController"><a href="mdeket-spring-cloud-movie-recommendation.system#_JnteR41kEe-a-OVTuGcE6g" target="_top" title="mdeket-spring-cloud-movie-recommendation.system#_JnteR41kEe-a-OVTuGcE6g" xlink:actuate="onRequest" xlink:href="mdeket-spring-cloud-movie-recommendation.system#_JnteR41kEe-a-OVTuGcE6g" xlink:show="new" xlink:title="mdeket-spring-cloud-movie-recommendation.system#_JnteR41kEe-a-OVTuGcE6g" xlink:type="simple"><rect fill="#F1F1F1" height="46.2969" rx="2.5" ry="2.5" style="stroke:#181818;stroke-width:0.5;" width="241" x="1393.5" y="182.29"/><rect fill="#F1F1F1" height="10" style="stroke:#181818;stroke-width:0.5;" width="15" x="1614.5" y="187.29"/><rect fill="#F1F1F1" height="2" style="stroke:#181818;stroke-width:0.5;" width="4" x="1612.5" y="189.29"/><rect fill="#F1F1F1" height="2" style="stroke:#181818;stroke-width:0.5;" width="4" x="1612.5" y="193.29"/><text fill="#000000" font-family="sans-serif" font-size="14" lengthAdjust="spacing" textLength="201" x="1408.5" y="215.2851">com_example_MainController</text></a></g><!--entity com_example_service_RecommendationClientService--><g id="elem_com_example_service_RecommendationClientService"><a href="mdeket-spring-cloud-movie-recommendation.system#_JnteR41kEe-a-OVTuGcE6g" target="_top" title="mdeket-spring-cloud-movie-recommendation.system#_JnteR41kEe-a-OVTuGcE6g" xlink:actuate="onRequest" xlink:href="mdeket-spring-cloud-movie-recommendation.system#_JnteR41kEe-a-OVTuGcE6g" xlink:show="new" xlink:title="mdeket-spring-cloud-movie-recommendation.system#_JnteR41kEe-a-OVTuGcE6g" xlink:type="simple"><rect fill="#F1F1F1" height="46.2969" rx="2.5" ry="2.5" style="stroke:#181818;stroke-width:0.5;" width="410" x="1670" y="182.29"/><rect fill="#F1F1F1" height="10" style="stroke:#181818;stroke-width:0.5;" width="15" x="2060" y="187.29"/><rect fill="#F1F1F1" height="2" style="stroke:#181818;stroke-width:0.5;" width="4" x="2058" y="189.29"/><rect fill="#F1F1F1" height="2" style="stroke:#181818;stroke-width:0.5;" width="4" x="2058" y="193.29"/><text fill="#000000" font-family="sans-serif" font-size="14" lengthAdjust="spacing" textLength="370" x="1685" y="215.2851">com_example_service_RecommendationClientService</text></a></g><!--entity com_example_service_UserService--><g id="elem_com_example_service_UserService"><a href="mdeket-spring-cloud-movie-recommendation.system#_JnteR41kEe-a-OVTuGcE6g" target="_top" title="mdeket-spring-cloud-movie-recommendation.system#_JnteR41kEe-a-OVTuGcE6g" xlink:actuate="onRequest" xlink:href="mdeket-spring-cloud-movie-recommendation.system#_JnteR41kEe-a-OVTuGcE6g" xlink:show="new" xlink:title="mdeket-spring-cloud-movie-recommendation.system#_JnteR41kEe-a-OVTuGcE6g" xlink:type="simple"><rect fill="#F1F1F1" height="46.2969" rx="2.5" ry="2.5" style="stroke:#181818;stroke-width:0.5;" width="280" x="1393" y="288.29"/><rect fill="#F1F1F1" height="10" style="stroke:#181818;stroke-width:0.5;" width="15" x="1653" y="293.29"/><rect fill="#F1F1F1" height="2" style="stroke:#181818;stroke-width:0.5;" width="4" x="1651" y="295.29"/><rect fill="#F1F1F1" height="2" style="stroke:#181818;stroke-width:0.5;" width="4" x="1651" y="299.29"/><text fill="#000000" font-family="sans-serif" font-size="14" lengthAdjust="spacing" textLength="240" x="1408" y="321.2851">com_example_service_UserService</text></a></g><!--entity com_example_UserController--><g id="elem_com_example_UserController"><a href="mdeket-spring-cloud-movie-recommendation.system#_JnteR41kEe-a-OVTuGcE6g" target="_top" title="mdeket-spring-cloud-movie-recommendation.system#_JnteR41kEe-a-OVTuGcE6g" xlink:actuate="onRequest" xlink:href="mdeket-spring-cloud-movie-recommendation.system#_JnteR41kEe-a-OVTuGcE6g" xlink:show="new" xlink:title="mdeket-spring-cloud-movie-recommendation.system#_JnteR41kEe-a-OVTuGcE6g" xlink:type="simple"><rect fill="#F1F1F1" height="46.2969" rx="2.5" ry="2.5" style="stroke:#181818;stroke-width:0.5;" width="241" x="497.5" y="182.29"/><rect fill="#F1F1F1" height="10" style="stroke:#181818;stroke-width:0.5;" width="15" x="718.5" y="187.29"/><rect fill="#F1F1F1" height="2" style="stroke:#181818;stroke-width:0.5;" width="4" x="716.5" y="189.29"/><rect fill="#F1F1F1" height="2" style="stroke:#181818;stroke-width:0.5;" width="4" x="716.5" y="193.29"/><text fill="#000000" font-family="sans-serif" font-size="14" lengthAdjust="spacing" textLength="201" x="512.5" y="215.2851">com_example_UserController</text></a></g><!--entity com_example_UserRepo_Provider--><g id="elem_com_example_UserRepo_Provider"><a href="mdeket-spring-cloud-movie-recommendation.system#_JnteR41kEe-a-OVTuGcE6g" target="_top" title="mdeket-spring-cloud-movie-recommendation.system#_JnteR41kEe-a-OVTuGcE6g" xlink:actuate="onRequest" xlink:href="mdeket-spring-cloud-movie-recommendation.system#_JnteR41kEe-a-OVTuGcE6g" xlink:show="new" xlink:title="mdeket-spring-cloud-movie-recommendation.system#_JnteR41kEe-a-OVTuGcE6g" xlink:type="simple"><rect fill="#F1F1F1" height="46.2969" rx="2.5" ry="2.5" style="stroke:#181818;stroke-width:0.5;" width="274" x="98" y="182.29"/><rect fill="#F1F1F1" height="10" style="stroke:#181818;stroke-width:0.5;" width="15" x="352" y="187.29"/><rect fill="#F1F1F1" height="2" style="stroke:#181818;stroke-width:0.5;" width="4" x="350" y="189.29"/><rect fill="#F1F1F1" height="2" style="stroke:#181818;stroke-width:0.5;" width="4" x="350" y="193.29"/><text fill="#000000" font-family="sans-serif" font-size="14" lengthAdjust="spacing" textLength="234" x="113" y="215.2851">com_example_UserRepo_Provider</text></a></g><!--entity com_example_service_RestTemplate_Provider--><g id="elem_com_example_service_RestTemplate_Provider"><a href="mdeket-spring-cloud-movie-recommendation.system#_JnteR41kEe-a-OVTuGcE6g" target="_top" title="mdeket-spring-cloud-movie-recommendation.system#_JnteR41kEe-a-OVTuGcE6g" xlink:actuate="onRequest" xlink:href="mdeket-spring-cloud-movie-recommendation.system#_JnteR41kEe-a-OVTuGcE6g" xlink:show="new" xlink:title="mdeket-spring-cloud-movie-recommendation.system#_JnteR41kEe-a-OVTuGcE6g" xlink:type="simple"><rect fill="#F1F1F1" height="46.2969" rx="2.5" ry="2.5" style="stroke:#181818;stroke-width:0.5;" width="358" x="915" y="182.29"/><rect fill="#F1F1F1" height="10" style="stroke:#181818;stroke-width:0.5;" width="15" x="1253" y="187.29"/><rect fill="#F1F1F1" height="2" style="stroke:#181818;stroke-width:0.5;" width="4" x="1251" y="189.29"/><rect fill="#F1F1F1" height="2" style="stroke:#181818;stroke-width:0.5;" width="4" x="1251" y="193.29"/><text fill="#000000" font-family="sans-serif" font-size="14" lengthAdjust="spacing" textLength="318" x="930" y="215.2851">com_example_service_RestTemplate_Provider</text></a></g><!--entity user_service_newuser_Provider--><g id="elem_user_service_newuser_Provider"><a href="mdeket-spring-cloud-movie-recommendation.system#_JnteR41kEe-a-OVTuGcE6g" target="_top" title="mdeket-spring-cloud-movie-recommendation.system#_JnteR41kEe-a-OVTuGcE6g" xlink:actuate="onRequest" xlink:href="mdeket-spring-cloud-movie-recommendation.system#_JnteR41kEe-a-OVTuGcE6g" xlink:show="new" xlink:title="mdeket-spring-cloud-movie-recommendation.system#_JnteR41kEe-a-OVTuGcE6g" xlink:type="simple"><rect fill="#F1F1F1" height="46.2969" rx="2.5" ry="2.5" style="stroke:#181818;stroke-width:0.5;" width="257" x="3197.5" y="182.29"/><rect fill="#F1F1F1" height="10" style="stroke:#181818;stroke-width:0.5;" width="15" x="3434.5" y="187.29"/><rect fill="#F1F1F1" height="2" style="stroke:#181818;stroke-width:0.5;" width="4" x="3432.5" y="189.29"/><rect fill="#F1F1F1" height="2" style="stroke:#181818;stroke-width:0.5;" width="4" x="3432.5" y="193.29"/><text fill="#000000" font-family="sans-serif" font-size="14" lengthAdjust="spacing" textLength="217" x="3212.5" y="215.2851">user_service_newuser_Provider</text></a></g><!--entity user_service_user_Provider--><g id="elem_user_service_user_Provider"><a href="mdeket-spring-cloud-movie-recommendation.system#_JnteR41kEe-a-OVTuGcE6g" target="_top" title="mdeket-spring-cloud-movie-recommendation.system#_JnteR41kEe-a-OVTuGcE6g" xlink:actuate="onRequest" xlink:href="mdeket-spring-cloud-movie-recommendation.system#_JnteR41kEe-a-OVTuGcE6g" xlink:show="new" xlink:title="mdeket-spring-cloud-movie-recommendation.system#_JnteR41kEe-a-OVTuGcE6g" xlink:type="simple"><rect fill="#F1F1F1" height="46.2969" rx="2.5" ry="2.5" style="stroke:#181818;stroke-width:0.5;" width="228" x="2230" y="182.29"/><rect fill="#F1F1F1" height="10" style="stroke:#181818;stroke-width:0.5;" width="15" x="2438" y="187.29"/><rect fill="#F1F1F1" height="2" style="stroke:#181818;stroke-width:0.5;" width="4" x="2436" y="189.29"/><rect fill="#F1F1F1" height="2" style="stroke:#181818;stroke-width:0.5;" width="4" x="2436" y="193.29"/><text fill="#000000" font-family="sans-serif" font-size="14" lengthAdjust="spacing" textLength="188" x="2245" y="215.2851">user_service_user_Provider</text></a></g><!--link nodecom_example_UserRepo_Provider to nodecom_example_UserController--><g id="link_nodecom_example_UserRepo_Provider_nodecom_example_UserController"><path d="M57.7567,133.9519 C57.7867,133.4096 57.8187,132.8666 57.8527,132.3229 C57.9207,131.2355 57.9968,130.1455 58.0813,129.0535 C58.2504,126.8695 58.4533,124.6778 58.6935,122.4841 C59.1737,118.0968 59.8024,113.7017 60.6056,109.3459 C62.212,100.6343 64.5161,92.0793 67.7253,84.0558 C74.1438,68.0088 84.1825,54.0875 99.5,45.29 C151.72,15.3 318.28,15.3 370.5,45.29 C402.84,63.865 421.0475,101.0725 431.2488,134.935 C432.5239,139.1678 433.674,143.3484 434.7109,147.4337 C434.9701,148.4551 435.2223,149.4704 435.4676,150.4792 C435.5902,150.9836 435.7111,151.4863 435.8303,151.9873 " fill="none" id="nodecom_example_UserRepo_Provider-nodecom_example_UserController" style="stroke:#181818;stroke-width:1.0;"/></g><!--link nodecom_example_service_RestTemplate_Provider to nodecom_example_2--><g id="link_nodecom_example_service_RestTemplate_Provider_nodecom_example_2"><path d="M874.7567,133.9519 C874.7867,133.4096 874.8187,132.8666 874.8527,132.3229 C874.9207,131.2355 874.9968,130.1455 875.0813,129.0535 C875.2504,126.8695 875.4533,124.6778 875.6935,122.4841 C876.1737,118.0968 876.8024,113.7017 877.6056,109.3459 C879.212,100.6343 881.5161,92.0793 884.7253,84.0558 C891.1438,68.0088 901.1825,54.0875 916.5,45.29 C984.91,6 1203.09,6 1271.5,45.29 C1303.84,63.865 1322.0475,101.0725 1332.2488,134.935 C1333.5239,139.1678 1334.674,143.3484 1335.7109,147.4337 C1335.9701,148.4551 1336.2223,149.4704 1336.4676,150.4792 C1336.5902,150.9836 1336.7111,151.4863 1336.8303,151.9873 " fill="none" id="nodecom_example_service_RestTemplate_Provider-nodecom_example_2" style="stroke:#181818;stroke-width:1.0;"/></g><!--link nodeuser_service_user_Provider to nodecom_example_2--><g id="link_nodeuser_service_user_Provider_nodecom_example_2"><path d="M2167.8773,175.9895 C2167.3429,174.3369 2166.78,172.6337 2166.188,170.8852 C2165.0041,167.3881 2163.704,163.7098 2162.2827,159.892 C2159.4402,152.2563 2156.1134,144.0625 2152.2638,135.645 C2136.865,101.975 2113.1,64.725 2078.5,45.29 C2012.24,8.07 1460.4,7.44 1394.5,45.29 C1379.12,54.125 1368.2588,67.8338 1360.6361,83.592 C1359.6833,85.5618 1358.781,87.5636 1357.9269,89.5919 C1357.7134,90.099 1357.5028,90.6078 1357.2953,91.1181 " fill="none" id="nodeuser_service_user_Provider-nodecom_example_2" style="stroke:#181818;stroke-width:1.0;"/></g><!--SRC=[lLFHIiCm57tlLmHyZc0HVs0CGPH9dRwKKc9x7Q79JKZIkY7-kycKRdLjzxAMG4boJkuvERcr5KVD39FaWsyNt1G27jaxY5K3HZ2jEMw8CpL4jYKMIcg5WEx5xGIGMeeuGbK22HyFvh1bKdlaAsgffBkV7Ytp9zLmM2XqHWa19YDfAakem56hZTUdXL1rIMMWKHCK963975TuRNVMWRpA7z11SdjJBO4okdfRr_V5ycwJPJrA2MWreKRIEJpLjRxzwCiyZuTItoFTD1Z7MMAtO1fUd4GZUEYXNsm6zLS_cKHjy2s2uY7W__5tqKjR6ZGKsZz_DhvisU-fGvZ5rg4_h5k3ts8E1YsEaYUpMtlPLXhXSxy-jZXAcCVMkAT93QLdEoqZbAJZFqXsMkRCO_UKZF-gZDsz_zWF]--></g></svg>