<?xml version="1.0" encoding="us-ascii" standalone="no"?><svg xmlns="http://www.w3.org/2000/svg" xmlns:xlink="http://www.w3.org/1999/xlink" contentStyleType="text/css" height="125px" preserveAspectRatio="none" style="width:5306px;height:125px;background:#FFFFFF;" version="1.1" viewBox="0 0 5306 125" width="5306px" zoomAndPan="magnify"><defs/><g><!--cluster Placeholder_10--><g id="cluster_Placeholder_10"><polygon fill="none" points="2121.5,16,2131.5,6,5289.5,6,5289.5,98,5279.5,108,2121.5,108,2121.5,16" style="stroke:#181818;stroke-width:1.0;"/><line style="stroke:#181818;stroke-width:1.0;" x1="5279.5" x2="5289.5" y1="16" y2="6"/><line style="stroke:#181818;stroke-width:1.0;" x1="2121.5" x2="5279.5" y1="16" y2="16"/><line style="stroke:#181818;stroke-width:1.0;" x1="5279.5" x2="5279.5" y1="16" y2="108"/><text fill="#000000" font-family="sans-serif" font-size="14" font-weight="bold" lengthAdjust="spacing" textLength="120" x="3641.5" y="31.9951">Placeholder_10</text></g><!--entity aName--><g id="elem_aName"><a href="mdeket-spring-cloud-movie-recommendation.system#_rZMOBLtpEe6OsJ1Tt2WcJQ" target="_top" title="mdeket-spring-cloud-movie-recommendation.system#_rZMOBLtpEe6OsJ1Tt2WcJQ" xlink:actuate="onRequest" xlink:href="mdeket-spring-cloud-movie-recommendation.system#_rZMOBLtpEe6OsJ1Tt2WcJQ" xlink:show="new" xlink:title="mdeket-spring-cloud-movie-recommendation.system#_rZMOBLtpEe6OsJ1Tt2WcJQ" xlink:type="simple"><rect fill="#F1F1F1" height="46.2969" rx="2.5" ry="2.5" style="stroke:#181818;stroke-width:0.5;" width="88" x="2137.5" y="46"/><rect fill="#F1F1F1" height="10" style="stroke:#181818;stroke-width:0.5;" width="15" x="2205.5" y="51"/><rect fill="#F1F1F1" height="2" style="stroke:#181818;stroke-width:0.5;" width="4" x="2203.5" y="53"/><rect fill="#F1F1F1" height="2" style="stroke:#181818;stroke-width:0.5;" width="4" x="2203.5" y="57"/><text fill="#000000" font-family="sans-serif" font-size="14" lengthAdjust="spacing" textLength="48" x="2152.5" y="78.9951">aName</text></a></g><!--entity Placeholder_9--><g id="elem_Placeholder_9"><polygon fill="#F1F1F1" points="16,56,26,46,153,46,153,82.2969,143,92.2969,16,92.2969,16,56" style="stroke:#181818;stroke-width:0.5;"/><line style="stroke:#181818;stroke-width:0.5;" x1="143" x2="153" y1="56" y2="46"/><line style="stroke:#181818;stroke-width:0.5;" x1="16" x2="143" y1="56" y2="56"/><line style="stroke:#181818;stroke-width:0.5;" x1="143" x2="143" y1="56" y2="92.2969"/><text fill="#000000" font-family="sans-serif" font-size="14" lengthAdjust="spacing" textLength="97" x="31" y="78.9951">Placeholder_9</text></g><!--entity Placeholder_12--><g id="elem_Placeholder_12"><polygon fill="#F1F1F1" points="188.5,56,198.5,46,334.5,46,334.5,82.2969,324.5,92.2969,188.5,92.2969,188.5,56" style="stroke:#181818;stroke-width:0.5;"/><line style="stroke:#181818;stroke-width:0.5;" x1="324.5" x2="334.5" y1="56" y2="46"/><line style="stroke:#181818;stroke-width:0.5;" x1="188.5" x2="324.5" y1="56" y2="56"/><line style="stroke:#181818;stroke-width:0.5;" x1="324.5" x2="324.5" y1="56" y2="92.2969"/><text fill="#000000" font-family="sans-serif" font-size="14" lengthAdjust="spacing" textLength="106" x="203.5" y="78.9951">Placeholder_12</text></g><!--entity Placeholder_14--><g id="elem_Placeholder_14"><polygon fill="#F1F1F1" points="369.5,56,379.5,46,515.5,46,515.5,82.2969,505.5,92.2969,369.5,92.2969,369.5,56" style="stroke:#181818;stroke-width:0.5;"/><line style="stroke:#181818;stroke-width:0.5;" x1="505.5" x2="515.5" y1="56" y2="46"/><line style="stroke:#181818;stroke-width:0.5;" x1="369.5" x2="505.5" y1="56" y2="56"/><line style="stroke:#181818;stroke-width:0.5;" x1="505.5" x2="505.5" y1="56" y2="92.2969"/><text fill="#000000" font-family="sans-serif" font-size="14" lengthAdjust="spacing" textLength="106" x="384.5" y="78.9951">Placeholder_14</text></g><!--entity Placeholder_1--><g id="elem_Placeholder_1"><polygon fill="#F1F1F1" points="551,56,561,46,688,46,688,82.2969,678,92.2969,551,92.2969,551,56" style="stroke:#181818;stroke-width:0.5;"/><line style="stroke:#181818;stroke-width:0.5;" x1="678" x2="688" y1="56" y2="46"/><line style="stroke:#181818;stroke-width:0.5;" x1="551" x2="678" y1="56" y2="56"/><line style="stroke:#181818;stroke-width:0.5;" x1="678" x2="678" y1="56" y2="92.2969"/><text fill="#000000" font-family="sans-serif" font-size="14" lengthAdjust="spacing" textLength="97" x="566" y="78.9951">Placeholder_1</text></g><!--entity Placeholder_16--><g id="elem_Placeholder_16"><polygon fill="#F1F1F1" points="723.5,56,733.5,46,869.5,46,869.5,82.2969,859.5,92.2969,723.5,92.2969,723.5,56" style="stroke:#181818;stroke-width:0.5;"/><line style="stroke:#181818;stroke-width:0.5;" x1="859.5" x2="869.5" y1="56" y2="46"/><line style="stroke:#181818;stroke-width:0.5;" x1="723.5" x2="859.5" y1="56" y2="56"/><line style="stroke:#181818;stroke-width:0.5;" x1="859.5" x2="859.5" y1="56" y2="92.2969"/><text fill="#000000" font-family="sans-serif" font-size="14" lengthAdjust="spacing" textLength="106" x="738.5" y="78.9951">Placeholder_16</text></g><!--entity Placeholder_0--><g id="elem_Placeholder_0"><polygon fill="#F1F1F1" points="905,56,915,46,1042,46,1042,82.2969,1032,92.2969,905,92.2969,905,56" style="stroke:#181818;stroke-width:0.5;"/><line style="stroke:#181818;stroke-width:0.5;" x1="1032" x2="1042" y1="56" y2="46"/><line style="stroke:#181818;stroke-width:0.5;" x1="905" x2="1032" y1="56" y2="56"/><line style="stroke:#181818;stroke-width:0.5;" x1="1032" x2="1032" y1="56" y2="92.2969"/><text fill="#000000" font-family="sans-serif" font-size="14" lengthAdjust="spacing" textLength="97" x="920" y="78.9951">Placeholder_0</text></g><!--entity Placeholder_3--><g id="elem_Placeholder_3"><polygon fill="#F1F1F1" points="1077,56,1087,46,1214,46,1214,82.2969,1204,92.2969,1077,92.2969,1077,56" style="stroke:#181818;stroke-width:0.5;"/><line style="stroke:#181818;stroke-width:0.5;" x1="1204" x2="1214" y1="56" y2="46"/><line style="stroke:#181818;stroke-width:0.5;" x1="1077" x2="1204" y1="56" y2="56"/><line style="stroke:#181818;stroke-width:0.5;" x1="1204" x2="1204" y1="56" y2="92.2969"/><text fill="#000000" font-family="sans-serif" font-size="14" lengthAdjust="spacing" textLength="97" x="1092" y="78.9951">Placeholder_3</text></g><!--entity Placeholder_4--><g id="elem_Placeholder_4"><polygon fill="#F1F1F1" points="1249,56,1259,46,1386,46,1386,82.2969,1376,92.2969,1249,92.2969,1249,56" style="stroke:#181818;stroke-width:0.5;"/><line style="stroke:#181818;stroke-width:0.5;" x1="1376" x2="1386" y1="56" y2="46"/><line style="stroke:#181818;stroke-width:0.5;" x1="1249" x2="1376" y1="56" y2="56"/><line style="stroke:#181818;stroke-width:0.5;" x1="1376" x2="1376" y1="56" y2="92.2969"/><text fill="#000000" font-family="sans-serif" font-size="14" lengthAdjust="spacing" textLength="97" x="1264" y="78.9951">Placeholder_4</text></g><!--entity Placeholder_11--><g id="elem_Placeholder_11"><polygon fill="#F1F1F1" points="1421.5,56,1431.5,46,1567.5,46,1567.5,82.2969,1557.5,92.2969,1421.5,92.2969,1421.5,56" style="stroke:#181818;stroke-width:0.5;"/><line style="stroke:#181818;stroke-width:0.5;" x1="1557.5" x2="1567.5" y1="56" y2="46"/><line style="stroke:#181818;stroke-width:0.5;" x1="1421.5" x2="1557.5" y1="56" y2="56"/><line style="stroke:#181818;stroke-width:0.5;" x1="1557.5" x2="1557.5" y1="56" y2="92.2969"/><text fill="#000000" font-family="sans-serif" font-size="14" lengthAdjust="spacing" textLength="106" x="1436.5" y="78.9951">Placeholder_11</text></g><!--entity Placeholder_6--><g id="elem_Placeholder_6"><polygon fill="#F1F1F1" points="1603,56,1613,46,1740,46,1740,82.2969,1730,92.2969,1603,92.2969,1603,56" style="stroke:#181818;stroke-width:0.5;"/><line style="stroke:#181818;stroke-width:0.5;" x1="1730" x2="1740" y1="56" y2="46"/><line style="stroke:#181818;stroke-width:0.5;" x1="1603" x2="1730" y1="56" y2="56"/><line style="stroke:#181818;stroke-width:0.5;" x1="1730" x2="1730" y1="56" y2="92.2969"/><text fill="#000000" font-family="sans-serif" font-size="14" lengthAdjust="spacing" textLength="97" x="1618" y="78.9951">Placeholder_6</text></g><!--entity Placeholder_13--><g id="elem_Placeholder_13"><polygon fill="#F1F1F1" points="1775.5,56,1785.5,46,1921.5,46,1921.5,82.2969,1911.5,92.2969,1775.5,92.2969,1775.5,56" style="stroke:#181818;stroke-width:0.5;"/><line style="stroke:#181818;stroke-width:0.5;" x1="1911.5" x2="1921.5" y1="56" y2="46"/><line style="stroke:#181818;stroke-width:0.5;" x1="1775.5" x2="1911.5" y1="56" y2="56"/><line style="stroke:#181818;stroke-width:0.5;" x1="1911.5" x2="1911.5" y1="56" y2="92.2969"/><text fill="#000000" font-family="sans-serif" font-size="14" lengthAdjust="spacing" textLength="106" x="1790.5" y="78.9951">Placeholder_13</text></g><!--entity Placeholder_25--><g id="elem_Placeholder_25"><polygon fill="#F1F1F1" points="1956.5,56,1966.5,46,2102.5,46,2102.5,82.2969,2092.5,92.2969,1956.5,92.2969,1956.5,56" style="stroke:#181818;stroke-width:0.5;"/><line style="stroke:#181818;stroke-width:0.5;" x1="2092.5" x2="2102.5" y1="56" y2="46"/><line style="stroke:#181818;stroke-width:0.5;" x1="1956.5" x2="2092.5" y1="56" y2="56"/><line style="stroke:#181818;stroke-width:0.5;" x1="2092.5" x2="2092.5" y1="56" y2="92.2969"/><text fill="#000000" font-family="sans-serif" font-size="14" lengthAdjust="spacing" textLength="106" x="1971.5" y="78.9951">Placeholder_25</text></g><!--link aName to aName--><g id="link_aName_aName"><path d="M2225.77,67.52 C2244.52,67.4 2260.5,67.9 2260.5,69 C2260.5,70.1 2244.52,70.6 2225.77,70.48 " fill="none" id="aName-aName" style="stroke:#181818;stroke-width:1.0;"/><text fill="#000000" font-family="sans-serif" font-size="13" lengthAdjust="spacing" textLength="166" x="2273.5" y="73.5669">user-service/user Provider</text><path d="M2218.6538,60.4943 A10,10 0 0 0 2218.7443 74.6362" fill="none" style="stroke:#181818;stroke-width:1.5;"/><ellipse cx="2225.77" cy="67.52" fill="#FFFFFF" rx="6" ry="6" style="stroke:#181818;stroke-width:1.5;"/></g><!--link aName to aName--><g id="link_aName_aName"><path d="M2225.79,67.04 C2305.27,65.17 2452.5,65.82 2452.5,69 C2452.5,72.18 2305.27,72.83 2225.79,70.96 " fill="none" id="aName-aName-1" style="stroke:#181818;stroke-width:1.0;"/><text fill="#000000" font-family="sans-serif" font-size="13" lengthAdjust="spacing" textLength="282" x="2465.5" y="73.5669">com_example_service_UserService Provider</text><path d="M2218.5546,60.1372 A10,10 0 0 0 2218.8872 74.2754" fill="none" style="stroke:#181818;stroke-width:1.5;"/><ellipse cx="2225.79" cy="67.04" fill="#FFFFFF" rx="6" ry="6" style="stroke:#181818;stroke-width:1.5;"/></g><!--link aName to aName--><g id="link_aName_aName"><path d="M2225.72,66.89 C2365.12,63.11 2760.5,63.81 2760.5,69 C2760.5,74.19 2365.12,74.89 2225.72,71.11 " fill="none" id="aName-aName-2" style="stroke:#181818;stroke-width:1.0;"/><text fill="#000000" font-family="sans-serif" font-size="13" lengthAdjust="spacing" textLength="191" x="2773.5" y="73.5669">user-service/newuser Provider</text><path d="M2218.4599,60.0132 A10,10 0 0 0 2218.8432 74.1501" fill="none" style="stroke:#181818;stroke-width:1.5;"/><ellipse cx="2225.72" cy="66.89" fill="#FFFFFF" rx="6" ry="6" style="stroke:#181818;stroke-width:1.5;"/></g><!--link aName to aName--><g id="link_aName_aName"><path d="M2225.65,66.61 C2398.58,61.1 2977.5,61.9 2977.5,69 C2977.5,76.1 2398.58,76.9 2225.65,71.39 " fill="none" id="aName-aName-3" style="stroke:#181818;stroke-width:1.0;"/><text fill="#000000" font-family="sans-serif" font-size="13" lengthAdjust="spacing" textLength="293" x="2990.5" y="73.5669">com_example_service_RestTemplate Provider</text><path d="M2218.3573,59.7677 A10,10 0 0 0 2218.8077 73.9027" fill="none" style="stroke:#181818;stroke-width:1.5;"/><ellipse cx="2225.65" cy="66.61" fill="#FFFFFF" rx="6" ry="6" style="stroke:#181818;stroke-width:1.5;"/></g><!--link aName to aName--><g id="link_aName_aName"><path d="M2225.58,66.46 C2439.79,59.09 3296.5,59.93 3296.5,69 C3296.5,78.07 2439.79,78.91 2225.58,71.54 " fill="none" id="aName-aName-4" style="stroke:#181818;stroke-width:1.0;"/><text fill="#000000" font-family="sans-serif" font-size="13" lengthAdjust="spacing" textLength="222" x="3309.5" y="73.5669">com_example_MovieRepo Provider</text><path d="M2218.27,59.6363 A10,10 0 0 0 2218.7563 73.77" fill="none" style="stroke:#181818;stroke-width:1.5;"/><ellipse cx="2225.58" cy="66.46" fill="#FFFFFF" rx="6" ry="6" style="stroke:#181818;stroke-width:1.5;"/></g><!--link aName to aName--><g id="link_aName_aName"><path d="M2225.84,66.26 C2469.58,57.08 3544.5,58 3544.5,69 C3544.5,80 2469.58,80.92 2225.84,71.74 " fill="none" id="aName-aName-5" style="stroke:#181818;stroke-width:1.0;"/><text fill="#000000" font-family="sans-serif" font-size="13" lengthAdjust="spacing" textLength="401" x="3557.5" y="73.5669">com_example_service_RecommendationClientService Provider</text><path d="M2218.5078,59.4601 A10,10 0 0 0 2219.0401 73.5922" fill="none" style="stroke:#181818;stroke-width:1.5;"/><ellipse cx="2225.84" cy="66.26" fill="#FFFFFF" rx="6" ry="6" style="stroke:#181818;stroke-width:1.5;"/></g><!--link aName to aName--><g id="link_aName_aName"><path d="M2225.71,66.2 C2512.24,55.07 3971.5,56 3971.5,69 C3971.5,82 2512.24,82.93 2225.71,71.8 " fill="none" id="aName-aName-6" style="stroke:#181818;stroke-width:1.0;"/><text fill="#000000" font-family="sans-serif" font-size="13" lengthAdjust="spacing" textLength="215" x="3984.5" y="73.5669">com_example_UserRepo Provider</text><path d="M2218.3698,59.4087 A10,10 0 0 0 2218.9187 73.5402" fill="none" style="stroke:#181818;stroke-width:1.5;"/><ellipse cx="2225.71" cy="66.2" fill="#FFFFFF" rx="6" ry="6" style="stroke:#181818;stroke-width:1.5;"/></g><!--link aName to aName--><g id="link_aName_aName"><path d="M2225.93,66.02 C2536.42,53.07 4212.5,54.06 4212.5,69 C4212.5,83.94 2536.42,84.93 2225.93,71.98 " fill="none" id="aName-aName-7" style="stroke:#181818;stroke-width:1.0;"/><text fill="#000000" font-family="sans-serif" font-size="13" lengthAdjust="spacing" textLength="166" x="4225.5" y="73.5669">user-service/user Provider</text><path d="M2218.5704,59.2497 A10,10 0 0 0 2219.1597 73.3796" fill="none" style="stroke:#181818;stroke-width:1.5;"/><ellipse cx="2225.93" cy="66.02" fill="#FFFFFF" rx="6" ry="6" style="stroke:#181818;stroke-width:1.5;"/></g><!--link aName to aName--><g id="link_aName_aName"><path d="M2225.67,65.86 C2553.94,51.07 4404.5,52.12 4404.5,69 C4404.5,85.88 2553.94,86.93 2225.67,72.14 " fill="none" id="aName-aName-8" style="stroke:#181818;stroke-width:1.0;"/><text fill="#000000" font-family="sans-serif" font-size="13" lengthAdjust="spacing" textLength="191" x="4417.5" y="73.5669">user-service/newuser Provider</text><path d="M2218.2878,59.1144 A10,10 0 0 0 2218.9244 73.2422" fill="none" style="stroke:#181818;stroke-width:1.5;"/><ellipse cx="2225.67" cy="65.86" fill="#FFFFFF" rx="6" ry="6" style="stroke:#181818;stroke-width:1.5;"/></g><!--link aName to aName--><g id="link_aName_aName"><path d="M2225.57,65.72 C2573.33,49.07 4621.5,50.16 4621.5,69 C4621.5,87.84 2573.33,88.93 2225.57,72.28 " fill="none" id="aName-aName-9" style="stroke:#181818;stroke-width:1.0;"/><text fill="#000000" font-family="sans-serif" font-size="13" lengthAdjust="spacing" textLength="215" x="4634.5" y="73.5669">com_example_UserRepo Provider</text><path d="M2218.1689,58.9952 A10,10 0 0 0 2218.8452 73.1211" fill="none" style="stroke:#181818;stroke-width:1.5;"/><ellipse cx="2225.57" cy="65.72" fill="#FFFFFF" rx="6" ry="6" style="stroke:#181818;stroke-width:1.5;"/></g><!--link aName to aName--><g id="link_aName_aName"><path d="M2225.64,65.59 C2594.5,47.07 4862.5,48.2 4862.5,69 C4862.5,89.8 2594.5,90.93 2225.64,72.41 " fill="none" id="aName-aName-10" style="stroke:#181818;stroke-width:1.0;"/><text fill="#000000" font-family="sans-serif" font-size="13" lengthAdjust="spacing" textLength="222" x="4875.5" y="73.5669">com_example_MovieRepo Provider</text><path d="M2218.2232,58.8824 A10,10 0 0 0 2218.9324 73.0068" fill="none" style="stroke:#181818;stroke-width:1.5;"/><ellipse cx="2225.64" cy="65.59" fill="#FFFFFF" rx="6" ry="6" style="stroke:#181818;stroke-width:1.5;"/></g><!--SRC=[lP9BImCn58Nt_HK1DswYdL4BkhIuAQrJQqNeC0nnvgYXUP5aQaNyxsRGGaMa3p6Bm4tWtE_ctEFcN1bccIIFVDddjX8OiWU8R04hc35SFH5l6tIKha76WbLurgA6BPCkUUlax9f952JFPOqvF7N61WcjX6vgAlM2WrfKMagecdckrP5xTHxoeBIpKNOvzEOAlSmDagbFxwl1JL5qtd-opkEXaZGYwpGYAoAg5uyLCOGdyL0nSn4n615paKJSLdhsRwnLLthOfMHrkI2DWwNXB7Y5u_P2nZOGmZ2_AGAun9998r1-2SkxKDn-rXlrtuWABtj39t1-Yl34F7PgC6ejdC3eFR7hrlS5X_BR_dszN-lPLaFilg8_MxprR1ji_G00]--></g></svg>