<?xml version="1.0" encoding="us-ascii" standalone="no"?><svg xmlns="http://www.w3.org/2000/svg" xmlns:xlink="http://www.w3.org/1999/xlink" contentStyleType="text/css" height="399px" preserveAspectRatio="none" style="width:3073px;height:399px;background:#FFFFFF;" version="1.1" viewBox="0 0 3073 399" width="3073px" zoomAndPan="magnify"><defs/><g><!--cluster nodecom_example--><g id="cluster_nodecom_example"><polygon fill="none" points="532,101.29,542,91.29,1323,91.29,1323,372.29,1313,382.29,532,382.29,532,101.29" style="stroke:#181818;stroke-width:1.0;"/><line style="stroke:#181818;stroke-width:1.0;" x1="1313" x2="1323" y1="101.29" y2="91.29"/><line style="stroke:#181818;stroke-width:1.0;" x1="532" x2="1313" y1="101.29" y2="101.29"/><line style="stroke:#181818;stroke-width:1.0;" x1="1313" x2="1313" y1="101.29" y2="382.29"/><text fill="#000000" font-family="sans-serif" font-size="14" font-weight="bold" lengthAdjust="spacing" textLength="146" x="850.5" y="117.2851">nodecom_example</text></g><!--cluster com_example--><g id="cluster_com_example"><rect fill="none" height="203" rx="2.5" ry="2.5" style="stroke:#181818;stroke-width:1.0;" width="719" x="572" y="147.29"/><rect fill="none" height="10" style="stroke:#181818;stroke-width:1.0;" width="15" x="1271" y="152.29"/><rect fill="none" height="2" style="stroke:#181818;stroke-width:1.0;" width="4" x="1269" y="154.29"/><rect fill="none" height="2" style="stroke:#181818;stroke-width:1.0;" width="4" x="1269" y="158.29"/><text fill="#000000" font-family="sans-serif" font-size="14" font-weight="bold" lengthAdjust="spacing" textLength="106" x="878.5" y="173.2851">com_example</text></g><!--cluster nodecom_example_2--><g id="cluster_nodecom_example_2"><polygon fill="none" points="1355,109.29,1365,99.29,2306,99.29,2306,364.29,2296,374.29,1355,374.29,1355,109.29" style="stroke:#181818;stroke-width:1.0;"/><line style="stroke:#181818;stroke-width:1.0;" x1="2296" x2="2306" y1="109.29" y2="99.29"/><line style="stroke:#181818;stroke-width:1.0;" x1="1355" x2="2296" y1="109.29" y2="109.29"/><line style="stroke:#181818;stroke-width:1.0;" x1="2296" x2="2296" y1="109.29" y2="374.29"/><text fill="#000000" font-family="sans-serif" font-size="14" font-weight="bold" lengthAdjust="spacing" textLength="163" x="1745" y="125.2851">nodecom_example_2</text></g><!--cluster com_example_2--><g id="cluster_com_example_2"><rect fill="none" height="203" rx="2.5" ry="2.5" style="stroke:#181818;stroke-width:1.0;" width="903" x="1379" y="147.29"/><rect fill="none" height="10" style="stroke:#181818;stroke-width:1.0;" width="15" x="2262" y="152.29"/><rect fill="none" height="2" style="stroke:#181818;stroke-width:1.0;" width="4" x="2260" y="154.29"/><rect fill="none" height="2" style="stroke:#181818;stroke-width:1.0;" width="4" x="2260" y="158.29"/><text fill="#000000" font-family="sans-serif" font-size="14" font-weight="bold" lengthAdjust="spacing" textLength="123" x="1769" y="173.2851">com_example_2</text></g><!--cluster nodecom_example_service_RestTemplate_Provider--><g id="cluster_nodecom_example_service_RestTemplate_Provider"><polygon fill="none" points="16,144.29,26,134.29,492,134.29,492,242.29,482,252.29,16,252.29,16,144.29" style="stroke:#181818;stroke-width:1.0;"/><line style="stroke:#181818;stroke-width:1.0;" x1="482" x2="492" y1="144.29" y2="134.29"/><line style="stroke:#181818;stroke-width:1.0;" x1="16" x2="482" y1="144.29" y2="144.29"/><line style="stroke:#181818;stroke-width:1.0;" x1="482" x2="482" y1="144.29" y2="252.29"/><text fill="#000000" font-family="sans-serif" font-size="14" font-weight="bold" lengthAdjust="spacing" textLength="400" x="50" y="160.2851">nodecom_example_service_RestTemplate_Provider</text></g><!--cluster nodeuser_service_newuser_Provider--><g id="cluster_nodeuser_service_newuser_Provider"><polygon fill="none" points="2330,152.29,2340,142.29,2698,142.29,2698,234.29,2688,244.29,2330,244.29,2330,152.29" style="stroke:#181818;stroke-width:1.0;"/><line style="stroke:#181818;stroke-width:1.0;" x1="2688" x2="2698" y1="152.29" y2="142.29"/><line style="stroke:#181818;stroke-width:1.0;" x1="2330" x2="2688" y1="152.29" y2="152.29"/><line style="stroke:#181818;stroke-width:1.0;" x1="2688" x2="2688" y1="152.29" y2="244.29"/><text fill="#000000" font-family="sans-serif" font-size="14" font-weight="bold" lengthAdjust="spacing" textLength="292" x="2364" y="168.2851">nodeuser_service_newuser_Provider</text></g><!--cluster nodeuser_service_user_Provider--><g id="cluster_nodeuser_service_user_Provider"><polygon fill="none" points="2722,152.29,2732,142.29,3056,142.29,3056,234.29,3046,244.29,2722,244.29,2722,152.29" style="stroke:#181818;stroke-width:1.0;"/><line style="stroke:#181818;stroke-width:1.0;" x1="3046" x2="3056" y1="152.29" y2="142.29"/><line style="stroke:#181818;stroke-width:1.0;" x1="2722" x2="3046" y1="152.29" y2="152.29"/><line style="stroke:#181818;stroke-width:1.0;" x1="3046" x2="3046" y1="152.29" y2="244.29"/><text fill="#000000" font-family="sans-serif" font-size="14" font-weight="bold" lengthAdjust="spacing" textLength="258" x="2756" y="168.2851">nodeuser_service_user_Provider</text></g><!--entity com_example_MainController--><g id="elem_com_example_MainController"><a href="mdeket-spring-cloud-movie-recommendation.system#_1PShJAavEe-i1LGY3Ec4ww" target="_top" title="mdeket-spring-cloud-movie-recommendation.system#_1PShJAavEe-i1LGY3Ec4ww" xlink:actuate="onRequest" xlink:href="mdeket-spring-cloud-movie-recommendation.system#_1PShJAavEe-i1LGY3Ec4ww" xlink:show="new" xlink:title="mdeket-spring-cloud-movie-recommendation.system#_1PShJAavEe-i1LGY3Ec4ww" xlink:type="simple"><rect fill="#F1F1F1" height="46.2969" rx="2.5" ry="2.5" style="stroke:#181818;stroke-width:0.5;" width="241" x="588.5" y="182.29"/><rect fill="#F1F1F1" height="10" style="stroke:#181818;stroke-width:0.5;" width="15" x="809.5" y="187.29"/><rect fill="#F1F1F1" height="2" style="stroke:#181818;stroke-width:0.5;" width="4" x="807.5" y="189.29"/><rect fill="#F1F1F1" height="2" style="stroke:#181818;stroke-width:0.5;" width="4" x="807.5" y="193.29"/><text fill="#000000" font-family="sans-serif" font-size="14" lengthAdjust="spacing" textLength="201" x="603.5" y="215.2851">com_example_MainController</text></a></g><!--entity com_example_service_RecommendationClientService--><g id="elem_com_example_service_RecommendationClientService"><a href="mdeket-spring-cloud-movie-recommendation.system#_1PShJAavEe-i1LGY3Ec4ww" target="_top" title="mdeket-spring-cloud-movie-recommendation.system#_1PShJAavEe-i1LGY3Ec4ww" xlink:actuate="onRequest" xlink:href="mdeket-spring-cloud-movie-recommendation.system#_1PShJAavEe-i1LGY3Ec4ww" xlink:show="new" xlink:title="mdeket-spring-cloud-movie-recommendation.system#_1PShJAavEe-i1LGY3Ec4ww" xlink:type="simple"><rect fill="#F1F1F1" height="46.2969" rx="2.5" ry="2.5" style="stroke:#181818;stroke-width:0.5;" width="410" x="865" y="182.29"/><rect fill="#F1F1F1" height="10" style="stroke:#181818;stroke-width:0.5;" width="15" x="1255" y="187.29"/><rect fill="#F1F1F1" height="2" style="stroke:#181818;stroke-width:0.5;" width="4" x="1253" y="189.29"/><rect fill="#F1F1F1" height="2" style="stroke:#181818;stroke-width:0.5;" width="4" x="1253" y="193.29"/><text fill="#000000" font-family="sans-serif" font-size="14" lengthAdjust="spacing" textLength="370" x="880" y="215.2851">com_example_service_RecommendationClientService</text></a></g><!--entity com_example_service_UserService--><g id="elem_com_example_service_UserService"><a href="mdeket-spring-cloud-movie-recommendation.system#_1PShJAavEe-i1LGY3Ec4ww" target="_top" title="mdeket-spring-cloud-movie-recommendation.system#_1PShJAavEe-i1LGY3Ec4ww" xlink:actuate="onRequest" xlink:href="mdeket-spring-cloud-movie-recommendation.system#_1PShJAavEe-i1LGY3Ec4ww" xlink:show="new" xlink:title="mdeket-spring-cloud-movie-recommendation.system#_1PShJAavEe-i1LGY3Ec4ww" xlink:type="simple"><rect fill="#F1F1F1" height="46.2969" rx="2.5" ry="2.5" style="stroke:#181818;stroke-width:0.5;" width="280" x="588" y="288.29"/><rect fill="#F1F1F1" height="10" style="stroke:#181818;stroke-width:0.5;" width="15" x="848" y="293.29"/><rect fill="#F1F1F1" height="2" style="stroke:#181818;stroke-width:0.5;" width="4" x="846" y="295.29"/><rect fill="#F1F1F1" height="2" style="stroke:#181818;stroke-width:0.5;" width="4" x="846" y="299.29"/><text fill="#000000" font-family="sans-serif" font-size="14" lengthAdjust="spacing" textLength="240" x="603" y="321.2851">com_example_service_UserService</text></a></g><!--entity com_example_MovieController--><g id="elem_com_example_MovieController"><a href="mdeket-spring-cloud-movie-recommendation.system#_1PShJAavEe-i1LGY3Ec4ww" target="_top" title="mdeket-spring-cloud-movie-recommendation.system#_1PShJAavEe-i1LGY3Ec4ww" xlink:actuate="onRequest" xlink:href="mdeket-spring-cloud-movie-recommendation.system#_1PShJAavEe-i1LGY3Ec4ww" xlink:show="new" xlink:title="mdeket-spring-cloud-movie-recommendation.system#_1PShJAavEe-i1LGY3Ec4ww" xlink:type="simple"><rect fill="#F1F1F1" height="46.2969" rx="2.5" ry="2.5" style="stroke:#181818;stroke-width:0.5;" width="249" x="1395.5" y="182.29"/><rect fill="#F1F1F1" height="10" style="stroke:#181818;stroke-width:0.5;" width="15" x="1624.5" y="187.29"/><rect fill="#F1F1F1" height="2" style="stroke:#181818;stroke-width:0.5;" width="4" x="1622.5" y="189.29"/><rect fill="#F1F1F1" height="2" style="stroke:#181818;stroke-width:0.5;" width="4" x="1622.5" y="193.29"/><text fill="#000000" font-family="sans-serif" font-size="14" lengthAdjust="spacing" textLength="209" x="1410.5" y="215.2851">com_example_MovieController</text></a></g><!--entity com_example_MovieRepo--><g id="elem_com_example_MovieRepo"><a href="mdeket-spring-cloud-movie-recommendation.system#_1PShJAavEe-i1LGY3Ec4ww" target="_top" title="mdeket-spring-cloud-movie-recommendation.system#_1PShJAavEe-i1LGY3Ec4ww" xlink:actuate="onRequest" xlink:href="mdeket-spring-cloud-movie-recommendation.system#_1PShJAavEe-i1LGY3Ec4ww" xlink:show="new" xlink:title="mdeket-spring-cloud-movie-recommendation.system#_1PShJAavEe-i1LGY3Ec4ww" xlink:type="simple"><rect fill="#F1F1F1" height="46.2969" rx="2.5" ry="2.5" style="stroke:#181818;stroke-width:0.5;" width="219" x="1679.5" y="182.29"/><rect fill="#F1F1F1" height="10" style="stroke:#181818;stroke-width:0.5;" width="15" x="1878.5" y="187.29"/><rect fill="#F1F1F1" height="2" style="stroke:#181818;stroke-width:0.5;" width="4" x="1876.5" y="189.29"/><rect fill="#F1F1F1" height="2" style="stroke:#181818;stroke-width:0.5;" width="4" x="1876.5" y="193.29"/><text fill="#000000" font-family="sans-serif" font-size="14" lengthAdjust="spacing" textLength="179" x="1694.5" y="215.2851">com_example_MovieRepo</text></a></g><!--entity com_example_RecommendationController--><g id="elem_com_example_RecommendationController"><a href="mdeket-spring-cloud-movie-recommendation.system#_1PShJAavEe-i1LGY3Ec4ww" target="_top" title="mdeket-spring-cloud-movie-recommendation.system#_1PShJAavEe-i1LGY3Ec4ww" xlink:actuate="onRequest" xlink:href="mdeket-spring-cloud-movie-recommendation.system#_1PShJAavEe-i1LGY3Ec4ww" xlink:show="new" xlink:title="mdeket-spring-cloud-movie-recommendation.system#_1PShJAavEe-i1LGY3Ec4ww" xlink:type="simple"><rect fill="#F1F1F1" height="46.2969" rx="2.5" ry="2.5" style="stroke:#181818;stroke-width:0.5;" width="332" x="1934" y="182.29"/><rect fill="#F1F1F1" height="10" style="stroke:#181818;stroke-width:0.5;" width="15" x="2246" y="187.29"/><rect fill="#F1F1F1" height="2" style="stroke:#181818;stroke-width:0.5;" width="4" x="2244" y="189.29"/><rect fill="#F1F1F1" height="2" style="stroke:#181818;stroke-width:0.5;" width="4" x="2244" y="193.29"/><text fill="#000000" font-family="sans-serif" font-size="14" lengthAdjust="spacing" textLength="292" x="1949" y="215.2851">com_example_RecommendationController</text></a></g><!--entity com_example_UserController--><g id="elem_com_example_UserController"><a href="mdeket-spring-cloud-movie-recommendation.system#_1PShJAavEe-i1LGY3Ec4ww" target="_top" title="mdeket-spring-cloud-movie-recommendation.system#_1PShJAavEe-i1LGY3Ec4ww" xlink:actuate="onRequest" xlink:href="mdeket-spring-cloud-movie-recommendation.system#_1PShJAavEe-i1LGY3Ec4ww" xlink:show="new" xlink:title="mdeket-spring-cloud-movie-recommendation.system#_1PShJAavEe-i1LGY3Ec4ww" xlink:type="simple"><rect fill="#F1F1F1" height="46.2969" rx="2.5" ry="2.5" style="stroke:#181818;stroke-width:0.5;" width="241" x="1399.5" y="288.29"/><rect fill="#F1F1F1" height="10" style="stroke:#181818;stroke-width:0.5;" width="15" x="1620.5" y="293.29"/><rect fill="#F1F1F1" height="2" style="stroke:#181818;stroke-width:0.5;" width="4" x="1618.5" y="295.29"/><rect fill="#F1F1F1" height="2" style="stroke:#181818;stroke-width:0.5;" width="4" x="1618.5" y="299.29"/><text fill="#000000" font-family="sans-serif" font-size="14" lengthAdjust="spacing" textLength="201" x="1414.5" y="321.2851">com_example_UserController</text></a></g><!--entity com_example_UserRepo--><g id="elem_com_example_UserRepo"><a href="mdeket-spring-cloud-movie-recommendation.system#_1PShJAavEe-i1LGY3Ec4ww" target="_top" title="mdeket-spring-cloud-movie-recommendation.system#_1PShJAavEe-i1LGY3Ec4ww" xlink:actuate="onRequest" xlink:href="mdeket-spring-cloud-movie-recommendation.system#_1PShJAavEe-i1LGY3Ec4ww" xlink:show="new" xlink:title="mdeket-spring-cloud-movie-recommendation.system#_1PShJAavEe-i1LGY3Ec4ww" xlink:type="simple"><rect fill="#F1F1F1" height="46.2969" rx="2.5" ry="2.5" style="stroke:#181818;stroke-width:0.5;" width="211" x="1675.5" y="288.29"/><rect fill="#F1F1F1" height="10" style="stroke:#181818;stroke-width:0.5;" width="15" x="1866.5" y="293.29"/><rect fill="#F1F1F1" height="2" style="stroke:#181818;stroke-width:0.5;" width="4" x="1864.5" y="295.29"/><rect fill="#F1F1F1" height="2" style="stroke:#181818;stroke-width:0.5;" width="4" x="1864.5" y="299.29"/><text fill="#000000" font-family="sans-serif" font-size="14" lengthAdjust="spacing" textLength="171" x="1690.5" y="321.2851">com_example_UserRepo</text></a></g><!--entity com_example_service_RestTemplate_Provider--><g id="elem_com_example_service_RestTemplate_Provider"><a href="mdeket-spring-cloud-movie-recommendation.system#_1PShJAavEe-i1LGY3Ec4ww" target="_top" title="mdeket-spring-cloud-movie-recommendation.system#_1PShJAavEe-i1LGY3Ec4ww" xlink:actuate="onRequest" xlink:href="mdeket-spring-cloud-movie-recommendation.system#_1PShJAavEe-i1LGY3Ec4ww" xlink:show="new" xlink:title="mdeket-spring-cloud-movie-recommendation.system#_1PShJAavEe-i1LGY3Ec4ww" xlink:type="simple"><rect fill="#F1F1F1" height="46.2969" rx="2.5" ry="2.5" style="stroke:#181818;stroke-width:0.5;" width="358" x="110" y="182.29"/><rect fill="#F1F1F1" height="10" style="stroke:#181818;stroke-width:0.5;" width="15" x="448" y="187.29"/><rect fill="#F1F1F1" height="2" style="stroke:#181818;stroke-width:0.5;" width="4" x="446" y="189.29"/><rect fill="#F1F1F1" height="2" style="stroke:#181818;stroke-width:0.5;" width="4" x="446" y="193.29"/><text fill="#000000" font-family="sans-serif" font-size="14" lengthAdjust="spacing" textLength="318" x="125" y="215.2851">com_example_service_RestTemplate_Provider</text></a></g><!--entity user_service_newuser_Provider--><g id="elem_user_service_newuser_Provider"><a href="mdeket-spring-cloud-movie-recommendation.system#_1PShJAavEe-i1LGY3Ec4ww" target="_top" title="mdeket-spring-cloud-movie-recommendation.system#_1PShJAavEe-i1LGY3Ec4ww" xlink:actuate="onRequest" xlink:href="mdeket-spring-cloud-movie-recommendation.system#_1PShJAavEe-i1LGY3Ec4ww" xlink:show="new" xlink:title="mdeket-spring-cloud-movie-recommendation.system#_1PShJAavEe-i1LGY3Ec4ww" xlink:type="simple"><rect fill="#F1F1F1" height="46.2969" rx="2.5" ry="2.5" style="stroke:#181818;stroke-width:0.5;" width="257" x="2385.5" y="182.29"/><rect fill="#F1F1F1" height="10" style="stroke:#181818;stroke-width:0.5;" width="15" x="2622.5" y="187.29"/><rect fill="#F1F1F1" height="2" style="stroke:#181818;stroke-width:0.5;" width="4" x="2620.5" y="189.29"/><rect fill="#F1F1F1" height="2" style="stroke:#181818;stroke-width:0.5;" width="4" x="2620.5" y="193.29"/><text fill="#000000" font-family="sans-serif" font-size="14" lengthAdjust="spacing" textLength="217" x="2400.5" y="215.2851">user_service_newuser_Provider</text></a></g><!--entity user_service_user_Provider--><g id="elem_user_service_user_Provider"><a href="mdeket-spring-cloud-movie-recommendation.system#_1PShJAavEe-i1LGY3Ec4ww" target="_top" title="mdeket-spring-cloud-movie-recommendation.system#_1PShJAavEe-i1LGY3Ec4ww" xlink:actuate="onRequest" xlink:href="mdeket-spring-cloud-movie-recommendation.system#_1PShJAavEe-i1LGY3Ec4ww" xlink:show="new" xlink:title="mdeket-spring-cloud-movie-recommendation.system#_1PShJAavEe-i1LGY3Ec4ww" xlink:type="simple"><rect fill="#F1F1F1" height="46.2969" rx="2.5" ry="2.5" style="stroke:#181818;stroke-width:0.5;" width="228" x="2775" y="182.29"/><rect fill="#F1F1F1" height="10" style="stroke:#181818;stroke-width:0.5;" width="15" x="2983" y="187.29"/><rect fill="#F1F1F1" height="2" style="stroke:#181818;stroke-width:0.5;" width="4" x="2981" y="189.29"/><rect fill="#F1F1F1" height="2" style="stroke:#181818;stroke-width:0.5;" width="4" x="2981" y="193.29"/><text fill="#000000" font-family="sans-serif" font-size="14" lengthAdjust="spacing" textLength="188" x="2790" y="215.2851">user_service_user_Provider</text></a></g><!--link nodecom_example_service_RestTemplate_Provider to nodecom_example--><g id="link_nodecom_example_service_RestTemplate_Provider_nodecom_example"><path d="M69.7567,133.9519 C69.7867,133.4096 69.8187,132.8666 69.8527,132.3229 C69.9207,131.2355 69.9968,130.1455 70.0813,129.0535 C70.2504,126.8695 70.4533,124.6778 70.6935,122.4841 C71.1737,118.0968 71.8024,113.7017 72.6056,109.3459 C74.212,100.6343 76.5161,92.0793 79.7253,84.0558 C86.1438,68.0088 96.1825,54.0875 111.5,45.29 C179.91,6 398.09,6 466.5,45.29 C498.84,63.865 517.0475,101.0725 527.2488,134.935 C528.5239,139.1678 529.674,143.3484 530.7109,147.4337 C530.9701,148.4551 531.2223,149.4704 531.4676,150.4792 C531.5902,150.9836 531.7111,151.4863 531.8303,151.9873 " fill="none" id="nodecom_example_service_RestTemplate_Provider-nodecom_example" style="stroke:#181818;stroke-width:1.0;"/></g><!--SRC=[lPDTIyCm58Rl-oi2NaVOnn-GCWIPE3Qza592RCyqB5-SfEs6-DzDAzIrk8Amba38oJd9yoPluWv2MuvSaRqunW8p2Ml-1lAf19JSMg7VYSS28jSMPaPPeq7xdJz988MIyqYR74ZTXII38rSsP3wZjfHqvvEpa3roeMEZFHef0LEI92g70tZgB0OypQGfSgfCAO1Y3L2WS-w5qRVkv3oe6pRRx3uUxdYv0Yfcw_lNnIfRLbMQTa4Ei1GPi6rdarYA-Ym_kGdeBs4m2kqhjBzyOFDBJZIPhXSrUH8p6j8Mh1cHqJDwYcFLxau6klxrNNn3lt_7-MS8Kzm3ss20v83zLpHOV6t1hTmYO5kqXgg9poKE5amZQrZJg8AIVrcQ4ahwAzBe6m00]--></g></svg>