<?xml version="1.0" encoding="us-ascii" standalone="no"?><svg xmlns="http://www.w3.org/2000/svg" xmlns:xlink="http://www.w3.org/1999/xlink" contentStyleType="text/css" height="125px" preserveAspectRatio="none" style="width:5358px;height:125px;background:#FFFFFF;" version="1.1" viewBox="0 0 5358 125" width="5358px" zoomAndPan="magnify"><defs/><g><!--cluster Placeholder_12--><g id="cluster_Placeholder_12"><polygon fill="none" points="2120.5,16,2130.5,6,5341.5,6,5341.5,98,5331.5,108,2120.5,108,2120.5,16" style="stroke:#181818;stroke-width:1.0;"/><line style="stroke:#181818;stroke-width:1.0;" x1="5331.5" x2="5341.5" y1="16" y2="6"/><line style="stroke:#181818;stroke-width:1.0;" x1="2120.5" x2="5331.5" y1="16" y2="16"/><line style="stroke:#181818;stroke-width:1.0;" x1="5331.5" x2="5331.5" y1="16" y2="108"/><text fill="#000000" font-family="sans-serif" font-size="14" font-weight="bold" lengthAdjust="spacing" textLength="120" x="3667" y="31.9951">Placeholder_12</text></g><!--entity aName--><g id="elem_aName"><a href="mdeket-spring-cloud-movie-recommendation.system#_xtTPVLw4Ee6Rv6UhLY82pw" target="_top" title="mdeket-spring-cloud-movie-recommendation.system#_xtTPVLw4Ee6Rv6UhLY82pw" xlink:actuate="onRequest" xlink:href="mdeket-spring-cloud-movie-recommendation.system#_xtTPVLw4Ee6Rv6UhLY82pw" xlink:show="new" xlink:title="mdeket-spring-cloud-movie-recommendation.system#_xtTPVLw4Ee6Rv6UhLY82pw" xlink:type="simple"><rect fill="#F1F1F1" height="46.2969" rx="2.5" ry="2.5" style="stroke:#181818;stroke-width:0.5;" width="88" x="2136.5" y="46"/><rect fill="#F1F1F1" height="10" style="stroke:#181818;stroke-width:0.5;" width="15" x="2204.5" y="51"/><rect fill="#F1F1F1" height="2" style="stroke:#181818;stroke-width:0.5;" width="4" x="2202.5" y="53"/><rect fill="#F1F1F1" height="2" style="stroke:#181818;stroke-width:0.5;" width="4" x="2202.5" y="57"/><text fill="#000000" font-family="sans-serif" font-size="14" lengthAdjust="spacing" textLength="48" x="2151.5" y="78.9951">aName</text></a></g><!--entity Placeholder_2--><g id="elem_Placeholder_2"><polygon fill="#F1F1F1" points="16,56,26,46,153,46,153,82.2969,143,92.2969,16,92.2969,16,56" style="stroke:#181818;stroke-width:0.5;"/><line style="stroke:#181818;stroke-width:0.5;" x1="143" x2="153" y1="56" y2="46"/><line style="stroke:#181818;stroke-width:0.5;" x1="16" x2="143" y1="56" y2="56"/><line style="stroke:#181818;stroke-width:0.5;" x1="143" x2="143" y1="56" y2="92.2969"/><text fill="#000000" font-family="sans-serif" font-size="14" lengthAdjust="spacing" textLength="97" x="31" y="78.9951">Placeholder_2</text></g><!--entity Placeholder_8--><g id="elem_Placeholder_8"><polygon fill="#F1F1F1" points="188,56,198,46,325,46,325,82.2969,315,92.2969,188,92.2969,188,56" style="stroke:#181818;stroke-width:0.5;"/><line style="stroke:#181818;stroke-width:0.5;" x1="315" x2="325" y1="56" y2="46"/><line style="stroke:#181818;stroke-width:0.5;" x1="188" x2="315" y1="56" y2="56"/><line style="stroke:#181818;stroke-width:0.5;" x1="315" x2="315" y1="56" y2="92.2969"/><text fill="#000000" font-family="sans-serif" font-size="14" lengthAdjust="spacing" textLength="97" x="203" y="78.9951">Placeholder_8</text></g><!--entity Placeholder_10--><g id="elem_Placeholder_10"><polygon fill="#F1F1F1" points="360.5,56,370.5,46,506.5,46,506.5,82.2969,496.5,92.2969,360.5,92.2969,360.5,56" style="stroke:#181818;stroke-width:0.5;"/><line style="stroke:#181818;stroke-width:0.5;" x1="496.5" x2="506.5" y1="56" y2="46"/><line style="stroke:#181818;stroke-width:0.5;" x1="360.5" x2="496.5" y1="56" y2="56"/><line style="stroke:#181818;stroke-width:0.5;" x1="496.5" x2="496.5" y1="56" y2="92.2969"/><text fill="#000000" font-family="sans-serif" font-size="14" lengthAdjust="spacing" textLength="106" x="375.5" y="78.9951">Placeholder_10</text></g><!--entity Placeholder_15--><g id="elem_Placeholder_15"><polygon fill="#F1F1F1" points="541.5,56,551.5,46,687.5,46,687.5,82.2969,677.5,92.2969,541.5,92.2969,541.5,56" style="stroke:#181818;stroke-width:0.5;"/><line style="stroke:#181818;stroke-width:0.5;" x1="677.5" x2="687.5" y1="56" y2="46"/><line style="stroke:#181818;stroke-width:0.5;" x1="541.5" x2="677.5" y1="56" y2="56"/><line style="stroke:#181818;stroke-width:0.5;" x1="677.5" x2="677.5" y1="56" y2="92.2969"/><text fill="#000000" font-family="sans-serif" font-size="14" lengthAdjust="spacing" textLength="106" x="556.5" y="78.9951">Placeholder_15</text></g><!--entity Placeholder_0--><g id="elem_Placeholder_0"><polygon fill="#F1F1F1" points="723,56,733,46,860,46,860,82.2969,850,92.2969,723,92.2969,723,56" style="stroke:#181818;stroke-width:0.5;"/><line style="stroke:#181818;stroke-width:0.5;" x1="850" x2="860" y1="56" y2="46"/><line style="stroke:#181818;stroke-width:0.5;" x1="723" x2="850" y1="56" y2="56"/><line style="stroke:#181818;stroke-width:0.5;" x1="850" x2="850" y1="56" y2="92.2969"/><text fill="#000000" font-family="sans-serif" font-size="14" lengthAdjust="spacing" textLength="97" x="738" y="78.9951">Placeholder_0</text></g><!--entity Placeholder_1--><g id="elem_Placeholder_1"><polygon fill="#F1F1F1" points="895,56,905,46,1032,46,1032,82.2969,1022,92.2969,895,92.2969,895,56" style="stroke:#181818;stroke-width:0.5;"/><line style="stroke:#181818;stroke-width:0.5;" x1="1022" x2="1032" y1="56" y2="46"/><line style="stroke:#181818;stroke-width:0.5;" x1="895" x2="1022" y1="56" y2="56"/><line style="stroke:#181818;stroke-width:0.5;" x1="1022" x2="1022" y1="56" y2="92.2969"/><text fill="#000000" font-family="sans-serif" font-size="14" lengthAdjust="spacing" textLength="97" x="910" y="78.9951">Placeholder_1</text></g><!--entity Placeholder_11--><g id="elem_Placeholder_11"><polygon fill="#F1F1F1" points="1067.5,56,1077.5,46,1213.5,46,1213.5,82.2969,1203.5,92.2969,1067.5,92.2969,1067.5,56" style="stroke:#181818;stroke-width:0.5;"/><line style="stroke:#181818;stroke-width:0.5;" x1="1203.5" x2="1213.5" y1="56" y2="46"/><line style="stroke:#181818;stroke-width:0.5;" x1="1067.5" x2="1203.5" y1="56" y2="56"/><line style="stroke:#181818;stroke-width:0.5;" x1="1203.5" x2="1203.5" y1="56" y2="92.2969"/><text fill="#000000" font-family="sans-serif" font-size="14" lengthAdjust="spacing" textLength="106" x="1082.5" y="78.9951">Placeholder_11</text></g><!--entity Placeholder_5--><g id="elem_Placeholder_5"><polygon fill="#F1F1F1" points="1249,56,1259,46,1386,46,1386,82.2969,1376,92.2969,1249,92.2969,1249,56" style="stroke:#181818;stroke-width:0.5;"/><line style="stroke:#181818;stroke-width:0.5;" x1="1376" x2="1386" y1="56" y2="46"/><line style="stroke:#181818;stroke-width:0.5;" x1="1249" x2="1376" y1="56" y2="56"/><line style="stroke:#181818;stroke-width:0.5;" x1="1376" x2="1376" y1="56" y2="92.2969"/><text fill="#000000" font-family="sans-serif" font-size="14" lengthAdjust="spacing" textLength="97" x="1264" y="78.9951">Placeholder_5</text></g><!--entity Placeholder_3--><g id="elem_Placeholder_3"><polygon fill="#F1F1F1" points="1421,56,1431,46,1558,46,1558,82.2969,1548,92.2969,1421,92.2969,1421,56" style="stroke:#181818;stroke-width:0.5;"/><line style="stroke:#181818;stroke-width:0.5;" x1="1548" x2="1558" y1="56" y2="46"/><line style="stroke:#181818;stroke-width:0.5;" x1="1421" x2="1548" y1="56" y2="56"/><line style="stroke:#181818;stroke-width:0.5;" x1="1548" x2="1548" y1="56" y2="92.2969"/><text fill="#000000" font-family="sans-serif" font-size="14" lengthAdjust="spacing" textLength="97" x="1436" y="78.9951">Placeholder_3</text></g><!--entity Placeholder_13--><g id="elem_Placeholder_13"><polygon fill="#F1F1F1" points="1593.5,56,1603.5,46,1739.5,46,1739.5,82.2969,1729.5,92.2969,1593.5,92.2969,1593.5,56" style="stroke:#181818;stroke-width:0.5;"/><line style="stroke:#181818;stroke-width:0.5;" x1="1729.5" x2="1739.5" y1="56" y2="46"/><line style="stroke:#181818;stroke-width:0.5;" x1="1593.5" x2="1729.5" y1="56" y2="56"/><line style="stroke:#181818;stroke-width:0.5;" x1="1729.5" x2="1729.5" y1="56" y2="92.2969"/><text fill="#000000" font-family="sans-serif" font-size="14" lengthAdjust="spacing" textLength="106" x="1608.5" y="78.9951">Placeholder_13</text></g><!--entity Placeholder_20--><g id="elem_Placeholder_20"><polygon fill="#F1F1F1" points="1774.5,56,1784.5,46,1920.5,46,1920.5,82.2969,1910.5,92.2969,1774.5,92.2969,1774.5,56" style="stroke:#181818;stroke-width:0.5;"/><line style="stroke:#181818;stroke-width:0.5;" x1="1910.5" x2="1920.5" y1="56" y2="46"/><line style="stroke:#181818;stroke-width:0.5;" x1="1774.5" x2="1910.5" y1="56" y2="56"/><line style="stroke:#181818;stroke-width:0.5;" x1="1910.5" x2="1910.5" y1="56" y2="92.2969"/><text fill="#000000" font-family="sans-serif" font-size="14" lengthAdjust="spacing" textLength="106" x="1789.5" y="78.9951">Placeholder_20</text></g><!--entity Placeholder_18--><g id="elem_Placeholder_18"><polygon fill="#F1F1F1" points="1955.5,56,1965.5,46,2101.5,46,2101.5,82.2969,2091.5,92.2969,1955.5,92.2969,1955.5,56" style="stroke:#181818;stroke-width:0.5;"/><line style="stroke:#181818;stroke-width:0.5;" x1="2091.5" x2="2101.5" y1="56" y2="46"/><line style="stroke:#181818;stroke-width:0.5;" x1="1955.5" x2="2091.5" y1="56" y2="56"/><line style="stroke:#181818;stroke-width:0.5;" x1="2091.5" x2="2091.5" y1="56" y2="92.2969"/><text fill="#000000" font-family="sans-serif" font-size="14" lengthAdjust="spacing" textLength="106" x="1970.5" y="78.9951">Placeholder_18</text></g><!--link aName to aName--><g id="link_aName_aName"><path d="M2224.77,67.52 C2243.52,67.4 2259.5,67.9 2259.5,69 C2259.5,70.1 2243.52,70.6 2224.77,70.48 " fill="none" id="aName-aName" style="stroke:#181818;stroke-width:1.0;"/><text fill="#000000" font-family="sans-serif" font-size="13" lengthAdjust="spacing" textLength="225" x="2272.5" y="73.5669">com_example_MovieRepo_Provider</text><path d="M2217.6538,60.4943 A10,10 0 0 0 2217.7443 74.6362" fill="none" style="stroke:#181818;stroke-width:1.5;"/><ellipse cx="2224.77" cy="67.52" fill="#FFFFFF" rx="6" ry="6" style="stroke:#181818;stroke-width:1.5;"/></g><!--link aName to aName--><g id="link_aName_aName"><path d="M2224.73,67.18 C2317.27,65.14 2510.5,65.75 2510.5,69 C2510.5,72.25 2317.27,72.86 2224.73,70.82 " fill="none" id="aName-aName-1" style="stroke:#181818;stroke-width:1.0;"/><text fill="#000000" font-family="sans-serif" font-size="13" lengthAdjust="spacing" textLength="225" x="2523.5" y="73.5669">com_example_MovieRepo_Provider</text><path d="M2217.5048,60.2665 A10,10 0 0 0 2217.8165 74.4052" fill="none" style="stroke:#181818;stroke-width:1.5;"/><ellipse cx="2224.73" cy="67.18" fill="#FFFFFF" rx="6" ry="6" style="stroke:#181818;stroke-width:1.5;"/></g><!--link aName to aName--><g id="link_aName_aName"><path d="M2224.82,66.89 C2364.63,63.11 2761.5,63.81 2761.5,69 C2761.5,74.19 2364.63,74.89 2224.82,71.11 " fill="none" id="aName-aName-2" style="stroke:#181818;stroke-width:1.0;"/><text fill="#000000" font-family="sans-serif" font-size="13" lengthAdjust="spacing" textLength="218" x="2774.5" y="73.5669">com_example_UserRepo_Provider</text><path d="M2217.5604,60.0126 A10,10 0 0 0 2217.9426 74.1496" fill="none" style="stroke:#181818;stroke-width:1.5;"/><ellipse cx="2224.82" cy="66.89" fill="#FFFFFF" rx="6" ry="6" style="stroke:#181818;stroke-width:1.5;"/></g><!--link aName to aName--><g id="link_aName_aName"><path d="M2224.78,66.63 C2401.74,61.1 3005.5,61.89 3005.5,69 C3005.5,76.11 2401.74,76.9 2224.78,71.37 " fill="none" id="aName-aName-3" style="stroke:#181818;stroke-width:1.0;"/><text fill="#000000" font-family="sans-serif" font-size="13" lengthAdjust="spacing" textLength="218" x="3018.5" y="73.5669">com_example_UserRepo_Provider</text><path d="M2217.4915,59.7832 A10,10 0 0 0 2217.9332 73.9185" fill="none" style="stroke:#181818;stroke-width:1.5;"/><ellipse cx="2224.78" cy="66.63" fill="#FFFFFF" rx="6" ry="6" style="stroke:#181818;stroke-width:1.5;"/></g><!--link aName to aName--><g id="link_aName_aName"><path d="M2224.8,66.42 C2434.14,59.09 3249.5,59.95 3249.5,69 C3249.5,78.05 2434.14,78.91 2224.8,71.58 " fill="none" id="aName-aName-4" style="stroke:#181818;stroke-width:1.0;"/><text fill="#000000" font-family="sans-serif" font-size="13" lengthAdjust="spacing" textLength="404" x="3262.5" y="73.5669">com_example_service_RecommendationClientService_Provider</text><path d="M2217.4858,59.6007 A10,10 0 0 0 2217.9807 73.7342" fill="none" style="stroke:#181818;stroke-width:1.5;"/><ellipse cx="2224.8" cy="66.42" fill="#FFFFFF" rx="6" ry="6" style="stroke:#181818;stroke-width:1.5;"/></g><!--link aName to aName--><g id="link_aName_aName"><path d="M2224.6,66.36 C2481.34,57.08 3679.5,57.96 3679.5,69 C3679.5,80.04 2481.34,80.92 2224.6,71.64 " fill="none" id="aName-aName-5" style="stroke:#181818;stroke-width:1.0;"/><text fill="#000000" font-family="sans-serif" font-size="13" lengthAdjust="spacing" textLength="296" x="3692.5" y="73.5669">com_example_service_RestTemplate_Provider</text><path d="M2217.2781,59.549 A10,10 0 0 0 2217.789 73.6819" fill="none" style="stroke:#181818;stroke-width:1.5;"/><ellipse cx="2224.6" cy="66.36" fill="#FFFFFF" rx="6" ry="6" style="stroke:#181818;stroke-width:1.5;"/></g><!--link aName to aName--><g id="link_aName_aName"><path d="M2224.71,66.22 C2513.97,55.07 4001.5,56 4001.5,69 C4001.5,82 2513.97,82.93 2224.71,71.78 " fill="none" id="aName-aName-6" style="stroke:#181818;stroke-width:1.0;"/><text fill="#000000" font-family="sans-serif" font-size="13" lengthAdjust="spacing" textLength="285" x="4014.5" y="73.5669">com_example_service_UserService_Provider</text><path d="M2217.3718,59.4265 A10,10 0 0 0 2217.9165 73.5582" fill="none" style="stroke:#181818;stroke-width:1.5;"/><ellipse cx="2224.71" cy="66.22" fill="#FFFFFF" rx="6" ry="6" style="stroke:#181818;stroke-width:1.5;"/></g><!--link aName to aName--><g id="link_aName_aName"><path d="M2224.7,66.09 C2542.85,53.07 4312.5,54.04 4312.5,69 C4312.5,83.96 2542.85,84.93 2224.7,71.91 " fill="none" id="aName-aName-7" style="stroke:#181818;stroke-width:1.0;"/><text fill="#000000" font-family="sans-serif" font-size="13" lengthAdjust="spacing" textLength="199" x="4325.5" y="73.5669">user_service_newuser_Provider</text><path d="M2217.3457,59.314 A10,10 0 0 0 2217.924 73.4443" fill="none" style="stroke:#181818;stroke-width:1.5;"/><ellipse cx="2224.7" cy="66.09" fill="#FFFFFF" rx="6" ry="6" style="stroke:#181818;stroke-width:1.5;"/></g><!--link aName to aName--><g id="link_aName_aName"><path d="M2224.56,65.93 C2562.89,51.07 4537.5,52.09 4537.5,69 C4537.5,85.91 2562.89,86.93 2224.56,72.07 " fill="none" id="aName-aName-8" style="stroke:#181818;stroke-width:1.0;"/><text fill="#000000" font-family="sans-serif" font-size="13" lengthAdjust="spacing" textLength="199" x="4550.5" y="73.5669">user_service_newuser_Provider</text><path d="M2217.1855,59.176 A10,10 0 0 0 2217.806 73.3045" fill="none" style="stroke:#181818;stroke-width:1.5;"/><ellipse cx="2224.56" cy="65.93" fill="#FFFFFF" rx="6" ry="6" style="stroke:#181818;stroke-width:1.5;"/></g><!--link aName to aName--><g id="link_aName_aName"><path d="M2224.55,65.78 C2582.71,49.06 4762.5,50.14 4762.5,69 C4762.5,87.86 2582.71,88.94 2224.55,72.22 " fill="none" id="aName-aName-9" style="stroke:#181818;stroke-width:1.0;"/><text fill="#000000" font-family="sans-serif" font-size="13" lengthAdjust="spacing" textLength="174" x="4775.5" y="73.5669">user_service_user_Provider</text><path d="M2217.1569,59.0464 A10,10 0 0 0 2217.8164 73.1731" fill="none" style="stroke:#181818;stroke-width:1.5;"/><ellipse cx="2224.55" cy="65.78" fill="#FFFFFF" rx="6" ry="6" style="stroke:#181818;stroke-width:1.5;"/></g><!--link aName to aName--><g id="link_aName_aName"><path d="M2224.64,65.63 C2600.59,47.06 4962.5,48.19 4962.5,69 C4962.5,89.81 2600.59,90.94 2224.64,72.37 " fill="none" id="aName-aName-10" style="stroke:#181818;stroke-width:1.0;"/><text fill="#000000" font-family="sans-serif" font-size="13" lengthAdjust="spacing" textLength="174" x="4975.5" y="73.5669">user_service_user_Provider</text><path d="M2217.2287,58.9164 A10,10 0 0 0 2217.9264 73.0413" fill="none" style="stroke:#181818;stroke-width:1.5;"/><ellipse cx="2224.64" cy="65.63" fill="#FFFFFF" rx="6" ry="6" style="stroke:#181818;stroke-width:1.5;"/></g><!--SRC=[lPHDImCn48Rl-oi2Nhn4sbLByLgyhRgihI3B4c9sjA7v8ib-YFZVJSKAuaKgExTC9k_xp4n2mauQnptNv5cEA-c5We8_WRhhmIlkd3Gl9FeECcDR8ANY0hPMjU3PF2TlMSrlkOQ6rBLkOGUH1kUJX0fbkvPgsqkW7eJL6apBexJcBBo62Fg4ZN5TFXJ3nJKigdwnsHQFozmDJPEz_sOXefPugFaCaNM9ny9i2n65o4Ayh7F42IAoSin7EDsVSN2bfpDA3i4LIJOCHgwT0dQpjwx0MLRwj4m5JQVQ1F0uegJffG1M_HZPIaamyVuhTvnVY6j8MpmUPx3lvgy5TEdijz30y1bFB_gluWC0]--></g></svg>