<?xml version="1.0" encoding="windows-1252" standalone="no"?>
<svg xmlns="http://www.w3.org/2000/svg" xmlns:xlink="http://www.w3.org/1999/xlink" contentStyleType="text/css" height="1057px" preserveAspectRatio="none" style="width:1823px;height:1057px;background:#FFFFFF;" version="1.1" viewBox="0 0 1823 1057" width="1823px" zoomAndPan="magnify"><defs/><g><!--cluster task--><g id="cluster_task"><rect fill="none" height="262.5" rx="2.5" ry="2.5" style="stroke:#181818;stroke-width:1.0;" width="383" x="7" y="257.5"/><rect fill="none" height="10" style="stroke:#181818;stroke-width:1.0;" width="15" x="370" y="262.5"/><rect fill="none" height="2" style="stroke:#181818;stroke-width:1.0;" width="4" x="368" y="264.5"/><rect fill="none" height="2" style="stroke:#181818;stroke-width:1.0;" width="4" x="368" y="268.5"/><text fill="#000000" font-family="sans-serif" font-size="14" font-weight="bold" lengthAdjust="spacing" textLength="131" x="133" y="283.4951">task-webservice</text></g><!--cluster comments--><g id="cluster_comments"><rect fill="none" height="139.5" rx="2.5" ry="2.5" style="stroke:#181818;stroke-width:1.0;" width="254" x="534" y="679.5"/><rect fill="none" height="10" style="stroke:#181818;stroke-width:1.0;" width="15" x="768" y="684.5"/><rect fill="none" height="2" style="stroke:#181818;stroke-width:1.0;" width="4" x="766" y="686.5"/><rect fill="none" height="2" style="stroke:#181818;stroke-width:1.0;" width="4" x="766" y="690.5"/><text fill="#000000" font-family="sans-serif" font-size="14" font-weight="bold" lengthAdjust="spacing" textLength="180" x="571" y="705.4951">comments-webservice</text></g><!--cluster user--><g id="cluster_user"><rect fill="none" height="139.5" rx="2.5" ry="2.5" style="stroke:#181818;stroke-width:1.0;" width="343" x="812" y="679.5"/><rect fill="none" height="10" style="stroke:#181818;stroke-width:1.0;" width="15" x="1135" y="684.5"/><rect fill="none" height="2" style="stroke:#181818;stroke-width:1.0;" width="4" x="1133" y="686.5"/><rect fill="none" height="2" style="stroke:#181818;stroke-width:1.0;" width="4" x="1133" y="690.5"/><text fill="#000000" font-family="sans-serif" font-size="14" font-weight="bold" lengthAdjust="spacing" textLength="130" x="918.5" y="705.4951">user-webservice</text></g><!--cluster auth--><g id="cluster_auth"><rect fill="none" height="139.5" rx="2.5" ry="2.5" style="stroke:#181818;stroke-width:1.0;" width="280" x="1477" y="679.5"/><rect fill="none" height="10" style="stroke:#181818;stroke-width:1.0;" width="15" x="1737" y="684.5"/><rect fill="none" height="2" style="stroke:#181818;stroke-width:1.0;" width="4" x="1735" y="686.5"/><rect fill="none" height="2" style="stroke:#181818;stroke-width:1.0;" width="4" x="1735" y="690.5"/><text fill="#000000" font-family="sans-serif" font-size="14" font-weight="bold" lengthAdjust="spacing" textLength="94" x="1570" y="705.4951">auth-server</text></g><text fill="#000000" font-family="sans-serif" font-size="14" lengthAdjust="spacing" textLength="4" x="284" y="236.1982"> </text><rect fill="#F1F1F1" height="12" style="stroke:#181818;stroke-width:1.5;" width="12" x="280" y="251.5"/><!--entity CommentsService--><g id="elem_CommentsService"><rect fill="#F1F1F1" height="46.2969" rx="2.5" ry="2.5" style="stroke:#181818;stroke-width:0.5;" width="172" x="188" y="450"/><rect fill="#F1F1F1" height="10" style="stroke:#181818;stroke-width:0.5;" width="15" x="340" y="455"/><rect fill="#F1F1F1" height="2" style="stroke:#181818;stroke-width:0.5;" width="4" x="338" y="457"/><rect fill="#F1F1F1" height="2" style="stroke:#181818;stroke-width:0.5;" width="4" x="338" y="461"/><text fill="#000000" font-family="sans-serif" font-size="14" lengthAdjust="spacing" textLength="132" x="203" y="482.9951">CommentsService</text></g><!--entity TaskController--><g id="elem_TaskController"><rect fill="#F1F1F1" height="46.2969" rx="2.5" ry="2.5" style="stroke:#181818;stroke-width:0.5;" width="146" x="31" y="327"/><rect fill="#F1F1F1" height="10" style="stroke:#181818;stroke-width:0.5;" width="15" x="157" y="332"/><rect fill="#F1F1F1" height="2" style="stroke:#181818;stroke-width:0.5;" width="4" x="155" y="334"/><rect fill="#F1F1F1" height="2" style="stroke:#181818;stroke-width:0.5;" width="4" x="155" y="338"/><text fill="#000000" font-family="sans-serif" font-size="14" lengthAdjust="spacing" textLength="106" x="46" y="359.9951">TaskController</text></g><text fill="#000000" font-family="sans-serif" font-size="14" lengthAdjust="spacing" textLength="4" x="388" y="430.4951"> </text><rect fill="#F1F1F1" height="12" style="stroke:#181818;stroke-width:1.5;" width="12" x="384" y="405.5"/><text fill="#000000" font-family="sans-serif" font-size="14" lengthAdjust="spacing" textLength="4" x="550" y="658.1982"> </text><rect fill="#F1F1F1" height="12" style="stroke:#181818;stroke-width:1.5;" width="12" x="546" y="673.5"/><!--entity CommentsController--><g id="elem_CommentsController"><rect fill="#F1F1F1" height="46.2969" rx="2.5" ry="2.5" style="stroke:#181818;stroke-width:0.5;" width="192" x="572" y="749"/><rect fill="#F1F1F1" height="10" style="stroke:#181818;stroke-width:0.5;" width="15" x="744" y="754"/><rect fill="#F1F1F1" height="2" style="stroke:#181818;stroke-width:0.5;" width="4" x="742" y="756"/><rect fill="#F1F1F1" height="2" style="stroke:#181818;stroke-width:0.5;" width="4" x="742" y="760"/><text fill="#000000" font-family="sans-serif" font-size="14" lengthAdjust="spacing" textLength="152" x="587" y="781.9951">CommentsController</text></g><text fill="#000000" font-family="sans-serif" font-size="14" lengthAdjust="spacing" textLength="4" x="1057" y="658.1982"> </text><rect fill="#F1F1F1" height="12" style="stroke:#181818;stroke-width:1.5;" width="12" x="1053" y="673.5"/><!--entity UserController--><g id="elem_UserController"><rect fill="#F1F1F1" height="46.2969" rx="2.5" ry="2.5" style="stroke:#181818;stroke-width:0.5;" width="144" x="987" y="749"/><rect fill="#F1F1F1" height="10" style="stroke:#181818;stroke-width:0.5;" width="15" x="1111" y="754"/><rect fill="#F1F1F1" height="2" style="stroke:#181818;stroke-width:0.5;" width="4" x="1109" y="756"/><rect fill="#F1F1F1" height="2" style="stroke:#181818;stroke-width:0.5;" width="4" x="1109" y="760"/><text fill="#000000" font-family="sans-serif" font-size="14" lengthAdjust="spacing" textLength="104" x="1002" y="781.9951">UserController</text></g><text fill="#000000" font-family="sans-serif" font-size="14" lengthAdjust="spacing" textLength="4" x="1493" y="658.1982"> </text><rect fill="#F1F1F1" height="12" style="stroke:#181818;stroke-width:1.5;" width="12" x="1489" y="673.5"/><!--entity AuthUserController--><g id="elem_AuthUserController"><rect fill="#F1F1F1" height="46.2969" rx="2.5" ry="2.5" style="stroke:#181818;stroke-width:0.5;" width="178" x="1555" y="749"/><rect fill="#F1F1F1" height="10" style="stroke:#181818;stroke-width:0.5;" width="15" x="1713" y="754"/><rect fill="#F1F1F1" height="2" style="stroke:#181818;stroke-width:0.5;" width="4" x="1711" y="756"/><rect fill="#F1F1F1" height="2" style="stroke:#181818;stroke-width:0.5;" width="4" x="1711" y="760"/><text fill="#000000" font-family="sans-serif" font-size="14" lengthAdjust="spacing" textLength="138" x="1570" y="781.9951">AuthUserController</text></g><!--entity gateway--><g id="elem_gateway"><rect fill="#F1F1F1" height="46.2969" rx="2.5" ry="2.5" style="stroke:#181818;stroke-width:0.5;" width="128" x="1249" y="7"/><rect fill="#F1F1F1" height="10" style="stroke:#181818;stroke-width:0.5;" width="15" x="1357" y="12"/><rect fill="#F1F1F1" height="2" style="stroke:#181818;stroke-width:0.5;" width="4" x="1355" y="14"/><rect fill="#F1F1F1" height="2" style="stroke:#181818;stroke-width:0.5;" width="4" x="1355" y="18"/><text fill="#000000" font-family="sans-serif" font-size="14" lengthAdjust="spacing" textLength="88" x="1264" y="39.9951">api-gateway</text></g><!--entity zipkin--><g id="elem_zipkin"><rect fill="#F1F1F1" height="46.2969" rx="2.5" ry="2.5" style="stroke:#181818;stroke-width:0.5;" width="135" x="493.5" y="882"/><rect fill="#F1F1F1" height="10" style="stroke:#181818;stroke-width:0.5;" width="15" x="608.5" y="887"/><rect fill="#F1F1F1" height="2" style="stroke:#181818;stroke-width:0.5;" width="4" x="606.5" y="889"/><rect fill="#F1F1F1" height="2" style="stroke:#181818;stroke-width:0.5;" width="4" x="606.5" y="893"/><text fill="#000000" font-family="sans-serif" font-size="14" lengthAdjust="spacing" textLength="95" x="508.5" y="914.9951">zipkin-server</text></g><!--entity registry--><g id="elem_registry"><rect fill="#F1F1F1" height="46.2969" rx="2.5" ry="2.5" style="stroke:#181818;stroke-width:0.5;" width="183" x="1141.5" y="882"/><rect fill="#F1F1F1" height="10" style="stroke:#181818;stroke-width:0.5;" width="15" x="1304.5" y="887"/><rect fill="#F1F1F1" height="2" style="stroke:#181818;stroke-width:0.5;" width="4" x="1302.5" y="889"/><rect fill="#F1F1F1" height="2" style="stroke:#181818;stroke-width:0.5;" width="4" x="1302.5" y="893"/><text fill="#000000" font-family="sans-serif" font-size="14" lengthAdjust="spacing" textLength="143" x="1156.5" y="914.9951">webservice-registry</text></g><!--entity config--><g id="elem_config"><rect fill="#F1F1F1" height="46.2969" rx="2.5" ry="2.5" style="stroke:#181818;stroke-width:0.5;" width="136" x="851" y="1005"/><rect fill="#F1F1F1" height="10" style="stroke:#181818;stroke-width:0.5;" width="15" x="967" y="1010"/><rect fill="#F1F1F1" height="2" style="stroke:#181818;stroke-width:0.5;" width="4" x="965" y="1012"/><rect fill="#F1F1F1" height="2" style="stroke:#181818;stroke-width:0.5;" width="4" x="965" y="1016"/><text fill="#000000" font-family="sans-serif" font-size="14" lengthAdjust="spacing" textLength="96" x="866" y="1037.9951">config-server</text></g><!--entity portal--><g id="elem_portal"><rect fill="#F1F1F1" height="46.2969" rx="2.5" ry="2.5" style="stroke:#181818;stroke-width:0.5;" width="120" x="1171" y="749"/><rect fill="#F1F1F1" height="10" style="stroke:#181818;stroke-width:0.5;" width="15" x="1271" y="754"/><rect fill="#F1F1F1" height="2" style="stroke:#181818;stroke-width:0.5;" width="4" x="1269" y="756"/><rect fill="#F1F1F1" height="2" style="stroke:#181818;stroke-width:0.5;" width="4" x="1269" y="760"/><text fill="#000000" font-family="sans-serif" font-size="14" lengthAdjust="spacing" textLength="80" x="1186" y="781.9951">web-portal</text></g><!--entity generalInterface--><g id="elem_generalInterface"><ellipse cx="594" cy="159" fill="#F1F1F1" rx="8" ry="8" style="stroke:#181818;stroke-width:0.5;"/><text fill="#000000" font-family="sans-serif" font-size="14" lengthAdjust="spacing" textLength="93" x="547.5" y="188.9951">/task-service</text></g><!--entity generalInterface1--><g id="elem_generalInterface1"><ellipse cx="1207" cy="159" fill="#F1F1F1" rx="8" ry="8" style="stroke:#181818;stroke-width:0.5;"/><text fill="#000000" font-family="sans-serif" font-size="14" lengthAdjust="spacing" textLength="92" x="1161" y="188.9951">/user-service</text></g><!--entity CommentsInterface--><g id="elem_CommentsInterface"><ellipse cx="552" cy="565" fill="#F1F1F1" rx="8" ry="8" style="stroke:#181818;stroke-width:0.5;"/><text fill="#000000" font-family="sans-serif" font-size="14" lengthAdjust="spacing" textLength="82" x="511" y="594.9951">/comments</text></g><!--entity authInterface--><g id="elem_authInterface"><ellipse cx="1481" cy="159" fill="#F1F1F1" rx="8" ry="8" style="stroke:#181818;stroke-width:0.5;"/><text fill="#000000" font-family="sans-serif" font-size="14" lengthAdjust="spacing" textLength="67" x="1447.5" y="188.9951">/userauth</text></g><!--link generalInterface to TaskIn1--><g id="link_generalInterface_TaskIn1"><path d="M584.782,162.888 C538.339,177.439 330.688,242.499 292.161,254.57 " fill="none" id="generalInterface-TaskIn1" style="stroke:#181818;stroke-width:1.0;"/></g><!--link TaskIn1 to TaskController--><g id="link_TaskIn1_TaskController"><path d="M279.945,261.511 C259.775,271.54 193.601,304.446 148.413,326.915 " fill="none" id="TaskIn1-TaskController" style="stroke:#181818;stroke-width:1.0;"/></g><!--link TaskController to CommentsService--><g id="link_TaskController_CommentsService"><path d="M129.345,373.058 C145.89,387.08 168.204,405.296 189,420 C203.69,430.387 215.3269,437.831 230.0779,446.674 " fill="none" id="TaskController-to-CommentsService" style="stroke:#181818;stroke-width:1.0;stroke-dasharray:7.0,7.0;"/><polygon fill="#181818" points="235.224,449.759,229.5615,441.7007,230.9356,447.1881,225.4481,448.5622,235.224,449.759" style="stroke:#181818;stroke-width:1.0;"/><text fill="#000000" font-family="sans-serif" font-size="13" lengthAdjust="spacing" textLength="52" x="190" y="416.0669">requires</text></g><!--link CommentsService to TaskOut1--><g id="link_CommentsService_TaskOut1"><path d="M317.78,449.927 C335.849,440.753 356.975,429.944 376,420 C378.541,418.672 381.328,417.185 383.742,415.887 " fill="none" id="CommentsService-TaskOut1" style="stroke:#181818;stroke-width:1.0;stroke-dasharray:7.0,7.0;"/></g><!--link TaskOut1 to CommentsInterface--><g id="link_TaskOut1_CommentsInterface"><path d="M395.39,417.541 C418.998,439.618 509.0327,523.8178 538.6697,551.5338 " fill="none" id="TaskOut1-to-CommentsInterface" style="stroke:#181818;stroke-width:1.0;stroke-dasharray:7.0,7.0;"/><polygon fill="#181818" points="543.052,555.632,539.2107,546.5631,539.4001,552.2168,533.7464,552.4062,543.052,555.632" style="stroke:#181818;stroke-width:1.0;"/><text fill="#000000" font-family="sans-serif" font-size="13" lengthAdjust="spacing" textLength="52" x="514" y="477.5669">requires</text></g><!--link CommentsInterface to commentsIn1--><g id="link_CommentsInterface_commentsIn1"><path d="M552,574.091 C552,595.855 552,655.223 552,673.244 " fill="none" id="CommentsInterface-commentsIn1" style="stroke:#181818;stroke-width:1.0;"/></g><!--link commentsIn1 to CommentsController--><g id="link_commentsIn1_CommentsController"><path d="M558.237,685.366 C573.296,697.114 612.407,727.628 639.623,748.861 " fill="none" id="commentsIn1-CommentsController" style="stroke:#181818;stroke-width:1.0;"/></g><!--link generalInterface1 to UserIn1--><g id="link_generalInterface1_UserIn1"><path d="M1197.83,166.581 C1179.27,180.744 1139,216.125 1139,256.5 C1139,256.5 1139,256.5 1139,566 C1139,617.048 1083.62,661.03 1065.01,674.365 " fill="none" id="generalInterface1-UserIn1" style="stroke:#181818;stroke-width:1.0;"/></g><!--link UserIn1 to UserController--><g id="link_UserIn1_UserController"><path d="M1059,685.625 C1059,697.516 1059,727.57 1059,748.638 " fill="none" id="UserIn1-UserController" style="stroke:#181818;stroke-width:1.0;"/></g><!--link authInterface to authIn--><g id="link_authInterface_authIn"><path d="M1481.72,168.254 C1483.1,184.919 1486,223.787 1486,256.5 C1486,256.5 1486,256.5 1486,566 C1486,607.539 1492.17,657.43 1494.29,673.354 " fill="none" id="authInterface-authIn" style="stroke:#181818;stroke-width:1.0;"/></g><!--link authIn to AuthUserController--><g id="link_authIn_AuthUserController"><path d="M1501.03,684.16 C1518.67,694.874 1571.23,726.803 1607.46,748.807 " fill="none" id="authIn-AuthUserController" style="stroke:#181818;stroke-width:1.0;"/></g><!--link gateway to generalInterface--><g id="link_gateway_generalInterface"><path d="M1248.82,31.64 C1110.5,33.76 788.68,42.99 688,83 C650.36,97.956 619.7867,128.8435 605.2477,145.0935 " fill="none" id="gateway-to-generalInterface" style="stroke:#181818;stroke-width:1.0;stroke-dasharray:7.0,7.0;"/><polygon fill="#181818" points="601.247,149.565,610.2291,145.5249,604.5809,145.8387,604.267,140.1906,601.247,149.565" style="stroke:#181818;stroke-width:1.0;"/><text fill="#000000" font-family="sans-serif" font-size="13" lengthAdjust="spacing" textLength="75" x="689" y="96.0669">depends on</text></g><!--link gateway to generalInterface1--><g id="link_gateway_generalInterface1"><path d="M1294.54,53.122 C1270.57,81.833 1233.7643,125.9263 1217.6843,145.1953 " fill="none" id="gateway-to-generalInterface1" style="stroke:#181818;stroke-width:1.0;stroke-dasharray:7.0,7.0;"/><polygon fill="#181818" points="1213.84,149.802,1222.6775,145.4548,1217.0436,145.9631,1216.5353,140.3291,1213.84,149.802" style="stroke:#181818;stroke-width:1.0;"/><text fill="#000000" font-family="sans-serif" font-size="13" lengthAdjust="spacing" textLength="75" x="1271" y="96.0669">depends on</text></g><!--link gateway to CommentsInterface--><g id="link_gateway_CommentsInterface"><path d="M1248.99,33.18 C1109.6,39.68 791,64.731 791,158 C791,158 791,158 791,412.5 C791,523.527 610.6729,555.748 567.0169,561.973 " fill="none" id="gateway-to-CommentsInterface" style="stroke:#181818;stroke-width:1.0;stroke-dasharray:7.0,7.0;"/><polygon fill="#181818" points="561.077,562.82,570.5515,565.5095,566.0269,562.1142,569.4222,557.5896,561.077,562.82" style="stroke:#181818;stroke-width:1.0;"/><text fill="#000000" font-family="sans-serif" font-size="13" lengthAdjust="spacing" textLength="75" x="792" y="262.0669">depends on</text></g><!--link gateway to authInterface--><g id="link_gateway_authInterface"><path d="M1360.13,53.232 C1375.97,61.617 1393.33,71.851 1408,83 C1435.49,103.89 1458.5758,130.4442 1470.6258,145.1412 " fill="none" id="gateway-to-authInterface" style="stroke:#181818;stroke-width:1.0;stroke-dasharray:7.0,7.0;"/><polygon fill="#181818" points="1474.43,149.781,1471.8169,140.2851,1471.2598,145.9145,1465.6305,145.3574,1474.43,149.781" style="stroke:#181818;stroke-width:1.0;"/><text fill="#000000" font-family="sans-serif" font-size="13" lengthAdjust="spacing" textLength="75" x="1429" y="96.0669">depends on</text></g><!--link comments to config--><g id="link_comments_config"><path d="M464.19,781.568 C450.574,807.092 415.006,883.595 451,928 C500.55,989.1279 727.1987,1013.5566 844.7147,1022.356 " fill="none" id="comments-to-config" style="stroke:#181818;stroke-width:1.0;stroke-dasharray:7.0,7.0;"/><polygon fill="#181818" points="850.698,1022.804,842.0218,1018.1431,845.712,1022.4307,841.4244,1026.1208,850.698,1022.804" style="stroke:#181818;stroke-width:1.0;"/><text fill="#000000" font-family="sans-serif" font-size="13" lengthAdjust="spacing" textLength="23" x="452" y="909.5669">use</text></g><!--link auth to config--><g id="link_auth_config"><path d="M1483.1769,819.2497 C1483.1378,819.3516 1483.0985,819.4535 1483.0592,819.5554 C1482.4295,821.1859 1481.7697,822.8208 1481.0785,824.4529 C1479.6962,827.7172 1478.1885,830.9704 1476.5461,834.1557 C1473.2613,840.5265 1469.4375,846.626 1465,852 C1424.09,901.555 1401.39,903.469 1342,928 C1222.1,977.5225 1078.3034,1004.2978 992.9464,1017.1223 " fill="none" id="auth-to-config" style="stroke:#181818;stroke-width:1.0;stroke-dasharray:7.0,7.0;"/><polygon fill="#181818" points="987.013,1018.0138,996.5074,1020.6322,991.9575,1017.2709,995.3188,1012.721,987.013,1018.0138" style="stroke:#181818;stroke-width:1.0;"/><text fill="#000000" font-family="sans-serif" font-size="13" lengthAdjust="spacing" textLength="23" x="1437" y="909.5669">use</text></g><!--link gateway to config--><g id="link_gateway_config"><path d="M1377.47,34.65 C1507.94,43.81 1791,73.423 1791,158 C1791,158 1791,158 1791,906 C1791,987.0527 1198.2756,1016.6323 993.0566,1024.4691 " fill="none" id="gateway-to-config" style="stroke:#181818;stroke-width:1.0;stroke-dasharray:7.0,7.0;"/><polygon fill="#181818" points="987.061,1024.6981,996.2071,1028.3517,992.0574,1024.5073,995.9018,1020.3576,987.061,1024.6981" style="stroke:#181818;stroke-width:1.0;"/><text fill="#000000" font-family="sans-serif" font-size="13" lengthAdjust="spacing" textLength="23" x="1792" y="477.5669">use</text></g><!--link task to config--><g id="link_task_config"><path d="M135,520.1377 C135,520.529 135,520.9236 135,521.3213 C135,522.9124 135,524.5547 135,526.25 C135,580.5 135,689 135,906 C135,978.1322 654.0629,1012.9136 844.8059,1023.2876 " fill="none" id="task-to-config" style="stroke:#181818;stroke-width:1.0;stroke-dasharray:7.0,7.0;"/><polygon fill="#181818" points="850.797,1023.6134,842.0275,1019.1305,845.8044,1023.3419,841.5931,1027.1187,850.797,1023.6134" style="stroke:#181818;stroke-width:1.0;"/><text fill="#000000" font-family="sans-serif" font-size="13" lengthAdjust="spacing" textLength="23" x="136" y="684.0669">use</text></g><!--link user to config--><g id="link_user_config"><path d="M895.211,819.2814 C894.858,820.7498 894.507,822.2423 894.1592,823.757 C892.768,829.8159 891.4279,836.2316 890.218,842.8969 C885.3783,869.558 882.6205,900.2125 887,928 C891.274,955.1211 899.5476,979.3577 907.3576,999.1073 " fill="none" id="user-to-config" style="stroke:#181818;stroke-width:1.0;stroke-dasharray:7.0,7.0;"/><polygon fill="#181818" points="909.564,1004.6869,909.974,994.8466,907.7253,1000.0373,902.5346,997.7885,909.564,1004.6869" style="stroke:#181818;stroke-width:1.0;"/><text fill="#000000" font-family="sans-serif" font-size="13" lengthAdjust="spacing" textLength="23" x="888" y="909.5669">use</text></g><!--link portal to config--><g id="link_portal_config"><path d="M1204.48,795.213 C1188.81,806.958 1167.97,820.3 1147,827 C1128.99,832.754 991.91,823.373 977,835 C949.883,856.143 931.0706,953.0204 923.4386,998.8974 " fill="none" id="portal-to-config" style="stroke:#181818;stroke-width:1.0;stroke-dasharray:7.0,7.0;"/><polygon fill="#181818" points="922.454,1004.8161,927.8767,996.5945,923.2745,999.8839,919.9852,995.2817,922.454,1004.8161" style="stroke:#181818;stroke-width:1.0;"/><text fill="#000000" font-family="sans-serif" font-size="13" lengthAdjust="spacing" textLength="23" x="952" y="909.5669">use</text></g><!--link registry to config--><g id="link_registry_config"><path d="M1175.77,928.053 C1119.08,949.899 1038.3487,981.0099 981.6977,1002.8396 " fill="none" id="registry-to-config" style="stroke:#181818;stroke-width:1.0;stroke-dasharray:7.0,7.0;"/><polygon fill="#181818" points="976.099,1004.997,985.9353,1005.4934,980.7646,1003.1992,983.0588,998.0284,976.099,1004.997" style="stroke:#181818;stroke-width:1.0;"/><text fill="#000000" font-family="sans-serif" font-size="13" lengthAdjust="spacing" textLength="23" x="1096" y="971.0669">use</text></g><!--link zipkin to config--><g id="link_zipkin_config"><path d="M626.246,928.053 C690.884,949.899 783.6289,981.2461 848.2159,1003.0758 " fill="none" id="zipkin-to-config" style="stroke:#181818;stroke-width:1.0;stroke-dasharray:7.0,7.0;"/><polygon fill="#181818" points="853.9,1004.997,846.6546,998.3258,849.1632,1003.396,844.0931,1005.9047,853.9,1004.997" style="stroke:#181818;stroke-width:1.0;"/><text fill="#000000" font-family="sans-serif" font-size="13" lengthAdjust="spacing" textLength="23" x="763" y="971.0669">use</text></g><!--link comments to registry--><g id="link_comments_registry"><path d="M480.8,781.604 C499.056,794.348 535.731,817.731 571,827 C602.713,835.335 833.396,831.515 866,835 C960.602,845.111 1061.48,865.0153 1135.36,881.2623 " fill="none" id="comments-to-registry" style="stroke:#181818;stroke-width:1.0;stroke-dasharray:7.0,7.0;"/><polygon fill="#181818" points="1141.22,882.551,1133.2891,876.7113,1136.3367,881.4771,1131.5709,884.5246,1141.22,882.551" style="stroke:#181818;stroke-width:1.0;"/><text fill="#000000" font-family="sans-serif" font-size="13" lengthAdjust="spacing" textLength="23" x="979" y="848.0669">use</text></g><!--link auth to registry--><g id="link_auth_registry"><path d="M1476.8084,794.1605 C1476.6465,794.3366 1476.4837,794.5134 1476.32,794.6908 C1475.6651,795.4007 1474.996,796.1215 1474.3131,796.8521 C1468.85,802.6968 1462.505,809.1703 1455.525,815.7381 C1441.565,828.8738 1425.065,842.3865 1408,852 C1382.46,866.39 1358.2916,875.5304 1330.4816,883.4304 " fill="none" id="auth-to-registry" style="stroke:#181818;stroke-width:1.0;stroke-dasharray:7.0,7.0;"/><polygon fill="#181818" points="1324.71,885.07,1334.4605,886.4584,1329.5197,883.7037,1332.2744,878.7629,1324.71,885.07" style="stroke:#181818;stroke-width:1.0;"/><text fill="#000000" font-family="sans-serif" font-size="13" lengthAdjust="spacing" textLength="23" x="1433" y="848.0669">use</text></g><!--link gateway to registry--><g id="link_gateway_registry"><path d="M1334.08,53.352 C1354.37,77.29 1382,117.35 1382,158 C1382,158 1382,158 1382,773 C1382,824.666 1336.214,858.0925 1293.854,879.1265 " fill="none" id="gateway-to-registry" style="stroke:#181818;stroke-width:1.0;stroke-dasharray:7.0,7.0;"/><polygon fill="#181818" points="1288.48,881.795,1298.3199,881.375,1292.9583,879.5713,1294.762,874.2097,1288.48,881.795" style="stroke:#181818;stroke-width:1.0;"/><text fill="#000000" font-family="sans-serif" font-size="13" lengthAdjust="spacing" textLength="23" x="1383" y="416.0669">use</text></g><!--link task to registry--><g id="link_task_registry"><path d="M390.4018,362.7975 C391.2438,362.8993 392.0899,363.0018 392.94,363.1048 C394.6402,363.311 396.3565,363.5197 398.0885,363.7309 C411.9453,365.4206 426.813,367.2722 442.5319,369.2817 C473.9698,373.3007 508.8128,377.9516 545.783,383.2035 C619.7234,393.7073 702.1729,406.6154 782.9096,421.6814 C944.383,451.8133 1099.005,490.5765 1165,536 C1250.81,595.062 1262.58,633.068 1292,733 C1303.8,773.077 1305.42,787.435 1292,827 C1284.92,847.894 1273.7153,863.1726 1260.4853,877.4036 " fill="none" id="task-to-registry" style="stroke:#181818;stroke-width:1.0;stroke-dasharray:7.0,7.0;"/><polygon fill="#181818" points="1256.4,881.798,1265.4575,877.93,1259.8044,878.136,1259.5983,872.4829,1256.4,881.798" style="stroke:#181818;stroke-width:1.0;"/><text fill="#000000" font-family="sans-serif" font-size="13" lengthAdjust="spacing" textLength="23" x="1262" y="637.0669">use</text></g><!--link user to registry--><g id="link_user_registry"><path d="M968.7489,819.1613 C968.9577,819.2735 969.1667,819.3852 969.3759,819.4964 C969.7944,819.7188 970.2136,819.9393 970.6337,820.1578 C972.3137,821.0317 974.006,821.8732 975.7073,822.6768 C979.11,824.2841 982.5491,825.7399 986,827 C1023.72,840.775 1037.1,825.012 1076,835 C1117.38,845.627 1156.3608,863.2838 1187.3208,879.1558 " fill="none" id="user-to-registry" style="stroke:#181818;stroke-width:1.0;stroke-dasharray:7.0,7.0;"/><polygon fill="#181818" points="1192.66,881.893,1186.4759,874.2277,1188.2106,879.612,1182.8263,881.3467,1192.66,881.893" style="stroke:#181818;stroke-width:1.0;"/><text fill="#000000" font-family="sans-serif" font-size="13" lengthAdjust="spacing" textLength="23" x="1127" y="848.0669">use</text></g><!--link portal to registry--><g id="link_portal_registry"><path d="M1231.34,795.222 C1231.71,819.312 1232.198,851.5377 1232.568,875.6697 " fill="none" id="portal-to-registry" style="stroke:#181818;stroke-width:1.0;stroke-dasharray:7.0,7.0;"/><polygon fill="#181818" points="1232.66,881.669,1236.5216,872.6087,1232.5833,876.6696,1228.5225,872.7314,1232.66,881.669" style="stroke:#181818;stroke-width:1.0;"/><text fill="#000000" font-family="sans-serif" font-size="13" lengthAdjust="spacing" textLength="23" x="1234" y="848.0669">use</text></g><!--link comments to zipkin--><g id="link_comments_zipkin"><path d="M475.036,781.595 C489.188,801.746 521.4168,847.6358 542.0878,877.0708 " fill="none" id="comments-to-zipkin" style="stroke:#181818;stroke-width:1.0;stroke-dasharray:7.0,7.0;"/><polygon fill="#181818" points="545.536,881.981,543.6371,872.3169,542.6625,877.8892,537.0902,876.9145,545.536,881.981" style="stroke:#181818;stroke-width:1.0;"/><text fill="#000000" font-family="sans-serif" font-size="13" lengthAdjust="spacing" textLength="125" x="525" y="848.0669">Sends Tracing Data</text></g><!--link task to zipkin--><g id="link_task_zipkin"><path d="M390.0126,393.7831 C390.2973,394.1029 390.5794,394.4251 390.8587,394.7496 C393.0932,397.3457 395.1516,400.093 397,403 C459.246,500.898 355.5,542.668 339,657.5 C335.112,684.555 336.992,691.741 339,719 C342.565,767.393 324.485,789.272 355,827 C364.244,838.429 431.2127,862.0995 487.6537,880.6395 " fill="none" id="task-to-zipkin" style="stroke:#181818;stroke-width:1.0;stroke-dasharray:7.0,7.0;"/><polygon fill="#181818" points="493.354,882.512,486.0518,875.9031,488.6037,880.9516,483.5552,883.5035,493.354,882.512" style="stroke:#181818;stroke-width:1.0;"/><text fill="#000000" font-family="sans-serif" font-size="13" lengthAdjust="spacing" textLength="125" x="348" y="637.0669">Sends Tracing Data</text></g><!--link user to zipkin--><g id="link_user_zipkin"><path d="M811.6057,816.5768 C801.0591,820.4497 790.386,824.0233 780,827 C758.788,833.08 752.245,829.036 731,835 C687.913,847.096 646.3811,864.2248 612.7431,879.4508 " fill="none" id="user-to-zipkin" style="stroke:#181818;stroke-width:1.0;stroke-dasharray:7.0,7.0;"/><polygon fill="#181818" points="607.277,881.925,617.1256,881.8578,611.8321,879.8632,613.8267,874.5696,607.277,881.925" style="stroke:#181818;stroke-width:1.0;"/><text fill="#000000" font-family="sans-serif" font-size="13" lengthAdjust="spacing" textLength="125" x="732" y="848.0669">Sends Tracing Data</text></g><!--SRC=[VLKzS-CW5Ap5hs3Sk99lVAMBcxd9DQbI9AbkKc2P-9ZOe4CedYIJ_vx7byHxAAuCoxBiFZsmCprtXk-DS-RC3yhApYcZ6UlCkJTQQiV_YbwrH-7aHRmzSJ7mD4QSTzM_ADqEqhvA6rWHGQIBt7k2wcHhvL4DpaR1F47apkXdTImL8q8LszvO9qw14OUCAUsaVHQTvAiVJWmlRJfs5UnBBQqutMOEfez0lKhVOZwOEOEL8N1lqgJGHdQ3bxaAmRF7-0Thl7Ub-Oe7fGT0R_MMDUib_2Th2jLywdsXIZ34znetHZjhJgTKMWn5CsPqvQbtemCxOCW52xa2RJjxMgTH1aj5MiPv8wYcmT8-FEURpI-QZU-WWVwFqBe3Q-ZQPbEOpoEaCZigT3v9AqOg_NGPhpzVDubl5pyLANyD-qhN3g4-L3bF_Dg230uIcfk4y5WTu15GQjvZn3Y6lEdgkdXZareQP0mRPMnDRwBljLM-9UXMKQOOtR_0z8E2MRvZi5A-9tvU9u_xKV3V02s4hs7MeDDzp2mNVpsoi0t2fqSrj6PrLtRy87kf3mE7f_aQS_izTQdV2-gwvE8h_gqa3ejeRBeRdXXVRc30bsAXx1LQwgA5y3vMQEZQ2etlVutdFvXw9VvBrJZsF-qd2GXUPY1BKmg2Jpa8NYGXAzXPyh_Zzw7o3rPqIX_v7-74VEOrqcJW2kaB]--></g></svg>