<?xml version="1.0" encoding="us-ascii" standalone="no"?><svg xmlns="http://www.w3.org/2000/svg" xmlns:xlink="http://www.w3.org/1999/xlink" contentStyleType="text/css" height="125px" preserveAspectRatio="none" style="width:6727px;height:125px;background:#FFFFFF;" version="1.1" viewBox="0 0 6727 125" width="6727px" zoomAndPan="magnify"><defs/><g><!--cluster Placeholder_29--><g id="cluster_Placeholder_29"><polygon fill="none" points="6106,16,6116,6,6710,6,6710,98,6700,108,6106,108,6106,16" style="stroke:#181818;stroke-width:1.0;"/><line style="stroke:#181818;stroke-width:1.0;" x1="6700" x2="6710" y1="16" y2="6"/><line style="stroke:#181818;stroke-width:1.0;" x1="6106" x2="6700" y1="16" y2="16"/><line style="stroke:#181818;stroke-width:1.0;" x1="6700" x2="6700" y1="16" y2="108"/><text fill="#000000" font-family="sans-serif" font-size="14" font-weight="bold" lengthAdjust="spacing" textLength="120" x="6344" y="31.9951">Placeholder_29</text></g><!--entity aName--><g id="elem_aName"><a href="cloudscale-project-cloudstore.system#_xPCmCrw4Ee6CfrIq4ycKqQ" target="_top" title="cloudscale-project-cloudstore.system#_xPCmCrw4Ee6CfrIq4ycKqQ" xlink:actuate="onRequest" xlink:href="cloudscale-project-cloudstore.system#_xPCmCrw4Ee6CfrIq4ycKqQ" xlink:show="new" xlink:title="cloudscale-project-cloudstore.system#_xPCmCrw4Ee6CfrIq4ycKqQ" xlink:type="simple"><rect fill="#F1F1F1" height="46.2969" rx="2.5" ry="2.5" style="stroke:#181818;stroke-width:0.5;" width="88" x="6122" y="46"/><rect fill="#F1F1F1" height="10" style="stroke:#181818;stroke-width:0.5;" width="15" x="6190" y="51"/><rect fill="#F1F1F1" height="2" style="stroke:#181818;stroke-width:0.5;" width="4" x="6188" y="53"/><rect fill="#F1F1F1" height="2" style="stroke:#181818;stroke-width:0.5;" width="4" x="6188" y="57"/><text fill="#000000" font-family="sans-serif" font-size="14" lengthAdjust="spacing" textLength="48" x="6137" y="78.9951">aName</text></a></g><!--entity Placeholder_30--><g id="elem_Placeholder_30"><polygon fill="#F1F1F1" points="16,56,26,46,162,46,162,82.2969,152,92.2969,16,92.2969,16,56" style="stroke:#181818;stroke-width:0.5;"/><line style="stroke:#181818;stroke-width:0.5;" x1="152" x2="162" y1="56" y2="46"/><line style="stroke:#181818;stroke-width:0.5;" x1="16" x2="152" y1="56" y2="56"/><line style="stroke:#181818;stroke-width:0.5;" x1="152" x2="152" y1="56" y2="92.2969"/><text fill="#000000" font-family="sans-serif" font-size="14" lengthAdjust="spacing" textLength="106" x="31" y="78.9951">Placeholder_30</text></g><!--entity Placeholder_32--><g id="elem_Placeholder_32"><polygon fill="#F1F1F1" points="197,56,207,46,343,46,343,82.2969,333,92.2969,197,92.2969,197,56" style="stroke:#181818;stroke-width:0.5;"/><line style="stroke:#181818;stroke-width:0.5;" x1="333" x2="343" y1="56" y2="46"/><line style="stroke:#181818;stroke-width:0.5;" x1="197" x2="333" y1="56" y2="56"/><line style="stroke:#181818;stroke-width:0.5;" x1="333" x2="333" y1="56" y2="92.2969"/><text fill="#000000" font-family="sans-serif" font-size="14" lengthAdjust="spacing" textLength="106" x="212" y="78.9951">Placeholder_32</text></g><!--entity Placeholder_8--><g id="elem_Placeholder_8"><polygon fill="#F1F1F1" points="378.5,56,388.5,46,515.5,46,515.5,82.2969,505.5,92.2969,378.5,92.2969,378.5,56" style="stroke:#181818;stroke-width:0.5;"/><line style="stroke:#181818;stroke-width:0.5;" x1="505.5" x2="515.5" y1="56" y2="46"/><line style="stroke:#181818;stroke-width:0.5;" x1="378.5" x2="505.5" y1="56" y2="56"/><line style="stroke:#181818;stroke-width:0.5;" x1="505.5" x2="505.5" y1="56" y2="92.2969"/><text fill="#000000" font-family="sans-serif" font-size="14" lengthAdjust="spacing" textLength="97" x="393.5" y="78.9951">Placeholder_8</text></g><!--entity Placeholder_36--><g id="elem_Placeholder_36"><polygon fill="#F1F1F1" points="551,56,561,46,697,46,697,82.2969,687,92.2969,551,92.2969,551,56" style="stroke:#181818;stroke-width:0.5;"/><line style="stroke:#181818;stroke-width:0.5;" x1="687" x2="697" y1="56" y2="46"/><line style="stroke:#181818;stroke-width:0.5;" x1="551" x2="687" y1="56" y2="56"/><line style="stroke:#181818;stroke-width:0.5;" x1="687" x2="687" y1="56" y2="92.2969"/><text fill="#000000" font-family="sans-serif" font-size="14" lengthAdjust="spacing" textLength="106" x="566" y="78.9951">Placeholder_36</text></g><!--entity Placeholder_35--><g id="elem_Placeholder_35"><polygon fill="#F1F1F1" points="732,56,742,46,878,46,878,82.2969,868,92.2969,732,92.2969,732,56" style="stroke:#181818;stroke-width:0.5;"/><line style="stroke:#181818;stroke-width:0.5;" x1="868" x2="878" y1="56" y2="46"/><line style="stroke:#181818;stroke-width:0.5;" x1="732" x2="868" y1="56" y2="56"/><line style="stroke:#181818;stroke-width:0.5;" x1="868" x2="868" y1="56" y2="92.2969"/><text fill="#000000" font-family="sans-serif" font-size="14" lengthAdjust="spacing" textLength="106" x="747" y="78.9951">Placeholder_35</text></g><!--entity Placeholder_47--><g id="elem_Placeholder_47"><polygon fill="#F1F1F1" points="913,56,923,46,1059,46,1059,82.2969,1049,92.2969,913,92.2969,913,56" style="stroke:#181818;stroke-width:0.5;"/><line style="stroke:#181818;stroke-width:0.5;" x1="1049" x2="1059" y1="56" y2="46"/><line style="stroke:#181818;stroke-width:0.5;" x1="913" x2="1049" y1="56" y2="56"/><line style="stroke:#181818;stroke-width:0.5;" x1="1049" x2="1049" y1="56" y2="92.2969"/><text fill="#000000" font-family="sans-serif" font-size="14" lengthAdjust="spacing" textLength="106" x="928" y="78.9951">Placeholder_47</text></g><!--entity Placeholder_26--><g id="elem_Placeholder_26"><polygon fill="#F1F1F1" points="1094,56,1104,46,1240,46,1240,82.2969,1230,92.2969,1094,92.2969,1094,56" style="stroke:#181818;stroke-width:0.5;"/><line style="stroke:#181818;stroke-width:0.5;" x1="1230" x2="1240" y1="56" y2="46"/><line style="stroke:#181818;stroke-width:0.5;" x1="1094" x2="1230" y1="56" y2="56"/><line style="stroke:#181818;stroke-width:0.5;" x1="1230" x2="1230" y1="56" y2="92.2969"/><text fill="#000000" font-family="sans-serif" font-size="14" lengthAdjust="spacing" textLength="106" x="1109" y="78.9951">Placeholder_26</text></g><!--entity Placeholder_9--><g id="elem_Placeholder_9"><polygon fill="#F1F1F1" points="1275.5,56,1285.5,46,1412.5,46,1412.5,82.2969,1402.5,92.2969,1275.5,92.2969,1275.5,56" style="stroke:#181818;stroke-width:0.5;"/><line style="stroke:#181818;stroke-width:0.5;" x1="1402.5" x2="1412.5" y1="56" y2="46"/><line style="stroke:#181818;stroke-width:0.5;" x1="1275.5" x2="1402.5" y1="56" y2="56"/><line style="stroke:#181818;stroke-width:0.5;" x1="1402.5" x2="1402.5" y1="56" y2="92.2969"/><text fill="#000000" font-family="sans-serif" font-size="14" lengthAdjust="spacing" textLength="97" x="1290.5" y="78.9951">Placeholder_9</text></g><!--entity Placeholder_14--><g id="elem_Placeholder_14"><polygon fill="#F1F1F1" points="1448,56,1458,46,1594,46,1594,82.2969,1584,92.2969,1448,92.2969,1448,56" style="stroke:#181818;stroke-width:0.5;"/><line style="stroke:#181818;stroke-width:0.5;" x1="1584" x2="1594" y1="56" y2="46"/><line style="stroke:#181818;stroke-width:0.5;" x1="1448" x2="1584" y1="56" y2="56"/><line style="stroke:#181818;stroke-width:0.5;" x1="1584" x2="1584" y1="56" y2="92.2969"/><text fill="#000000" font-family="sans-serif" font-size="14" lengthAdjust="spacing" textLength="106" x="1463" y="78.9951">Placeholder_14</text></g><!--entity Placeholder_23--><g id="elem_Placeholder_23"><polygon fill="#F1F1F1" points="1629,56,1639,46,1775,46,1775,82.2969,1765,92.2969,1629,92.2969,1629,56" style="stroke:#181818;stroke-width:0.5;"/><line style="stroke:#181818;stroke-width:0.5;" x1="1765" x2="1775" y1="56" y2="46"/><line style="stroke:#181818;stroke-width:0.5;" x1="1629" x2="1765" y1="56" y2="56"/><line style="stroke:#181818;stroke-width:0.5;" x1="1765" x2="1765" y1="56" y2="92.2969"/><text fill="#000000" font-family="sans-serif" font-size="14" lengthAdjust="spacing" textLength="106" x="1644" y="78.9951">Placeholder_23</text></g><!--entity Placeholder_3--><g id="elem_Placeholder_3"><polygon fill="#F1F1F1" points="1810.5,56,1820.5,46,1947.5,46,1947.5,82.2969,1937.5,92.2969,1810.5,92.2969,1810.5,56" style="stroke:#181818;stroke-width:0.5;"/><line style="stroke:#181818;stroke-width:0.5;" x1="1937.5" x2="1947.5" y1="56" y2="46"/><line style="stroke:#181818;stroke-width:0.5;" x1="1810.5" x2="1937.5" y1="56" y2="56"/><line style="stroke:#181818;stroke-width:0.5;" x1="1937.5" x2="1937.5" y1="56" y2="92.2969"/><text fill="#000000" font-family="sans-serif" font-size="14" lengthAdjust="spacing" textLength="97" x="1825.5" y="78.9951">Placeholder_3</text></g><!--entity Placeholder_10--><g id="elem_Placeholder_10"><polygon fill="#F1F1F1" points="1983,56,1993,46,2129,46,2129,82.2969,2119,92.2969,1983,92.2969,1983,56" style="stroke:#181818;stroke-width:0.5;"/><line style="stroke:#181818;stroke-width:0.5;" x1="2119" x2="2129" y1="56" y2="46"/><line style="stroke:#181818;stroke-width:0.5;" x1="1983" x2="2119" y1="56" y2="56"/><line style="stroke:#181818;stroke-width:0.5;" x1="2119" x2="2119" y1="56" y2="92.2969"/><text fill="#000000" font-family="sans-serif" font-size="14" lengthAdjust="spacing" textLength="106" x="1998" y="78.9951">Placeholder_10</text></g><!--entity Placeholder_39--><g id="elem_Placeholder_39"><polygon fill="#F1F1F1" points="2164,56,2174,46,2310,46,2310,82.2969,2300,92.2969,2164,92.2969,2164,56" style="stroke:#181818;stroke-width:0.5;"/><line style="stroke:#181818;stroke-width:0.5;" x1="2300" x2="2310" y1="56" y2="46"/><line style="stroke:#181818;stroke-width:0.5;" x1="2164" x2="2300" y1="56" y2="56"/><line style="stroke:#181818;stroke-width:0.5;" x1="2300" x2="2300" y1="56" y2="92.2969"/><text fill="#000000" font-family="sans-serif" font-size="14" lengthAdjust="spacing" textLength="106" x="2179" y="78.9951">Placeholder_39</text></g><!--entity Placeholder_31--><g id="elem_Placeholder_31"><polygon fill="#F1F1F1" points="2345,56,2355,46,2491,46,2491,82.2969,2481,92.2969,2345,92.2969,2345,56" style="stroke:#181818;stroke-width:0.5;"/><line style="stroke:#181818;stroke-width:0.5;" x1="2481" x2="2491" y1="56" y2="46"/><line style="stroke:#181818;stroke-width:0.5;" x1="2345" x2="2481" y1="56" y2="56"/><line style="stroke:#181818;stroke-width:0.5;" x1="2481" x2="2481" y1="56" y2="92.2969"/><text fill="#000000" font-family="sans-serif" font-size="14" lengthAdjust="spacing" textLength="106" x="2360" y="78.9951">Placeholder_31</text></g><!--entity Placeholder_28--><g id="elem_Placeholder_28"><polygon fill="#F1F1F1" points="2526,56,2536,46,2672,46,2672,82.2969,2662,92.2969,2526,92.2969,2526,56" style="stroke:#181818;stroke-width:0.5;"/><line style="stroke:#181818;stroke-width:0.5;" x1="2662" x2="2672" y1="56" y2="46"/><line style="stroke:#181818;stroke-width:0.5;" x1="2526" x2="2662" y1="56" y2="56"/><line style="stroke:#181818;stroke-width:0.5;" x1="2662" x2="2662" y1="56" y2="92.2969"/><text fill="#000000" font-family="sans-serif" font-size="14" lengthAdjust="spacing" textLength="106" x="2541" y="78.9951">Placeholder_28</text></g><!--entity Placeholder_34--><g id="elem_Placeholder_34"><polygon fill="#F1F1F1" points="2707,56,2717,46,2853,46,2853,82.2969,2843,92.2969,2707,92.2969,2707,56" style="stroke:#181818;stroke-width:0.5;"/><line style="stroke:#181818;stroke-width:0.5;" x1="2843" x2="2853" y1="56" y2="46"/><line style="stroke:#181818;stroke-width:0.5;" x1="2707" x2="2843" y1="56" y2="56"/><line style="stroke:#181818;stroke-width:0.5;" x1="2843" x2="2843" y1="56" y2="92.2969"/><text fill="#000000" font-family="sans-serif" font-size="14" lengthAdjust="spacing" textLength="106" x="2722" y="78.9951">Placeholder_34</text></g><!--entity Placeholder_40--><g id="elem_Placeholder_40"><polygon fill="#F1F1F1" points="2888,56,2898,46,3034,46,3034,82.2969,3024,92.2969,2888,92.2969,2888,56" style="stroke:#181818;stroke-width:0.5;"/><line style="stroke:#181818;stroke-width:0.5;" x1="3024" x2="3034" y1="56" y2="46"/><line style="stroke:#181818;stroke-width:0.5;" x1="2888" x2="3024" y1="56" y2="56"/><line style="stroke:#181818;stroke-width:0.5;" x1="3024" x2="3024" y1="56" y2="92.2969"/><text fill="#000000" font-family="sans-serif" font-size="14" lengthAdjust="spacing" textLength="106" x="2903" y="78.9951">Placeholder_40</text></g><!--entity Placeholder_6--><g id="elem_Placeholder_6"><polygon fill="#F1F1F1" points="3069.5,56,3079.5,46,3206.5,46,3206.5,82.2969,3196.5,92.2969,3069.5,92.2969,3069.5,56" style="stroke:#181818;stroke-width:0.5;"/><line style="stroke:#181818;stroke-width:0.5;" x1="3196.5" x2="3206.5" y1="56" y2="46"/><line style="stroke:#181818;stroke-width:0.5;" x1="3069.5" x2="3196.5" y1="56" y2="56"/><line style="stroke:#181818;stroke-width:0.5;" x1="3196.5" x2="3196.5" y1="56" y2="92.2969"/><text fill="#000000" font-family="sans-serif" font-size="14" lengthAdjust="spacing" textLength="97" x="3084.5" y="78.9951">Placeholder_6</text></g><!--entity Placeholder_24--><g id="elem_Placeholder_24"><polygon fill="#F1F1F1" points="3242,56,3252,46,3388,46,3388,82.2969,3378,92.2969,3242,92.2969,3242,56" style="stroke:#181818;stroke-width:0.5;"/><line style="stroke:#181818;stroke-width:0.5;" x1="3378" x2="3388" y1="56" y2="46"/><line style="stroke:#181818;stroke-width:0.5;" x1="3242" x2="3378" y1="56" y2="56"/><line style="stroke:#181818;stroke-width:0.5;" x1="3378" x2="3378" y1="56" y2="92.2969"/><text fill="#000000" font-family="sans-serif" font-size="14" lengthAdjust="spacing" textLength="106" x="3257" y="78.9951">Placeholder_24</text></g><!--entity Placeholder_37--><g id="elem_Placeholder_37"><polygon fill="#F1F1F1" points="3423,56,3433,46,3569,46,3569,82.2969,3559,92.2969,3423,92.2969,3423,56" style="stroke:#181818;stroke-width:0.5;"/><line style="stroke:#181818;stroke-width:0.5;" x1="3559" x2="3569" y1="56" y2="46"/><line style="stroke:#181818;stroke-width:0.5;" x1="3423" x2="3559" y1="56" y2="56"/><line style="stroke:#181818;stroke-width:0.5;" x1="3559" x2="3559" y1="56" y2="92.2969"/><text fill="#000000" font-family="sans-serif" font-size="14" lengthAdjust="spacing" textLength="106" x="3438" y="78.9951">Placeholder_37</text></g><!--entity Placeholder_46--><g id="elem_Placeholder_46"><polygon fill="#F1F1F1" points="3604,56,3614,46,3750,46,3750,82.2969,3740,92.2969,3604,92.2969,3604,56" style="stroke:#181818;stroke-width:0.5;"/><line style="stroke:#181818;stroke-width:0.5;" x1="3740" x2="3750" y1="56" y2="46"/><line style="stroke:#181818;stroke-width:0.5;" x1="3604" x2="3740" y1="56" y2="56"/><line style="stroke:#181818;stroke-width:0.5;" x1="3740" x2="3740" y1="56" y2="92.2969"/><text fill="#000000" font-family="sans-serif" font-size="14" lengthAdjust="spacing" textLength="106" x="3619" y="78.9951">Placeholder_46</text></g><!--entity Placeholder_43--><g id="elem_Placeholder_43"><polygon fill="#F1F1F1" points="3785,56,3795,46,3931,46,3931,82.2969,3921,92.2969,3785,92.2969,3785,56" style="stroke:#181818;stroke-width:0.5;"/><line style="stroke:#181818;stroke-width:0.5;" x1="3921" x2="3931" y1="56" y2="46"/><line style="stroke:#181818;stroke-width:0.5;" x1="3785" x2="3921" y1="56" y2="56"/><line style="stroke:#181818;stroke-width:0.5;" x1="3921" x2="3921" y1="56" y2="92.2969"/><text fill="#000000" font-family="sans-serif" font-size="14" lengthAdjust="spacing" textLength="106" x="3800" y="78.9951">Placeholder_43</text></g><!--entity Placeholder_48--><g id="elem_Placeholder_48"><polygon fill="#F1F1F1" points="3966,56,3976,46,4112,46,4112,82.2969,4102,92.2969,3966,92.2969,3966,56" style="stroke:#181818;stroke-width:0.5;"/><line style="stroke:#181818;stroke-width:0.5;" x1="4102" x2="4112" y1="56" y2="46"/><line style="stroke:#181818;stroke-width:0.5;" x1="3966" x2="4102" y1="56" y2="56"/><line style="stroke:#181818;stroke-width:0.5;" x1="4102" x2="4102" y1="56" y2="92.2969"/><text fill="#000000" font-family="sans-serif" font-size="14" lengthAdjust="spacing" textLength="106" x="3981" y="78.9951">Placeholder_48</text></g><!--entity Placeholder_45--><g id="elem_Placeholder_45"><polygon fill="#F1F1F1" points="4147,56,4157,46,4293,46,4293,82.2969,4283,92.2969,4147,92.2969,4147,56" style="stroke:#181818;stroke-width:0.5;"/><line style="stroke:#181818;stroke-width:0.5;" x1="4283" x2="4293" y1="56" y2="46"/><line style="stroke:#181818;stroke-width:0.5;" x1="4147" x2="4283" y1="56" y2="56"/><line style="stroke:#181818;stroke-width:0.5;" x1="4283" x2="4283" y1="56" y2="92.2969"/><text fill="#000000" font-family="sans-serif" font-size="14" lengthAdjust="spacing" textLength="106" x="4162" y="78.9951">Placeholder_45</text></g><!--entity Placeholder_13--><g id="elem_Placeholder_13"><polygon fill="#F1F1F1" points="4328,56,4338,46,4474,46,4474,82.2969,4464,92.2969,4328,92.2969,4328,56" style="stroke:#181818;stroke-width:0.5;"/><line style="stroke:#181818;stroke-width:0.5;" x1="4464" x2="4474" y1="56" y2="46"/><line style="stroke:#181818;stroke-width:0.5;" x1="4328" x2="4464" y1="56" y2="56"/><line style="stroke:#181818;stroke-width:0.5;" x1="4464" x2="4464" y1="56" y2="92.2969"/><text fill="#000000" font-family="sans-serif" font-size="14" lengthAdjust="spacing" textLength="106" x="4343" y="78.9951">Placeholder_13</text></g><!--entity Placeholder_7--><g id="elem_Placeholder_7"><polygon fill="#F1F1F1" points="4509.5,56,4519.5,46,4646.5,46,4646.5,82.2969,4636.5,92.2969,4509.5,92.2969,4509.5,56" style="stroke:#181818;stroke-width:0.5;"/><line style="stroke:#181818;stroke-width:0.5;" x1="4636.5" x2="4646.5" y1="56" y2="46"/><line style="stroke:#181818;stroke-width:0.5;" x1="4509.5" x2="4636.5" y1="56" y2="56"/><line style="stroke:#181818;stroke-width:0.5;" x1="4636.5" x2="4636.5" y1="56" y2="92.2969"/><text fill="#000000" font-family="sans-serif" font-size="14" lengthAdjust="spacing" textLength="97" x="4524.5" y="78.9951">Placeholder_7</text></g><!--entity Placeholder_21--><g id="elem_Placeholder_21"><polygon fill="#F1F1F1" points="4682,56,4692,46,4828,46,4828,82.2969,4818,92.2969,4682,92.2969,4682,56" style="stroke:#181818;stroke-width:0.5;"/><line style="stroke:#181818;stroke-width:0.5;" x1="4818" x2="4828" y1="56" y2="46"/><line style="stroke:#181818;stroke-width:0.5;" x1="4682" x2="4818" y1="56" y2="56"/><line style="stroke:#181818;stroke-width:0.5;" x1="4818" x2="4818" y1="56" y2="92.2969"/><text fill="#000000" font-family="sans-serif" font-size="14" lengthAdjust="spacing" textLength="106" x="4697" y="78.9951">Placeholder_21</text></g><!--entity Placeholder_38--><g id="elem_Placeholder_38"><polygon fill="#F1F1F1" points="4863,56,4873,46,5009,46,5009,82.2969,4999,92.2969,4863,92.2969,4863,56" style="stroke:#181818;stroke-width:0.5;"/><line style="stroke:#181818;stroke-width:0.5;" x1="4999" x2="5009" y1="56" y2="46"/><line style="stroke:#181818;stroke-width:0.5;" x1="4863" x2="4999" y1="56" y2="56"/><line style="stroke:#181818;stroke-width:0.5;" x1="4999" x2="4999" y1="56" y2="92.2969"/><text fill="#000000" font-family="sans-serif" font-size="14" lengthAdjust="spacing" textLength="106" x="4878" y="78.9951">Placeholder_38</text></g><!--entity Placeholder_42--><g id="elem_Placeholder_42"><polygon fill="#F1F1F1" points="5044,56,5054,46,5190,46,5190,82.2969,5180,92.2969,5044,92.2969,5044,56" style="stroke:#181818;stroke-width:0.5;"/><line style="stroke:#181818;stroke-width:0.5;" x1="5180" x2="5190" y1="56" y2="46"/><line style="stroke:#181818;stroke-width:0.5;" x1="5044" x2="5180" y1="56" y2="56"/><line style="stroke:#181818;stroke-width:0.5;" x1="5180" x2="5180" y1="56" y2="92.2969"/><text fill="#000000" font-family="sans-serif" font-size="14" lengthAdjust="spacing" textLength="106" x="5059" y="78.9951">Placeholder_42</text></g><!--entity Placeholder_4--><g id="elem_Placeholder_4"><polygon fill="#F1F1F1" points="5225.5,56,5235.5,46,5362.5,46,5362.5,82.2969,5352.5,92.2969,5225.5,92.2969,5225.5,56" style="stroke:#181818;stroke-width:0.5;"/><line style="stroke:#181818;stroke-width:0.5;" x1="5352.5" x2="5362.5" y1="56" y2="46"/><line style="stroke:#181818;stroke-width:0.5;" x1="5225.5" x2="5352.5" y1="56" y2="56"/><line style="stroke:#181818;stroke-width:0.5;" x1="5352.5" x2="5352.5" y1="56" y2="92.2969"/><text fill="#000000" font-family="sans-serif" font-size="14" lengthAdjust="spacing" textLength="97" x="5240.5" y="78.9951">Placeholder_4</text></g><!--entity Placeholder_44--><g id="elem_Placeholder_44"><polygon fill="#F1F1F1" points="5398,56,5408,46,5544,46,5544,82.2969,5534,92.2969,5398,92.2969,5398,56" style="stroke:#181818;stroke-width:0.5;"/><line style="stroke:#181818;stroke-width:0.5;" x1="5534" x2="5544" y1="56" y2="46"/><line style="stroke:#181818;stroke-width:0.5;" x1="5398" x2="5534" y1="56" y2="56"/><line style="stroke:#181818;stroke-width:0.5;" x1="5534" x2="5534" y1="56" y2="92.2969"/><text fill="#000000" font-family="sans-serif" font-size="14" lengthAdjust="spacing" textLength="106" x="5413" y="78.9951">Placeholder_44</text></g><!--entity Placeholder_41--><g id="elem_Placeholder_41"><polygon fill="#F1F1F1" points="5579,56,5589,46,5725,46,5725,82.2969,5715,92.2969,5579,92.2969,5579,56" style="stroke:#181818;stroke-width:0.5;"/><line style="stroke:#181818;stroke-width:0.5;" x1="5715" x2="5725" y1="56" y2="46"/><line style="stroke:#181818;stroke-width:0.5;" x1="5579" x2="5715" y1="56" y2="56"/><line style="stroke:#181818;stroke-width:0.5;" x1="5715" x2="5715" y1="56" y2="92.2969"/><text fill="#000000" font-family="sans-serif" font-size="14" lengthAdjust="spacing" textLength="106" x="5594" y="78.9951">Placeholder_41</text></g><!--entity Placeholder_11--><g id="elem_Placeholder_11"><polygon fill="#F1F1F1" points="5760,56,5770,46,5906,46,5906,82.2969,5896,92.2969,5760,92.2969,5760,56" style="stroke:#181818;stroke-width:0.5;"/><line style="stroke:#181818;stroke-width:0.5;" x1="5896" x2="5906" y1="56" y2="46"/><line style="stroke:#181818;stroke-width:0.5;" x1="5760" x2="5896" y1="56" y2="56"/><line style="stroke:#181818;stroke-width:0.5;" x1="5896" x2="5896" y1="56" y2="92.2969"/><text fill="#000000" font-family="sans-serif" font-size="14" lengthAdjust="spacing" textLength="106" x="5775" y="78.9951">Placeholder_11</text></g><!--entity Placeholder_49--><g id="elem_Placeholder_49"><polygon fill="#F1F1F1" points="5941,56,5951,46,6087,46,6087,82.2969,6077,92.2969,5941,92.2969,5941,56" style="stroke:#181818;stroke-width:0.5;"/><line style="stroke:#181818;stroke-width:0.5;" x1="6077" x2="6087" y1="56" y2="46"/><line style="stroke:#181818;stroke-width:0.5;" x1="5941" x2="6077" y1="56" y2="56"/><line style="stroke:#181818;stroke-width:0.5;" x1="6077" x2="6077" y1="56" y2="92.2969"/><text fill="#000000" font-family="sans-serif" font-size="14" lengthAdjust="spacing" textLength="106" x="5956" y="78.9951">Placeholder_49</text></g><!--link aName to aName--><g id="link_aName_aName"><path d="M6210.27,60.46 C6229.02,59.82 6245,62.67 6245,69 C6245,75.33 6229.02,78.18 6210.27,77.54 " fill="none" id="aName-aName" style="stroke:#181818;stroke-width:1.0;"/><text fill="#000000" font-family="sans-serif" font-size="13" lengthAdjust="spacing" textLength="440" x="6258" y="73.5669">eu_cloudscale_showcase_servlets_helpers_PaymentService_Provider</text><path d="M6202.9618,53.6343 A10,10 0 0 0 6203.4443 67.7682" fill="none" style="stroke:#181818;stroke-width:1.5;"/><ellipse cx="6210.27" cy="60.46" fill="#FFFFFF" rx="6" ry="6" style="stroke:#181818;stroke-width:1.5;"/></g><!--SRC=[jPO_JyCm4CNtV0fBB2n1JMBAdpLYG208OemYotMknE34wTbf6o6-Ev5GnS3AssmFzxFVtRrp-B33g5dtOckFfMNZw55lo3tlYPqUHpkyYSWJ9ODlILHE6-gyQubLVYC-are_wPuQKTV6-QaDHZjAH_RlP6BwSnGzqqMOGwJ-J1shiY_v8EzeNMxvVYTdyx1xQPhawo-WMA41EHXmZNx06Wsu10Fa5HYGeoL2Tq4cqGeLw292AmJt2RZJPUWSmvq8NQKIdMIqJ-HeXGgqbKgqH1Bj51BT1X8zBpEqHF1vZBQw0fvZzAyHRgLm03h76HeW_tdYdqAbvwjKd3QtWYRr6rg5pX-C3ik2UEye1jMH6uc3glJSqn1VbtDhI5NiztQvPl8D]--></g></svg>