<?xml version="1.0" encoding="us-ascii" standalone="no"?><svg xmlns="http://www.w3.org/2000/svg" xmlns:xlink="http://www.w3.org/1999/xlink" contentStyleType="text/css" height="125px" preserveAspectRatio="none" style="width:6723px;height:125px;background:#FFFFFF;" version="1.1" viewBox="0 0 6723 125" width="6723px" zoomAndPan="magnify"><defs/><g><!--cluster Placeholder_47--><g id="cluster_Placeholder_47"><polygon fill="none" points="6105,16,6115,6,6706,6,6706,98,6696,108,6105,108,6105,16" style="stroke:#181818;stroke-width:1.0;"/><line style="stroke:#181818;stroke-width:1.0;" x1="6696" x2="6706" y1="16" y2="6"/><line style="stroke:#181818;stroke-width:1.0;" x1="6105" x2="6696" y1="16" y2="16"/><line style="stroke:#181818;stroke-width:1.0;" x1="6696" x2="6696" y1="16" y2="108"/><text fill="#000000" font-family="sans-serif" font-size="14" font-weight="bold" lengthAdjust="spacing" textLength="120" x="6341.5" y="31.9951">Placeholder_47</text></g><!--entity aName--><g id="elem_aName"><a href="cloudscale-project-cloudstore.system#_qPy9CbtpEe6v050JWo_4pA" target="_top" title="cloudscale-project-cloudstore.system#_qPy9CbtpEe6v050JWo_4pA" xlink:actuate="onRequest" xlink:href="cloudscale-project-cloudstore.system#_qPy9CbtpEe6v050JWo_4pA" xlink:show="new" xlink:title="cloudscale-project-cloudstore.system#_qPy9CbtpEe6v050JWo_4pA" xlink:type="simple"><rect fill="#F1F1F1" height="46.2969" rx="2.5" ry="2.5" style="stroke:#181818;stroke-width:0.5;" width="88" x="6121" y="46"/><rect fill="#F1F1F1" height="10" style="stroke:#181818;stroke-width:0.5;" width="15" x="6189" y="51"/><rect fill="#F1F1F1" height="2" style="stroke:#181818;stroke-width:0.5;" width="4" x="6187" y="53"/><rect fill="#F1F1F1" height="2" style="stroke:#181818;stroke-width:0.5;" width="4" x="6187" y="57"/><text fill="#000000" font-family="sans-serif" font-size="14" lengthAdjust="spacing" textLength="48" x="6136" y="78.9951">aName</text></a></g><!--entity Placeholder_49--><g id="elem_Placeholder_49"><polygon fill="#F1F1F1" points="16,56,26,46,162,46,162,82.2969,152,92.2969,16,92.2969,16,56" style="stroke:#181818;stroke-width:0.5;"/><line style="stroke:#181818;stroke-width:0.5;" x1="152" x2="162" y1="56" y2="46"/><line style="stroke:#181818;stroke-width:0.5;" x1="16" x2="152" y1="56" y2="56"/><line style="stroke:#181818;stroke-width:0.5;" x1="152" x2="152" y1="56" y2="92.2969"/><text fill="#000000" font-family="sans-serif" font-size="14" lengthAdjust="spacing" textLength="106" x="31" y="78.9951">Placeholder_49</text></g><!--entity Placeholder_48--><g id="elem_Placeholder_48"><polygon fill="#F1F1F1" points="197,56,207,46,343,46,343,82.2969,333,92.2969,197,92.2969,197,56" style="stroke:#181818;stroke-width:0.5;"/><line style="stroke:#181818;stroke-width:0.5;" x1="333" x2="343" y1="56" y2="46"/><line style="stroke:#181818;stroke-width:0.5;" x1="197" x2="333" y1="56" y2="56"/><line style="stroke:#181818;stroke-width:0.5;" x1="333" x2="333" y1="56" y2="92.2969"/><text fill="#000000" font-family="sans-serif" font-size="14" lengthAdjust="spacing" textLength="106" x="212" y="78.9951">Placeholder_48</text></g><!--entity Placeholder_35--><g id="elem_Placeholder_35"><polygon fill="#F1F1F1" points="378,56,388,46,524,46,524,82.2969,514,92.2969,378,92.2969,378,56" style="stroke:#181818;stroke-width:0.5;"/><line style="stroke:#181818;stroke-width:0.5;" x1="514" x2="524" y1="56" y2="46"/><line style="stroke:#181818;stroke-width:0.5;" x1="378" x2="514" y1="56" y2="56"/><line style="stroke:#181818;stroke-width:0.5;" x1="514" x2="514" y1="56" y2="92.2969"/><text fill="#000000" font-family="sans-serif" font-size="14" lengthAdjust="spacing" textLength="106" x="393" y="78.9951">Placeholder_35</text></g><!--entity Placeholder_29--><g id="elem_Placeholder_29"><polygon fill="#F1F1F1" points="559,56,569,46,705,46,705,82.2969,695,92.2969,559,92.2969,559,56" style="stroke:#181818;stroke-width:0.5;"/><line style="stroke:#181818;stroke-width:0.5;" x1="695" x2="705" y1="56" y2="46"/><line style="stroke:#181818;stroke-width:0.5;" x1="559" x2="695" y1="56" y2="56"/><line style="stroke:#181818;stroke-width:0.5;" x1="695" x2="695" y1="56" y2="92.2969"/><text fill="#000000" font-family="sans-serif" font-size="14" lengthAdjust="spacing" textLength="106" x="574" y="78.9951">Placeholder_29</text></g><!--entity Placeholder_43--><g id="elem_Placeholder_43"><polygon fill="#F1F1F1" points="740,56,750,46,886,46,886,82.2969,876,92.2969,740,92.2969,740,56" style="stroke:#181818;stroke-width:0.5;"/><line style="stroke:#181818;stroke-width:0.5;" x1="876" x2="886" y1="56" y2="46"/><line style="stroke:#181818;stroke-width:0.5;" x1="740" x2="876" y1="56" y2="56"/><line style="stroke:#181818;stroke-width:0.5;" x1="876" x2="876" y1="56" y2="92.2969"/><text fill="#000000" font-family="sans-serif" font-size="14" lengthAdjust="spacing" textLength="106" x="755" y="78.9951">Placeholder_43</text></g><!--entity Placeholder_9--><g id="elem_Placeholder_9"><polygon fill="#F1F1F1" points="921.5,56,931.5,46,1058.5,46,1058.5,82.2969,1048.5,92.2969,921.5,92.2969,921.5,56" style="stroke:#181818;stroke-width:0.5;"/><line style="stroke:#181818;stroke-width:0.5;" x1="1048.5" x2="1058.5" y1="56" y2="46"/><line style="stroke:#181818;stroke-width:0.5;" x1="921.5" x2="1048.5" y1="56" y2="56"/><line style="stroke:#181818;stroke-width:0.5;" x1="1048.5" x2="1048.5" y1="56" y2="92.2969"/><text fill="#000000" font-family="sans-serif" font-size="14" lengthAdjust="spacing" textLength="97" x="936.5" y="78.9951">Placeholder_9</text></g><!--entity Placeholder_22--><g id="elem_Placeholder_22"><polygon fill="#F1F1F1" points="1094,56,1104,46,1240,46,1240,82.2969,1230,92.2969,1094,92.2969,1094,56" style="stroke:#181818;stroke-width:0.5;"/><line style="stroke:#181818;stroke-width:0.5;" x1="1230" x2="1240" y1="56" y2="46"/><line style="stroke:#181818;stroke-width:0.5;" x1="1094" x2="1230" y1="56" y2="56"/><line style="stroke:#181818;stroke-width:0.5;" x1="1230" x2="1230" y1="56" y2="92.2969"/><text fill="#000000" font-family="sans-serif" font-size="14" lengthAdjust="spacing" textLength="106" x="1109" y="78.9951">Placeholder_22</text></g><!--entity Placeholder_2--><g id="elem_Placeholder_2"><polygon fill="#F1F1F1" points="1275.5,56,1285.5,46,1412.5,46,1412.5,82.2969,1402.5,92.2969,1275.5,92.2969,1275.5,56" style="stroke:#181818;stroke-width:0.5;"/><line style="stroke:#181818;stroke-width:0.5;" x1="1402.5" x2="1412.5" y1="56" y2="46"/><line style="stroke:#181818;stroke-width:0.5;" x1="1275.5" x2="1402.5" y1="56" y2="56"/><line style="stroke:#181818;stroke-width:0.5;" x1="1402.5" x2="1402.5" y1="56" y2="92.2969"/><text fill="#000000" font-family="sans-serif" font-size="14" lengthAdjust="spacing" textLength="97" x="1290.5" y="78.9951">Placeholder_2</text></g><!--entity Placeholder_14--><g id="elem_Placeholder_14"><polygon fill="#F1F1F1" points="1448,56,1458,46,1594,46,1594,82.2969,1584,92.2969,1448,92.2969,1448,56" style="stroke:#181818;stroke-width:0.5;"/><line style="stroke:#181818;stroke-width:0.5;" x1="1584" x2="1594" y1="56" y2="46"/><line style="stroke:#181818;stroke-width:0.5;" x1="1448" x2="1584" y1="56" y2="56"/><line style="stroke:#181818;stroke-width:0.5;" x1="1584" x2="1584" y1="56" y2="92.2969"/><text fill="#000000" font-family="sans-serif" font-size="14" lengthAdjust="spacing" textLength="106" x="1463" y="78.9951">Placeholder_14</text></g><!--entity Placeholder_46--><g id="elem_Placeholder_46"><polygon fill="#F1F1F1" points="1629,56,1639,46,1775,46,1775,82.2969,1765,92.2969,1629,92.2969,1629,56" style="stroke:#181818;stroke-width:0.5;"/><line style="stroke:#181818;stroke-width:0.5;" x1="1765" x2="1775" y1="56" y2="46"/><line style="stroke:#181818;stroke-width:0.5;" x1="1629" x2="1765" y1="56" y2="56"/><line style="stroke:#181818;stroke-width:0.5;" x1="1765" x2="1765" y1="56" y2="92.2969"/><text fill="#000000" font-family="sans-serif" font-size="14" lengthAdjust="spacing" textLength="106" x="1644" y="78.9951">Placeholder_46</text></g><!--entity Placeholder_13--><g id="elem_Placeholder_13"><polygon fill="#F1F1F1" points="1810,56,1820,46,1956,46,1956,82.2969,1946,92.2969,1810,92.2969,1810,56" style="stroke:#181818;stroke-width:0.5;"/><line style="stroke:#181818;stroke-width:0.5;" x1="1946" x2="1956" y1="56" y2="46"/><line style="stroke:#181818;stroke-width:0.5;" x1="1810" x2="1946" y1="56" y2="56"/><line style="stroke:#181818;stroke-width:0.5;" x1="1946" x2="1946" y1="56" y2="92.2969"/><text fill="#000000" font-family="sans-serif" font-size="14" lengthAdjust="spacing" textLength="106" x="1825" y="78.9951">Placeholder_13</text></g><!--entity Placeholder_40--><g id="elem_Placeholder_40"><polygon fill="#F1F1F1" points="1991,56,2001,46,2137,46,2137,82.2969,2127,92.2969,1991,92.2969,1991,56" style="stroke:#181818;stroke-width:0.5;"/><line style="stroke:#181818;stroke-width:0.5;" x1="2127" x2="2137" y1="56" y2="46"/><line style="stroke:#181818;stroke-width:0.5;" x1="1991" x2="2127" y1="56" y2="56"/><line style="stroke:#181818;stroke-width:0.5;" x1="2127" x2="2127" y1="56" y2="92.2969"/><text fill="#000000" font-family="sans-serif" font-size="14" lengthAdjust="spacing" textLength="106" x="2006" y="78.9951">Placeholder_40</text></g><!--entity Placeholder_45--><g id="elem_Placeholder_45"><polygon fill="#F1F1F1" points="2172,56,2182,46,2318,46,2318,82.2969,2308,92.2969,2172,92.2969,2172,56" style="stroke:#181818;stroke-width:0.5;"/><line style="stroke:#181818;stroke-width:0.5;" x1="2308" x2="2318" y1="56" y2="46"/><line style="stroke:#181818;stroke-width:0.5;" x1="2172" x2="2308" y1="56" y2="56"/><line style="stroke:#181818;stroke-width:0.5;" x1="2308" x2="2308" y1="56" y2="92.2969"/><text fill="#000000" font-family="sans-serif" font-size="14" lengthAdjust="spacing" textLength="106" x="2187" y="78.9951">Placeholder_45</text></g><!--entity Placeholder_38--><g id="elem_Placeholder_38"><polygon fill="#F1F1F1" points="2353,56,2363,46,2499,46,2499,82.2969,2489,92.2969,2353,92.2969,2353,56" style="stroke:#181818;stroke-width:0.5;"/><line style="stroke:#181818;stroke-width:0.5;" x1="2489" x2="2499" y1="56" y2="46"/><line style="stroke:#181818;stroke-width:0.5;" x1="2353" x2="2489" y1="56" y2="56"/><line style="stroke:#181818;stroke-width:0.5;" x1="2489" x2="2489" y1="56" y2="92.2969"/><text fill="#000000" font-family="sans-serif" font-size="14" lengthAdjust="spacing" textLength="106" x="2368" y="78.9951">Placeholder_38</text></g><!--entity Placeholder_12--><g id="elem_Placeholder_12"><polygon fill="#F1F1F1" points="2534,56,2544,46,2680,46,2680,82.2969,2670,92.2969,2534,92.2969,2534,56" style="stroke:#181818;stroke-width:0.5;"/><line style="stroke:#181818;stroke-width:0.5;" x1="2670" x2="2680" y1="56" y2="46"/><line style="stroke:#181818;stroke-width:0.5;" x1="2534" x2="2670" y1="56" y2="56"/><line style="stroke:#181818;stroke-width:0.5;" x1="2670" x2="2670" y1="56" y2="92.2969"/><text fill="#000000" font-family="sans-serif" font-size="14" lengthAdjust="spacing" textLength="106" x="2549" y="78.9951">Placeholder_12</text></g><!--entity Placeholder_18--><g id="elem_Placeholder_18"><polygon fill="#F1F1F1" points="2715,56,2725,46,2861,46,2861,82.2969,2851,92.2969,2715,92.2969,2715,56" style="stroke:#181818;stroke-width:0.5;"/><line style="stroke:#181818;stroke-width:0.5;" x1="2851" x2="2861" y1="56" y2="46"/><line style="stroke:#181818;stroke-width:0.5;" x1="2715" x2="2851" y1="56" y2="56"/><line style="stroke:#181818;stroke-width:0.5;" x1="2851" x2="2851" y1="56" y2="92.2969"/><text fill="#000000" font-family="sans-serif" font-size="14" lengthAdjust="spacing" textLength="106" x="2730" y="78.9951">Placeholder_18</text></g><!--entity Placeholder_8--><g id="elem_Placeholder_8"><polygon fill="#F1F1F1" points="2896.5,56,2906.5,46,3033.5,46,3033.5,82.2969,3023.5,92.2969,2896.5,92.2969,2896.5,56" style="stroke:#181818;stroke-width:0.5;"/><line style="stroke:#181818;stroke-width:0.5;" x1="3023.5" x2="3033.5" y1="56" y2="46"/><line style="stroke:#181818;stroke-width:0.5;" x1="2896.5" x2="3023.5" y1="56" y2="56"/><line style="stroke:#181818;stroke-width:0.5;" x1="3023.5" x2="3023.5" y1="56" y2="92.2969"/><text fill="#000000" font-family="sans-serif" font-size="14" lengthAdjust="spacing" textLength="97" x="2911.5" y="78.9951">Placeholder_8</text></g><!--entity Placeholder_0--><g id="elem_Placeholder_0"><polygon fill="#F1F1F1" points="3068.5,56,3078.5,46,3205.5,46,3205.5,82.2969,3195.5,92.2969,3068.5,92.2969,3068.5,56" style="stroke:#181818;stroke-width:0.5;"/><line style="stroke:#181818;stroke-width:0.5;" x1="3195.5" x2="3205.5" y1="56" y2="46"/><line style="stroke:#181818;stroke-width:0.5;" x1="3068.5" x2="3195.5" y1="56" y2="56"/><line style="stroke:#181818;stroke-width:0.5;" x1="3195.5" x2="3195.5" y1="56" y2="92.2969"/><text fill="#000000" font-family="sans-serif" font-size="14" lengthAdjust="spacing" textLength="97" x="3083.5" y="78.9951">Placeholder_0</text></g><!--entity Placeholder_25--><g id="elem_Placeholder_25"><polygon fill="#F1F1F1" points="3241,56,3251,46,3387,46,3387,82.2969,3377,92.2969,3241,92.2969,3241,56" style="stroke:#181818;stroke-width:0.5;"/><line style="stroke:#181818;stroke-width:0.5;" x1="3377" x2="3387" y1="56" y2="46"/><line style="stroke:#181818;stroke-width:0.5;" x1="3241" x2="3377" y1="56" y2="56"/><line style="stroke:#181818;stroke-width:0.5;" x1="3377" x2="3377" y1="56" y2="92.2969"/><text fill="#000000" font-family="sans-serif" font-size="14" lengthAdjust="spacing" textLength="106" x="3256" y="78.9951">Placeholder_25</text></g><!--entity Placeholder_42--><g id="elem_Placeholder_42"><polygon fill="#F1F1F1" points="3422,56,3432,46,3568,46,3568,82.2969,3558,92.2969,3422,92.2969,3422,56" style="stroke:#181818;stroke-width:0.5;"/><line style="stroke:#181818;stroke-width:0.5;" x1="3558" x2="3568" y1="56" y2="46"/><line style="stroke:#181818;stroke-width:0.5;" x1="3422" x2="3558" y1="56" y2="56"/><line style="stroke:#181818;stroke-width:0.5;" x1="3558" x2="3558" y1="56" y2="92.2969"/><text fill="#000000" font-family="sans-serif" font-size="14" lengthAdjust="spacing" textLength="106" x="3437" y="78.9951">Placeholder_42</text></g><!--entity Placeholder_19--><g id="elem_Placeholder_19"><polygon fill="#F1F1F1" points="3603,56,3613,46,3749,46,3749,82.2969,3739,92.2969,3603,92.2969,3603,56" style="stroke:#181818;stroke-width:0.5;"/><line style="stroke:#181818;stroke-width:0.5;" x1="3739" x2="3749" y1="56" y2="46"/><line style="stroke:#181818;stroke-width:0.5;" x1="3603" x2="3739" y1="56" y2="56"/><line style="stroke:#181818;stroke-width:0.5;" x1="3739" x2="3739" y1="56" y2="92.2969"/><text fill="#000000" font-family="sans-serif" font-size="14" lengthAdjust="spacing" textLength="106" x="3618" y="78.9951">Placeholder_19</text></g><!--entity Placeholder_36--><g id="elem_Placeholder_36"><polygon fill="#F1F1F1" points="3784,56,3794,46,3930,46,3930,82.2969,3920,92.2969,3784,92.2969,3784,56" style="stroke:#181818;stroke-width:0.5;"/><line style="stroke:#181818;stroke-width:0.5;" x1="3920" x2="3930" y1="56" y2="46"/><line style="stroke:#181818;stroke-width:0.5;" x1="3784" x2="3920" y1="56" y2="56"/><line style="stroke:#181818;stroke-width:0.5;" x1="3920" x2="3920" y1="56" y2="92.2969"/><text fill="#000000" font-family="sans-serif" font-size="14" lengthAdjust="spacing" textLength="106" x="3799" y="78.9951">Placeholder_36</text></g><!--entity Placeholder_39--><g id="elem_Placeholder_39"><polygon fill="#F1F1F1" points="3965,56,3975,46,4111,46,4111,82.2969,4101,92.2969,3965,92.2969,3965,56" style="stroke:#181818;stroke-width:0.5;"/><line style="stroke:#181818;stroke-width:0.5;" x1="4101" x2="4111" y1="56" y2="46"/><line style="stroke:#181818;stroke-width:0.5;" x1="3965" x2="4101" y1="56" y2="56"/><line style="stroke:#181818;stroke-width:0.5;" x1="4101" x2="4101" y1="56" y2="92.2969"/><text fill="#000000" font-family="sans-serif" font-size="14" lengthAdjust="spacing" textLength="106" x="3980" y="78.9951">Placeholder_39</text></g><!--entity Placeholder_10--><g id="elem_Placeholder_10"><polygon fill="#F1F1F1" points="4146,56,4156,46,4292,46,4292,82.2969,4282,92.2969,4146,92.2969,4146,56" style="stroke:#181818;stroke-width:0.5;"/><line style="stroke:#181818;stroke-width:0.5;" x1="4282" x2="4292" y1="56" y2="46"/><line style="stroke:#181818;stroke-width:0.5;" x1="4146" x2="4282" y1="56" y2="56"/><line style="stroke:#181818;stroke-width:0.5;" x1="4282" x2="4282" y1="56" y2="92.2969"/><text fill="#000000" font-family="sans-serif" font-size="14" lengthAdjust="spacing" textLength="106" x="4161" y="78.9951">Placeholder_10</text></g><!--entity Placeholder_15--><g id="elem_Placeholder_15"><polygon fill="#F1F1F1" points="4327,56,4337,46,4473,46,4473,82.2969,4463,92.2969,4327,92.2969,4327,56" style="stroke:#181818;stroke-width:0.5;"/><line style="stroke:#181818;stroke-width:0.5;" x1="4463" x2="4473" y1="56" y2="46"/><line style="stroke:#181818;stroke-width:0.5;" x1="4327" x2="4463" y1="56" y2="56"/><line style="stroke:#181818;stroke-width:0.5;" x1="4463" x2="4463" y1="56" y2="92.2969"/><text fill="#000000" font-family="sans-serif" font-size="14" lengthAdjust="spacing" textLength="106" x="4342" y="78.9951">Placeholder_15</text></g><!--entity Placeholder_27--><g id="elem_Placeholder_27"><polygon fill="#F1F1F1" points="4508,56,4518,46,4654,46,4654,82.2969,4644,92.2969,4508,92.2969,4508,56" style="stroke:#181818;stroke-width:0.5;"/><line style="stroke:#181818;stroke-width:0.5;" x1="4644" x2="4654" y1="56" y2="46"/><line style="stroke:#181818;stroke-width:0.5;" x1="4508" x2="4644" y1="56" y2="56"/><line style="stroke:#181818;stroke-width:0.5;" x1="4644" x2="4644" y1="56" y2="92.2969"/><text fill="#000000" font-family="sans-serif" font-size="14" lengthAdjust="spacing" textLength="106" x="4523" y="78.9951">Placeholder_27</text></g><!--entity Placeholder_31--><g id="elem_Placeholder_31"><polygon fill="#F1F1F1" points="4689,56,4699,46,4835,46,4835,82.2969,4825,92.2969,4689,92.2969,4689,56" style="stroke:#181818;stroke-width:0.5;"/><line style="stroke:#181818;stroke-width:0.5;" x1="4825" x2="4835" y1="56" y2="46"/><line style="stroke:#181818;stroke-width:0.5;" x1="4689" x2="4825" y1="56" y2="56"/><line style="stroke:#181818;stroke-width:0.5;" x1="4825" x2="4825" y1="56" y2="92.2969"/><text fill="#000000" font-family="sans-serif" font-size="14" lengthAdjust="spacing" textLength="106" x="4704" y="78.9951">Placeholder_31</text></g><!--entity Placeholder_20--><g id="elem_Placeholder_20"><polygon fill="#F1F1F1" points="4870,56,4880,46,5016,46,5016,82.2969,5006,92.2969,4870,92.2969,4870,56" style="stroke:#181818;stroke-width:0.5;"/><line style="stroke:#181818;stroke-width:0.5;" x1="5006" x2="5016" y1="56" y2="46"/><line style="stroke:#181818;stroke-width:0.5;" x1="4870" x2="5006" y1="56" y2="56"/><line style="stroke:#181818;stroke-width:0.5;" x1="5006" x2="5006" y1="56" y2="92.2969"/><text fill="#000000" font-family="sans-serif" font-size="14" lengthAdjust="spacing" textLength="106" x="4885" y="78.9951">Placeholder_20</text></g><!--entity Placeholder_41--><g id="elem_Placeholder_41"><polygon fill="#F1F1F1" points="5051,56,5061,46,5197,46,5197,82.2969,5187,92.2969,5051,92.2969,5051,56" style="stroke:#181818;stroke-width:0.5;"/><line style="stroke:#181818;stroke-width:0.5;" x1="5187" x2="5197" y1="56" y2="46"/><line style="stroke:#181818;stroke-width:0.5;" x1="5051" x2="5187" y1="56" y2="56"/><line style="stroke:#181818;stroke-width:0.5;" x1="5187" x2="5187" y1="56" y2="92.2969"/><text fill="#000000" font-family="sans-serif" font-size="14" lengthAdjust="spacing" textLength="106" x="5066" y="78.9951">Placeholder_41</text></g><!--entity Placeholder_11--><g id="elem_Placeholder_11"><polygon fill="#F1F1F1" points="5232,56,5242,46,5378,46,5378,82.2969,5368,92.2969,5232,92.2969,5232,56" style="stroke:#181818;stroke-width:0.5;"/><line style="stroke:#181818;stroke-width:0.5;" x1="5368" x2="5378" y1="56" y2="46"/><line style="stroke:#181818;stroke-width:0.5;" x1="5232" x2="5368" y1="56" y2="56"/><line style="stroke:#181818;stroke-width:0.5;" x1="5368" x2="5368" y1="56" y2="92.2969"/><text fill="#000000" font-family="sans-serif" font-size="14" lengthAdjust="spacing" textLength="106" x="5247" y="78.9951">Placeholder_11</text></g><!--entity Placeholder_37--><g id="elem_Placeholder_37"><polygon fill="#F1F1F1" points="5413,56,5423,46,5559,46,5559,82.2969,5549,92.2969,5413,92.2969,5413,56" style="stroke:#181818;stroke-width:0.5;"/><line style="stroke:#181818;stroke-width:0.5;" x1="5549" x2="5559" y1="56" y2="46"/><line style="stroke:#181818;stroke-width:0.5;" x1="5413" x2="5549" y1="56" y2="56"/><line style="stroke:#181818;stroke-width:0.5;" x1="5549" x2="5549" y1="56" y2="92.2969"/><text fill="#000000" font-family="sans-serif" font-size="14" lengthAdjust="spacing" textLength="106" x="5428" y="78.9951">Placeholder_37</text></g><!--entity Placeholder_1--><g id="elem_Placeholder_1"><polygon fill="#F1F1F1" points="5594.5,56,5604.5,46,5731.5,46,5731.5,82.2969,5721.5,92.2969,5594.5,92.2969,5594.5,56" style="stroke:#181818;stroke-width:0.5;"/><line style="stroke:#181818;stroke-width:0.5;" x1="5721.5" x2="5731.5" y1="56" y2="46"/><line style="stroke:#181818;stroke-width:0.5;" x1="5594.5" x2="5721.5" y1="56" y2="56"/><line style="stroke:#181818;stroke-width:0.5;" x1="5721.5" x2="5721.5" y1="56" y2="92.2969"/><text fill="#000000" font-family="sans-serif" font-size="14" lengthAdjust="spacing" textLength="97" x="5609.5" y="78.9951">Placeholder_1</text></g><!--entity Placeholder_44--><g id="elem_Placeholder_44"><polygon fill="#F1F1F1" points="5767,56,5777,46,5913,46,5913,82.2969,5903,92.2969,5767,92.2969,5767,56" style="stroke:#181818;stroke-width:0.5;"/><line style="stroke:#181818;stroke-width:0.5;" x1="5903" x2="5913" y1="56" y2="46"/><line style="stroke:#181818;stroke-width:0.5;" x1="5767" x2="5903" y1="56" y2="56"/><line style="stroke:#181818;stroke-width:0.5;" x1="5903" x2="5903" y1="56" y2="92.2969"/><text fill="#000000" font-family="sans-serif" font-size="14" lengthAdjust="spacing" textLength="106" x="5782" y="78.9951">Placeholder_44</text></g><!--entity Placeholder_5--><g id="elem_Placeholder_5"><polygon fill="#F1F1F1" points="5948.5,56,5958.5,46,6085.5,46,6085.5,82.2969,6075.5,92.2969,5948.5,92.2969,5948.5,56" style="stroke:#181818;stroke-width:0.5;"/><line style="stroke:#181818;stroke-width:0.5;" x1="6075.5" x2="6085.5" y1="56" y2="46"/><line style="stroke:#181818;stroke-width:0.5;" x1="5948.5" x2="6075.5" y1="56" y2="56"/><line style="stroke:#181818;stroke-width:0.5;" x1="6075.5" x2="6075.5" y1="56" y2="92.2969"/><text fill="#000000" font-family="sans-serif" font-size="14" lengthAdjust="spacing" textLength="97" x="5963.5" y="78.9951">Placeholder_5</text></g><!--link aName to aName--><g id="link_aName_aName"><path d="M6209.27,60.46 C6228.02,59.82 6244,62.67 6244,69 C6244,75.33 6228.02,78.18 6209.27,77.54 " fill="none" id="aName-aName" style="stroke:#181818;stroke-width:1.0;"/><text fill="#000000" font-family="sans-serif" font-size="13" lengthAdjust="spacing" textLength="437" x="6257" y="73.5669">eu_cloudscale_showcase_servlets_helpers_PaymentService Provider</text><path d="M6201.9618,53.6343 A10,10 0 0 0 6202.4443 67.7682" fill="none" style="stroke:#181818;stroke-width:1.5;"/><ellipse cx="6209.27" cy="60.46" fill="#FFFFFF" rx="6" ry="6" style="stroke:#181818;stroke-width:1.5;"/></g><!--SRC=[jLOnJiGm4Epp2aiqD45nd3iuEdIYGGWYKL14aULp5c9mOcCxWGZnToAX4mqbqzbRpEnuPzSRNyteLL03Up8VUnEqfLjr87i_Kx3AUpC-inGcoaRN4QkjqjGxsr6GrJdxp1frfmPgMTDewwOkQcKfzy6za4xvJoYvG6TnYOc64_bMBxlz8Vbhsix5fhXvTBBoLssRVVr1i4CJN809n0PCKCAVI809q0BA4aq0nkSLkiHRj0AqXwe2JO3kOu6UH1nkKxG2D3xQGoNQGnMynEXPBT2JIA0LSBIBE7oZG6zrWgCLm7y3j0AE9X3e8gC5LEYbw9_Rx0YLdnOvEruk6Kto5rh6thrh5TS3XTbIYh8dwob4MQjbe34zh76ZrqI3cysQPVOD]--></g></svg>