<?xml version="1.0" encoding="us-ascii" standalone="no"?><svg xmlns="http://www.w3.org/2000/svg" xmlns:xlink="http://www.w3.org/1999/xlink" contentStyleType="text/css" height="192px" preserveAspectRatio="none" style="width:9522px;height:192px;background:#FFFFFF;" version="1.1" viewBox="0 0 9522 192" width="9522px" zoomAndPan="magnify"><defs/><g><!--cluster nodeAdminConfirmController--><g id="cluster_nodeAdminConfirmController"><polygon fill="none" points="16,16,26,6,544,6,544,165,534,175,16,175,16,16" style="stroke:#181818;stroke-width:1.0;"/><line style="stroke:#181818;stroke-width:1.0;" x1="534" x2="544" y1="16" y2="6"/><line style="stroke:#181818;stroke-width:1.0;" x1="16" x2="534" y1="16" y2="16"/><line style="stroke:#181818;stroke-width:1.0;" x1="534" x2="534" y1="16" y2="175"/><text fill="#000000" font-family="sans-serif" font-size="14" font-weight="bold" lengthAdjust="spacing" textLength="230" x="161" y="31.9951">nodeAdminConfirmController</text></g><!--cluster AdminConfirmController--><g id="cluster_AdminConfirmController"><rect fill="none" height="97" rx="2.5" ry="2.5" style="stroke:#181818;stroke-width:1.0;" width="480" x="40" y="54"/><rect fill="none" height="10" style="stroke:#181818;stroke-width:1.0;" width="15" x="500" y="59"/><rect fill="none" height="2" style="stroke:#181818;stroke-width:1.0;" width="4" x="498" y="61"/><rect fill="none" height="2" style="stroke:#181818;stroke-width:1.0;" width="4" x="498" y="65"/><text fill="#000000" font-family="sans-serif" font-size="14" font-weight="bold" lengthAdjust="spacing" textLength="190" x="185" y="79.9951">AdminConfirmController</text></g><!--cluster nodeAdminRequestController--><g id="cluster_nodeAdminRequestController"><polygon fill="none" points="568,16,578,6,1100,6,1100,165,1090,175,568,175,568,16" style="stroke:#181818;stroke-width:1.0;"/><line style="stroke:#181818;stroke-width:1.0;" x1="1090" x2="1100" y1="16" y2="6"/><line style="stroke:#181818;stroke-width:1.0;" x1="568" x2="1090" y1="16" y2="16"/><line style="stroke:#181818;stroke-width:1.0;" x1="1090" x2="1090" y1="16" y2="175"/><text fill="#000000" font-family="sans-serif" font-size="14" font-weight="bold" lengthAdjust="spacing" textLength="233" x="713.5" y="31.9951">nodeAdminRequestController</text></g><!--cluster AdminRequestController--><g id="cluster_AdminRequestController"><rect fill="none" height="97" rx="2.5" ry="2.5" style="stroke:#181818;stroke-width:1.0;" width="484" x="592" y="54"/><rect fill="none" height="10" style="stroke:#181818;stroke-width:1.0;" width="15" x="1056" y="59"/><rect fill="none" height="2" style="stroke:#181818;stroke-width:1.0;" width="4" x="1054" y="61"/><rect fill="none" height="2" style="stroke:#181818;stroke-width:1.0;" width="4" x="1054" y="65"/><text fill="#000000" font-family="sans-serif" font-size="14" font-weight="bold" lengthAdjust="spacing" textLength="193" x="737.5" y="79.9951">AdminRequestController</text></g><!--cluster nodeBestSellersController--><g id="cluster_nodeBestSellersController"><polygon fill="none" points="1124,16,1134,6,1634,6,1634,165,1624,175,1124,175,1124,16" style="stroke:#181818;stroke-width:1.0;"/><line style="stroke:#181818;stroke-width:1.0;" x1="1624" x2="1634" y1="16" y2="6"/><line style="stroke:#181818;stroke-width:1.0;" x1="1124" x2="1624" y1="16" y2="16"/><line style="stroke:#181818;stroke-width:1.0;" x1="1624" x2="1624" y1="16" y2="175"/><text fill="#000000" font-family="sans-serif" font-size="14" font-weight="bold" lengthAdjust="spacing" textLength="208" x="1271" y="31.9951">nodeBestSellersController</text></g><!--cluster BestSellersController--><g id="cluster_BestSellersController"><rect fill="none" height="97" rx="2.5" ry="2.5" style="stroke:#181818;stroke-width:1.0;" width="462" x="1148" y="54"/><rect fill="none" height="10" style="stroke:#181818;stroke-width:1.0;" width="15" x="1590" y="59"/><rect fill="none" height="2" style="stroke:#181818;stroke-width:1.0;" width="4" x="1588" y="61"/><rect fill="none" height="2" style="stroke:#181818;stroke-width:1.0;" width="4" x="1588" y="65"/><text fill="#000000" font-family="sans-serif" font-size="14" font-weight="bold" lengthAdjust="spacing" textLength="168" x="1295" y="79.9951">BestSellersController</text></g><!--cluster nodeBuyConfirmController--><g id="cluster_nodeBuyConfirmController"><polygon fill="none" points="1658,16,1668,6,2168,6,2168,165,2158,175,1658,175,1658,16" style="stroke:#181818;stroke-width:1.0;"/><line style="stroke:#181818;stroke-width:1.0;" x1="2158" x2="2168" y1="16" y2="6"/><line style="stroke:#181818;stroke-width:1.0;" x1="1658" x2="2158" y1="16" y2="16"/><line style="stroke:#181818;stroke-width:1.0;" x1="2158" x2="2158" y1="16" y2="175"/><text fill="#000000" font-family="sans-serif" font-size="14" font-weight="bold" lengthAdjust="spacing" textLength="210" x="1804" y="31.9951">nodeBuyConfirmController</text></g><!--cluster BuyConfirmController--><g id="cluster_BuyConfirmController"><rect fill="none" height="97" rx="2.5" ry="2.5" style="stroke:#181818;stroke-width:1.0;" width="462" x="1682" y="54"/><rect fill="none" height="10" style="stroke:#181818;stroke-width:1.0;" width="15" x="2124" y="59"/><rect fill="none" height="2" style="stroke:#181818;stroke-width:1.0;" width="4" x="2122" y="61"/><rect fill="none" height="2" style="stroke:#181818;stroke-width:1.0;" width="4" x="2122" y="65"/><text fill="#000000" font-family="sans-serif" font-size="14" font-weight="bold" lengthAdjust="spacing" textLength="170" x="1828" y="79.9951">BuyConfirmController</text></g><!--cluster nodeBuyController--><g id="cluster_nodeBuyController"><polygon fill="none" points="2192,16,2202,6,2650,6,2650,165,2640,175,2192,175,2192,16" style="stroke:#181818;stroke-width:1.0;"/><line style="stroke:#181818;stroke-width:1.0;" x1="2640" x2="2650" y1="16" y2="6"/><line style="stroke:#181818;stroke-width:1.0;" x1="2192" x2="2640" y1="16" y2="16"/><line style="stroke:#181818;stroke-width:1.0;" x1="2640" x2="2640" y1="16" y2="175"/><text fill="#000000" font-family="sans-serif" font-size="14" font-weight="bold" lengthAdjust="spacing" textLength="148" x="2343" y="31.9951">nodeBuyController</text></g><!--cluster BuyController--><g id="cluster_BuyController"><rect fill="none" height="97" rx="2.5" ry="2.5" style="stroke:#181818;stroke-width:1.0;" width="410" x="2216" y="54"/><rect fill="none" height="10" style="stroke:#181818;stroke-width:1.0;" width="15" x="2606" y="59"/><rect fill="none" height="2" style="stroke:#181818;stroke-width:1.0;" width="4" x="2604" y="61"/><rect fill="none" height="2" style="stroke:#181818;stroke-width:1.0;" width="4" x="2604" y="65"/><text fill="#000000" font-family="sans-serif" font-size="14" font-weight="bold" lengthAdjust="spacing" textLength="108" x="2367" y="79.9951">BuyController</text></g><!--cluster nodeCustomerRegistrationController--><g id="cluster_nodeCustomerRegistrationController"><polygon fill="none" points="2674,16,2684,6,3256,6,3256,165,3246,175,2674,175,2674,16" style="stroke:#181818;stroke-width:1.0;"/><line style="stroke:#181818;stroke-width:1.0;" x1="3246" x2="3256" y1="16" y2="6"/><line style="stroke:#181818;stroke-width:1.0;" x1="2674" x2="3246" y1="16" y2="16"/><line style="stroke:#181818;stroke-width:1.0;" x1="3246" x2="3246" y1="16" y2="175"/><text fill="#000000" font-family="sans-serif" font-size="14" font-weight="bold" lengthAdjust="spacing" textLength="291" x="2815.5" y="31.9951">nodeCustomerRegistrationController</text></g><!--cluster CustomerRegistrationController--><g id="cluster_CustomerRegistrationController"><rect fill="none" height="97" rx="2.5" ry="2.5" style="stroke:#181818;stroke-width:1.0;" width="534" x="2698" y="54"/><rect fill="none" height="10" style="stroke:#181818;stroke-width:1.0;" width="15" x="3212" y="59"/><rect fill="none" height="2" style="stroke:#181818;stroke-width:1.0;" width="4" x="3210" y="61"/><rect fill="none" height="2" style="stroke:#181818;stroke-width:1.0;" width="4" x="3210" y="65"/><text fill="#000000" font-family="sans-serif" font-size="14" font-weight="bold" lengthAdjust="spacing" textLength="251" x="2839.5" y="79.9951">CustomerRegistrationController</text></g><!--cluster nodeHibernateService--><g id="cluster_nodeHibernateService"><polygon fill="none" points="3280,16,3290,6,3790,6,3790,165,3780,175,3280,175,3280,16" style="stroke:#181818;stroke-width:1.0;"/><line style="stroke:#181818;stroke-width:1.0;" x1="3780" x2="3790" y1="16" y2="6"/><line style="stroke:#181818;stroke-width:1.0;" x1="3280" x2="3780" y1="16" y2="16"/><line style="stroke:#181818;stroke-width:1.0;" x1="3780" x2="3780" y1="16" y2="175"/><text fill="#000000" font-family="sans-serif" font-size="14" font-weight="bold" lengthAdjust="spacing" textLength="176" x="3443" y="31.9951">nodeHibernateService</text></g><!--cluster HibernateService--><g id="cluster_HibernateService"><rect fill="none" height="97" rx="2.5" ry="2.5" style="stroke:#181818;stroke-width:1.0;" width="462" x="3304" y="54"/><rect fill="none" height="10" style="stroke:#181818;stroke-width:1.0;" width="15" x="3746" y="59"/><rect fill="none" height="2" style="stroke:#181818;stroke-width:1.0;" width="4" x="3744" y="61"/><rect fill="none" height="2" style="stroke:#181818;stroke-width:1.0;" width="4" x="3744" y="65"/><text fill="#000000" font-family="sans-serif" font-size="14" font-weight="bold" lengthAdjust="spacing" textLength="136" x="3467" y="79.9951">HibernateService</text></g><!--cluster nodeHomeController--><g id="cluster_nodeHomeController"><polygon fill="none" points="3814,16,3824,6,4286,6,4286,165,4276,175,3814,175,3814,16" style="stroke:#181818;stroke-width:1.0;"/><line style="stroke:#181818;stroke-width:1.0;" x1="4276" x2="4286" y1="16" y2="6"/><line style="stroke:#181818;stroke-width:1.0;" x1="3814" x2="4276" y1="16" y2="16"/><line style="stroke:#181818;stroke-width:1.0;" x1="4276" x2="4276" y1="16" y2="175"/><text fill="#000000" font-family="sans-serif" font-size="14" font-weight="bold" lengthAdjust="spacing" textLength="164" x="3964" y="31.9951">nodeHomeController</text></g><!--cluster HomeController--><g id="cluster_HomeController"><rect fill="none" height="97" rx="2.5" ry="2.5" style="stroke:#181818;stroke-width:1.0;" width="424" x="3838" y="54"/><rect fill="none" height="10" style="stroke:#181818;stroke-width:1.0;" width="15" x="4242" y="59"/><rect fill="none" height="2" style="stroke:#181818;stroke-width:1.0;" width="4" x="4240" y="61"/><rect fill="none" height="2" style="stroke:#181818;stroke-width:1.0;" width="4" x="4240" y="65"/><text fill="#000000" font-family="sans-serif" font-size="14" font-weight="bold" lengthAdjust="spacing" textLength="124" x="3988" y="79.9951">HomeController</text></g><!--cluster nodeLoginController--><g id="cluster_nodeLoginController"><polygon fill="none" points="4310,16,4320,6,4778,6,4778,165,4768,175,4310,175,4310,16" style="stroke:#181818;stroke-width:1.0;"/><line style="stroke:#181818;stroke-width:1.0;" x1="4768" x2="4778" y1="16" y2="6"/><line style="stroke:#181818;stroke-width:1.0;" x1="4310" x2="4768" y1="16" y2="16"/><line style="stroke:#181818;stroke-width:1.0;" x1="4768" x2="4768" y1="16" y2="175"/><text fill="#000000" font-family="sans-serif" font-size="14" font-weight="bold" lengthAdjust="spacing" textLength="162" x="4459" y="31.9951">nodeLoginController</text></g><!--cluster LoginController--><g id="cluster_LoginController"><rect fill="none" height="97" rx="2.5" ry="2.5" style="stroke:#181818;stroke-width:1.0;" width="420" x="4334" y="54"/><rect fill="none" height="10" style="stroke:#181818;stroke-width:1.0;" width="15" x="4734" y="59"/><rect fill="none" height="2" style="stroke:#181818;stroke-width:1.0;" width="4" x="4732" y="61"/><rect fill="none" height="2" style="stroke:#181818;stroke-width:1.0;" width="4" x="4732" y="65"/><text fill="#000000" font-family="sans-serif" font-size="14" font-weight="bold" lengthAdjust="spacing" textLength="122" x="4483" y="79.9951">LoginController</text></g><!--cluster nodeMongoService--><g id="cluster_nodeMongoService"><polygon fill="none" points="4802,16,4812,6,5292,6,5292,165,5282,175,4802,175,4802,16" style="stroke:#181818;stroke-width:1.0;"/><line style="stroke:#181818;stroke-width:1.0;" x1="5282" x2="5292" y1="16" y2="6"/><line style="stroke:#181818;stroke-width:1.0;" x1="4802" x2="5282" y1="16" y2="16"/><line style="stroke:#181818;stroke-width:1.0;" x1="5282" x2="5282" y1="16" y2="175"/><text fill="#000000" font-family="sans-serif" font-size="14" font-weight="bold" lengthAdjust="spacing" textLength="152" x="4967" y="31.9951">nodeMongoService</text></g><!--cluster MongoService--><g id="cluster_MongoService"><rect fill="none" height="97" rx="2.5" ry="2.5" style="stroke:#181818;stroke-width:1.0;" width="442" x="4826" y="54"/><rect fill="none" height="10" style="stroke:#181818;stroke-width:1.0;" width="15" x="5248" y="59"/><rect fill="none" height="2" style="stroke:#181818;stroke-width:1.0;" width="4" x="5246" y="61"/><rect fill="none" height="2" style="stroke:#181818;stroke-width:1.0;" width="4" x="5246" y="65"/><text fill="#000000" font-family="sans-serif" font-size="14" font-weight="bold" lengthAdjust="spacing" textLength="112" x="4991" y="79.9951">MongoService</text></g><!--cluster nodeNewProductsController--><g id="cluster_nodeNewProductsController"><polygon fill="none" points="5316,16,5326,6,5840,6,5840,165,5830,175,5316,175,5316,16" style="stroke:#181818;stroke-width:1.0;"/><line style="stroke:#181818;stroke-width:1.0;" x1="5830" x2="5840" y1="16" y2="6"/><line style="stroke:#181818;stroke-width:1.0;" x1="5316" x2="5830" y1="16" y2="16"/><line style="stroke:#181818;stroke-width:1.0;" x1="5830" x2="5830" y1="16" y2="175"/><text fill="#000000" font-family="sans-serif" font-size="14" font-weight="bold" lengthAdjust="spacing" textLength="225" x="5461.5" y="31.9951">nodeNewProductsController</text></g><!--cluster NewProductsController--><g id="cluster_NewProductsController"><rect fill="none" height="97" rx="2.5" ry="2.5" style="stroke:#181818;stroke-width:1.0;" width="476" x="5340" y="54"/><rect fill="none" height="10" style="stroke:#181818;stroke-width:1.0;" width="15" x="5796" y="59"/><rect fill="none" height="2" style="stroke:#181818;stroke-width:1.0;" width="4" x="5794" y="61"/><rect fill="none" height="2" style="stroke:#181818;stroke-width:1.0;" width="4" x="5794" y="65"/><text fill="#000000" font-family="sans-serif" font-size="14" font-weight="bold" lengthAdjust="spacing" textLength="185" x="5485.5" y="79.9951">NewProductsController</text></g><!--cluster nodeOrderDisplayController--><g id="cluster_nodeOrderDisplayController"><polygon fill="none" points="5864,16,5874,6,6384,6,6384,165,6374,175,5864,175,5864,16" style="stroke:#181818;stroke-width:1.0;"/><line style="stroke:#181818;stroke-width:1.0;" x1="6374" x2="6384" y1="16" y2="6"/><line style="stroke:#181818;stroke-width:1.0;" x1="5864" x2="6374" y1="16" y2="16"/><line style="stroke:#181818;stroke-width:1.0;" x1="6374" x2="6374" y1="16" y2="175"/><text fill="#000000" font-family="sans-serif" font-size="14" font-weight="bold" lengthAdjust="spacing" textLength="221" x="6009.5" y="31.9951">nodeOrderDisplayController</text></g><!--cluster OrderDisplayController--><g id="cluster_OrderDisplayController"><rect fill="none" height="97" rx="2.5" ry="2.5" style="stroke:#181818;stroke-width:1.0;" width="472" x="5888" y="54"/><rect fill="none" height="10" style="stroke:#181818;stroke-width:1.0;" width="15" x="6340" y="59"/><rect fill="none" height="2" style="stroke:#181818;stroke-width:1.0;" width="4" x="6338" y="61"/><rect fill="none" height="2" style="stroke:#181818;stroke-width:1.0;" width="4" x="6338" y="65"/><text fill="#000000" font-family="sans-serif" font-size="14" font-weight="bold" lengthAdjust="spacing" textLength="181" x="6033.5" y="79.9951">OrderDisplayController</text></g><!--cluster nodeOrderInquiryController--><g id="cluster_nodeOrderInquiryController"><polygon fill="none" points="6408,16,6418,6,6922,6,6922,165,6912,175,6408,175,6408,16" style="stroke:#181818;stroke-width:1.0;"/><line style="stroke:#181818;stroke-width:1.0;" x1="6912" x2="6922" y1="16" y2="6"/><line style="stroke:#181818;stroke-width:1.0;" x1="6408" x2="6912" y1="16" y2="16"/><line style="stroke:#181818;stroke-width:1.0;" x1="6912" x2="6912" y1="16" y2="175"/><text fill="#000000" font-family="sans-serif" font-size="14" font-weight="bold" lengthAdjust="spacing" textLength="219" x="6551.5" y="31.9951">nodeOrderInquiryController</text></g><!--cluster OrderInquiryController--><g id="cluster_OrderInquiryController"><rect fill="none" height="97" rx="2.5" ry="2.5" style="stroke:#181818;stroke-width:1.0;" width="466" x="6432" y="54"/><rect fill="none" height="10" style="stroke:#181818;stroke-width:1.0;" width="15" x="6878" y="59"/><rect fill="none" height="2" style="stroke:#181818;stroke-width:1.0;" width="4" x="6876" y="61"/><rect fill="none" height="2" style="stroke:#181818;stroke-width:1.0;" width="4" x="6876" y="65"/><text fill="#000000" font-family="sans-serif" font-size="14" font-weight="bold" lengthAdjust="spacing" textLength="179" x="6575.5" y="79.9951">OrderInquiryController</text></g><!--cluster nodePaymentService--><g id="cluster_nodePaymentService"><polygon fill="none" points="6946,16,6956,6,7925,6,7925,165,7915,175,6946,175,6946,16" style="stroke:#181818;stroke-width:1.0;"/><line style="stroke:#181818;stroke-width:1.0;" x1="7915" x2="7925" y1="16" y2="6"/><line style="stroke:#181818;stroke-width:1.0;" x1="6946" x2="7915" y1="16" y2="16"/><line style="stroke:#181818;stroke-width:1.0;" x1="7915" x2="7915" y1="16" y2="175"/><text fill="#000000" font-family="sans-serif" font-size="14" font-weight="bold" lengthAdjust="spacing" textLength="167" x="7348" y="31.9951">nodePaymentService</text></g><!--cluster PaymentService--><g id="cluster_PaymentService"><rect fill="none" height="97" rx="2.5" ry="2.5" style="stroke:#181818;stroke-width:1.0;" width="931" x="6970" y="54"/><rect fill="none" height="10" style="stroke:#181818;stroke-width:1.0;" width="15" x="7881" y="59"/><rect fill="none" height="2" style="stroke:#181818;stroke-width:1.0;" width="4" x="7879" y="61"/><rect fill="none" height="2" style="stroke:#181818;stroke-width:1.0;" width="4" x="7879" y="65"/><text fill="#000000" font-family="sans-serif" font-size="14" font-weight="bold" lengthAdjust="spacing" textLength="127" x="7372" y="79.9951">PaymentService</text></g><!--cluster nodeProductDetailServlet--><g id="cluster_nodeProductDetailServlet"><polygon fill="none" points="7949,16,7959,6,8453,6,8453,165,8443,175,7949,175,7949,16" style="stroke:#181818;stroke-width:1.0;"/><line style="stroke:#181818;stroke-width:1.0;" x1="8443" x2="8453" y1="16" y2="6"/><line style="stroke:#181818;stroke-width:1.0;" x1="7949" x2="8443" y1="16" y2="16"/><line style="stroke:#181818;stroke-width:1.0;" x1="8443" x2="8443" y1="16" y2="175"/><text fill="#000000" font-family="sans-serif" font-size="14" font-weight="bold" lengthAdjust="spacing" textLength="202" x="8096" y="31.9951">nodeProductDetailServlet</text></g><!--cluster ProductDetailServlet--><g id="cluster_ProductDetailServlet"><rect fill="none" height="97" rx="2.5" ry="2.5" style="stroke:#181818;stroke-width:1.0;" width="456" x="7973" y="54"/><rect fill="none" height="10" style="stroke:#181818;stroke-width:1.0;" width="15" x="8409" y="59"/><rect fill="none" height="2" style="stroke:#181818;stroke-width:1.0;" width="4" x="8407" y="61"/><rect fill="none" height="2" style="stroke:#181818;stroke-width:1.0;" width="4" x="8407" y="65"/><text fill="#000000" font-family="sans-serif" font-size="14" font-weight="bold" lengthAdjust="spacing" textLength="162" x="8120" y="79.9951">ProductDetailServlet</text></g><!--cluster nodeSearchController--><g id="cluster_nodeSearchController"><polygon fill="none" points="8477,16,8487,6,8955,6,8955,165,8945,175,8477,175,8477,16" style="stroke:#181818;stroke-width:1.0;"/><line style="stroke:#181818;stroke-width:1.0;" x1="8945" x2="8955" y1="16" y2="6"/><line style="stroke:#181818;stroke-width:1.0;" x1="8477" x2="8945" y1="16" y2="16"/><line style="stroke:#181818;stroke-width:1.0;" x1="8945" x2="8945" y1="16" y2="175"/><text fill="#000000" font-family="sans-serif" font-size="14" font-weight="bold" lengthAdjust="spacing" textLength="174" x="8625" y="31.9951">nodeSearchController</text></g><!--cluster SearchController--><g id="cluster_SearchController"><rect fill="none" height="97" rx="2.5" ry="2.5" style="stroke:#181818;stroke-width:1.0;" width="430" x="8501" y="54"/><rect fill="none" height="10" style="stroke:#181818;stroke-width:1.0;" width="15" x="8911" y="59"/><rect fill="none" height="2" style="stroke:#181818;stroke-width:1.0;" width="4" x="8909" y="61"/><rect fill="none" height="2" style="stroke:#181818;stroke-width:1.0;" width="4" x="8909" y="65"/><text fill="#000000" font-family="sans-serif" font-size="14" font-weight="bold" lengthAdjust="spacing" textLength="134" x="8649" y="79.9951">SearchController</text></g><!--cluster nodeShoppingCartController--><g id="cluster_nodeShoppingCartController"><polygon fill="none" points="8979,16,8989,6,9505,6,9505,165,9495,175,8979,175,8979,16" style="stroke:#181818;stroke-width:1.0;"/><line style="stroke:#181818;stroke-width:1.0;" x1="9495" x2="9505" y1="16" y2="6"/><line style="stroke:#181818;stroke-width:1.0;" x1="8979" x2="9495" y1="16" y2="16"/><line style="stroke:#181818;stroke-width:1.0;" x1="9495" x2="9495" y1="16" y2="175"/><text fill="#000000" font-family="sans-serif" font-size="14" font-weight="bold" lengthAdjust="spacing" textLength="226" x="9125" y="31.9951">nodeShoppingCartController</text></g><!--cluster ShoppingCartController--><g id="cluster_ShoppingCartController"><rect fill="none" height="97" rx="2.5" ry="2.5" style="stroke:#181818;stroke-width:1.0;" width="478" x="9003" y="54"/><rect fill="none" height="10" style="stroke:#181818;stroke-width:1.0;" width="15" x="9461" y="59"/><rect fill="none" height="2" style="stroke:#181818;stroke-width:1.0;" width="4" x="9459" y="61"/><rect fill="none" height="2" style="stroke:#181818;stroke-width:1.0;" width="4" x="9459" y="65"/><text fill="#000000" font-family="sans-serif" font-size="14" font-weight="bold" lengthAdjust="spacing" textLength="186" x="9149" y="79.9951">ShoppingCartController</text></g><!--entity eu_cloudscale_showcase_servlets_AdminConfirmController--><g id="elem_eu_cloudscale_showcase_servlets_AdminConfirmController"><a href="cloudscale-project-cloudstore.system#_UuNSl8BFEe6Cu5VWjfQa0w" target="_top" title="cloudscale-project-cloudstore.system#_UuNSl8BFEe6Cu5VWjfQa0w" xlink:actuate="onRequest" xlink:href="cloudscale-project-cloudstore.system#_UuNSl8BFEe6Cu5VWjfQa0w" xlink:show="new" xlink:title="cloudscale-project-cloudstore.system#_UuNSl8BFEe6Cu5VWjfQa0w" xlink:type="simple"><rect fill="#F1F1F1" height="46.2969" rx="2.5" ry="2.5" style="stroke:#181818;stroke-width:0.5;" width="447" x="56.5" y="89"/><rect fill="#F1F1F1" height="10" style="stroke:#181818;stroke-width:0.5;" width="15" x="483.5" y="94"/><rect fill="#F1F1F1" height="2" style="stroke:#181818;stroke-width:0.5;" width="4" x="481.5" y="96"/><rect fill="#F1F1F1" height="2" style="stroke:#181818;stroke-width:0.5;" width="4" x="481.5" y="100"/><text fill="#000000" font-family="sans-serif" font-size="14" lengthAdjust="spacing" textLength="407" x="71.5" y="121.9951">eu_cloudscale_showcase_servlets_AdminConfirmController</text></a></g><!--entity eu_cloudscale_showcase_servlets_AdminRequestController--><g id="elem_eu_cloudscale_showcase_servlets_AdminRequestController"><a href="cloudscale-project-cloudstore.system#_UuNSl8BFEe6Cu5VWjfQa0w" target="_top" title="cloudscale-project-cloudstore.system#_UuNSl8BFEe6Cu5VWjfQa0w" xlink:actuate="onRequest" xlink:href="cloudscale-project-cloudstore.system#_UuNSl8BFEe6Cu5VWjfQa0w" xlink:show="new" xlink:title="cloudscale-project-cloudstore.system#_UuNSl8BFEe6Cu5VWjfQa0w" xlink:type="simple"><rect fill="#F1F1F1" height="46.2969" rx="2.5" ry="2.5" style="stroke:#181818;stroke-width:0.5;" width="453" x="607.5" y="89"/><rect fill="#F1F1F1" height="10" style="stroke:#181818;stroke-width:0.5;" width="15" x="1040.5" y="94"/><rect fill="#F1F1F1" height="2" style="stroke:#181818;stroke-width:0.5;" width="4" x="1038.5" y="96"/><rect fill="#F1F1F1" height="2" style="stroke:#181818;stroke-width:0.5;" width="4" x="1038.5" y="100"/><text fill="#000000" font-family="sans-serif" font-size="14" lengthAdjust="spacing" textLength="413" x="622.5" y="121.9951">eu_cloudscale_showcase_servlets_AdminRequestController</text></a></g><!--entity eu_cloudscale_showcase_servlets_BestSellersController--><g id="elem_eu_cloudscale_showcase_servlets_BestSellersController"><a href="cloudscale-project-cloudstore.system#_UuNSl8BFEe6Cu5VWjfQa0w" target="_top" title="cloudscale-project-cloudstore.system#_UuNSl8BFEe6Cu5VWjfQa0w" xlink:actuate="onRequest" xlink:href="cloudscale-project-cloudstore.system#_UuNSl8BFEe6Cu5VWjfQa0w" xlink:show="new" xlink:title="cloudscale-project-cloudstore.system#_UuNSl8BFEe6Cu5VWjfQa0w" xlink:type="simple"><rect fill="#F1F1F1" height="46.2969" rx="2.5" ry="2.5" style="stroke:#181818;stroke-width:0.5;" width="429" x="1164.5" y="89"/><rect fill="#F1F1F1" height="10" style="stroke:#181818;stroke-width:0.5;" width="15" x="1573.5" y="94"/><rect fill="#F1F1F1" height="2" style="stroke:#181818;stroke-width:0.5;" width="4" x="1571.5" y="96"/><rect fill="#F1F1F1" height="2" style="stroke:#181818;stroke-width:0.5;" width="4" x="1571.5" y="100"/><text fill="#000000" font-family="sans-serif" font-size="14" lengthAdjust="spacing" textLength="389" x="1179.5" y="121.9951">eu_cloudscale_showcase_servlets_BestSellersController</text></a></g><!--entity eu_cloudscale_showcase_servlets_BuyConfirmController--><g id="elem_eu_cloudscale_showcase_servlets_BuyConfirmController"><a href="cloudscale-project-cloudstore.system#_UuNSl8BFEe6Cu5VWjfQa0w" target="_top" title="cloudscale-project-cloudstore.system#_UuNSl8BFEe6Cu5VWjfQa0w" xlink:actuate="onRequest" xlink:href="cloudscale-project-cloudstore.system#_UuNSl8BFEe6Cu5VWjfQa0w" xlink:show="new" xlink:title="cloudscale-project-cloudstore.system#_UuNSl8BFEe6Cu5VWjfQa0w" xlink:type="simple"><rect fill="#F1F1F1" height="46.2969" rx="2.5" ry="2.5" style="stroke:#181818;stroke-width:0.5;" width="430" x="1698" y="89"/><rect fill="#F1F1F1" height="10" style="stroke:#181818;stroke-width:0.5;" width="15" x="2108" y="94"/><rect fill="#F1F1F1" height="2" style="stroke:#181818;stroke-width:0.5;" width="4" x="2106" y="96"/><rect fill="#F1F1F1" height="2" style="stroke:#181818;stroke-width:0.5;" width="4" x="2106" y="100"/><text fill="#000000" font-family="sans-serif" font-size="14" lengthAdjust="spacing" textLength="390" x="1713" y="121.9951">eu_cloudscale_showcase_servlets_BuyConfirmController</text></a></g><!--entity eu_cloudscale_showcase_servlets_BuyController--><g id="elem_eu_cloudscale_showcase_servlets_BuyController"><a href="cloudscale-project-cloudstore.system#_UuNSl8BFEe6Cu5VWjfQa0w" target="_top" title="cloudscale-project-cloudstore.system#_UuNSl8BFEe6Cu5VWjfQa0w" xlink:actuate="onRequest" xlink:href="cloudscale-project-cloudstore.system#_UuNSl8BFEe6Cu5VWjfQa0w" xlink:show="new" xlink:title="cloudscale-project-cloudstore.system#_UuNSl8BFEe6Cu5VWjfQa0w" xlink:type="simple"><rect fill="#F1F1F1" height="46.2969" rx="2.5" ry="2.5" style="stroke:#181818;stroke-width:0.5;" width="377" x="2232.5" y="89"/><rect fill="#F1F1F1" height="10" style="stroke:#181818;stroke-width:0.5;" width="15" x="2589.5" y="94"/><rect fill="#F1F1F1" height="2" style="stroke:#181818;stroke-width:0.5;" width="4" x="2587.5" y="96"/><rect fill="#F1F1F1" height="2" style="stroke:#181818;stroke-width:0.5;" width="4" x="2587.5" y="100"/><text fill="#000000" font-family="sans-serif" font-size="14" lengthAdjust="spacing" textLength="337" x="2247.5" y="121.9951">eu_cloudscale_showcase_servlets_BuyController</text></a></g><!--entity eu_cloudscale_showcase_servlets_CustomerRegistrationController--><g id="elem_eu_cloudscale_showcase_servlets_CustomerRegistrationController"><a href="cloudscale-project-cloudstore.system#_UuNSl8BFEe6Cu5VWjfQa0w" target="_top" title="cloudscale-project-cloudstore.system#_UuNSl8BFEe6Cu5VWjfQa0w" xlink:actuate="onRequest" xlink:href="cloudscale-project-cloudstore.system#_UuNSl8BFEe6Cu5VWjfQa0w" xlink:show="new" xlink:title="cloudscale-project-cloudstore.system#_UuNSl8BFEe6Cu5VWjfQa0w" xlink:type="simple"><rect fill="#F1F1F1" height="46.2969" rx="2.5" ry="2.5" style="stroke:#181818;stroke-width:0.5;" width="502" x="2714" y="89"/><rect fill="#F1F1F1" height="10" style="stroke:#181818;stroke-width:0.5;" width="15" x="3196" y="94"/><rect fill="#F1F1F1" height="2" style="stroke:#181818;stroke-width:0.5;" width="4" x="3194" y="96"/><rect fill="#F1F1F1" height="2" style="stroke:#181818;stroke-width:0.5;" width="4" x="3194" y="100"/><text fill="#000000" font-family="sans-serif" font-size="14" lengthAdjust="spacing" textLength="462" x="2729" y="121.9951">eu_cloudscale_showcase_servlets_CustomerRegistrationController</text></a></g><!--entity eu_cloudscale_showcase_db_services_HibernateService--><g id="elem_eu_cloudscale_showcase_db_services_HibernateService"><a href="cloudscale-project-cloudstore.system#_UuNSl8BFEe6Cu5VWjfQa0w" target="_top" title="cloudscale-project-cloudstore.system#_UuNSl8BFEe6Cu5VWjfQa0w" xlink:actuate="onRequest" xlink:href="cloudscale-project-cloudstore.system#_UuNSl8BFEe6Cu5VWjfQa0w" xlink:show="new" xlink:title="cloudscale-project-cloudstore.system#_UuNSl8BFEe6Cu5VWjfQa0w" xlink:type="simple"><rect fill="#F1F1F1" height="46.2969" rx="2.5" ry="2.5" style="stroke:#181818;stroke-width:0.5;" width="429" x="3320.5" y="89"/><rect fill="#F1F1F1" height="10" style="stroke:#181818;stroke-width:0.5;" width="15" x="3729.5" y="94"/><rect fill="#F1F1F1" height="2" style="stroke:#181818;stroke-width:0.5;" width="4" x="3727.5" y="96"/><rect fill="#F1F1F1" height="2" style="stroke:#181818;stroke-width:0.5;" width="4" x="3727.5" y="100"/><text fill="#000000" font-family="sans-serif" font-size="14" lengthAdjust="spacing" textLength="389" x="3335.5" y="121.9951">eu_cloudscale_showcase_db_services_HibernateService</text></a></g><!--entity eu_cloudscale_showcase_servlets_HomeController--><g id="elem_eu_cloudscale_showcase_servlets_HomeController"><a href="cloudscale-project-cloudstore.system#_UuNSl8BFEe6Cu5VWjfQa0w" target="_top" title="cloudscale-project-cloudstore.system#_UuNSl8BFEe6Cu5VWjfQa0w" xlink:actuate="onRequest" xlink:href="cloudscale-project-cloudstore.system#_UuNSl8BFEe6Cu5VWjfQa0w" xlink:show="new" xlink:title="cloudscale-project-cloudstore.system#_UuNSl8BFEe6Cu5VWjfQa0w" xlink:type="simple"><rect fill="#F1F1F1" height="46.2969" rx="2.5" ry="2.5" style="stroke:#181818;stroke-width:0.5;" width="392" x="3854" y="89"/><rect fill="#F1F1F1" height="10" style="stroke:#181818;stroke-width:0.5;" width="15" x="4226" y="94"/><rect fill="#F1F1F1" height="2" style="stroke:#181818;stroke-width:0.5;" width="4" x="4224" y="96"/><rect fill="#F1F1F1" height="2" style="stroke:#181818;stroke-width:0.5;" width="4" x="4224" y="100"/><text fill="#000000" font-family="sans-serif" font-size="14" lengthAdjust="spacing" textLength="352" x="3869" y="121.9951">eu_cloudscale_showcase_servlets_HomeController</text></a></g><!--entity eu_cloudscale_showcase_servlets_LoginController--><g id="elem_eu_cloudscale_showcase_servlets_LoginController"><a href="cloudscale-project-cloudstore.system#_UuNSl8BFEe6Cu5VWjfQa0w" target="_top" title="cloudscale-project-cloudstore.system#_UuNSl8BFEe6Cu5VWjfQa0w" xlink:actuate="onRequest" xlink:href="cloudscale-project-cloudstore.system#_UuNSl8BFEe6Cu5VWjfQa0w" xlink:show="new" xlink:title="cloudscale-project-cloudstore.system#_UuNSl8BFEe6Cu5VWjfQa0w" xlink:type="simple"><rect fill="#F1F1F1" height="46.2969" rx="2.5" ry="2.5" style="stroke:#181818;stroke-width:0.5;" width="388" x="4350" y="89"/><rect fill="#F1F1F1" height="10" style="stroke:#181818;stroke-width:0.5;" width="15" x="4718" y="94"/><rect fill="#F1F1F1" height="2" style="stroke:#181818;stroke-width:0.5;" width="4" x="4716" y="96"/><rect fill="#F1F1F1" height="2" style="stroke:#181818;stroke-width:0.5;" width="4" x="4716" y="100"/><text fill="#000000" font-family="sans-serif" font-size="14" lengthAdjust="spacing" textLength="348" x="4365" y="121.9951">eu_cloudscale_showcase_servlets_LoginController</text></a></g><!--entity eu_cloudscale_showcase_db_services_MongoService--><g id="elem_eu_cloudscale_showcase_db_services_MongoService"><a href="cloudscale-project-cloudstore.system#_UuNSl8BFEe6Cu5VWjfQa0w" target="_top" title="cloudscale-project-cloudstore.system#_UuNSl8BFEe6Cu5VWjfQa0w" xlink:actuate="onRequest" xlink:href="cloudscale-project-cloudstore.system#_UuNSl8BFEe6Cu5VWjfQa0w" xlink:show="new" xlink:title="cloudscale-project-cloudstore.system#_UuNSl8BFEe6Cu5VWjfQa0w" xlink:type="simple"><rect fill="#F1F1F1" height="46.2969" rx="2.5" ry="2.5" style="stroke:#181818;stroke-width:0.5;" width="410" x="4842" y="89"/><rect fill="#F1F1F1" height="10" style="stroke:#181818;stroke-width:0.5;" width="15" x="5232" y="94"/><rect fill="#F1F1F1" height="2" style="stroke:#181818;stroke-width:0.5;" width="4" x="5230" y="96"/><rect fill="#F1F1F1" height="2" style="stroke:#181818;stroke-width:0.5;" width="4" x="5230" y="100"/><text fill="#000000" font-family="sans-serif" font-size="14" lengthAdjust="spacing" textLength="370" x="4857" y="121.9951">eu_cloudscale_showcase_db_services_MongoService</text></a></g><!--entity eu_cloudscale_showcase_servlets_NewProductsController--><g id="elem_eu_cloudscale_showcase_servlets_NewProductsController"><a href="cloudscale-project-cloudstore.system#_UuNSl8BFEe6Cu5VWjfQa0w" target="_top" title="cloudscale-project-cloudstore.system#_UuNSl8BFEe6Cu5VWjfQa0w" xlink:actuate="onRequest" xlink:href="cloudscale-project-cloudstore.system#_UuNSl8BFEe6Cu5VWjfQa0w" xlink:show="new" xlink:title="cloudscale-project-cloudstore.system#_UuNSl8BFEe6Cu5VWjfQa0w" xlink:type="simple"><rect fill="#F1F1F1" height="46.2969" rx="2.5" ry="2.5" style="stroke:#181818;stroke-width:0.5;" width="443" x="5356.5" y="89"/><rect fill="#F1F1F1" height="10" style="stroke:#181818;stroke-width:0.5;" width="15" x="5779.5" y="94"/><rect fill="#F1F1F1" height="2" style="stroke:#181818;stroke-width:0.5;" width="4" x="5777.5" y="96"/><rect fill="#F1F1F1" height="2" style="stroke:#181818;stroke-width:0.5;" width="4" x="5777.5" y="100"/><text fill="#000000" font-family="sans-serif" font-size="14" lengthAdjust="spacing" textLength="403" x="5371.5" y="121.9951">eu_cloudscale_showcase_servlets_NewProductsController</text></a></g><!--entity eu_cloudscale_showcase_servlets_OrderDisplayController--><g id="elem_eu_cloudscale_showcase_servlets_OrderDisplayController"><a href="cloudscale-project-cloudstore.system#_UuNSl8BFEe6Cu5VWjfQa0w" target="_top" title="cloudscale-project-cloudstore.system#_UuNSl8BFEe6Cu5VWjfQa0w" xlink:actuate="onRequest" xlink:href="cloudscale-project-cloudstore.system#_UuNSl8BFEe6Cu5VWjfQa0w" xlink:show="new" xlink:title="cloudscale-project-cloudstore.system#_UuNSl8BFEe6Cu5VWjfQa0w" xlink:type="simple"><rect fill="#F1F1F1" height="46.2969" rx="2.5" ry="2.5" style="stroke:#181818;stroke-width:0.5;" width="439" x="5904.5" y="89"/><rect fill="#F1F1F1" height="10" style="stroke:#181818;stroke-width:0.5;" width="15" x="6323.5" y="94"/><rect fill="#F1F1F1" height="2" style="stroke:#181818;stroke-width:0.5;" width="4" x="6321.5" y="96"/><rect fill="#F1F1F1" height="2" style="stroke:#181818;stroke-width:0.5;" width="4" x="6321.5" y="100"/><text fill="#000000" font-family="sans-serif" font-size="14" lengthAdjust="spacing" textLength="399" x="5919.5" y="121.9951">eu_cloudscale_showcase_servlets_OrderDisplayController</text></a></g><!--entity eu_cloudscale_showcase_servlets_OrderInquiryController--><g id="elem_eu_cloudscale_showcase_servlets_OrderInquiryController"><a href="cloudscale-project-cloudstore.system#_UuNSl8BFEe6Cu5VWjfQa0w" target="_top" title="cloudscale-project-cloudstore.system#_UuNSl8BFEe6Cu5VWjfQa0w" xlink:actuate="onRequest" xlink:href="cloudscale-project-cloudstore.system#_UuNSl8BFEe6Cu5VWjfQa0w" xlink:show="new" xlink:title="cloudscale-project-cloudstore.system#_UuNSl8BFEe6Cu5VWjfQa0w" xlink:type="simple"><rect fill="#F1F1F1" height="46.2969" rx="2.5" ry="2.5" style="stroke:#181818;stroke-width:0.5;" width="435" x="6447.5" y="89"/><rect fill="#F1F1F1" height="10" style="stroke:#181818;stroke-width:0.5;" width="15" x="6862.5" y="94"/><rect fill="#F1F1F1" height="2" style="stroke:#181818;stroke-width:0.5;" width="4" x="6860.5" y="96"/><rect fill="#F1F1F1" height="2" style="stroke:#181818;stroke-width:0.5;" width="4" x="6860.5" y="100"/><text fill="#000000" font-family="sans-serif" font-size="14" lengthAdjust="spacing" textLength="395" x="6462.5" y="121.9951">eu_cloudscale_showcase_servlets_OrderInquiryController</text></a></g><!--entity eu_cloudscale_showcase_servlets_PaymentController--><g id="elem_eu_cloudscale_showcase_servlets_PaymentController"><a href="cloudscale-project-cloudstore.system#_UuNSl8BFEe6Cu5VWjfQa0w" target="_top" title="cloudscale-project-cloudstore.system#_UuNSl8BFEe6Cu5VWjfQa0w" xlink:actuate="onRequest" xlink:href="cloudscale-project-cloudstore.system#_UuNSl8BFEe6Cu5VWjfQa0w" xlink:show="new" xlink:title="cloudscale-project-cloudstore.system#_UuNSl8BFEe6Cu5VWjfQa0w" xlink:type="simple"><rect fill="#F1F1F1" height="46.2969" rx="2.5" ry="2.5" style="stroke:#181818;stroke-width:0.5;" width="411" x="7473.5" y="89"/><rect fill="#F1F1F1" height="10" style="stroke:#181818;stroke-width:0.5;" width="15" x="7864.5" y="94"/><rect fill="#F1F1F1" height="2" style="stroke:#181818;stroke-width:0.5;" width="4" x="7862.5" y="96"/><rect fill="#F1F1F1" height="2" style="stroke:#181818;stroke-width:0.5;" width="4" x="7862.5" y="100"/><text fill="#000000" font-family="sans-serif" font-size="14" lengthAdjust="spacing" textLength="371" x="7488.5" y="121.9951">eu_cloudscale_showcase_servlets_PaymentController</text></a></g><!--entity eu_cloudscale_showcase_servlets_helpers_PaymentService--><g id="elem_eu_cloudscale_showcase_servlets_helpers_PaymentService"><a href="cloudscale-project-cloudstore.system#_UuNSl8BFEe6Cu5VWjfQa0w" target="_top" title="cloudscale-project-cloudstore.system#_UuNSl8BFEe6Cu5VWjfQa0w" xlink:actuate="onRequest" xlink:href="cloudscale-project-cloudstore.system#_UuNSl8BFEe6Cu5VWjfQa0w" xlink:show="new" xlink:title="cloudscale-project-cloudstore.system#_UuNSl8BFEe6Cu5VWjfQa0w" xlink:type="simple"><rect fill="#F1F1F1" height="46.2969" rx="2.5" ry="2.5" style="stroke:#181818;stroke-width:0.5;" width="453" x="6985.5" y="89"/><rect fill="#F1F1F1" height="10" style="stroke:#181818;stroke-width:0.5;" width="15" x="7418.5" y="94"/><rect fill="#F1F1F1" height="2" style="stroke:#181818;stroke-width:0.5;" width="4" x="7416.5" y="96"/><rect fill="#F1F1F1" height="2" style="stroke:#181818;stroke-width:0.5;" width="4" x="7416.5" y="100"/><text fill="#000000" font-family="sans-serif" font-size="14" lengthAdjust="spacing" textLength="413" x="7000.5" y="121.9951">eu_cloudscale_showcase_servlets_helpers_PaymentService</text></a></g><!--entity eu_cloudscale_showcase_servlets_ProductDetailServlet--><g id="elem_eu_cloudscale_showcase_servlets_ProductDetailServlet"><a href="cloudscale-project-cloudstore.system#_UuNSl8BFEe6Cu5VWjfQa0w" target="_top" title="cloudscale-project-cloudstore.system#_UuNSl8BFEe6Cu5VWjfQa0w" xlink:actuate="onRequest" xlink:href="cloudscale-project-cloudstore.system#_UuNSl8BFEe6Cu5VWjfQa0w" xlink:show="new" xlink:title="cloudscale-project-cloudstore.system#_UuNSl8BFEe6Cu5VWjfQa0w" xlink:type="simple"><rect fill="#F1F1F1" height="46.2969" rx="2.5" ry="2.5" style="stroke:#181818;stroke-width:0.5;" width="424" x="7989" y="89"/><rect fill="#F1F1F1" height="10" style="stroke:#181818;stroke-width:0.5;" width="15" x="8393" y="94"/><rect fill="#F1F1F1" height="2" style="stroke:#181818;stroke-width:0.5;" width="4" x="8391" y="96"/><rect fill="#F1F1F1" height="2" style="stroke:#181818;stroke-width:0.5;" width="4" x="8391" y="100"/><text fill="#000000" font-family="sans-serif" font-size="14" lengthAdjust="spacing" textLength="384" x="8004" y="121.9951">eu_cloudscale_showcase_servlets_ProductDetailServlet</text></a></g><!--entity eu_cloudscale_showcase_servlets_SearchController--><g id="elem_eu_cloudscale_showcase_servlets_SearchController"><a href="cloudscale-project-cloudstore.system#_UuNSl8BFEe6Cu5VWjfQa0w" target="_top" title="cloudscale-project-cloudstore.system#_UuNSl8BFEe6Cu5VWjfQa0w" xlink:actuate="onRequest" xlink:href="cloudscale-project-cloudstore.system#_UuNSl8BFEe6Cu5VWjfQa0w" xlink:show="new" xlink:title="cloudscale-project-cloudstore.system#_UuNSl8BFEe6Cu5VWjfQa0w" xlink:type="simple"><rect fill="#F1F1F1" height="46.2969" rx="2.5" ry="2.5" style="stroke:#181818;stroke-width:0.5;" width="399" x="8516.5" y="89"/><rect fill="#F1F1F1" height="10" style="stroke:#181818;stroke-width:0.5;" width="15" x="8895.5" y="94"/><rect fill="#F1F1F1" height="2" style="stroke:#181818;stroke-width:0.5;" width="4" x="8893.5" y="96"/><rect fill="#F1F1F1" height="2" style="stroke:#181818;stroke-width:0.5;" width="4" x="8893.5" y="100"/><text fill="#000000" font-family="sans-serif" font-size="14" lengthAdjust="spacing" textLength="359" x="8531.5" y="121.9951">eu_cloudscale_showcase_servlets_SearchController</text></a></g><!--entity eu_cloudscale_showcase_servlets_ShoppingCartController--><g id="elem_eu_cloudscale_showcase_servlets_ShoppingCartController"><a href="cloudscale-project-cloudstore.system#_UuNSl8BFEe6Cu5VWjfQa0w" target="_top" title="cloudscale-project-cloudstore.system#_UuNSl8BFEe6Cu5VWjfQa0w" xlink:actuate="onRequest" xlink:href="cloudscale-project-cloudstore.system#_UuNSl8BFEe6Cu5VWjfQa0w" xlink:show="new" xlink:title="cloudscale-project-cloudstore.system#_UuNSl8BFEe6Cu5VWjfQa0w" xlink:type="simple"><rect fill="#F1F1F1" height="46.2969" rx="2.5" ry="2.5" style="stroke:#181818;stroke-width:0.5;" width="445" x="9019.5" y="89"/><rect fill="#F1F1F1" height="10" style="stroke:#181818;stroke-width:0.5;" width="15" x="9444.5" y="94"/><rect fill="#F1F1F1" height="2" style="stroke:#181818;stroke-width:0.5;" width="4" x="9442.5" y="96"/><rect fill="#F1F1F1" height="2" style="stroke:#181818;stroke-width:0.5;" width="4" x="9442.5" y="100"/><text fill="#000000" font-family="sans-serif" font-size="14" lengthAdjust="spacing" textLength="405" x="9034.5" y="121.9951">eu_cloudscale_showcase_servlets_ShoppingCartController</text></a></g><!--SRC=[jPTHJy8m58NV-HLBVDOO4uslCZMQAA2B-a38KheB5BjstBOYCVvtYnXqhAMOb90CmZsd_SxDtTAfLoOgWgHCHkmzPKWvt94XyEuR82TLnSGuqMYWfTP2AijA2X0wqmiEYIdvIKl80fBbvQ8ecKYb634ixPT6oJbWyj5QknAlf0ycfroQGb728LSJEQT4sH-0RnoqojtEGTBl_zeEAvHJeFfmzPUM24TgeJIK1_cJwMJyl7rz1MUfENr-cOuUoF5yC6XzsayzmYFC32YzBO9Bibk4XZDsXBPTFOFboigJmAS81d0Qe_ERnVOPyWZ2z0xVVk3zrF_6tHDdQgoh17o4CLCQYMPIUC23qc2IxIl4ZdR3Xe22QCZi_en2BOoZwCClXjy9h4ZbcxRepBOzdlOtIi5srnsnKU_acFb6fLaBmcvOOjFUIp6Mha7OAEmo17yjiJaxCE-XB0pLleUsJn7iiDCOcx-B1U0bKnKdlWUWLn9Cu7Rk9SAjc1c6MoEu9Bj5Q3XZH-YHHRaycpdclL4A8lyuej86Dvq0h-pf8g_ZHk_Jwdwu14qOprPxrxlb5eHxvl35Xi-089ru9jHH349lUg83J-JtkqHAq7Uczah2y4vdf0XV]--></g></svg>