<?xml version="1.0" encoding="us-ascii" standalone="no"?><svg xmlns="http://www.w3.org/2000/svg" xmlns:xlink="http://www.w3.org/1999/xlink" contentStyleType="text/css" height="125px" preserveAspectRatio="none" style="width:16667px;height:125px;background:#FFFFFF;" version="1.1" viewBox="0 0 16667 125" width="16667px" zoomAndPan="magnify"><defs/><g><!--cluster Placeholder_44--><g id="cluster_Placeholder_44"><polygon fill="none" points="7166,16,7176,6,16650,6,16650,98,16640,108,7166,108,7166,16" style="stroke:#181818;stroke-width:1.0;"/><line style="stroke:#181818;stroke-width:1.0;" x1="16640" x2="16650" y1="16" y2="6"/><line style="stroke:#181818;stroke-width:1.0;" x1="7166" x2="16640" y1="16" y2="16"/><line style="stroke:#181818;stroke-width:1.0;" x1="16640" x2="16640" y1="16" y2="108"/><text fill="#000000" font-family="sans-serif" font-size="14" font-weight="bold" lengthAdjust="spacing" textLength="120" x="11844" y="31.9951">Placeholder_44</text></g><!--entity aName--><g id="elem_aName"><a href="apssouza22-java-microservice.system#_qXL-cLtpEe66ndueERJfLA" target="_top" title="apssouza22-java-microservice.system#_qXL-cLtpEe66ndueERJfLA" xlink:actuate="onRequest" xlink:href="apssouza22-java-microservice.system#_qXL-cLtpEe66ndueERJfLA" xlink:show="new" xlink:title="apssouza22-java-microservice.system#_qXL-cLtpEe66ndueERJfLA" xlink:type="simple"><rect fill="#F1F1F1" height="46.2969" rx="2.5" ry="2.5" style="stroke:#181818;stroke-width:0.5;" width="88" x="7182" y="46"/><rect fill="#F1F1F1" height="10" style="stroke:#181818;stroke-width:0.5;" width="15" x="7250" y="51"/><rect fill="#F1F1F1" height="2" style="stroke:#181818;stroke-width:0.5;" width="4" x="7248" y="53"/><rect fill="#F1F1F1" height="2" style="stroke:#181818;stroke-width:0.5;" width="4" x="7248" y="57"/><text fill="#000000" font-family="sans-serif" font-size="14" lengthAdjust="spacing" textLength="48" x="7197" y="78.9951">aName</text></a></g><!--entity Placeholder_21--><g id="elem_Placeholder_21"><polygon fill="#F1F1F1" points="16,56,26,46,162,46,162,82.2969,152,92.2969,16,92.2969,16,56" style="stroke:#181818;stroke-width:0.5;"/><line style="stroke:#181818;stroke-width:0.5;" x1="152" x2="162" y1="56" y2="46"/><line style="stroke:#181818;stroke-width:0.5;" x1="16" x2="152" y1="56" y2="56"/><line style="stroke:#181818;stroke-width:0.5;" x1="152" x2="152" y1="56" y2="92.2969"/><text fill="#000000" font-family="sans-serif" font-size="14" lengthAdjust="spacing" textLength="106" x="31" y="78.9951">Placeholder_21</text></g><!--entity Placeholder_8--><g id="elem_Placeholder_8"><polygon fill="#F1F1F1" points="197.5,56,207.5,46,334.5,46,334.5,82.2969,324.5,92.2969,197.5,92.2969,197.5,56" style="stroke:#181818;stroke-width:0.5;"/><line style="stroke:#181818;stroke-width:0.5;" x1="324.5" x2="334.5" y1="56" y2="46"/><line style="stroke:#181818;stroke-width:0.5;" x1="197.5" x2="324.5" y1="56" y2="56"/><line style="stroke:#181818;stroke-width:0.5;" x1="324.5" x2="324.5" y1="56" y2="92.2969"/><text fill="#000000" font-family="sans-serif" font-size="14" lengthAdjust="spacing" textLength="97" x="212.5" y="78.9951">Placeholder_8</text></g><!--entity Placeholder_38--><g id="elem_Placeholder_38"><polygon fill="#F1F1F1" points="370,56,380,46,516,46,516,82.2969,506,92.2969,370,92.2969,370,56" style="stroke:#181818;stroke-width:0.5;"/><line style="stroke:#181818;stroke-width:0.5;" x1="506" x2="516" y1="56" y2="46"/><line style="stroke:#181818;stroke-width:0.5;" x1="370" x2="506" y1="56" y2="56"/><line style="stroke:#181818;stroke-width:0.5;" x1="506" x2="506" y1="56" y2="92.2969"/><text fill="#000000" font-family="sans-serif" font-size="14" lengthAdjust="spacing" textLength="106" x="385" y="78.9951">Placeholder_38</text></g><!--entity Placeholder_48--><g id="elem_Placeholder_48"><polygon fill="#F1F1F1" points="551,56,561,46,697,46,697,82.2969,687,92.2969,551,92.2969,551,56" style="stroke:#181818;stroke-width:0.5;"/><line style="stroke:#181818;stroke-width:0.5;" x1="687" x2="697" y1="56" y2="46"/><line style="stroke:#181818;stroke-width:0.5;" x1="551" x2="687" y1="56" y2="56"/><line style="stroke:#181818;stroke-width:0.5;" x1="687" x2="687" y1="56" y2="92.2969"/><text fill="#000000" font-family="sans-serif" font-size="14" lengthAdjust="spacing" textLength="106" x="566" y="78.9951">Placeholder_48</text></g><!--entity Placeholder_6--><g id="elem_Placeholder_6"><polygon fill="#F1F1F1" points="732.5,56,742.5,46,869.5,46,869.5,82.2969,859.5,92.2969,732.5,92.2969,732.5,56" style="stroke:#181818;stroke-width:0.5;"/><line style="stroke:#181818;stroke-width:0.5;" x1="859.5" x2="869.5" y1="56" y2="46"/><line style="stroke:#181818;stroke-width:0.5;" x1="732.5" x2="859.5" y1="56" y2="56"/><line style="stroke:#181818;stroke-width:0.5;" x1="859.5" x2="859.5" y1="56" y2="92.2969"/><text fill="#000000" font-family="sans-serif" font-size="14" lengthAdjust="spacing" textLength="97" x="747.5" y="78.9951">Placeholder_6</text></g><!--entity Placeholder_33--><g id="elem_Placeholder_33"><polygon fill="#F1F1F1" points="905,56,915,46,1051,46,1051,82.2969,1041,92.2969,905,92.2969,905,56" style="stroke:#181818;stroke-width:0.5;"/><line style="stroke:#181818;stroke-width:0.5;" x1="1041" x2="1051" y1="56" y2="46"/><line style="stroke:#181818;stroke-width:0.5;" x1="905" x2="1041" y1="56" y2="56"/><line style="stroke:#181818;stroke-width:0.5;" x1="1041" x2="1041" y1="56" y2="92.2969"/><text fill="#000000" font-family="sans-serif" font-size="14" lengthAdjust="spacing" textLength="106" x="920" y="78.9951">Placeholder_33</text></g><!--entity Placeholder_29--><g id="elem_Placeholder_29"><polygon fill="#F1F1F1" points="1086,56,1096,46,1232,46,1232,82.2969,1222,92.2969,1086,92.2969,1086,56" style="stroke:#181818;stroke-width:0.5;"/><line style="stroke:#181818;stroke-width:0.5;" x1="1222" x2="1232" y1="56" y2="46"/><line style="stroke:#181818;stroke-width:0.5;" x1="1086" x2="1222" y1="56" y2="56"/><line style="stroke:#181818;stroke-width:0.5;" x1="1222" x2="1222" y1="56" y2="92.2969"/><text fill="#000000" font-family="sans-serif" font-size="14" lengthAdjust="spacing" textLength="106" x="1101" y="78.9951">Placeholder_29</text></g><!--entity Placeholder_42--><g id="elem_Placeholder_42"><polygon fill="#F1F1F1" points="1267,56,1277,46,1413,46,1413,82.2969,1403,92.2969,1267,92.2969,1267,56" style="stroke:#181818;stroke-width:0.5;"/><line style="stroke:#181818;stroke-width:0.5;" x1="1403" x2="1413" y1="56" y2="46"/><line style="stroke:#181818;stroke-width:0.5;" x1="1267" x2="1403" y1="56" y2="56"/><line style="stroke:#181818;stroke-width:0.5;" x1="1403" x2="1403" y1="56" y2="92.2969"/><text fill="#000000" font-family="sans-serif" font-size="14" lengthAdjust="spacing" textLength="106" x="1282" y="78.9951">Placeholder_42</text></g><!--entity Placeholder_16--><g id="elem_Placeholder_16"><polygon fill="#F1F1F1" points="1448,56,1458,46,1594,46,1594,82.2969,1584,92.2969,1448,92.2969,1448,56" style="stroke:#181818;stroke-width:0.5;"/><line style="stroke:#181818;stroke-width:0.5;" x1="1584" x2="1594" y1="56" y2="46"/><line style="stroke:#181818;stroke-width:0.5;" x1="1448" x2="1584" y1="56" y2="56"/><line style="stroke:#181818;stroke-width:0.5;" x1="1584" x2="1584" y1="56" y2="92.2969"/><text fill="#000000" font-family="sans-serif" font-size="14" lengthAdjust="spacing" textLength="106" x="1463" y="78.9951">Placeholder_16</text></g><!--entity Placeholder_9--><g id="elem_Placeholder_9"><polygon fill="#F1F1F1" points="1629.5,56,1639.5,46,1766.5,46,1766.5,82.2969,1756.5,92.2969,1629.5,92.2969,1629.5,56" style="stroke:#181818;stroke-width:0.5;"/><line style="stroke:#181818;stroke-width:0.5;" x1="1756.5" x2="1766.5" y1="56" y2="46"/><line style="stroke:#181818;stroke-width:0.5;" x1="1629.5" x2="1756.5" y1="56" y2="56"/><line style="stroke:#181818;stroke-width:0.5;" x1="1756.5" x2="1756.5" y1="56" y2="92.2969"/><text fill="#000000" font-family="sans-serif" font-size="14" lengthAdjust="spacing" textLength="97" x="1644.5" y="78.9951">Placeholder_9</text></g><!--entity Placeholder_18--><g id="elem_Placeholder_18"><polygon fill="#F1F1F1" points="1802,56,1812,46,1948,46,1948,82.2969,1938,92.2969,1802,92.2969,1802,56" style="stroke:#181818;stroke-width:0.5;"/><line style="stroke:#181818;stroke-width:0.5;" x1="1938" x2="1948" y1="56" y2="46"/><line style="stroke:#181818;stroke-width:0.5;" x1="1802" x2="1938" y1="56" y2="56"/><line style="stroke:#181818;stroke-width:0.5;" x1="1938" x2="1938" y1="56" y2="92.2969"/><text fill="#000000" font-family="sans-serif" font-size="14" lengthAdjust="spacing" textLength="106" x="1817" y="78.9951">Placeholder_18</text></g><!--entity Placeholder_7--><g id="elem_Placeholder_7"><polygon fill="#F1F1F1" points="1983.5,56,1993.5,46,2120.5,46,2120.5,82.2969,2110.5,92.2969,1983.5,92.2969,1983.5,56" style="stroke:#181818;stroke-width:0.5;"/><line style="stroke:#181818;stroke-width:0.5;" x1="2110.5" x2="2120.5" y1="56" y2="46"/><line style="stroke:#181818;stroke-width:0.5;" x1="1983.5" x2="2110.5" y1="56" y2="56"/><line style="stroke:#181818;stroke-width:0.5;" x1="2110.5" x2="2110.5" y1="56" y2="92.2969"/><text fill="#000000" font-family="sans-serif" font-size="14" lengthAdjust="spacing" textLength="97" x="1998.5" y="78.9951">Placeholder_7</text></g><!--entity Placeholder_32--><g id="elem_Placeholder_32"><polygon fill="#F1F1F1" points="2156,56,2166,46,2302,46,2302,82.2969,2292,92.2969,2156,92.2969,2156,56" style="stroke:#181818;stroke-width:0.5;"/><line style="stroke:#181818;stroke-width:0.5;" x1="2292" x2="2302" y1="56" y2="46"/><line style="stroke:#181818;stroke-width:0.5;" x1="2156" x2="2292" y1="56" y2="56"/><line style="stroke:#181818;stroke-width:0.5;" x1="2292" x2="2292" y1="56" y2="92.2969"/><text fill="#000000" font-family="sans-serif" font-size="14" lengthAdjust="spacing" textLength="106" x="2171" y="78.9951">Placeholder_32</text></g><!--entity Placeholder_45--><g id="elem_Placeholder_45"><polygon fill="#F1F1F1" points="2337,56,2347,46,2483,46,2483,82.2969,2473,92.2969,2337,92.2969,2337,56" style="stroke:#181818;stroke-width:0.5;"/><line style="stroke:#181818;stroke-width:0.5;" x1="2473" x2="2483" y1="56" y2="46"/><line style="stroke:#181818;stroke-width:0.5;" x1="2337" x2="2473" y1="56" y2="56"/><line style="stroke:#181818;stroke-width:0.5;" x1="2473" x2="2473" y1="56" y2="92.2969"/><text fill="#000000" font-family="sans-serif" font-size="14" lengthAdjust="spacing" textLength="106" x="2352" y="78.9951">Placeholder_45</text></g><!--entity Placeholder_12--><g id="elem_Placeholder_12"><polygon fill="#F1F1F1" points="2518,56,2528,46,2664,46,2664,82.2969,2654,92.2969,2518,92.2969,2518,56" style="stroke:#181818;stroke-width:0.5;"/><line style="stroke:#181818;stroke-width:0.5;" x1="2654" x2="2664" y1="56" y2="46"/><line style="stroke:#181818;stroke-width:0.5;" x1="2518" x2="2654" y1="56" y2="56"/><line style="stroke:#181818;stroke-width:0.5;" x1="2654" x2="2654" y1="56" y2="92.2969"/><text fill="#000000" font-family="sans-serif" font-size="14" lengthAdjust="spacing" textLength="106" x="2533" y="78.9951">Placeholder_12</text></g><!--entity Placeholder_17--><g id="elem_Placeholder_17"><polygon fill="#F1F1F1" points="2699,56,2709,46,2845,46,2845,82.2969,2835,92.2969,2699,92.2969,2699,56" style="stroke:#181818;stroke-width:0.5;"/><line style="stroke:#181818;stroke-width:0.5;" x1="2835" x2="2845" y1="56" y2="46"/><line style="stroke:#181818;stroke-width:0.5;" x1="2699" x2="2835" y1="56" y2="56"/><line style="stroke:#181818;stroke-width:0.5;" x1="2835" x2="2835" y1="56" y2="92.2969"/><text fill="#000000" font-family="sans-serif" font-size="14" lengthAdjust="spacing" textLength="106" x="2714" y="78.9951">Placeholder_17</text></g><!--entity Placeholder_4--><g id="elem_Placeholder_4"><polygon fill="#F1F1F1" points="2880.5,56,2890.5,46,3017.5,46,3017.5,82.2969,3007.5,92.2969,2880.5,92.2969,2880.5,56" style="stroke:#181818;stroke-width:0.5;"/><line style="stroke:#181818;stroke-width:0.5;" x1="3007.5" x2="3017.5" y1="56" y2="46"/><line style="stroke:#181818;stroke-width:0.5;" x1="2880.5" x2="3007.5" y1="56" y2="56"/><line style="stroke:#181818;stroke-width:0.5;" x1="3007.5" x2="3007.5" y1="56" y2="92.2969"/><text fill="#000000" font-family="sans-serif" font-size="14" lengthAdjust="spacing" textLength="97" x="2895.5" y="78.9951">Placeholder_4</text></g><!--entity Placeholder_0--><g id="elem_Placeholder_0"><polygon fill="#F1F1F1" points="3052.5,56,3062.5,46,3189.5,46,3189.5,82.2969,3179.5,92.2969,3052.5,92.2969,3052.5,56" style="stroke:#181818;stroke-width:0.5;"/><line style="stroke:#181818;stroke-width:0.5;" x1="3179.5" x2="3189.5" y1="56" y2="46"/><line style="stroke:#181818;stroke-width:0.5;" x1="3052.5" x2="3179.5" y1="56" y2="56"/><line style="stroke:#181818;stroke-width:0.5;" x1="3179.5" x2="3179.5" y1="56" y2="92.2969"/><text fill="#000000" font-family="sans-serif" font-size="14" lengthAdjust="spacing" textLength="97" x="3067.5" y="78.9951">Placeholder_0</text></g><!--entity Placeholder_19--><g id="elem_Placeholder_19"><polygon fill="#F1F1F1" points="3225,56,3235,46,3371,46,3371,82.2969,3361,92.2969,3225,92.2969,3225,56" style="stroke:#181818;stroke-width:0.5;"/><line style="stroke:#181818;stroke-width:0.5;" x1="3361" x2="3371" y1="56" y2="46"/><line style="stroke:#181818;stroke-width:0.5;" x1="3225" x2="3361" y1="56" y2="56"/><line style="stroke:#181818;stroke-width:0.5;" x1="3361" x2="3361" y1="56" y2="92.2969"/><text fill="#000000" font-family="sans-serif" font-size="14" lengthAdjust="spacing" textLength="106" x="3240" y="78.9951">Placeholder_19</text></g><!--entity Placeholder_40--><g id="elem_Placeholder_40"><polygon fill="#F1F1F1" points="3406,56,3416,46,3552,46,3552,82.2969,3542,92.2969,3406,92.2969,3406,56" style="stroke:#181818;stroke-width:0.5;"/><line style="stroke:#181818;stroke-width:0.5;" x1="3542" x2="3552" y1="56" y2="46"/><line style="stroke:#181818;stroke-width:0.5;" x1="3406" x2="3542" y1="56" y2="56"/><line style="stroke:#181818;stroke-width:0.5;" x1="3542" x2="3542" y1="56" y2="92.2969"/><text fill="#000000" font-family="sans-serif" font-size="14" lengthAdjust="spacing" textLength="106" x="3421" y="78.9951">Placeholder_40</text></g><!--entity Placeholder_23--><g id="elem_Placeholder_23"><polygon fill="#F1F1F1" points="3587,56,3597,46,3733,46,3733,82.2969,3723,92.2969,3587,92.2969,3587,56" style="stroke:#181818;stroke-width:0.5;"/><line style="stroke:#181818;stroke-width:0.5;" x1="3723" x2="3733" y1="56" y2="46"/><line style="stroke:#181818;stroke-width:0.5;" x1="3587" x2="3723" y1="56" y2="56"/><line style="stroke:#181818;stroke-width:0.5;" x1="3723" x2="3723" y1="56" y2="92.2969"/><text fill="#000000" font-family="sans-serif" font-size="14" lengthAdjust="spacing" textLength="106" x="3602" y="78.9951">Placeholder_23</text></g><!--entity Placeholder_73--><g id="elem_Placeholder_73"><polygon fill="#F1F1F1" points="3768,56,3778,46,3914,46,3914,82.2969,3904,92.2969,3768,92.2969,3768,56" style="stroke:#181818;stroke-width:0.5;"/><line style="stroke:#181818;stroke-width:0.5;" x1="3904" x2="3914" y1="56" y2="46"/><line style="stroke:#181818;stroke-width:0.5;" x1="3768" x2="3904" y1="56" y2="56"/><line style="stroke:#181818;stroke-width:0.5;" x1="3904" x2="3904" y1="56" y2="92.2969"/><text fill="#000000" font-family="sans-serif" font-size="14" lengthAdjust="spacing" textLength="106" x="3783" y="78.9951">Placeholder_73</text></g><!--entity Placeholder_41--><g id="elem_Placeholder_41"><polygon fill="#F1F1F1" points="3949,56,3959,46,4095,46,4095,82.2969,4085,92.2969,3949,92.2969,3949,56" style="stroke:#181818;stroke-width:0.5;"/><line style="stroke:#181818;stroke-width:0.5;" x1="4085" x2="4095" y1="56" y2="46"/><line style="stroke:#181818;stroke-width:0.5;" x1="3949" x2="4085" y1="56" y2="56"/><line style="stroke:#181818;stroke-width:0.5;" x1="4085" x2="4085" y1="56" y2="92.2969"/><text fill="#000000" font-family="sans-serif" font-size="14" lengthAdjust="spacing" textLength="106" x="3964" y="78.9951">Placeholder_41</text></g><!--entity Placeholder_68--><g id="elem_Placeholder_68"><polygon fill="#F1F1F1" points="4130,56,4140,46,4276,46,4276,82.2969,4266,92.2969,4130,92.2969,4130,56" style="stroke:#181818;stroke-width:0.5;"/><line style="stroke:#181818;stroke-width:0.5;" x1="4266" x2="4276" y1="56" y2="46"/><line style="stroke:#181818;stroke-width:0.5;" x1="4130" x2="4266" y1="56" y2="56"/><line style="stroke:#181818;stroke-width:0.5;" x1="4266" x2="4266" y1="56" y2="92.2969"/><text fill="#000000" font-family="sans-serif" font-size="14" lengthAdjust="spacing" textLength="106" x="4145" y="78.9951">Placeholder_68</text></g><!--entity Placeholder_10--><g id="elem_Placeholder_10"><polygon fill="#F1F1F1" points="4311,56,4321,46,4457,46,4457,82.2969,4447,92.2969,4311,92.2969,4311,56" style="stroke:#181818;stroke-width:0.5;"/><line style="stroke:#181818;stroke-width:0.5;" x1="4447" x2="4457" y1="56" y2="46"/><line style="stroke:#181818;stroke-width:0.5;" x1="4311" x2="4447" y1="56" y2="56"/><line style="stroke:#181818;stroke-width:0.5;" x1="4447" x2="4447" y1="56" y2="92.2969"/><text fill="#000000" font-family="sans-serif" font-size="14" lengthAdjust="spacing" textLength="106" x="4326" y="78.9951">Placeholder_10</text></g><!--entity Placeholder_39--><g id="elem_Placeholder_39"><polygon fill="#F1F1F1" points="4492,56,4502,46,4638,46,4638,82.2969,4628,92.2969,4492,92.2969,4492,56" style="stroke:#181818;stroke-width:0.5;"/><line style="stroke:#181818;stroke-width:0.5;" x1="4628" x2="4638" y1="56" y2="46"/><line style="stroke:#181818;stroke-width:0.5;" x1="4492" x2="4628" y1="56" y2="56"/><line style="stroke:#181818;stroke-width:0.5;" x1="4628" x2="4628" y1="56" y2="92.2969"/><text fill="#000000" font-family="sans-serif" font-size="14" lengthAdjust="spacing" textLength="106" x="4507" y="78.9951">Placeholder_39</text></g><!--entity Placeholder_58--><g id="elem_Placeholder_58"><polygon fill="#F1F1F1" points="4673,56,4683,46,4819,46,4819,82.2969,4809,92.2969,4673,92.2969,4673,56" style="stroke:#181818;stroke-width:0.5;"/><line style="stroke:#181818;stroke-width:0.5;" x1="4809" x2="4819" y1="56" y2="46"/><line style="stroke:#181818;stroke-width:0.5;" x1="4673" x2="4809" y1="56" y2="56"/><line style="stroke:#181818;stroke-width:0.5;" x1="4809" x2="4809" y1="56" y2="92.2969"/><text fill="#000000" font-family="sans-serif" font-size="14" lengthAdjust="spacing" textLength="106" x="4688" y="78.9951">Placeholder_58</text></g><!--entity Placeholder_36--><g id="elem_Placeholder_36"><polygon fill="#F1F1F1" points="4854,56,4864,46,5000,46,5000,82.2969,4990,92.2969,4854,92.2969,4854,56" style="stroke:#181818;stroke-width:0.5;"/><line style="stroke:#181818;stroke-width:0.5;" x1="4990" x2="5000" y1="56" y2="46"/><line style="stroke:#181818;stroke-width:0.5;" x1="4854" x2="4990" y1="56" y2="56"/><line style="stroke:#181818;stroke-width:0.5;" x1="4990" x2="4990" y1="56" y2="92.2969"/><text fill="#000000" font-family="sans-serif" font-size="14" lengthAdjust="spacing" textLength="106" x="4869" y="78.9951">Placeholder_36</text></g><!--entity Placeholder_31--><g id="elem_Placeholder_31"><polygon fill="#F1F1F1" points="5035,56,5045,46,5181,46,5181,82.2969,5171,92.2969,5035,92.2969,5035,56" style="stroke:#181818;stroke-width:0.5;"/><line style="stroke:#181818;stroke-width:0.5;" x1="5171" x2="5181" y1="56" y2="46"/><line style="stroke:#181818;stroke-width:0.5;" x1="5035" x2="5171" y1="56" y2="56"/><line style="stroke:#181818;stroke-width:0.5;" x1="5171" x2="5171" y1="56" y2="92.2969"/><text fill="#000000" font-family="sans-serif" font-size="14" lengthAdjust="spacing" textLength="106" x="5050" y="78.9951">Placeholder_31</text></g><!--entity Placeholder_15--><g id="elem_Placeholder_15"><polygon fill="#F1F1F1" points="5216,56,5226,46,5362,46,5362,82.2969,5352,92.2969,5216,92.2969,5216,56" style="stroke:#181818;stroke-width:0.5;"/><line style="stroke:#181818;stroke-width:0.5;" x1="5352" x2="5362" y1="56" y2="46"/><line style="stroke:#181818;stroke-width:0.5;" x1="5216" x2="5352" y1="56" y2="56"/><line style="stroke:#181818;stroke-width:0.5;" x1="5352" x2="5352" y1="56" y2="92.2969"/><text fill="#000000" font-family="sans-serif" font-size="14" lengthAdjust="spacing" textLength="106" x="5231" y="78.9951">Placeholder_15</text></g><!--entity Placeholder_1--><g id="elem_Placeholder_1"><polygon fill="#F1F1F1" points="5397.5,56,5407.5,46,5534.5,46,5534.5,82.2969,5524.5,92.2969,5397.5,92.2969,5397.5,56" style="stroke:#181818;stroke-width:0.5;"/><line style="stroke:#181818;stroke-width:0.5;" x1="5524.5" x2="5534.5" y1="56" y2="46"/><line style="stroke:#181818;stroke-width:0.5;" x1="5397.5" x2="5524.5" y1="56" y2="56"/><line style="stroke:#181818;stroke-width:0.5;" x1="5524.5" x2="5524.5" y1="56" y2="92.2969"/><text fill="#000000" font-family="sans-serif" font-size="14" lengthAdjust="spacing" textLength="97" x="5412.5" y="78.9951">Placeholder_1</text></g><!--entity Placeholder_2--><g id="elem_Placeholder_2"><polygon fill="#F1F1F1" points="5569.5,56,5579.5,46,5706.5,46,5706.5,82.2969,5696.5,92.2969,5569.5,92.2969,5569.5,56" style="stroke:#181818;stroke-width:0.5;"/><line style="stroke:#181818;stroke-width:0.5;" x1="5696.5" x2="5706.5" y1="56" y2="46"/><line style="stroke:#181818;stroke-width:0.5;" x1="5569.5" x2="5696.5" y1="56" y2="56"/><line style="stroke:#181818;stroke-width:0.5;" x1="5696.5" x2="5696.5" y1="56" y2="92.2969"/><text fill="#000000" font-family="sans-serif" font-size="14" lengthAdjust="spacing" textLength="97" x="5584.5" y="78.9951">Placeholder_2</text></g><!--entity Placeholder_50--><g id="elem_Placeholder_50"><polygon fill="#F1F1F1" points="5742,56,5752,46,5888,46,5888,82.2969,5878,92.2969,5742,92.2969,5742,56" style="stroke:#181818;stroke-width:0.5;"/><line style="stroke:#181818;stroke-width:0.5;" x1="5878" x2="5888" y1="56" y2="46"/><line style="stroke:#181818;stroke-width:0.5;" x1="5742" x2="5878" y1="56" y2="56"/><line style="stroke:#181818;stroke-width:0.5;" x1="5878" x2="5878" y1="56" y2="92.2969"/><text fill="#000000" font-family="sans-serif" font-size="14" lengthAdjust="spacing" textLength="106" x="5757" y="78.9951">Placeholder_50</text></g><!--entity Placeholder_65--><g id="elem_Placeholder_65"><polygon fill="#F1F1F1" points="5923,56,5933,46,6069,46,6069,82.2969,6059,92.2969,5923,92.2969,5923,56" style="stroke:#181818;stroke-width:0.5;"/><line style="stroke:#181818;stroke-width:0.5;" x1="6059" x2="6069" y1="56" y2="46"/><line style="stroke:#181818;stroke-width:0.5;" x1="5923" x2="6059" y1="56" y2="56"/><line style="stroke:#181818;stroke-width:0.5;" x1="6059" x2="6059" y1="56" y2="92.2969"/><text fill="#000000" font-family="sans-serif" font-size="14" lengthAdjust="spacing" textLength="106" x="5938" y="78.9951">Placeholder_65</text></g><!--entity Placeholder_3--><g id="elem_Placeholder_3"><polygon fill="#F1F1F1" points="6104.5,56,6114.5,46,6241.5,46,6241.5,82.2969,6231.5,92.2969,6104.5,92.2969,6104.5,56" style="stroke:#181818;stroke-width:0.5;"/><line style="stroke:#181818;stroke-width:0.5;" x1="6231.5" x2="6241.5" y1="56" y2="46"/><line style="stroke:#181818;stroke-width:0.5;" x1="6104.5" x2="6231.5" y1="56" y2="56"/><line style="stroke:#181818;stroke-width:0.5;" x1="6231.5" x2="6231.5" y1="56" y2="92.2969"/><text fill="#000000" font-family="sans-serif" font-size="14" lengthAdjust="spacing" textLength="97" x="6119.5" y="78.9951">Placeholder_3</text></g><!--entity Placeholder_46--><g id="elem_Placeholder_46"><polygon fill="#F1F1F1" points="6277,56,6287,46,6423,46,6423,82.2969,6413,92.2969,6277,92.2969,6277,56" style="stroke:#181818;stroke-width:0.5;"/><line style="stroke:#181818;stroke-width:0.5;" x1="6413" x2="6423" y1="56" y2="46"/><line style="stroke:#181818;stroke-width:0.5;" x1="6277" x2="6413" y1="56" y2="56"/><line style="stroke:#181818;stroke-width:0.5;" x1="6413" x2="6413" y1="56" y2="92.2969"/><text fill="#000000" font-family="sans-serif" font-size="14" lengthAdjust="spacing" textLength="106" x="6292" y="78.9951">Placeholder_46</text></g><!--entity Placeholder_27--><g id="elem_Placeholder_27"><polygon fill="#F1F1F1" points="6458,56,6468,46,6604,46,6604,82.2969,6594,92.2969,6458,92.2969,6458,56" style="stroke:#181818;stroke-width:0.5;"/><line style="stroke:#181818;stroke-width:0.5;" x1="6594" x2="6604" y1="56" y2="46"/><line style="stroke:#181818;stroke-width:0.5;" x1="6458" x2="6594" y1="56" y2="56"/><line style="stroke:#181818;stroke-width:0.5;" x1="6594" x2="6594" y1="56" y2="92.2969"/><text fill="#000000" font-family="sans-serif" font-size="14" lengthAdjust="spacing" textLength="106" x="6473" y="78.9951">Placeholder_27</text></g><!--entity Placeholder_13--><g id="elem_Placeholder_13"><polygon fill="#F1F1F1" points="6639,56,6649,46,6785,46,6785,82.2969,6775,92.2969,6639,92.2969,6639,56" style="stroke:#181818;stroke-width:0.5;"/><line style="stroke:#181818;stroke-width:0.5;" x1="6775" x2="6785" y1="56" y2="46"/><line style="stroke:#181818;stroke-width:0.5;" x1="6639" x2="6775" y1="56" y2="56"/><line style="stroke:#181818;stroke-width:0.5;" x1="6775" x2="6775" y1="56" y2="92.2969"/><text fill="#000000" font-family="sans-serif" font-size="14" lengthAdjust="spacing" textLength="106" x="6654" y="78.9951">Placeholder_13</text></g><!--entity Placeholder_47--><g id="elem_Placeholder_47"><polygon fill="#F1F1F1" points="6820,56,6830,46,6966,46,6966,82.2969,6956,92.2969,6820,92.2969,6820,56" style="stroke:#181818;stroke-width:0.5;"/><line style="stroke:#181818;stroke-width:0.5;" x1="6956" x2="6966" y1="56" y2="46"/><line style="stroke:#181818;stroke-width:0.5;" x1="6820" x2="6956" y1="56" y2="56"/><line style="stroke:#181818;stroke-width:0.5;" x1="6956" x2="6956" y1="56" y2="92.2969"/><text fill="#000000" font-family="sans-serif" font-size="14" lengthAdjust="spacing" textLength="106" x="6835" y="78.9951">Placeholder_47</text></g><!--entity Placeholder_34--><g id="elem_Placeholder_34"><polygon fill="#F1F1F1" points="7001,56,7011,46,7147,46,7147,82.2969,7137,92.2969,7001,92.2969,7001,56" style="stroke:#181818;stroke-width:0.5;"/><line style="stroke:#181818;stroke-width:0.5;" x1="7137" x2="7147" y1="56" y2="46"/><line style="stroke:#181818;stroke-width:0.5;" x1="7001" x2="7137" y1="56" y2="56"/><line style="stroke:#181818;stroke-width:0.5;" x1="7137" x2="7137" y1="56" y2="92.2969"/><text fill="#000000" font-family="sans-serif" font-size="14" lengthAdjust="spacing" textLength="106" x="7016" y="78.9951">Placeholder_34</text></g><!--link aName to aName--><g id="link_aName_aName"><path d="M7270.27,67.52 C7289.02,67.4 7305,67.9 7305,69 C7305,70.1 7289.02,70.6 7270.27,70.48 " fill="none" id="aName-aName" style="stroke:#181818;stroke-width:1.0;"/><text fill="#000000" font-family="sans-serif" font-size="13" lengthAdjust="spacing" textLength="487" x="7318" y="73.5669">com_apssouza_eventsourcing_commands_EmailCommandHandler Provider</text><path d="M7263.1538,60.4943 A10,10 0 0 0 7263.2443 74.6362" fill="none" style="stroke:#181818;stroke-width:1.5;"/><ellipse cx="7270.27" cy="67.52" fill="#FFFFFF" rx="6" ry="6" style="stroke:#181818;stroke-width:1.5;"/></g><!--link aName to aName--><g id="link_aName_aName"><path d="M7270.14,67.54 C7409.79,65.08 7818,65.57 7818,69 C7818,72.43 7409.79,72.92 7270.14,70.46 " fill="none" id="aName-aName-1" style="stroke:#181818;stroke-width:1.0;"/><text fill="#000000" font-family="sans-serif" font-size="13" lengthAdjust="spacing" textLength="358" x="7831" y="73.5669">com_apssouza_infra_ApplicationEventPublisher Provider</text><path d="M7262.9455,60.5946 A10,10 0 0 0 7263.1946 74.7345" fill="none" style="stroke:#181818;stroke-width:1.5;"/><ellipse cx="7270.14" cy="67.54" fill="#FFFFFF" rx="6" ry="6" style="stroke:#181818;stroke-width:1.5;"/></g><!--link aName to aName--><g id="link_aName_aName"><path d="M7270.12,67.27 C7463.99,63.07 8202,63.64 8202,69 C8202,74.36 7463.99,74.93 7270.12,70.73 " fill="none" id="aName-aName-2" style="stroke:#181818;stroke-width:1.0;"/><text fill="#000000" font-family="sans-serif" font-size="13" lengthAdjust="spacing" textLength="381" x="8215" y="73.5669">com_apssouza_monitors_TodoStoreEventChanges Provider</text><path d="M7262.8974,60.3537 A10,10 0 0 0 7263.2037 74.4926" fill="none" style="stroke:#181818;stroke-width:1.5;"/><ellipse cx="7270.12" cy="67.27" fill="#FFFFFF" rx="6" ry="6" style="stroke:#181818;stroke-width:1.5;"/></g><!--link aName to aName--><g id="link_aName_aName"><path d="M7270.01,67.07 C7510.62,61.06 8609,61.71 8609,69 C8609,76.29 7510.62,76.94 7270.01,70.93 " fill="none" id="aName-aName-3" style="stroke:#181818;stroke-width:1.0;"/><text fill="#000000" font-family="sans-serif" font-size="13" lengthAdjust="spacing" textLength="288" x="8622" y="73.5669">com_apssouza_infra_EventPublisher Provider</text><path d="M7262.7646,60.1777 A10,10 0 0 0 7263.1177 74.3154" fill="none" style="stroke:#181818;stroke-width:1.5;"/><ellipse cx="7270.01" cy="67.07" fill="#FFFFFF" rx="6" ry="6" style="stroke:#181818;stroke-width:1.5;"/></g><!--link aName to aName--><g id="link_aName_aName"><path d="M7270.43,66.83 C7544.3,59.06 8923,59.79 8923,69 C8923,78.21 7544.3,78.94 7270.43,71.17 " fill="none" id="aName-aName-4" style="stroke:#181818;stroke-width:1.0;"/><text fill="#000000" font-family="sans-serif" font-size="13" lengthAdjust="spacing" textLength="296" x="8936" y="73.5669">com_apssouza_services_TodoService Provider</text><path d="M7263.1612,59.9623 A10,10 0 0 0 7263.5623 74.0988" fill="none" style="stroke:#181818;stroke-width:1.5;"/><ellipse cx="7270.43" cy="66.83" fill="#FFFFFF" rx="6" ry="6" style="stroke:#181818;stroke-width:1.5;"/></g><!--link aName to aName--><g id="link_aName_aName"><path d="M7270.46,66.63 C7574.87,57.06 9245,57.85 9245,69 C9245,80.15 7574.87,80.94 7270.46,71.37 " fill="none" id="aName-aName-5" style="stroke:#181818;stroke-width:1.0;"/><text fill="#000000" font-family="sans-serif" font-size="13" lengthAdjust="spacing" textLength="296" x="9258" y="73.5669">com_apssouza_services_TodoService Provider</text><path d="M7263.1702,59.7846 A10,10 0 0 0 7263.6146 73.9198" fill="none" style="stroke:#181818;stroke-width:1.5;"/><ellipse cx="7270.46" cy="66.63" fill="#FFFFFF" rx="6" ry="6" style="stroke:#181818;stroke-width:1.5;"/></g><!--link aName to aName--><g id="link_aName_aName"><path d="M7270.22,66.47 C7602.36,55.06 9567,55.9 9567,69 C9567,82.1 7602.36,82.94 7270.22,71.53 " fill="none" id="aName-aName-6" style="stroke:#181818;stroke-width:1.0;"/><text fill="#000000" font-family="sans-serif" font-size="13" lengthAdjust="spacing" textLength="317" x="9580" y="73.5669">com_apssouza_services_AccountService Provider</text><path d="M7262.9103,59.6459 A10,10 0 0 0 7263.3959 73.7797" fill="none" style="stroke:#181818;stroke-width:1.5;"/><ellipse cx="7270.22" cy="66.47" fill="#FFFFFF" rx="6" ry="6" style="stroke:#181818;stroke-width:1.5;"/></g><!--link aName to aName--><g id="link_aName_aName"><path d="M7270.23,66.32 C7630.58,53.06 9910,53.95 9910,69 C9910,84.05 7630.58,84.94 7270.23,71.68 " fill="none" id="aName-aName-7" style="stroke:#181818;stroke-width:1.0;"/><text fill="#000000" font-family="sans-serif" font-size="13" lengthAdjust="spacing" textLength="411" x="9923" y="73.5669">com_apssouza_mailservice_repository_EmailRepository Provider</text><path d="M7262.9037,59.5137 A10,10 0 0 0 7263.4237 73.6463" fill="none" style="stroke:#181818;stroke-width:1.5;"/><ellipse cx="7270.23" cy="66.32" fill="#FFFFFF" rx="6" ry="6" style="stroke:#181818;stroke-width:1.5;"/></g><!--link aName to aName--><g id="link_aName_aName"><path d="M7270.22,66.22 C7663.58,51.05 10347,51.98 10347,69 C10347,86.02 7663.58,86.95 7270.22,71.78 " fill="none" id="aName-aName-8" style="stroke:#181818;stroke-width:1.0;"/><text fill="#000000" font-family="sans-serif" font-size="13" lengthAdjust="spacing" textLength="427" x="10360" y="73.5669">com_apssouza_eventsourcing_eventstore_EventSerializer Provider</text><path d="M7262.8817,59.4267 A10,10 0 0 0 7263.4267 73.5583" fill="none" style="stroke:#181818;stroke-width:1.5;"/><ellipse cx="7270.22" cy="66.22" fill="#FFFFFF" rx="6" ry="6" style="stroke:#181818;stroke-width:1.5;"/></g><!--link aName to aName--><g id="link_aName_aName"><path d="M7270.08,66.13 C7694.91,49.05 10800,50.01 10800,69 C10800,87.99 7694.91,88.95 7270.08,71.87 " fill="none" id="aName-aName-9" style="stroke:#181818;stroke-width:1.0;"/><text fill="#000000" font-family="sans-serif" font-size="13" lengthAdjust="spacing" textLength="479" x="10813" y="73.5669">com_apssouza_eventsourcing_services_ApplicationEventPublisher Provider</text><path d="M7262.7306,59.3487 A10,10 0 0 0 7263.2987 73.4794" fill="none" style="stroke:#181818;stroke-width:1.5;"/><ellipse cx="7270.08" cy="66.13" fill="#FFFFFF" rx="6" ry="6" style="stroke:#181818;stroke-width:1.5;"/></g><!--link aName to aName--><g id="link_aName_aName"><path d="M7270.32,66.05 C7729.35,47.05 11305,48.03 11305,69 C11305,89.97 7729.35,90.95 7270.32,71.95 " fill="none" id="aName-aName-10" style="stroke:#181818;stroke-width:1.0;"/><text fill="#000000" font-family="sans-serif" font-size="13" lengthAdjust="spacing" textLength="339" x="11318" y="73.5669">com_apssouza_repositories_TodoRepository Provider</text><path d="M7262.9625,59.2774 A10,10 0 0 0 7263.5474 73.4075" fill="none" style="stroke:#181818;stroke-width:1.5;"/><ellipse cx="7270.32" cy="66.05" fill="#FFFFFF" rx="6" ry="6" style="stroke:#181818;stroke-width:1.5;"/></g><!--link aName to aName--><g id="link_aName_aName"><path d="M7270.37,65.94 C7753.38,45.05 11670,46.07 11670,69 C11670,91.93 7753.38,92.95 7270.37,72.06 " fill="none" id="aName-aName-11" style="stroke:#181818;stroke-width:1.0;"/><text fill="#000000" font-family="sans-serif" font-size="13" lengthAdjust="spacing" textLength="181" x="11683" y="73.5669">user/accounts[PUT] Provider</text><path d="M7263,59.1811 A10,10 0 0 0 7263.6111 73.31" fill="none" style="stroke:#181818;stroke-width:1.5;"/><ellipse cx="7270.37" cy="65.94" fill="#FFFFFF" rx="6" ry="6" style="stroke:#181818;stroke-width:1.5;"/></g><!--link aName to aName--><g id="link_aName_aName"><path d="M7270.28,65.81 C7767.36,43.05 11877,44.11 11877,69 C11877,93.89 7767.36,94.95 7270.28,72.19 " fill="none" id="aName-aName-12" style="stroke:#181818;stroke-width:1.0;"/><text fill="#000000" font-family="sans-serif" font-size="13" lengthAdjust="spacing" textLength="433" x="11890" y="73.5669">com_apssouza_monitors_TodoServiceMethodInvokedStore Provider</text><path d="M7262.8929,59.0698 A10,10 0 0 0 7263.5398 73.1971" fill="none" style="stroke:#181818;stroke-width:1.5;"/><ellipse cx="7270.28" cy="65.81" fill="#FFFFFF" rx="6" ry="6" style="stroke:#181818;stroke-width:1.5;"/></g><!--link aName to aName--><g id="link_aName_aName"><path d="M7270.02,65.75 C7793.35,41.05 12336,42.13 12336,69 C12336,95.87 7793.35,96.95 7270.02,72.25 " fill="none" id="aName-aName-13" style="stroke:#181818;stroke-width:1.0;"/><text fill="#000000" font-family="sans-serif" font-size="13" lengthAdjust="spacing" textLength="295" x="12349" y="73.5669">com_apssouza_services_UserService Provider</text><path d="M7262.6234,59.0202 A10,10 0 0 0 7263.2902 73.1466" fill="none" style="stroke:#181818;stroke-width:1.5;"/><ellipse cx="7270.02" cy="65.75" fill="#FFFFFF" rx="6" ry="6" style="stroke:#181818;stroke-width:1.5;"/></g><!--link aName to aName--><g id="link_aName_aName"><path d="M7270.32,65.64 C7814.69,39.05 12657,40.16 12657,69 C12657,97.84 7814.69,98.95 7270.32,72.36 " fill="none" id="aName-aName-14" style="stroke:#181818;stroke-width:1.0;"/><text fill="#000000" font-family="sans-serif" font-size="13" lengthAdjust="spacing" textLength="239" x="12670" y="73.5669">com_apssouza_infra_Source Provider</text><path d="M7262.9124,58.9223 A10,10 0 0 0 7263.6023 73.0476" fill="none" style="stroke:#181818;stroke-width:1.5;"/><ellipse cx="7270.32" cy="65.64" fill="#FFFFFF" rx="6" ry="6" style="stroke:#181818;stroke-width:1.5;"/></g><!--link aName to aName--><g id="link_aName_aName"><path d="M7270.16,65.55 C7830.16,37.04 12922,38.2 12922,69 C12922,99.8 7830.16,100.96 7270.16,72.45 " fill="none" id="aName-aName-15" style="stroke:#181818;stroke-width:1.0;"/><text fill="#000000" font-family="sans-serif" font-size="13" lengthAdjust="spacing" textLength="339" x="12935" y="73.5669">com_apssouza_repositories_TodoRepository Provider</text><path d="M7262.7386,58.8476 A10,10 0 0 0 7263.4576 72.9714" fill="none" style="stroke:#181818;stroke-width:1.5;"/><ellipse cx="7270.16" cy="65.55" fill="#FFFFFF" rx="6" ry="6" style="stroke:#181818;stroke-width:1.5;"/></g><!--link aName to aName--><g id="link_aName_aName"><path d="M7270.18,65.47 C7851.22,35.04 13287,36.22 13287,69 C13287,101.78 7851.22,102.96 7270.18,72.53 " fill="none" id="aName-aName-16" style="stroke:#181818;stroke-width:1.0;"/><text fill="#000000" font-family="sans-serif" font-size="13" lengthAdjust="spacing" textLength="296" x="13300" y="73.5669">com_apssouza_services_TodoService Provider</text><path d="M7262.7488,58.7784 A10,10 0 0 0 7263.4884 72.9012" fill="none" style="stroke:#181818;stroke-width:1.5;"/><ellipse cx="7270.18" cy="65.47" fill="#FFFFFF" rx="6" ry="6" style="stroke:#181818;stroke-width:1.5;"/></g><!--link aName to aName--><g id="link_aName_aName"><path d="M7270.26,65.39 C7870.26,33.04 13609,34.25 13609,69 C13609,103.75 7870.26,104.96 7270.26,72.61 " fill="none" id="aName-aName-17" style="stroke:#181818;stroke-width:1.0;"/><text fill="#000000" font-family="sans-serif" font-size="13" lengthAdjust="spacing" textLength="123" x="13622" y="73.5669">user/users Provider</text><path d="M7262.8185,58.7099 A10,10 0 0 0 7263.5799 72.8315" fill="none" style="stroke:#181818;stroke-width:1.5;"/><ellipse cx="7270.26" cy="65.39" fill="#FFFFFF" rx="6" ry="6" style="stroke:#181818;stroke-width:1.5;"/></g><!--link aName to aName--><g id="link_aName_aName"><path d="M7270.05,65.29 C7879.41,31.04 13758,32.28 13758,69 C13758,105.72 7879.41,106.96 7270.05,72.71 " fill="none" id="aName-aName-18" style="stroke:#181818;stroke-width:1.0;"/><text fill="#000000" font-family="sans-serif" font-size="13" lengthAdjust="spacing" textLength="295" x="13771" y="73.5669">com_apssouza_services_UserService Provider</text><path d="M7262.5933,58.6269 A10,10 0 0 0 7263.3869 72.7467" fill="none" style="stroke:#181818;stroke-width:1.5;"/><ellipse cx="7270.05" cy="65.29" fill="#FFFFFF" rx="6" ry="6" style="stroke:#181818;stroke-width:1.5;"/></g><!--link aName to aName--><g id="link_aName_aName"><path d="M7270.3,65.2 C7899.09,29.04 14079,30.31 14079,69 C14079,107.69 7899.09,108.96 7270.3,72.8 " fill="none" id="aName-aName-19" style="stroke:#181818;stroke-width:1.0;"/><text fill="#000000" font-family="sans-serif" font-size="13" lengthAdjust="spacing" textLength="296" x="14092" y="73.5669">com_apssouza_services_TodoService Provider</text><path d="M7262.8346,58.5466 A10,10 0 0 0 7263.6466 72.6654" fill="none" style="stroke:#181818;stroke-width:1.5;"/><ellipse cx="7270.3" cy="65.2" fill="#FFFFFF" rx="6" ry="6" style="stroke:#181818;stroke-width:1.5;"/></g><!--link aName to aName--><g id="link_aName_aName"><path d="M7270.4,65.13 C7917.66,27.04 14401,28.33 14401,69 C14401,109.67 7917.66,110.96 7270.4,72.87 " fill="none" id="aName-aName-20" style="stroke:#181818;stroke-width:1.0;"/><text fill="#000000" font-family="sans-serif" font-size="13" lengthAdjust="spacing" textLength="181" x="14414" y="73.5669">user/accounts[PUT] Provider</text><path d="M7262.9257,58.4865 A10,10 0 0 0 7263.7565 72.6043" fill="none" style="stroke:#181818;stroke-width:1.5;"/><ellipse cx="7270.4" cy="65.13" fill="#FFFFFF" rx="6" ry="6" style="stroke:#181818;stroke-width:1.5;"/></g><!--link aName to aName--><g id="link_aName_aName"><path d="M7270.05,65.06 C7928.08,25.04 14608,26.35 14608,69 C14608,111.65 7928.08,112.96 7270.05,72.94 " fill="none" id="aName-aName-21" style="stroke:#181818;stroke-width:1.0;"/><text fill="#000000" font-family="sans-serif" font-size="13" lengthAdjust="spacing" textLength="470" x="14621" y="73.5669">com_apssouza_eventsourcing_eventstore_EventStoreRepository Provider</text><path d="M7262.5627,58.4312 A10,10 0 0 0 7263.4212 72.5473" fill="none" style="stroke:#181818;stroke-width:1.5;"/><ellipse cx="7270.05" cy="65.06" fill="#FFFFFF" rx="6" ry="6" style="stroke:#181818;stroke-width:1.5;"/></g><!--link aName to aName--><g id="link_aName_aName"><path d="M7270.1,65.03 C7952.9,23.04 15104,24.36 15104,69 C15104,113.64 7952.9,114.96 7270.1,72.97 " fill="none" id="aName-aName-22" style="stroke:#181818;stroke-width:1.0;"/><text fill="#000000" font-family="sans-serif" font-size="13" lengthAdjust="spacing" textLength="360" x="15117" y="73.5669">com_apssouza_repositories_AccountRepository Provider</text><path d="M7262.6082,58.4063 A10,10 0 0 0 7263.4763 72.5218" fill="none" style="stroke:#181818;stroke-width:1.5;"/><ellipse cx="7270.1" cy="65.03" fill="#FFFFFF" rx="6" ry="6" style="stroke:#181818;stroke-width:1.5;"/></g><!--link aName to aName--><g id="link_aName_aName"><path d="M7270.2,64.97 C7973.22,21.04 15490,22.38 15490,69 C15490,115.62 7973.22,116.96 7270.2,73.03 " fill="none" id="aName-aName-23" style="stroke:#181818;stroke-width:1.0;"/><text fill="#000000" font-family="sans-serif" font-size="13" lengthAdjust="spacing" textLength="317" x="15503" y="73.5669">com_apssouza_services_AccountService Provider</text><path d="M7262.7017,58.3537 A10,10 0 0 0 7263.5837 72.4683" fill="none" style="stroke:#181818;stroke-width:1.5;"/><ellipse cx="7270.2" cy="64.97" fill="#FFFFFF" rx="6" ry="6" style="stroke:#181818;stroke-width:1.5;"/></g><!--link aName to aName--><g id="link_aName_aName"><path d="M7270.07,64.92 C7989.92,19.04 15833,20.4 15833,69 C15833,117.6 7989.92,118.96 7270.07,73.08 " fill="none" id="aName-aName-24" style="stroke:#181818;stroke-width:1.0;"/><text fill="#000000" font-family="sans-serif" font-size="13" lengthAdjust="spacing" textLength="360" x="15846" y="73.5669">com_apssouza_repositories_AccountRepository Provider</text><path d="M7262.5635,58.313 A10,10 0 0 0 7263.463 72.4265" fill="none" style="stroke:#181818;stroke-width:1.5;"/><ellipse cx="7270.07" cy="64.92" fill="#FFFFFF" rx="6" ry="6" style="stroke:#181818;stroke-width:1.5;"/></g><!--SRC=[nLTTRvim57tFhq3QorxO2g6qsriKHTggT8lw8LMA8iirDurNOpCRqDff_tqca4xH7jP0J_S0yXNIuVYSuyl5tKjTSClpO2r_JAKLYkRybjJNcgpYHI7rNL3QYaRQP1Gi51UqCIeZov8a-3bQyYyyfrMmNFB2ELCzyZWEl_6QXxaKrZYojHJqpZsual8txFlDF1JpifXHckgiejd5sNe-MQr6l_x6ZoCi_YaMVWp6Jy3uALYUCJWz7y3onrZy2Am_M9u8dCuJS3h1xYR7OFdHwGJh3_wq787LGVSUCFyOt9jFmFW9U798mSqj0lix1kVp63rQeMSJS7uYTFS7jmTmUi3fJy7geviREFmn-DCUeVL1ZuOlEvliaCAtHs6mApu6mkHi1yse9btwfHN-RvpvHpdNcMEpd4irRQjF_b9aWuKrjVGqduKhzTfoDYaA9GKlfT6pvaMBwbP9jpaKB3TQbiOwTcKoS-bNj4MRRhY-8zU7s10sdGCTcxRuRmWJ8KoboruWZSST4BDK6DU8_D1wV_5K7uQvdwUsQWnh5VSq9LVoyL39zr7_RFvbulMqTzbPSi3cAq_cFMzDSCl5zTLgIBJRZPrJkJ7PPrsRUygsSUyPZck_wfMCzf1SDeBJwsav_8nitMXkxhKLwqztG7Z-STYQPL_vztpicinWAuSqg-SI-Wq0]--></g></svg>