<?xml version="1.0" encoding="us-ascii" standalone="no"?><svg xmlns="http://www.w3.org/2000/svg" xmlns:xlink="http://www.w3.org/1999/xlink" contentStyleType="text/css" height="386px" preserveAspectRatio="none" style="width:3193px;height:386px;background:#FFFFFF;" version="1.1" viewBox="0 0 3193 386" width="3193px" zoomAndPan="magnify"><defs/><g><!--cluster nodecom_github_joffryferrater_foodtrayservice--><g id="cluster_nodecom_github_joffryferrater_foodtrayservice"><polygon fill="none" points="677,88.95,687,78.95,1836,78.95,1836,359.95,1826,369.95,677,369.95,677,88.95" style="stroke:#181818;stroke-width:1.0;"/><line style="stroke:#181818;stroke-width:1.0;" x1="1826" x2="1836" y1="88.95" y2="78.95"/><line style="stroke:#181818;stroke-width:1.0;" x1="677" x2="1826" y1="88.95" y2="88.95"/><line style="stroke:#181818;stroke-width:1.0;" x1="1826" x2="1826" y1="88.95" y2="369.95"/><text fill="#000000" font-family="sans-serif" font-size="14" font-weight="bold" lengthAdjust="spacing" textLength="373" x="1066" y="104.9451">nodecom_github_joffryferrater_foodtrayservice</text></g><!--cluster com_github_joffryferrater_foodtrayservice--><g id="cluster_com_github_joffryferrater_foodtrayservice"><rect fill="none" height="203" rx="2.5" ry="2.5" style="stroke:#181818;stroke-width:1.0;" width="1087" x="717" y="134.95"/><rect fill="none" height="10" style="stroke:#181818;stroke-width:1.0;" width="15" x="1784" y="139.95"/><rect fill="none" height="2" style="stroke:#181818;stroke-width:1.0;" width="4" x="1782" y="141.95"/><rect fill="none" height="2" style="stroke:#181818;stroke-width:1.0;" width="4" x="1782" y="145.95"/><text fill="#000000" font-family="sans-serif" font-size="14" font-weight="bold" lengthAdjust="spacing" textLength="333" x="1094" y="160.9451">com_github_joffryferrater_foodtrayservice</text></g><!--cluster nodeITEM_SERVICE_items_search_findByItemCode_itemCode_Provider--><g id="cluster_nodeITEM_SERVICE_items_search_findByItemCode_itemCode_Provider"><polygon fill="none" points="16,131.95,26,121.95,637,121.95,637,229.95,627,239.95,16,239.95,16,131.95" style="stroke:#181818;stroke-width:1.0;"/><line style="stroke:#181818;stroke-width:1.0;" x1="627" x2="637" y1="131.95" y2="121.95"/><line style="stroke:#181818;stroke-width:1.0;" x1="16" x2="627" y1="131.95" y2="131.95"/><line style="stroke:#181818;stroke-width:1.0;" x1="627" x2="627" y1="131.95" y2="239.95"/><text fill="#000000" font-family="sans-serif" font-size="14" font-weight="bold" lengthAdjust="spacing" textLength="545" x="50" y="147.9451">nodeITEM_SERVICE_items_search_findByItemCode_itemCode_Provider</text></g><!--cluster nodePRICE_SERVICE_prices_search_findByItemCode_itemCode_Provider--><g id="cluster_nodePRICE_SERVICE_prices_search_findByItemCode_itemCode_Provider"><polygon fill="none" points="1868,139.95,1878,129.95,2503,129.95,2503,221.95,2493,231.95,1868,231.95,1868,139.95" style="stroke:#181818;stroke-width:1.0;"/><line style="stroke:#181818;stroke-width:1.0;" x1="2493" x2="2503" y1="139.95" y2="129.95"/><line style="stroke:#181818;stroke-width:1.0;" x1="1868" x2="2493" y1="139.95" y2="139.95"/><line style="stroke:#181818;stroke-width:1.0;" x1="2493" x2="2493" y1="139.95" y2="231.95"/><text fill="#000000" font-family="sans-serif" font-size="14" font-weight="bold" lengthAdjust="spacing" textLength="559" x="1902" y="155.9451">nodePRICE_SERVICE_prices_search_findByItemCode_itemCode_Provider</text></g><!--cluster nodecom_github_joffryferrater_foodtrayservice_service_TrayItemService--><g id="cluster_nodecom_github_joffryferrater_foodtrayservice_service_TrayItemService"><polygon fill="none" points="2527,139.95,2537,129.95,3176,129.95,3176,221.95,3166,231.95,2527,231.95,2527,139.95" style="stroke:#181818;stroke-width:1.0;"/><line style="stroke:#181818;stroke-width:1.0;" x1="3166" x2="3176" y1="139.95" y2="129.95"/><line style="stroke:#181818;stroke-width:1.0;" x1="2527" x2="3166" y1="139.95" y2="139.95"/><line style="stroke:#181818;stroke-width:1.0;" x1="3166" x2="3166" y1="139.95" y2="231.95"/><text fill="#000000" font-family="sans-serif" font-size="14" font-weight="bold" lengthAdjust="spacing" textLength="573" x="2561" y="155.9451">nodecom_github_joffryferrater_foodtrayservice_service_TrayItemService</text></g><!--entity com_github_joffryferrater_foodtrayservice_FoodTrayController--><g id="elem_com_github_joffryferrater_foodtrayservice_FoodTrayController"><a href="jferrater-tap-and-eat-microservices.system#_9v20kTfyEe-nWoxqrpLLqA" target="_top" title="jferrater-tap-and-eat-microservices.system#_9v20kTfyEe-nWoxqrpLLqA" xlink:actuate="onRequest" xlink:href="jferrater-tap-and-eat-microservices.system#_9v20kTfyEe-nWoxqrpLLqA" xlink:show="new" xlink:title="jferrater-tap-and-eat-microservices.system#_9v20kTfyEe-nWoxqrpLLqA" xlink:type="simple"><rect fill="#F1F1F1" height="46.2969" rx="2.5" ry="2.5" style="stroke:#181818;stroke-width:0.5;" width="460" x="733" y="169.95"/><rect fill="#F1F1F1" height="10" style="stroke:#181818;stroke-width:0.5;" width="15" x="1173" y="174.95"/><rect fill="#F1F1F1" height="2" style="stroke:#181818;stroke-width:0.5;" width="4" x="1171" y="176.95"/><rect fill="#F1F1F1" height="2" style="stroke:#181818;stroke-width:0.5;" width="4" x="1171" y="180.95"/><text fill="#000000" font-family="sans-serif" font-size="14" lengthAdjust="spacing" textLength="420" x="748" y="202.9451">com_github_joffryferrater_foodtrayservice_FoodTrayController</text></a></g><!--entity com_github_joffryferrater_foodtrayservice_repository_ItemServiceRepository--><g id="elem_com_github_joffryferrater_foodtrayservice_repository_ItemServiceRepository"><a href="jferrater-tap-and-eat-microservices.system#_9v20kTfyEe-nWoxqrpLLqA" target="_top" title="jferrater-tap-and-eat-microservices.system#_9v20kTfyEe-nWoxqrpLLqA" xlink:actuate="onRequest" xlink:href="jferrater-tap-and-eat-microservices.system#_9v20kTfyEe-nWoxqrpLLqA" xlink:show="new" xlink:title="jferrater-tap-and-eat-microservices.system#_9v20kTfyEe-nWoxqrpLLqA" xlink:type="simple"><rect fill="#F1F1F1" height="46.2969" rx="2.5" ry="2.5" style="stroke:#181818;stroke-width:0.5;" width="559" x="1228.5" y="169.95"/><rect fill="#F1F1F1" height="10" style="stroke:#181818;stroke-width:0.5;" width="15" x="1767.5" y="174.95"/><rect fill="#F1F1F1" height="2" style="stroke:#181818;stroke-width:0.5;" width="4" x="1765.5" y="176.95"/><rect fill="#F1F1F1" height="2" style="stroke:#181818;stroke-width:0.5;" width="4" x="1765.5" y="180.95"/><text fill="#000000" font-family="sans-serif" font-size="14" lengthAdjust="spacing" textLength="519" x="1243.5" y="202.9451">com_github_joffryferrater_foodtrayservice_repository_ItemServiceRepository</text></a></g><!--entity com_github_joffryferrater_foodtrayservice_repository_PriceServiceRepository--><g id="elem_com_github_joffryferrater_foodtrayservice_repository_PriceServiceRepository"><a href="jferrater-tap-and-eat-microservices.system#_9v20kTfyEe-nWoxqrpLLqA" target="_top" title="jferrater-tap-and-eat-microservices.system#_9v20kTfyEe-nWoxqrpLLqA" xlink:actuate="onRequest" xlink:href="jferrater-tap-and-eat-microservices.system#_9v20kTfyEe-nWoxqrpLLqA" xlink:show="new" xlink:title="jferrater-tap-and-eat-microservices.system#_9v20kTfyEe-nWoxqrpLLqA" xlink:type="simple"><rect fill="#F1F1F1" height="46.2969" rx="2.5" ry="2.5" style="stroke:#181818;stroke-width:0.5;" width="563" x="733.5" y="275.95"/><rect fill="#F1F1F1" height="10" style="stroke:#181818;stroke-width:0.5;" width="15" x="1276.5" y="280.95"/><rect fill="#F1F1F1" height="2" style="stroke:#181818;stroke-width:0.5;" width="4" x="1274.5" y="282.95"/><rect fill="#F1F1F1" height="2" style="stroke:#181818;stroke-width:0.5;" width="4" x="1274.5" y="286.95"/><text fill="#000000" font-family="sans-serif" font-size="14" lengthAdjust="spacing" textLength="523" x="748.5" y="308.9451">com_github_joffryferrater_foodtrayservice_repository_PriceServiceRepository</text></a></g><!--entity ITEM_SERVICE_items_search_findByItemCode_itemCode_Provider--><g id="elem_ITEM_SERVICE_items_search_findByItemCode_itemCode_Provider"><a href="jferrater-tap-and-eat-microservices.system#_9v20kTfyEe-nWoxqrpLLqA" target="_top" title="jferrater-tap-and-eat-microservices.system#_9v20kTfyEe-nWoxqrpLLqA" xlink:actuate="onRequest" xlink:href="jferrater-tap-and-eat-microservices.system#_9v20kTfyEe-nWoxqrpLLqA" xlink:show="new" xlink:title="jferrater-tap-and-eat-microservices.system#_9v20kTfyEe-nWoxqrpLLqA" xlink:type="simple"><rect fill="#F1F1F1" height="46.2969" rx="2.5" ry="2.5" style="stroke:#181818;stroke-width:0.5;" width="491" x="122.5" y="169.95"/><rect fill="#F1F1F1" height="10" style="stroke:#181818;stroke-width:0.5;" width="15" x="593.5" y="174.95"/><rect fill="#F1F1F1" height="2" style="stroke:#181818;stroke-width:0.5;" width="4" x="591.5" y="176.95"/><rect fill="#F1F1F1" height="2" style="stroke:#181818;stroke-width:0.5;" width="4" x="591.5" y="180.95"/><text fill="#000000" font-family="sans-serif" font-size="14" lengthAdjust="spacing" textLength="451" x="137.5" y="202.9451">ITEM_SERVICE_items_search_findByItemCode_itemCode_Provider</text></a></g><!--entity PRICE_SERVICE_prices_search_findByItemCode_itemCode_Provider--><g id="elem_PRICE_SERVICE_prices_search_findByItemCode_itemCode_Provider"><a href="jferrater-tap-and-eat-microservices.system#_9v20kTfyEe-nWoxqrpLLqA" target="_top" title="jferrater-tap-and-eat-microservices.system#_9v20kTfyEe-nWoxqrpLLqA" xlink:actuate="onRequest" xlink:href="jferrater-tap-and-eat-microservices.system#_9v20kTfyEe-nWoxqrpLLqA" xlink:show="new" xlink:title="jferrater-tap-and-eat-microservices.system#_9v20kTfyEe-nWoxqrpLLqA" xlink:type="simple"><rect fill="#F1F1F1" height="46.2969" rx="2.5" ry="2.5" style="stroke:#181818;stroke-width:0.5;" width="503" x="1933.5" y="169.95"/><rect fill="#F1F1F1" height="10" style="stroke:#181818;stroke-width:0.5;" width="15" x="2416.5" y="174.95"/><rect fill="#F1F1F1" height="2" style="stroke:#181818;stroke-width:0.5;" width="4" x="2414.5" y="176.95"/><rect fill="#F1F1F1" height="2" style="stroke:#181818;stroke-width:0.5;" width="4" x="2414.5" y="180.95"/><text fill="#000000" font-family="sans-serif" font-size="14" lengthAdjust="spacing" textLength="463" x="1948.5" y="202.9451">PRICE_SERVICE_prices_search_findByItemCode_itemCode_Provider</text></a></g><!--entity com_github_joffryferrater_foodtrayservice_service_TrayItemService--><g id="elem_com_github_joffryferrater_foodtrayservice_service_TrayItemService"><a href="jferrater-tap-and-eat-microservices.system#_9v20kTfyEe-nWoxqrpLLqA" target="_top" title="jferrater-tap-and-eat-microservices.system#_9v20kTfyEe-nWoxqrpLLqA" xlink:actuate="onRequest" xlink:href="jferrater-tap-and-eat-microservices.system#_9v20kTfyEe-nWoxqrpLLqA" xlink:show="new" xlink:title="jferrater-tap-and-eat-microservices.system#_9v20kTfyEe-nWoxqrpLLqA" xlink:type="simple"><rect fill="#F1F1F1" height="46.2969" rx="2.5" ry="2.5" style="stroke:#181818;stroke-width:0.5;" width="494" x="2604" y="169.95"/><rect fill="#F1F1F1" height="10" style="stroke:#181818;stroke-width:0.5;" width="15" x="3078" y="174.95"/><rect fill="#F1F1F1" height="2" style="stroke:#181818;stroke-width:0.5;" width="4" x="3076" y="176.95"/><rect fill="#F1F1F1" height="2" style="stroke:#181818;stroke-width:0.5;" width="4" x="3076" y="180.95"/><text fill="#000000" font-family="sans-serif" font-size="14" lengthAdjust="spacing" textLength="454" x="2619" y="202.9451">com_github_joffryferrater_foodtrayservice_service_TrayItemService</text></a></g><!--link nodeITEM_SERVICE_items_search_findByItemCode_itemCode_Provider to nodecom_github_joffryferrater_foodtrayservice--><g id="link_nodeITEM_SERVICE_items_search_findByItemCode_itemCode_Provider_nodecom_github_joffryferrater_foodtrayservice"><path d="M82.2526,121.6309 C82.2862,121.0887 82.3219,120.5458 82.3595,120.0022 C82.4348,118.915 82.5181,117.8252 82.6099,116.7333 C82.7935,114.5497 83.011,112.3582 83.2655,110.1649 C83.7745,105.7781 84.4318,101.3835 85.2628,97.0279 C86.9248,88.3167 89.2819,79.7616 92.5381,71.7369 C99.0506,55.6875 109.16,41.76 124.5,32.95 C171.42,6 564.58,6 611.5,32.95 C643.84,51.525 662.0475,88.7325 672.2488,122.595 C673.5239,126.8278 674.674,131.0084 675.7109,135.0937 C675.9701,136.1151 676.2223,137.1304 676.4676,138.1392 C676.5902,138.6436 676.7111,139.1463 676.8303,139.6473 " fill="none" id="nodeITEM_SERVICE_items_search_findByItemCode_itemCode_Provider-nodecom_github_joffryferrater_foodtrayservice" style="stroke:#181818;stroke-width:1.0;"/></g><!--SRC=[nLF1QiCm3BtdAmmxPupUTjn21e6EXRPiXn2CcyYjMyTsPJVKZFtxd6u9kmoQjMKOR4lM4-_9ajqAPHYoXd1nI0HM4gPi2VAb1PJC6A5MnE4U8Zi4LhenMe5oS-Sba7qZ9v7IDP1k2uzq9TnwlwGRpJbw3eZC0LAkTUsGUGlOYWh8UpGa8cDGnSd1z2dOYs0dMZdKKWAMf2WsVNpic8cPgcDWBcv4XVeRQ6-jjmwQ6thVJkws2-vJYDMRFkpGJAUxXx8SmmB1Q2kSHa-pa7J-vPuDtd_cb6DmN8_KHrX3TsIBz9dEqzbhbgHK1A2b5XXMQyg5gXzzLvyan1tVZfSSTIjgmExZ_uw-e9f1IpxhQFHqJ5V5KMhEmLz3p-dDqv_TQFtew76p-KkI2oehpkkuaiIa65MOCle4]--></g></svg>