<?xml version="1.0" encoding="us-ascii" standalone="no"?><svg xmlns="http://www.w3.org/2000/svg" xmlns:xlink="http://www.w3.org/1999/xlink" contentStyleType="text/css" height="125px" preserveAspectRatio="none" style="width:3307px;height:125px;background:#FFFFFF;" version="1.1" viewBox="0 0 3307 125" width="3307px" zoomAndPan="magnify"><defs/><g><!--cluster Placeholder_4--><g id="cluster_Placeholder_4"><polygon fill="none" points="1204.5,16,1214.5,6,3290.5,6,3290.5,98,3280.5,108,1204.5,108,1204.5,16" style="stroke:#181818;stroke-width:1.0;"/><line style="stroke:#181818;stroke-width:1.0;" x1="3280.5" x2="3290.5" y1="16" y2="6"/><line style="stroke:#181818;stroke-width:1.0;" x1="1204.5" x2="3280.5" y1="16" y2="16"/><line style="stroke:#181818;stroke-width:1.0;" x1="3280.5" x2="3280.5" y1="16" y2="108"/><text fill="#000000" font-family="sans-serif" font-size="14" font-weight="bold" lengthAdjust="spacing" textLength="110" x="2188.5" y="31.9951">Placeholder_4</text></g><!--entity aName--><g id="elem_aName"><a href="jferrater-tap-and-eat-microservices.system#_ri6KsbtpEe6tk7yaW9oFrA" target="_top" title="jferrater-tap-and-eat-microservices.system#_ri6KsbtpEe6tk7yaW9oFrA" xlink:actuate="onRequest" xlink:href="jferrater-tap-and-eat-microservices.system#_ri6KsbtpEe6tk7yaW9oFrA" xlink:show="new" xlink:title="jferrater-tap-and-eat-microservices.system#_ri6KsbtpEe6tk7yaW9oFrA" xlink:type="simple"><rect fill="#F1F1F1" height="46.2969" rx="2.5" ry="2.5" style="stroke:#181818;stroke-width:0.5;" width="88" x="1220.5" y="46"/><rect fill="#F1F1F1" height="10" style="stroke:#181818;stroke-width:0.5;" width="15" x="1288.5" y="51"/><rect fill="#F1F1F1" height="2" style="stroke:#181818;stroke-width:0.5;" width="4" x="1286.5" y="53"/><rect fill="#F1F1F1" height="2" style="stroke:#181818;stroke-width:0.5;" width="4" x="1286.5" y="57"/><text fill="#000000" font-family="sans-serif" font-size="14" lengthAdjust="spacing" textLength="48" x="1235.5" y="78.9951">aName</text></a></g><!--entity Placeholder_1--><g id="elem_Placeholder_1"><polygon fill="#F1F1F1" points="16,56,26,46,153,46,153,82.2969,143,92.2969,16,92.2969,16,56" style="stroke:#181818;stroke-width:0.5;"/><line style="stroke:#181818;stroke-width:0.5;" x1="143" x2="153" y1="56" y2="46"/><line style="stroke:#181818;stroke-width:0.5;" x1="16" x2="143" y1="56" y2="56"/><line style="stroke:#181818;stroke-width:0.5;" x1="143" x2="143" y1="56" y2="92.2969"/><text fill="#000000" font-family="sans-serif" font-size="14" lengthAdjust="spacing" textLength="97" x="31" y="78.9951">Placeholder_1</text></g><!--entity Placeholder_3--><g id="elem_Placeholder_3"><polygon fill="#F1F1F1" points="188,56,198,46,325,46,325,82.2969,315,92.2969,188,92.2969,188,56" style="stroke:#181818;stroke-width:0.5;"/><line style="stroke:#181818;stroke-width:0.5;" x1="315" x2="325" y1="56" y2="46"/><line style="stroke:#181818;stroke-width:0.5;" x1="188" x2="315" y1="56" y2="56"/><line style="stroke:#181818;stroke-width:0.5;" x1="315" x2="315" y1="56" y2="92.2969"/><text fill="#000000" font-family="sans-serif" font-size="14" lengthAdjust="spacing" textLength="97" x="203" y="78.9951">Placeholder_3</text></g><!--entity Placeholder_6--><g id="elem_Placeholder_6"><polygon fill="#F1F1F1" points="360,56,370,46,497,46,497,82.2969,487,92.2969,360,92.2969,360,56" style="stroke:#181818;stroke-width:0.5;"/><line style="stroke:#181818;stroke-width:0.5;" x1="487" x2="497" y1="56" y2="46"/><line style="stroke:#181818;stroke-width:0.5;" x1="360" x2="487" y1="56" y2="56"/><line style="stroke:#181818;stroke-width:0.5;" x1="487" x2="487" y1="56" y2="92.2969"/><text fill="#000000" font-family="sans-serif" font-size="14" lengthAdjust="spacing" textLength="97" x="375" y="78.9951">Placeholder_6</text></g><!--entity Placeholder_9--><g id="elem_Placeholder_9"><polygon fill="#F1F1F1" points="532,56,542,46,669,46,669,82.2969,659,92.2969,532,92.2969,532,56" style="stroke:#181818;stroke-width:0.5;"/><line style="stroke:#181818;stroke-width:0.5;" x1="659" x2="669" y1="56" y2="46"/><line style="stroke:#181818;stroke-width:0.5;" x1="532" x2="659" y1="56" y2="56"/><line style="stroke:#181818;stroke-width:0.5;" x1="659" x2="659" y1="56" y2="92.2969"/><text fill="#000000" font-family="sans-serif" font-size="14" lengthAdjust="spacing" textLength="97" x="547" y="78.9951">Placeholder_9</text></g><!--entity Placeholder_0--><g id="elem_Placeholder_0"><polygon fill="#F1F1F1" points="704,56,714,46,841,46,841,82.2969,831,92.2969,704,92.2969,704,56" style="stroke:#181818;stroke-width:0.5;"/><line style="stroke:#181818;stroke-width:0.5;" x1="831" x2="841" y1="56" y2="46"/><line style="stroke:#181818;stroke-width:0.5;" x1="704" x2="831" y1="56" y2="56"/><line style="stroke:#181818;stroke-width:0.5;" x1="831" x2="831" y1="56" y2="92.2969"/><text fill="#000000" font-family="sans-serif" font-size="14" lengthAdjust="spacing" textLength="97" x="719" y="78.9951">Placeholder_0</text></g><!--entity Placeholder_7--><g id="elem_Placeholder_7"><polygon fill="#F1F1F1" points="876,56,886,46,1013,46,1013,82.2969,1003,92.2969,876,92.2969,876,56" style="stroke:#181818;stroke-width:0.5;"/><line style="stroke:#181818;stroke-width:0.5;" x1="1003" x2="1013" y1="56" y2="46"/><line style="stroke:#181818;stroke-width:0.5;" x1="876" x2="1003" y1="56" y2="56"/><line style="stroke:#181818;stroke-width:0.5;" x1="1003" x2="1003" y1="56" y2="92.2969"/><text fill="#000000" font-family="sans-serif" font-size="14" lengthAdjust="spacing" textLength="97" x="891" y="78.9951">Placeholder_7</text></g><!--entity Placeholder_2--><g id="elem_Placeholder_2"><polygon fill="#F1F1F1" points="1048,56,1058,46,1185,46,1185,82.2969,1175,92.2969,1048,92.2969,1048,56" style="stroke:#181818;stroke-width:0.5;"/><line style="stroke:#181818;stroke-width:0.5;" x1="1175" x2="1185" y1="56" y2="46"/><line style="stroke:#181818;stroke-width:0.5;" x1="1048" x2="1175" y1="56" y2="56"/><line style="stroke:#181818;stroke-width:0.5;" x1="1175" x2="1175" y1="56" y2="92.2969"/><text fill="#000000" font-family="sans-serif" font-size="14" lengthAdjust="spacing" textLength="97" x="1063" y="78.9951">Placeholder_2</text></g><!--link aName to aName--><g id="link_aName_aName"><path d="M1308.77,66.87 C1327.52,66.71 1343.5,67.42 1343.5,69 C1343.5,70.58 1327.52,71.29 1308.77,71.13 " fill="none" id="aName-aName" style="stroke:#181818;stroke-width:1.0;"/><text fill="#000000" font-family="sans-serif" font-size="13" lengthAdjust="spacing" textLength="545" x="1356.5" y="73.5669">com_github_joffryferrater_foodtrayservice_repository_PriceServiceRepository Provider</text><path d="M1301.6389,59.8595 A10,10 0 0 0 1301.7595 74.0011" fill="none" style="stroke:#181818;stroke-width:1.5;"/><ellipse cx="1308.77" cy="66.87" fill="#FFFFFF" rx="6" ry="6" style="stroke:#181818;stroke-width:1.5;"/></g><!--link aName to aName--><g id="link_aName_aName"><path d="M1308.74,66.98 C1457.37,63.36 1914.5,64.03 1914.5,69 C1914.5,73.97 1457.37,74.64 1308.74,71.02 " fill="none" id="aName-aName-1" style="stroke:#181818;stroke-width:1.0;"/><text fill="#000000" font-family="sans-serif" font-size="13" lengthAdjust="spacing" textLength="543" x="1927.5" y="73.5669">com_github_joffryferrater_foodtrayservice_repository_ItemServiceRepository Provider</text><path d="M1301.4989,60.0832 A10,10 0 0 0 1301.8432 74.2211" fill="none" style="stroke:#181818;stroke-width:1.5;"/><ellipse cx="1308.74" cy="66.98" fill="#FFFFFF" rx="6" ry="6" style="stroke:#181818;stroke-width:1.5;"/></g><!--link aName to aName--><g id="link_aName_aName"><path d="M1308.59,66.73 C1530.37,60.46 2483.5,61.21 2483.5,69 C2483.5,76.79 1530.37,77.54 1308.59,71.27 " fill="none" id="aName-aName-2" style="stroke:#181818;stroke-width:1.0;"/><text fill="#000000" font-family="sans-serif" font-size="13" lengthAdjust="spacing" textLength="350" x="2496.5" y="73.5669">null/items/search/findByItemCode?itemCode= Provider</text><path d="M1301.3219,59.8616 A10,10 0 0 0 1301.7216 73.9981" fill="none" style="stroke:#181818;stroke-width:1.5;"/><ellipse cx="1308.59" cy="66.73" fill="#FFFFFF" rx="6" ry="6" style="stroke:#181818;stroke-width:1.5;"/></g><!--link aName to aName--><g id="link_aName_aName"><path d="M1308.91,66.36 C1571.25,57.58 2859.5,58.46 2859.5,69 C2859.5,79.54 1571.25,80.42 1308.91,71.64 " fill="none" id="aName-aName-3" style="stroke:#181818;stroke-width:1.0;"/><text fill="#000000" font-family="sans-serif" font-size="13" lengthAdjust="spacing" textLength="352" x="2872.5" y="73.5669">null/prices/search/findByItemCode?itemCode= Provider</text><path d="M1301.6064,59.5294 A10,10 0 0 0 1302.0794 73.6636" fill="none" style="stroke:#181818;stroke-width:1.5;"/><ellipse cx="1308.91" cy="66.36" fill="#FFFFFF" rx="6" ry="6" style="stroke:#181818;stroke-width:1.5;"/></g><!--SRC=[lT3DIiGm50NWVPyYuCPDxVX3Xn54T50GHOikN9GIRjlRwPr9ct2J5eluxdPmwiQD0vfTSY3duyHkg3N0q8YAtfR4XS87o54zzSWAZA5s9Hnt6BIwH94eAB3MgaIMP-8zIE4H6in4cguhP0Q773em8RHbYE32XWhM5hcd0ksH7Qp3va0onVSsT-O6OxUP3_2wqBTybMN1nq_bs8jowaM9lIWBByhCYpBtefpyXp8LXeUpK4oNSr7eHgx8rLqkrxggU9WqMMbTEePXXqX6eoqvpODCU0nUllBdxrWah7iQ1_ofTJSEsvzgEwKY6f_Qo29mKKSLjUNri6rRZlzzIRl3nU-gp7Rn7bsV]--></g></svg>