<?xml version="1.0" encoding="us-ascii" standalone="no"?><svg xmlns="http://www.w3.org/2000/svg" xmlns:xlink="http://www.w3.org/1999/xlink" contentStyleType="text/css" height="389px" preserveAspectRatio="none" style="width:3209px;height:389px;background:#FFFFFF;" version="1.1" viewBox="0 0 3209 389" width="3209px" zoomAndPan="magnify"><defs/><g><!--cluster nodecom_github_joffryferrater_foodtrayservice--><g id="cluster_nodecom_github_joffryferrater_foodtrayservice"><polygon fill="none" points="677,91.11,687,81.11,1836,81.11,1836,362.11,1826,372.11,677,372.11,677,91.11" style="stroke:#181818;stroke-width:1.0;"/><line style="stroke:#181818;stroke-width:1.0;" x1="1826" x2="1836" y1="91.11" y2="81.11"/><line style="stroke:#181818;stroke-width:1.0;" x1="677" x2="1826" y1="91.11" y2="91.11"/><line style="stroke:#181818;stroke-width:1.0;" x1="1826" x2="1826" y1="91.11" y2="372.11"/><text fill="#000000" font-family="sans-serif" font-size="14" font-weight="bold" lengthAdjust="spacing" textLength="373" x="1066" y="107.1051">nodecom_github_joffryferrater_foodtrayservice</text></g><!--cluster com_github_joffryferrater_foodtrayservice--><g id="cluster_com_github_joffryferrater_foodtrayservice"><rect fill="none" height="203" rx="2.5" ry="2.5" style="stroke:#181818;stroke-width:1.0;" width="1087" x="717" y="137.11"/><rect fill="none" height="10" style="stroke:#181818;stroke-width:1.0;" width="15" x="1784" y="142.11"/><rect fill="none" height="2" style="stroke:#181818;stroke-width:1.0;" width="4" x="1782" y="144.11"/><rect fill="none" height="2" style="stroke:#181818;stroke-width:1.0;" width="4" x="1782" y="148.11"/><text fill="#000000" font-family="sans-serif" font-size="14" font-weight="bold" lengthAdjust="spacing" textLength="333" x="1094" y="163.1051">com_github_joffryferrater_foodtrayservice</text></g><!--cluster nodeITEM_SERVICE_items_search_findByItemCode_itemCode_Provider--><g id="cluster_nodeITEM_SERVICE_items_search_findByItemCode_itemCode_Provider"><polygon fill="none" points="16,134.11,26,124.11,637,124.11,637,232.11,627,242.11,16,242.11,16,134.11" style="stroke:#181818;stroke-width:1.0;"/><line style="stroke:#181818;stroke-width:1.0;" x1="627" x2="637" y1="134.11" y2="124.11"/><line style="stroke:#181818;stroke-width:1.0;" x1="16" x2="627" y1="134.11" y2="134.11"/><line style="stroke:#181818;stroke-width:1.0;" x1="627" x2="627" y1="134.11" y2="242.11"/><text fill="#000000" font-family="sans-serif" font-size="14" font-weight="bold" lengthAdjust="spacing" textLength="545" x="50" y="150.1051">nodeITEM_SERVICE_items_search_findByItemCode_itemCode_Provider</text></g><!--cluster nodePRICE_SERVICE_prices_search_findByItemCode_itemCode_Provider--><g id="cluster_nodePRICE_SERVICE_prices_search_findByItemCode_itemCode_Provider"><polygon fill="none" points="1876,134.11,1886,124.11,2511,124.11,2511,232.11,2501,242.11,1876,242.11,1876,134.11" style="stroke:#181818;stroke-width:1.0;"/><line style="stroke:#181818;stroke-width:1.0;" x1="2501" x2="2511" y1="134.11" y2="124.11"/><line style="stroke:#181818;stroke-width:1.0;" x1="1876" x2="2501" y1="134.11" y2="134.11"/><line style="stroke:#181818;stroke-width:1.0;" x1="2501" x2="2501" y1="134.11" y2="242.11"/><text fill="#000000" font-family="sans-serif" font-size="14" font-weight="bold" lengthAdjust="spacing" textLength="559" x="1910" y="150.1051">nodePRICE_SERVICE_prices_search_findByItemCode_itemCode_Provider</text></g><!--cluster nodecom_github_joffryferrater_foodtrayservice_service_TrayItemService--><g id="cluster_nodecom_github_joffryferrater_foodtrayservice_service_TrayItemService"><polygon fill="none" points="2543,142.11,2553,132.11,3192,132.11,3192,224.11,3182,234.11,2543,234.11,2543,142.11" style="stroke:#181818;stroke-width:1.0;"/><line style="stroke:#181818;stroke-width:1.0;" x1="3182" x2="3192" y1="142.11" y2="132.11"/><line style="stroke:#181818;stroke-width:1.0;" x1="2543" x2="3182" y1="142.11" y2="142.11"/><line style="stroke:#181818;stroke-width:1.0;" x1="3182" x2="3182" y1="142.11" y2="234.11"/><text fill="#000000" font-family="sans-serif" font-size="14" font-weight="bold" lengthAdjust="spacing" textLength="573" x="2577" y="158.1051">nodecom_github_joffryferrater_foodtrayservice_service_TrayItemService</text></g><!--entity com_github_joffryferrater_foodtrayservice_FoodTrayController--><g id="elem_com_github_joffryferrater_foodtrayservice_FoodTrayController"><a href="jferrater-tap-and-eat-microservices.system#_PgyToWiHEe-JP4Qq6QihTw" target="_top" title="jferrater-tap-and-eat-microservices.system#_PgyToWiHEe-JP4Qq6QihTw" xlink:actuate="onRequest" xlink:href="jferrater-tap-and-eat-microservices.system#_PgyToWiHEe-JP4Qq6QihTw" xlink:show="new" xlink:title="jferrater-tap-and-eat-microservices.system#_PgyToWiHEe-JP4Qq6QihTw" xlink:type="simple"><rect fill="#F1F1F1" height="46.2969" rx="2.5" ry="2.5" style="stroke:#181818;stroke-width:0.5;" width="460" x="733" y="172.11"/><rect fill="#F1F1F1" height="10" style="stroke:#181818;stroke-width:0.5;" width="15" x="1173" y="177.11"/><rect fill="#F1F1F1" height="2" style="stroke:#181818;stroke-width:0.5;" width="4" x="1171" y="179.11"/><rect fill="#F1F1F1" height="2" style="stroke:#181818;stroke-width:0.5;" width="4" x="1171" y="183.11"/><text fill="#000000" font-family="sans-serif" font-size="14" lengthAdjust="spacing" textLength="420" x="748" y="205.1051">com_github_joffryferrater_foodtrayservice_FoodTrayController</text></a></g><!--entity com_github_joffryferrater_foodtrayservice_repository_ItemServiceRepository--><g id="elem_com_github_joffryferrater_foodtrayservice_repository_ItemServiceRepository"><a href="jferrater-tap-and-eat-microservices.system#_PgyToWiHEe-JP4Qq6QihTw" target="_top" title="jferrater-tap-and-eat-microservices.system#_PgyToWiHEe-JP4Qq6QihTw" xlink:actuate="onRequest" xlink:href="jferrater-tap-and-eat-microservices.system#_PgyToWiHEe-JP4Qq6QihTw" xlink:show="new" xlink:title="jferrater-tap-and-eat-microservices.system#_PgyToWiHEe-JP4Qq6QihTw" xlink:type="simple"><rect fill="#F1F1F1" height="46.2969" rx="2.5" ry="2.5" style="stroke:#181818;stroke-width:0.5;" width="559" x="1228.5" y="172.11"/><rect fill="#F1F1F1" height="10" style="stroke:#181818;stroke-width:0.5;" width="15" x="1767.5" y="177.11"/><rect fill="#F1F1F1" height="2" style="stroke:#181818;stroke-width:0.5;" width="4" x="1765.5" y="179.11"/><rect fill="#F1F1F1" height="2" style="stroke:#181818;stroke-width:0.5;" width="4" x="1765.5" y="183.11"/><text fill="#000000" font-family="sans-serif" font-size="14" lengthAdjust="spacing" textLength="519" x="1243.5" y="205.1051">com_github_joffryferrater_foodtrayservice_repository_ItemServiceRepository</text></a></g><!--entity com_github_joffryferrater_foodtrayservice_repository_PriceServiceRepository--><g id="elem_com_github_joffryferrater_foodtrayservice_repository_PriceServiceRepository"><a href="jferrater-tap-and-eat-microservices.system#_PgyToWiHEe-JP4Qq6QihTw" target="_top" title="jferrater-tap-and-eat-microservices.system#_PgyToWiHEe-JP4Qq6QihTw" xlink:actuate="onRequest" xlink:href="jferrater-tap-and-eat-microservices.system#_PgyToWiHEe-JP4Qq6QihTw" xlink:show="new" xlink:title="jferrater-tap-and-eat-microservices.system#_PgyToWiHEe-JP4Qq6QihTw" xlink:type="simple"><rect fill="#F1F1F1" height="46.2969" rx="2.5" ry="2.5" style="stroke:#181818;stroke-width:0.5;" width="563" x="733.5" y="278.11"/><rect fill="#F1F1F1" height="10" style="stroke:#181818;stroke-width:0.5;" width="15" x="1276.5" y="283.11"/><rect fill="#F1F1F1" height="2" style="stroke:#181818;stroke-width:0.5;" width="4" x="1274.5" y="285.11"/><rect fill="#F1F1F1" height="2" style="stroke:#181818;stroke-width:0.5;" width="4" x="1274.5" y="289.11"/><text fill="#000000" font-family="sans-serif" font-size="14" lengthAdjust="spacing" textLength="523" x="748.5" y="311.1051">com_github_joffryferrater_foodtrayservice_repository_PriceServiceRepository</text></a></g><!--entity ITEM_SERVICE_items_search_findByItemCode_itemCode_Provider--><g id="elem_ITEM_SERVICE_items_search_findByItemCode_itemCode_Provider"><a href="jferrater-tap-and-eat-microservices.system#_PgyToWiHEe-JP4Qq6QihTw" target="_top" title="jferrater-tap-and-eat-microservices.system#_PgyToWiHEe-JP4Qq6QihTw" xlink:actuate="onRequest" xlink:href="jferrater-tap-and-eat-microservices.system#_PgyToWiHEe-JP4Qq6QihTw" xlink:show="new" xlink:title="jferrater-tap-and-eat-microservices.system#_PgyToWiHEe-JP4Qq6QihTw" xlink:type="simple"><rect fill="#F1F1F1" height="46.2969" rx="2.5" ry="2.5" style="stroke:#181818;stroke-width:0.5;" width="491" x="122.5" y="172.11"/><rect fill="#F1F1F1" height="10" style="stroke:#181818;stroke-width:0.5;" width="15" x="593.5" y="177.11"/><rect fill="#F1F1F1" height="2" style="stroke:#181818;stroke-width:0.5;" width="4" x="591.5" y="179.11"/><rect fill="#F1F1F1" height="2" style="stroke:#181818;stroke-width:0.5;" width="4" x="591.5" y="183.11"/><text fill="#000000" font-family="sans-serif" font-size="14" lengthAdjust="spacing" textLength="451" x="137.5" y="205.1051">ITEM_SERVICE_items_search_findByItemCode_itemCode_Provider</text></a></g><!--entity PRICE_SERVICE_prices_search_findByItemCode_itemCode_Provider--><g id="elem_PRICE_SERVICE_prices_search_findByItemCode_itemCode_Provider"><a href="jferrater-tap-and-eat-microservices.system#_PgyToWiHEe-JP4Qq6QihTw" target="_top" title="jferrater-tap-and-eat-microservices.system#_PgyToWiHEe-JP4Qq6QihTw" xlink:actuate="onRequest" xlink:href="jferrater-tap-and-eat-microservices.system#_PgyToWiHEe-JP4Qq6QihTw" xlink:show="new" xlink:title="jferrater-tap-and-eat-microservices.system#_PgyToWiHEe-JP4Qq6QihTw" xlink:type="simple"><rect fill="#F1F1F1" height="46.2969" rx="2.5" ry="2.5" style="stroke:#181818;stroke-width:0.5;" width="503" x="1951.5" y="172.11"/><rect fill="#F1F1F1" height="10" style="stroke:#181818;stroke-width:0.5;" width="15" x="2434.5" y="177.11"/><rect fill="#F1F1F1" height="2" style="stroke:#181818;stroke-width:0.5;" width="4" x="2432.5" y="179.11"/><rect fill="#F1F1F1" height="2" style="stroke:#181818;stroke-width:0.5;" width="4" x="2432.5" y="183.11"/><text fill="#000000" font-family="sans-serif" font-size="14" lengthAdjust="spacing" textLength="463" x="1966.5" y="205.1051">PRICE_SERVICE_prices_search_findByItemCode_itemCode_Provider</text></a></g><!--entity com_github_joffryferrater_foodtrayservice_service_TrayItemService--><g id="elem_com_github_joffryferrater_foodtrayservice_service_TrayItemService"><a href="jferrater-tap-and-eat-microservices.system#_PgyToWiHEe-JP4Qq6QihTw" target="_top" title="jferrater-tap-and-eat-microservices.system#_PgyToWiHEe-JP4Qq6QihTw" xlink:actuate="onRequest" xlink:href="jferrater-tap-and-eat-microservices.system#_PgyToWiHEe-JP4Qq6QihTw" xlink:show="new" xlink:title="jferrater-tap-and-eat-microservices.system#_PgyToWiHEe-JP4Qq6QihTw" xlink:type="simple"><rect fill="#F1F1F1" height="46.2969" rx="2.5" ry="2.5" style="stroke:#181818;stroke-width:0.5;" width="494" x="2620" y="172.11"/><rect fill="#F1F1F1" height="10" style="stroke:#181818;stroke-width:0.5;" width="15" x="3094" y="177.11"/><rect fill="#F1F1F1" height="2" style="stroke:#181818;stroke-width:0.5;" width="4" x="3092" y="179.11"/><rect fill="#F1F1F1" height="2" style="stroke:#181818;stroke-width:0.5;" width="4" x="3092" y="183.11"/><text fill="#000000" font-family="sans-serif" font-size="14" lengthAdjust="spacing" textLength="454" x="2635" y="205.1051">com_github_joffryferrater_foodtrayservice_service_TrayItemService</text></a></g><!--link nodeITEM_SERVICE_items_search_findByItemCode_itemCode_Provider to nodecom_github_joffryferrater_foodtrayservice--><g id="link_nodeITEM_SERVICE_items_search_findByItemCode_itemCode_Provider_nodecom_github_joffryferrater_foodtrayservice"><path d="M82.2526,123.7909 C82.2862,123.2487 82.3219,122.7058 82.3595,122.1622 C82.4348,121.075 82.5181,119.9852 82.6099,118.8933 C82.7935,116.7097 83.011,114.5182 83.2655,112.3249 C83.7745,107.9381 84.4318,103.5435 85.2628,99.1879 C86.9248,90.4767 89.2819,81.9216 92.5381,73.8969 C99.0506,57.8475 109.16,43.92 124.5,35.11 C171.42,8.16 564.58,8.16 611.5,35.11 C643.84,53.685 662.0475,90.8925 672.2488,124.755 C673.5239,128.9878 674.674,133.1684 675.7109,137.2537 C675.9701,138.2751 676.2223,139.2904 676.4676,140.2992 C676.5902,140.8036 676.7111,141.3063 676.8303,141.8073 " fill="none" id="nodeITEM_SERVICE_items_search_findByItemCode_itemCode_Provider-nodecom_github_joffryferrater_foodtrayservice" style="stroke:#181818;stroke-width:1.0;"/></g><!--link nodePRICE_SERVICE_prices_search_findByItemCode_itemCode_Provider to nodecom_github_joffryferrater_foodtrayservice--><g id="link_nodePRICE_SERVICE_prices_search_findByItemCode_itemCode_Provider_nodecom_github_joffryferrater_foodtrayservice"><path d="M1875.8773,165.8095 C1875.3429,164.1569 1874.78,162.4537 1874.188,160.7052 C1873.0041,157.2081 1871.704,153.5298 1870.2827,149.712 C1867.4402,142.0763 1864.1134,133.8825 1860.2638,125.465 C1844.865,91.795 1821.1,54.545 1786.5,35.11 C1735.54,6.49 785.18,6 734.5,35.11 C719.12,43.945 708.2588,57.6538 700.6361,73.412 C699.6833,75.3818 698.781,77.3836 697.9269,79.4119 C697.7134,79.919 697.5028,80.4278 697.2953,80.9381 " fill="none" id="nodePRICE_SERVICE_prices_search_findByItemCode_itemCode_Provider-nodecom_github_joffryferrater_foodtrayservice" style="stroke:#181818;stroke-width:1.0;"/></g><!--SRC=[nLDDJyCm3BttLqJYN0u8yGEeYXW2qMqL7AegobftoqZZu6I32F7VIJTMSK5QsIOKAH-Ed_EUOziNgOqWqR96lYUIAWNtOWRgSGsaX35IpvcZ5KIsTwomDQX1kwdp2jYgLHUHnXfODuLBFfTkiPhn9JOD-GQ8X0FY3MBjI7WBj9OLi8-e3yI6e8gzdVbDEEVXdA1sX4e1bQmebZl_s0aJ2rt785pSoehm6sZFhRSEsZEUpNsEp_8sXVWkkno_Netb8dyhoo4i20nQwP0y7uMWqwrvqbl_cLD6mN0wKfzXzDKnojC7FaqdJwCavJ80BRSWg5hmHkhwsdVvIOBVvcwpoGZNiWRgFlxlw2EgwRLaaux6ZexfiZX8pI7uK-ZPltXsQzTQFofwM6_-4kI8oeh3AgvaCIi69QRSFddOnmv_z0i0]--></g></svg>