<?xml version="1.0" encoding="us-ascii" standalone="no"?><svg xmlns="http://www.w3.org/2000/svg" xmlns:xlink="http://www.w3.org/1999/xlink" contentStyleType="text/css" height="389px" preserveAspectRatio="none" style="width:2968px;height:389px;background:#FFFFFF;" version="1.1" viewBox="0 0 2968 389" width="2968px" zoomAndPan="magnify"><defs/><g><!--cluster nodeFoodTrayController--><g id="cluster_nodeFoodTrayController"><polygon fill="none" points="598,91.11,608,81.11,1757,81.11,1757,362.11,1747,372.11,598,372.11,598,91.11" style="stroke:#181818;stroke-width:1.0;"/><line style="stroke:#181818;stroke-width:1.0;" x1="1747" x2="1757" y1="91.11" y2="81.11"/><line style="stroke:#181818;stroke-width:1.0;" x1="598" x2="1747" y1="91.11" y2="91.11"/><line style="stroke:#181818;stroke-width:1.0;" x1="1747" x2="1747" y1="91.11" y2="372.11"/><text fill="#000000" font-family="sans-serif" font-size="14" font-weight="bold" lengthAdjust="spacing" textLength="193" x="1077" y="107.1051">nodeFoodTrayController</text></g><!--cluster FoodTrayController--><g id="cluster_FoodTrayController"><rect fill="none" height="203" rx="2.5" ry="2.5" style="stroke:#181818;stroke-width:1.0;" width="1087" x="638" y="137.11"/><rect fill="none" height="10" style="stroke:#181818;stroke-width:1.0;" width="15" x="1705" y="142.11"/><rect fill="none" height="2" style="stroke:#181818;stroke-width:1.0;" width="4" x="1703" y="144.11"/><rect fill="none" height="2" style="stroke:#181818;stroke-width:1.0;" width="4" x="1703" y="148.11"/><text fill="#000000" font-family="sans-serif" font-size="14" font-weight="bold" lengthAdjust="spacing" textLength="153" x="1105" y="163.1051">FoodTrayController</text></g><!--cluster nodeTrayItemService--><g id="cluster_nodeTrayItemService"><polygon fill="none" points="2377,99.11,2387,89.11,2951,89.11,2951,248.11,2941,258.11,2377,258.11,2377,99.11" style="stroke:#181818;stroke-width:1.0;"/><line style="stroke:#181818;stroke-width:1.0;" x1="2941" x2="2951" y1="99.11" y2="89.11"/><line style="stroke:#181818;stroke-width:1.0;" x1="2377" x2="2941" y1="99.11" y2="99.11"/><line style="stroke:#181818;stroke-width:1.0;" x1="2941" x2="2941" y1="99.11" y2="258.11"/><text fill="#000000" font-family="sans-serif" font-size="14" font-weight="bold" lengthAdjust="spacing" textLength="168" x="2576" y="115.1051">nodeTrayItemService</text></g><!--cluster TrayItemService--><g id="cluster_TrayItemService"><rect fill="none" height="97" rx="2.5" ry="2.5" style="stroke:#181818;stroke-width:1.0;" width="526" x="2401" y="137.11"/><rect fill="none" height="10" style="stroke:#181818;stroke-width:1.0;" width="15" x="2907" y="142.11"/><rect fill="none" height="2" style="stroke:#181818;stroke-width:1.0;" width="4" x="2905" y="144.11"/><rect fill="none" height="2" style="stroke:#181818;stroke-width:1.0;" width="4" x="2905" y="148.11"/><text fill="#000000" font-family="sans-serif" font-size="14" font-weight="bold" lengthAdjust="spacing" textLength="128" x="2600" y="163.1051">TrayItemService</text></g><!--cluster nodenull_items_search_findByItemCode_itemCode_Provider--><g id="cluster_nodenull_items_search_findByItemCode_itemCode_Provider"><polygon fill="none" points="16,134.11,26,124.11,558,124.11,558,232.11,548,242.11,16,242.11,16,134.11" style="stroke:#181818;stroke-width:1.0;"/><line style="stroke:#181818;stroke-width:1.0;" x1="548" x2="558" y1="134.11" y2="124.11"/><line style="stroke:#181818;stroke-width:1.0;" x1="16" x2="548" y1="134.11" y2="134.11"/><line style="stroke:#181818;stroke-width:1.0;" x1="548" x2="548" y1="134.11" y2="242.11"/><text fill="#000000" font-family="sans-serif" font-size="14" font-weight="bold" lengthAdjust="spacing" textLength="466" x="50" y="150.1051">nodenull_items_search_findByItemCode_itemCode_Provider</text></g><!--cluster nodenull_prices_search_findByItemCode_itemCode_Provider--><g id="cluster_nodenull_prices_search_findByItemCode_itemCode_Provider"><polygon fill="none" points="1797,134.11,1807,124.11,2345,124.11,2345,232.11,2335,242.11,1797,242.11,1797,134.11" style="stroke:#181818;stroke-width:1.0;"/><line style="stroke:#181818;stroke-width:1.0;" x1="2335" x2="2345" y1="134.11" y2="124.11"/><line style="stroke:#181818;stroke-width:1.0;" x1="1797" x2="2335" y1="134.11" y2="134.11"/><line style="stroke:#181818;stroke-width:1.0;" x1="2335" x2="2335" y1="134.11" y2="242.11"/><text fill="#000000" font-family="sans-serif" font-size="14" font-weight="bold" lengthAdjust="spacing" textLength="472" x="1831" y="150.1051">nodenull_prices_search_findByItemCode_itemCode_Provider</text></g><!--entity com_github_joffryferrater_foodtrayservice_FoodTrayController--><g id="elem_com_github_joffryferrater_foodtrayservice_FoodTrayController"><a href="jferrater-tap-and-eat-microservices.system#_UAiUQcBFEe6R_Pe_V9rdYg" target="_top" title="jferrater-tap-and-eat-microservices.system#_UAiUQcBFEe6R_Pe_V9rdYg" xlink:actuate="onRequest" xlink:href="jferrater-tap-and-eat-microservices.system#_UAiUQcBFEe6R_Pe_V9rdYg" xlink:show="new" xlink:title="jferrater-tap-and-eat-microservices.system#_UAiUQcBFEe6R_Pe_V9rdYg" xlink:type="simple"><rect fill="#F1F1F1" height="46.2969" rx="2.5" ry="2.5" style="stroke:#181818;stroke-width:0.5;" width="460" x="654" y="172.11"/><rect fill="#F1F1F1" height="10" style="stroke:#181818;stroke-width:0.5;" width="15" x="1094" y="177.11"/><rect fill="#F1F1F1" height="2" style="stroke:#181818;stroke-width:0.5;" width="4" x="1092" y="179.11"/><rect fill="#F1F1F1" height="2" style="stroke:#181818;stroke-width:0.5;" width="4" x="1092" y="183.11"/><text fill="#000000" font-family="sans-serif" font-size="14" lengthAdjust="spacing" textLength="420" x="669" y="205.1051">com_github_joffryferrater_foodtrayservice_FoodTrayController</text></a></g><!--entity com_github_joffryferrater_foodtrayservice_repository_ItemServiceRepository--><g id="elem_com_github_joffryferrater_foodtrayservice_repository_ItemServiceRepository"><a href="jferrater-tap-and-eat-microservices.system#_UAiUQcBFEe6R_Pe_V9rdYg" target="_top" title="jferrater-tap-and-eat-microservices.system#_UAiUQcBFEe6R_Pe_V9rdYg" xlink:actuate="onRequest" xlink:href="jferrater-tap-and-eat-microservices.system#_UAiUQcBFEe6R_Pe_V9rdYg" xlink:show="new" xlink:title="jferrater-tap-and-eat-microservices.system#_UAiUQcBFEe6R_Pe_V9rdYg" xlink:type="simple"><rect fill="#F1F1F1" height="46.2969" rx="2.5" ry="2.5" style="stroke:#181818;stroke-width:0.5;" width="559" x="1149.5" y="172.11"/><rect fill="#F1F1F1" height="10" style="stroke:#181818;stroke-width:0.5;" width="15" x="1688.5" y="177.11"/><rect fill="#F1F1F1" height="2" style="stroke:#181818;stroke-width:0.5;" width="4" x="1686.5" y="179.11"/><rect fill="#F1F1F1" height="2" style="stroke:#181818;stroke-width:0.5;" width="4" x="1686.5" y="183.11"/><text fill="#000000" font-family="sans-serif" font-size="14" lengthAdjust="spacing" textLength="519" x="1164.5" y="205.1051">com_github_joffryferrater_foodtrayservice_repository_ItemServiceRepository</text></a></g><!--entity com_github_joffryferrater_foodtrayservice_repository_PriceServiceRepository--><g id="elem_com_github_joffryferrater_foodtrayservice_repository_PriceServiceRepository"><a href="jferrater-tap-and-eat-microservices.system#_UAiUQcBFEe6R_Pe_V9rdYg" target="_top" title="jferrater-tap-and-eat-microservices.system#_UAiUQcBFEe6R_Pe_V9rdYg" xlink:actuate="onRequest" xlink:href="jferrater-tap-and-eat-microservices.system#_UAiUQcBFEe6R_Pe_V9rdYg" xlink:show="new" xlink:title="jferrater-tap-and-eat-microservices.system#_UAiUQcBFEe6R_Pe_V9rdYg" xlink:type="simple"><rect fill="#F1F1F1" height="46.2969" rx="2.5" ry="2.5" style="stroke:#181818;stroke-width:0.5;" width="563" x="654.5" y="278.11"/><rect fill="#F1F1F1" height="10" style="stroke:#181818;stroke-width:0.5;" width="15" x="1197.5" y="283.11"/><rect fill="#F1F1F1" height="2" style="stroke:#181818;stroke-width:0.5;" width="4" x="1195.5" y="285.11"/><rect fill="#F1F1F1" height="2" style="stroke:#181818;stroke-width:0.5;" width="4" x="1195.5" y="289.11"/><text fill="#000000" font-family="sans-serif" font-size="14" lengthAdjust="spacing" textLength="523" x="669.5" y="311.1051">com_github_joffryferrater_foodtrayservice_repository_PriceServiceRepository</text></a></g><!--entity com_github_joffryferrater_foodtrayservice_service_TrayItemService--><g id="elem_com_github_joffryferrater_foodtrayservice_service_TrayItemService"><a href="jferrater-tap-and-eat-microservices.system#_UAiUQcBFEe6R_Pe_V9rdYg" target="_top" title="jferrater-tap-and-eat-microservices.system#_UAiUQcBFEe6R_Pe_V9rdYg" xlink:actuate="onRequest" xlink:href="jferrater-tap-and-eat-microservices.system#_UAiUQcBFEe6R_Pe_V9rdYg" xlink:show="new" xlink:title="jferrater-tap-and-eat-microservices.system#_UAiUQcBFEe6R_Pe_V9rdYg" xlink:type="simple"><rect fill="#F1F1F1" height="46.2969" rx="2.5" ry="2.5" style="stroke:#181818;stroke-width:0.5;" width="494" x="2417" y="172.11"/><rect fill="#F1F1F1" height="10" style="stroke:#181818;stroke-width:0.5;" width="15" x="2891" y="177.11"/><rect fill="#F1F1F1" height="2" style="stroke:#181818;stroke-width:0.5;" width="4" x="2889" y="179.11"/><rect fill="#F1F1F1" height="2" style="stroke:#181818;stroke-width:0.5;" width="4" x="2889" y="183.11"/><text fill="#000000" font-family="sans-serif" font-size="14" lengthAdjust="spacing" textLength="454" x="2432" y="205.1051">com_github_joffryferrater_foodtrayservice_service_TrayItemService</text></a></g><!--entity null_items_search_findByItemCode_itemCode_Provider--><g id="elem_null_items_search_findByItemCode_itemCode_Provider"><a href="jferrater-tap-and-eat-microservices.system#_UAiUQcBFEe6R_Pe_V9rdYg" target="_top" title="jferrater-tap-and-eat-microservices.system#_UAiUQcBFEe6R_Pe_V9rdYg" xlink:actuate="onRequest" xlink:href="jferrater-tap-and-eat-microservices.system#_UAiUQcBFEe6R_Pe_V9rdYg" xlink:show="new" xlink:title="jferrater-tap-and-eat-microservices.system#_UAiUQcBFEe6R_Pe_V9rdYg" xlink:type="simple"><rect fill="#F1F1F1" height="46.2969" rx="2.5" ry="2.5" style="stroke:#181818;stroke-width:0.5;" width="416" x="118" y="172.11"/><rect fill="#F1F1F1" height="10" style="stroke:#181818;stroke-width:0.5;" width="15" x="514" y="177.11"/><rect fill="#F1F1F1" height="2" style="stroke:#181818;stroke-width:0.5;" width="4" x="512" y="179.11"/><rect fill="#F1F1F1" height="2" style="stroke:#181818;stroke-width:0.5;" width="4" x="512" y="183.11"/><text fill="#000000" font-family="sans-serif" font-size="14" lengthAdjust="spacing" textLength="376" x="133" y="205.1051">null_items_search_findByItemCode_itemCode_Provider</text></a></g><!--entity null_prices_search_findByItemCode_itemCode_Provider--><g id="elem_null_prices_search_findByItemCode_itemCode_Provider"><a href="jferrater-tap-and-eat-microservices.system#_UAiUQcBFEe6R_Pe_V9rdYg" target="_top" title="jferrater-tap-and-eat-microservices.system#_UAiUQcBFEe6R_Pe_V9rdYg" xlink:actuate="onRequest" xlink:href="jferrater-tap-and-eat-microservices.system#_UAiUQcBFEe6R_Pe_V9rdYg" xlink:show="new" xlink:title="jferrater-tap-and-eat-microservices.system#_UAiUQcBFEe6R_Pe_V9rdYg" xlink:type="simple"><rect fill="#F1F1F1" height="46.2969" rx="2.5" ry="2.5" style="stroke:#181818;stroke-width:0.5;" width="420" x="1870" y="172.11"/><rect fill="#F1F1F1" height="10" style="stroke:#181818;stroke-width:0.5;" width="15" x="2270" y="177.11"/><rect fill="#F1F1F1" height="2" style="stroke:#181818;stroke-width:0.5;" width="4" x="2268" y="179.11"/><rect fill="#F1F1F1" height="2" style="stroke:#181818;stroke-width:0.5;" width="4" x="2268" y="183.11"/><text fill="#000000" font-family="sans-serif" font-size="14" lengthAdjust="spacing" textLength="380" x="1885" y="205.1051">null_prices_search_findByItemCode_itemCode_Provider</text></a></g><!--link nodenull_items_search_findByItemCode_itemCode_Provider to nodeFoodTrayController--><g id="link_nodenull_items_search_findByItemCode_itemCode_Provider_nodeFoodTrayController"><path d="M77.7567,123.7719 C77.7867,123.2296 77.8187,122.6866 77.8527,122.1429 C77.9207,121.0555 77.9968,119.9655 78.0813,118.8735 C78.2504,116.6895 78.4533,114.4978 78.6935,112.3041 C79.1737,107.9168 79.8024,103.5217 80.6056,99.1659 C82.212,90.4543 84.5161,81.8993 87.7253,73.8758 C94.1438,57.8288 104.1825,43.9075 119.5,35.11 C159.29,12.25 492.71,12.25 532.5,35.11 C564.84,53.685 583.0475,90.8925 593.2488,124.755 C594.5239,128.9878 595.674,133.1684 596.7109,137.2537 C596.9701,138.2751 597.2223,139.2904 597.4676,140.2992 C597.5902,140.8036 597.7111,141.3063 597.8303,141.8073 " fill="none" id="nodenull_items_search_findByItemCode_itemCode_Provider-nodeFoodTrayController" style="stroke:#181818;stroke-width:1.0;"/></g><!--link nodenull_prices_search_findByItemCode_itemCode_Provider to nodeFoodTrayController--><g id="link_nodenull_prices_search_findByItemCode_itemCode_Provider_nodeFoodTrayController"><path d="M1796.8773,165.8095 C1796.3429,164.1569 1795.78,162.4537 1795.188,160.7052 C1794.0041,157.2081 1792.704,153.5298 1791.2827,149.712 C1788.4402,142.0763 1785.1134,133.8825 1781.2638,125.465 C1765.865,91.795 1742.1,54.545 1707.5,35.11 C1656.54,6.49 706.18,6 655.5,35.11 C640.12,43.945 629.2588,57.6538 621.6361,73.412 C620.6833,75.3818 619.781,77.3836 618.9269,79.4119 C618.7134,79.919 618.5028,80.4278 618.2953,80.9381 " fill="none" id="nodenull_prices_search_findByItemCode_itemCode_Provider-nodeFoodTrayController" style="stroke:#181818;stroke-width:1.0;"/></g><!--SRC=[nLHHIyCm47xlhmZuN1zy47nqnO4WM3SdI2aXQozTPfg4IreiudytxLpPt10Y6n98mdtttNrt5sBVX38CMKsuU4y45X8Us1BaOmiecJ52LSHX0v4T7GjT6wr0kRdh992cbbUHqYMGVfjgNJuZwnAj76ef0Sb7D3B8KJZpEAs4MpLBkjQSOyS1aJb0ohs_y_uMi1K5q4D-Jh9ilVMF7JCnKsKCpCMrA51_4-sbxQo3-e8kRiNYgPXCx-1wHbEWBpTOlbPv7g82mMWhdCQEtlkWyurvDbh_MLEAtd0-KPz-ZVFkXx7JWxrX7s81zMpF7q7EKuLgfAJ24wpFox1OKIvKEHaI9nuViE6Iecv5kNcsuQmJgj_NRlgHXuiFevrGVVQthkSa9jdnRoRVYHbQrYz1lm00]--></g></svg>