<?xml version="1.0" encoding="us-ascii" standalone="no"?><svg xmlns="http://www.w3.org/2000/svg" xmlns:xlink="http://www.w3.org/1999/xlink" contentStyleType="text/css" height="125px" preserveAspectRatio="none" style="width:19507px;height:125px;background:#FFFFFF;" version="1.1" viewBox="0 0 19507 125" width="19507px" zoomAndPan="magnify"><defs/><g><!--cluster Placeholder_37--><g id="cluster_Placeholder_37"><polygon fill="none" points="8458,16,8468,6,19490,6,19490,98,19480,108,8458,108,8458,16" style="stroke:#181818;stroke-width:1.0;"/><line style="stroke:#181818;stroke-width:1.0;" x1="19480" x2="19490" y1="16" y2="6"/><line style="stroke:#181818;stroke-width:1.0;" x1="8458" x2="19480" y1="16" y2="16"/><line style="stroke:#181818;stroke-width:1.0;" x1="19480" x2="19480" y1="16" y2="108"/><text fill="#000000" font-family="sans-serif" font-size="14" font-weight="bold" lengthAdjust="spacing" textLength="120" x="13910" y="31.9951">Placeholder_37</text></g><!--entity aName--><g id="elem_aName"><a href="openmrs-openmrs-module-webservices-rest.system#_wdbkCrtpEe6cL5F2EFLWwA" target="_top" title="openmrs-openmrs-module-webservices-rest.system#_wdbkCrtpEe6cL5F2EFLWwA" xlink:actuate="onRequest" xlink:href="openmrs-openmrs-module-webservices-rest.system#_wdbkCrtpEe6cL5F2EFLWwA" xlink:show="new" xlink:title="openmrs-openmrs-module-webservices-rest.system#_wdbkCrtpEe6cL5F2EFLWwA" xlink:type="simple"><rect fill="#F1F1F1" height="46.2969" rx="2.5" ry="2.5" style="stroke:#181818;stroke-width:0.5;" width="88" x="8474" y="46"/><rect fill="#F1F1F1" height="10" style="stroke:#181818;stroke-width:0.5;" width="15" x="8542" y="51"/><rect fill="#F1F1F1" height="2" style="stroke:#181818;stroke-width:0.5;" width="4" x="8540" y="53"/><rect fill="#F1F1F1" height="2" style="stroke:#181818;stroke-width:0.5;" width="4" x="8540" y="57"/><text fill="#000000" font-family="sans-serif" font-size="14" lengthAdjust="spacing" textLength="48" x="8489" y="78.9951">aName</text></a></g><!--entity Placeholder_43--><g id="elem_Placeholder_43"><polygon fill="#F1F1F1" points="16,56,26,46,162,46,162,82.2969,152,92.2969,16,92.2969,16,56" style="stroke:#181818;stroke-width:0.5;"/><line style="stroke:#181818;stroke-width:0.5;" x1="152" x2="162" y1="56" y2="46"/><line style="stroke:#181818;stroke-width:0.5;" x1="16" x2="152" y1="56" y2="56"/><line style="stroke:#181818;stroke-width:0.5;" x1="152" x2="152" y1="56" y2="92.2969"/><text fill="#000000" font-family="sans-serif" font-size="14" lengthAdjust="spacing" textLength="106" x="31" y="78.9951">Placeholder_43</text></g><!--entity Placeholder_46--><g id="elem_Placeholder_46"><polygon fill="#F1F1F1" points="197,56,207,46,343,46,343,82.2969,333,92.2969,197,92.2969,197,56" style="stroke:#181818;stroke-width:0.5;"/><line style="stroke:#181818;stroke-width:0.5;" x1="333" x2="343" y1="56" y2="46"/><line style="stroke:#181818;stroke-width:0.5;" x1="197" x2="333" y1="56" y2="56"/><line style="stroke:#181818;stroke-width:0.5;" x1="333" x2="333" y1="56" y2="92.2969"/><text fill="#000000" font-family="sans-serif" font-size="14" lengthAdjust="spacing" textLength="106" x="212" y="78.9951">Placeholder_46</text></g><!--entity Placeholder_48--><g id="elem_Placeholder_48"><polygon fill="#F1F1F1" points="378,56,388,46,524,46,524,82.2969,514,92.2969,378,92.2969,378,56" style="stroke:#181818;stroke-width:0.5;"/><line style="stroke:#181818;stroke-width:0.5;" x1="514" x2="524" y1="56" y2="46"/><line style="stroke:#181818;stroke-width:0.5;" x1="378" x2="514" y1="56" y2="56"/><line style="stroke:#181818;stroke-width:0.5;" x1="514" x2="514" y1="56" y2="92.2969"/><text fill="#000000" font-family="sans-serif" font-size="14" lengthAdjust="spacing" textLength="106" x="393" y="78.9951">Placeholder_48</text></g><!--entity Placeholder_45--><g id="elem_Placeholder_45"><polygon fill="#F1F1F1" points="559,56,569,46,705,46,705,82.2969,695,92.2969,559,92.2969,559,56" style="stroke:#181818;stroke-width:0.5;"/><line style="stroke:#181818;stroke-width:0.5;" x1="695" x2="705" y1="56" y2="46"/><line style="stroke:#181818;stroke-width:0.5;" x1="559" x2="695" y1="56" y2="56"/><line style="stroke:#181818;stroke-width:0.5;" x1="695" x2="695" y1="56" y2="92.2969"/><text fill="#000000" font-family="sans-serif" font-size="14" lengthAdjust="spacing" textLength="106" x="574" y="78.9951">Placeholder_45</text></g><!--entity Placeholder_54--><g id="elem_Placeholder_54"><polygon fill="#F1F1F1" points="740,56,750,46,886,46,886,82.2969,876,92.2969,740,92.2969,740,56" style="stroke:#181818;stroke-width:0.5;"/><line style="stroke:#181818;stroke-width:0.5;" x1="876" x2="886" y1="56" y2="46"/><line style="stroke:#181818;stroke-width:0.5;" x1="740" x2="876" y1="56" y2="56"/><line style="stroke:#181818;stroke-width:0.5;" x1="876" x2="876" y1="56" y2="92.2969"/><text fill="#000000" font-family="sans-serif" font-size="14" lengthAdjust="spacing" textLength="106" x="755" y="78.9951">Placeholder_54</text></g><!--entity Placeholder_35--><g id="elem_Placeholder_35"><polygon fill="#F1F1F1" points="921,56,931,46,1067,46,1067,82.2969,1057,92.2969,921,92.2969,921,56" style="stroke:#181818;stroke-width:0.5;"/><line style="stroke:#181818;stroke-width:0.5;" x1="1057" x2="1067" y1="56" y2="46"/><line style="stroke:#181818;stroke-width:0.5;" x1="921" x2="1057" y1="56" y2="56"/><line style="stroke:#181818;stroke-width:0.5;" x1="1057" x2="1057" y1="56" y2="92.2969"/><text fill="#000000" font-family="sans-serif" font-size="14" lengthAdjust="spacing" textLength="106" x="936" y="78.9951">Placeholder_35</text></g><!--entity Placeholder_30--><g id="elem_Placeholder_30"><polygon fill="#F1F1F1" points="1102,56,1112,46,1248,46,1248,82.2969,1238,92.2969,1102,92.2969,1102,56" style="stroke:#181818;stroke-width:0.5;"/><line style="stroke:#181818;stroke-width:0.5;" x1="1238" x2="1248" y1="56" y2="46"/><line style="stroke:#181818;stroke-width:0.5;" x1="1102" x2="1238" y1="56" y2="56"/><line style="stroke:#181818;stroke-width:0.5;" x1="1238" x2="1238" y1="56" y2="92.2969"/><text fill="#000000" font-family="sans-serif" font-size="14" lengthAdjust="spacing" textLength="106" x="1117" y="78.9951">Placeholder_30</text></g><!--entity Placeholder_7--><g id="elem_Placeholder_7"><polygon fill="#F1F1F1" points="1283.5,56,1293.5,46,1420.5,46,1420.5,82.2969,1410.5,92.2969,1283.5,92.2969,1283.5,56" style="stroke:#181818;stroke-width:0.5;"/><line style="stroke:#181818;stroke-width:0.5;" x1="1410.5" x2="1420.5" y1="56" y2="46"/><line style="stroke:#181818;stroke-width:0.5;" x1="1283.5" x2="1410.5" y1="56" y2="56"/><line style="stroke:#181818;stroke-width:0.5;" x1="1410.5" x2="1410.5" y1="56" y2="92.2969"/><text fill="#000000" font-family="sans-serif" font-size="14" lengthAdjust="spacing" textLength="97" x="1298.5" y="78.9951">Placeholder_7</text></g><!--entity Placeholder_29--><g id="elem_Placeholder_29"><polygon fill="#F1F1F1" points="1456,56,1466,46,1602,46,1602,82.2969,1592,92.2969,1456,92.2969,1456,56" style="stroke:#181818;stroke-width:0.5;"/><line style="stroke:#181818;stroke-width:0.5;" x1="1592" x2="1602" y1="56" y2="46"/><line style="stroke:#181818;stroke-width:0.5;" x1="1456" x2="1592" y1="56" y2="56"/><line style="stroke:#181818;stroke-width:0.5;" x1="1592" x2="1592" y1="56" y2="92.2969"/><text fill="#000000" font-family="sans-serif" font-size="14" lengthAdjust="spacing" textLength="106" x="1471" y="78.9951">Placeholder_29</text></g><!--entity Placeholder_23--><g id="elem_Placeholder_23"><polygon fill="#F1F1F1" points="1637,56,1647,46,1783,46,1783,82.2969,1773,92.2969,1637,92.2969,1637,56" style="stroke:#181818;stroke-width:0.5;"/><line style="stroke:#181818;stroke-width:0.5;" x1="1773" x2="1783" y1="56" y2="46"/><line style="stroke:#181818;stroke-width:0.5;" x1="1637" x2="1773" y1="56" y2="56"/><line style="stroke:#181818;stroke-width:0.5;" x1="1773" x2="1773" y1="56" y2="92.2969"/><text fill="#000000" font-family="sans-serif" font-size="14" lengthAdjust="spacing" textLength="106" x="1652" y="78.9951">Placeholder_23</text></g><!--entity Placeholder_50--><g id="elem_Placeholder_50"><polygon fill="#F1F1F1" points="1818,56,1828,46,1964,46,1964,82.2969,1954,92.2969,1818,92.2969,1818,56" style="stroke:#181818;stroke-width:0.5;"/><line style="stroke:#181818;stroke-width:0.5;" x1="1954" x2="1964" y1="56" y2="46"/><line style="stroke:#181818;stroke-width:0.5;" x1="1818" x2="1954" y1="56" y2="56"/><line style="stroke:#181818;stroke-width:0.5;" x1="1954" x2="1954" y1="56" y2="92.2969"/><text fill="#000000" font-family="sans-serif" font-size="14" lengthAdjust="spacing" textLength="106" x="1833" y="78.9951">Placeholder_50</text></g><!--entity Placeholder_28--><g id="elem_Placeholder_28"><polygon fill="#F1F1F1" points="1999,56,2009,46,2145,46,2145,82.2969,2135,92.2969,1999,92.2969,1999,56" style="stroke:#181818;stroke-width:0.5;"/><line style="stroke:#181818;stroke-width:0.5;" x1="2135" x2="2145" y1="56" y2="46"/><line style="stroke:#181818;stroke-width:0.5;" x1="1999" x2="2135" y1="56" y2="56"/><line style="stroke:#181818;stroke-width:0.5;" x1="2135" x2="2135" y1="56" y2="92.2969"/><text fill="#000000" font-family="sans-serif" font-size="14" lengthAdjust="spacing" textLength="106" x="2014" y="78.9951">Placeholder_28</text></g><!--entity Placeholder_78--><g id="elem_Placeholder_78"><polygon fill="#F1F1F1" points="2180,56,2190,46,2326,46,2326,82.2969,2316,92.2969,2180,92.2969,2180,56" style="stroke:#181818;stroke-width:0.5;"/><line style="stroke:#181818;stroke-width:0.5;" x1="2316" x2="2326" y1="56" y2="46"/><line style="stroke:#181818;stroke-width:0.5;" x1="2180" x2="2316" y1="56" y2="56"/><line style="stroke:#181818;stroke-width:0.5;" x1="2316" x2="2316" y1="56" y2="92.2969"/><text fill="#000000" font-family="sans-serif" font-size="14" lengthAdjust="spacing" textLength="106" x="2195" y="78.9951">Placeholder_78</text></g><!--entity Placeholder_77--><g id="elem_Placeholder_77"><polygon fill="#F1F1F1" points="2361,56,2371,46,2507,46,2507,82.2969,2497,92.2969,2361,92.2969,2361,56" style="stroke:#181818;stroke-width:0.5;"/><line style="stroke:#181818;stroke-width:0.5;" x1="2497" x2="2507" y1="56" y2="46"/><line style="stroke:#181818;stroke-width:0.5;" x1="2361" x2="2497" y1="56" y2="56"/><line style="stroke:#181818;stroke-width:0.5;" x1="2497" x2="2497" y1="56" y2="92.2969"/><text fill="#000000" font-family="sans-serif" font-size="14" lengthAdjust="spacing" textLength="106" x="2376" y="78.9951">Placeholder_77</text></g><!--entity Placeholder_18--><g id="elem_Placeholder_18"><polygon fill="#F1F1F1" points="2542,56,2552,46,2688,46,2688,82.2969,2678,92.2969,2542,92.2969,2542,56" style="stroke:#181818;stroke-width:0.5;"/><line style="stroke:#181818;stroke-width:0.5;" x1="2678" x2="2688" y1="56" y2="46"/><line style="stroke:#181818;stroke-width:0.5;" x1="2542" x2="2678" y1="56" y2="56"/><line style="stroke:#181818;stroke-width:0.5;" x1="2678" x2="2678" y1="56" y2="92.2969"/><text fill="#000000" font-family="sans-serif" font-size="14" lengthAdjust="spacing" textLength="106" x="2557" y="78.9951">Placeholder_18</text></g><!--entity Placeholder_38--><g id="elem_Placeholder_38"><polygon fill="#F1F1F1" points="2723,56,2733,46,2869,46,2869,82.2969,2859,92.2969,2723,92.2969,2723,56" style="stroke:#181818;stroke-width:0.5;"/><line style="stroke:#181818;stroke-width:0.5;" x1="2859" x2="2869" y1="56" y2="46"/><line style="stroke:#181818;stroke-width:0.5;" x1="2723" x2="2859" y1="56" y2="56"/><line style="stroke:#181818;stroke-width:0.5;" x1="2859" x2="2859" y1="56" y2="92.2969"/><text fill="#000000" font-family="sans-serif" font-size="14" lengthAdjust="spacing" textLength="106" x="2738" y="78.9951">Placeholder_38</text></g><!--entity Placeholder_61--><g id="elem_Placeholder_61"><polygon fill="#F1F1F1" points="2904,56,2914,46,3050,46,3050,82.2969,3040,92.2969,2904,92.2969,2904,56" style="stroke:#181818;stroke-width:0.5;"/><line style="stroke:#181818;stroke-width:0.5;" x1="3040" x2="3050" y1="56" y2="46"/><line style="stroke:#181818;stroke-width:0.5;" x1="2904" x2="3040" y1="56" y2="56"/><line style="stroke:#181818;stroke-width:0.5;" x1="3040" x2="3040" y1="56" y2="92.2969"/><text fill="#000000" font-family="sans-serif" font-size="14" lengthAdjust="spacing" textLength="106" x="2919" y="78.9951">Placeholder_61</text></g><!--entity Placeholder_19--><g id="elem_Placeholder_19"><polygon fill="#F1F1F1" points="3085,56,3095,46,3231,46,3231,82.2969,3221,92.2969,3085,92.2969,3085,56" style="stroke:#181818;stroke-width:0.5;"/><line style="stroke:#181818;stroke-width:0.5;" x1="3221" x2="3231" y1="56" y2="46"/><line style="stroke:#181818;stroke-width:0.5;" x1="3085" x2="3221" y1="56" y2="56"/><line style="stroke:#181818;stroke-width:0.5;" x1="3221" x2="3221" y1="56" y2="92.2969"/><text fill="#000000" font-family="sans-serif" font-size="14" lengthAdjust="spacing" textLength="106" x="3100" y="78.9951">Placeholder_19</text></g><!--entity Placeholder_24--><g id="elem_Placeholder_24"><polygon fill="#F1F1F1" points="3266,56,3276,46,3412,46,3412,82.2969,3402,92.2969,3266,92.2969,3266,56" style="stroke:#181818;stroke-width:0.5;"/><line style="stroke:#181818;stroke-width:0.5;" x1="3402" x2="3412" y1="56" y2="46"/><line style="stroke:#181818;stroke-width:0.5;" x1="3266" x2="3402" y1="56" y2="56"/><line style="stroke:#181818;stroke-width:0.5;" x1="3402" x2="3402" y1="56" y2="92.2969"/><text fill="#000000" font-family="sans-serif" font-size="14" lengthAdjust="spacing" textLength="106" x="3281" y="78.9951">Placeholder_24</text></g><!--entity Placeholder_44--><g id="elem_Placeholder_44"><polygon fill="#F1F1F1" points="3447,56,3457,46,3593,46,3593,82.2969,3583,92.2969,3447,92.2969,3447,56" style="stroke:#181818;stroke-width:0.5;"/><line style="stroke:#181818;stroke-width:0.5;" x1="3583" x2="3593" y1="56" y2="46"/><line style="stroke:#181818;stroke-width:0.5;" x1="3447" x2="3583" y1="56" y2="56"/><line style="stroke:#181818;stroke-width:0.5;" x1="3583" x2="3583" y1="56" y2="92.2969"/><text fill="#000000" font-family="sans-serif" font-size="14" lengthAdjust="spacing" textLength="106" x="3462" y="78.9951">Placeholder_44</text></g><!--entity Placeholder_26--><g id="elem_Placeholder_26"><polygon fill="#F1F1F1" points="3628,56,3638,46,3774,46,3774,82.2969,3764,92.2969,3628,92.2969,3628,56" style="stroke:#181818;stroke-width:0.5;"/><line style="stroke:#181818;stroke-width:0.5;" x1="3764" x2="3774" y1="56" y2="46"/><line style="stroke:#181818;stroke-width:0.5;" x1="3628" x2="3764" y1="56" y2="56"/><line style="stroke:#181818;stroke-width:0.5;" x1="3764" x2="3764" y1="56" y2="92.2969"/><text fill="#000000" font-family="sans-serif" font-size="14" lengthAdjust="spacing" textLength="106" x="3643" y="78.9951">Placeholder_26</text></g><!--entity Placeholder_41--><g id="elem_Placeholder_41"><polygon fill="#F1F1F1" points="3809,56,3819,46,3955,46,3955,82.2969,3945,92.2969,3809,92.2969,3809,56" style="stroke:#181818;stroke-width:0.5;"/><line style="stroke:#181818;stroke-width:0.5;" x1="3945" x2="3955" y1="56" y2="46"/><line style="stroke:#181818;stroke-width:0.5;" x1="3809" x2="3945" y1="56" y2="56"/><line style="stroke:#181818;stroke-width:0.5;" x1="3945" x2="3945" y1="56" y2="92.2969"/><text fill="#000000" font-family="sans-serif" font-size="14" lengthAdjust="spacing" textLength="106" x="3824" y="78.9951">Placeholder_41</text></g><!--entity Placeholder_0--><g id="elem_Placeholder_0"><polygon fill="#F1F1F1" points="3990.5,56,4000.5,46,4127.5,46,4127.5,82.2969,4117.5,92.2969,3990.5,92.2969,3990.5,56" style="stroke:#181818;stroke-width:0.5;"/><line style="stroke:#181818;stroke-width:0.5;" x1="4117.5" x2="4127.5" y1="56" y2="46"/><line style="stroke:#181818;stroke-width:0.5;" x1="3990.5" x2="4117.5" y1="56" y2="56"/><line style="stroke:#181818;stroke-width:0.5;" x1="4117.5" x2="4117.5" y1="56" y2="92.2969"/><text fill="#000000" font-family="sans-serif" font-size="14" lengthAdjust="spacing" textLength="97" x="4005.5" y="78.9951">Placeholder_0</text></g><!--entity Placeholder_49--><g id="elem_Placeholder_49"><polygon fill="#F1F1F1" points="4163,56,4173,46,4309,46,4309,82.2969,4299,92.2969,4163,92.2969,4163,56" style="stroke:#181818;stroke-width:0.5;"/><line style="stroke:#181818;stroke-width:0.5;" x1="4299" x2="4309" y1="56" y2="46"/><line style="stroke:#181818;stroke-width:0.5;" x1="4163" x2="4299" y1="56" y2="56"/><line style="stroke:#181818;stroke-width:0.5;" x1="4299" x2="4299" y1="56" y2="92.2969"/><text fill="#000000" font-family="sans-serif" font-size="14" lengthAdjust="spacing" textLength="106" x="4178" y="78.9951">Placeholder_49</text></g><!--entity Placeholder_32--><g id="elem_Placeholder_32"><polygon fill="#F1F1F1" points="4344,56,4354,46,4490,46,4490,82.2969,4480,92.2969,4344,92.2969,4344,56" style="stroke:#181818;stroke-width:0.5;"/><line style="stroke:#181818;stroke-width:0.5;" x1="4480" x2="4490" y1="56" y2="46"/><line style="stroke:#181818;stroke-width:0.5;" x1="4344" x2="4480" y1="56" y2="56"/><line style="stroke:#181818;stroke-width:0.5;" x1="4480" x2="4480" y1="56" y2="92.2969"/><text fill="#000000" font-family="sans-serif" font-size="14" lengthAdjust="spacing" textLength="106" x="4359" y="78.9951">Placeholder_32</text></g><!--entity Placeholder_40--><g id="elem_Placeholder_40"><polygon fill="#F1F1F1" points="4525,56,4535,46,4671,46,4671,82.2969,4661,92.2969,4525,92.2969,4525,56" style="stroke:#181818;stroke-width:0.5;"/><line style="stroke:#181818;stroke-width:0.5;" x1="4661" x2="4671" y1="56" y2="46"/><line style="stroke:#181818;stroke-width:0.5;" x1="4525" x2="4661" y1="56" y2="56"/><line style="stroke:#181818;stroke-width:0.5;" x1="4661" x2="4661" y1="56" y2="92.2969"/><text fill="#000000" font-family="sans-serif" font-size="14" lengthAdjust="spacing" textLength="106" x="4540" y="78.9951">Placeholder_40</text></g><!--entity Placeholder_17--><g id="elem_Placeholder_17"><polygon fill="#F1F1F1" points="4706,56,4716,46,4852,46,4852,82.2969,4842,92.2969,4706,92.2969,4706,56" style="stroke:#181818;stroke-width:0.5;"/><line style="stroke:#181818;stroke-width:0.5;" x1="4842" x2="4852" y1="56" y2="46"/><line style="stroke:#181818;stroke-width:0.5;" x1="4706" x2="4842" y1="56" y2="56"/><line style="stroke:#181818;stroke-width:0.5;" x1="4842" x2="4842" y1="56" y2="92.2969"/><text fill="#000000" font-family="sans-serif" font-size="14" lengthAdjust="spacing" textLength="106" x="4721" y="78.9951">Placeholder_17</text></g><!--entity Placeholder_76--><g id="elem_Placeholder_76"><polygon fill="#F1F1F1" points="4887,56,4897,46,5033,46,5033,82.2969,5023,92.2969,4887,92.2969,4887,56" style="stroke:#181818;stroke-width:0.5;"/><line style="stroke:#181818;stroke-width:0.5;" x1="5023" x2="5033" y1="56" y2="46"/><line style="stroke:#181818;stroke-width:0.5;" x1="4887" x2="5023" y1="56" y2="56"/><line style="stroke:#181818;stroke-width:0.5;" x1="5023" x2="5023" y1="56" y2="92.2969"/><text fill="#000000" font-family="sans-serif" font-size="14" lengthAdjust="spacing" textLength="106" x="4902" y="78.9951">Placeholder_76</text></g><!--entity Placeholder_74--><g id="elem_Placeholder_74"><polygon fill="#F1F1F1" points="5068,56,5078,46,5214,46,5214,82.2969,5204,92.2969,5068,92.2969,5068,56" style="stroke:#181818;stroke-width:0.5;"/><line style="stroke:#181818;stroke-width:0.5;" x1="5204" x2="5214" y1="56" y2="46"/><line style="stroke:#181818;stroke-width:0.5;" x1="5068" x2="5204" y1="56" y2="56"/><line style="stroke:#181818;stroke-width:0.5;" x1="5204" x2="5204" y1="56" y2="92.2969"/><text fill="#000000" font-family="sans-serif" font-size="14" lengthAdjust="spacing" textLength="106" x="5083" y="78.9951">Placeholder_74</text></g><!--entity Placeholder_2--><g id="elem_Placeholder_2"><polygon fill="#F1F1F1" points="5249.5,56,5259.5,46,5386.5,46,5386.5,82.2969,5376.5,92.2969,5249.5,92.2969,5249.5,56" style="stroke:#181818;stroke-width:0.5;"/><line style="stroke:#181818;stroke-width:0.5;" x1="5376.5" x2="5386.5" y1="56" y2="46"/><line style="stroke:#181818;stroke-width:0.5;" x1="5249.5" x2="5376.5" y1="56" y2="56"/><line style="stroke:#181818;stroke-width:0.5;" x1="5376.5" x2="5376.5" y1="56" y2="92.2969"/><text fill="#000000" font-family="sans-serif" font-size="14" lengthAdjust="spacing" textLength="97" x="5264.5" y="78.9951">Placeholder_2</text></g><!--entity Placeholder_69--><g id="elem_Placeholder_69"><polygon fill="#F1F1F1" points="5422,56,5432,46,5568,46,5568,82.2969,5558,92.2969,5422,92.2969,5422,56" style="stroke:#181818;stroke-width:0.5;"/><line style="stroke:#181818;stroke-width:0.5;" x1="5558" x2="5568" y1="56" y2="46"/><line style="stroke:#181818;stroke-width:0.5;" x1="5422" x2="5558" y1="56" y2="56"/><line style="stroke:#181818;stroke-width:0.5;" x1="5558" x2="5558" y1="56" y2="92.2969"/><text fill="#000000" font-family="sans-serif" font-size="14" lengthAdjust="spacing" textLength="106" x="5437" y="78.9951">Placeholder_69</text></g><!--entity Placeholder_1--><g id="elem_Placeholder_1"><polygon fill="#F1F1F1" points="5603.5,56,5613.5,46,5740.5,46,5740.5,82.2969,5730.5,92.2969,5603.5,92.2969,5603.5,56" style="stroke:#181818;stroke-width:0.5;"/><line style="stroke:#181818;stroke-width:0.5;" x1="5730.5" x2="5740.5" y1="56" y2="46"/><line style="stroke:#181818;stroke-width:0.5;" x1="5603.5" x2="5730.5" y1="56" y2="56"/><line style="stroke:#181818;stroke-width:0.5;" x1="5730.5" x2="5730.5" y1="56" y2="92.2969"/><text fill="#000000" font-family="sans-serif" font-size="14" lengthAdjust="spacing" textLength="97" x="5618.5" y="78.9951">Placeholder_1</text></g><!--entity Placeholder_25--><g id="elem_Placeholder_25"><polygon fill="#F1F1F1" points="5776,56,5786,46,5922,46,5922,82.2969,5912,92.2969,5776,92.2969,5776,56" style="stroke:#181818;stroke-width:0.5;"/><line style="stroke:#181818;stroke-width:0.5;" x1="5912" x2="5922" y1="56" y2="46"/><line style="stroke:#181818;stroke-width:0.5;" x1="5776" x2="5912" y1="56" y2="56"/><line style="stroke:#181818;stroke-width:0.5;" x1="5912" x2="5912" y1="56" y2="92.2969"/><text fill="#000000" font-family="sans-serif" font-size="14" lengthAdjust="spacing" textLength="106" x="5791" y="78.9951">Placeholder_25</text></g><!--entity Placeholder_64--><g id="elem_Placeholder_64"><polygon fill="#F1F1F1" points="5957,56,5967,46,6103,46,6103,82.2969,6093,92.2969,5957,92.2969,5957,56" style="stroke:#181818;stroke-width:0.5;"/><line style="stroke:#181818;stroke-width:0.5;" x1="6093" x2="6103" y1="56" y2="46"/><line style="stroke:#181818;stroke-width:0.5;" x1="5957" x2="6093" y1="56" y2="56"/><line style="stroke:#181818;stroke-width:0.5;" x1="6093" x2="6093" y1="56" y2="92.2969"/><text fill="#000000" font-family="sans-serif" font-size="14" lengthAdjust="spacing" textLength="106" x="5972" y="78.9951">Placeholder_64</text></g><!--entity Placeholder_3--><g id="elem_Placeholder_3"><polygon fill="#F1F1F1" points="6138.5,56,6148.5,46,6275.5,46,6275.5,82.2969,6265.5,92.2969,6138.5,92.2969,6138.5,56" style="stroke:#181818;stroke-width:0.5;"/><line style="stroke:#181818;stroke-width:0.5;" x1="6265.5" x2="6275.5" y1="56" y2="46"/><line style="stroke:#181818;stroke-width:0.5;" x1="6138.5" x2="6265.5" y1="56" y2="56"/><line style="stroke:#181818;stroke-width:0.5;" x1="6265.5" x2="6265.5" y1="56" y2="92.2969"/><text fill="#000000" font-family="sans-serif" font-size="14" lengthAdjust="spacing" textLength="97" x="6153.5" y="78.9951">Placeholder_3</text></g><!--entity Placeholder_9--><g id="elem_Placeholder_9"><polygon fill="#F1F1F1" points="6310.5,56,6320.5,46,6447.5,46,6447.5,82.2969,6437.5,92.2969,6310.5,92.2969,6310.5,56" style="stroke:#181818;stroke-width:0.5;"/><line style="stroke:#181818;stroke-width:0.5;" x1="6437.5" x2="6447.5" y1="56" y2="46"/><line style="stroke:#181818;stroke-width:0.5;" x1="6310.5" x2="6437.5" y1="56" y2="56"/><line style="stroke:#181818;stroke-width:0.5;" x1="6437.5" x2="6437.5" y1="56" y2="92.2969"/><text fill="#000000" font-family="sans-serif" font-size="14" lengthAdjust="spacing" textLength="97" x="6325.5" y="78.9951">Placeholder_9</text></g><!--entity Placeholder_11--><g id="elem_Placeholder_11"><polygon fill="#F1F1F1" points="6483,56,6493,46,6629,46,6629,82.2969,6619,92.2969,6483,92.2969,6483,56" style="stroke:#181818;stroke-width:0.5;"/><line style="stroke:#181818;stroke-width:0.5;" x1="6619" x2="6629" y1="56" y2="46"/><line style="stroke:#181818;stroke-width:0.5;" x1="6483" x2="6619" y1="56" y2="56"/><line style="stroke:#181818;stroke-width:0.5;" x1="6619" x2="6619" y1="56" y2="92.2969"/><text fill="#000000" font-family="sans-serif" font-size="14" lengthAdjust="spacing" textLength="106" x="6498" y="78.9951">Placeholder_11</text></g><!--entity Placeholder_22--><g id="elem_Placeholder_22"><polygon fill="#F1F1F1" points="6664,56,6674,46,6810,46,6810,82.2969,6800,92.2969,6664,92.2969,6664,56" style="stroke:#181818;stroke-width:0.5;"/><line style="stroke:#181818;stroke-width:0.5;" x1="6800" x2="6810" y1="56" y2="46"/><line style="stroke:#181818;stroke-width:0.5;" x1="6664" x2="6800" y1="56" y2="56"/><line style="stroke:#181818;stroke-width:0.5;" x1="6800" x2="6800" y1="56" y2="92.2969"/><text fill="#000000" font-family="sans-serif" font-size="14" lengthAdjust="spacing" textLength="106" x="6679" y="78.9951">Placeholder_22</text></g><!--entity Placeholder_51--><g id="elem_Placeholder_51"><polygon fill="#F1F1F1" points="6845,56,6855,46,6991,46,6991,82.2969,6981,92.2969,6845,92.2969,6845,56" style="stroke:#181818;stroke-width:0.5;"/><line style="stroke:#181818;stroke-width:0.5;" x1="6981" x2="6991" y1="56" y2="46"/><line style="stroke:#181818;stroke-width:0.5;" x1="6845" x2="6981" y1="56" y2="56"/><line style="stroke:#181818;stroke-width:0.5;" x1="6981" x2="6981" y1="56" y2="92.2969"/><text fill="#000000" font-family="sans-serif" font-size="14" lengthAdjust="spacing" textLength="106" x="6860" y="78.9951">Placeholder_51</text></g><!--entity Placeholder_15--><g id="elem_Placeholder_15"><polygon fill="#F1F1F1" points="7026,56,7036,46,7172,46,7172,82.2969,7162,92.2969,7026,92.2969,7026,56" style="stroke:#181818;stroke-width:0.5;"/><line style="stroke:#181818;stroke-width:0.5;" x1="7162" x2="7172" y1="56" y2="46"/><line style="stroke:#181818;stroke-width:0.5;" x1="7026" x2="7162" y1="56" y2="56"/><line style="stroke:#181818;stroke-width:0.5;" x1="7162" x2="7162" y1="56" y2="92.2969"/><text fill="#000000" font-family="sans-serif" font-size="14" lengthAdjust="spacing" textLength="106" x="7041" y="78.9951">Placeholder_15</text></g><!--entity Placeholder_16--><g id="elem_Placeholder_16"><polygon fill="#F1F1F1" points="7207,56,7217,46,7353,46,7353,82.2969,7343,92.2969,7207,92.2969,7207,56" style="stroke:#181818;stroke-width:0.5;"/><line style="stroke:#181818;stroke-width:0.5;" x1="7343" x2="7353" y1="56" y2="46"/><line style="stroke:#181818;stroke-width:0.5;" x1="7207" x2="7343" y1="56" y2="56"/><line style="stroke:#181818;stroke-width:0.5;" x1="7343" x2="7343" y1="56" y2="92.2969"/><text fill="#000000" font-family="sans-serif" font-size="14" lengthAdjust="spacing" textLength="106" x="7222" y="78.9951">Placeholder_16</text></g><!--entity Placeholder_20--><g id="elem_Placeholder_20"><polygon fill="#F1F1F1" points="7388,56,7398,46,7534,46,7534,82.2969,7524,92.2969,7388,92.2969,7388,56" style="stroke:#181818;stroke-width:0.5;"/><line style="stroke:#181818;stroke-width:0.5;" x1="7524" x2="7534" y1="56" y2="46"/><line style="stroke:#181818;stroke-width:0.5;" x1="7388" x2="7524" y1="56" y2="56"/><line style="stroke:#181818;stroke-width:0.5;" x1="7524" x2="7524" y1="56" y2="92.2969"/><text fill="#000000" font-family="sans-serif" font-size="14" lengthAdjust="spacing" textLength="106" x="7403" y="78.9951">Placeholder_20</text></g><!--entity Placeholder_39--><g id="elem_Placeholder_39"><polygon fill="#F1F1F1" points="7569,56,7579,46,7715,46,7715,82.2969,7705,92.2969,7569,92.2969,7569,56" style="stroke:#181818;stroke-width:0.5;"/><line style="stroke:#181818;stroke-width:0.5;" x1="7705" x2="7715" y1="56" y2="46"/><line style="stroke:#181818;stroke-width:0.5;" x1="7569" x2="7705" y1="56" y2="56"/><line style="stroke:#181818;stroke-width:0.5;" x1="7705" x2="7705" y1="56" y2="92.2969"/><text fill="#000000" font-family="sans-serif" font-size="14" lengthAdjust="spacing" textLength="106" x="7584" y="78.9951">Placeholder_39</text></g><!--entity Placeholder_36--><g id="elem_Placeholder_36"><polygon fill="#F1F1F1" points="7750,56,7760,46,7896,46,7896,82.2969,7886,92.2969,7750,92.2969,7750,56" style="stroke:#181818;stroke-width:0.5;"/><line style="stroke:#181818;stroke-width:0.5;" x1="7886" x2="7896" y1="56" y2="46"/><line style="stroke:#181818;stroke-width:0.5;" x1="7750" x2="7886" y1="56" y2="56"/><line style="stroke:#181818;stroke-width:0.5;" x1="7886" x2="7886" y1="56" y2="92.2969"/><text fill="#000000" font-family="sans-serif" font-size="14" lengthAdjust="spacing" textLength="106" x="7765" y="78.9951">Placeholder_36</text></g><!--entity Placeholder_34--><g id="elem_Placeholder_34"><polygon fill="#F1F1F1" points="7931,56,7941,46,8077,46,8077,82.2969,8067,92.2969,7931,92.2969,7931,56" style="stroke:#181818;stroke-width:0.5;"/><line style="stroke:#181818;stroke-width:0.5;" x1="8067" x2="8077" y1="56" y2="46"/><line style="stroke:#181818;stroke-width:0.5;" x1="7931" x2="8067" y1="56" y2="56"/><line style="stroke:#181818;stroke-width:0.5;" x1="8067" x2="8067" y1="56" y2="92.2969"/><text fill="#000000" font-family="sans-serif" font-size="14" lengthAdjust="spacing" textLength="106" x="7946" y="78.9951">Placeholder_34</text></g><!--entity Placeholder_12--><g id="elem_Placeholder_12"><polygon fill="#F1F1F1" points="8112,56,8122,46,8258,46,8258,82.2969,8248,92.2969,8112,92.2969,8112,56" style="stroke:#181818;stroke-width:0.5;"/><line style="stroke:#181818;stroke-width:0.5;" x1="8248" x2="8258" y1="56" y2="46"/><line style="stroke:#181818;stroke-width:0.5;" x1="8112" x2="8248" y1="56" y2="56"/><line style="stroke:#181818;stroke-width:0.5;" x1="8248" x2="8248" y1="56" y2="92.2969"/><text fill="#000000" font-family="sans-serif" font-size="14" lengthAdjust="spacing" textLength="106" x="8127" y="78.9951">Placeholder_12</text></g><!--entity Placeholder_14--><g id="elem_Placeholder_14"><polygon fill="#F1F1F1" points="8293,56,8303,46,8439,46,8439,82.2969,8429,92.2969,8293,92.2969,8293,56" style="stroke:#181818;stroke-width:0.5;"/><line style="stroke:#181818;stroke-width:0.5;" x1="8429" x2="8439" y1="56" y2="46"/><line style="stroke:#181818;stroke-width:0.5;" x1="8293" x2="8429" y1="56" y2="56"/><line style="stroke:#181818;stroke-width:0.5;" x1="8429" x2="8429" y1="56" y2="92.2969"/><text fill="#000000" font-family="sans-serif" font-size="14" lengthAdjust="spacing" textLength="106" x="8308" y="78.9951">Placeholder_14</text></g><!--link aName to aName--><g id="link_aName_aName"><path d="M8562.27,67.52 C8581.02,67.4 8597,67.9 8597,69 C8597,70.1 8581.02,70.6 8562.27,70.48 " fill="none" id="aName-aName" style="stroke:#181818;stroke-width:1.0;"/><text fill="#000000" font-family="sans-serif" font-size="13" lengthAdjust="spacing" textLength="452" x="8610" y="73.5669">org_openmrs_module_webservices_rest_web_api_RestService Provider</text><path d="M8555.1538,60.4943 A10,10 0 0 0 8555.2443 74.6362" fill="none" style="stroke:#181818;stroke-width:1.5;"/><ellipse cx="8562.27" cy="67.52" fill="#FFFFFF" rx="6" ry="6" style="stroke:#181818;stroke-width:1.5;"/></g><!--link aName to aName--><g id="link_aName_aName"><path d="M8562.06,67.51 C8696.05,65.08 9075,65.58 9075,69 C9075,72.42 8696.05,72.92 8562.06,70.49 " fill="none" id="aName-aName-1" style="stroke:#181818;stroke-width:1.0;"/><text fill="#000000" font-family="sans-serif" font-size="13" lengthAdjust="spacing" textLength="606" x="9088" y="73.5669">org_openmrs_module_webservices_rest_web_v1_0_controller_MainResourceController Provider</text><path d="M8554.8619,60.5683 A10,10 0 0 0 8555.1183 74.7081" fill="none" style="stroke:#181818;stroke-width:1.5;"/><ellipse cx="8562.06" cy="67.51" fill="#FFFFFF" rx="6" ry="6" style="stroke:#181818;stroke-width:1.5;"/></g><!--link aName to aName--><g id="link_aName_aName"><path d="M8562,67.41 C8780.33,63.06 9707,63.59 9707,69 C9707,74.41 8780.33,74.94 8562,70.59 " fill="none" id="aName-aName-2" style="stroke:#181818;stroke-width:1.0;"/><text fill="#000000" font-family="sans-serif" font-size="13" lengthAdjust="spacing" textLength="452" x="9720" y="73.5669">org_openmrs_module_webservices_rest_web_api_RestService Provider</text><path d="M8554.7895,60.4812 A10,10 0 0 0 8555.0712 74.6205" fill="none" style="stroke:#181818;stroke-width:1.5;"/><ellipse cx="8562" cy="67.41" fill="#FFFFFF" rx="6" ry="6" style="stroke:#181818;stroke-width:1.5;"/></g><!--link aName to aName--><g id="link_aName_aName"><path d="M8562.1,67.2 C8830.52,61.05 10185,61.65 10185,69 C10185,76.35 8830.52,76.95 8562.1,70.8 " fill="none" id="aName-aName-3" style="stroke:#181818;stroke-width:1.0;"/><text fill="#000000" font-family="sans-serif" font-size="13" lengthAdjust="spacing" textLength="452" x="10198" y="73.5669">org_openmrs_module_webservices_rest_web_api_RestService Provider</text><path d="M8554.8688,60.2928 A10,10 0 0 0 8555.1928 74.4312" fill="none" style="stroke:#181818;stroke-width:1.5;"/><ellipse cx="8562.1" cy="67.2" fill="#FFFFFF" rx="6" ry="6" style="stroke:#181818;stroke-width:1.5;"/></g><!--link aName to aName--><g id="link_aName_aName"><path d="M8562.12,67.03 C8874.01,59.05 10663,59.71 10663,69 C10663,78.29 8874.01,78.95 8562.12,70.97 " fill="none" id="aName-aName-4" style="stroke:#181818;stroke-width:1.0;"/><text fill="#000000" font-family="sans-serif" font-size="13" lengthAdjust="spacing" textLength="543" x="10676" y="73.5669">org_openmrs_module_webservices_rest_web_v1_0_controller_BaseUriSetup Provider</text><path d="M8554.8704,60.1421 A10,10 0 0 0 8555.2321 74.2796" fill="none" style="stroke:#181818;stroke-width:1.5;"/><ellipse cx="8562.12" cy="67.03" fill="#FFFFFF" rx="6" ry="6" style="stroke:#181818;stroke-width:1.5;"/></g><!--link aName to aName--><g id="link_aName_aName"><path d="M8562.15,66.9 C8919.86,57.05 11232,57.75 11232,69 C11232,80.25 8919.86,80.95 8562.15,71.1 " fill="none" id="aName-aName-5" style="stroke:#181818;stroke-width:1.0;"/><text fill="#000000" font-family="sans-serif" font-size="13" lengthAdjust="spacing" textLength="622" x="11245" y="73.5669">org_openmrs_module_webservices_rest_web_v1_0_controller_openmrs1_9_FormService Provider</text><path d="M8554.887,60.0262 A10,10 0 0 0 8555.2762 74.163" fill="none" style="stroke:#181818;stroke-width:1.5;"/><ellipse cx="8562.15" cy="66.9" fill="#FFFFFF" rx="6" ry="6" style="stroke:#181818;stroke-width:1.5;"/></g><!--link aName to aName--><g id="link_aName_aName"><path d="M8562.12,66.8 C8966.27,55.04 11880,55.78 11880,69 C11880,82.22 8966.27,82.96 8562.12,71.2 " fill="none" id="aName-aName-6" style="stroke:#181818;stroke-width:1.0;"/><text fill="#000000" font-family="sans-serif" font-size="13" lengthAdjust="spacing" textLength="452" x="11893" y="73.5669">org_openmrs_module_webservices_rest_web_api_RestService Provider</text><path d="M8554.8463,59.9376 A10,10 0 0 0 8555.2576 74.0737" fill="none" style="stroke:#181818;stroke-width:1.5;"/><ellipse cx="8562.12" cy="66.8" fill="#FFFFFF" rx="6" ry="6" style="stroke:#181818;stroke-width:1.5;"/></g><!--link aName to aName--><g id="link_aName_aName"><path d="M8562.2,66.67 C8998.87,53.04 12358,53.82 12358,69 C12358,84.18 8998.87,84.96 8562.2,71.33 " fill="none" id="aName-aName-7" style="stroke:#181818;stroke-width:1.0;"/><text fill="#000000" font-family="sans-serif" font-size="13" lengthAdjust="spacing" textLength="614" x="12371" y="73.5669">org_openmrs_module_webservices_rest_web_v1_0_controller_openmrs1_8_ObsService Provider</text><path d="M8554.9118,59.823 A10,10 0 0 0 8555.353 73.9582" fill="none" style="stroke:#181818;stroke-width:1.5;"/><ellipse cx="8562.2" cy="66.67" fill="#FFFFFF" rx="6" ry="6" style="stroke:#181818;stroke-width:1.5;"/></g><!--link aName to aName--><g id="link_aName_aName"><path d="M8562.26,66.58 C9038.9,51.04 12998,51.85 12998,69 C12998,86.15 9038.9,86.96 8562.26,71.42 " fill="none" id="aName-aName-8" style="stroke:#181818;stroke-width:1.0;"/><text fill="#000000" font-family="sans-serif" font-size="13" lengthAdjust="spacing" textLength="543" x="13011" y="73.5669">org_openmrs_module_webservices_rest_web_v1_0_controller_BaseUriSetup Provider</text><path d="M8554.9623,59.7431 A10,10 0 0 0 8555.4231 73.8777" fill="none" style="stroke:#181818;stroke-width:1.5;"/><ellipse cx="8562.26" cy="66.58" fill="#FFFFFF" rx="6" ry="6" style="stroke:#181818;stroke-width:1.5;"/></g><!--link aName to aName--><g id="link_aName_aName"><path d="M8562.22,66.48 C9072.05,49.04 13567,49.88 13567,69 C13567,88.12 9072.05,88.96 8562.22,71.52 " fill="none" id="aName-aName-9" style="stroke:#181818;stroke-width:1.0;"/><text fill="#000000" font-family="sans-serif" font-size="13" lengthAdjust="spacing" textLength="452" x="13580" y="73.5669">org_openmrs_module_webservices_rest_web_api_RestService Provider</text><path d="M8554.9113,59.6548 A10,10 0 0 0 8555.3948 73.7887" fill="none" style="stroke:#181818;stroke-width:1.5;"/><ellipse cx="8562.22" cy="66.48" fill="#FFFFFF" rx="6" ry="6" style="stroke:#181818;stroke-width:1.5;"/></g><!--link aName to aName--><g id="link_aName_aName"><path d="M8562.13,66.37 C9098.64,47.04 14045,47.91 14045,69 C14045,90.09 9098.64,90.96 8562.13,71.63 " fill="none" id="aName-aName-10" style="stroke:#181818;stroke-width:1.0;"/><text fill="#000000" font-family="sans-serif" font-size="13" lengthAdjust="spacing" textLength="452" x="14058" y="73.5669">org_openmrs_module_webservices_rest_web_api_RestService Provider</text><path d="M8554.8089,59.5581 A10,10 0 0 0 8555.3181 73.6911" fill="none" style="stroke:#181818;stroke-width:1.5;"/><ellipse cx="8562.13" cy="66.37" fill="#FFFFFF" rx="6" ry="6" style="stroke:#181818;stroke-width:1.5;"/></g><!--link aName to aName--><g id="link_aName_aName"><path d="M8562.37,66.26 C9126.29,45.04 14523,45.95 14523,69 C14523,92.05 9126.29,92.96 8562.37,71.74 " fill="none" id="aName-aName-11" style="stroke:#181818;stroke-width:1.0;"/><text fill="#000000" font-family="sans-serif" font-size="13" lengthAdjust="spacing" textLength="452" x="14536" y="73.5669">org_openmrs_module_webservices_rest_web_api_RestService Provider</text><path d="M8555.038,59.4598 A10,10 0 0 0 8555.5698 73.592" fill="none" style="stroke:#181818;stroke-width:1.5;"/><ellipse cx="8562.37" cy="66.26" fill="#FFFFFF" rx="6" ry="6" style="stroke:#181818;stroke-width:1.5;"/></g><!--link aName to aName--><g id="link_aName_aName"><path d="M8562.18,66.18 C9150.39,43.04 15001,43.98 15001,69 C15001,94.02 9150.39,94.96 8562.18,71.82 " fill="none" id="aName-aName-12" style="stroke:#181818;stroke-width:1.0;"/><text fill="#000000" font-family="sans-serif" font-size="13" lengthAdjust="spacing" textLength="452" x="15014" y="73.5669">org_openmrs_module_webservices_rest_web_api_RestService Provider</text><path d="M8554.8364,59.3924 A10,10 0 0 0 8555.3924 73.5236" fill="none" style="stroke:#181818;stroke-width:1.5;"/><ellipse cx="8562.18" cy="66.18" fill="#FFFFFF" rx="6" ry="6" style="stroke:#181818;stroke-width:1.5;"/></g><!--link aName to aName--><g id="link_aName_aName"><path d="M8562.07,66.09 C9174.13,41.04 15479,42 15479,69 C15479,96 9174.13,96.96 8562.07,71.91 " fill="none" id="aName-aName-13" style="stroke:#181818;stroke-width:1.0;"/><text fill="#000000" font-family="sans-serif" font-size="13" lengthAdjust="spacing" textLength="452" x="15492" y="73.5669">org_openmrs_module_webservices_rest_web_api_RestService Provider</text><path d="M8554.7157,59.314 A10,10 0 0 0 8555.294 73.4443" fill="none" style="stroke:#181818;stroke-width:1.5;"/><ellipse cx="8562.07" cy="66.09" fill="#FFFFFF" rx="6" ry="6" style="stroke:#181818;stroke-width:1.5;"/></g><!--link aName to aName--><g id="link_aName_aName"><path d="M8562.1,66.01 C9198.18,39.04 15957,40.03 15957,69 C15957,97.97 9198.18,98.96 8562.1,71.99 " fill="none" id="aName-aName-14" style="stroke:#181818;stroke-width:1.0;"/><text fill="#000000" font-family="sans-serif" font-size="13" lengthAdjust="spacing" textLength="742" x="15970" y="73.5669">org_openmrs_module_webservices_rest_web_v1_0_controller_openmrs1_9_ClobDatatypeStorageController Provider</text><path d="M8554.7357,59.2448 A10,10 0 0 0 8555.3348 73.3743" fill="none" style="stroke:#181818;stroke-width:1.5;"/><ellipse cx="8562.1" cy="66.01" fill="#FFFFFF" rx="6" ry="6" style="stroke:#181818;stroke-width:1.5;"/></g><!--link aName to aName--><g id="link_aName_aName"><path d="M8562.01,65.97 C9232.68,37.03 16725,38.04 16725,69 C16725,99.96 9232.68,100.97 8562.01,72.03 " fill="none" id="aName-aName-15" style="stroke:#181818;stroke-width:1.0;"/><text fill="#000000" font-family="sans-serif" font-size="13" lengthAdjust="spacing" textLength="619" x="16738" y="73.5669">org_openmrs_module_webservices_rest_web_v1_0_controller_openmrs2_2_UserService Provider</text><path d="M8554.6407,59.2103 A10,10 0 0 0 8555.2503 73.3393" fill="none" style="stroke:#181818;stroke-width:1.5;"/><ellipse cx="8562.01" cy="65.97" fill="#FFFFFF" rx="6" ry="6" style="stroke:#181818;stroke-width:1.5;"/></g><!--link aName to aName--><g id="link_aName_aName"><path d="M8562.13,65.91 C9262.5,35.03 17370,36.06 17370,69 C17370,101.94 9262.5,102.97 8562.13,72.09 " fill="none" id="aName-aName-16" style="stroke:#181818;stroke-width:1.0;"/><text fill="#000000" font-family="sans-serif" font-size="13" lengthAdjust="spacing" textLength="619" x="17383" y="73.5669">org_openmrs_module_webservices_rest_web_v1_0_controller_openmrs1_8_UserService Provider</text><path d="M8554.7543,59.1573 A10,10 0 0 0 8555.3773 73.2857" fill="none" style="stroke:#181818;stroke-width:1.5;"/><ellipse cx="8562.13" cy="65.91" fill="#FFFFFF" rx="6" ry="6" style="stroke:#181818;stroke-width:1.5;"/></g><!--link aName to aName--><g id="link_aName_aName"><path d="M8562.22,65.85 C9291.19,33.03 18015,34.08 18015,69 C18015,103.92 9291.19,104.97 8562.22,72.15 " fill="none" id="aName-aName-17" style="stroke:#181818;stroke-width:1.0;"/><text fill="#000000" font-family="sans-serif" font-size="13" lengthAdjust="spacing" textLength="648" x="18028" y="73.5669">org_openmrs_module_webservices_rest_web_v1_0_controller_openmrs1_9_DatatypeService Provider</text><path d="M8554.8381,59.1041 A10,10 0 0 0 8555.4741 73.2319" fill="none" style="stroke:#181818;stroke-width:1.5;"/><ellipse cx="8562.22" cy="65.85" fill="#FFFFFF" rx="6" ry="6" style="stroke:#181818;stroke-width:1.5;"/></g><!--link aName to aName--><g id="link_aName_aName"><path d="M8562.1,65.81 C9318.5,31.03 18689,32.09 18689,69 C18689,105.91 9318.5,106.97 8562.1,72.19 " fill="none" id="aName-aName-18" style="stroke:#181818;stroke-width:1.0;"/><text fill="#000000" font-family="sans-serif" font-size="13" lengthAdjust="spacing" textLength="452" x="18702" y="73.5669">org_openmrs_module_webservices_rest_web_api_RestService Provider</text><path d="M8554.7116,59.0712 A10,10 0 0 0 8555.3612 73.1984" fill="none" style="stroke:#181818;stroke-width:1.5;"/><ellipse cx="8562.1" cy="65.81" fill="#FFFFFF" rx="6" ry="6" style="stroke:#181818;stroke-width:1.5;"/></g><!--SRC=[xPTTIyCm58RlzoiAtdXJMTDr7zvftQwc6uxXnHWXROypB6rAacqEyR_RiGy44I-qBmoyAadRy_ISlEz9QfUoA8KHkVSiNsDfKaL3aP0QhSaeKPQoM7ZEhAXHw8oyiH8flMYLaU5XntjhpCI3o6dkpMQwf28trZzUSvsj5FaRIYoPjKp9-eQikx9RwoY_u9iiMSR6bNrgfyDemFg3uTFcPZvll7z5jK8Sger3TN6e28QAMZ1KYCigRC9GE5kn7Ww5St24Mog6St07YC8fCC1b5U9GxG1NGA25SOszXKCnu7wFamMk1RPm0WmPBYjS0GDSj-tWjDu1EXZNrt5QnxKAXZj4ju6_1Z0IK1D0KU1C5G4FIpYf1xXMot1xLGZSx745375jAS3vAgWjgsDG_xBfUyV1jQVDWX-Yytrq_YawtqNVJN1HIlvO3IRxEzxOwBMillYtSTS1R_9K5yvefQe2t0jPL1ozCYd5f-a_mzML1geyjyBIrCW9kLLP6-JmJi1xVA1DVgwrEgNHvQF4dkNAd9jS_-F-wAXOwUHEEE6s9KsSDc9HHv_xvWCOPtnQFGsq7XJNuwVIefJo0G00]--></g></svg>