<?xml version="1.0" encoding="us-ascii" standalone="no"?><svg xmlns="http://www.w3.org/2000/svg" xmlns:xlink="http://www.w3.org/1999/xlink" contentStyleType="text/css" height="125px" preserveAspectRatio="none" style="width:19565px;height:125px;background:#FFFFFF;" version="1.1" viewBox="0 0 19565 125" width="19565px" zoomAndPan="magnify"><defs/><g><!--cluster Placeholder_39--><g id="cluster_Placeholder_39"><polygon fill="none" points="8459,16,8469,6,19548,6,19548,98,19538,108,8459,108,8459,16" style="stroke:#181818;stroke-width:1.0;"/><line style="stroke:#181818;stroke-width:1.0;" x1="19538" x2="19548" y1="16" y2="6"/><line style="stroke:#181818;stroke-width:1.0;" x1="8459" x2="19538" y1="16" y2="16"/><line style="stroke:#181818;stroke-width:1.0;" x1="19538" x2="19538" y1="16" y2="108"/><text fill="#000000" font-family="sans-serif" font-size="14" font-weight="bold" lengthAdjust="spacing" textLength="120" x="13939.5" y="31.9951">Placeholder_39</text></g><!--entity aName--><g id="elem_aName"><a href="openmrs-openmrs-module-webservices-rest.system#_y-JMLrw4Ee6f7cmMwfuD_w" target="_top" title="openmrs-openmrs-module-webservices-rest.system#_y-JMLrw4Ee6f7cmMwfuD_w" xlink:actuate="onRequest" xlink:href="openmrs-openmrs-module-webservices-rest.system#_y-JMLrw4Ee6f7cmMwfuD_w" xlink:show="new" xlink:title="openmrs-openmrs-module-webservices-rest.system#_y-JMLrw4Ee6f7cmMwfuD_w" xlink:type="simple"><rect fill="#F1F1F1" height="46.2969" rx="2.5" ry="2.5" style="stroke:#181818;stroke-width:0.5;" width="88" x="8475" y="46"/><rect fill="#F1F1F1" height="10" style="stroke:#181818;stroke-width:0.5;" width="15" x="8543" y="51"/><rect fill="#F1F1F1" height="2" style="stroke:#181818;stroke-width:0.5;" width="4" x="8541" y="53"/><rect fill="#F1F1F1" height="2" style="stroke:#181818;stroke-width:0.5;" width="4" x="8541" y="57"/><text fill="#000000" font-family="sans-serif" font-size="14" lengthAdjust="spacing" textLength="48" x="8490" y="78.9951">aName</text></a></g><!--entity Placeholder_46--><g id="elem_Placeholder_46"><polygon fill="#F1F1F1" points="16,56,26,46,162,46,162,82.2969,152,92.2969,16,92.2969,16,56" style="stroke:#181818;stroke-width:0.5;"/><line style="stroke:#181818;stroke-width:0.5;" x1="152" x2="162" y1="56" y2="46"/><line style="stroke:#181818;stroke-width:0.5;" x1="16" x2="152" y1="56" y2="56"/><line style="stroke:#181818;stroke-width:0.5;" x1="152" x2="152" y1="56" y2="92.2969"/><text fill="#000000" font-family="sans-serif" font-size="14" lengthAdjust="spacing" textLength="106" x="31" y="78.9951">Placeholder_46</text></g><!--entity Placeholder_51--><g id="elem_Placeholder_51"><polygon fill="#F1F1F1" points="197,56,207,46,343,46,343,82.2969,333,92.2969,197,92.2969,197,56" style="stroke:#181818;stroke-width:0.5;"/><line style="stroke:#181818;stroke-width:0.5;" x1="333" x2="343" y1="56" y2="46"/><line style="stroke:#181818;stroke-width:0.5;" x1="197" x2="333" y1="56" y2="56"/><line style="stroke:#181818;stroke-width:0.5;" x1="333" x2="333" y1="56" y2="92.2969"/><text fill="#000000" font-family="sans-serif" font-size="14" lengthAdjust="spacing" textLength="106" x="212" y="78.9951">Placeholder_51</text></g><!--entity Placeholder_43--><g id="elem_Placeholder_43"><polygon fill="#F1F1F1" points="378,56,388,46,524,46,524,82.2969,514,92.2969,378,92.2969,378,56" style="stroke:#181818;stroke-width:0.5;"/><line style="stroke:#181818;stroke-width:0.5;" x1="514" x2="524" y1="56" y2="46"/><line style="stroke:#181818;stroke-width:0.5;" x1="378" x2="514" y1="56" y2="56"/><line style="stroke:#181818;stroke-width:0.5;" x1="514" x2="514" y1="56" y2="92.2969"/><text fill="#000000" font-family="sans-serif" font-size="14" lengthAdjust="spacing" textLength="106" x="393" y="78.9951">Placeholder_43</text></g><!--entity Placeholder_77--><g id="elem_Placeholder_77"><polygon fill="#F1F1F1" points="559,56,569,46,705,46,705,82.2969,695,92.2969,559,92.2969,559,56" style="stroke:#181818;stroke-width:0.5;"/><line style="stroke:#181818;stroke-width:0.5;" x1="695" x2="705" y1="56" y2="46"/><line style="stroke:#181818;stroke-width:0.5;" x1="559" x2="695" y1="56" y2="56"/><line style="stroke:#181818;stroke-width:0.5;" x1="695" x2="695" y1="56" y2="92.2969"/><text fill="#000000" font-family="sans-serif" font-size="14" lengthAdjust="spacing" textLength="106" x="574" y="78.9951">Placeholder_77</text></g><!--entity Placeholder_37--><g id="elem_Placeholder_37"><polygon fill="#F1F1F1" points="740,56,750,46,886,46,886,82.2969,876,92.2969,740,92.2969,740,56" style="stroke:#181818;stroke-width:0.5;"/><line style="stroke:#181818;stroke-width:0.5;" x1="876" x2="886" y1="56" y2="46"/><line style="stroke:#181818;stroke-width:0.5;" x1="740" x2="876" y1="56" y2="56"/><line style="stroke:#181818;stroke-width:0.5;" x1="876" x2="876" y1="56" y2="92.2969"/><text fill="#000000" font-family="sans-serif" font-size="14" lengthAdjust="spacing" textLength="106" x="755" y="78.9951">Placeholder_37</text></g><!--entity Placeholder_49--><g id="elem_Placeholder_49"><polygon fill="#F1F1F1" points="921,56,931,46,1067,46,1067,82.2969,1057,92.2969,921,92.2969,921,56" style="stroke:#181818;stroke-width:0.5;"/><line style="stroke:#181818;stroke-width:0.5;" x1="1057" x2="1067" y1="56" y2="46"/><line style="stroke:#181818;stroke-width:0.5;" x1="921" x2="1057" y1="56" y2="56"/><line style="stroke:#181818;stroke-width:0.5;" x1="1057" x2="1057" y1="56" y2="92.2969"/><text fill="#000000" font-family="sans-serif" font-size="14" lengthAdjust="spacing" textLength="106" x="936" y="78.9951">Placeholder_49</text></g><!--entity Placeholder_21--><g id="elem_Placeholder_21"><polygon fill="#F1F1F1" points="1102,56,1112,46,1248,46,1248,82.2969,1238,92.2969,1102,92.2969,1102,56" style="stroke:#181818;stroke-width:0.5;"/><line style="stroke:#181818;stroke-width:0.5;" x1="1238" x2="1248" y1="56" y2="46"/><line style="stroke:#181818;stroke-width:0.5;" x1="1102" x2="1238" y1="56" y2="56"/><line style="stroke:#181818;stroke-width:0.5;" x1="1238" x2="1238" y1="56" y2="92.2969"/><text fill="#000000" font-family="sans-serif" font-size="14" lengthAdjust="spacing" textLength="106" x="1117" y="78.9951">Placeholder_21</text></g><!--entity Placeholder_16--><g id="elem_Placeholder_16"><polygon fill="#F1F1F1" points="1283,56,1293,46,1429,46,1429,82.2969,1419,92.2969,1283,92.2969,1283,56" style="stroke:#181818;stroke-width:0.5;"/><line style="stroke:#181818;stroke-width:0.5;" x1="1419" x2="1429" y1="56" y2="46"/><line style="stroke:#181818;stroke-width:0.5;" x1="1283" x2="1419" y1="56" y2="56"/><line style="stroke:#181818;stroke-width:0.5;" x1="1419" x2="1419" y1="56" y2="92.2969"/><text fill="#000000" font-family="sans-serif" font-size="14" lengthAdjust="spacing" textLength="106" x="1298" y="78.9951">Placeholder_16</text></g><!--entity Placeholder_7--><g id="elem_Placeholder_7"><polygon fill="#F1F1F1" points="1464.5,56,1474.5,46,1601.5,46,1601.5,82.2969,1591.5,92.2969,1464.5,92.2969,1464.5,56" style="stroke:#181818;stroke-width:0.5;"/><line style="stroke:#181818;stroke-width:0.5;" x1="1591.5" x2="1601.5" y1="56" y2="46"/><line style="stroke:#181818;stroke-width:0.5;" x1="1464.5" x2="1591.5" y1="56" y2="56"/><line style="stroke:#181818;stroke-width:0.5;" x1="1591.5" x2="1591.5" y1="56" y2="92.2969"/><text fill="#000000" font-family="sans-serif" font-size="14" lengthAdjust="spacing" textLength="97" x="1479.5" y="78.9951">Placeholder_7</text></g><!--entity Placeholder_13--><g id="elem_Placeholder_13"><polygon fill="#F1F1F1" points="1637,56,1647,46,1783,46,1783,82.2969,1773,92.2969,1637,92.2969,1637,56" style="stroke:#181818;stroke-width:0.5;"/><line style="stroke:#181818;stroke-width:0.5;" x1="1773" x2="1783" y1="56" y2="46"/><line style="stroke:#181818;stroke-width:0.5;" x1="1637" x2="1773" y1="56" y2="56"/><line style="stroke:#181818;stroke-width:0.5;" x1="1773" x2="1773" y1="56" y2="92.2969"/><text fill="#000000" font-family="sans-serif" font-size="14" lengthAdjust="spacing" textLength="106" x="1652" y="78.9951">Placeholder_13</text></g><!--entity Placeholder_62--><g id="elem_Placeholder_62"><polygon fill="#F1F1F1" points="1818,56,1828,46,1964,46,1964,82.2969,1954,92.2969,1818,92.2969,1818,56" style="stroke:#181818;stroke-width:0.5;"/><line style="stroke:#181818;stroke-width:0.5;" x1="1954" x2="1964" y1="56" y2="46"/><line style="stroke:#181818;stroke-width:0.5;" x1="1818" x2="1954" y1="56" y2="56"/><line style="stroke:#181818;stroke-width:0.5;" x1="1954" x2="1954" y1="56" y2="92.2969"/><text fill="#000000" font-family="sans-serif" font-size="14" lengthAdjust="spacing" textLength="106" x="1833" y="78.9951">Placeholder_62</text></g><!--entity Placeholder_0--><g id="elem_Placeholder_0"><polygon fill="#F1F1F1" points="1999.5,56,2009.5,46,2136.5,46,2136.5,82.2969,2126.5,92.2969,1999.5,92.2969,1999.5,56" style="stroke:#181818;stroke-width:0.5;"/><line style="stroke:#181818;stroke-width:0.5;" x1="2126.5" x2="2136.5" y1="56" y2="46"/><line style="stroke:#181818;stroke-width:0.5;" x1="1999.5" x2="2126.5" y1="56" y2="56"/><line style="stroke:#181818;stroke-width:0.5;" x1="2126.5" x2="2126.5" y1="56" y2="92.2969"/><text fill="#000000" font-family="sans-serif" font-size="14" lengthAdjust="spacing" textLength="97" x="2014.5" y="78.9951">Placeholder_0</text></g><!--entity Placeholder_82--><g id="elem_Placeholder_82"><polygon fill="#F1F1F1" points="2172,56,2182,46,2318,46,2318,82.2969,2308,92.2969,2172,92.2969,2172,56" style="stroke:#181818;stroke-width:0.5;"/><line style="stroke:#181818;stroke-width:0.5;" x1="2308" x2="2318" y1="56" y2="46"/><line style="stroke:#181818;stroke-width:0.5;" x1="2172" x2="2308" y1="56" y2="56"/><line style="stroke:#181818;stroke-width:0.5;" x1="2308" x2="2308" y1="56" y2="92.2969"/><text fill="#000000" font-family="sans-serif" font-size="14" lengthAdjust="spacing" textLength="106" x="2187" y="78.9951">Placeholder_82</text></g><!--entity Placeholder_19--><g id="elem_Placeholder_19"><polygon fill="#F1F1F1" points="2353,56,2363,46,2499,46,2499,82.2969,2489,92.2969,2353,92.2969,2353,56" style="stroke:#181818;stroke-width:0.5;"/><line style="stroke:#181818;stroke-width:0.5;" x1="2489" x2="2499" y1="56" y2="46"/><line style="stroke:#181818;stroke-width:0.5;" x1="2353" x2="2489" y1="56" y2="56"/><line style="stroke:#181818;stroke-width:0.5;" x1="2489" x2="2489" y1="56" y2="92.2969"/><text fill="#000000" font-family="sans-serif" font-size="14" lengthAdjust="spacing" textLength="106" x="2368" y="78.9951">Placeholder_19</text></g><!--entity Placeholder_29--><g id="elem_Placeholder_29"><polygon fill="#F1F1F1" points="2534,56,2544,46,2680,46,2680,82.2969,2670,92.2969,2534,92.2969,2534,56" style="stroke:#181818;stroke-width:0.5;"/><line style="stroke:#181818;stroke-width:0.5;" x1="2670" x2="2680" y1="56" y2="46"/><line style="stroke:#181818;stroke-width:0.5;" x1="2534" x2="2670" y1="56" y2="56"/><line style="stroke:#181818;stroke-width:0.5;" x1="2670" x2="2670" y1="56" y2="92.2969"/><text fill="#000000" font-family="sans-serif" font-size="14" lengthAdjust="spacing" textLength="106" x="2549" y="78.9951">Placeholder_29</text></g><!--entity Placeholder_36--><g id="elem_Placeholder_36"><polygon fill="#F1F1F1" points="2715,56,2725,46,2861,46,2861,82.2969,2851,92.2969,2715,92.2969,2715,56" style="stroke:#181818;stroke-width:0.5;"/><line style="stroke:#181818;stroke-width:0.5;" x1="2851" x2="2861" y1="56" y2="46"/><line style="stroke:#181818;stroke-width:0.5;" x1="2715" x2="2851" y1="56" y2="56"/><line style="stroke:#181818;stroke-width:0.5;" x1="2851" x2="2851" y1="56" y2="92.2969"/><text fill="#000000" font-family="sans-serif" font-size="14" lengthAdjust="spacing" textLength="106" x="2730" y="78.9951">Placeholder_36</text></g><!--entity Placeholder_3--><g id="elem_Placeholder_3"><polygon fill="#F1F1F1" points="2896.5,56,2906.5,46,3033.5,46,3033.5,82.2969,3023.5,92.2969,2896.5,92.2969,2896.5,56" style="stroke:#181818;stroke-width:0.5;"/><line style="stroke:#181818;stroke-width:0.5;" x1="3023.5" x2="3033.5" y1="56" y2="46"/><line style="stroke:#181818;stroke-width:0.5;" x1="2896.5" x2="3023.5" y1="56" y2="56"/><line style="stroke:#181818;stroke-width:0.5;" x1="3023.5" x2="3023.5" y1="56" y2="92.2969"/><text fill="#000000" font-family="sans-serif" font-size="14" lengthAdjust="spacing" textLength="97" x="2911.5" y="78.9951">Placeholder_3</text></g><!--entity Placeholder_42--><g id="elem_Placeholder_42"><polygon fill="#F1F1F1" points="3069,56,3079,46,3215,46,3215,82.2969,3205,92.2969,3069,92.2969,3069,56" style="stroke:#181818;stroke-width:0.5;"/><line style="stroke:#181818;stroke-width:0.5;" x1="3205" x2="3215" y1="56" y2="46"/><line style="stroke:#181818;stroke-width:0.5;" x1="3069" x2="3205" y1="56" y2="56"/><line style="stroke:#181818;stroke-width:0.5;" x1="3205" x2="3205" y1="56" y2="92.2969"/><text fill="#000000" font-family="sans-serif" font-size="14" lengthAdjust="spacing" textLength="106" x="3084" y="78.9951">Placeholder_42</text></g><!--entity Placeholder_1--><g id="elem_Placeholder_1"><polygon fill="#F1F1F1" points="3250.5,56,3260.5,46,3387.5,46,3387.5,82.2969,3377.5,92.2969,3250.5,92.2969,3250.5,56" style="stroke:#181818;stroke-width:0.5;"/><line style="stroke:#181818;stroke-width:0.5;" x1="3377.5" x2="3387.5" y1="56" y2="46"/><line style="stroke:#181818;stroke-width:0.5;" x1="3250.5" x2="3377.5" y1="56" y2="56"/><line style="stroke:#181818;stroke-width:0.5;" x1="3377.5" x2="3377.5" y1="56" y2="92.2969"/><text fill="#000000" font-family="sans-serif" font-size="14" lengthAdjust="spacing" textLength="97" x="3265.5" y="78.9951">Placeholder_1</text></g><!--entity Placeholder_11--><g id="elem_Placeholder_11"><polygon fill="#F1F1F1" points="3423,56,3433,46,3569,46,3569,82.2969,3559,92.2969,3423,92.2969,3423,56" style="stroke:#181818;stroke-width:0.5;"/><line style="stroke:#181818;stroke-width:0.5;" x1="3559" x2="3569" y1="56" y2="46"/><line style="stroke:#181818;stroke-width:0.5;" x1="3423" x2="3559" y1="56" y2="56"/><line style="stroke:#181818;stroke-width:0.5;" x1="3559" x2="3559" y1="56" y2="92.2969"/><text fill="#000000" font-family="sans-serif" font-size="14" lengthAdjust="spacing" textLength="106" x="3438" y="78.9951">Placeholder_11</text></g><!--entity Placeholder_18--><g id="elem_Placeholder_18"><polygon fill="#F1F1F1" points="3604,56,3614,46,3750,46,3750,82.2969,3740,92.2969,3604,92.2969,3604,56" style="stroke:#181818;stroke-width:0.5;"/><line style="stroke:#181818;stroke-width:0.5;" x1="3740" x2="3750" y1="56" y2="46"/><line style="stroke:#181818;stroke-width:0.5;" x1="3604" x2="3740" y1="56" y2="56"/><line style="stroke:#181818;stroke-width:0.5;" x1="3740" x2="3740" y1="56" y2="92.2969"/><text fill="#000000" font-family="sans-serif" font-size="14" lengthAdjust="spacing" textLength="106" x="3619" y="78.9951">Placeholder_18</text></g><!--entity Placeholder_73--><g id="elem_Placeholder_73"><polygon fill="#F1F1F1" points="3785,56,3795,46,3931,46,3931,82.2969,3921,92.2969,3785,92.2969,3785,56" style="stroke:#181818;stroke-width:0.5;"/><line style="stroke:#181818;stroke-width:0.5;" x1="3921" x2="3931" y1="56" y2="46"/><line style="stroke:#181818;stroke-width:0.5;" x1="3785" x2="3921" y1="56" y2="56"/><line style="stroke:#181818;stroke-width:0.5;" x1="3921" x2="3921" y1="56" y2="92.2969"/><text fill="#000000" font-family="sans-serif" font-size="14" lengthAdjust="spacing" textLength="106" x="3800" y="78.9951">Placeholder_73</text></g><!--entity Placeholder_30--><g id="elem_Placeholder_30"><polygon fill="#F1F1F1" points="3966,56,3976,46,4112,46,4112,82.2969,4102,92.2969,3966,92.2969,3966,56" style="stroke:#181818;stroke-width:0.5;"/><line style="stroke:#181818;stroke-width:0.5;" x1="4102" x2="4112" y1="56" y2="46"/><line style="stroke:#181818;stroke-width:0.5;" x1="3966" x2="4102" y1="56" y2="56"/><line style="stroke:#181818;stroke-width:0.5;" x1="4102" x2="4102" y1="56" y2="92.2969"/><text fill="#000000" font-family="sans-serif" font-size="14" lengthAdjust="spacing" textLength="106" x="3981" y="78.9951">Placeholder_30</text></g><!--entity Placeholder_52--><g id="elem_Placeholder_52"><polygon fill="#F1F1F1" points="4147,56,4157,46,4293,46,4293,82.2969,4283,92.2969,4147,92.2969,4147,56" style="stroke:#181818;stroke-width:0.5;"/><line style="stroke:#181818;stroke-width:0.5;" x1="4283" x2="4293" y1="56" y2="46"/><line style="stroke:#181818;stroke-width:0.5;" x1="4147" x2="4283" y1="56" y2="56"/><line style="stroke:#181818;stroke-width:0.5;" x1="4283" x2="4283" y1="56" y2="92.2969"/><text fill="#000000" font-family="sans-serif" font-size="14" lengthAdjust="spacing" textLength="106" x="4162" y="78.9951">Placeholder_52</text></g><!--entity Placeholder_17--><g id="elem_Placeholder_17"><polygon fill="#F1F1F1" points="4328,56,4338,46,4474,46,4474,82.2969,4464,92.2969,4328,92.2969,4328,56" style="stroke:#181818;stroke-width:0.5;"/><line style="stroke:#181818;stroke-width:0.5;" x1="4464" x2="4474" y1="56" y2="46"/><line style="stroke:#181818;stroke-width:0.5;" x1="4328" x2="4464" y1="56" y2="56"/><line style="stroke:#181818;stroke-width:0.5;" x1="4464" x2="4464" y1="56" y2="92.2969"/><text fill="#000000" font-family="sans-serif" font-size="14" lengthAdjust="spacing" textLength="106" x="4343" y="78.9951">Placeholder_17</text></g><!--entity Placeholder_40--><g id="elem_Placeholder_40"><polygon fill="#F1F1F1" points="4509,56,4519,46,4655,46,4655,82.2969,4645,92.2969,4509,92.2969,4509,56" style="stroke:#181818;stroke-width:0.5;"/><line style="stroke:#181818;stroke-width:0.5;" x1="4645" x2="4655" y1="56" y2="46"/><line style="stroke:#181818;stroke-width:0.5;" x1="4509" x2="4645" y1="56" y2="56"/><line style="stroke:#181818;stroke-width:0.5;" x1="4645" x2="4645" y1="56" y2="92.2969"/><text fill="#000000" font-family="sans-serif" font-size="14" lengthAdjust="spacing" textLength="106" x="4524" y="78.9951">Placeholder_40</text></g><!--entity Placeholder_2--><g id="elem_Placeholder_2"><polygon fill="#F1F1F1" points="4690.5,56,4700.5,46,4827.5,46,4827.5,82.2969,4817.5,92.2969,4690.5,92.2969,4690.5,56" style="stroke:#181818;stroke-width:0.5;"/><line style="stroke:#181818;stroke-width:0.5;" x1="4817.5" x2="4827.5" y1="56" y2="46"/><line style="stroke:#181818;stroke-width:0.5;" x1="4690.5" x2="4817.5" y1="56" y2="56"/><line style="stroke:#181818;stroke-width:0.5;" x1="4817.5" x2="4817.5" y1="56" y2="92.2969"/><text fill="#000000" font-family="sans-serif" font-size="14" lengthAdjust="spacing" textLength="97" x="4705.5" y="78.9951">Placeholder_2</text></g><!--entity Placeholder_35--><g id="elem_Placeholder_35"><polygon fill="#F1F1F1" points="4863,56,4873,46,5009,46,5009,82.2969,4999,92.2969,4863,92.2969,4863,56" style="stroke:#181818;stroke-width:0.5;"/><line style="stroke:#181818;stroke-width:0.5;" x1="4999" x2="5009" y1="56" y2="46"/><line style="stroke:#181818;stroke-width:0.5;" x1="4863" x2="4999" y1="56" y2="56"/><line style="stroke:#181818;stroke-width:0.5;" x1="4999" x2="4999" y1="56" y2="92.2969"/><text fill="#000000" font-family="sans-serif" font-size="14" lengthAdjust="spacing" textLength="106" x="4878" y="78.9951">Placeholder_35</text></g><!--entity Placeholder_24--><g id="elem_Placeholder_24"><polygon fill="#F1F1F1" points="5044,56,5054,46,5190,46,5190,82.2969,5180,92.2969,5044,92.2969,5044,56" style="stroke:#181818;stroke-width:0.5;"/><line style="stroke:#181818;stroke-width:0.5;" x1="5180" x2="5190" y1="56" y2="46"/><line style="stroke:#181818;stroke-width:0.5;" x1="5044" x2="5180" y1="56" y2="56"/><line style="stroke:#181818;stroke-width:0.5;" x1="5180" x2="5180" y1="56" y2="92.2969"/><text fill="#000000" font-family="sans-serif" font-size="14" lengthAdjust="spacing" textLength="106" x="5059" y="78.9951">Placeholder_24</text></g><!--entity Placeholder_71--><g id="elem_Placeholder_71"><polygon fill="#F1F1F1" points="5225,56,5235,46,5371,46,5371,82.2969,5361,92.2969,5225,92.2969,5225,56" style="stroke:#181818;stroke-width:0.5;"/><line style="stroke:#181818;stroke-width:0.5;" x1="5361" x2="5371" y1="56" y2="46"/><line style="stroke:#181818;stroke-width:0.5;" x1="5225" x2="5361" y1="56" y2="56"/><line style="stroke:#181818;stroke-width:0.5;" x1="5361" x2="5361" y1="56" y2="92.2969"/><text fill="#000000" font-family="sans-serif" font-size="14" lengthAdjust="spacing" textLength="106" x="5240" y="78.9951">Placeholder_71</text></g><!--entity Placeholder_80--><g id="elem_Placeholder_80"><polygon fill="#F1F1F1" points="5406,56,5416,46,5552,46,5552,82.2969,5542,92.2969,5406,92.2969,5406,56" style="stroke:#181818;stroke-width:0.5;"/><line style="stroke:#181818;stroke-width:0.5;" x1="5542" x2="5552" y1="56" y2="46"/><line style="stroke:#181818;stroke-width:0.5;" x1="5406" x2="5542" y1="56" y2="56"/><line style="stroke:#181818;stroke-width:0.5;" x1="5542" x2="5542" y1="56" y2="92.2969"/><text fill="#000000" font-family="sans-serif" font-size="14" lengthAdjust="spacing" textLength="106" x="5421" y="78.9951">Placeholder_80</text></g><!--entity Placeholder_22--><g id="elem_Placeholder_22"><polygon fill="#F1F1F1" points="5587,56,5597,46,5733,46,5733,82.2969,5723,92.2969,5587,92.2969,5587,56" style="stroke:#181818;stroke-width:0.5;"/><line style="stroke:#181818;stroke-width:0.5;" x1="5723" x2="5733" y1="56" y2="46"/><line style="stroke:#181818;stroke-width:0.5;" x1="5587" x2="5723" y1="56" y2="56"/><line style="stroke:#181818;stroke-width:0.5;" x1="5723" x2="5723" y1="56" y2="92.2969"/><text fill="#000000" font-family="sans-serif" font-size="14" lengthAdjust="spacing" textLength="106" x="5602" y="78.9951">Placeholder_22</text></g><!--entity Placeholder_83--><g id="elem_Placeholder_83"><polygon fill="#F1F1F1" points="5768,56,5778,46,5914,46,5914,82.2969,5904,92.2969,5768,92.2969,5768,56" style="stroke:#181818;stroke-width:0.5;"/><line style="stroke:#181818;stroke-width:0.5;" x1="5904" x2="5914" y1="56" y2="46"/><line style="stroke:#181818;stroke-width:0.5;" x1="5768" x2="5904" y1="56" y2="56"/><line style="stroke:#181818;stroke-width:0.5;" x1="5904" x2="5904" y1="56" y2="92.2969"/><text fill="#000000" font-family="sans-serif" font-size="14" lengthAdjust="spacing" textLength="106" x="5783" y="78.9951">Placeholder_83</text></g><!--entity Placeholder_45--><g id="elem_Placeholder_45"><polygon fill="#F1F1F1" points="5949,56,5959,46,6095,46,6095,82.2969,6085,92.2969,5949,92.2969,5949,56" style="stroke:#181818;stroke-width:0.5;"/><line style="stroke:#181818;stroke-width:0.5;" x1="6085" x2="6095" y1="56" y2="46"/><line style="stroke:#181818;stroke-width:0.5;" x1="5949" x2="6085" y1="56" y2="56"/><line style="stroke:#181818;stroke-width:0.5;" x1="6085" x2="6085" y1="56" y2="92.2969"/><text fill="#000000" font-family="sans-serif" font-size="14" lengthAdjust="spacing" textLength="106" x="5964" y="78.9951">Placeholder_45</text></g><!--entity Placeholder_47--><g id="elem_Placeholder_47"><polygon fill="#F1F1F1" points="6130,56,6140,46,6276,46,6276,82.2969,6266,92.2969,6130,92.2969,6130,56" style="stroke:#181818;stroke-width:0.5;"/><line style="stroke:#181818;stroke-width:0.5;" x1="6266" x2="6276" y1="56" y2="46"/><line style="stroke:#181818;stroke-width:0.5;" x1="6130" x2="6266" y1="56" y2="56"/><line style="stroke:#181818;stroke-width:0.5;" x1="6266" x2="6266" y1="56" y2="92.2969"/><text fill="#000000" font-family="sans-serif" font-size="14" lengthAdjust="spacing" textLength="106" x="6145" y="78.9951">Placeholder_47</text></g><!--entity Placeholder_50--><g id="elem_Placeholder_50"><polygon fill="#F1F1F1" points="6311,56,6321,46,6457,46,6457,82.2969,6447,92.2969,6311,92.2969,6311,56" style="stroke:#181818;stroke-width:0.5;"/><line style="stroke:#181818;stroke-width:0.5;" x1="6447" x2="6457" y1="56" y2="46"/><line style="stroke:#181818;stroke-width:0.5;" x1="6311" x2="6447" y1="56" y2="56"/><line style="stroke:#181818;stroke-width:0.5;" x1="6447" x2="6447" y1="56" y2="92.2969"/><text fill="#000000" font-family="sans-serif" font-size="14" lengthAdjust="spacing" textLength="106" x="6326" y="78.9951">Placeholder_50</text></g><!--entity Placeholder_28--><g id="elem_Placeholder_28"><polygon fill="#F1F1F1" points="6492,56,6502,46,6638,46,6638,82.2969,6628,92.2969,6492,92.2969,6492,56" style="stroke:#181818;stroke-width:0.5;"/><line style="stroke:#181818;stroke-width:0.5;" x1="6628" x2="6638" y1="56" y2="46"/><line style="stroke:#181818;stroke-width:0.5;" x1="6492" x2="6628" y1="56" y2="56"/><line style="stroke:#181818;stroke-width:0.5;" x1="6628" x2="6628" y1="56" y2="92.2969"/><text fill="#000000" font-family="sans-serif" font-size="14" lengthAdjust="spacing" textLength="106" x="6507" y="78.9951">Placeholder_28</text></g><!--entity Placeholder_38--><g id="elem_Placeholder_38"><polygon fill="#F1F1F1" points="6673,56,6683,46,6819,46,6819,82.2969,6809,92.2969,6673,92.2969,6673,56" style="stroke:#181818;stroke-width:0.5;"/><line style="stroke:#181818;stroke-width:0.5;" x1="6809" x2="6819" y1="56" y2="46"/><line style="stroke:#181818;stroke-width:0.5;" x1="6673" x2="6809" y1="56" y2="56"/><line style="stroke:#181818;stroke-width:0.5;" x1="6809" x2="6809" y1="56" y2="92.2969"/><text fill="#000000" font-family="sans-serif" font-size="14" lengthAdjust="spacing" textLength="106" x="6688" y="78.9951">Placeholder_38</text></g><!--entity Placeholder_14--><g id="elem_Placeholder_14"><polygon fill="#F1F1F1" points="6854,56,6864,46,7000,46,7000,82.2969,6990,92.2969,6854,92.2969,6854,56" style="stroke:#181818;stroke-width:0.5;"/><line style="stroke:#181818;stroke-width:0.5;" x1="6990" x2="7000" y1="56" y2="46"/><line style="stroke:#181818;stroke-width:0.5;" x1="6854" x2="6990" y1="56" y2="56"/><line style="stroke:#181818;stroke-width:0.5;" x1="6990" x2="6990" y1="56" y2="92.2969"/><text fill="#000000" font-family="sans-serif" font-size="14" lengthAdjust="spacing" textLength="106" x="6869" y="78.9951">Placeholder_14</text></g><!--entity Placeholder_44--><g id="elem_Placeholder_44"><polygon fill="#F1F1F1" points="7035,56,7045,46,7181,46,7181,82.2969,7171,92.2969,7035,92.2969,7035,56" style="stroke:#181818;stroke-width:0.5;"/><line style="stroke:#181818;stroke-width:0.5;" x1="7171" x2="7181" y1="56" y2="46"/><line style="stroke:#181818;stroke-width:0.5;" x1="7035" x2="7171" y1="56" y2="56"/><line style="stroke:#181818;stroke-width:0.5;" x1="7171" x2="7171" y1="56" y2="92.2969"/><text fill="#000000" font-family="sans-serif" font-size="14" lengthAdjust="spacing" textLength="106" x="7050" y="78.9951">Placeholder_44</text></g><!--entity Placeholder_41--><g id="elem_Placeholder_41"><polygon fill="#F1F1F1" points="7216,56,7226,46,7362,46,7362,82.2969,7352,92.2969,7216,92.2969,7216,56" style="stroke:#181818;stroke-width:0.5;"/><line style="stroke:#181818;stroke-width:0.5;" x1="7352" x2="7362" y1="56" y2="46"/><line style="stroke:#181818;stroke-width:0.5;" x1="7216" x2="7352" y1="56" y2="56"/><line style="stroke:#181818;stroke-width:0.5;" x1="7352" x2="7352" y1="56" y2="92.2969"/><text fill="#000000" font-family="sans-serif" font-size="14" lengthAdjust="spacing" textLength="106" x="7231" y="78.9951">Placeholder_41</text></g><!--entity Placeholder_65--><g id="elem_Placeholder_65"><polygon fill="#F1F1F1" points="7397,56,7407,46,7543,46,7543,82.2969,7533,92.2969,7397,92.2969,7397,56" style="stroke:#181818;stroke-width:0.5;"/><line style="stroke:#181818;stroke-width:0.5;" x1="7533" x2="7543" y1="56" y2="46"/><line style="stroke:#181818;stroke-width:0.5;" x1="7397" x2="7533" y1="56" y2="56"/><line style="stroke:#181818;stroke-width:0.5;" x1="7533" x2="7533" y1="56" y2="92.2969"/><text fill="#000000" font-family="sans-serif" font-size="14" lengthAdjust="spacing" textLength="106" x="7412" y="78.9951">Placeholder_65</text></g><!--entity Placeholder_48--><g id="elem_Placeholder_48"><polygon fill="#F1F1F1" points="7578,56,7588,46,7724,46,7724,82.2969,7714,92.2969,7578,92.2969,7578,56" style="stroke:#181818;stroke-width:0.5;"/><line style="stroke:#181818;stroke-width:0.5;" x1="7714" x2="7724" y1="56" y2="46"/><line style="stroke:#181818;stroke-width:0.5;" x1="7578" x2="7714" y1="56" y2="56"/><line style="stroke:#181818;stroke-width:0.5;" x1="7714" x2="7714" y1="56" y2="92.2969"/><text fill="#000000" font-family="sans-serif" font-size="14" lengthAdjust="spacing" textLength="106" x="7593" y="78.9951">Placeholder_48</text></g><!--entity Placeholder_6--><g id="elem_Placeholder_6"><polygon fill="#F1F1F1" points="7759.5,56,7769.5,46,7896.5,46,7896.5,82.2969,7886.5,92.2969,7759.5,92.2969,7759.5,56" style="stroke:#181818;stroke-width:0.5;"/><line style="stroke:#181818;stroke-width:0.5;" x1="7886.5" x2="7896.5" y1="56" y2="46"/><line style="stroke:#181818;stroke-width:0.5;" x1="7759.5" x2="7886.5" y1="56" y2="56"/><line style="stroke:#181818;stroke-width:0.5;" x1="7886.5" x2="7886.5" y1="56" y2="92.2969"/><text fill="#000000" font-family="sans-serif" font-size="14" lengthAdjust="spacing" textLength="97" x="7774.5" y="78.9951">Placeholder_6</text></g><!--entity Placeholder_76--><g id="elem_Placeholder_76"><polygon fill="#F1F1F1" points="7932,56,7942,46,8078,46,8078,82.2969,8068,92.2969,7932,92.2969,7932,56" style="stroke:#181818;stroke-width:0.5;"/><line style="stroke:#181818;stroke-width:0.5;" x1="8068" x2="8078" y1="56" y2="46"/><line style="stroke:#181818;stroke-width:0.5;" x1="7932" x2="8068" y1="56" y2="56"/><line style="stroke:#181818;stroke-width:0.5;" x1="8068" x2="8068" y1="56" y2="92.2969"/><text fill="#000000" font-family="sans-serif" font-size="14" lengthAdjust="spacing" textLength="106" x="7947" y="78.9951">Placeholder_76</text></g><!--entity Placeholder_31--><g id="elem_Placeholder_31"><polygon fill="#F1F1F1" points="8113,56,8123,46,8259,46,8259,82.2969,8249,92.2969,8113,92.2969,8113,56" style="stroke:#181818;stroke-width:0.5;"/><line style="stroke:#181818;stroke-width:0.5;" x1="8249" x2="8259" y1="56" y2="46"/><line style="stroke:#181818;stroke-width:0.5;" x1="8113" x2="8249" y1="56" y2="56"/><line style="stroke:#181818;stroke-width:0.5;" x1="8249" x2="8249" y1="56" y2="92.2969"/><text fill="#000000" font-family="sans-serif" font-size="14" lengthAdjust="spacing" textLength="106" x="8128" y="78.9951">Placeholder_31</text></g><!--entity Placeholder_33--><g id="elem_Placeholder_33"><polygon fill="#F1F1F1" points="8294,56,8304,46,8440,46,8440,82.2969,8430,92.2969,8294,92.2969,8294,56" style="stroke:#181818;stroke-width:0.5;"/><line style="stroke:#181818;stroke-width:0.5;" x1="8430" x2="8440" y1="56" y2="46"/><line style="stroke:#181818;stroke-width:0.5;" x1="8294" x2="8430" y1="56" y2="56"/><line style="stroke:#181818;stroke-width:0.5;" x1="8430" x2="8430" y1="56" y2="92.2969"/><text fill="#000000" font-family="sans-serif" font-size="14" lengthAdjust="spacing" textLength="106" x="8309" y="78.9951">Placeholder_33</text></g><!--link aName to aName--><g id="link_aName_aName"><path d="M8563.27,67.52 C8582.02,67.4 8598,67.9 8598,69 C8598,70.1 8582.02,70.6 8563.27,70.48 " fill="none" id="aName-aName" style="stroke:#181818;stroke-width:1.0;"/><text fill="#000000" font-family="sans-serif" font-size="13" lengthAdjust="spacing" textLength="455" x="8611" y="73.5669">org_openmrs_module_webservices_rest_web_api_RestService_Provider</text><path d="M8556.1538,60.4943 A10,10 0 0 0 8556.2443 74.6362" fill="none" style="stroke:#181818;stroke-width:1.5;"/><ellipse cx="8563.27" cy="67.52" fill="#FFFFFF" rx="6" ry="6" style="stroke:#181818;stroke-width:1.5;"/></g><!--link aName to aName--><g id="link_aName_aName"><path d="M8563.23,67.51 C8697.86,65.08 9079,65.58 9079,69 C9079,72.42 8697.86,72.92 8563.23,70.49 " fill="none" id="aName-aName-1" style="stroke:#181818;stroke-width:1.0;"/><text fill="#000000" font-family="sans-serif" font-size="13" lengthAdjust="spacing" textLength="455" x="9092" y="73.5669">org_openmrs_module_webservices_rest_web_api_RestService_Provider</text><path d="M8556.0325,60.5677 A10,10 0 0 0 8556.2877 74.7075" fill="none" style="stroke:#181818;stroke-width:1.5;"/><ellipse cx="8563.23" cy="67.51" fill="#FFFFFF" rx="6" ry="6" style="stroke:#181818;stroke-width:1.5;"/></g><!--link aName to aName--><g id="link_aName_aName"><path d="M8563.21,67.32 C8765.02,63.07 9560,63.63 9560,69 C9560,74.37 8765.02,74.93 8563.21,70.68 " fill="none" id="aName-aName-2" style="stroke:#181818;stroke-width:1.0;"/><text fill="#000000" font-family="sans-serif" font-size="13" lengthAdjust="spacing" textLength="455" x="9573" y="73.5669">org_openmrs_module_webservices_rest_web_api_RestService_Provider</text><path d="M8555.9916,60.3994 A10,10 0 0 0 8556.2894 74.5384" fill="none" style="stroke:#181818;stroke-width:1.5;"/><ellipse cx="8563.21" cy="67.32" fill="#FFFFFF" rx="6" ry="6" style="stroke:#181818;stroke-width:1.5;"/></g><!--link aName to aName--><g id="link_aName_aName"><path d="M8563.18,67.13 C8817.99,61.06 10041,61.68 10041,69 C10041,76.32 8817.99,76.94 8563.18,70.87 " fill="none" id="aName-aName-3" style="stroke:#181818;stroke-width:1.0;"/><text fill="#000000" font-family="sans-serif" font-size="13" lengthAdjust="spacing" textLength="455" x="10054" y="73.5669">org_openmrs_module_webservices_rest_web_api_RestService_Provider</text><path d="M8555.9425,60.2293 A10,10 0 0 0 8556.2793 74.3675" fill="none" style="stroke:#181818;stroke-width:1.5;"/><ellipse cx="8563.18" cy="67.13" fill="#FFFFFF" rx="6" ry="6" style="stroke:#181818;stroke-width:1.5;"/></g><!--link aName to aName--><g id="link_aName_aName"><path d="M8563.44,66.96 C8864.36,59.05 10522,59.73 10522,69 C10522,78.27 8864.36,78.95 8563.44,71.04 " fill="none" id="aName-aName-4" style="stroke:#181818;stroke-width:1.0;"/><text fill="#000000" font-family="sans-serif" font-size="13" lengthAdjust="spacing" textLength="455" x="10535" y="73.5669">org_openmrs_module_webservices_rest_web_api_RestService_Provider</text><path d="M8556.1856,60.0772 A10,10 0 0 0 8556.5572 74.2144" fill="none" style="stroke:#181818;stroke-width:1.5;"/><ellipse cx="8563.44" cy="66.96" fill="#FFFFFF" rx="6" ry="6" style="stroke:#181818;stroke-width:1.5;"/></g><!--link aName to aName--><g id="link_aName_aName"><path d="M8563.22,66.82 C8904.08,57.05 11003,57.78 11003,69 C11003,80.22 8904.08,80.95 8563.22,71.18 " fill="none" id="aName-aName-5" style="stroke:#181818;stroke-width:1.0;"/><text fill="#000000" font-family="sans-serif" font-size="13" lengthAdjust="spacing" textLength="455" x="11016" y="73.5669">org_openmrs_module_webservices_rest_web_api_RestService_Provider</text><path d="M8555.9492,59.9544 A10,10 0 0 0 8556.3544 74.0908" fill="none" style="stroke:#181818;stroke-width:1.5;"/><ellipse cx="8563.22" cy="66.82" fill="#FFFFFF" rx="6" ry="6" style="stroke:#181818;stroke-width:1.5;"/></g><!--link aName to aName--><g id="link_aName_aName"><path d="M8563.06,66.69 C8940.34,55.05 11484,55.82 11484,69 C11484,82.18 8940.34,82.95 8563.06,71.31 " fill="none" id="aName-aName-6" style="stroke:#181818;stroke-width:1.0;"/><text fill="#000000" font-family="sans-serif" font-size="13" lengthAdjust="spacing" textLength="455" x="11497" y="73.5669">org_openmrs_module_webservices_rest_web_api_RestService_Provider</text><path d="M8555.7742,59.8404 A10,10 0 0 0 8556.2104 73.9758" fill="none" style="stroke:#181818;stroke-width:1.5;"/><ellipse cx="8563.06" cy="66.69" fill="#FFFFFF" rx="6" ry="6" style="stroke:#181818;stroke-width:1.5;"/></g><!--link aName to aName--><g id="link_aName_aName"><path d="M8563.02,66.57 C8974.4,53.05 11965,53.86 11965,69 C11965,84.14 8974.4,84.95 8563.02,71.43 " fill="none" id="aName-aName-7" style="stroke:#181818;stroke-width:1.0;"/><text fill="#000000" font-family="sans-serif" font-size="13" lengthAdjust="spacing" textLength="455" x="11978" y="73.5669">org_openmrs_module_webservices_rest_web_api_RestService_Provider</text><path d="M8555.7205,59.735 A10,10 0 0 0 8556.185 73.8695" fill="none" style="stroke:#181818;stroke-width:1.5;"/><ellipse cx="8563.02" cy="66.57" fill="#FFFFFF" rx="6" ry="6" style="stroke:#181818;stroke-width:1.5;"/></g><!--link aName to aName--><g id="link_aName_aName"><path d="M8563.05,66.46 C9006.7,51.04 12446,51.89 12446,69 C12446,86.11 9006.7,86.96 8563.05,71.54 " fill="none" id="aName-aName-8" style="stroke:#181818;stroke-width:1.0;"/><text fill="#000000" font-family="sans-serif" font-size="13" lengthAdjust="spacing" textLength="455" x="12459" y="73.5669">org_openmrs_module_webservices_rest_web_api_RestService_Provider</text><path d="M8555.7376,59.6388 A10,10 0 0 0 8556.2288 73.7724" fill="none" style="stroke:#181818;stroke-width:1.5;"/><ellipse cx="8563.05" cy="66.46" fill="#FFFFFF" rx="6" ry="6" style="stroke:#181818;stroke-width:1.5;"/></g><!--link aName to aName--><g id="link_aName_aName"><path d="M8563.19,66.35 C9037.89,49.04 12927,49.93 12927,69 C12927,88.07 9037.89,88.96 8563.19,71.65 " fill="none" id="aName-aName-9" style="stroke:#181818;stroke-width:1.0;"/><text fill="#000000" font-family="sans-serif" font-size="13" lengthAdjust="spacing" textLength="455" x="12940" y="73.5669">org_openmrs_module_webservices_rest_web_api_RestService_Provider</text><path d="M8555.866,59.5413 A10,10 0 0 0 8556.3813 73.674" fill="none" style="stroke:#181818;stroke-width:1.5;"/><ellipse cx="8563.19" cy="66.35" fill="#FFFFFF" rx="6" ry="6" style="stroke:#181818;stroke-width:1.5;"/></g><!--link aName to aName--><g id="link_aName_aName"><path d="M8563.34,66.24 C9067.75,47.04 13408,47.96 13408,69 C13408,90.04 9067.75,90.96 8563.34,71.76 " fill="none" id="aName-aName-10" style="stroke:#181818;stroke-width:1.0;"/><text fill="#000000" font-family="sans-serif" font-size="13" lengthAdjust="spacing" textLength="546" x="13421" y="73.5669">org_openmrs_module_webservices_rest_web_v1_0_controller_BaseUriSetup_Provider</text><path d="M8556.0051,59.443 A10,10 0 0 0 8556.543 73.5749" fill="none" style="stroke:#181818;stroke-width:1.5;"/><ellipse cx="8563.34" cy="66.24" fill="#FFFFFF" rx="6" ry="6" style="stroke:#181818;stroke-width:1.5;"/></g><!--link aName to aName--><g id="link_aName_aName"><path d="M8563.31,66.17 C9100.03,45.04 13980,45.98 13980,69 C13980,92.02 9100.03,92.96 8563.31,71.83 " fill="none" id="aName-aName-11" style="stroke:#181818;stroke-width:1.0;"/><text fill="#000000" font-family="sans-serif" font-size="13" lengthAdjust="spacing" textLength="546" x="13993" y="73.5669">org_openmrs_module_webservices_rest_web_v1_0_controller_BaseUriSetup_Provider</text><path d="M8555.9662,59.3826 A10,10 0 0 0 8556.5226 73.5138" fill="none" style="stroke:#181818;stroke-width:1.5;"/><ellipse cx="8563.31" cy="66.17" fill="#FFFFFF" rx="6" ry="6" style="stroke:#181818;stroke-width:1.5;"/></g><!--link aName to aName--><g id="link_aName_aName"><path d="M8563.03,66.11 C9129.21,43.04 14552,44 14552,69 C14552,94 9129.21,94.96 8563.03,71.89 " fill="none" id="aName-aName-12" style="stroke:#181818;stroke-width:1.0;"/><text fill="#000000" font-family="sans-serif" font-size="13" lengthAdjust="spacing" textLength="609" x="14565" y="73.5669">org_openmrs_module_webservices_rest_web_v1_0_controller_MainResourceController_Provider</text><path d="M8555.6769,59.3327 A10,10 0 0 0 8556.2527 73.4631" fill="none" style="stroke:#181818;stroke-width:1.5;"/><ellipse cx="8563.03" cy="66.11" fill="#FFFFFF" rx="6" ry="6" style="stroke:#181818;stroke-width:1.5;"/></g><!--link aName to aName--><g id="link_aName_aName"><path d="M8563.32,66.04 C9163.64,41.04 15187,42.03 15187,69 C15187,95.97 9163.64,96.96 8563.32,71.96 " fill="none" id="aName-aName-13" style="stroke:#181818;stroke-width:1.0;"/><text fill="#000000" font-family="sans-serif" font-size="13" lengthAdjust="spacing" textLength="617" x="15200" y="73.5669">org_openmrs_module_webservices_rest_web_v1_0_controller_openmrs1_8_ObsService_Provider</text><path d="M8555.9608,59.2693 A10,10 0 0 0 8556.5493 73.3992" fill="none" style="stroke:#181818;stroke-width:1.5;"/><ellipse cx="8563.32" cy="66.04" fill="#FFFFFF" rx="6" ry="6" style="stroke:#181818;stroke-width:1.5;"/></g><!--link aName to aName--><g id="link_aName_aName"><path d="M8563.13,65.99 C9193.87,39.04 15830,40.04 15830,69 C15830,97.96 9193.87,98.96 8563.13,72.01 " fill="none" id="aName-aName-14" style="stroke:#181818;stroke-width:1.0;"/><text fill="#000000" font-family="sans-serif" font-size="13" lengthAdjust="spacing" textLength="622" x="15843" y="73.5669">org_openmrs_module_webservices_rest_web_v1_0_controller_openmrs1_8_UserService_Provider</text><path d="M8555.7635,59.2272 A10,10 0 0 0 8556.3672 73.3565" fill="none" style="stroke:#181818;stroke-width:1.5;"/><ellipse cx="8563.13" cy="65.99" fill="#FFFFFF" rx="6" ry="6" style="stroke:#181818;stroke-width:1.5;"/></g><!--link aName to aName--><g id="link_aName_aName"><path d="M8563.49,65.92 C9226.94,37.04 16478,38.06 16478,69 C16478,99.94 9226.94,100.96 8563.49,72.08 " fill="none" id="aName-aName-15" style="stroke:#181818;stroke-width:1.0;"/><text fill="#000000" font-family="sans-serif" font-size="13" lengthAdjust="spacing" textLength="745" x="16491" y="73.5669">org_openmrs_module_webservices_rest_web_v1_0_controller_openmrs1_9_ClobDatatypeStorageController_Provider</text><path d="M8556.1181,59.1631 A10,10 0 0 0 8556.7331 73.2919" fill="none" style="stroke:#181818;stroke-width:1.5;"/><ellipse cx="8563.49" cy="65.92" fill="#FFFFFF" rx="6" ry="6" style="stroke:#181818;stroke-width:1.5;"/></g><!--link aName to aName--><g id="link_aName_aName"><path d="M8563.05,65.9 C9258.01,35.03 17249,36.07 17249,69 C17249,101.93 9258.01,102.97 8563.05,72.1 " fill="none" id="aName-aName-16" style="stroke:#181818;stroke-width:1.0;"/><text fill="#000000" font-family="sans-serif" font-size="13" lengthAdjust="spacing" textLength="651" x="17262" y="73.5669">org_openmrs_module_webservices_rest_web_v1_0_controller_openmrs1_9_DatatypeService_Provider</text><path d="M8555.6721,59.1497 A10,10 0 0 0 8556.2997 73.2779" fill="none" style="stroke:#181818;stroke-width:1.5;"/><ellipse cx="8563.05" cy="65.9" fill="#FFFFFF" rx="6" ry="6" style="stroke:#181818;stroke-width:1.5;"/></g><!--link aName to aName--><g id="link_aName_aName"><path d="M8563.26,65.84 C9289.04,33.03 17926,34.09 17926,69 C17926,103.91 9289.04,104.97 8563.26,72.16 " fill="none" id="aName-aName-17" style="stroke:#181818;stroke-width:1.0;"/><text fill="#000000" font-family="sans-serif" font-size="13" lengthAdjust="spacing" textLength="625" x="17939" y="73.5669">org_openmrs_module_webservices_rest_web_v1_0_controller_openmrs1_9_FormService_Provider</text><path d="M8555.8768,59.0955 A10,10 0 0 0 8556.5155 73.2232" fill="none" style="stroke:#181818;stroke-width:1.5;"/><ellipse cx="8563.26" cy="65.84" fill="#FFFFFF" rx="6" ry="6" style="stroke:#181818;stroke-width:1.5;"/></g><!--link aName to aName--><g id="link_aName_aName"><path d="M8563.11,65.8 C9315.41,31.03 18577,32.1 18577,69 C18577,105.9 9315.41,106.97 8563.11,72.2 " fill="none" id="aName-aName-18" style="stroke:#181818;stroke-width:1.0;"/><text fill="#000000" font-family="sans-serif" font-size="13" lengthAdjust="spacing" textLength="622" x="18590" y="73.5669">org_openmrs_module_webservices_rest_web_v1_0_controller_openmrs2_2_UserService_Provider</text><path d="M8555.72,59.0629 A10,10 0 0 0 8556.3729 73.19" fill="none" style="stroke:#181818;stroke-width:1.5;"/><ellipse cx="8563.11" cy="65.8" fill="#FFFFFF" rx="6" ry="6" style="stroke:#181818;stroke-width:1.5;"/></g><!--SRC=[xPT1Jy9048Nl_8ecNhpKq6uBnQEW1mD299m8cInbm8tRRhFRWiJutoq1b4IFyX8JJirks_TrPj_CTjshoWjfPUOjrLjNsLHpNyvP3zTijImAbQ-yqbRSoCs2lP6MARyOlM1BekEzDwRoIMOyywPJKt2UMUSVhvbPL9hz3SyTsxLAsVcMNNdZjgxax8gs_kEWRpVHFRUMxJGRR9PLZpQpMUFZ9ofgmL1nW8jAm53jDWmbSAW8vy0GPui0PtRSKWKuhxT26Ae98oMue09WLU5G0bTLEAj7G5VWI41KWckrE5S8N5kAWGO4_bVW4eZBduXnGKMuii8rYmJe2fmj4k1kXNDWX6iMCT0MkErAu501hbj4G1IkCRM0TOMp1V0K33mQu5mXpjROZwB-TTFtZeDRpzWL7THfhqudwhHJtqsGB1GzruFn_WwDh5ch-eilkXVTY-xVwwu3Qb9gyj8QhUl6S2STJwmQSraL_nioa2glCsOgctBtU_fSkCCx0IKqdBjpBzC9RL8_3SDrgAlDl2TBMMuB7fV6oXKqkntwWkDYVZ0s0-522dzVqKy0]--></g></svg>