<?xml version="1.0" encoding="us-ascii" standalone="no"?><svg xmlns="http://www.w3.org/2000/svg" xmlns:xlink="http://www.w3.org/1999/xlink" contentStyleType="text/css" height="125px" preserveAspectRatio="none" style="width:5114px;height:125px;background:#FFFFFF;" version="1.1" viewBox="0 0 5114 125" width="5114px" zoomAndPan="magnify"><defs/><g><!--cluster Placeholder_4--><g id="cluster_Placeholder_4"><polygon fill="none" points="2139,16,2149,6,5097,6,5097,98,5087,108,2139,108,2139,16" style="stroke:#181818;stroke-width:1.0;"/><line style="stroke:#181818;stroke-width:1.0;" x1="5087" x2="5097" y1="16" y2="6"/><line style="stroke:#181818;stroke-width:1.0;" x1="2139" x2="5087" y1="16" y2="16"/><line style="stroke:#181818;stroke-width:1.0;" x1="5087" x2="5087" y1="16" y2="108"/><text fill="#000000" font-family="sans-serif" font-size="14" font-weight="bold" lengthAdjust="spacing" textLength="110" x="3559" y="31.9951">Placeholder_4</text></g><!--entity aName--><g id="elem_aName"><a href="spring-petclinic-spring-petclinic-microservices.system#_3KOLBrw4Ee63gOxIwUvoyw" target="_top" title="spring-petclinic-spring-petclinic-microservices.system#_3KOLBrw4Ee63gOxIwUvoyw" xlink:actuate="onRequest" xlink:href="spring-petclinic-spring-petclinic-microservices.system#_3KOLBrw4Ee63gOxIwUvoyw" xlink:show="new" xlink:title="spring-petclinic-spring-petclinic-microservices.system#_3KOLBrw4Ee63gOxIwUvoyw" xlink:type="simple"><rect fill="#F1F1F1" height="46.2969" rx="2.5" ry="2.5" style="stroke:#181818;stroke-width:0.5;" width="88" x="2155" y="46"/><rect fill="#F1F1F1" height="10" style="stroke:#181818;stroke-width:0.5;" width="15" x="2223" y="51"/><rect fill="#F1F1F1" height="2" style="stroke:#181818;stroke-width:0.5;" width="4" x="2221" y="53"/><rect fill="#F1F1F1" height="2" style="stroke:#181818;stroke-width:0.5;" width="4" x="2221" y="57"/><text fill="#000000" font-family="sans-serif" font-size="14" lengthAdjust="spacing" textLength="48" x="2170" y="78.9951">aName</text></a></g><!--entity Placeholder_20--><g id="elem_Placeholder_20"><polygon fill="#F1F1F1" points="16,56,26,46,162,46,162,82.2969,152,92.2969,16,92.2969,16,56" style="stroke:#181818;stroke-width:0.5;"/><line style="stroke:#181818;stroke-width:0.5;" x1="152" x2="162" y1="56" y2="46"/><line style="stroke:#181818;stroke-width:0.5;" x1="16" x2="152" y1="56" y2="56"/><line style="stroke:#181818;stroke-width:0.5;" x1="152" x2="152" y1="56" y2="92.2969"/><text fill="#000000" font-family="sans-serif" font-size="14" lengthAdjust="spacing" textLength="106" x="31" y="78.9951">Placeholder_20</text></g><!--entity Placeholder_1--><g id="elem_Placeholder_1"><polygon fill="#F1F1F1" points="197.5,56,207.5,46,334.5,46,334.5,82.2969,324.5,92.2969,197.5,92.2969,197.5,56" style="stroke:#181818;stroke-width:0.5;"/><line style="stroke:#181818;stroke-width:0.5;" x1="324.5" x2="334.5" y1="56" y2="46"/><line style="stroke:#181818;stroke-width:0.5;" x1="197.5" x2="324.5" y1="56" y2="56"/><line style="stroke:#181818;stroke-width:0.5;" x1="324.5" x2="324.5" y1="56" y2="92.2969"/><text fill="#000000" font-family="sans-serif" font-size="14" lengthAdjust="spacing" textLength="97" x="212.5" y="78.9951">Placeholder_1</text></g><!--entity Placeholder_19--><g id="elem_Placeholder_19"><polygon fill="#F1F1F1" points="370,56,380,46,516,46,516,82.2969,506,92.2969,370,92.2969,370,56" style="stroke:#181818;stroke-width:0.5;"/><line style="stroke:#181818;stroke-width:0.5;" x1="506" x2="516" y1="56" y2="46"/><line style="stroke:#181818;stroke-width:0.5;" x1="370" x2="506" y1="56" y2="56"/><line style="stroke:#181818;stroke-width:0.5;" x1="506" x2="506" y1="56" y2="92.2969"/><text fill="#000000" font-family="sans-serif" font-size="14" lengthAdjust="spacing" textLength="106" x="385" y="78.9951">Placeholder_19</text></g><!--entity Placeholder_8--><g id="elem_Placeholder_8"><polygon fill="#F1F1F1" points="551.5,56,561.5,46,688.5,46,688.5,82.2969,678.5,92.2969,551.5,92.2969,551.5,56" style="stroke:#181818;stroke-width:0.5;"/><line style="stroke:#181818;stroke-width:0.5;" x1="678.5" x2="688.5" y1="56" y2="46"/><line style="stroke:#181818;stroke-width:0.5;" x1="551.5" x2="678.5" y1="56" y2="56"/><line style="stroke:#181818;stroke-width:0.5;" x1="678.5" x2="678.5" y1="56" y2="92.2969"/><text fill="#000000" font-family="sans-serif" font-size="14" lengthAdjust="spacing" textLength="97" x="566.5" y="78.9951">Placeholder_8</text></g><!--entity Placeholder_16--><g id="elem_Placeholder_16"><polygon fill="#F1F1F1" points="724,56,734,46,870,46,870,82.2969,860,92.2969,724,92.2969,724,56" style="stroke:#181818;stroke-width:0.5;"/><line style="stroke:#181818;stroke-width:0.5;" x1="860" x2="870" y1="56" y2="46"/><line style="stroke:#181818;stroke-width:0.5;" x1="724" x2="860" y1="56" y2="56"/><line style="stroke:#181818;stroke-width:0.5;" x1="860" x2="860" y1="56" y2="92.2969"/><text fill="#000000" font-family="sans-serif" font-size="14" lengthAdjust="spacing" textLength="106" x="739" y="78.9951">Placeholder_16</text></g><!--entity Placeholder_15--><g id="elem_Placeholder_15"><polygon fill="#F1F1F1" points="905,56,915,46,1051,46,1051,82.2969,1041,92.2969,905,92.2969,905,56" style="stroke:#181818;stroke-width:0.5;"/><line style="stroke:#181818;stroke-width:0.5;" x1="1041" x2="1051" y1="56" y2="46"/><line style="stroke:#181818;stroke-width:0.5;" x1="905" x2="1041" y1="56" y2="56"/><line style="stroke:#181818;stroke-width:0.5;" x1="1041" x2="1041" y1="56" y2="92.2969"/><text fill="#000000" font-family="sans-serif" font-size="14" lengthAdjust="spacing" textLength="106" x="920" y="78.9951">Placeholder_15</text></g><!--entity Placeholder_14--><g id="elem_Placeholder_14"><polygon fill="#F1F1F1" points="1086,56,1096,46,1232,46,1232,82.2969,1222,92.2969,1086,92.2969,1086,56" style="stroke:#181818;stroke-width:0.5;"/><line style="stroke:#181818;stroke-width:0.5;" x1="1222" x2="1232" y1="56" y2="46"/><line style="stroke:#181818;stroke-width:0.5;" x1="1086" x2="1222" y1="56" y2="56"/><line style="stroke:#181818;stroke-width:0.5;" x1="1222" x2="1222" y1="56" y2="92.2969"/><text fill="#000000" font-family="sans-serif" font-size="14" lengthAdjust="spacing" textLength="106" x="1101" y="78.9951">Placeholder_14</text></g><!--entity Placeholder_23--><g id="elem_Placeholder_23"><polygon fill="#F1F1F1" points="1267,56,1277,46,1413,46,1413,82.2969,1403,92.2969,1267,92.2969,1267,56" style="stroke:#181818;stroke-width:0.5;"/><line style="stroke:#181818;stroke-width:0.5;" x1="1403" x2="1413" y1="56" y2="46"/><line style="stroke:#181818;stroke-width:0.5;" x1="1267" x2="1403" y1="56" y2="56"/><line style="stroke:#181818;stroke-width:0.5;" x1="1403" x2="1403" y1="56" y2="92.2969"/><text fill="#000000" font-family="sans-serif" font-size="14" lengthAdjust="spacing" textLength="106" x="1282" y="78.9951">Placeholder_23</text></g><!--entity Placeholder_12--><g id="elem_Placeholder_12"><polygon fill="#F1F1F1" points="1448,56,1458,46,1594,46,1594,82.2969,1584,92.2969,1448,92.2969,1448,56" style="stroke:#181818;stroke-width:0.5;"/><line style="stroke:#181818;stroke-width:0.5;" x1="1584" x2="1594" y1="56" y2="46"/><line style="stroke:#181818;stroke-width:0.5;" x1="1448" x2="1584" y1="56" y2="56"/><line style="stroke:#181818;stroke-width:0.5;" x1="1584" x2="1584" y1="56" y2="92.2969"/><text fill="#000000" font-family="sans-serif" font-size="14" lengthAdjust="spacing" textLength="106" x="1463" y="78.9951">Placeholder_12</text></g><!--entity Placeholder_7--><g id="elem_Placeholder_7"><polygon fill="#F1F1F1" points="1629.5,56,1639.5,46,1766.5,46,1766.5,82.2969,1756.5,92.2969,1629.5,92.2969,1629.5,56" style="stroke:#181818;stroke-width:0.5;"/><line style="stroke:#181818;stroke-width:0.5;" x1="1756.5" x2="1766.5" y1="56" y2="46"/><line style="stroke:#181818;stroke-width:0.5;" x1="1629.5" x2="1756.5" y1="56" y2="56"/><line style="stroke:#181818;stroke-width:0.5;" x1="1756.5" x2="1756.5" y1="56" y2="92.2969"/><text fill="#000000" font-family="sans-serif" font-size="14" lengthAdjust="spacing" textLength="97" x="1644.5" y="78.9951">Placeholder_7</text></g><!--entity Placeholder_5--><g id="elem_Placeholder_5"><polygon fill="#F1F1F1" points="1801.5,56,1811.5,46,1938.5,46,1938.5,82.2969,1928.5,92.2969,1801.5,92.2969,1801.5,56" style="stroke:#181818;stroke-width:0.5;"/><line style="stroke:#181818;stroke-width:0.5;" x1="1928.5" x2="1938.5" y1="56" y2="46"/><line style="stroke:#181818;stroke-width:0.5;" x1="1801.5" x2="1928.5" y1="56" y2="56"/><line style="stroke:#181818;stroke-width:0.5;" x1="1928.5" x2="1928.5" y1="56" y2="92.2969"/><text fill="#000000" font-family="sans-serif" font-size="14" lengthAdjust="spacing" textLength="97" x="1816.5" y="78.9951">Placeholder_5</text></g><!--entity Placeholder_17--><g id="elem_Placeholder_17"><polygon fill="#F1F1F1" points="1974,56,1984,46,2120,46,2120,82.2969,2110,92.2969,1974,92.2969,1974,56" style="stroke:#181818;stroke-width:0.5;"/><line style="stroke:#181818;stroke-width:0.5;" x1="2110" x2="2120" y1="56" y2="46"/><line style="stroke:#181818;stroke-width:0.5;" x1="1974" x2="2110" y1="56" y2="56"/><line style="stroke:#181818;stroke-width:0.5;" x1="2110" x2="2110" y1="56" y2="92.2969"/><text fill="#000000" font-family="sans-serif" font-size="14" lengthAdjust="spacing" textLength="106" x="1989" y="78.9951">Placeholder_17</text></g><!--link aName to aName--><g id="link_aName_aName"><path d="M2243.27,67.29 C2262.02,67.16 2278,67.73 2278,69 C2278,70.27 2262.02,70.84 2243.27,70.71 " fill="none" id="aName-aName" style="stroke:#181818;stroke-width:1.0;"/><text fill="#000000" font-family="sans-serif" font-size="13" lengthAdjust="spacing" textLength="549" x="2291" y="73.5669">org_springframework_samples_petclinic_customers_model_OwnerRepository_Provider</text><path d="M2236.1501,60.2681 A10,10 0 0 0 2236.2481 74.4099" fill="none" style="stroke:#181818;stroke-width:1.5;"/><ellipse cx="2243.27" cy="67.29" fill="#FFFFFF" rx="6" ry="6" style="stroke:#181818;stroke-width:1.5;"/></g><!--link aName to aName--><g id="link_aName_aName"><path d="M2243.19,67.39 C2392.36,64.48 2853,65.02 2853,69 C2853,72.98 2392.36,73.52 2243.19,70.61 " fill="none" id="aName-aName-1" style="stroke:#181818;stroke-width:1.0;"/><text fill="#000000" font-family="sans-serif" font-size="13" lengthAdjust="spacing" textLength="549" x="2866" y="73.5669">org_springframework_samples_petclinic_customers_model_OwnerRepository_Provider</text><path d="M2235.9824,60.4582 A10,10 0 0 0 2236.2582 74.5976" fill="none" style="stroke:#181818;stroke-width:1.5;"/><ellipse cx="2243.19" cy="67.39" fill="#FFFFFF" rx="6" ry="6" style="stroke:#181818;stroke-width:1.5;"/></g><!--link aName to aName--><g id="link_aName_aName"><path d="M2243.36,67.18 C2466.72,62.17 3428,62.77 3428,69 C3428,75.23 2466.72,75.83 2243.36,70.82 " fill="none" id="aName-aName-2" style="stroke:#181818;stroke-width:1.0;"/><text fill="#000000" font-family="sans-serif" font-size="13" lengthAdjust="spacing" textLength="530" x="3441" y="73.5669">org_springframework_samples_petclinic_customers_model_PetRepository_Provider</text><path d="M2236.1321,60.2693 A10,10 0 0 0 2236.4493 74.4079" fill="none" style="stroke:#181818;stroke-width:1.5;"/><ellipse cx="2243.36" cy="67.18" fill="#FFFFFF" rx="6" ry="6" style="stroke:#181818;stroke-width:1.5;"/></g><!--link aName to aName--><g id="link_aName_aName"><path d="M2243.08,66.99 C2522.24,59.86 3984,60.53 3984,69 C3984,77.47 2522.24,78.14 2243.08,71.01 " fill="none" id="aName-aName-3" style="stroke:#181818;stroke-width:1.0;"/><text fill="#000000" font-family="sans-serif" font-size="13" lengthAdjust="spacing" textLength="490" x="3997" y="73.5669">org_springframework_samples_petclinic_vets_model_VetRepository_Provider</text><path d="M2235.8307,60.1018 A10,10 0 0 0 2236.1918 74.2393" fill="none" style="stroke:#181818;stroke-width:1.5;"/><ellipse cx="2243.08" cy="66.99" fill="#FFFFFF" rx="6" ry="6" style="stroke:#181818;stroke-width:1.5;"/></g><!--link aName to aName--><g id="link_aName_aName"><path d="M2243.04,66.8 C2567.21,57.55 4500,58.29 4500,69 C4500,79.71 2567.21,80.45 2243.04,71.2 " fill="none" id="aName-aName-4" style="stroke:#181818;stroke-width:1.0;"/><text fill="#000000" font-family="sans-serif" font-size="13" lengthAdjust="spacing" textLength="500" x="4513" y="73.5669">org_springframework_samples_petclinic_visits_model_VisitRepository_Provider</text><path d="M2235.7701,59.9335 A10,10 0 0 0 2236.1735 74.0699" fill="none" style="stroke:#181818;stroke-width:1.5;"/><ellipse cx="2243.04" cy="66.8" fill="#FFFFFF" rx="6" ry="6" style="stroke:#181818;stroke-width:1.5;"/></g><!--SRC=[rTNFIyCm50VmU_-AW1SlbRdE-UEeU127BO9UIWanUwkF9KruBsjNnF_TYdINUNGP7by8tq- -a11UO-CLAIjMkBr3qWOMwWrCtW8PvJqsjGYqWQHnIn25KHhUdLa2oPduI4hrf2nKeYpPqx0rzH2qmGPrkhTWKPDZe1Ory1dt7C2UoEmnNznIDxk7ULRdsuVkfNLzLrN9vxuudKGdp-EBrz79g_Wbv_79Y_Za4Pv85h_bD3fv6LqymkKvUCanF3sTf68SReIZMlw4huPl0Jf7QydAUWCiTvhK6mxE0h6qmycDpBi6w1cyOmoEUbcGQt7eyH-L0iAV6os4CVxr4F4unEs0x-4tuWi0]--></g></svg>