<?xml version="1.0" encoding="us-ascii" standalone="no"?><svg xmlns="http://www.w3.org/2000/svg" xmlns:xlink="http://www.w3.org/1999/xlink" contentStyleType="text/css" height="125px" preserveAspectRatio="none" style="width:5090px;height:125px;background:#FFFFFF;" version="1.1" viewBox="0 0 5090 125" width="5090px" zoomAndPan="magnify"><defs/><g><!--cluster Placeholder_15--><g id="cluster_Placeholder_15"><polygon fill="none" points="2130.5,16,2140.5,6,5073.5,6,5073.5,98,5063.5,108,2130.5,108,2130.5,16" style="stroke:#181818;stroke-width:1.0;"/><line style="stroke:#181818;stroke-width:1.0;" x1="5063.5" x2="5073.5" y1="16" y2="6"/><line style="stroke:#181818;stroke-width:1.0;" x1="2130.5" x2="5063.5" y1="16" y2="16"/><line style="stroke:#181818;stroke-width:1.0;" x1="5063.5" x2="5063.5" y1="16" y2="108"/><text fill="#000000" font-family="sans-serif" font-size="14" font-weight="bold" lengthAdjust="spacing" textLength="120" x="3538" y="31.9951">Placeholder_15</text></g><!--entity aName--><g id="elem_aName"><a href="spring-petclinic-spring-petclinic-microservices.system#_yAXWV7tpEe6ekK0jHnqv9w" target="_top" title="spring-petclinic-spring-petclinic-microservices.system#_yAXWV7tpEe6ekK0jHnqv9w" xlink:actuate="onRequest" xlink:href="spring-petclinic-spring-petclinic-microservices.system#_yAXWV7tpEe6ekK0jHnqv9w" xlink:show="new" xlink:title="spring-petclinic-spring-petclinic-microservices.system#_yAXWV7tpEe6ekK0jHnqv9w" xlink:type="simple"><rect fill="#F1F1F1" height="46.2969" rx="2.5" ry="2.5" style="stroke:#181818;stroke-width:0.5;" width="88" x="2146.5" y="46"/><rect fill="#F1F1F1" height="10" style="stroke:#181818;stroke-width:0.5;" width="15" x="2214.5" y="51"/><rect fill="#F1F1F1" height="2" style="stroke:#181818;stroke-width:0.5;" width="4" x="2212.5" y="53"/><rect fill="#F1F1F1" height="2" style="stroke:#181818;stroke-width:0.5;" width="4" x="2212.5" y="57"/><text fill="#000000" font-family="sans-serif" font-size="14" lengthAdjust="spacing" textLength="48" x="2161.5" y="78.9951">aName</text></a></g><!--entity Placeholder_3--><g id="elem_Placeholder_3"><polygon fill="#F1F1F1" points="16,56,26,46,153,46,153,82.2969,143,92.2969,16,92.2969,16,56" style="stroke:#181818;stroke-width:0.5;"/><line style="stroke:#181818;stroke-width:0.5;" x1="143" x2="153" y1="56" y2="46"/><line style="stroke:#181818;stroke-width:0.5;" x1="16" x2="143" y1="56" y2="56"/><line style="stroke:#181818;stroke-width:0.5;" x1="143" x2="143" y1="56" y2="92.2969"/><text fill="#000000" font-family="sans-serif" font-size="14" lengthAdjust="spacing" textLength="97" x="31" y="78.9951">Placeholder_3</text></g><!--entity Placeholder_22--><g id="elem_Placeholder_22"><polygon fill="#F1F1F1" points="188.5,56,198.5,46,334.5,46,334.5,82.2969,324.5,92.2969,188.5,92.2969,188.5,56" style="stroke:#181818;stroke-width:0.5;"/><line style="stroke:#181818;stroke-width:0.5;" x1="324.5" x2="334.5" y1="56" y2="46"/><line style="stroke:#181818;stroke-width:0.5;" x1="188.5" x2="324.5" y1="56" y2="56"/><line style="stroke:#181818;stroke-width:0.5;" x1="324.5" x2="324.5" y1="56" y2="92.2969"/><text fill="#000000" font-family="sans-serif" font-size="14" lengthAdjust="spacing" textLength="106" x="203.5" y="78.9951">Placeholder_22</text></g><!--entity Placeholder_10--><g id="elem_Placeholder_10"><polygon fill="#F1F1F1" points="369.5,56,379.5,46,515.5,46,515.5,82.2969,505.5,92.2969,369.5,92.2969,369.5,56" style="stroke:#181818;stroke-width:0.5;"/><line style="stroke:#181818;stroke-width:0.5;" x1="505.5" x2="515.5" y1="56" y2="46"/><line style="stroke:#181818;stroke-width:0.5;" x1="369.5" x2="505.5" y1="56" y2="56"/><line style="stroke:#181818;stroke-width:0.5;" x1="505.5" x2="505.5" y1="56" y2="92.2969"/><text fill="#000000" font-family="sans-serif" font-size="14" lengthAdjust="spacing" textLength="106" x="384.5" y="78.9951">Placeholder_10</text></g><!--entity Placeholder_6--><g id="elem_Placeholder_6"><polygon fill="#F1F1F1" points="551,56,561,46,688,46,688,82.2969,678,92.2969,551,92.2969,551,56" style="stroke:#181818;stroke-width:0.5;"/><line style="stroke:#181818;stroke-width:0.5;" x1="678" x2="688" y1="56" y2="46"/><line style="stroke:#181818;stroke-width:0.5;" x1="551" x2="678" y1="56" y2="56"/><line style="stroke:#181818;stroke-width:0.5;" x1="678" x2="678" y1="56" y2="92.2969"/><text fill="#000000" font-family="sans-serif" font-size="14" lengthAdjust="spacing" textLength="97" x="566" y="78.9951">Placeholder_6</text></g><!--entity Placeholder_23--><g id="elem_Placeholder_23"><polygon fill="#F1F1F1" points="723.5,56,733.5,46,869.5,46,869.5,82.2969,859.5,92.2969,723.5,92.2969,723.5,56" style="stroke:#181818;stroke-width:0.5;"/><line style="stroke:#181818;stroke-width:0.5;" x1="859.5" x2="869.5" y1="56" y2="46"/><line style="stroke:#181818;stroke-width:0.5;" x1="723.5" x2="859.5" y1="56" y2="56"/><line style="stroke:#181818;stroke-width:0.5;" x1="859.5" x2="859.5" y1="56" y2="92.2969"/><text fill="#000000" font-family="sans-serif" font-size="14" lengthAdjust="spacing" textLength="106" x="738.5" y="78.9951">Placeholder_23</text></g><!--entity Placeholder_11--><g id="elem_Placeholder_11"><polygon fill="#F1F1F1" points="904.5,56,914.5,46,1050.5,46,1050.5,82.2969,1040.5,92.2969,904.5,92.2969,904.5,56" style="stroke:#181818;stroke-width:0.5;"/><line style="stroke:#181818;stroke-width:0.5;" x1="1040.5" x2="1050.5" y1="56" y2="46"/><line style="stroke:#181818;stroke-width:0.5;" x1="904.5" x2="1040.5" y1="56" y2="56"/><line style="stroke:#181818;stroke-width:0.5;" x1="1040.5" x2="1040.5" y1="56" y2="92.2969"/><text fill="#000000" font-family="sans-serif" font-size="14" lengthAdjust="spacing" textLength="106" x="919.5" y="78.9951">Placeholder_11</text></g><!--entity Placeholder_2--><g id="elem_Placeholder_2"><polygon fill="#F1F1F1" points="1086,56,1096,46,1223,46,1223,82.2969,1213,92.2969,1086,92.2969,1086,56" style="stroke:#181818;stroke-width:0.5;"/><line style="stroke:#181818;stroke-width:0.5;" x1="1213" x2="1223" y1="56" y2="46"/><line style="stroke:#181818;stroke-width:0.5;" x1="1086" x2="1213" y1="56" y2="56"/><line style="stroke:#181818;stroke-width:0.5;" x1="1213" x2="1213" y1="56" y2="92.2969"/><text fill="#000000" font-family="sans-serif" font-size="14" lengthAdjust="spacing" textLength="97" x="1101" y="78.9951">Placeholder_2</text></g><!--entity Placeholder_17--><g id="elem_Placeholder_17"><polygon fill="#F1F1F1" points="1258.5,56,1268.5,46,1404.5,46,1404.5,82.2969,1394.5,92.2969,1258.5,92.2969,1258.5,56" style="stroke:#181818;stroke-width:0.5;"/><line style="stroke:#181818;stroke-width:0.5;" x1="1394.5" x2="1404.5" y1="56" y2="46"/><line style="stroke:#181818;stroke-width:0.5;" x1="1258.5" x2="1394.5" y1="56" y2="56"/><line style="stroke:#181818;stroke-width:0.5;" x1="1394.5" x2="1394.5" y1="56" y2="92.2969"/><text fill="#000000" font-family="sans-serif" font-size="14" lengthAdjust="spacing" textLength="106" x="1273.5" y="78.9951">Placeholder_17</text></g><!--entity Placeholder_14--><g id="elem_Placeholder_14"><polygon fill="#F1F1F1" points="1439.5,56,1449.5,46,1585.5,46,1585.5,82.2969,1575.5,92.2969,1439.5,92.2969,1439.5,56" style="stroke:#181818;stroke-width:0.5;"/><line style="stroke:#181818;stroke-width:0.5;" x1="1575.5" x2="1585.5" y1="56" y2="46"/><line style="stroke:#181818;stroke-width:0.5;" x1="1439.5" x2="1575.5" y1="56" y2="56"/><line style="stroke:#181818;stroke-width:0.5;" x1="1575.5" x2="1575.5" y1="56" y2="92.2969"/><text fill="#000000" font-family="sans-serif" font-size="14" lengthAdjust="spacing" textLength="106" x="1454.5" y="78.9951">Placeholder_14</text></g><!--entity Placeholder_21--><g id="elem_Placeholder_21"><polygon fill="#F1F1F1" points="1620.5,56,1630.5,46,1766.5,46,1766.5,82.2969,1756.5,92.2969,1620.5,92.2969,1620.5,56" style="stroke:#181818;stroke-width:0.5;"/><line style="stroke:#181818;stroke-width:0.5;" x1="1756.5" x2="1766.5" y1="56" y2="46"/><line style="stroke:#181818;stroke-width:0.5;" x1="1620.5" x2="1756.5" y1="56" y2="56"/><line style="stroke:#181818;stroke-width:0.5;" x1="1756.5" x2="1756.5" y1="56" y2="92.2969"/><text fill="#000000" font-family="sans-serif" font-size="14" lengthAdjust="spacing" textLength="106" x="1635.5" y="78.9951">Placeholder_21</text></g><!--entity Placeholder_4--><g id="elem_Placeholder_4"><polygon fill="#F1F1F1" points="1802,56,1812,46,1939,46,1939,82.2969,1929,92.2969,1802,92.2969,1802,56" style="stroke:#181818;stroke-width:0.5;"/><line style="stroke:#181818;stroke-width:0.5;" x1="1929" x2="1939" y1="56" y2="46"/><line style="stroke:#181818;stroke-width:0.5;" x1="1802" x2="1929" y1="56" y2="56"/><line style="stroke:#181818;stroke-width:0.5;" x1="1929" x2="1929" y1="56" y2="92.2969"/><text fill="#000000" font-family="sans-serif" font-size="14" lengthAdjust="spacing" textLength="97" x="1817" y="78.9951">Placeholder_4</text></g><!--entity Placeholder_9--><g id="elem_Placeholder_9"><polygon fill="#F1F1F1" points="1974,56,1984,46,2111,46,2111,82.2969,2101,92.2969,1974,92.2969,1974,56" style="stroke:#181818;stroke-width:0.5;"/><line style="stroke:#181818;stroke-width:0.5;" x1="2101" x2="2111" y1="56" y2="46"/><line style="stroke:#181818;stroke-width:0.5;" x1="1974" x2="2101" y1="56" y2="56"/><line style="stroke:#181818;stroke-width:0.5;" x1="2101" x2="2101" y1="56" y2="92.2969"/><text fill="#000000" font-family="sans-serif" font-size="14" lengthAdjust="spacing" textLength="97" x="1989" y="78.9951">Placeholder_9</text></g><!--link aName to aName--><g id="link_aName_aName"><path d="M2234.77,67.29 C2253.52,67.16 2269.5,67.73 2269.5,69 C2269.5,70.27 2253.52,70.84 2234.77,70.71 " fill="none" id="aName-aName" style="stroke:#181818;stroke-width:1.0;"/><text fill="#000000" font-family="sans-serif" font-size="13" lengthAdjust="spacing" textLength="546" x="2282.5" y="73.5669">org_springframework_samples_petclinic_customers_model_OwnerRepository Provider</text><path d="M2227.6501,60.2681 A10,10 0 0 0 2227.7481 74.4099" fill="none" style="stroke:#181818;stroke-width:1.5;"/><ellipse cx="2234.77" cy="67.29" fill="#FFFFFF" rx="6" ry="6" style="stroke:#181818;stroke-width:1.5;"/></g><!--link aName to aName--><g id="link_aName_aName"><path d="M2234.54,67.39 C2383.11,64.48 2841.5,65.02 2841.5,69 C2841.5,72.98 2383.11,73.52 2234.54,70.61 " fill="none" id="aName-aName-1" style="stroke:#181818;stroke-width:1.0;"/><text fill="#000000" font-family="sans-serif" font-size="13" lengthAdjust="spacing" textLength="546" x="2854.5" y="73.5669">org_springframework_samples_petclinic_customers_model_OwnerRepository Provider</text><path d="M2227.3318,60.4588 A10,10 0 0 0 2227.6088 74.5982" fill="none" style="stroke:#181818;stroke-width:1.5;"/><ellipse cx="2234.54" cy="67.39" fill="#FFFFFF" rx="6" ry="6" style="stroke:#181818;stroke-width:1.5;"/></g><!--link aName to aName--><g id="link_aName_aName"><path d="M2234.7,67.18 C2457.11,62.17 3413.5,62.77 3413.5,69 C3413.5,75.23 2457.11,75.83 2234.7,70.82 " fill="none" id="aName-aName-2" style="stroke:#181818;stroke-width:1.0;"/><text fill="#000000" font-family="sans-serif" font-size="13" lengthAdjust="spacing" textLength="527" x="3426.5" y="73.5669">org_springframework_samples_petclinic_customers_model_PetRepository Provider</text><path d="M2227.4715,60.27 A10,10 0 0 0 2227.79 74.4085" fill="none" style="stroke:#181818;stroke-width:1.5;"/><ellipse cx="2234.7" cy="67.18" fill="#FFFFFF" rx="6" ry="6" style="stroke:#181818;stroke-width:1.5;"/></g><!--link aName to aName--><g id="link_aName_aName"><path d="M2234.87,66.98 C2513.91,59.86 3966.5,60.53 3966.5,69 C3966.5,77.47 2513.91,78.14 2234.87,71.02 " fill="none" id="aName-aName-3" style="stroke:#181818;stroke-width:1.0;"/><text fill="#000000" font-family="sans-serif" font-size="13" lengthAdjust="spacing" textLength="487" x="3979.5" y="73.5669">org_springframework_samples_petclinic_vets_model_VetRepository Provider</text><path d="M2227.6209,60.0916 A10,10 0 0 0 2227.9816 74.2291" fill="none" style="stroke:#181818;stroke-width:1.5;"/><ellipse cx="2234.87" cy="66.98" fill="#FFFFFF" rx="6" ry="6" style="stroke:#181818;stroke-width:1.5;"/></g><!--link aName to aName--><g id="link_aName_aName"><path d="M2234.63,66.79 C2558.13,57.55 4479.5,58.29 4479.5,69 C4479.5,79.71 2558.13,80.45 2234.63,71.21 " fill="none" id="aName-aName-4" style="stroke:#181818;stroke-width:1.0;"/><text fill="#000000" font-family="sans-serif" font-size="13" lengthAdjust="spacing" textLength="497" x="4492.5" y="73.5669">org_springframework_samples_petclinic_visits_model_VisitRepository Provider</text><path d="M2227.3599,59.9237 A10,10 0 0 0 2227.7637 74.0601" fill="none" style="stroke:#181818;stroke-width:1.5;"/><ellipse cx="2234.63" cy="66.79" fill="#FFFFFF" rx="6" ry="6" style="stroke:#181818;stroke-width:1.5;"/></g><!--SRC=[rPLDIyD048Rl-HKBNhn4agejzIOY28eD7geGmh9kftNCVZcxtHZ4_sv4qaizsWMFimpFC-_CONsBnWaIcgtn_Gf9AhWJpw0M4KW9vz1iMA0jPCQkW5LAI7YnQWN4otFsaTNYNcXeM5rxHqDlxY18XGPbllUWKPBrG14b-1FV-m3wYFUNJu_BMN3NC8NsjdYzCMzntZLDzhclF4rkd4oIAyiYkNAQVg_fJrcMwLEc3pbBhpnBlzVqfqmVSdveumZFZukSZSK5ixJXF_3ry2r0PwdbNcYdmFETZSkj3rO3UQw7mHLVT0Re0Ppr62prh28RSOZn7oqLX3ztH0WZVda8F0wudU2x-4tn1G00]--></g></svg>