<?xml version="1.0" encoding="us-ascii" standalone="no"?><svg xmlns="http://www.w3.org/2000/svg" xmlns:xlink="http://www.w3.org/1999/xlink" contentStyleType="text/css" height="228px" preserveAspectRatio="none" style="width:4541px;height:228px;background:#FFFFFF;" version="1.1" viewBox="0 0 4541 228" width="4541px" zoomAndPan="magnify"><defs/><g><!--cluster nodeGateway--><g id="cluster_nodeGateway"><polygon fill="none" points="1477,103.12,1487,93.12,1662,93.12,1662,201.12,1652,211.12,1477,211.12,1477,103.12" style="stroke:#181818;stroke-width:1.0;"/><line style="stroke:#181818;stroke-width:1.0;" x1="1652" x2="1662" y1="103.12" y2="93.12"/><line style="stroke:#181818;stroke-width:1.0;" x1="1477" x2="1652" y1="103.12" y2="103.12"/><line style="stroke:#181818;stroke-width:1.0;" x1="1652" x2="1652" y1="103.12" y2="211.12"/><text fill="#000000" font-family="sans-serif" font-size="14" font-weight="bold" lengthAdjust="spacing" textLength="109" x="1511" y="119.1151">nodeGateway</text></g><!--cluster nodeteammates_common_util_Logger_Provider--><g id="cluster_nodeteammates_common_util_Logger_Provider"><polygon fill="none" points="16,103.12,26,93.12,461,93.12,461,201.12,451,211.12,16,211.12,16,103.12" style="stroke:#181818;stroke-width:1.0;"/><line style="stroke:#181818;stroke-width:1.0;" x1="451" x2="461" y1="103.12" y2="93.12"/><line style="stroke:#181818;stroke-width:1.0;" x1="16" x2="451" y1="103.12" y2="103.12"/><line style="stroke:#181818;stroke-width:1.0;" x1="451" x2="451" y1="103.12" y2="211.12"/><text fill="#000000" font-family="sans-serif" font-size="14" font-weight="bold" lengthAdjust="spacing" textLength="369" x="50" y="119.1151">nodeteammates_common_util_Logger_Provider</text></g><!--cluster nodeteammates_ui_servlets_DevServerLoginServlet--><g id="cluster_nodeteammates_ui_servlets_DevServerLoginServlet"><polygon fill="none" points="4040,111.12,4050,101.12,4524,101.12,4524,193.12,4514,203.12,4040,203.12,4040,111.12" style="stroke:#181818;stroke-width:1.0;"/><line style="stroke:#181818;stroke-width:1.0;" x1="4514" x2="4524" y1="111.12" y2="101.12"/><line style="stroke:#181818;stroke-width:1.0;" x1="4040" x2="4514" y1="111.12" y2="111.12"/><line style="stroke:#181818;stroke-width:1.0;" x1="4514" x2="4514" y1="111.12" y2="203.12"/><text fill="#000000" font-family="sans-serif" font-size="14" font-weight="bold" lengthAdjust="spacing" textLength="408" x="4074" y="127.1151">nodeteammates_ui_servlets_DevServerLoginServlet</text></g><!--cluster nodeteammates_ui_servlets_HealthCheckServlet--><g id="cluster_nodeteammates_ui_servlets_HealthCheckServlet"><polygon fill="none" points="980,103.12,990,93.12,1437,93.12,1437,201.12,1427,211.12,980,211.12,980,103.12" style="stroke:#181818;stroke-width:1.0;"/><line style="stroke:#181818;stroke-width:1.0;" x1="1427" x2="1437" y1="103.12" y2="93.12"/><line style="stroke:#181818;stroke-width:1.0;" x1="980" x2="1427" y1="103.12" y2="103.12"/><line style="stroke:#181818;stroke-width:1.0;" x1="1427" x2="1427" y1="103.12" y2="211.12"/><text fill="#000000" font-family="sans-serif" font-size="14" font-weight="bold" lengthAdjust="spacing" textLength="381" x="1014" y="119.1151">nodeteammates_ui_servlets_HealthCheckServlet</text></g><!--cluster nodeteammates_ui_servlets_LegacyUrlMapper--><g id="cluster_nodeteammates_ui_servlets_LegacyUrlMapper"><polygon fill="none" points="501,103.12,511,93.12,940,93.12,940,201.12,930,211.12,501,211.12,501,103.12" style="stroke:#181818;stroke-width:1.0;"/><line style="stroke:#181818;stroke-width:1.0;" x1="930" x2="940" y1="103.12" y2="93.12"/><line style="stroke:#181818;stroke-width:1.0;" x1="501" x2="930" y1="103.12" y2="103.12"/><line style="stroke:#181818;stroke-width:1.0;" x1="930" x2="930" y1="103.12" y2="211.12"/><text fill="#000000" font-family="sans-serif" font-size="14" font-weight="bold" lengthAdjust="spacing" textLength="363" x="535" y="119.1151">nodeteammates_ui_servlets_LegacyUrlMapper</text></g><!--cluster nodeteammates_ui_servlets_LoginServlet--><g id="cluster_nodeteammates_ui_servlets_LoginServlet"><polygon fill="none" points="1702,103.12,1712,93.12,2103,93.12,2103,201.12,2093,211.12,1702,211.12,1702,103.12" style="stroke:#181818;stroke-width:1.0;"/><line style="stroke:#181818;stroke-width:1.0;" x1="2093" x2="2103" y1="103.12" y2="93.12"/><line style="stroke:#181818;stroke-width:1.0;" x1="1702" x2="2093" y1="103.12" y2="103.12"/><line style="stroke:#181818;stroke-width:1.0;" x1="2093" x2="2093" y1="103.12" y2="211.12"/><text fill="#000000" font-family="sans-serif" font-size="14" font-weight="bold" lengthAdjust="spacing" textLength="325" x="1736" y="119.1151">nodeteammates_ui_servlets_LoginServlet</text></g><!--cluster nodeteammates_ui_servlets_LogoutServlet--><g id="cluster_nodeteammates_ui_servlets_LogoutServlet"><polygon fill="none" points="2143,103.12,2153,93.12,2556,93.12,2556,201.12,2546,211.12,2143,211.12,2143,103.12" style="stroke:#181818;stroke-width:1.0;"/><line style="stroke:#181818;stroke-width:1.0;" x1="2546" x2="2556" y1="103.12" y2="93.12"/><line style="stroke:#181818;stroke-width:1.0;" x1="2143" x2="2546" y1="103.12" y2="103.12"/><line style="stroke:#181818;stroke-width:1.0;" x1="2546" x2="2546" y1="103.12" y2="211.12"/><text fill="#000000" font-family="sans-serif" font-size="14" font-weight="bold" lengthAdjust="spacing" textLength="337" x="2177" y="119.1151">nodeteammates_ui_servlets_LogoutServlet</text></g><!--cluster nodeteammates_ui_servlets_OAuth2CallbackServlet--><g id="cluster_nodeteammates_ui_servlets_OAuth2CallbackServlet"><polygon fill="none" points="2596,103.12,2606,93.12,3078,93.12,3078,201.12,3068,211.12,2596,211.12,2596,103.12" style="stroke:#181818;stroke-width:1.0;"/><line style="stroke:#181818;stroke-width:1.0;" x1="3068" x2="3078" y1="103.12" y2="93.12"/><line style="stroke:#181818;stroke-width:1.0;" x1="2596" x2="3068" y1="103.12" y2="103.12"/><line style="stroke:#181818;stroke-width:1.0;" x1="3068" x2="3068" y1="103.12" y2="211.12"/><text fill="#000000" font-family="sans-serif" font-size="14" font-weight="bold" lengthAdjust="spacing" textLength="406" x="2630" y="119.1151">nodeteammates_ui_servlets_OAuth2CallbackServlet</text></g><!--cluster nodeteammates_ui_servlets_WebApiServlet--><g id="cluster_nodeteammates_ui_servlets_WebApiServlet"><polygon fill="none" points="3118,103.12,3128,93.12,3536,93.12,3536,201.12,3526,211.12,3118,211.12,3118,103.12" style="stroke:#181818;stroke-width:1.0;"/><line style="stroke:#181818;stroke-width:1.0;" x1="3526" x2="3536" y1="103.12" y2="93.12"/><line style="stroke:#181818;stroke-width:1.0;" x1="3118" x2="3526" y1="103.12" y2="103.12"/><line style="stroke:#181818;stroke-width:1.0;" x1="3526" x2="3526" y1="103.12" y2="211.12"/><text fill="#000000" font-family="sans-serif" font-size="14" font-weight="bold" lengthAdjust="spacing" textLength="342" x="3152" y="119.1151">nodeteammates_ui_servlets_WebApiServlet</text></g><!--cluster nodeteammates_ui_servlets_WebPageServlet--><g id="cluster_nodeteammates_ui_servlets_WebPageServlet"><polygon fill="none" points="3576,103.12,3586,93.12,4008,93.12,4008,201.12,3998,211.12,3576,211.12,3576,103.12" style="stroke:#181818;stroke-width:1.0;"/><line style="stroke:#181818;stroke-width:1.0;" x1="3998" x2="4008" y1="103.12" y2="93.12"/><line style="stroke:#181818;stroke-width:1.0;" x1="3576" x2="3998" y1="103.12" y2="103.12"/><line style="stroke:#181818;stroke-width:1.0;" x1="3998" x2="3998" y1="103.12" y2="211.12"/><text fill="#000000" font-family="sans-serif" font-size="14" font-weight="bold" lengthAdjust="spacing" textLength="356" x="3610" y="119.1151">nodeteammates_ui_servlets_WebPageServlet</text></g><!--entity Gateway--><g id="elem_Gateway"><a href="teammates-teammates-psr.system#_ixOaIHhMEe-iusCSuce18A" target="_top" title="teammates-teammates-psr.system#_ixOaIHhMEe-iusCSuce18A" xlink:actuate="onRequest" xlink:href="teammates-teammates-psr.system#_ixOaIHhMEe-iusCSuce18A" xlink:show="new" xlink:title="teammates-teammates-psr.system#_ixOaIHhMEe-iusCSuce18A" xlink:type="simple"><rect fill="#F1F1F1" height="46.2969" rx="2.5" ry="2.5" style="stroke:#181818;stroke-width:0.5;" width="99" x="1538.5" y="141.12"/><rect fill="#F1F1F1" height="10" style="stroke:#181818;stroke-width:0.5;" width="15" x="1617.5" y="146.12"/><rect fill="#F1F1F1" height="2" style="stroke:#181818;stroke-width:0.5;" width="4" x="1615.5" y="148.12"/><rect fill="#F1F1F1" height="2" style="stroke:#181818;stroke-width:0.5;" width="4" x="1615.5" y="152.12"/><text fill="#000000" font-family="sans-serif" font-size="14" lengthAdjust="spacing" textLength="59" x="1553.5" y="174.1151">Gateway</text></a></g><!--entity teammates_common_util_Logger_Provider--><g id="elem_teammates_common_util_Logger_Provider"><a href="teammates-teammates-psr.system#_ixOaIHhMEe-iusCSuce18A" target="_top" title="teammates-teammates-psr.system#_ixOaIHhMEe-iusCSuce18A" xlink:actuate="onRequest" xlink:href="teammates-teammates-psr.system#_ixOaIHhMEe-iusCSuce18A" xlink:show="new" xlink:title="teammates-teammates-psr.system#_ixOaIHhMEe-iusCSuce18A" xlink:type="simple"><rect fill="#F1F1F1" height="46.2969" rx="2.5" ry="2.5" style="stroke:#181818;stroke-width:0.5;" width="331" x="105.5" y="141.12"/><rect fill="#F1F1F1" height="10" style="stroke:#181818;stroke-width:0.5;" width="15" x="416.5" y="146.12"/><rect fill="#F1F1F1" height="2" style="stroke:#181818;stroke-width:0.5;" width="4" x="414.5" y="148.12"/><rect fill="#F1F1F1" height="2" style="stroke:#181818;stroke-width:0.5;" width="4" x="414.5" y="152.12"/><text fill="#000000" font-family="sans-serif" font-size="14" lengthAdjust="spacing" textLength="291" x="120.5" y="174.1151">teammates_common_util_Logger_Provider</text></a></g><!--entity teammates_ui_servlets_DevServerLoginServlet--><g id="elem_teammates_ui_servlets_DevServerLoginServlet"><a href="teammates-teammates-psr.system#_ixOaIHhMEe-iusCSuce18A" target="_top" title="teammates-teammates-psr.system#_ixOaIHhMEe-iusCSuce18A" xlink:actuate="onRequest" xlink:href="teammates-teammates-psr.system#_ixOaIHhMEe-iusCSuce18A" xlink:show="new" xlink:title="teammates-teammates-psr.system#_ixOaIHhMEe-iusCSuce18A" xlink:type="simple"><rect fill="#F1F1F1" height="46.2969" rx="2.5" ry="2.5" style="stroke:#181818;stroke-width:0.5;" width="360" x="4102" y="141.12"/><rect fill="#F1F1F1" height="10" style="stroke:#181818;stroke-width:0.5;" width="15" x="4442" y="146.12"/><rect fill="#F1F1F1" height="2" style="stroke:#181818;stroke-width:0.5;" width="4" x="4440" y="148.12"/><rect fill="#F1F1F1" height="2" style="stroke:#181818;stroke-width:0.5;" width="4" x="4440" y="152.12"/><text fill="#000000" font-family="sans-serif" font-size="14" lengthAdjust="spacing" textLength="320" x="4117" y="174.1151">teammates_ui_servlets_DevServerLoginServlet</text></a></g><!--entity teammates_ui_servlets_HealthCheckServlet--><g id="elem_teammates_ui_servlets_HealthCheckServlet"><a href="teammates-teammates-psr.system#_ixOaIHhMEe-iusCSuce18A" target="_top" title="teammates-teammates-psr.system#_ixOaIHhMEe-iusCSuce18A" xlink:actuate="onRequest" xlink:href="teammates-teammates-psr.system#_ixOaIHhMEe-iusCSuce18A" xlink:show="new" xlink:title="teammates-teammates-psr.system#_ixOaIHhMEe-iusCSuce18A" xlink:type="simple"><rect fill="#F1F1F1" height="46.2969" rx="2.5" ry="2.5" style="stroke:#181818;stroke-width:0.5;" width="340" x="1073" y="141.12"/><rect fill="#F1F1F1" height="10" style="stroke:#181818;stroke-width:0.5;" width="15" x="1393" y="146.12"/><rect fill="#F1F1F1" height="2" style="stroke:#181818;stroke-width:0.5;" width="4" x="1391" y="148.12"/><rect fill="#F1F1F1" height="2" style="stroke:#181818;stroke-width:0.5;" width="4" x="1391" y="152.12"/><text fill="#000000" font-family="sans-serif" font-size="14" lengthAdjust="spacing" textLength="300" x="1088" y="174.1151">teammates_ui_servlets_HealthCheckServlet</text></a></g><!--entity teammates_ui_servlets_LegacyUrlMapper--><g id="elem_teammates_ui_servlets_LegacyUrlMapper"><a href="teammates-teammates-psr.system#_ixOaIHhMEe-iusCSuce18A" target="_top" title="teammates-teammates-psr.system#_ixOaIHhMEe-iusCSuce18A" xlink:actuate="onRequest" xlink:href="teammates-teammates-psr.system#_ixOaIHhMEe-iusCSuce18A" xlink:show="new" xlink:title="teammates-teammates-psr.system#_ixOaIHhMEe-iusCSuce18A" xlink:type="simple"><rect fill="#F1F1F1" height="46.2969" rx="2.5" ry="2.5" style="stroke:#181818;stroke-width:0.5;" width="323" x="580.5" y="141.12"/><rect fill="#F1F1F1" height="10" style="stroke:#181818;stroke-width:0.5;" width="15" x="883.5" y="146.12"/><rect fill="#F1F1F1" height="2" style="stroke:#181818;stroke-width:0.5;" width="4" x="881.5" y="148.12"/><rect fill="#F1F1F1" height="2" style="stroke:#181818;stroke-width:0.5;" width="4" x="881.5" y="152.12"/><text fill="#000000" font-family="sans-serif" font-size="14" lengthAdjust="spacing" textLength="283" x="595.5" y="174.1151">teammates_ui_servlets_LegacyUrlMapper</text></a></g><!--entity teammates_ui_servlets_LoginServlet--><g id="elem_teammates_ui_servlets_LoginServlet"><a href="teammates-teammates-psr.system#_ixOaIHhMEe-iusCSuce18A" target="_top" title="teammates-teammates-psr.system#_ixOaIHhMEe-iusCSuce18A" xlink:actuate="onRequest" xlink:href="teammates-teammates-psr.system#_ixOaIHhMEe-iusCSuce18A" xlink:show="new" xlink:title="teammates-teammates-psr.system#_ixOaIHhMEe-iusCSuce18A" xlink:type="simple"><rect fill="#F1F1F1" height="46.2969" rx="2.5" ry="2.5" style="stroke:#181818;stroke-width:0.5;" width="289" x="1767.5" y="141.12"/><rect fill="#F1F1F1" height="10" style="stroke:#181818;stroke-width:0.5;" width="15" x="2036.5" y="146.12"/><rect fill="#F1F1F1" height="2" style="stroke:#181818;stroke-width:0.5;" width="4" x="2034.5" y="148.12"/><rect fill="#F1F1F1" height="2" style="stroke:#181818;stroke-width:0.5;" width="4" x="2034.5" y="152.12"/><text fill="#000000" font-family="sans-serif" font-size="14" lengthAdjust="spacing" textLength="249" x="1782.5" y="174.1151">teammates_ui_servlets_LoginServlet</text></a></g><!--entity teammates_ui_servlets_LogoutServlet--><g id="elem_teammates_ui_servlets_LogoutServlet"><a href="teammates-teammates-psr.system#_ixOaIHhMEe-iusCSuce18A" target="_top" title="teammates-teammates-psr.system#_ixOaIHhMEe-iusCSuce18A" xlink:actuate="onRequest" xlink:href="teammates-teammates-psr.system#_ixOaIHhMEe-iusCSuce18A" xlink:show="new" xlink:title="teammates-teammates-psr.system#_ixOaIHhMEe-iusCSuce18A" xlink:type="simple"><rect fill="#F1F1F1" height="46.2969" rx="2.5" ry="2.5" style="stroke:#181818;stroke-width:0.5;" width="300" x="2209" y="141.12"/><rect fill="#F1F1F1" height="10" style="stroke:#181818;stroke-width:0.5;" width="15" x="2489" y="146.12"/><rect fill="#F1F1F1" height="2" style="stroke:#181818;stroke-width:0.5;" width="4" x="2487" y="148.12"/><rect fill="#F1F1F1" height="2" style="stroke:#181818;stroke-width:0.5;" width="4" x="2487" y="152.12"/><text fill="#000000" font-family="sans-serif" font-size="14" lengthAdjust="spacing" textLength="260" x="2224" y="174.1151">teammates_ui_servlets_LogoutServlet</text></a></g><!--entity teammates_ui_servlets_OAuth2CallbackServlet--><g id="elem_teammates_ui_servlets_OAuth2CallbackServlet"><a href="teammates-teammates-psr.system#_ixOaIHhMEe-iusCSuce18A" target="_top" title="teammates-teammates-psr.system#_ixOaIHhMEe-iusCSuce18A" xlink:actuate="onRequest" xlink:href="teammates-teammates-psr.system#_ixOaIHhMEe-iusCSuce18A" xlink:show="new" xlink:title="teammates-teammates-psr.system#_ixOaIHhMEe-iusCSuce18A" xlink:type="simple"><rect fill="#F1F1F1" height="46.2969" rx="2.5" ry="2.5" style="stroke:#181818;stroke-width:0.5;" width="361" x="2666.5" y="141.12"/><rect fill="#F1F1F1" height="10" style="stroke:#181818;stroke-width:0.5;" width="15" x="3007.5" y="146.12"/><rect fill="#F1F1F1" height="2" style="stroke:#181818;stroke-width:0.5;" width="4" x="3005.5" y="148.12"/><rect fill="#F1F1F1" height="2" style="stroke:#181818;stroke-width:0.5;" width="4" x="3005.5" y="152.12"/><text fill="#000000" font-family="sans-serif" font-size="14" lengthAdjust="spacing" textLength="321" x="2681.5" y="174.1151">teammates_ui_servlets_OAuth2CallbackServlet</text></a></g><!--entity teammates_ui_servlets_WebApiServlet--><g id="elem_teammates_ui_servlets_WebApiServlet"><a href="teammates-teammates-psr.system#_ixOaIHhMEe-iusCSuce18A" target="_top" title="teammates-teammates-psr.system#_ixOaIHhMEe-iusCSuce18A" xlink:actuate="onRequest" xlink:href="teammates-teammates-psr.system#_ixOaIHhMEe-iusCSuce18A" xlink:show="new" xlink:title="teammates-teammates-psr.system#_ixOaIHhMEe-iusCSuce18A" xlink:type="simple"><rect fill="#F1F1F1" height="46.2969" rx="2.5" ry="2.5" style="stroke:#181818;stroke-width:0.5;" width="304" x="3184" y="141.12"/><rect fill="#F1F1F1" height="10" style="stroke:#181818;stroke-width:0.5;" width="15" x="3468" y="146.12"/><rect fill="#F1F1F1" height="2" style="stroke:#181818;stroke-width:0.5;" width="4" x="3466" y="148.12"/><rect fill="#F1F1F1" height="2" style="stroke:#181818;stroke-width:0.5;" width="4" x="3466" y="152.12"/><text fill="#000000" font-family="sans-serif" font-size="14" lengthAdjust="spacing" textLength="264" x="3199" y="174.1151">teammates_ui_servlets_WebApiServlet</text></a></g><!--entity teammates_ui_servlets_WebPageServlet--><g id="elem_teammates_ui_servlets_WebPageServlet"><a href="teammates-teammates-psr.system#_ixOaIHhMEe-iusCSuce18A" target="_top" title="teammates-teammates-psr.system#_ixOaIHhMEe-iusCSuce18A" xlink:actuate="onRequest" xlink:href="teammates-teammates-psr.system#_ixOaIHhMEe-iusCSuce18A" xlink:show="new" xlink:title="teammates-teammates-psr.system#_ixOaIHhMEe-iusCSuce18A" xlink:type="simple"><rect fill="#F1F1F1" height="46.2969" rx="2.5" ry="2.5" style="stroke:#181818;stroke-width:0.5;" width="318" x="3642" y="141.12"/><rect fill="#F1F1F1" height="10" style="stroke:#181818;stroke-width:0.5;" width="15" x="3940" y="146.12"/><rect fill="#F1F1F1" height="2" style="stroke:#181818;stroke-width:0.5;" width="4" x="3938" y="148.12"/><rect fill="#F1F1F1" height="2" style="stroke:#181818;stroke-width:0.5;" width="4" x="3938" y="152.12"/><text fill="#000000" font-family="sans-serif" font-size="14" lengthAdjust="spacing" textLength="278" x="3657" y="174.1151">teammates_ui_servlets_WebPageServlet</text></a></g><!--link nodeteammates_common_util_Logger_Provider to nodeteammates_ui_servlets_LegacyUrlMapper--><g id="link_nodeteammates_common_util_Logger_Provider_nodeteammates_ui_servlets_LegacyUrlMapper"><path d="M75.096,92.7015 C75.1511,92.5064 75.2068,92.3113 75.2629,92.1164 C75.3752,91.7266 75.4893,91.3373 75.6053,90.9485 C75.8374,90.1711 76.0771,89.396 76.3247,88.6237 C76.8198,87.079 77.3464,85.5457 77.9063,84.0278 C79.0261,80.9918 80.2789,78.0171 81.6794,75.1361 C87.2813,63.6119 95.245,53.585 106.5,47.12 C169.9,10.71 369.29,16.11 435.5,47.12 C450.105,53.96 463.2856,64.1831 474.8914,75.7888 C480.6943,81.5916 486.1035,87.74 491.1001,93.984 C493.5985,97.106 495.9937,100.2519 498.2834,103.3904 C498.8558,104.175 499.4217,104.9592 499.9809,105.7424 C500.2605,106.134 500.5384,106.5253 500.8147,106.9164 " fill="none" id="nodeteammates_common_util_Logger_Provider-nodeteammates_ui_servlets_LegacyUrlMapper" style="stroke:#181818;stroke-width:1.0;"/></g><!--link nodeteammates_ui_servlets_HealthCheckServlet to nodeGateway--><g id="link_nodeteammates_ui_servlets_HealthCheckServlet_nodeGateway"><path d="M1043.096,92.7015 C1043.1511,92.5064 1043.2068,92.3113 1043.2629,92.1164 C1043.3752,91.7266 1043.4893,91.3373 1043.6053,90.9485 C1043.8374,90.1711 1044.0771,89.396 1044.3247,88.6237 C1044.8198,87.079 1045.3464,85.5457 1045.9063,84.0278 C1047.0261,80.9918 1048.2789,78.0171 1049.6794,75.1361 C1055.2813,63.6119 1063.245,53.585 1074.5,47.12 C1139.44,9.82 1344.18,14.31 1411.5,47.12 C1425.64,54.0125 1438.2369,64.2631 1449.2231,75.8802 C1454.7163,81.6887 1459.8067,87.8388 1464.4861,94.0815 C1466.8258,97.2029 1469.0627,100.3475 1471.1958,103.484 C1472.2623,105.0523 1473.3029,106.6186 1474.3174,108.179 C1474.8247,108.9592 1475.3254,109.738 1475.8196,110.5148 C1476.0667,110.9032 1476.3121,111.2911 1476.5559,111.6784 C1476.6779,111.8721 1476.7994,112.0656 1476.9205,112.259 " fill="none" id="nodeteammates_ui_servlets_HealthCheckServlet-nodeGateway" style="stroke:#181818;stroke-width:1.0;"/></g><!--link nodeteammates_ui_servlets_LegacyUrlMapper to nodeGateway--><g id="link_nodeteammates_ui_servlets_LegacyUrlMapper_nodeGateway"><path d="M545.9569,93.1015 C546.0322,92.9065 546.1081,92.7115 546.1843,92.5167 C546.3368,92.1271 546.4911,91.738 546.6472,91.3494 C546.9593,90.5722 547.2786,89.7971 547.6052,89.0246 C548.2584,87.4797 548.9407,85.9452 549.6536,84.4252 C551.0794,81.3853 552.6272,78.403 554.3075,75.5103 C561.0288,63.9394 569.87,53.8 581.5,47.12 C621.48,24.15 1370.05,26.92 1411.5,47.12 C1425.64,54.0125 1438.2369,64.2631 1449.2231,75.8802 C1454.7163,81.6887 1459.8067,87.8388 1464.4861,94.0815 C1466.8258,97.2029 1469.0627,100.3475 1471.1958,103.484 C1472.2623,105.0523 1473.3029,106.6186 1474.3174,108.179 C1474.8247,108.9592 1475.3254,109.738 1475.8196,110.5148 C1476.0667,110.9032 1476.3121,111.2911 1476.5559,111.6784 C1476.6779,111.8721 1476.7994,112.0656 1476.9205,112.259 " fill="none" id="nodeteammates_ui_servlets_LegacyUrlMapper-nodeGateway" style="stroke:#181818;stroke-width:1.0;"/></g><!--link nodeteammates_ui_servlets_LoginServlet to nodeGateway--><g id="link_nodeteammates_ui_servlets_LoginServlet_nodeGateway"><path d="M1701.8517,137.4788 C1701.7926,137.3157 1701.7332,137.1522 1701.6734,136.9882 C1701.4344,136.3322 1701.1899,135.6684 1700.9398,134.9973 C1700.4396,133.655 1699.9172,132.2834 1699.3722,130.8863 C1697.192,125.298 1694.6497,119.3022 1691.7213,113.1438 C1680.0075,88.51 1662.115,61.275 1636.5,47.12 C1598.77,26.26 1576.88,25.65 1539.5,47.12 C1528.245,53.585 1520.2813,63.6119 1514.6794,75.1361 C1513.2789,78.0171 1512.0261,80.9918 1510.9063,84.0278 C1510.3464,85.5457 1509.8198,87.079 1509.3247,88.6237 C1509.0771,89.396 1508.8374,90.1711 1508.6053,90.9485 C1508.4893,91.3373 1508.3752,91.7266 1508.2629,92.1164 C1508.2068,92.3113 1508.1511,92.5064 1508.096,92.7015 " fill="none" id="nodeteammates_ui_servlets_LoginServlet-nodeGateway" style="stroke:#181818;stroke-width:1.0;"/></g><!--link nodeteammates_ui_servlets_LogoutServlet to nodeGateway--><g id="link_nodeteammates_ui_servlets_LogoutServlet_nodeGateway"><path d="M2142.9954,146.8655 C2142.8542,146.5854 2142.7112,146.3026 2142.5664,146.0173 C2137.9328,136.8878 2131.4456,125.1394 2123.2413,112.7713 C2106.8325,88.035 2083.555,60.82 2054.5,47.12 C2002.74,22.72 1589.12,18.62 1539.5,47.12 C1528.245,53.585 1520.2813,63.6119 1514.6794,75.1361 C1513.2789,78.0171 1512.0261,80.9918 1510.9063,84.0278 C1510.3464,85.5457 1509.8198,87.079 1509.3247,88.6237 C1509.0771,89.396 1508.8374,90.1711 1508.6053,90.9485 C1508.4893,91.3373 1508.3752,91.7266 1508.2629,92.1164 C1508.2068,92.3113 1508.1511,92.5064 1508.096,92.7015 " fill="none" id="nodeteammates_ui_servlets_LogoutServlet-nodeGateway" style="stroke:#181818;stroke-width:1.0;"/></g><!--link nodeteammates_ui_servlets_OAuth2CallbackServlet to nodeGateway--><g id="link_nodeteammates_ui_servlets_OAuth2CallbackServlet_nodeGateway"><path d="M2595.9954,146.8655 C2595.8542,146.5854 2595.7112,146.3026 2595.5664,146.0173 C2590.9328,136.8878 2584.4456,125.1394 2576.2413,112.7713 C2559.8325,88.035 2536.555,60.82 2507.5,47.12 C2458.86,24.19 1586.13,20.34 1539.5,47.12 C1528.245,53.585 1520.2813,63.6119 1514.6794,75.1361 C1513.2789,78.0171 1512.0261,80.9918 1510.9063,84.0278 C1510.3464,85.5457 1509.8198,87.079 1509.3247,88.6237 C1509.0771,89.396 1508.8374,90.1711 1508.6053,90.9485 C1508.4893,91.3373 1508.3752,91.7266 1508.2629,92.1164 C1508.2068,92.3113 1508.1511,92.5064 1508.096,92.7015 " fill="none" id="nodeteammates_ui_servlets_OAuth2CallbackServlet-nodeGateway" style="stroke:#181818;stroke-width:1.0;"/></g><!--link nodeteammates_ui_servlets_WebApiServlet to nodeGateway--><g id="link_nodeteammates_ui_servlets_WebApiServlet_nodeGateway"><path d="M3117.9083,147.6733 C3117.6161,147.123 3117.3163,146.5619 3117.0089,145.9906 C3112.0903,136.85 3105.2306,125.09 3096.6213,112.715 C3079.4025,87.965 3055.185,60.755 3025.5,47.12 C2950.48,12.66 1611.09,6 1539.5,47.12 C1528.245,53.585 1520.2813,63.6119 1514.6794,75.1361 C1513.2789,78.0171 1512.0261,80.9918 1510.9063,84.0278 C1510.3464,85.5457 1509.8198,87.079 1509.3247,88.6237 C1509.0771,89.396 1508.8374,90.1711 1508.6053,90.9485 C1508.4893,91.3373 1508.3752,91.7266 1508.2629,92.1164 C1508.2068,92.3113 1508.1511,92.5064 1508.096,92.7015 " fill="none" id="nodeteammates_ui_servlets_WebApiServlet-nodeGateway" style="stroke:#181818;stroke-width:1.0;"/></g><!--link nodeteammates_ui_servlets_WebPageServlet to nodeGateway--><g id="link_nodeteammates_ui_servlets_WebPageServlet_nodeGateway"><path d="M3575.8598,146.856 C3575.7164,146.5758 3575.5712,146.2929 3575.4242,146.0075 C3570.7197,136.8744 3564.1394,125.1225 3555.8338,112.7525 C3539.2225,88.0125 3515.71,60.8 3486.5,47.12 C3437.52,24.18 1586.4,20.18 1539.5,47.12 C1528.245,53.585 1520.2813,63.6119 1514.6794,75.1361 C1513.2789,78.0171 1512.0261,80.9918 1510.9063,84.0278 C1510.3464,85.5457 1509.8198,87.079 1509.3247,88.6237 C1509.0771,89.396 1508.8374,90.1711 1508.6053,90.9485 C1508.4893,91.3373 1508.3752,91.7266 1508.2629,92.1164 C1508.2068,92.3113 1508.1511,92.5064 1508.096,92.7015 " fill="none" id="nodeteammates_ui_servlets_WebPageServlet-nodeGateway" style="stroke:#181818;stroke-width:1.0;"/></g><!--SRC=[lPLDIyD048Rl-HKBdYlOazSInGejBGJn4C8oJSTawNw4_OWDudytHMsRQiqk6Y_BR7ZVcGTcPcCsJ5QWGP0djesPpZdEO8LyKQFcK5LC5iHgXv7P2tCbAYLHsiGs78aJV1n9jKQoE-x0uZCqv2LAFyACfAb54AAzcj4Xgeo-D8snA2uesoxWVbhERt74d8aJb-FLzIJBejT3vhsJjW12IUeiutIcYW8rNMfLipNgNLqluTzJEKODwfgZDVG6wwIDKRTLcKpUFtVPUkN34auHk2tZ4lDDBzvNxR1iComWRnuqdxS3UDhJ7uG3Ktcrylyws5PIple07MJ34YqcpfRZ63XVWSTOVIiVbl0HLvEAzP9rP8CJBQ507wGZtI-PKk_tD2CZadflQXQb8I_EFldddo8AA1NaxInbcF5uUGASPuOx8CF948OvExDoQdq3]--></g></svg>