<?xml version="1.0" encoding="us-ascii" standalone="no"?><svg xmlns="http://www.w3.org/2000/svg" xmlns:xlink="http://www.w3.org/1999/xlink" contentStyleType="text/css" height="227px" preserveAspectRatio="none" style="width:4541px;height:227px;background:#FFFFFF;" version="1.1" viewBox="0 0 4541 227" width="4541px" zoomAndPan="magnify"><defs/><g><!--cluster nodeGateway--><g id="cluster_nodeGateway"><polygon fill="none" points="1470,102.04,1480,92.04,1655,92.04,1655,200.04,1645,210.04,1470,210.04,1470,102.04" style="stroke:#181818;stroke-width:1.0;"/><line style="stroke:#181818;stroke-width:1.0;" x1="1645" x2="1655" y1="102.04" y2="92.04"/><line style="stroke:#181818;stroke-width:1.0;" x1="1470" x2="1645" y1="102.04" y2="102.04"/><line style="stroke:#181818;stroke-width:1.0;" x1="1645" x2="1645" y1="102.04" y2="210.04"/><text fill="#000000" font-family="sans-serif" font-size="14" font-weight="bold" lengthAdjust="spacing" textLength="109" x="1504" y="118.0351">nodeGateway</text></g><!--cluster nodeteammates_common_util_Logger_Provider--><g id="cluster_nodeteammates_common_util_Logger_Provider"><polygon fill="none" points="16,102.04,26,92.04,461,92.04,461,200.04,451,210.04,16,210.04,16,102.04" style="stroke:#181818;stroke-width:1.0;"/><line style="stroke:#181818;stroke-width:1.0;" x1="451" x2="461" y1="102.04" y2="92.04"/><line style="stroke:#181818;stroke-width:1.0;" x1="16" x2="451" y1="102.04" y2="102.04"/><line style="stroke:#181818;stroke-width:1.0;" x1="451" x2="451" y1="102.04" y2="210.04"/><text fill="#000000" font-family="sans-serif" font-size="14" font-weight="bold" lengthAdjust="spacing" textLength="369" x="50" y="118.0351">nodeteammates_common_util_Logger_Provider</text></g><!--cluster nodeteammates_ui_servlets_DevServerLoginServlet--><g id="cluster_nodeteammates_ui_servlets_DevServerLoginServlet"><polygon fill="none" points="4040,110.04,4050,100.04,4524,100.04,4524,192.04,4514,202.04,4040,202.04,4040,110.04" style="stroke:#181818;stroke-width:1.0;"/><line style="stroke:#181818;stroke-width:1.0;" x1="4514" x2="4524" y1="110.04" y2="100.04"/><line style="stroke:#181818;stroke-width:1.0;" x1="4040" x2="4514" y1="110.04" y2="110.04"/><line style="stroke:#181818;stroke-width:1.0;" x1="4514" x2="4514" y1="110.04" y2="202.04"/><text fill="#000000" font-family="sans-serif" font-size="14" font-weight="bold" lengthAdjust="spacing" textLength="408" x="4074" y="126.0351">nodeteammates_ui_servlets_DevServerLoginServlet</text></g><!--cluster nodeteammates_ui_servlets_HealthCheckServlet--><g id="cluster_nodeteammates_ui_servlets_HealthCheckServlet"><polygon fill="none" points="973,102.04,983,92.04,1430,92.04,1430,200.04,1420,210.04,973,210.04,973,102.04" style="stroke:#181818;stroke-width:1.0;"/><line style="stroke:#181818;stroke-width:1.0;" x1="1420" x2="1430" y1="102.04" y2="92.04"/><line style="stroke:#181818;stroke-width:1.0;" x1="973" x2="1420" y1="102.04" y2="102.04"/><line style="stroke:#181818;stroke-width:1.0;" x1="1420" x2="1420" y1="102.04" y2="210.04"/><text fill="#000000" font-family="sans-serif" font-size="14" font-weight="bold" lengthAdjust="spacing" textLength="381" x="1007" y="118.0351">nodeteammates_ui_servlets_HealthCheckServlet</text></g><!--cluster nodeteammates_ui_servlets_LegacyUrlMapper--><g id="cluster_nodeteammates_ui_servlets_LegacyUrlMapper"><polygon fill="none" points="1695,102.04,1705,92.04,2134,92.04,2134,200.04,2124,210.04,1695,210.04,1695,102.04" style="stroke:#181818;stroke-width:1.0;"/><line style="stroke:#181818;stroke-width:1.0;" x1="2124" x2="2134" y1="102.04" y2="92.04"/><line style="stroke:#181818;stroke-width:1.0;" x1="1695" x2="2124" y1="102.04" y2="102.04"/><line style="stroke:#181818;stroke-width:1.0;" x1="2124" x2="2124" y1="102.04" y2="210.04"/><text fill="#000000" font-family="sans-serif" font-size="14" font-weight="bold" lengthAdjust="spacing" textLength="363" x="1729" y="118.0351">nodeteammates_ui_servlets_LegacyUrlMapper</text></g><!--cluster nodeteammates_ui_servlets_LoginServlet--><g id="cluster_nodeteammates_ui_servlets_LoginServlet"><polygon fill="none" points="2174,102.04,2184,92.04,2575,92.04,2575,200.04,2565,210.04,2174,210.04,2174,102.04" style="stroke:#181818;stroke-width:1.0;"/><line style="stroke:#181818;stroke-width:1.0;" x1="2565" x2="2575" y1="102.04" y2="92.04"/><line style="stroke:#181818;stroke-width:1.0;" x1="2174" x2="2565" y1="102.04" y2="102.04"/><line style="stroke:#181818;stroke-width:1.0;" x1="2565" x2="2565" y1="102.04" y2="210.04"/><text fill="#000000" font-family="sans-serif" font-size="14" font-weight="bold" lengthAdjust="spacing" textLength="325" x="2208" y="118.0351">nodeteammates_ui_servlets_LoginServlet</text></g><!--cluster nodeteammates_ui_servlets_LogoutServlet--><g id="cluster_nodeteammates_ui_servlets_LogoutServlet"><polygon fill="none" points="2615,102.04,2625,92.04,3028,92.04,3028,200.04,3018,210.04,2615,210.04,2615,102.04" style="stroke:#181818;stroke-width:1.0;"/><line style="stroke:#181818;stroke-width:1.0;" x1="3018" x2="3028" y1="102.04" y2="92.04"/><line style="stroke:#181818;stroke-width:1.0;" x1="2615" x2="3018" y1="102.04" y2="102.04"/><line style="stroke:#181818;stroke-width:1.0;" x1="3018" x2="3018" y1="102.04" y2="210.04"/><text fill="#000000" font-family="sans-serif" font-size="14" font-weight="bold" lengthAdjust="spacing" textLength="337" x="2649" y="118.0351">nodeteammates_ui_servlets_LogoutServlet</text></g><!--cluster nodeteammates_ui_servlets_OAuth2CallbackServlet--><g id="cluster_nodeteammates_ui_servlets_OAuth2CallbackServlet"><polygon fill="none" points="3068,102.04,3078,92.04,3550,92.04,3550,200.04,3540,210.04,3068,210.04,3068,102.04" style="stroke:#181818;stroke-width:1.0;"/><line style="stroke:#181818;stroke-width:1.0;" x1="3540" x2="3550" y1="102.04" y2="92.04"/><line style="stroke:#181818;stroke-width:1.0;" x1="3068" x2="3540" y1="102.04" y2="102.04"/><line style="stroke:#181818;stroke-width:1.0;" x1="3540" x2="3540" y1="102.04" y2="210.04"/><text fill="#000000" font-family="sans-serif" font-size="14" font-weight="bold" lengthAdjust="spacing" textLength="406" x="3102" y="118.0351">nodeteammates_ui_servlets_OAuth2CallbackServlet</text></g><!--cluster nodeteammates_ui_servlets_WebApiServlet--><g id="cluster_nodeteammates_ui_servlets_WebApiServlet"><polygon fill="none" points="3590,102.04,3600,92.04,4008,92.04,4008,200.04,3998,210.04,3590,210.04,3590,102.04" style="stroke:#181818;stroke-width:1.0;"/><line style="stroke:#181818;stroke-width:1.0;" x1="3998" x2="4008" y1="102.04" y2="92.04"/><line style="stroke:#181818;stroke-width:1.0;" x1="3590" x2="3998" y1="102.04" y2="102.04"/><line style="stroke:#181818;stroke-width:1.0;" x1="3998" x2="3998" y1="102.04" y2="210.04"/><text fill="#000000" font-family="sans-serif" font-size="14" font-weight="bold" lengthAdjust="spacing" textLength="342" x="3624" y="118.0351">nodeteammates_ui_servlets_WebApiServlet</text></g><!--cluster nodeteammates_ui_servlets_WebPageServlet--><g id="cluster_nodeteammates_ui_servlets_WebPageServlet"><polygon fill="none" points="501,102.04,511,92.04,933,92.04,933,200.04,923,210.04,501,210.04,501,102.04" style="stroke:#181818;stroke-width:1.0;"/><line style="stroke:#181818;stroke-width:1.0;" x1="923" x2="933" y1="102.04" y2="92.04"/><line style="stroke:#181818;stroke-width:1.0;" x1="501" x2="923" y1="102.04" y2="102.04"/><line style="stroke:#181818;stroke-width:1.0;" x1="923" x2="923" y1="102.04" y2="210.04"/><text fill="#000000" font-family="sans-serif" font-size="14" font-weight="bold" lengthAdjust="spacing" textLength="356" x="535" y="118.0351">nodeteammates_ui_servlets_WebPageServlet</text></g><!--entity Gateway--><g id="elem_Gateway"><a href="teammates-teammates-psr.system#_Y65gIHhKEe-QQs1vyr-qdg" target="_top" title="teammates-teammates-psr.system#_Y65gIHhKEe-QQs1vyr-qdg" xlink:actuate="onRequest" xlink:href="teammates-teammates-psr.system#_Y65gIHhKEe-QQs1vyr-qdg" xlink:show="new" xlink:title="teammates-teammates-psr.system#_Y65gIHhKEe-QQs1vyr-qdg" xlink:type="simple"><rect fill="#F1F1F1" height="46.2969" rx="2.5" ry="2.5" style="stroke:#181818;stroke-width:0.5;" width="99" x="1531.5" y="140.04"/><rect fill="#F1F1F1" height="10" style="stroke:#181818;stroke-width:0.5;" width="15" x="1610.5" y="145.04"/><rect fill="#F1F1F1" height="2" style="stroke:#181818;stroke-width:0.5;" width="4" x="1608.5" y="147.04"/><rect fill="#F1F1F1" height="2" style="stroke:#181818;stroke-width:0.5;" width="4" x="1608.5" y="151.04"/><text fill="#000000" font-family="sans-serif" font-size="14" lengthAdjust="spacing" textLength="59" x="1546.5" y="173.0351">Gateway</text></a></g><!--entity teammates_common_util_Logger_Provider--><g id="elem_teammates_common_util_Logger_Provider"><a href="teammates-teammates-psr.system#_Y65gIHhKEe-QQs1vyr-qdg" target="_top" title="teammates-teammates-psr.system#_Y65gIHhKEe-QQs1vyr-qdg" xlink:actuate="onRequest" xlink:href="teammates-teammates-psr.system#_Y65gIHhKEe-QQs1vyr-qdg" xlink:show="new" xlink:title="teammates-teammates-psr.system#_Y65gIHhKEe-QQs1vyr-qdg" xlink:type="simple"><rect fill="#F1F1F1" height="46.2969" rx="2.5" ry="2.5" style="stroke:#181818;stroke-width:0.5;" width="331" x="105.5" y="140.04"/><rect fill="#F1F1F1" height="10" style="stroke:#181818;stroke-width:0.5;" width="15" x="416.5" y="145.04"/><rect fill="#F1F1F1" height="2" style="stroke:#181818;stroke-width:0.5;" width="4" x="414.5" y="147.04"/><rect fill="#F1F1F1" height="2" style="stroke:#181818;stroke-width:0.5;" width="4" x="414.5" y="151.04"/><text fill="#000000" font-family="sans-serif" font-size="14" lengthAdjust="spacing" textLength="291" x="120.5" y="173.0351">teammates_common_util_Logger_Provider</text></a></g><!--entity teammates_ui_servlets_DevServerLoginServlet--><g id="elem_teammates_ui_servlets_DevServerLoginServlet"><a href="teammates-teammates-psr.system#_Y65gIHhKEe-QQs1vyr-qdg" target="_top" title="teammates-teammates-psr.system#_Y65gIHhKEe-QQs1vyr-qdg" xlink:actuate="onRequest" xlink:href="teammates-teammates-psr.system#_Y65gIHhKEe-QQs1vyr-qdg" xlink:show="new" xlink:title="teammates-teammates-psr.system#_Y65gIHhKEe-QQs1vyr-qdg" xlink:type="simple"><rect fill="#F1F1F1" height="46.2969" rx="2.5" ry="2.5" style="stroke:#181818;stroke-width:0.5;" width="360" x="4102" y="140.04"/><rect fill="#F1F1F1" height="10" style="stroke:#181818;stroke-width:0.5;" width="15" x="4442" y="145.04"/><rect fill="#F1F1F1" height="2" style="stroke:#181818;stroke-width:0.5;" width="4" x="4440" y="147.04"/><rect fill="#F1F1F1" height="2" style="stroke:#181818;stroke-width:0.5;" width="4" x="4440" y="151.04"/><text fill="#000000" font-family="sans-serif" font-size="14" lengthAdjust="spacing" textLength="320" x="4117" y="173.0351">teammates_ui_servlets_DevServerLoginServlet</text></a></g><!--entity teammates_ui_servlets_HealthCheckServlet--><g id="elem_teammates_ui_servlets_HealthCheckServlet"><a href="teammates-teammates-psr.system#_Y65gIHhKEe-QQs1vyr-qdg" target="_top" title="teammates-teammates-psr.system#_Y65gIHhKEe-QQs1vyr-qdg" xlink:actuate="onRequest" xlink:href="teammates-teammates-psr.system#_Y65gIHhKEe-QQs1vyr-qdg" xlink:show="new" xlink:title="teammates-teammates-psr.system#_Y65gIHhKEe-QQs1vyr-qdg" xlink:type="simple"><rect fill="#F1F1F1" height="46.2969" rx="2.5" ry="2.5" style="stroke:#181818;stroke-width:0.5;" width="340" x="1066" y="140.04"/><rect fill="#F1F1F1" height="10" style="stroke:#181818;stroke-width:0.5;" width="15" x="1386" y="145.04"/><rect fill="#F1F1F1" height="2" style="stroke:#181818;stroke-width:0.5;" width="4" x="1384" y="147.04"/><rect fill="#F1F1F1" height="2" style="stroke:#181818;stroke-width:0.5;" width="4" x="1384" y="151.04"/><text fill="#000000" font-family="sans-serif" font-size="14" lengthAdjust="spacing" textLength="300" x="1081" y="173.0351">teammates_ui_servlets_HealthCheckServlet</text></a></g><!--entity teammates_ui_servlets_LegacyUrlMapper--><g id="elem_teammates_ui_servlets_LegacyUrlMapper"><a href="teammates-teammates-psr.system#_Y65gIHhKEe-QQs1vyr-qdg" target="_top" title="teammates-teammates-psr.system#_Y65gIHhKEe-QQs1vyr-qdg" xlink:actuate="onRequest" xlink:href="teammates-teammates-psr.system#_Y65gIHhKEe-QQs1vyr-qdg" xlink:show="new" xlink:title="teammates-teammates-psr.system#_Y65gIHhKEe-QQs1vyr-qdg" xlink:type="simple"><rect fill="#F1F1F1" height="46.2969" rx="2.5" ry="2.5" style="stroke:#181818;stroke-width:0.5;" width="323" x="1762.5" y="140.04"/><rect fill="#F1F1F1" height="10" style="stroke:#181818;stroke-width:0.5;" width="15" x="2065.5" y="145.04"/><rect fill="#F1F1F1" height="2" style="stroke:#181818;stroke-width:0.5;" width="4" x="2063.5" y="147.04"/><rect fill="#F1F1F1" height="2" style="stroke:#181818;stroke-width:0.5;" width="4" x="2063.5" y="151.04"/><text fill="#000000" font-family="sans-serif" font-size="14" lengthAdjust="spacing" textLength="283" x="1777.5" y="173.0351">teammates_ui_servlets_LegacyUrlMapper</text></a></g><!--entity teammates_ui_servlets_LoginServlet--><g id="elem_teammates_ui_servlets_LoginServlet"><a href="teammates-teammates-psr.system#_Y65gIHhKEe-QQs1vyr-qdg" target="_top" title="teammates-teammates-psr.system#_Y65gIHhKEe-QQs1vyr-qdg" xlink:actuate="onRequest" xlink:href="teammates-teammates-psr.system#_Y65gIHhKEe-QQs1vyr-qdg" xlink:show="new" xlink:title="teammates-teammates-psr.system#_Y65gIHhKEe-QQs1vyr-qdg" xlink:type="simple"><rect fill="#F1F1F1" height="46.2969" rx="2.5" ry="2.5" style="stroke:#181818;stroke-width:0.5;" width="289" x="2239.5" y="140.04"/><rect fill="#F1F1F1" height="10" style="stroke:#181818;stroke-width:0.5;" width="15" x="2508.5" y="145.04"/><rect fill="#F1F1F1" height="2" style="stroke:#181818;stroke-width:0.5;" width="4" x="2506.5" y="147.04"/><rect fill="#F1F1F1" height="2" style="stroke:#181818;stroke-width:0.5;" width="4" x="2506.5" y="151.04"/><text fill="#000000" font-family="sans-serif" font-size="14" lengthAdjust="spacing" textLength="249" x="2254.5" y="173.0351">teammates_ui_servlets_LoginServlet</text></a></g><!--entity teammates_ui_servlets_LogoutServlet--><g id="elem_teammates_ui_servlets_LogoutServlet"><a href="teammates-teammates-psr.system#_Y65gIHhKEe-QQs1vyr-qdg" target="_top" title="teammates-teammates-psr.system#_Y65gIHhKEe-QQs1vyr-qdg" xlink:actuate="onRequest" xlink:href="teammates-teammates-psr.system#_Y65gIHhKEe-QQs1vyr-qdg" xlink:show="new" xlink:title="teammates-teammates-psr.system#_Y65gIHhKEe-QQs1vyr-qdg" xlink:type="simple"><rect fill="#F1F1F1" height="46.2969" rx="2.5" ry="2.5" style="stroke:#181818;stroke-width:0.5;" width="300" x="2681" y="140.04"/><rect fill="#F1F1F1" height="10" style="stroke:#181818;stroke-width:0.5;" width="15" x="2961" y="145.04"/><rect fill="#F1F1F1" height="2" style="stroke:#181818;stroke-width:0.5;" width="4" x="2959" y="147.04"/><rect fill="#F1F1F1" height="2" style="stroke:#181818;stroke-width:0.5;" width="4" x="2959" y="151.04"/><text fill="#000000" font-family="sans-serif" font-size="14" lengthAdjust="spacing" textLength="260" x="2696" y="173.0351">teammates_ui_servlets_LogoutServlet</text></a></g><!--entity teammates_ui_servlets_OAuth2CallbackServlet--><g id="elem_teammates_ui_servlets_OAuth2CallbackServlet"><a href="teammates-teammates-psr.system#_Y65gIHhKEe-QQs1vyr-qdg" target="_top" title="teammates-teammates-psr.system#_Y65gIHhKEe-QQs1vyr-qdg" xlink:actuate="onRequest" xlink:href="teammates-teammates-psr.system#_Y65gIHhKEe-QQs1vyr-qdg" xlink:show="new" xlink:title="teammates-teammates-psr.system#_Y65gIHhKEe-QQs1vyr-qdg" xlink:type="simple"><rect fill="#F1F1F1" height="46.2969" rx="2.5" ry="2.5" style="stroke:#181818;stroke-width:0.5;" width="361" x="3138.5" y="140.04"/><rect fill="#F1F1F1" height="10" style="stroke:#181818;stroke-width:0.5;" width="15" x="3479.5" y="145.04"/><rect fill="#F1F1F1" height="2" style="stroke:#181818;stroke-width:0.5;" width="4" x="3477.5" y="147.04"/><rect fill="#F1F1F1" height="2" style="stroke:#181818;stroke-width:0.5;" width="4" x="3477.5" y="151.04"/><text fill="#000000" font-family="sans-serif" font-size="14" lengthAdjust="spacing" textLength="321" x="3153.5" y="173.0351">teammates_ui_servlets_OAuth2CallbackServlet</text></a></g><!--entity teammates_ui_servlets_WebApiServlet--><g id="elem_teammates_ui_servlets_WebApiServlet"><a href="teammates-teammates-psr.system#_Y65gIHhKEe-QQs1vyr-qdg" target="_top" title="teammates-teammates-psr.system#_Y65gIHhKEe-QQs1vyr-qdg" xlink:actuate="onRequest" xlink:href="teammates-teammates-psr.system#_Y65gIHhKEe-QQs1vyr-qdg" xlink:show="new" xlink:title="teammates-teammates-psr.system#_Y65gIHhKEe-QQs1vyr-qdg" xlink:type="simple"><rect fill="#F1F1F1" height="46.2969" rx="2.5" ry="2.5" style="stroke:#181818;stroke-width:0.5;" width="304" x="3656" y="140.04"/><rect fill="#F1F1F1" height="10" style="stroke:#181818;stroke-width:0.5;" width="15" x="3940" y="145.04"/><rect fill="#F1F1F1" height="2" style="stroke:#181818;stroke-width:0.5;" width="4" x="3938" y="147.04"/><rect fill="#F1F1F1" height="2" style="stroke:#181818;stroke-width:0.5;" width="4" x="3938" y="151.04"/><text fill="#000000" font-family="sans-serif" font-size="14" lengthAdjust="spacing" textLength="264" x="3671" y="173.0351">teammates_ui_servlets_WebApiServlet</text></a></g><!--entity teammates_ui_servlets_WebPageServlet--><g id="elem_teammates_ui_servlets_WebPageServlet"><a href="teammates-teammates-psr.system#_Y65gIHhKEe-QQs1vyr-qdg" target="_top" title="teammates-teammates-psr.system#_Y65gIHhKEe-QQs1vyr-qdg" xlink:actuate="onRequest" xlink:href="teammates-teammates-psr.system#_Y65gIHhKEe-QQs1vyr-qdg" xlink:show="new" xlink:title="teammates-teammates-psr.system#_Y65gIHhKEe-QQs1vyr-qdg" xlink:type="simple"><rect fill="#F1F1F1" height="46.2969" rx="2.5" ry="2.5" style="stroke:#181818;stroke-width:0.5;" width="318" x="579" y="140.04"/><rect fill="#F1F1F1" height="10" style="stroke:#181818;stroke-width:0.5;" width="15" x="877" y="145.04"/><rect fill="#F1F1F1" height="2" style="stroke:#181818;stroke-width:0.5;" width="4" x="875" y="147.04"/><rect fill="#F1F1F1" height="2" style="stroke:#181818;stroke-width:0.5;" width="4" x="875" y="151.04"/><text fill="#000000" font-family="sans-serif" font-size="14" lengthAdjust="spacing" textLength="278" x="594" y="173.0351">teammates_ui_servlets_WebPageServlet</text></a></g><!--link nodeteammates_common_util_Logger_Provider to nodeteammates_ui_servlets_WebPageServlet--><g id="link_nodeteammates_common_util_Logger_Provider_nodeteammates_ui_servlets_WebPageServlet"><path d="M75.096,91.6215 C75.1511,91.4264 75.2068,91.2313 75.2629,91.0364 C75.3752,90.6466 75.4893,90.2573 75.6053,89.8685 C75.8374,89.0911 76.0771,88.316 76.3247,87.5437 C76.8198,85.999 77.3464,84.4657 77.9063,82.9478 C79.0261,79.9118 80.2789,76.9371 81.6794,74.0561 C87.2813,62.5319 95.245,52.505 106.5,46.04 C169.9,9.63 369.37,14.86 435.5,46.04 C450.0275,52.89 463.1106,63.1187 474.613,74.727 C480.3641,80.5312 485.7201,86.6802 490.6638,92.9242 C493.1357,96.0462 495.5045,99.1919 497.7681,102.3302 C498.334,103.1148 498.8934,103.8989 499.4461,104.682 C499.7224,105.0736 499.9971,105.4649 500.2702,105.8559 C500.4067,106.0514 500.5428,106.2469 500.6785,106.4422 " fill="none" id="nodeteammates_common_util_Logger_Provider-nodeteammates_ui_servlets_WebPageServlet" style="stroke:#181818;stroke-width:1.0;"/></g><!--link nodeteammates_ui_servlets_HealthCheckServlet to nodeGateway--><g id="link_nodeteammates_ui_servlets_HealthCheckServlet_nodeGateway"><path d="M1036.096,91.6215 C1036.1511,91.4264 1036.2068,91.2313 1036.2629,91.0364 C1036.3752,90.6466 1036.4893,90.2573 1036.6053,89.8685 C1036.8374,89.0911 1037.0771,88.316 1037.3247,87.5437 C1037.8198,85.999 1038.3464,84.4657 1038.9063,82.9478 C1040.0261,79.9118 1041.2789,76.9371 1042.6794,74.0561 C1048.2813,62.5319 1056.245,52.505 1067.5,46.04 C1132.44,8.74 1337.18,13.23 1404.5,46.04 C1418.64,52.9325 1431.2369,63.1831 1442.2231,74.8002 C1447.7163,80.6087 1452.8067,86.7588 1457.4861,93.0015 C1459.8258,96.1229 1462.0627,99.2675 1464.1958,102.404 C1465.2623,103.9723 1466.3029,105.5386 1467.3174,107.099 C1467.8247,107.8792 1468.3254,108.658 1468.8196,109.4348 C1469.0667,109.8232 1469.3121,110.2111 1469.5559,110.5984 C1469.6779,110.7921 1469.7994,110.9856 1469.9205,111.179 " fill="none" id="nodeteammates_ui_servlets_HealthCheckServlet-nodeGateway" style="stroke:#181818;stroke-width:1.0;"/></g><!--link nodeteammates_ui_servlets_LegacyUrlMapper to nodeGateway--><g id="link_nodeteammates_ui_servlets_LegacyUrlMapper_nodeGateway"><path d="M1694.8517,136.3988 C1694.7926,136.2357 1694.7332,136.0722 1694.6734,135.9082 C1694.4344,135.2522 1694.1899,134.5884 1693.9398,133.9173 C1693.4396,132.575 1692.9172,131.2034 1692.3722,129.8063 C1690.192,124.218 1687.6497,118.2222 1684.7213,112.0638 C1673.0075,87.43 1655.115,60.195 1629.5,46.04 C1591.77,25.18 1569.88,24.57 1532.5,46.04 C1521.245,52.505 1513.2813,62.5319 1507.6794,74.0561 C1506.2789,76.9371 1505.0261,79.9118 1503.9063,82.9478 C1503.3464,84.4657 1502.8198,85.999 1502.3247,87.5437 C1502.0771,88.316 1501.8374,89.0911 1501.6053,89.8685 C1501.4893,90.2573 1501.3752,90.6466 1501.2629,91.0364 C1501.2068,91.2313 1501.1511,91.4264 1501.096,91.6215 " fill="none" id="nodeteammates_ui_servlets_LegacyUrlMapper-nodeGateway" style="stroke:#181818;stroke-width:1.0;"/></g><!--link nodeteammates_ui_servlets_LoginServlet to nodeGateway--><g id="link_nodeteammates_ui_servlets_LoginServlet_nodeGateway"><path d="M2173.8598,145.776 C2173.7164,145.4958 2173.5712,145.2129 2173.4242,144.9275 C2168.7197,135.7944 2162.1394,124.0425 2153.8338,111.6725 C2137.2225,86.9325 2113.71,59.72 2084.5,46.04 C2028.96,20.03 1585.68,15.49 1532.5,46.04 C1521.245,52.505 1513.2813,62.5319 1507.6794,74.0561 C1506.2789,76.9371 1505.0261,79.9118 1503.9063,82.9478 C1503.3464,84.4657 1502.8198,85.999 1502.3247,87.5437 C1502.0771,88.316 1501.8374,89.0911 1501.6053,89.8685 C1501.4893,90.2573 1501.3752,90.6466 1501.2629,91.0364 C1501.2068,91.2313 1501.1511,91.4264 1501.096,91.6215 " fill="none" id="nodeteammates_ui_servlets_LoginServlet-nodeGateway" style="stroke:#181818;stroke-width:1.0;"/></g><!--link nodeteammates_ui_servlets_LogoutServlet to nodeGateway--><g id="link_nodeteammates_ui_servlets_LogoutServlet_nodeGateway"><path d="M2614.9954,145.7855 C2614.8542,145.5054 2614.7112,145.2226 2614.5664,144.9373 C2609.9328,135.8078 2603.4456,124.0594 2595.2413,111.6913 C2578.8325,86.955 2555.555,59.74 2526.5,46.04 C2476.55,22.49 1580.39,18.54 1532.5,46.04 C1521.245,52.505 1513.2813,62.5319 1507.6794,74.0561 C1506.2789,76.9371 1505.0261,79.9118 1503.9063,82.9478 C1503.3464,84.4657 1502.8198,85.999 1502.3247,87.5437 C1502.0771,88.316 1501.8374,89.0911 1501.6053,89.8685 C1501.4893,90.2573 1501.3752,90.6466 1501.2629,91.0364 C1501.2068,91.2313 1501.1511,91.4264 1501.096,91.6215 " fill="none" id="nodeteammates_ui_servlets_LogoutServlet-nodeGateway" style="stroke:#181818;stroke-width:1.0;"/></g><!--link nodeteammates_ui_servlets_OAuth2CallbackServlet to nodeGateway--><g id="link_nodeteammates_ui_servlets_OAuth2CallbackServlet_nodeGateway"><path d="M3067.9954,145.7855 C3067.8542,145.5054 3067.7112,145.2226 3067.5664,144.9373 C3062.9328,135.8078 3056.4456,124.0594 3048.2413,111.6913 C3031.8325,86.955 3008.555,59.74 2979.5,46.04 C2906.79,11.76 1602.21,6 1532.5,46.04 C1521.245,52.505 1513.2813,62.5319 1507.6794,74.0561 C1506.2789,76.9371 1505.0261,79.9118 1503.9063,82.9478 C1503.3464,84.4657 1502.8198,85.999 1502.3247,87.5437 C1502.0771,88.316 1501.8374,89.0911 1501.6053,89.8685 C1501.4893,90.2573 1501.3752,90.6466 1501.2629,91.0364 C1501.2068,91.2313 1501.1511,91.4264 1501.096,91.6215 " fill="none" id="nodeteammates_ui_servlets_OAuth2CallbackServlet-nodeGateway" style="stroke:#181818;stroke-width:1.0;"/></g><!--link nodeteammates_ui_servlets_WebApiServlet to nodeGateway--><g id="link_nodeteammates_ui_servlets_WebApiServlet_nodeGateway"><path d="M3589.9083,146.5933 C3589.6161,146.043 3589.3163,145.4819 3589.0089,144.9106 C3584.0903,135.77 3577.2306,124.01 3568.6213,111.635 C3551.4025,86.885 3527.185,59.675 3497.5,46.04 C3447.9,23.26 1579.83,18.85 1532.5,46.04 C1521.245,52.505 1513.2813,62.5319 1507.6794,74.0561 C1506.2789,76.9371 1505.0261,79.9118 1503.9063,82.9478 C1503.3464,84.4657 1502.8198,85.999 1502.3247,87.5437 C1502.0771,88.316 1501.8374,89.0911 1501.6053,89.8685 C1501.4893,90.2573 1501.3752,90.6466 1501.2629,91.0364 C1501.2068,91.2313 1501.1511,91.4264 1501.096,91.6215 " fill="none" id="nodeteammates_ui_servlets_WebApiServlet-nodeGateway" style="stroke:#181818;stroke-width:1.0;"/></g><!--link nodeteammates_ui_servlets_WebPageServlet to nodeGateway--><g id="link_nodeteammates_ui_servlets_WebPageServlet_nodeGateway"><path d="M544.9569,92.0215 C545.0322,91.8265 545.1081,91.6315 545.1843,91.4367 C545.3368,91.0471 545.4911,90.658 545.6472,90.2694 C545.9593,89.4922 546.2786,88.7171 546.6052,87.9446 C547.2584,86.3997 547.9407,84.8652 548.6536,83.3452 C550.0794,80.3053 551.6272,77.323 553.3075,74.4303 C560.0288,62.8594 568.87,52.72 580.5,46.04 C620.2,23.24 1363.35,25.98 1404.5,46.04 C1418.64,52.9325 1431.2369,63.1831 1442.2231,74.8002 C1447.7163,80.6087 1452.8067,86.7588 1457.4861,93.0015 C1459.8258,96.1229 1462.0627,99.2675 1464.1958,102.404 C1465.2623,103.9723 1466.3029,105.5386 1467.3174,107.099 C1467.8247,107.8792 1468.3254,108.658 1468.8196,109.4348 C1469.0667,109.8232 1469.3121,110.2111 1469.5559,110.5984 C1469.6779,110.7921 1469.7994,110.9856 1469.9205,111.179 " fill="none" id="nodeteammates_ui_servlets_WebPageServlet-nodeGateway" style="stroke:#181818;stroke-width:1.0;"/></g><!--SRC=[lPLlIyCm4CRVzrC4V5t1WRuVKzomieqX8gM4j3lJiFofILejudUtGstNJhSKhM_2fJpFtG_kBZKR9ZEYYK2Fx6N2TC8X837mUG6QaonZaYAhS_1CBKoKo9G4QLUsv81omKUUL6j0s-EQM7Wc9NhrmiymGc5eWGXHNOtVH9dHfwOq5iG9VhWufxDfUdC5_d9fpefI-qzh6aNUMvEvTk8AG2Y9Syiu3XIbeF52guAjGM_hEWd_dYfds80kE5Y3Bw5OLJ7egYgJgu_FRRQZyc49fq2uJISf99kZUFlQOTa2e2GfxpI_hGQmszC3me6fd5hvVnsiAgdSkW0ric69vkFSfgC9uJmc3cFrhNnOmdk8nnaxIjQI3Kwq81HSa7PqlsGAdT_J2FaeTAMFlB3FWrFd_lfH7BBlhNeVRsid-nbtTwU7yuVPxf6XCuFzdArHwLhV0G00]--></g></svg>